<svg xmlns="http://www.w3.org/2000/svg" viewBox="0 0 448 448"><title>emr-icu-vital-sheet</title><path d="M6.9,248.37A13.67,13.67,0,0,0,20.57,262h83.74a13.53,13.53,0,0,0,13.48-11.8L132.59,144l29.89,273.36A13.64,13.64,0,0,0,175,429.44c.39,0,.71.06,1.12.06a13.52,13.52,0,0,0,13.11-10l44.53-158.42,43.87,83.35a13.43,13.43,0,0,0,13.73,7.22A13.72,13.72,0,0,0,303,341.42l21.35-85.35h103a13.68,13.68,0,0,0,.74-27.35H313.68a13.66,13.66,0,0,0-13.27,10.36L285.16,300,242,218.09a13.36,13.36,0,0,0-13.49-7.27,13.85,13.85,0,0,0-11.77,9.88L182,344.27,147.76,31.48a13.6,13.6,0,0,0-13.39-12.13c-7.69.65-12.77,5-13.73,11.84L92.38,234.69H20.55A13.69,13.69,0,0,0,6.9,248.37Z" transform="translate(0 -1)"/><rect width="448" height="448" style="fill:#fff;fill-opacity:0;opacity:0"/></svg>