<svg xmlns="http://www.w3.org/2000/svg" viewBox="0 0 414.4 314.4"><title>masters</title><path d="M397.6,249.2H364.8V206.8a7.56,7.56,0,0,0-8-8H215.2V164.4H248a16.4,16.4,0,0,0,16.8-16.8V66.8A16.4,16.4,0,0,0,248,50H166.4a16.4,16.4,0,0,0-16.8,16.8v81.6a16.4,16.4,0,0,0,16.8,16.8h32.8v33.6H57.6a7.56,7.56,0,0,0-8,8v42.4H16.8A16.4,16.4,0,0,0,0,266v81.6a16.4,16.4,0,0,0,16.8,16.8H98.4a16.4,16.4,0,0,0,16.8-16.8V266a16.4,16.4,0,0,0-16.8-16.8H65.6V214.8H199.2v34.4H166.4A16.4,16.4,0,0,0,149.6,266v81.6a16.4,16.4,0,0,0,16.8,16.8H248a16.4,16.4,0,0,0,16.8-16.8V266A16.4,16.4,0,0,0,248,249.2H215.2V214.8H348.8v34.4H316A16.4,16.4,0,0,0,299.2,266v81.6A16.4,16.4,0,0,0,316,364.4h81.6a16.4,16.4,0,0,0,16.8-16.8V266A16.9,16.9,0,0,0,397.6,249.2ZM99.2,266c-.8-.8,0-.8,0,0v81.6c0,.8,0,.8-.8.8H16.8c-.8,0-.8,0-.8-.8V266c0-.8,0-.8.8-.8Zm149.6,0c-.8-.8,0-.8,0,0v81.6c0,.8,0,.8-.8.8H166.4c-.8,0-.8,0-.8-.8V266c0-.8,0-.8.8-.8ZM165.6,147.6c.8.8,0,.8,0,0V66.8c0-.8,0-.8.8-.8H248c.8,0,.8,0,.8.8v81.6c0,.8,0,.8-.8.8ZM398.4,346.8c0,.8-.8.8,0,0l-82.4.8c-.8,0-.8,0-.8-.8V266c0-.8,0-.8.8-.8h81.6c.8,0,.8,0,.8.8Z" transform="translate(0 -50)"/></svg>