<svg xmlns="http://www.w3.org/2000/svg" viewBox="0 0 512 512"><circle cx="246.72" cy="200.46" r="23.13"/><circle cx="132.64" cy="209.74" r="23.13" transform="translate(-53.92 26.8) rotate(-13.28)"/><path d="M441,9.28H71A61.74,61.74,0,0,0,9.28,71V348.52A61.74,61.74,0,0,0,71,410.2h92.52v80.95a11.54,11.54,0,0,0,11.57,11.57,11.06,11.06,0,0,0,6.84-2.32l120.37-90.2H441a61.74,61.74,0,0,0,61.68-61.68V71A61.74,61.74,0,0,0,441,9.28Zm30.84,339.24A30.93,30.93,0,0,1,441,379.36H292l-8.19,6.17L194.32,452.6V379.36H71a30.93,30.93,0,0,1-30.84-30.84V71A30.93,30.93,0,0,1,71,40.12H441A30.93,30.93,0,0,1,471.88,71Z" /><circle cx="379.36" cy="209.74" r="23.13" transform="translate(-46.48 320.39) rotate(-45)"/></svg>