<svg xmlns="http://www.w3.org/2000/svg" viewBox="0 0 512 512"><path d="M458.78,332.7c-27.21-25.91-48.06-53-48.06-144.93,0-77.46-61.69-140.63-140.15-148.27V22.42a15.57,15.57,0,1,0-31.14,0V39.51c-78.5,7.64-140.15,70.8-140.15,148.26,0,91.9-20.82,119-48,144.93a45.29,45.29,0,0,0-11,49.82,46.43,46.43,0,0,0,43.45,29.2H426.29a46.45,46.45,0,0,0,43.45-29.2A45.28,45.28,0,0,0,458.78,332.7Zm-32.49,47.88H83.71c-13.85,0-20.77-16-11-25.31,33.93-32.31,57.73-68.47,57.73-167.49,0-65.57,55.7-118.65,124.58-118.65S379.58,122.2,379.58,187.77c0,98.64,23.56,135,57.69,167.48C447.1,364.59,440.09,380.58,426.29,380.58Z" /><path d="M255,474a31.14,31.14,0,0,1-31.14-31.14H192.71a62.29,62.29,0,0,0,124.58,0H286.14A31.14,31.14,0,0,1,255,474Z" /><path d="M255.08,198.41A43.55,43.55,0,1,0,298.61,242,43.56,43.56,0,0,0,255.08,198.41ZM277,241.94a22,22,0,1,1-22-21.95,22,22,0,0,1,22,21.95Z" /><path d="M320.34,261.86v0h0Z" /><path d="M362.33,208.67a111.85,111.85,0,0,0-24.77-42.82,15.61,15.61,0,0,0-19.46-3L307,169.29a86.4,86.4,0,0,0-15-8.67V147.78A15.6,15.6,0,0,0,279.7,132.4a113.47,113.47,0,0,0-49.48,0,15.66,15.66,0,0,0-12.28,15.31v12.91A84.4,84.4,0,0,0,203,169.3l-11.14-6.41a15.55,15.55,0,0,0-19.4,3,112.59,112.59,0,0,0-24.77,42.82,15.81,15.81,0,0,0,7.19,18.37l11.13,6.4a94.1,94.1,0,0,0,0,17.28l-11.2,6.42a15.78,15.78,0,0,0-7.08,18.29,112.58,112.58,0,0,0,24.73,42.82,15.77,15.77,0,0,0,19.46,3L203,314.79a88.23,88.23,0,0,0,15,8.64v12.83a15.55,15.55,0,0,0,12.31,15.35,114.33,114.33,0,0,0,49.4,0A15.66,15.66,0,0,0,292,336.25V323.42a87,87,0,0,0,15-8.67l11.14,6.46a15.7,15.7,0,0,0,19.36-3,112.67,112.67,0,0,0,24.77-42.82A15.73,15.73,0,0,0,355.16,257L344,250.57a94.21,94.21,0,0,0,0-17.29l11.25-6.39A15.58,15.58,0,0,0,362.33,208.67Zm-42,53.17,19.84,11.47A90.66,90.66,0,0,1,324.78,300L305,288.5c-14.45,12.35-16.55,13.57-34.5,19.91v22.95a90.38,90.38,0,0,1-30.78,0v-22.9c-18.15-6.41-20.38-7.89-34.49-19.91L185.33,300A90,90,0,0,1,170,273.36l19.84-11.52c-3.3-18.08-3.49-20.65,0-39.82L170,210.52a90.11,90.11,0,0,1,15.38-26.66l19.85,11.48c14.44-12.36,16.54-13.57,34.49-19.92V152.5a95.18,95.18,0,0,1,30.78,0v23c18.09,6.42,20.39,7.79,34.5,19.92l19.83-11.48a89.7,89.7,0,0,1,15.4,26.66L320.34,222C323.63,240.11,323.84,242.68,320.34,261.84Z" /></svg>