<svg xmlns="http://www.w3.org/2000/svg" viewBox="0 0 45 45"><title>3</title><rect width="45" height="45" style="fill:none;opacity:0"/><path d="M30.08,24.86c-2.43,0-3.6,1.35-7.58,1.35s-5.14-1.35-7.58-1.35A11.37,11.37,0,0,0,3.55,36.23v3.52a4.06,4.06,0,0,0,4.06,4.06H37.39a4.06,4.06,0,0,0,4.06-4.06V36.23A11.37,11.37,0,0,0,30.08,24.86Zm8.66,14.89a1.36,1.36,0,0,1-1.35,1.35H7.61a1.36,1.36,0,0,1-1.35-1.35V36.23a8.67,8.67,0,0,1,8.66-8.66c1.66,0,3.31,1.35,7.58,1.35s5.92-1.35,7.58-1.35a8.67,8.67,0,0,1,8.66,8.66ZM22.5,22.16A10.83,10.83,0,1,0,11.67,11.33,10.83,10.83,0,0,0,22.5,22.16Zm0-18.95a8.12,8.12,0,1,1-8.12,8.12A8.13,8.13,0,0,1,22.5,3.21Z" style="fill:#4fc6e1"/><path d="M39.13,26.62h-.3a1,1,0,0,0-1,1v6l-8-6.57A1.73,1.73,0,0,0,27,28.35V42.76a1.72,1.72,0,0,0,1,1.57,1.76,1.76,0,0,0,.74.17,1.72,1.72,0,0,0,1.1-.4l8-6.61v6a1,1,0,0,0,1,1h.3a1,1,0,0,0,1-1V27.6A1,1,0,0,0,39.13,26.62Zm-2.36,8.92-7.47,6.11V29.47Z" style="fill:#3f51b5"/></svg>