<svg xmlns="http://www.w3.org/2000/svg" viewBox="0 0 448 448"><title>emr-pacs</title><rect width="448" height="448" style="fill:#fff;fill-opacity:0;opacity:0"/><path d="M176.41,341.39a25.2,25.2,0,1,1,25.2-25.2h0a25.19,25.19,0,0,1-25.15,25.23h-.05Z"/><path d="M242.91,367.93a17.5,17.5,0,1,1,17.5-17.5h0A17.5,17.5,0,0,1,243,368h0Z"/><path d="M260.41,316.19A12.6,12.6,0,1,1,273,303.58v.05a12.59,12.59,0,0,1-12.59,12.59Z"/><path d="M128.06,93.35,25.12,92.82a3.5,3.5,0,0,0-2.46,1.05,3.7,3.7,0,0,0-1.05,2.45L21.54,110A3.5,3.5,0,0,0,25,113.5h6.87l-.8,157.91a44.65,44.65,0,0,0,89.29.46l.34-68.52.46-89.39H128a3.39,3.39,0,0,0,2.46-1,3.54,3.54,0,0,0,1-2.45l.07-13.68a3.5,3.5,0,0,0-3.52-3.48ZM52.68,113.82l47.61.25L100,179.41H52.35ZM99.49,271.73a23.81,23.81,0,0,1-47.61-.23l.35-71.64H99.85l-.18,37.21Z"/><path d="M405.22,357.29,302.67,192.35l-1.21-1.94V34H327a2.5,2.5,0,0,0,2.5-2.5v-21A2.5,2.5,0,0,0,327,8H124a2.5,2.5,0,0,0-2.5,2.5v21A2.5,2.5,0,0,0,124,34h25.5V190.41l-1.21,1.94-15.8,25.38-21,33.77L76.8,307.33,65.8,325l-20,32.26A54.14,54.14,0,0,0,91.5,440H359.42a54.13,54.13,0,0,0,45.8-82.71ZM383.8,399.68A27.55,27.55,0,0,1,359.42,414H91.5a27.53,27.53,0,0,1-24.35-14.36A28.27,28.27,0,0,1,67.82,371l40.25-64.74,6.77-10.83,33.38-53.75L170.37,206a34.08,34.08,0,0,0,5.09-17.92V34h100V188.13a34,34,0,0,0,5.1,17.92l22.14,35.6L383.11,371A28.32,28.32,0,0,1,383.8,399.68Z"/></svg>