<svg xmlns="http://www.w3.org/2000/svg" viewBox="0 0 640 512"><title>emr-mar</title><path d="M632,464H8a8,8,0,0,0-8,8v32a8,8,0,0,0,8,8H632a8,8,0,0,0,8-8V472A8,8,0,0,0,632,464ZM256,304a16,16,0,1,0,16-16A16,16,0,0,0,256,304Zm240-48a16,16,0,1,0-16-16A16,16,0,0,0,496,256ZM96,272a16,16,0,1,0-16-16A16,16,0,0,0,96,272Zm488.6,56.4-17.8,26.7a16.05,16.05,0,0,1-13.3,7.2c-9.8,0-55.6-34.9-137.5-58.9V416h48V372.2a569.22,569.22,0,0,1,57,29.2,63.78,63.78,0,0,0,85.7-19.7L624.5,355a63.89,63.89,0,0,0-20.2-90.3c-13.8-8.3-35.3-20.1-61.2-32.3,4.2,26.5-13.3,41.5-17.4,44.9,23.2,11.1,42.2,21.6,53.9,28.6A15.71,15.71,0,0,1,584.6,328.4ZM33.2,381.7a63.78,63.78,0,0,0,85.7,19.7,569.22,569.22,0,0,1,57-29.2V416h48V303.4C142.8,327.2,96,362.3,86.4,362.3a15.81,15.81,0,0,1-13.3-7.2L55.3,328.4a15.85,15.85,0,0,1,4.9-22.5c3.6-2.2,8.5-4.9,13.4-7.7a47.91,47.91,0,0,1-25.5-40.7c-4.4,2.5-9.1,5.1-12.6,7.2A63.78,63.78,0,0,0,6.1,305.3,64.68,64.68,0,0,0,15.3,355l17.9,26.7Zm110-117.3C192.7,243.5,255.7,224,320,224c44.9,0,89,9.6,128.6,22.4-3.6-26.6,14.1-41.1,18.3-44.4a557.27,557.27,0,0,0-63-16.8c17.2-19.7,28-45.1,28-73.3C432,50.2,381.8,0,320,0A112.07,112.07,0,0,0,208,112c0,28,10.7,53.4,27.8,73.1-39.8,8.1-77.1,20.8-109.3,34.2a47.06,47.06,0,0,1,16.7,45.1ZM320,48a64,64,0,1,1-64,64A64.06,64.06,0,0,1,320,48Zm32,336a16,16,0,1,0,16-16A16,16,0,0,0,352,384Z"/></svg>