<svg xmlns="http://www.w3.org/2000/svg" viewBox="0 0 560 512"><path d="M251.82,251.32a174.28,174.28,0,0,1,9.43-25.93A69.09,69.09,0,0,1,279.94,89.74c31.69,0,58.09,21.48,66.4,50.56a166,166,0,0,1,25.93-9.43C360.15,91.19,323.63,62.1,280,62.1a97,97,0,0,0-96.95,97C183.05,202.68,212.13,239.2,251.82,251.32Z" /><path d="M86.1,228.3a69.25,69.25,0,1,0-69.25-69.25h0A69.23,69.23,0,0,0,86.06,228.3Zm0-110.8a41.55,41.55,0,1,1-41.55,41.55A41.55,41.55,0,0,1,86.1,117.5Z" /><path d="M155.35,422.2a13.89,13.89,0,0,1-13.85-13.85V369.57a71.93,71.93,0,0,1,12.24-40.17C165.69,311.66,187,301,210.61,301c12.4,0,16.27,2.08,35.23,6.24a140.43,140.43,0,0,1,.52-28.18c-14.11-3.74-22.85-5.72-35.75-5.72-31.43,0-62,14-79.9,40.58a99.27,99.27,0,0,0-17,55.66v38.78a41.57,41.57,0,0,0,41.52,41.53H336.17a170.16,170.16,0,0,1-37.65-27.7Z" /><path d="M546.87,316.88l-14.28-8.22a119,119,0,0,0,0-22.17L547,278.26a19.94,19.94,0,0,0,9.09-23.39,143.51,143.51,0,0,0-31.77-55,20.06,20.06,0,0,0-24.94-3.81l-14.27,8.23a111.89,111.89,0,0,0-19.22-11.08V176.79a20,20,0,0,0-15.78-19.64,145.13,145.13,0,0,0-63.45,0,20.09,20.09,0,0,0-15.78,19.64v16.45a109.8,109.8,0,0,0-19.17,11.08l-14.28-8.23a19.92,19.92,0,0,0-24.8,3.81,145,145,0,0,0-31.77,54.88A20.29,20.29,0,0,0,290,278.33l14.28,8.23a118.77,118.77,0,0,0,0,22.15l-14.37,8.23a20.29,20.29,0,0,0-9.09,23.46,144.64,144.64,0,0,0,31.77,55,20.29,20.29,0,0,0,24.9,3.8L351.78,391A111.37,111.37,0,0,0,370.94,402v16.45a20.05,20.05,0,0,0,15.78,19.65,146.87,146.87,0,0,0,63.36,0,20.1,20.1,0,0,0,15.78-19.65V402A111.89,111.89,0,0,0,485.08,391l14.26,8.22a20.15,20.15,0,0,0,24.8-3.8,144.66,144.66,0,0,0,31.77-54.89A20.17,20.17,0,0,0,546.87,316.88Zm-44.66,6.23,25.44,14.71A116.2,116.2,0,0,1,507.92,372l-25.45-14.73c-18.53,15.84-21.21,17.39-44.24,25.53v29.44a116.7,116.7,0,0,1-39.46,0V382.81c-23.29-8.22-26.14-10.14-44.23-25.53L329.09,372a115.32,115.32,0,0,1-19.78-34.19l25.45-14.71c-4.25-23.2-4.5-26.5,0-51.07L309.31,257.3a115.38,115.38,0,0,1,19.74-34.2l25.44,14.73C373,222,375.7,220.42,398.73,212.28V182.86a121,121,0,0,1,39.46,0v29.42c23.2,8.23,26.14,10.05,44.23,25.55l25.46-14.73a115.44,115.44,0,0,1,19.72,34.2L502.16,272c4.28,23.19,4.54,26.48,0,51.07Z" /><path d="M139,267.17A63.07,63.07,0,0,0,103.42,256H68.78C32.52,256,3,287.08,3,325.25a13.85,13.85,0,0,0,27.69,0c0-22.94,17.14-41.55,38.08-41.55h34.64a34.2,34.2,0,0,1,13.52,2.86A119.74,119.74,0,0,1,139,267.17Z" /><path d="M418.5,241.72a55.84,55.84,0,1,0,55.83,55.84h0A55.92,55.92,0,0,0,418.5,241.72Zm0,84a28.19,28.19,0,1,1,28.13-28.24v.11A28.19,28.19,0,0,1,418.5,325.68Z" /></svg>