<svg xmlns="http://www.w3.org/2000/svg" viewBox="0 0 512 512"><title>visit-type</title><path d="M371.7,187.7A115.7,115.7,0,1,0,256,303.4,115.69,115.69,0,0,0,371.7,187.7ZM256,100.76A49.26,49.26,0,1,1,206.74,150,49.26,49.26,0,0,1,256,100.76Zm0,192.54a107.23,107.23,0,0,1-82-38.17,62.41,62.41,0,0,1,55.13-33.47,13.77,13.77,0,0,1,4,.61,69.63,69.63,0,0,0,45.78,0,13.77,13.77,0,0,1,4-.61A62.41,62.41,0,0,1,338,255.13,107.23,107.23,0,0,1,256,293.3Z" style="opacity:0"/><path d="M64,192C64,86.14,150.12,0,256,0H0V512H256a10.68,10.68,0,0,1-7.31-2.9C241.15,502,64,333.65,64,192Z" style="opacity:0"/><path d="M256,0C361.88,0,448,86.14,448,192c0,141.65-177.15,310-184.69,317.1A10.68,10.68,0,0,1,256,512H512V0Z" style="opacity:0"/><path d="M448,192C448,86.14,361.88,0,256,0S64,86.14,64,192c0,141.65,177.15,310,184.69,317.1a10.66,10.66,0,0,0,14.62,0C270.85,502,448,333.65,448,192Zm-307.7-4.3A115.7,115.7,0,1,1,256,303.4,115.69,115.69,0,0,1,140.3,187.7Z"/><circle cx="256" cy="150.01" r="49.26"/><path d="M282.87,221.66a13.77,13.77,0,0,0-4,.61,69.63,69.63,0,0,1-45.78,0,13.77,13.77,0,0,0-4-.61A62.41,62.41,0,0,0,174,255.13a107.16,107.16,0,0,0,164,0A62.41,62.41,0,0,0,282.87,221.66Z"/></svg>