<svg xmlns="http://www.w3.org/2000/svg" viewBox="0 0 640 512"><title>connect</title><path d="M592,96H240a48.05,48.05,0,0,0-48,48v16h32V144a16,16,0,0,1,16-16H592a16,16,0,0,1,16,16V368a16,16,0,0,1-16,16H416v32H592a48.05,48.05,0,0,0,48-48V144A48.05,48.05,0,0,0,592,96ZM96,48a16,16,0,0,1,16-16H400a16,16,0,0,1,16,16V64h32V48A48.05,48.05,0,0,0,400,0H112A48.05,48.05,0,0,0,64,48V160H96ZM560,256a16,16,0,0,0,16-16V176a16,16,0,0,0-16-16H496a16,16,0,0,0-16,16v64a16,16,0,0,0,16,16Zm-48-64h32v32H512Zm-176,0H48A48.05,48.05,0,0,0,0,240V464a48.05,48.05,0,0,0,48,48H336a48.05,48.05,0,0,0,48-48V240A48.05,48.05,0,0,0,336,192Zm16,272a16,16,0,0,1-16,16H48a16,16,0,0,1-16-16V313.6c12.8,9.6,32,25.6,96,70.4,12.8,9.6,38.4,32,64,32s51.2-22.4,64-32c64-44.8,83.2-60.8,96-70.4Zm0-188.8c-25.6,19.2-22.4,19.2-115.2,86.4C227.2,364.8,208,384,192,384s-35.2-19.2-44.8-25.6C54.4,291.2,57.6,291.2,32,272V240a16,16,0,0,1,16-16H336a16,16,0,0,1,16,16Z"/></svg>