<svg xmlns="http://www.w3.org/2000/svg" viewBox="0 0 448 448"><title>emr-care-team</title><path d="M410.81,64.94c-23.38-25.36-55.46-39.33-90.33-39.33-26.14,0-50.07,8.25-71.13,24.53A144.75,144.75,0,0,0,224,75.69a143.74,143.74,0,0,0-25.34-25.53c-21.06-16.3-45-24.55-71.11-24.55-34.85,0-66.92,14-90.3,39.33-23,25-35.72,59.08-35.72,96,0,37.94,14.06,72.58,44.26,109,26.83,32.38,64.92,64.81,109,102.36l.07.06.06.05h0l1.28,1.09c14.62,12.47,31.2,26.61,48.32,41.58a29.59,29.59,0,0,0,39,0c18-15.76,35.59-30.75,49.75-42.8l.11-.09c44.12-37.61,82.23-70.09,108.89-102.26,30.2-36.42,44.26-71.06,44.26-109C446.5,124,433.83,89.94,410.81,64.94ZM269.86,76.62a81.11,81.11,0,0,1,50.62-17.54,88.36,88.36,0,0,1,65.7,28.51C403.49,106.4,413,132.44,413,160.91c0,30.12-11.27,57.16-36.55,87.67-25,30.22-62.07,61.73-104.93,98.22-14,11.9-30.45,26-47.57,40.83-16.83-14.69-33-28.45-47.3-40.65l-.09-.08-.05,0,0,0,0,0-.76-.66c-42.67-36.38-79.51-67.8-104.19-97.58C46.25,218.07,35,191,35,160.91c0-28.49,9.54-54.51,26.85-73.29a88.33,88.33,0,0,1,65.7-28.54,81.23,81.23,0,0,1,50.67,17.54c13.56,10.49,23,23.79,28.58,33.1a20.09,20.09,0,0,0,34.51,0C246.85,100.4,256.33,87.09,269.86,76.62Z" transform="translate(0 -1)"/><rect width="448" height="448" style="fill:#fff;fill-opacity:0;opacity:0"/></svg>