<svg xmlns="http://www.w3.org/2000/svg" viewBox="0 0 461.74 462.24"><title>entity-room-map</title><path d="M214.64,77.13h7.62c3.63,0,6.31-.91,8.06-2.72A10,10,0,0,0,233,67.19a8.8,8.8,0,0,0-2.6-6.78A10.08,10.08,0,0,0,223.2,58a10.56,10.56,0,0,0-6.88,2.26,7.19,7.19,0,0,0-2.77,5.86h-14.3A17.62,17.62,0,0,1,202.3,56a20.3,20.3,0,0,1,8.51-7,28.51,28.51,0,0,1,12-2.52q11.43,0,17.91,5.46T247.24,67a15.08,15.08,0,0,1-3,9.1,19.54,19.54,0,0,1-7.91,6.38A18,18,0,0,1,245.39,89a17.83,17.83,0,0,1,3,10.29,19,19,0,0,1-7,15.39q-7,5.79-18.53,5.79-10.79,0-17.63-5.69a18.59,18.59,0,0,1-6.86-15h14.3a8.34,8.34,0,0,0,3,6.63,11.26,11.26,0,0,0,7.5,2.57q5.1,0,8-2.69a9.32,9.32,0,0,0,2.92-7.19q0-10.78-11.87-10.79h-7.57Z" style="fill:#231f20"/><path d="M178.71,190.4H129.34v-9.79l23.3-24.84a57.17,57.17,0,0,0,7.1-9.15,14.71,14.71,0,0,0,2.3-7.42,11,11,0,0,0-2.42-7.54,8.74,8.74,0,0,0-6.93-2.75,9.41,9.41,0,0,0-7.64,3.34,13.19,13.19,0,0,0-2.8,8.78H127.9a23.63,23.63,0,0,1,3.19-12,22.12,22.12,0,0,1,8.88-8.54,27,27,0,0,1,13-3.09q11.13,0,17.29,5.35t6.16,15.08a24.3,24.3,0,0,1-2.77,10.89q-2.78,5.53-9.5,12.91l-16.38,17.27h31Z" style="fill:#231f20"/><path d="M95.26,261.33H81V206.22l-17.07,5.29V199.88L93.73,189.2h1.53Z" style="fill:#231f20"/><path d="M147.46,0,0,147.48V312l170.05.24V141.78H31.92l52-52h138.4V222.32H179.17v18.82h61.41V71H102.71l52.53-52.53H293.36v133H249.62v18.7h62.21V0Zm3.63,160.54V294H18.31V160.54Z" style="fill:#231f20"/><path d="M337.14,282.32a50.25,50.25,0,1,0,50.23,50.27h0A50.3,50.3,0,0,0,337.14,282.32Zm0,75.55a25.33,25.33,0,1,1,25.31-25.35h0A25.38,25.38,0,0,1,337.14,357.87Z" style="fill:#231f20"/><path d="M452.62,349.89l-12.88-7.39a108.86,108.86,0,0,0,0-19.94l13-7.38a18,18,0,0,0,8.17-21,129,129,0,0,0-28.58-49.41,18,18,0,0,0-22.46-3.43l-12.82,7.4a99.69,99.69,0,0,0-17.31-10V223.9a18,18,0,0,0-14.17-17.75,130.91,130.91,0,0,0-57.09,0,18.08,18.08,0,0,0-14.17,17.68v14.89a96.6,96.6,0,0,0-17.25,10l-12.85-7.4a18,18,0,0,0-22.39,3.43,130,130,0,0,0-28.58,49.41,18.21,18.21,0,0,0,8.3,21.19l12.84,7.39a109,109,0,0,0,0,19.95l-12.92,7.4a18.22,18.22,0,0,0-8.18,21.1,130,130,0,0,0,28.54,49.41,18.2,18.2,0,0,0,22.44,3.4l12.83-7.4a100.54,100.54,0,0,0,17.29,10v14.8a18,18,0,0,0,14.21,17.72,131.73,131.73,0,0,0,57,0,18.07,18.07,0,0,0,14.15-17.73v-14.8a100.25,100.25,0,0,0,17.3-10L409.87,424a18.13,18.13,0,0,0,22.34-3.42,130,130,0,0,0,28.58-49.42A18.15,18.15,0,0,0,452.62,349.89Zm-40.18,5.62,22.89,13.24a104.65,104.65,0,0,1-17.76,30.77l-22.89-13.25c-16.67,14.25-19.09,15.66-39.81,23v26.48a103.78,103.78,0,0,1-35.51,0V409.3c-20.94-7.4-23.51-9.11-39.8-23l-22.89,13.25a104,104,0,0,1-17.76-30.77l22.9-13.29c-3.81-20.87-4-23.83,0-45.94l-22.89-13.28a103.91,103.91,0,0,1,17.76-30.76l22.9,13.24c16.66-14.26,19.09-15.65,39.79-23v-26.4a109.61,109.61,0,0,1,35.51,0v26.49c20.88,7.4,23.53,9,39.81,23l22.89-13.24a103.6,103.6,0,0,1,17.77,30.76L412.44,309.6c3.8,20.86,4,23.83,0,45.95Z" style="fill:#231f20"/></svg>