<svg xmlns="http://www.w3.org/2000/svg" viewBox="0 0 489.59 496"><title>gdn</title><path d="M504,255.53C504.25,392.17,392.82,503.9,256.18,504a247.06,247.06,0,0,1-166.4-63.94,12,12,0,0,1-.44-17.4l17-17a12.05,12.05,0,0,1,16.56-.4A200,200,0,1,0,114.08,115l49.09,48.42A12,12,0,0,1,154.74,184H26.41a12,12,0,0,1-12-12V45.44A12,12,0,0,1,34.84,36.9L79.93,81.37A247.24,247.24,0,0,1,256,8C392.81,8,503.75,118.78,504,255.53Z" transform="translate(-14.41 -8)"/><path d="M370,200,262.63,149.62l-.17-.08a16.88,16.88,0,0,0-13.23,0L141.39,201.2a5.91,5.91,0,0,0-2.84,2.25l-1,1a9,9,0,0,0-2.72,4.79c-.15.4-.25.75-.33,1a1.21,1.21,0,0,1-.05.18l-.52,1v1.43a7.36,7.36,0,0,0-.41,2.3V363.5a15.45,15.45,0,0,0,8.22,13.77L248.36,434a6.46,6.46,0,0,0,2.5,1.12,4.55,4.55,0,0,0,.88.34,13.32,13.32,0,0,0,8.22,0,6,6,0,0,0,1.28-.55l.07,0h.37L370,377.27a15.43,15.43,0,0,0,8.22-13.77V215.59a6.79,6.79,0,0,0,0-4,7.73,7.73,0,0,0-.8-3v-.3l-.58-1.15a14.88,14.88,0,0,0-.94-1.6,4.55,4.55,0,0,1-.28-.43l-.39-.79-1-1Zm-129.7,81.19V394L163.9,353.72V240.9Zm107.14-40.3V353.73L271.45,394V281.21ZM238.66,189l17.17-8.1,72.83,35-19.07,10.29ZM276,243.41l-20.2,10.88-72.7-38.79,20.45-9.72Z" transform="translate(-14.41 -8)"/></svg>