<svg xmlns="http://www.w3.org/2000/svg" viewBox="0 0 489.59 496"><title>history</title><path d="M504,255.53C504.25,392.17,392.82,503.9,256.18,504a247.06,247.06,0,0,1-166.4-63.94,12,12,0,0,1-.44-17.4l17-17a12.05,12.05,0,0,1,16.56-.4A200,200,0,1,0,114.08,115l49.09,48.42A12,12,0,0,1,154.74,184H26.41a12,12,0,0,1-12-12V45.44A12,12,0,0,1,34.84,36.9L79.93,81.37A247.24,247.24,0,0,1,256,8C392.81,8,503.75,118.78,504,255.53ZM336.94,345.7l14.12-19.4a12,12,0,0,0-2.65-16.77L280,259.78V116a12,12,0,0,0-12-12H244a12,12,0,0,0-12,12V284.22l88.18,64.13A12,12,0,0,0,336.94,345.7Z" transform="translate(-14.41 -8)"/></svg>