<svg id="Capa_1" enable-background="new 0 0 512 512" height="512" viewBox="0 0 512 512" width="512" xmlns="http://www.w3.org/2000/svg"><g><path d="m38.484 330.7c8.119-1.648 13.364-9.565 11.717-17.684-2.788-13.735-4.201-27.871-4.201-42.016 0-79.059 38.131-129.041 70.118-157.05 37.927-33.209 87.438-53.113 135.116-55.397l-5.84 5.84c-5.858 5.858-5.858 15.355 0 21.213 2.928 2.93 6.767 4.394 10.606 4.394s7.678-1.464 10.606-4.393l30-30c6.582-6.592 5.065-16.133 0-21.213l-30-30c-5.857-5.858-15.355-5.858-21.213 0s-5.858 15.355 0 21.213l3.102 3.102c-53.96 2.97-109.596 25.421-152.14 62.672-24.742 21.664-44.214 47.326-57.875 76.272-14.917 31.607-22.48 66.378-22.48 103.347 0 16.145 1.615 32.289 4.801 47.984 1.443 7.112 7.697 12.019 14.685 12.019.988 0 1.993-.098 2.998-.303z"/><path d="m320.757 271.292c-8.136-1.625-16.026 3.643-17.651 11.765l-6.003 30c-1.626 8.123 3.642 16.026 11.765 17.652.994.199 1.983.294 2.959.294 7.003 0 13.267-4.93 14.692-12.06l6.003-30c1.625-8.123-3.642-16.026-11.765-17.651z"/><path d="m208.895 283.057c-1.625-8.122-9.522-13.392-17.651-11.765-8.123 1.625-13.391 9.528-11.765 17.652l6.003 30c1.427 7.13 7.688 12.06 14.692 12.06.975 0 1.966-.096 2.959-.294 8.123-1.625 13.391-9.528 11.765-17.652z"/><path d="m358.353 155.49c-4.7-6.822-14.038-8.544-20.862-3.843l-81.491 56.138-81.49-56.138c-6.823-4.7-16.163-2.979-20.862 3.843-4.7 6.822-2.979 16.162 3.843 20.862l50.294 34.648s-101.516 0-101.534 0c-10.974 0-18.142 10.673-14.09 20.79l.027.069 59.885 149.712c2.278 5.695 7.793 9.429 13.927 9.429h180c6.134 0 11.649-3.734 13.927-9.429l59.885-149.712c4.241-9.834-3.235-21.109-14.117-20.859h-101.48l50.295-34.647c6.822-4.7 8.543-14.04 3.843-20.863zm-22.508 205.51h-159.69l-48-120h255.689z"/><path d="m256 271c-8.284 0-15 6.716-15 15v30c0 8.284 6.716 15 15 15s15-6.716 15-15v-30c0-8.284-6.716-15-15-15z"/><path d="m349.924 459.88c-29.299 14.678-60.9 22.12-93.924 22.12-65.48 0-126.842-31.126-166.482-82.899l8.656 1.127c8.217 1.072 15.74-4.724 16.811-12.938 1.068-8.215-4.724-15.741-12.939-16.811l-40.98-5.334c-7.081-.923-14.36 3.401-16.425 10.992l-10.981 40.981c-2.144 8.002 2.604 16.227 10.606 18.371 1.301.349 2.606.515 3.893.515 6.622 0 12.684-4.42 14.479-11.121l2.293-8.558c45.236 59.724 115.751 95.675 191.069 95.675 37.731 0 73.854-8.511 107.361-25.297 7.406-3.711 10.403-12.723 6.692-20.13-3.709-7.407-12.72-10.402-20.129-6.693z"/><path d="m461.8 410.803-11.713 1.461c29.818-40.752 45.913-89.689 45.913-141.264 0-47.649-13.899-93.814-40.196-133.503-25.725-38.827-61.618-69.091-103.798-87.52-7.588-3.317-16.435.148-19.751 7.74-3.317 7.591.148 16.434 7.739 19.751 76.546 33.443 126.006 109.409 126.006 193.532 0 47.11-15.348 91.705-43.685 128.263l-2.511-13.374c-1.528-8.141-9.361-13.505-17.51-11.975-8.142 1.528-13.503 9.368-11.975 17.51l8.133 43.325c1.448 7.731 8.733 13.1 16.599 12.117l50.461-6.293c8.221-1.025 14.054-8.521 13.028-16.741-1.024-8.221-8.51-14.054-16.74-13.029z"/></g></svg>