<svg xmlns="http://www.w3.org/2000/svg" viewBox="0 0 576 512"><title>x-ray</title><rect width="576" height="512" style="fill:#fff;opacity:0"/><path d="M456,469H353.8l-1.1-3.4-18.6-55.8a6.9,6.9,0,0,0-6.7-4.8H248.7a6.87,6.87,0,0,0-6.6,4.8l-18.6,55.8-1.1,3.4H120a19,19,0,0,0,0,38H456a19,19,0,0,0,0-38Z"/><path d="M526.12,161.75H356.67C412.79,102,370.64,3,288,3s-124.8,99-68.67,158.75H49.88A14.88,14.88,0,0,0,35,176.63V494.12A14.88,14.88,0,0,0,49.88,509H526.12A14.88,14.88,0,0,0,541,494.12V176.63A14.88,14.88,0,0,0,526.12,161.75ZM288,32.76a64.5,64.5,0,1,1-64.49,64.49A64.57,64.57,0,0,1,288,32.76ZM511.24,479.24H64.76V191.51H171.08a95.3,95.3,0,0,0-21,43.33c-24.65,123.22-15.44,73-35.49,193.33a14.88,14.88,0,0,0,29.36,4.9c19.94-119.63,11.94-75.52,35.32-192.39,6-30.18,30.68-49.17,53.68-49.17h40.19V257H261.46c-5.62,0-10.73-2.51-13-6.4a14.88,14.88,0,0,0-25.68,15c7.64,13,22.46,21.12,38.69,21.12h11.66v49.6H249.66c-9.44,0-18.66-7.92-23.48-20.19a14.88,14.88,0,1,0-27.7,10.89c9.47,24.1,29.08,39.07,51.18,39.07h23.46v49.61H243.76c-12.8,0-24.29-6.54-30-17.06a14.88,14.88,0,1,0-26.18,14.15C198.49,433,220,445.5,243.76,445.5h88.48c23.75,0,45.27-12.52,56.16-32.67a14.88,14.88,0,1,0-26.18-14.15c-5.69,10.52-17.17,17.06-30,17.06H302.88V366.13h23.46c22.1,0,41.71-15,51.18-39.07a14.88,14.88,0,1,0-27.7-10.89c-4.82,12.27-14,20.19-23.48,20.19H302.88v-49.6h11.66c16.23,0,31-8.09,38.69-21.12a14.88,14.88,0,0,0-25.68-15c-2.28,3.89-7.39,6.4-13,6.4H302.88V191.51h40.19c23,0,47.65,19,53.68,49.17,23.38,116.86,15.38,72.75,35.32,192.39a14.88,14.88,0,0,0,29.36-4.9c-20-120.23-10.83-70-35.49-193.33a95.3,95.3,0,0,0-21-43.33H511.24Z"/></svg>