<svg xmlns="http://www.w3.org/2000/svg" viewBox="0 0 512 512"><title>calling</title><path d="M484.62,185.84c-22.69,8.67-70,6.68-110,12.12-52.75,7.19-68.32,13.68-94.75,14.13-20,.27-23.57-38.23,18.43-56.73,7.92-3.47,47.19-12.82,56.85-17.36,0,0-62.64-14.69-102.92,3.54-32.81,14.86-66.85,40.72-92.74,42.32-13.65.85-31.73-6.28-28.73-22.81,1.34-7.14,72.09-66.48,138-88.76,12.35-4.21,16.86-5.06,38.5-6.21,50.84-2.76,53-3.5,107.79-3.5C439.07,62.58,512,0,512,0H0V512H512V165.09C502.39,174.91,492.86,182.69,484.62,185.84ZM175.14,275.68V249.16H150.06v-26h76.16v26H201.14v26.52A159,159,0,0,1,346.65,421.2h-317A159,159,0,0,1,175.14,275.68Zm195.8,197.5v26H5.34v-26H46v-26H330.54v26h40.4Z" style="fill:#fff;opacity:0"/><path d="M346.63,421.2h0A159,159,0,0,0,201.14,275.68,159,159,0,0,1,346.63,421.2Z" style="fill:#fff;fill-opacity:0"/><rect x="46" y="447.17" width="284.54" height="0.02" style="fill:#fff;fill-opacity:0"/><rect x="5.34" y="473.17" width="40.66" height="0.01" style="fill:#fff;fill-opacity:0"/><rect x="330.54" y="473.17" width="40.4" height="0.01" style="fill:#fff;fill-opacity:0"/><path d="M175.14,275.68A159,159,0,0,0,29.63,421.2h0A159,159,0,0,1,175.14,275.68Z"/><path d="M29.65,421.2h317A159,159,0,0,0,201.14,275.68V249.16h25.08v-26H150.06v26h25.08v26.52A159,159,0,0,0,29.65,421.2Z"/><polygon points="330.54 473.17 330.54 447.19 46 447.19 46 473.17 46 473.18 5.34 473.18 5.34 499.17 370.94 499.17 370.94 473.18 330.54 473.18 330.54 473.17"/><path d="M415.05,62.58c-54.75,0-56.95.74-107.79,3.5-21.64,1.15-26.15,2-38.5,6.21-65.91,22.28-136.66,81.62-138,88.76-3,16.53,15.08,23.66,28.73,22.81,25.89-1.6,59.93-27.46,92.74-42.32C292.51,123.31,355.14,138,355.15,138c-9.66,4.54-48.93,13.89-56.85,17.36-42,18.5-38.45,57-18.43,56.73,26.43-.45,42-6.94,94.75-14.13,40-5.44,87.31-3.45,110-12.12,8.24-3.15,17.77-10.93,27.38-20.75V0S439.07,62.58,415.05,62.58Z"/></svg>