<svg xmlns="http://www.w3.org/2000/svg" viewBox="0 0 448 448"><title>emr-icu-flow-sheet</title><rect width="448" height="448" style="fill:#fff;fill-opacity:0;opacity:0"/><path d="M67.57,204.09a32.75,32.75,0,0,0,22.89-9.3l3.06-3,3.8,1.9L135.91,213l4,2-.71,4.36a31.69,31.69,0,0,0-.4,3.88,33.11,33.11,0,0,0,66.21-.11A32.7,32.7,0,0,0,201.65,209l-1.88-3.85,3-3,52.35-52.34,3-3,3.85,1.88a32.86,32.86,0,0,0,47.23-29.76,32.51,32.51,0,0,0-1.65-9.73l-1.36-4.1,3.46-2.59,45.48-34.11,3.39-2.54,3.53,2.35A33.11,33.11,0,1,0,380.47,7.47h0a33.13,33.13,0,0,0-33.15,33.11A32.57,32.57,0,0,0,349,50.32l1.36,4.1L346.88,57l-45.49,34.1L298,93.68l-3.54-2.4A32.94,32.94,0,0,0,246.35,133l1.87,3.85-3,3-52.35,52.34-3,3L186,193.33a32.42,32.42,0,0,0-37,6l-3.06,3-3.83-1.91-38.58-19.29-4-2,.71-4.36a33.79,33.79,0,0,0,.4-3.88,33.11,33.11,0,1,0-33.11,33.22Z"/><path d="M433.44,426.4h-19.9V144.91a7,7,0,0,0-7-7H354.36a7,7,0,0,0-7,7V426.4H309.25V223.13a7.05,7.05,0,0,0-7-7H250.07a7,7,0,0,0-7,7V426.4H205v-99a7,7,0,0,0-7-7H145.79a7,7,0,0,0-7,7v99H100.68V275.27a7.05,7.05,0,0,0-7-7H41.5a7.05,7.05,0,0,0-7,7V426.4H14.56a7,7,0,1,0,0,14.07H433.44a7,7,0,1,0,0-14.07Z"/></svg>