<svg xmlns="http://www.w3.org/2000/svg" viewBox="0 0 448 448"><title>emr-diagnosis</title><rect width="448" height="448" style="fill:#fff;fill-opacity:0"/><path d="M192,308V230.49A66,66,0,1,0,273.51,312H192Z"/><path d="M238,200a66.93,66.93,0,0,0-10,.76V276h75.24A66,66,0,0,0,238,200Z"/><path d="M300.54,18a34.2,34.2,0,0,0-24-10H98A34.17,34.17,0,0,0,64,42.08V406a34,34,0,0,0,34,34H350a34.07,34.07,0,0,0,34-34V115.47a34.33,34.33,0,0,0-10.06-24.08ZM358,154.05V414H90V34.08H246v99a13,13,0,0,0,13,13h99Zm-11.46-34H272V26.18l13.65,13.65,66.58,66.57,13.66,13.66Z"/></svg>