<svg xmlns="http://www.w3.org/2000/svg" viewBox="0 0 448 512"><title>manage-all-appointment</title><path d="M269.17,359.13,238,336.43V270a10.67,10.67,0,0,0-10.66-10.66h-6.6A10.67,10.67,0,0,0,210,269.94V345.3a10.75,10.75,0,0,0,4.37,8.62l38.31,27.83a10.73,10.73,0,0,0,14.9-2.34L271.5,374a10.72,10.72,0,0,0,1.93-7.91A10.52,10.52,0,0,0,269.17,359.13Z" style="fill:none"/><path d="M48,96a16,16,0,0,0-16,16A16,16,0,0,1,48,96Z" style="fill:none"/><path d="M224,214A122,122,0,1,0,346,336,122,122,0,0,0,224,214Zm0,218.9A96.9,96.9,0,1,1,320.9,336,96.9,96.9,0,0,1,224,432.9Z" style="fill:none"/><path d="M400,96a16,16,0,0,1,16,16A16,16,0,0,0,400,96Z" style="fill:none"/><path d="M400,96H48a16,16,0,0,0-16,16v48H416V112A16,16,0,0,0,400,96Z" style="fill:none"/><path d="M400,64H352V12A12,12,0,0,0,340,0h-8a12,12,0,0,0-12,12V64H128V12A12,12,0,0,0,116,0h-8A12,12,0,0,0,96,12V64H48A48,48,0,0,0,0,112V464a48,48,0,0,0,48,48H400a48,48,0,0,0,48-48V112A48,48,0,0,0,400,64ZM224,458A122,122,0,1,1,346,336,122,122,0,0,1,224,458ZM416,160H32V112A16,16,0,0,1,48,96H400a16,16,0,0,1,16,16Z"/><path d="M224,239.1A96.9,96.9,0,1,0,320.9,336,96.9,96.9,0,0,0,224,239.1ZM271.5,374l-3.92,5.41a10.73,10.73,0,0,1-14.9,2.34l-38.31-27.83A10.75,10.75,0,0,1,210,345.3V269.94a10.67,10.67,0,0,1,10.74-10.6h6.6A10.67,10.67,0,0,1,238,270v66.43l31.17,22.7a10.52,10.52,0,0,1,4.26,7A10.72,10.72,0,0,1,271.5,374Z"/></svg>