<svg xmlns="http://www.w3.org/2000/svg" viewBox="0 0 45 45"><title>2</title><rect width="45" height="45" style="fill:none;opacity:0"/><path d="M20,10.49A24.43,24.43,0,0,0,16.14,12l-.74.33a9.37,9.37,0,0,0-4.72,4.74l-1,2.41a4.53,4.53,0,0,0,4.1,6.39,4.14,4.14,0,0,0,2.83-1.11l.05.35-1.22,3.34L14,32.27,10,36.77A4.67,4.67,0,0,0,10,43a4.3,4.3,0,0,0,6.39,0l4-4.4a9.57,9.57,0,0,0,1.89-3.14L23,33.45l.91.92a.32.32,0,0,1,.08.16l1.34,6.38a4.45,4.45,0,0,0,4.29,3.59,4.31,4.31,0,0,0,1-.13A4.54,4.54,0,0,0,33.92,39L32.58,32.6a9.83,9.83,0,0,0-1.26-3.15l.47,0a4.48,4.48,0,0,0,4.07-2.77,4.54,4.54,0,0,0-.86-5h0l-1.68-1.81-.75-2.45a10.54,10.54,0,0,0-3.71-5.4m-9.2,22.46a6.67,6.67,0,0,1-1.34,2.23l-4,4.4a1.57,1.57,0,0,1-1.17.53A1.59,1.59,0,0,1,12,41.18a1.93,1.93,0,0,1,0-2.55l4-4.4a3,3,0,0,0,.61-1L18,29.38h0l.09.1L20.58,32l-.92,2.54Zm12.13-7.83a1.49,1.49,0,0,1-1.12-.53l-2-2.17a4.28,4.28,0,0,1-.95-1.67c-1-3.22-1-3.43-1.5-4.17l-1.8,7.88,3.7,3.73a6.76,6.76,0,0,1,1.79,3.38l1.34,6.37A1.81,1.81,0,0,1,30,41.71a1.46,1.46,0,0,1-.38,0,1.71,1.71,0,0,1-1.6-1.4L26.68,34a3,3,0,0,0-.82-1.53L20.44,27a4.69,4.69,0,0,1-1-4.1l1.36-6c-.77.27-1.56.63-3,1.29a3.1,3.1,0,0,0-1.57,1.58l-1,2.29a1.54,1.54,0,0,1-1.43,1.06,1.79,1.79,0,0,1-1.56-2.57l1-2.34a6.58,6.58,0,0,1,3.32-3.37c2.94-1.3,4.19-2,6.58-2A7.31,7.31,0,0,1,30,18.29l.89,2.91a.57.57,0,0,0,.14.24l2,2.17a1.85,1.85,0,0,1-1.19,3.11Z" style="fill:#4fc6e1"/><path d="M25.26,3a3.85,3.85,0,1,1-3.85,3.85A3.86,3.86,0,0,1,25.26,3m0-2.5a6.35,6.35,0,1,0,6.35,6.35A6.35,6.35,0,0,0,25.26.5Z" style="fill:#3f51b5"/></svg>