<?xml version="1.0" encoding="utf-8"?>
<!-- Generator: Adobe Illustrator 21.0.0, SVG Export Plug-In . SVG Version: 6.00 Build 0)  -->
<svg version="1.1" id="Layer_1" xmlns="http://www.w3.org/2000/svg" xmlns:xlink="http://www.w3.org/1999/xlink" x="0px" y="0px"
	 viewBox="0 0 241.5 301.3" style="enable-background:new 0 0 241.5 301.3;" xml:space="preserve">
<style type="text/css">
	.st0_left_print{fill:#D3B6A8;stroke:#705C4F;stroke-width:1.5;stroke-miterlimit:10;}
	.st1_left_print{fill:#AF8C7E;}
	.st2_left_print{fill:#705C4F;}
	.st3_Left_print{opacity:0.7;fill:#FFFFFF;}
	.st4_left_print{fill:#D3B6A8;}
	.st5_left_print{font-family:'ArialRoundedMTBold';}
	.st6_left_print{font-size:12px;}
</style>
<g id="Left_Foot">
	<path class="st0_left_print" d="M97.1,68.2c4.2,0.3,10.2,7.8,11.2,15.5c1,7.8-0.7,12.3-0.5,19.3s1.6,7.5,1.2,31c-0.4,23.5-0.4,32.8-1.4,39.5
		s-3,12.5-4.5,21c-1.5,8.5-3.7,30.5-4.5,33s-4,20.5-8.8,30.2c-4.8,9.8-17.3,14.5-24.3,14.5s-17-1.2-25-10.2s-9.3-12.7-9.6-19.5
		c-0.4-6.8,1.6-14.9,1.4-20.9c-0.1-3.6-3-13.5-2.3-23.3c0,0,2.2-24.3,0.7-31.3c-1.5-7-4.2-11.7-4.9-16.9s-7.4-18.3-9.4-21.5
		c-3.1-5.1-7.4-15.5-6.6-21.8s3.3-27.5,2.3-33.3s-4.3-7.4-5.5-10c-1.6-3.5-3-20-0.5-25.8s3.7-9.2,13-12.8c11-4.2,16,4.5,18.5,6.3
		c1.2,0,1.1-5.6,6.9-8.2c5.9-2.6,11.6-1.6,14.3,1s4,9.9,3.3,11.6s6.2-6.1,14.2,1.4c6.8,6.3,2.6,12.1,2.6,12.1s7.6-2.2,13,5.6
		c4,5.8,4.1,10.8,3.5,12.9C95.2,68.7,95.7,68.1,97.1,68.2z"/>
	<path class="st1_left_print" d="M31,164.7c8.1,4.8,11.6,13.9,20.1,17c0.8,0.3,0.7,0.6-0.1,0.4c-8.7-1.6-12.3-9.3-19.5-14.5
		C30.7,167.2,30.3,164.3,31,164.7z"/>
	<path class="st1_left_print" d="M32.2,171.9c0.8,0.9,1.7,1.8,2.7,2.4c0.8,0.5,0.9,1.1,0.8,2.1c-0.1,0.8-0.7,0.8-0.8,0.3
		c-0.2-0.8-1.6-0.8-2.1-1.2c-0.7-0.5-0.9-0.6-1.5-1.2C30.7,173.7,31.6,171.3,32.2,171.9z"/>
	<path class="st1_left_print" d="M39.9,223.5c3.1-5.9,4.7-9.7,7.9-14.9c3.6-5.9,6.6-12,7.3-18.8c0.1-0.8,0.4-0.9,0.4,0
		c-0.7,6.7-2.3,12.9-5.7,18.8c-3.3,5.7-5.6,10.2-10.1,16C39.3,225.2,39.5,224.3,39.9,223.5z"/>
	<g>
		<path class="st1_left_print" d="M33.2,154.4c-0.6-2.3-1.1-4.5-1.6-6.8c-0.5-2.3-1-4.6-1.2-6.9c-0.1-2.3-0.8-4.5-1.5-6.7
			c-0.7-2.2-1.5-4.4-2.4-6.5c-1.8-4.3-3.1-8.8-5.5-12.7c-0.3-0.5-0.6-0.9-0.9-1.3c-0.2-0.2-0.3-0.4-0.5-0.5l-0.4-0.3
			c-0.1-0.1-0.3-0.3-0.4-0.4c-0.8-1.1-1.2-2.3-1.5-3.5c-0.5-2.4-0.5-5,0.3-7.4c0.8-2.4,2.4-4.5,4.3-6c1.9-1.5,4.2-2.8,6.7-3.1
			c2.5-0.3,5,0.3,7.2,1.3c2.3,1.1,4,2.9,5.5,4.8c0.7,1,1.4,2,1.9,3c0.3,0.5,0.5,1.1,0.7,1.8c0.1,0.7,0.2,1.3,0.1,1.9
			c-0.2,1.3-0.7,2.4-1.3,3.4c-0.6,1-1.3,2-1.9,3c-0.6,1-1.1,2-1.4,3.1c-0.2,1.1-0.2,2.3-0.3,3.4c0,2.3,0.1,4.6,0.3,7l-0.1,0
			c-0.3-2.3-0.5-4.6-0.6-7c0-1.2,0-2.3,0.2-3.5c0.2-1.2,0.7-2.2,1.3-3.2c0.6-1,1.2-2,1.8-3c0.6-1,1.1-2.1,1.2-3.2
			c0.1-0.6,0-1.2-0.1-1.7c-0.1-0.6-0.4-1.1-0.7-1.6c-0.5-1-1.2-2-1.9-2.9c-1.4-1.8-3.1-3.5-5.3-4.4c-2.1-1-4.4-1.5-6.7-1.2
			c-2.3,0.3-4.4,1.5-6.2,2.9c-1.8,1.4-3.3,3.4-4,5.6c-0.7,2.2-0.8,4.6-0.3,6.8c0.3,1.1,0.6,2.2,1.3,3.2c0.3,0.4,0.9,0.8,1.2,1.2
			c0.4,0.5,0.7,0.9,1,1.4c2.4,4,3.8,8.5,5.4,12.9c0.8,2.2,1.6,4.4,2.3,6.6c0.7,2.2,1.3,4.5,1.4,6.8c0.2,2.3,0.6,4.6,1,6.9
			C32.3,149.8,32.8,152.1,33.2,154.4L33.2,154.4z"/>
	</g>
	<g>
		<path class="st1_left_print" d="M21,81.1c0.3,1.4,0.5,2.9,0.2,4.5c-0.1,0.8-0.4,1.6-0.7,2.3c-0.3,0.7-0.7,1.3-1,1.9c-0.6,1.2-0.6,2.2-0.1,3.4
			c0.3,0.6,0.6,1.1,1.1,1.6c0.4,0.5,1,1,1.5,1.5l0,0.1c-1.3-0.6-2.5-1.5-3.3-2.8c-0.4-0.6-0.6-1.3-0.7-2.1c0-0.7,0.2-1.5,0.5-2.1
			c0.6-1.3,1.6-2.5,1.8-3.9C20.8,84,20.9,82.6,21,81.1L21,81.1z"/>
	</g>
	<g>
		<path class="st1_left_print" d="M35.5,81.7c0.7,1.3,1.5,2.5,2.3,3.6c0.7,1.1,1.9,1.7,3,2.9c0.5,0.6,1,1.3,1.3,2.2c0.2,0.9,0.2,1.8-0.1,2.5
			c-0.3,0.8-0.7,1.5-1.1,2.1c-0.5,0.6-1.1,1.1-1.7,1.5L39,96.5c1-1,1.9-2.2,2.2-3.6c0.2-0.7,0.2-1.4,0-2.1c-0.2-0.7-0.6-1.3-1.1-1.8
			c-1-1.1-2.2-1.9-2.9-3.2C36.4,84.5,35.9,83.1,35.5,81.7L35.5,81.7z"/>
	</g>
	<g>
		<path class="st1_left_print" d="M55.9,125.9c-0.5-1.8-0.9-3.6-1.4-5.4c-0.2-0.9-0.4-1.8-0.5-2.7c-0.1-0.4-0.1-1-0.2-1.4
			c-0.1-0.4-0.2-0.9-0.3-1.3c-0.5-1.7-1.1-3.5-1.7-5.2l-1-2.5c-0.2-0.4-0.4-0.8-0.5-1.3c-0.1-0.2-0.1-0.4-0.2-0.6
			c-0.1-0.2-0.2-0.4-0.3-0.5c-0.9-1.5-2.1-2.9-3.2-4.5c-1.1-1.8-1.5-3.7-1.6-5.7c0-1,0-2,0.2-3c0.2-1,0.6-2,1.5-2.9
			c0.4-0.4,1-0.8,1.7-0.8c0.3,0,0.6,0,0.9,0l0.7,0.1c0.9,0.1,1.7,0.1,2.6,0c1.7-0.1,3.3-0.9,5.3-1.2c0.6-0.1,1.3,0.1,1.8,0.4
			c0.5,0.3,0.9,0.7,1.2,1.1c0.7,0.8,1.1,1.7,1.4,2.6c0.2,0.5,0.3,0.9,0.4,1.4c0.1,0.5,0.2,1,0.2,1.5c0,1-0.1,1.9-0.2,2.9
			c-0.2,0.9-0.4,1.8-0.6,2.7l-0.4,1.3l-0.2,0.7c-0.1,0.2-0.1,0.4-0.1,0.6c-0.3,3.6-0.2,7.3-0.3,11c0,3.7,0,7.3,0,11l-0.1,0
			c-0.1-3.7-0.2-7.3-0.2-11c0-3.7-0.1-7.3,0.1-11c0-0.5,0.2-0.9,0.3-1.3l0.4-1.3c0.2-0.9,0.4-1.8,0.6-2.7c0.1-0.9,0.2-1.8,0.2-2.7
			c0-0.9-0.3-1.8-0.7-2.6c-0.4-0.8-0.8-1.7-1.4-2.3c-0.6-0.7-1.4-1.2-2.3-1.1c-1.8,0.3-3.5,1.1-5.3,1.3c-0.9,0.1-1.8,0.1-2.8,0
			c-0.5,0-0.9-0.1-1.3-0.1c-0.4,0.1-0.8,0.3-1.2,0.6c-0.6,0.6-1,1.5-1.2,2.4C46,93.1,46,94,46,94.9c0.1,1.8,0.4,3.7,1.4,5.2
			c1,1.5,2.2,2.9,3.2,4.5c0.5,0.8,0.7,1.7,1.1,2.5l0.9,2.6c0.6,1.7,1.2,3.5,1.6,5.3c0.2,0.9,0.3,1.8,0.3,2.7
			c0.1,0.9,0.2,1.8,0.4,2.7C55.2,122.3,55.6,124.1,55.9,125.9L55.9,125.9z"/>
	</g>
	<g>
		<path class="st1_left_print" d="M48.5,79.4c0.4,0.9,0.5,1.9,0.4,2.9c0,0.5-0.3,1.1-0.5,1.5c-0.2,0.4-0.4,0.8-0.6,1.2
			c-0.3,0.7-0.4,1.2-0.1,1.9c0.3,0.7,0.8,1.4,1.5,2.1l0,0.1c-0.8-0.4-1.6-1-2.1-1.8c-0.2-0.4-0.4-0.9-0.4-1.3c0-0.5,0.1-1,0.3-1.4
			c0.4-0.9,1-1.6,1.2-2.5C48.4,81.3,48.4,80.3,48.5,79.4L48.5,79.4z"/>
	</g>
	<g>
		<path class="st1_left_print" d="M57.4,79.5c0.6,0.8,1.1,1.5,1.6,2.2c0.5,0.6,1.2,1,1.9,1.8c0.4,0.4,0.7,0.9,0.9,1.6c0.1,0.6,0.1,1.2-0.1,1.8
			c-0.4,1.1-1.2,1.8-2.1,2.2l-0.1-0.1c0.7-0.6,1.2-1.4,1.4-2.3c0.1-0.4,0.1-0.9,0-1.3c-0.1-0.4-0.4-0.8-0.7-1.1
			c-0.6-0.7-1.4-1.2-1.9-2.1C57.9,81.2,57.6,80.4,57.4,79.5L57.4,79.5z"/>
	</g>
	<g>
		<path class="st1_left_print" d="M68.3,130c-0.9-3.3-1.7-6.7-2.4-10.1c-0.2-0.9-0.3-1.7-0.4-2.6c0-0.2,0-0.5,0-0.7c0-0.2,0-0.4,0-0.6
			c0-0.4-0.1-0.8-0.1-1.3c-0.2-1.7-0.4-3.4-0.7-5.1l-0.5-2.5c-0.1-0.9-0.3-1.7-0.4-2.5c-0.1-0.4-0.2-0.8-0.3-1.2
			c-0.1-0.2-0.1-0.3-0.2-0.6c-0.1-0.2-0.1-0.5-0.2-0.7c-0.2-0.9-0.3-1.9-0.3-2.8c0-0.9,0.1-1.8,0.4-2.8c0.1-0.5,0.3-0.9,0.5-1.4
			c0.2-0.5,0.6-0.9,1.1-1.3c0.3-0.2,0.6-0.3,1-0.4c0.3,0,0.8,0.1,1,0.1c0.4,0.1,0.8,0.2,1.2,0.3c0.8,0.1,1.5,0.1,2.3,0l1.3-0.2
			c0.2,0,0.5-0.1,0.7-0.1c0.3,0,0.7,0,1,0.1c0.6,0.3,1,0.7,1.3,1.2c0.3,0.4,0.4,0.9,0.6,1.3c0.3,0.9,0.4,1.8,0.5,2.7
			c0,1-0.1,1.9-0.4,2.7c-0.2,0.9-0.5,1.7-0.8,2.5l-0.5,1.2l-0.1,0.3c0,0.1,0,0.1,0,0.2c0,0.2,0,0.4,0,0.6c0,1.7,0,3.4,0.1,5.2
			c0.2,6.9,0.6,13.8,0.9,20.7l-0.1,0c-0.5-6.9-0.9-13.8-1.2-20.7c-0.1-1.7-0.1-3.4-0.1-5.2c-0.1-0.9,0.4-1.7,0.6-2.5
			c0.3-0.8,0.5-1.6,0.7-2.5c0.2-0.8,0.3-1.7,0.3-2.5c-0.1-0.8-0.3-1.7-0.6-2.5c-0.3-0.8-0.7-1.6-1.4-2c-0.4-0.2-0.8,0-1.2,0
			l-1.3,0.3c-0.8,0.2-1.7,0.2-2.6,0.1c-0.4-0.1-0.9-0.2-1.3-0.3c-0.4-0.1-0.8-0.1-1.2,0.1c-0.7,0.5-1,1.3-1.2,2.1
			c-0.2,0.8-0.3,1.7-0.4,2.5c0,0.9,0,1.7,0.2,2.6c0.1,0.4,0.2,0.8,0.3,1.2c0.1,0.4,0.2,0.8,0.3,1.3c0.1,0.9,0.3,1.7,0.4,2.6
			c0.1,0.8,0.3,1.7,0.4,2.6c0.2,1.7,0.4,3.4,0.5,5.2c0.1,0.9,0,1.7,0,2.6c0.1,0.9,0.2,1.7,0.3,2.6C66.9,123.2,67.6,126.6,68.3,130
			L68.3,130z"/>
	</g>
	<g>
		<path class="st1_left_print" d="M66.8,86.7c0.3,0.8,0.4,1.5,0.3,2.3c0,0.4-0.2,0.9-0.4,1.2c-0.2,0.3-0.4,0.6-0.5,0.9
			c-0.3,0.5-0.4,0.8-0.3,1.4c0.1,0.6,0.3,1.2,0.6,1.9l-0.1,0.1c-0.6-0.4-1.1-1-1.3-1.7c-0.3-0.7-0.2-1.5,0.2-2.1
			c0.4-0.6,0.8-1.2,1-1.9C66.5,88.1,66.7,87.4,66.8,86.7L66.8,86.7z"/>
	</g>
	<g>
		<path class="st1_left_print" d="M72.8,87.5c0.5,0.6,0.8,1.3,1.1,1.8c0.3,0.5,0.7,0.9,1.2,1.6c0.2,0.4,0.4,0.8,0.5,1.3c0,0.5-0.1,1-0.2,1.4
			c-0.4,0.8-1,1.4-1.8,1.6l-0.1-0.1c0.5-0.5,0.9-1.1,1.1-1.7c0.2-0.7,0.1-1.4-0.3-2c-0.4-0.6-0.9-1.1-1.1-1.8
			C73,89,72.8,88.3,72.8,87.5L72.8,87.5z"/>
	</g>
	<g>
		<path class="st1_left_print" d="M78.2,137.5l0-9.5c0.1-3.2,0.2-6.3,0.1-9.4c0-1.6-0.1-3.1-0.2-4.7c0-0.4-0.1-0.8-0.1-1.1c0-0.2,0-0.2-0.1-0.5
			c-0.1-0.2-0.1-0.4-0.2-0.6c-0.2-0.8-0.3-1.7-0.3-2.5c0-0.8,0.1-1.7,0.2-2.5c0.2-0.8,0.4-1.7,1-2.5c0.1-0.2,0.4-0.4,0.5-0.6
			c0.3-0.2,0.5-0.4,0.8-0.4c0.2,0,0.3-0.1,0.5-0.1c0.2,0,0.3,0,0.5,0l0.2,0l0.1,0l0.3,0.1c0.7,0.2,1.4,0.3,2.1,0.2
			c0.7,0,1.4-0.2,2.2-0.3c0.4,0,0.7-0.2,1.5-0.1c0.7,0.1,1.1,0.6,1.5,1c0.6,0.8,0.9,1.6,1.1,2.5c0.2,0.8,0.4,1.6,0.4,2.6
			c-0.2,1.8-0.9,3.3-1.6,4.8c-0.4,0.7-0.8,1.4-1.2,2.1c0,0,0,0.1,0,0.1l0,0.1l0,0.1l-0.1,0.5l-0.2,1.1c-0.4,3.1-0.7,6.2-0.9,9.4
			c-0.3,3.1-0.6,6.3-0.9,9.4l-0.1,0c0.3-6.3,0.5-12.6,1.1-18.8c0.1-0.8,0.1-1.6,0.4-2.3c0.4-0.7,0.8-1.4,1.1-2.1
			c0.7-1.4,1.3-2.9,1.5-4.4c0-0.8-0.1-1.5-0.3-2.3c-0.2-0.7-0.5-1.5-1-2.1c-0.2-0.3-0.5-0.6-0.9-0.6c-0.4-0.1-0.8,0-1.1,0.1
			c-0.8,0.1-1.5,0.4-2.3,0.4c-0.8,0-1.6-0.1-2.4-0.3c-0.2,0-0.4-0.1-0.6-0.1l-0.3,0l-0.3,0.1c-0.2,0-0.3,0.2-0.5,0.2
			c-0.1,0.1-0.3,0.2-0.4,0.4c-0.9,1.3-1.1,2.9-1.1,4.5c0,0.8,0,1.6,0.2,2.3c0.1,0.4,0.2,0.7,0.3,1.1c0.1,0.4,0.1,0.8,0.1,1.2
			c0.1,1.6,0.1,3.1,0.1,4.7c0,3.1-0.2,6.3-0.3,9.4L78.2,137.5L78.2,137.5z"/>
	</g>
	<g>
		<path class="st1_left_print" d="M81.4,96.3c0.3,0.8,0.4,1.5,0.2,2.3c-0.1,0.8-0.4,1.5-0.5,1.9c0,0.4,0,1.1,0.2,1.7c0.2,0.6,0.5,1.3,0.8,2
			l-0.1,0.1c-0.5-0.5-1-1.1-1.3-1.7c-0.4-0.6-0.6-1.4-0.5-2.1c0.1-0.8,0.5-1.4,0.7-2.1C81.1,97.7,81.2,97,81.4,96.3L81.4,96.3z"/>
	</g>
	<g>
		<path class="st1_left_print" d="M87.3,97.1c0.5,0.6,0.8,1.3,1.1,1.8c0.3,0.5,0.7,0.9,1.2,1.6c0.2,0.4,0.4,0.8,0.5,1.3c0,0.5-0.1,1-0.2,1.4
			c-0.4,0.8-1,1.4-1.8,1.6l-0.1-0.1c0.5-0.5,0.9-1.1,1.1-1.7c0.2-0.7,0.1-1.4-0.3-2c-0.4-0.6-0.9-1.1-1.1-1.8
			C87.5,98.6,87.3,97.9,87.3,97.1L87.3,97.1z"/>
	</g>
	<g>
		<path class="st1_left_print" d="M101.9,108.5c0.4,1.2,0.9,2.3,1,3.6c0,0.3,0,0.7-0.1,1.1c0,0.2-0.2,0.5-0.3,0.6c-0.1,0.1-0.2,0.2-0.3,0.3
			c-0.2,0.2-0.5,0.4-0.8,0.6c-0.3,0.2-0.8,0.2-1.1,0.1v-0.1c0.6-0.3,0.8-0.7,1.1-1.2c0.1-0.1,0.2-0.2,0.3-0.4
			c0.1-0.1,0.1-0.1,0.1-0.1c0,0,0-0.1,0.1-0.1c0.1-0.2,0.2-0.5,0.2-0.7c0-0.6,0-1.2-0.1-1.8C102,109.7,101.9,109.1,101.9,108.5
			L101.9,108.5z"/>
	</g>
	<g>
		<path class="st1_left_print" d="M94.8,104.3c-0.1,0.8-0.2,1.5-0.5,2.2c-0.1,0.4-0.4,0.7-0.6,1c-0.2,0.3-0.5,0.6-0.7,0.9
			c-0.4,0.6-0.5,1.2-0.4,1.7c0,0.3,0.2,0.6,0.3,1c0.1,0.2,0.1,0.3,0.2,0.4l0.1,0.1c0,0,0.1,0,0.2-0.1l0.1,0c0,0.1,0,0.2-0.2,0.3
			c-0.2,0.1-0.3,0-0.4,0c-0.2-0.1-0.4-0.3-0.5-0.4c-0.3-0.3-0.5-0.6-0.7-1.1c-0.2-0.4-0.1-1,0-1.4c0.2-0.4,0.4-0.8,0.7-1.1
			c0.5-0.6,1.2-1,1.5-1.6C94.3,105.7,94.5,105,94.8,104.3L94.8,104.3z"/>
	</g>
	<g>
		<path class="st1_left_print" d="M96.7,147.5l0.6-9.5c0.1-1.6,0.2-3.2,0.2-4.8c0.2-1.6,0.6-3.2,1.2-4.7c0.5-1.5,1.2-3,1.8-4.4
			c0.6-1.5,1-3,1.1-4.5c0.1-1.5-0.3-3.1-1.2-4.2c-0.9-1.2-2.3-2-3.7-2.4c-1.4-0.4-3-0.4-4.4,0c-0.3,0.1-0.7,0.3-0.9,0.5
			c-0.2,0.1-0.3,0.5-0.5,0.8c-0.3,0.7-0.4,1.4-0.5,2.2c-0.2,1.5-0.2,3.1,0,4.6c0.1,0.8,0.2,1.5,0.4,2.3c0.2,0.8,0.4,1.4,0.6,2.3
			c0.4,1.6,0.5,3.2,0.5,4.8c0.1,1.6,0.1,3.2,0,4.8c-0.2,3.2-0.4,6.4-1.2,9.5l-0.1,0c0.3-1.5,0.4-3.1,0.5-4.7
			c0.1-1.6,0.1-3.2,0.1-4.7c-0.1-3.1-0.1-6.4-0.8-9.3c-0.2-0.7-0.5-1.5-0.7-2.3c-0.2-0.8-0.3-1.6-0.4-2.4c-0.2-1.6-0.2-3.2,0.1-4.9
			c0.1-0.8,0.3-1.6,0.6-2.4c0.2-0.4,0.3-0.8,0.8-1.2c0.4-0.3,0.8-0.4,1.2-0.6c1.6-0.5,3.4-0.5,4.9,0c1.6,0.5,3,1.4,4.1,2.7
			c1,1.3,1.4,3.1,1.3,4.7c-0.1,1.6-0.6,3.2-1.2,4.7c-0.7,1.5-1.3,2.9-1.9,4.4c-0.5,1.5-1,3-1.2,4.5c-0.1,1.6-0.2,3.2-0.3,4.7
			L96.7,147.5L96.7,147.5z"/>
	</g>
	<g>
		<path class="st2_left_print" d="M81.6,77.2c-5.8-1.8-12-7.3-11.3-13.9c0.3-3.4,1.8-7.4,4.2-9.7c1.7-1.6,4-2.3,5.4-4.2c0.4-0.5-0.5-1-0.9-0.5
			c-1.1,1.5-2.9,2.1-4.4,3.2c-1.3,1-2.3,2.3-3.1,3.7c-1.6,2.9-2.8,6.8-2.3,10.2c0.3,1.7,1,3.4,1.9,4.8c0,0.1,0,0.1,0,0.2
			c0.2,0.8,0.6,1.6,1,2.3c0,0.1-0.1,0.1-0.1,0.2c-1.2-0.9-2.5-1.9-3.8-2.8c-0.7-0.5-1.4,0.6-0.8,1.1c4.6,3.3,9.2,6.7,12.9,11.2
			c0.5,0.7,1.5-0.2,1-0.8c-1.4-1.8-3-3.4-4.7-4.9c0.5,0.3,1.1,0.5,1.6,0.7c0.2,0.1,0.3,0,0.4,0c0.8,0.3,1.6,0.6,2.4,0.6
			c0.2,0,0.4-0.1,0.5-0.3C82,77.9,82.1,77.3,81.6,77.2z"/>
		<path class="st2_left_print" d="M101.9,92.4c-2.7,1.4-6.9,2.6-9.7,1.1c-1.7-2-3.6-4.4-4.1-6.8c-0.8-3.5,0.2-7.7,1.3-11
			c0.8-2.6,3.5-5.9,6.2-6.9c0.6-0.2,0.3-1.2-0.3-1c-2.3,0.8-5.2,3.6-6.2,5.8c-1.5,3.2-2.1,7.2-2.2,10.7c-0.2,3.9,2,6.4,4.3,9.4
			c0,0.2,0,0.4,0.2,0.5c0.1,0.1,0.2,0.1,0.3,0.2c2.3,3,4.7,5.8,7.3,8.5c0.4,0.5,1.2-0.2,0.7-0.7c-2.2-2.3-4.3-4.6-6.2-7.1
			c2.9,0.7,6.4-0.4,8.9-1.7C103,93,102.5,92.1,101.9,92.4z"/>
		<path class="st2_left_print" d="M47.2,72.9c0.2,0.2,0.4,0.3,0.5,0.5C47.6,73.2,47.4,73,47.2,72.9z"/>
		<path class="st2_left_print" d="M62.7,59.9c-2-0.2-3.5-1.7-4.8-3.1c-0.1-0.1-0.1-0.1-0.2-0.1c-1.2-2.3-2.3-4.5-2.2-7.3
			c0.1-3.3,1.5-6.1,3.8-8.4c1.6-1.6,3.1-3,3.5-5.3c0.1-0.6-0.9-0.9-1-0.3c-0.5,2.9-3.1,4.3-4.8,6.5c-1.4,1.8-2.2,4-2.5,6.2
			c0,0,0,0,0,0.1c-0.1,0-0.2,0-0.3,0.1c-3.1,2.3-7.6,3.7-11.1,1.4c-0.1-0.1-0.2-0.2-0.5-0.3c-0.2-0.1-0.4-0.3-0.6-0.5
			c-0.2-0.6-0.5-1.1-0.8-1.7c-0.8-1.5-2.9-6.2-3.2-8.7c-0.4-3.3,0.5-7.3,0.5-7.4l-1-0.2c0,0.2-0.9,4.3-0.5,7.7
			c0.3,2.8,2.6,7.7,3.3,9.1c0.2,0.4,0.4,0.7,0.6,1.1c1.1,3.8,0.4,8.7-1.7,12c-0.1,0.1-0.1,0.2-0.2,0.3c-0.1,0.2-0.3,0.4-0.3,0.4
			c-2.9,3.4-7.6,1.2-11.4,0.9c-3.1-0.2-5.4,1.1-7.9,2.5c-2,1.1-4,2-6.4,1.4c-2-0.5-3.7-1.8-5.3-3c-0.5-0.4-1,0.5-0.5,0.9
			c3.3,2.4,6.6,4.3,10.7,2.7c2-0.8,3.8-2.3,5.9-3c2.9-1,5.6,0,8.4,0.5c2.5,0.4,4.7,0,6.4-1.3c0,1.3,0.4,2.5,0.9,3.6
			c-1.3,1.7-3.1,3-5.1,3.9c-0.6,0.1-1.2,0.1-1.8,0.1c-2,0.1-4,0.3-6.3,1.2c-2,0.8-5.3,2.8-7.6,4.3c-0.5,0.3-1,0.6-1.4,0.9
			c-2,1.2-4,1.7-5,1.9l-0.4,0.1l-0.1,0.4h0.5l0.1,0.5c1.1-0.2,3.3-0.7,5.4-2c0.4-0.2,0.9-0.5,1.4-0.9c2.2-1.4,5.5-3.5,7.5-4.2
			c2.2-0.9,4.1-1,6-1.1c1-0.1,2-0.1,3-0.3c1.2-0.2,3-1.6,4.3-3.1c0,0,0.1-0.1,0.1-0.1c0.1,0.1,0.5,0.6,0.6,0.8
			c0.1,0.3,0.4,0.4,0.7,0.3c0.7,0.8,1.6,1.4,2.6,2c0.9,0.6,2.3,0.9,3.2,1.6c-1.7-1.5-3.8-2.9-5.3-4.5c-0.2-0.3-0.7-0.8-0.8-1.1
			c-0.4-0.8-0.5-1.1-0.7-1.8c-0.5-1.1-0.8-2.3-0.5-3.5c0-0.2,0-0.3,0.1-0.4c0.3-0.4,0.6-0.9,0.9-1.5c1.4-2.9,2.3-6.3,2-9.5
			c3.7,2.1,8.4,1.1,11.7-1.3c0,1.7,0.2,3.3,0.8,4.9c1.2,2.9,3.6,5.7,3.2,8.9c-1.4-0.3-3.1-0.1-4,0c-0.4,0-0.5,0.3-0.5,0.6
			c-0.4,0.5,0,1.4,0.7,1c0.9-0.5,2.2-0.3,3.3,0.1c0,0.3,0.4,0.5,0.7,0.3c0.3,0.2,0.7,0.3,0.9,0.5c0.7,0.4,1.4-0.5,0.9-1
			c-0.1-0.6-0.5-1.1-1.1-1.3c0.2-1.5-0.1-2.9-0.6-4.3c1.1,0.9,2.3,1.6,3.8,1.7C63.4,61,63.4,60,62.7,59.9z"/>
	</g>
</g>
<circle id="Left_1st Toe Pulp" class="st3_Left_print footExamine" cx="24.4" cy="42.5" r="9"/>
<circle id="Left_3rd Toe Pulp" class="st3_Left_print footExamine" cx="65.9" cy="45" r="9"/>
<circle id="Left_5th Toe Pulp" class="st3_Left_print footExamine" cx="97.3" cy="79.4" r="9"/>
<circle id="Left_1st Plantar MPJ" class="st3_Left_print footExamine" cx="30.6" cy="104.9" r="9"/>
<circle id="Left_3rd Plantar MPJ" class="st3_Left_print footExamine" cx="68.8" cy="100.8" r="9"/>
<circle id="Left_5th Plantar MPJ" class="st3_Left_print footExamine" cx="94.8" cy="120.7" r="9"/>
<circle id="Left_Plantar Medial Arch" class="st3_Left_print footExamine" cx="66.8" cy="182.2" r="9"/>
<circle id="Left_Plantar Lateral Midfoot" class="st3_Left_print footExamine" cx="97.3" cy="182.2" r="9"/>
<circle id="Left_Plantar Central Heel" class="st3_Left_print footExamine" cx="65.1" cy="247.4" r="9"/>
<path class="st4_left_print" d="M129.6,150.7c0,0-2.7-21.2-0.2-33.8c2.1-10.7,3.6-14.9,2.7-19.4s-1.8-5.4-1.9-10.7s1-14.2,3.9-17.3
	c2.9-3.1,7.5-2.2,8.4-1.1c-0.1-2.1-0.6-10.4,0.9-14.6c1.7-4.9,4.7-7.3,7.3-7.3c6.3,0,7.4,2.9,9.3,5.5c-0.2-2.1-1.8-7.4,0.7-12.8
	s9-4.2,10.7-3.2s4.1,3.7,6.1,6.9c0,0-2-9.2,1-13.1s6.9-5.2,11.3-2.4c3.1,2,4.5,4.7,5.6,8.1c0.3,0.8,2.1,21.8,2.2,22.4
	c0.5,3,2.1,14.5,5.1,12s-6.2-16-5.4-33c0.1-1.3,0.8-3.1,1.8-5c2.2-4.2,5.5-5.8,10.6-6.7c3.6-0.6,9.5,1.3,13.1,5.1s7.4,8,8.3,19.5
	s-3.9,16.5-3.7,24.2c0.1,5,3.3,16.1,4.1,21.9s1.5,8.3-0.8,17.8c-2.6,11.1-4.9,18-6.6,25.9c-1.2,5.5-1.6,12.5-1.6,12.5L129.6,150.7z"
	/>
<path class="st2_left_print" d="M229.8,82.6c-0.9-3.5-1.9-7-1.7-10.6c0.2-3,1.3-5.9,2.2-8.8c1.5-4.7,2-9.4,1.4-14.3c-1.2-9.3-5.7-19.4-15-23
	c-7.7-3-16.7,0.4-19.2,8.5c-0.4,1.3-0.7,2.7-0.8,4.1c-0.6-3.6-1.9-7.1-4.6-9.8c-1.1-1.1-2.4-1.9-3.8-2.4c-0.3-0.1-0.4-0.1-0.7-0.2
	c-2.9-0.9-6.1-0.5-8.5,1.7c-3.7,3.5-3.6,8.7-2.4,13.3c-1.2-1.7-2.6-3.3-4.1-4.7c-2.9-2.8-7.9-2.1-11,0.3c-3.4,2.7-3,8.2-2.6,12.5
	c-1.1-1.2-2.4-2.1-4-2.8c-0.2-0.3-0.3-0.5-0.5-0.8c-0.3-0.6-1-0.2-1.1,0.3c-3.8-0.8-7.6,0.8-9.3,4.4c-1.2,2.4-2.1,5.3-2.5,7.9
	c-0.5,3.1,0.2,6.1,0.1,9.2c-1.4-0.7-3.4-0.5-5.4,0.1c-3.6,1.1-4.9,4.6-5.5,8c-1.1,5.9-2,9.9-0.3,17.9c1.4,6.9,0.1,13-1.1,19.8
	c-2.2,12.3-2.3,24.9-0.4,37.3c0.1,0.8,1.4,0.7,1.3-0.1c-1.6-10.4-1.8-21-0.4-31.5c0.7-5.1,1.9-10,2.7-15c0.7-5-0.4-8.7-1.5-13.9
	c-0.6-2.9-0.1-6.6,0.5-9.4c2.1,0.1,4.2-0.2,5.2-2.3c1.4-2.9,0.9-6.5,0.3-9.5c0.8-0.3,1.7-0.3,2.7-0.2c3.5,0.6,2.4,3.9,2.9,6.6
	c0.6,3.8,0.9,4.6,2.6,7.8c1.5,2.7,0.8,8,0.5,10.9c-0.3,2.9-0.2,4.2-0.5,7c-0.1,0.8,1.2,1,1.3,0.2c0.3-3.3,1-6.5,1.3-9.7
	c0.2-2.1,0.5-4.5-0.1-6.7c-0.7-2.5-1.9-3.2-2.8-5.8c-1-2.7-1.2-5.4-1.3-8.2c0-0.9-0.2-1.6-0.6-2.2c0-0.1,0.1-0.2,0.1-0.3
	c0.1-1.9-0.1-3.7-0.2-5.6c-0.2-2.9,0.3-5.5,1.2-8.2c0-0.1,0-0.1,0.1-0.2c0.2,1.4,0.8,2.7,1.8,3.7c1.7,1.5,4.4,1.1,6.3,0.4
	c2-0.7,3.7-2.3,4.4-4.4c0.6-1.8,0.2-3.6-0.5-5.3c0.2,0.1,0.3,0.2,0.5,0.3c4.1,3.2,5,9.1,5.1,14c0.2,4.8-0.1,9.6-0.1,14.3
	c0,0.8,1.3,0.7,1.3-0.1c0.1-6.6,1.7-18.7-2.4-25.8c0,0,0,0,0,0c-0.2-2.8-0.7-6.7,0-9.8c1.5,2.9,3.9,6.6,7.4,5.1
	c3.3-1.5,4-6.2,3.3-9.5c0.2,0.1,0.4,0.2,0.5,0.3c1.5,1.2,2.9,3.1,4,4.7c2.8,3.9,3.3,8.2,3.6,12.9c0.3,5,0.4,10.1,0.3,15.2
	c0,0.8,1.3,1,1.3,0.2c0.2-6.8,0.2-13.7-0.6-20.4c-0.2-1.9-1.2-5.7-1.3-6c-1.1-3.4-2.2-7.1-1.3-10.6c0.2-1,0.6-1.8,1.1-2.6
	c-0.1,2-0.1,4,1.1,5.7c1.4,1.9,3.8,3.2,6.2,2.7c5-1,4.2-7.1,2.9-11.1c5.1,2.6,6.6,9.3,7,14.6c0.4,6,0.5,11.8,1.5,17.7
	c0.6,3.8,0.9,8.6,4.5,10.8c0.3,0.2,0.7-0.1,0.9-0.3c2-3.3,0.5-6.8-0.9-10.1c-1.9-4.7-3.3-9.7-3.7-14.8c-0.5-5.1-0.7-11.6,3.1-15.7
	c3.9-4.3,10.2-5,15.4-2.9c10.2,4.2,14.4,17.2,14,27.3c-0.2,4.9-2.2,9.3-3.3,14c-1,4.2-0.4,8.1,0.6,12.2c2,8.3,3.8,23.4,3.3,26.2
	c-2.9,16.8-8,29.3-9.4,45c-0.1,0.8,1.2,1,1.3,0.2c1.3-14.9,5.9-27.3,9.4-43.6C234.4,101.5,232.6,94,229.8,82.6z M136.1,74.9
	c-0.1,0.9-0.3,2-0.7,2.7c-0.9,1.6-2.4,1.6-3.9,1.5c0.2-1.6,0.4-3.3,0.8-4.8c0.5-2.1,1.6-4.1,3.4-5.1C136,71.1,136.4,73,136.1,74.9z
	 M153,56.4c-1.6,1.1-4,1.5-5.7,0.6c-2.1-1.1-2.4-3.8-2-6c0-0.1,0-0.2,0-0.3c0.5-0.9,1-1.8,1.8-2.4c1.9-1.5,4.7-1.5,7-0.7
	C155.7,50.6,156.5,54.1,153,56.4z M167.6,45.1c-3.1,1.5-5.3-3.1-6.5-5.4c0.5-1.1,1.3-2.1,2.5-2.7c1.9-1.1,4.2-1.4,6.2-0.8
	c0,0,0,0,0,0.1C170.5,38.9,170.4,43.8,167.6,45.1z M186.6,37.3c-2.3,1.2-5-0.3-6.2-2.3c-1-1.8-0.6-4.2-0.5-6.2
	c1.7-1.5,3.9-2.3,6.5-1.7c0.3,0.1,0.5,0.1,0.8,0.2C188.4,30.1,189.8,35.6,186.6,37.3z M199.8,58.9c1.2,3.3,3.6,7.1,2.1,10.6
	c-3-2.4-3.1-8.3-3.6-11.7c-0.3-2.2-0.5-4.5-0.7-6.7C198.1,53.7,198.9,56.3,199.8,58.9z"/>
<path class="st2_left_print" d="M222.2,37.8c-0.2-1.8-0.1-3.9-0.5-5.7c-0.6-2.1-2-3-4.1-3.3c-3.3-0.5-7.1-0.4-10.4-0.1c-3.3,0.3-5.3,2.5-7,5.2
	c-0.3,0.4-0.1,0.8,0.2,1c0,4.7,0.6,12.8,5.9,13.6c3.2,0.5,7.8,0.3,10.9-0.7c2.3-0.8,4.3-2.4,5-4.9C222.6,41.3,222.3,39.5,222.2,37.8
	z M209.1,47.3c-3.7,0-5.4-1.3-6.4-4.7c-0.8-2.8-1.1-5.6-1-8.5c1.5-2.1,3.3-3.6,6.1-4c1.8-0.2,3.7,0,5.5,0c3.2,0,6.1-0.6,7.1,3.2
	c0.5,1.9,0.5,4.5,0.5,6.4C221.4,47.1,214.7,47.2,209.1,47.3z"/>
<circle id="Left_1st Dorsal Webspace" class="st3_Left_print footExamine" cx="200" cy="74.1" r="9"/>
<text transform="matrix(1 0 0 1 88.3083 13.1668)" class="st5_left_print st6_left_print">Left Foot</text>
</svg>