<svg xmlns="http://www.w3.org/2000/svg" viewBox="0 0 512 512"><path d="M466.53,57.86H45.47A37.15,37.15,0,0,0,8.32,95V342.69a37.15,37.15,0,0,0,37.15,37.15H243.62v49.54h-130a6.19,6.19,0,0,0-6.19,6.19V448a6.19,6.19,0,0,0,6.19,6.19H398.42a6.19,6.19,0,0,0,6.19-6.19V435.57a6.19,6.19,0,0,0-6.19-6.19h-130V379.84H466.53a37.15,37.15,0,0,0,37.15-37.15V95A37.15,37.15,0,0,0,466.53,57.86Zm12.38,284.83a12.38,12.38,0,0,1-12.38,12.38H45.47a12.38,12.38,0,0,1-12.38-12.38V95A12.39,12.39,0,0,1,45.47,82.62H466.53A12.39,12.39,0,0,1,478.91,95Z" /><path d="M458.58,140.89a35.35,35.35,0,0,1-46.06,19.44L339.27,247A35.36,35.36,0,1,1,275,255l-61.39-44.33a35.27,35.27,0,0,1-35.45,4.54L117,288.12a35.41,35.41,0,1,1-16.36-14.91l60.84-72.6A35.35,35.35,0,1,1,226,192.38l61.57,44.47a35.29,35.29,0,0,1,35.07-4.38l73-86.38a35.33,35.33,0,0,1,30.11-53.88h0a35.35,35.35,0,0,1,32.83,48.67Z" /></svg>