<svg xmlns="http://www.w3.org/2000/svg" viewBox="0 0 448 448"><title>emr-progress-notes</title><rect width="448" height="448" style="fill:#fff;fill-opacity:0;opacity:0"/><path d="M430,169.39h0a35.09,35.09,0,0,0-49.32,4.31l-37.11,43.92L336.51,226V87.67A35.42,35.42,0,0,0,325.59,62.2L276,15.17a34.84,34.84,0,0,0-24.12-9.66H40.61A35.21,35.21,0,0,0,5.5,40.63V407.39a35.21,35.21,0,0,0,35.11,35.12H301.35a35.21,35.21,0,0,0,35.1-35.12V334.7l.95-1.12,96.88-114.75A35.13,35.13,0,0,0,430,169.39ZM258.23,79.73V23.21L265,29.63C278.19,42.18,287.82,51.31,294.84,58c19.3,18.32,19.3,18.32,20,19.25v.07l4.93,6.43H258.23Zm60.16,286.52v41.14a17.09,17.09,0,0,1-17,17.05H40.6a17.08,17.08,0,0,1-17-17V40.63a17.08,17.08,0,0,1,17-17H240.16V92.77a9,9,0,0,0,9,9h69.2V247.33l-.95,1.12L262,314a35.33,35.33,0,0,0-7.24,14.41l-12.12,50.71A9,9,0,0,0,249.26,390l.08,0a8.74,8.74,0,0,0,2.1.25,8.94,8.94,0,0,0,3.6-.75l47.81-20.72a35.2,35.2,0,0,0,8.91-5.57l6.61-5.67ZM286,319.9l20,16.76,3.07,2.58-2.59,3.06L302,347.56a17.17,17.17,0,0,1-6.26,4.67L271.81,362.6l-7.34,3.18L266.3,358l6.06-25.36a17,17,0,0,1,3.48-6.94l4.5-5.32,2.57-3Zm109.26-82.83-72,85.3-2.58,3.05-3.05-2.56-20-16.75-3.07-2.58,2.59-3.06,72.05-85.28,2.58-3,3.05,2.56,19.93,16.72,3.07,2.57Zm25.34-30-2.79,3.55-.13-.13-5.58,6.61-2.58,3-3-2.56L386.6,200.83l-3.07-2.59,2.59-3.06,8.42-9.93v-.05h0a17,17,0,0,1,26,21.87Z"/><path d="M65.66,102H197.24a10.13,10.13,0,1,0,.27-20.26H65.66a10.13,10.13,0,0,0,0,20.25Z"/><path d="M65.66,181.64H275.58a10.13,10.13,0,0,0,0-20.25H65.66a10.13,10.13,0,0,0,0,20.25Z"/><path d="M65.66,260.39H275.58a10.13,10.13,0,0,0,0-20.25H65.66a10.13,10.13,0,0,0,0,20.25Z"/><path d="M197.51,318.88H65.66a10.13,10.13,0,0,0,0,20.25H197.24a10.13,10.13,0,1,0,.27-20.26Z"/></svg>