<svg xmlns="http://www.w3.org/2000/svg" viewBox="0 0 50 50"><title>front-desk-mapping</title><path d="M25,0a6,6,0,1,0,6,6A6,6,0,0,0,25,0Zm0,2a4,4,0,1,1-4,4A4,4,0,0,1,25,2ZM22,13a7,7,0,0,0-7,7v3h2V20a5,5,0,0,1,5-5h6a5,5,0,0,1,5,5v3h2V20a7,7,0,0,0-7-7Zm20,6v1h2V19Zm1,1a5,5,0,0,0-4.91,4H.91A1,1,0,0,0,0,25v4a1,1,0,0,0,1,1H2V49a1,1,0,0,0,1,1H47a1,1,0,0,0,1-1V30h1a1,1,0,0,0,1-1V25a1,1,0,0,0-1-1H47.91A5,5,0,0,0,43,20Zm0,2a3,3,0,0,1,2.81,2H40.19A3,3,0,0,1,43,22ZM2,26H48v2H3.19a.94.94,0,0,0-.41,0H2Zm2,4H46V48H4Z" transform="translate(0)"/><path d="M25.26,36.6a.71.71,0,0,0-.59,0,.68.68,0,0,0-.39.44,2.44,2.44,0,0,0-.11.55.75.75,0,0,0,.44.71,2.39,2.39,0,0,1,.72.5,2.47,2.47,0,0,1,0,3.47L23,44.66a2.45,2.45,0,1,1-3.46-3.48l2.25-2.25a.74.74,0,0,0,.21-.62,2.6,2.6,0,0,1,0-.4.73.73,0,0,0-.46-.65.75.75,0,0,0-.79.15L18.18,39.9a4.28,4.28,0,0,0,3,7.31h0a4.24,4.24,0,0,0,3-1.25l2.38-2.38a4.27,4.27,0,0,0,0-6.06A4,4,0,0,0,25.26,36.6Z" transform="translate(0)"/><path d="M31.82,32.32a4.26,4.26,0,0,0-3-1.25h0a4.24,4.24,0,0,0-3,1.25L23.38,34.7a4.29,4.29,0,0,0,0,6.06,4,4,0,0,0,1.36.92.72.72,0,0,0,.29.06.78.78,0,0,0,.3-.07.68.68,0,0,0,.39-.44,2.55,2.55,0,0,0,.11-.55.77.77,0,0,0-.44-.72,2.36,2.36,0,0,1-.72-.49,2.47,2.47,0,0,1,0-3.47l2.38-2.38a2.45,2.45,0,1,1,3.46,3.47l-2.25,2.26a.74.74,0,0,0-.21.62,2.6,2.6,0,0,1,0,.4.74.74,0,0,0,.46.65.75.75,0,0,0,.79-.15l2.49-2.49a4.3,4.3,0,0,0,0-6.06Z" transform="translate(0)"/></svg>