<svg xmlns="http://www.w3.org/2000/svg" viewBox="0 0 565.36 434.34"><title>purchase-orders</title><path d="M347.12,270v72h-184a65.3,65.3,0,0,0-118.39,0H31.81c-3.91,0-6.56-3-6.56-6.94V270Z" transform="translate(0 0)" style="fill:none"/><path d="M144,369.86A40.09,40.09,0,0,1,104,410h-.1A40.14,40.14,0,1,1,144,369.86Z" transform="translate(0 0)" style="fill:none"/><path d="M477.9,195.58H372.37V132.47h56.29a26.65,26.65,0,0,1,24,14.26Z" transform="translate(0 0)" style="fill:none"/><path d="M492.15,369.86a40.09,40.09,0,0,1-40,40.14H452a40.14,40.14,0,1,1,40.14-40.14Z" transform="translate(0 0)" style="fill:none"/><path d="M540.25,335c0,3.91-2.65,6.94-6.57,6.94H511.21a65.33,65.33,0,0,0-118.4,0H372.37V220.77h123.7l40.14,17.67a7.45,7.45,0,0,1,4,6.82Z" transform="translate(0 0)" style="fill:none"/><path d="M546.18,215.47l-38.45-16.66L475,135.19A51.51,51.51,0,0,0,428.66,107H372.37V91.1c0-28.78-23-52.26-51.76-52.26H252.45V31.56A31.56,31.56,0,0,0,220.89,0H31.55A31.56,31.56,0,0,0,0,31.56V334.75a31.73,31.73,0,0,0,31.26,32.19H38.5c0,1.26-.13,1.77-.13,2.53a65.39,65.39,0,0,0,130.77.5v-.63a21.26,21.26,0,0,0-.12-2.52H386.5v2.52a65.39,65.39,0,0,0,130.77.51v-3.16h16.29a31.83,31.83,0,0,0,31.8-31.81V244.76A31.66,31.66,0,0,0,546.18,215.47ZM20.78,157.78V31.56A10.79,10.79,0,0,1,31.55,20.78H220.89a10.79,10.79,0,0,1,10.77,10.78V157.78a10.78,10.78,0,0,1-10.77,10.77H31.55A10.78,10.78,0,0,1,20.78,157.78ZM104,410h-.1a40.09,40.09,0,1,1,.1,0Zm243.14-68h-184a65.3,65.3,0,0,0-118.39,0H31.81c-3.91,0-6.56-3-6.56-6.94V270H347.12Zm0-97.24H25.25v-56a31.9,31.9,0,0,0,6.3.63H220.89a31.56,31.56,0,0,0,31.56-31.56V64.27h68.16a26.75,26.75,0,0,1,26.51,26.89Zm25.25-112.29h56.29a26.65,26.65,0,0,1,24,14.26l25.24,48.85H372.37ZM452.11,410H452a40.09,40.09,0,1,1,.1,0Zm81.57-68.06H511.21a65.33,65.33,0,0,0-118.4,0H372.37V220.77h123.7l40.14,17.67a7.45,7.45,0,0,1,4,6.82l0,89.74C540.25,338.91,537.6,341.94,533.68,341.94Z" transform="translate(0 0)"/><path d="M118.77,118.92a4.35,4.35,0,0,0,3.11,1.28h0a4.3,4.3,0,0,0,3-1.28L188,55.85a7.08,7.08,0,0,0,1.64-7.47h.95L184.21,42a7.09,7.09,0,0,0-10,0L122.6,93.56l-.72.73L102.06,74.48a7,7,0,0,0-5-2.08h0a7,7,0,0,0-5,2L88.2,78.31a7.09,7.09,0,0,0,0,10Z" transform="translate(0 0)"/></svg>