<svg xmlns="http://www.w3.org/2000/svg" viewBox="0 0 588.79 443.87"><title>skip</title><path d="M583,181.39l-72.54,72.85a7.51,7.51,0,0,1-10.62,0l-72.54-72.85a7.5,7.5,0,0,1,0-10.61l4.42-4.42a7.51,7.51,0,0,1,10.62,0l51.78,52.08C492.6,109.85,403.8,22,294.85,22,184.94,22,95.53,111.41,95.53,221.32a11,11,0,0,1-22,0A221.32,221.32,0,0,1,451.35,64.82a219.82,219.82,0,0,1,64.8,153.67L568,166.36a7.5,7.5,0,0,1,10.61,0l4.43,4.42A7.5,7.5,0,0,1,583,181.39Z"/><path d="M84,443.87a84,84,0,1,1,84-84A84.1,84.1,0,0,1,84,443.87Zm0-150a66,66,0,1,0,66,66A66.07,66.07,0,0,0,84,293.87Z"/><path d="M294.85,443.87a84,84,0,1,1,84-84A84.1,84.1,0,0,1,294.85,443.87Zm0-150a66,66,0,1,0,66,66A66.07,66.07,0,0,0,294.85,293.87Z"/><path d="M504.79,443.87a84,84,0,1,1,84-84A84.1,84.1,0,0,1,504.79,443.87Zm0-150a66,66,0,1,0,66,66A66.07,66.07,0,0,0,504.79,293.87Z"/></svg>