<svg xmlns="http://www.w3.org/2000/svg" viewBox="0 0 492 455.74"><title>primary-group</title><path d="M436.5,337.71V232.5a10,10,0,0,0-10-10H260V158a69.37,69.37,0,1,0-20,0V222.5H73a10,10,0,0,0-10,10V337.78a69.37,69.37,0,1,0,79.74,68.59c0-1.81-.07-3.6-.2-5.37A69.38,69.38,0,0,0,83,337.67V242.5H240v95.22A69.39,69.39,0,0,0,180.83,401c-.13,1.77-.2,3.56-.2,5.37a69.37,69.37,0,0,0,138.74,0c0-1.81-.07-3.6-.2-5.37A69.39,69.39,0,0,0,260,337.72V242.5H416.5v95.24a69.39,69.39,0,0,0-59,63.26c-.13,1.77-.2,3.56-.2,5.37a69.37,69.37,0,1,0,79.24-68.66ZM200.63,89.37A49.37,49.37,0,1,1,250,138.74,49.43,49.43,0,0,1,200.63,89.37ZM115.7,381a48.76,48.76,0,0,1,6.74,20,47.66,47.66,0,0,1,.3,5.37A49.38,49.38,0,1,1,73.37,357,48.61,48.61,0,0,1,83,358,49.45,49.45,0,0,1,115.7,381Zm176.63,0a48.76,48.76,0,0,1,6.74,20,47.66,47.66,0,0,1,.3,5.37,49.37,49.37,0,0,1-98.74,0,47.66,47.66,0,0,1,.3-5.37,48.76,48.76,0,0,1,6.74-20,49.33,49.33,0,0,1,84.66,0Zm134.3,74.74a49.43,49.43,0,0,1-49.37-49.37,47.66,47.66,0,0,1,.3-5.37,48.76,48.76,0,0,1,6.74-20,49.32,49.32,0,0,1,42.33-24,48.67,48.67,0,0,1,9.87,1,49.37,49.37,0,0,1-9.87,97.74Z" transform="translate(-4 -20)"/></svg>