<svg aria-hidden="true" focusable="false" data-prefix="fal" data-icon="redo" role="img" xmlns="http://www.w3.org/2000/svg" viewBox="0 0 512 512" class="svg-inline--fa fa-redo fa-w-16 fa-2x"><path fill="currentColor" d="M8,20v160c0,6.6,5.4,12,12,12h160c6.6,0,12-5.4,12-12v-10c0-6.6-5.4-12-12-12H65.7C101.3,89.1,173.1,42,256,42
	c118.7,0,214,96.3,214,214c0,118.7-96.3,214-214,214c-55.1,0-105.2-20.8-143.1-54.9c-4.7-4.3-12-4-16.5,0.5l-7.1,7.1
	c-4.9,4.9-4.6,12.8,0.5,17.4c44,39.7,102.3,63.9,166.2,63.9c136.8,0,247.8-110.8,248-247.6C504.2,120,393.2,8.4,256.8,8
	C165.2,7.7,85.2,57,42,130.6V20c0-6.6-5.4-12-12-12H20C13.4,8,8,13.4,8,20z" class=""></path></svg>