<svg xmlns="http://www.w3.org/2000/svg" viewBox="0 0 315.37 455.74"><title>sub-group</title><path d="M260,401h97.46c-.13,1.77-.2,3.56-.2,5.37a69.37,69.37,0,1,0,79.24-68.66,69.33,69.33,0,0,0-20,0A69.58,69.58,0,0,0,362.06,381H280a20,20,0,0,1-20-20V242.5h97.74A69.5,69.5,0,0,0,416.5,301a69.33,69.33,0,0,0,20,0,69.37,69.37,0,1,0-78.79-78.5H260V158a69.37,69.37,0,1,0-20,0V381h0a20,20,0,0,0,20,20ZM430.74,183.19a49.37,49.37,0,0,1-4.37,98.55,48.67,48.67,0,0,1-9.87-1A49.36,49.36,0,0,1,377,232.37a48.67,48.67,0,0,1,1-9.87A49.43,49.43,0,0,1,430.74,183.19ZM200.83,93.88a49.38,49.38,0,1,1,44.66,44.66A49.43,49.43,0,0,1,200.83,93.88ZM430.42,455.6a49.43,49.43,0,0,1-53.16-49.23,47.66,47.66,0,0,1,.3-5.37,48.76,48.76,0,0,1,6.74-20,49.32,49.32,0,0,1,42.33-24,48.67,48.67,0,0,1,9.87,1,49.37,49.37,0,0,1-6.08,97.6Z" transform="translate(-180.63 -20)"/></svg>