<?xml version="1.0" encoding="utf-8"?>
<!-- Generator: Adobe Illustrator 16.0.0, SVG Export Plug-In . SVG Version: 6.00 Build 0)  -->
<!DOCTYPE svg PUBLIC "-//W3C//DTD SVG 1.1//EN" "http://www.w3.org/Graphics/SVG/1.1/DTD/svg11.dtd">
<svg version="1.1" id="Layer_1" xmlns="http://www.w3.org/2000/svg" xmlns:xlink="http://www.w3.org/1999/xlink" x="0px" y="0px"
	 width="300px" height="300px" viewBox="0 0 800 800" enable-background="new 0 0 800 800" xml:space="preserve">
<linearGradient id="Background_1_" gradientUnits="userSpaceOnUse" x1="864.0049" y1="553.6689" x2="-328.4371" y2="-289.2905" gradientTransform="matrix(1 0 0 -1 -50 661)">
	<stop  offset="0" style="stop-color:#EFF1F2"/>
	<stop  offset="0.2124" style="stop-color:#E7E9EB"/>
	<stop  offset="0.5511" style="stop-color:#CFD5D8"/>
	<stop  offset="0.9717" style="stop-color:#AAB3B9"/>
	<stop  offset="1" style="stop-color:#A7B1B7"/>
</linearGradient>
<rect id="Background" fill="url(#Background_1_)" width="800" height="800"/>
<path id="body" fill="#FFFFFF" d="M256.166,753.654c0,0,1.577-14.188,1.577-28.374c0-14.188,0-14.188,0-14.188
	s22.069-31.526,23.646-78.817c1.576-47.291,0-126.109,3.152-149.756c3.153-23.646,11.035-52.02,6.306-83.547
	c-4.729-31.527-25.222-64.631-47.291-91.429c-22.069-26.798-28.375-42.562-25.222-61.479c3.153-18.916,9.458-28.375,9.458-28.375
	s12.611,4.729,26.798,1.577c14.188-3.153,17.34-9.458,15.764-23.646s0-20.493,3.153-25.222c3.153-4.729,9.458-4.729,11.034-9.458
	c1.577-4.729-4.729-11.035-11.034-22.069c-6.306-11.034-9.458-14.187-7.882-34.68c1.576-20.493-7.075-40.618-22.684-56.687
	c-11.911-12.261-48.694-22.771-87.662-14.25c-29.901,6.539-52.817,32.118-55.97,54.187s3.95,48.277,13.408,70.346
	c11.664,27.215,26.009,49.646,14.776,80.079c-15.982,43.3-39.795,75.5-41.491,124.131c-1.405,40.264,5.515,79.726,15.13,118.317
	c9.421,37.813,16.042,76.767,13.46,115.649c-1.228,18.492-4.862,37.401-15.029,53.206C89.7,664.507,81.778,677.811,78.64,696.3
	c-4.477,26.37-0.603,44.743,4.126,57.354C87.495,766.265,98,800,98,800h155.667C253.667,800,254.589,767.842,256.166,753.654z"/>
<path id="XMLID_138_" fill="#394046" d="M175.459,198.691c0,0,8.811,35.374,5.524,57.207c-2.448,16.266-19.937,66.568-23.469,76.641
	c-3.532,10.074-9.895,41.932-8.598,52.802c1.298,10.87,3.398,45.447,6.229,59.372c2.831,13.926,10.317,43.715,14.057,58.19
	c3.74,14.477,11.422,67.419,11.58,86.109c0.158,18.691-1.883,42.077-2.329,45.495c-0.445,3.418-0.259,5.024-1.46,5.592
	c-1.201,0.568-7.818,2.299-12.347,1.499c-4.528-0.798-9.384-4.663-9.384-4.663s5.04-45.797,1.167-75.896
	c-3.872-30.098-16.431-89.417-18.638-100.837s-7.345-55.505-6.625-77.272c0.721-21.767,8.321-53.185,14.215-69.137
	c5.895-15.952,15.521-31.971,19.955-42.331c4.435-10.36,8.37-27.016,8.071-40.708c-0.246-11.274-3.953-32.819-3.953-32.819
	L175.459,198.691z"/>
<g id="Cervical_Spine">
	<path id="XMLID_149_" fill="#FA902C" d="M148.236,205.009c3.452-3.521,8.087-4.5,9.981-3.576c1.703,0.831,2.625,1.589,3.783,1.311
		c0.854-0.206,1.951-0.774,2.151-2.164c4.885-0.021,8.971,0.177,13.033,2.696c-0.323,2.83,1.567,2.921,2.42,5.227
		c0.891,2.409,0.617,4.292,0.617,4.292s-2.038-0.789-3.788-1.848c-1.75-1.06-3.198-0.779-3.198-0.779s-0.422-0.333-1.075-0.775
		c-0.426-1.235-0.118-5.192-2.598-4.699c-1.081,0.215-1.524,2.523-0.701,2.96c-0.813-0.363-3.014-0.99-3.781-1.042
		c-1.742-0.12-0.347,0.248-4.203,0.573c-8.844,0.746-9.546,3.438-13.323,2.932C146.821,210.019,146.515,207.44,148.236,205.009z"/>
	<path id="XMLID_148_" fill="#FA902C" d="M146.29,197.909c0.998-2.157,1.718-2.7,2.589-2.708c0.871-0.008,2.618,0.022,6.235-0.456
		c2.174-0.287,3.479-0.432,5.212-1.252c1.734-0.82,1.135-3.098,0.25-4.702c-0.884-1.604-3.484-0.239-3.484-0.239l0.56-2.421
		c0,0,0,0,3.767-0.569c3.768-0.569,4.064,0.234,6.676,0.212c2.612-0.022,1.732-1.089,3.181-1.37
		c1.448-0.281,3.763-1.106,3.763-1.106s0.605,2.949-0.25,4.836c-0.855,1.887,2.353,3.74,3.539,6.684
		c0.614,1.524-0.732,4.492-1.112,5.783c-2.609,0.291-8.082-1.256-12.923-1.233c-0.507-1.117-1.226-2.138-2.63-2.126
		c-1.306,0.011-1.576,0.406-3.324,1.505c-0.866,0.544-3.462,0.476-3.477,0.566c-3.105,0.042-4.941,1.542-6.948,1.938
		C145.711,201.687,145.962,198.617,146.29,197.909z"/>
	<path id="XMLID_116_" fill="#FA902C" d="M181.809,217.615c0,0,0.42,3.936,0.048,5.729c-0.372,1.793-1.532,1.803-3.473,1.104
		c-1.94-0.7-5.456-4.608-7.789-6.021c-2.333-1.413-5.053-2.822-10.071-1.347c-5.017,1.475-12.746,2.614-12.746,2.614
		s0.369-2.151,1.511-4.309c1.143-2.158,3.08-1.816,6.16-3.633c3.08-1.816,8.865-4.014,11.588-2.247
		c2.724,1.768,0.408,2.503,3.515,3.909c3.107,1.406,2.724,1.768,5.048,2.106C177.924,215.857,179.089,216.206,181.809,217.615z"/>
	<path id="XMLID_117_" fill="#FA902C" d="M181.927,231.579c0.341,1.726,0.514,3.621,0.444,6.799
		c-0.035,1.601-1.943-1.058-5.434-2.103c-3.491-1.044-5.039-1.032-6.226-4.244c-1.188-3.212-3.141-5.344-5.084-6.402
		s-3.177-1.77-6.586-1.019c-3.379,0.745-8.727,3.207-8.727,3.207s0.259-3.762,0.832-4.572c1.358-1.919,2.052-0.911,4.775-1.473
		c3.621-0.747,7.856-3.2,10.573-2.148c2.717,1.052,2.954,4.208,4.938,6.314C176.118,230.912,181.371,228.764,181.927,231.579z"/>
	<path id="XMLID_115_" fill="#FA902C" d="M180.623,243.272c-0.922-0.456-6.12-3.171-7.579-4.099
		c-1.458-0.928-1.599-0.389-2.482-1.859s-1.178-2.004-2.355-4.008c-1.178-2.004-1.486-4.15-2.938-4.272s-2.468-0.248-5.509,0.449
		c-3.041,0.697-4.493,0.575-6.227,1.396c-1.734,0.82-1.248,1.129-1.719,2.566c-0.707,2.154,0.177,3.758,0.177,3.758
		s4.635-0.979,5.935-1.661c1.3-0.683,2.746-1.232,3.621-0.702c0.875,0.53,0.45,1.742,0.747,2.545c0.297,0.803,1.03,1.737,2.488,2.53
		s2.336,1.726,3.352,1.717c1.016-0.009,2.029-0.286,2.333,1.323c0.304,1.609-0.703,2.691,0.321,3.623
		c1.023,0.931,3.355,2.12,5.687,3.309s1.896,1.192,2.773,1.991c0.877,0.798,0.908,1.341,2.044,1.594
		c0.582,0.129,1.434-2.026,0.824-5.512C181.504,244.473,182.226,244.064,180.623,243.272z"/>
	<path id="XMLID_118_" fill="#FA902C" d="M179.874,257.646c-1.632-1.187-3.352-1.717-5.542-3.444s-2.051-2.399-3.504-2.656
		s-2.464,0.289-3.056-1.048c-0.592-1.338-0.769-5.096-1.504-6.298c-0.736-1.202-1.902-1.864-3.358-2.523
		c-1.456-0.659-1.466-1.733-4.508-1.17s-5.658,0.048-7.255-0.073s-2.902-0.11-4.482,1.783c-1.58,1.893-1.567,3.37-1.416,4.175
		c0.152,0.804,0.3,1.206,2.04,1.057c1.74-0.149,4.06-0.303,5.509-0.449c1.45-0.146,2.893-1.099,3.908-1.107
		c1.016-0.008,2.185,1.056,2.345,2.8c0.16,1.744,0.31,2.28,1.914,3.206c1.604,0.926,2.628,1.992,3.938,2.384
		c1.31,0.392,2.909,0.916,2.198,2.533c-0.712,1.617-1.722,2.297-1.281,2.965c0.441,0.668,2.624,1.455,6.12,3.171
		c3.496,1.716,4.82,3.854,5.987,4.515c1.167,0.662,1.902,1.864,2.32-0.154s0.832-4.572,0.673-6.182
		C180.761,259.521,180.604,258.176,179.874,257.646z"/>
	<path id="XMLID_120_" fill="#FA902C" d="M176.316,283.053c0.688-1.299,1.845-4.849,2.115-7.269c0.27-2.419,0.553-3.227-1.631-4.148
		c-2.184-0.921-5.241-2.104-7.434-4.1c-2.193-1.996-2.639-3.2-3.95-3.86c-1.312-0.66-1.16,0.144-2.472-0.65
		c-1.313-0.795-1.338-3.883-1.94-6.429c-0.602-2.546-1.035-2.274-2.35-3.337c-1.314-1.063-1.757-1.865-3.212-2.39
		c-1.456-0.525-1.885,0.15-4.493,0.575c-2.608,0.425-4.79-0.228-7.83,0.603c-3.04,0.832-3.764,0.972-4.614,3.396
		c-0.85,2.424-1.567,3.37-1.699,4.982c-0.131,1.612,0.165,2.281,0.165,2.281s3.166-3.115,6.93-4.087
		c3.764-0.972,4.193-1.646,5.501-1.389c1.308,0.258,2.618,0.784,2.337,1.86c-0.281,1.076-1.274,3.771-0.396,4.703
		c0.878,0.933,1.766,2.939,3.221,3.464c1.456,0.525,2.614,0.247,3.63,0.373c1.017,0.125,1.74-0.149,2.478,1.322
		c0.738,1.471,0.16,1.744-0.411,2.823c-0.571,1.079-0.706,2.289,0.313,2.683c1.019,0.394,3.642,1.715,7.433,3.965
		c3.792,2.251,5.254,3.715,6.276,4.378C175.304,283.465,175.888,283.863,176.316,283.053z"/>
</g>
<g id="Thoracic_Spine">
	<path id="XMLID_121_" fill="#1BA9B1" d="M173.299,286.57c-1.425-0.776-4.95-1.973-7.285-3.564
		c-2.334-1.592-4.675-3.854-5.695-4.383c-1.02-0.528-1.885,0.15-2.761-0.514s-1.466-1.733-2.064-3.876
		c-0.599-2.143-1.207-5.495-2.812-6.556c-1.605-1.061-2.048-1.997-4.082-2.248c-2.033-0.251-8.556,0.475-11.167,0.497
		c-2.611,0.022-3.475,0.835-4.613,3.53c-1.138,2.695-1.544,6.19-1.394,6.726c0.149,0.536,0.878,0.933,1.887,0.119
		c1.009-0.814,3.744-3.389,6.202-4.349c2.458-0.961,3.76-1.509,4.927-0.713c1.167,0.796,1.477,3.076,0.909,4.558
		s-0.997,2.157-0.12,2.955s2.061,3.474,3.08,3.868s2.472,0.65,4.212,0.501c1.74-0.149,2.75-0.695,2.622,1.187
		c-0.129,1.881-0.858,1.484-1.286,2.428c-0.427,0.943-0.417,2.152,0.893,2.678c1.311,0.526,3.929,1.31,7.429,3.429
		c3.5,2.119,5.548,4.115,6.424,4.779s2.039,0.923,2.172-0.421c0.134-1.344-0.149-1.518,0.977-4.574
		c0.993-2.694,1.859-3.238,2.285-4.316C174.466,287.231,174.028,286.967,173.299,286.57z"/>
	<path id="XMLID_122_" fill="#1BA9B1" d="M168.056,301.384c-2.635-1.02-4.654-1.303-8.301-3.689
		c-3.647-2.386-4.966-3.986-5.403-4.117c-0.436-0.131-1.447,0.415-2.761-0.514s-2.198-2.533-2.655-5.08
		c-0.457-2.547-0.174-3.49-2.214-4.547c-2.041-1.057-2.927-2.929-4.087-2.919c-1.16,0.01-4.781,0.846-8.403,1.414
		c-3.623,0.568-4.211-0.367-5.931,2.064c-1.721,2.432-2.434,3.915-2.42,5.526c0.014,1.611-0.418,2.018,0.166,2.416
		c0.583,0.397,2.029-0.286,3.612-1.776c1.583-1.49,3.61-2.044,5.061-2.057c1.451-0.013,3.344,0.777,3.219,3.195
		s-1.274,3.771-0.975,4.842c0.299,1.071,1.467,1.867,2.489,2.665c1.022,0.797,1.9,1.595,3.628,0.104
		c1.729-1.492,2.439-3.243,4.48-2.052c2.042,1.191,2.634,2.664,1.485,4.016c-1.149,1.353-1.723,2.163-0.558,2.69
		c1.166,0.527,4.227,2.247,8.016,4.229s5.107,3.448,6.128,4.111c1.021,0.663,2.049,2.131,2.618,0.784
		c0.569-1.348,0.124-2.553,1.116-5.246c0.993-2.694,2.294-3.242,2.72-4.32C169.513,302.043,169.075,301.779,168.056,301.384z"/>
	<path id="XMLID_123_" fill="#1BA9B1" d="M163.694,317.4c-0.803,2.096-1.282,2.831-1.991,4.717c-0.71,1.886,0.03,3.625-0.545,4.167
		c-0.575,0.542-1.154,0.815-2.318,0.422s-4.518-2.379-8.01-3.558c-3.492-1.179-5.826-2.636-6.987-2.761
		c-1.162-0.125-1.747-0.657-1.035-2.274c0.711-1.618,0.833-4.438-0.624-5.097c-1.457-0.659-3.05-0.377-4.202,0.707
		s-1.725,1.895-2.454,1.498s-3.636-1.043-4.512-1.708c-0.876-0.665-0.595-1.741-0.61-3.486c-0.015-1.745-1.19-3.481-2.64-3.334
		c-1.45,0.147-5.059,2.326-6.789,3.549c-1.731,1.223-2.011,2.434-2.736,2.44c-0.725,0.006-1.775-4.013,0.229-7.253
		c2.004-3.239,3.439-5.131,6.479-5.829c3.041-0.697,7.825-1.14,8.837-1.551c1.012-0.412,1.449-0.281,2.326,0.517
		c0.877,0.798,3.359,2.657,4.093,3.591c0.733,0.934,0.161,1.878,0.61,3.486c0.449,1.607,1.911,2.938,3.505,2.79
		c1.595-0.148,1.445-0.684,2.758,0.111s4.231,2.784,8.16,4.094c3.928,1.31,6.547,2.227,7.565,2.487
		C163.822,315.385,164.262,315.918,163.694,317.4z"/>
	<path id="XMLID_119_" fill="#1BA9B1" d="M158.571,329.259c-2.642-0.384-5.23-0.896-9.014-2.207
		c-3.784-1.311-6.555-3.033-7.864-3.424c-1.309-0.392-1.45,0.146-3.045,0.16c-1.596,0.014-2.909-0.781-3.503-2.521
		c-0.595-1.741-0.023-2.686-1.044-3.348c-1.021-0.663-2.624-1.455-3.644-1.983s-1.599-0.389-3.33,0.834
		c-1.73,1.223-5.499,1.658-7.817,2.08s-4.91,2.727-5.907,4.884c-0.998,2.157-1.129,3.769-0.83,4.841
		c0.299,1.072,1.028,1.468,1.894,0.924c0.866-0.544,2.451-1.9,4.615-3.261c2.165-1.361,2.595-2.036,3.471-1.372
		c0.876,0.664-0.273,2.016,0.026,3.088c0.299,1.072,0.444,1.07,1.176,1.736c0.731,0.665,2.03-0.152,3.921,0.504
		c1.892,0.655,2.19,1.593,3.058,1.317c0.868-0.276,1.155-0.681,1.581-1.759c0.426-1.078,2.443-2.706,4.051-1.377
		c1.607,1.329,1.909,2.669,1.342,4.285c-0.566,1.616-0.561,2.288-0.411,2.823c0.149,0.536,0.587,0.801,1.458,0.928
		s4.938,0.629,8.577,1.941s6.991,3.164,8.011,3.692c1.02,0.528,1.748,0.791,2.175-0.153c0.427-0.944-0.176-3.624,0.53-5.913
		s1.421-3.503,2.134-4.986C160.895,329.508,160.314,329.513,158.571,329.259z"/>
	<path id="XMLID_124_" fill="#1BA9B1" d="M154.346,344.334c-2.321,0.02-4.784,0.443-9.582-0.725
		c-4.798-1.168-6.54-1.288-7.272-2.087c-0.732-0.799-0.587-0.8-1.892-0.655c-1.305,0.146-3.178,1.638-4.35,0.305
		s-1.922-4.28-2.08-5.756c-0.158-1.476-1.607-1.329-3.209-1.987c-1.602-0.658-3.063-1.854-4.364-1.306
		c-1.301,0.548-6.058,4.214-9.082,6.925s-4.885,5.681-5.161,7.429c-0.275,1.748,0.459,2.816,0.754,3.351
		c0.294,0.534,1.45-0.147,3.035-1.369s3.887-3.658,5.487-3.135c1.601,0.523,0.886,1.873,1.327,2.54
		c0.441,0.667,1.607,1.329,3.789,1.982c2.182,0.653,3.349,1.449,4.505,0.902c1.156-0.547,1.283-2.697,2.001-3.508
		c0.719-0.813,1.875-1.358,3.479-0.432c1.604,0.926,1.028,1.468,1.037,2.542c0.009,1.074-0.563,2.019-0.555,2.958
		c0.008,0.94,1.171,1.199,3.06,1.585c1.889,0.387,6.099,0.62,9.592,1.933c3.493,1.313,5.968,2.367,7.131,2.625
		c1.163,0.259,1.74-0.149,1.729-1.357c-0.011-1.208-0.603-2.68-0.186-4.833c0.417-2.152,1.85-4.312,2.126-5.926
		C155.945,344.723,155.506,344.324,154.346,344.334z"/>
	<path id="XMLID_125_" fill="#1BA9B1" d="M150.905,360.744c-2.305,0.257-6.574,0.414-10.639,0.09s-5.228-0.493-6.587-1.198
		c-1.36-0.705-0.781-0.889-2.906-0.513s-4.827,1.115-5.032-0.315c-0.205-1.43,0.943-2.873,0.355-3.763
		c-0.588-0.89-0.396-1.071-2.915-1.586c-2.519-0.516-4.272-1.934-5.424-0.85c-0.959,0.903-1.916,2.165-4.219,4.333
		c-2.303,2.168-5.756,5.599-7.281,8.297c-1.525,2.698-1.714,3.237-1.316,4.487c0.397,1.25,1.173,1.422,2.906,0.513
		c1.733-0.91,3.456-3.073,7.136-2.567c3.68,0.506,6.007,1.203,6.98,1.911c0.973,0.708,1.171,1.243,1.933-0.195
		c0.762-1.439,0.933-4.125,2.864-4.5c1.931-0.375,3.492,1.224,3.89,2.474c0.397,1.25-0.753,2.513-0.742,3.766
		c0.011,1.253-0.372,1.793,1.756,1.776c2.128-0.018,5.029-0.042,9.093,0.102c4.063,0.145,6.611,0.61,8.136,1.363
		c2.137,1.057,2.9-0.203,2.888-1.635c-0.012-1.432-0.606-3.039-0.24-5.548c0.366-2.509,1.324-3.592,1.504-5.205
		C153.225,360.368,152.645,360.551,150.905,360.744z"/>
	<path id="XMLID_127_" fill="#1BA9B1" d="M148.726,377.592c-2.908,0.025-5.99,0.767-10.054,0.622s-6.778-0.838-8.133-1.005
		c-1.356-0.167-0.375,1.436-2.693,1.813c-2.318,0.378-3.294-0.688-3.693-2.117c-0.399-1.429,0.75-2.871-0.414-3.219
		c-1.164-0.348-3.095,0.026-4.454-0.5c-1.358-0.525-2.915-1.586-3.686-1.222c-0.771,0.364,0.21,1.967-1.137,2.874
		c-1.346,0.906-5.011,2.19-7.875,6.69c-2.864,4.5-3.035,7.187-2.826,8.976c0.209,1.789,0.606,3.039,2.536,2.485
		c1.93-0.554,3.263-3.071,6.352-3.813c3.089-0.742,5.808,0.488,7.356,0.654c1.548,0.166,3.289-0.028,4.059-0.392
		c0.771-0.365-0.791-1.963-0.027-3.223c0.764-1.26,1.525-2.698,3.468-1.641c1.943,1.058,2.528,1.59,2.543,3.38
		c0.015,1.79-0.167,3.045-0.356,3.583c-0.189,0.539,0.592,1.427,1.942,0.879c1.349-0.548,3.083-1.458,7.92-1.32
		c4.837,0.138,7.544-0.063,9.287,0.101c1.742,0.165,2.324,0.339,2.311-1.272c-0.013-1.611-0.799-3.037-0.819-5.364
		s1.316-4.487,1.112-5.738C151.241,377.571,150.467,377.577,148.726,377.592z"/>
	<path id="XMLID_126_" fill="#1BA9B1" d="M148.675,394.421c-2.449,0.64-4.245,1.289-8.305,1.502
		c-4.061,0.213-7.354-0.296-8.903-0.462c-1.549-0.166-1.546,0.192-2.117,1.271c-0.571,1.078-1.723,2.162-3.467,1.819
		c-1.744-0.343-2.522-0.874-2.733-3.021c-0.212-2.146,1.727-1.626-0.212-2.146c-1.939-0.521-3.482,0.029-5.032-0.316
		c-1.551-0.345-2.527-1.411-3.292-0.33c-0.765,1.081,0.411,2.861-0.352,4.121c-0.763,1.26-1.523,2.877-5.182,4.878
		c-3.658,2-4.998,3.802-5.544,7.745c-0.546,3.942,0.231,4.474,0.819,5.363c0.588,0.891,1.558,1.24,2.708-0.022
		c1.15-1.264,2.678-3.604,5.187-4.34c2.508-0.738,3.867-0.212,7.155-0.24c3.289-0.027,4.262,0.681,4.641-0.218
		c0.379-0.899-0.428-4.83,1.694-5.564c2.122-0.733,3.675-0.031,4.082,2.293c0.406,2.324-0.167,3.225,0.42,3.937
		c0.586,0.711,1.368,1.6,2.521,0.693c1.153-0.903,3.854-1.821,9.073-2.225c5.219-0.403,7.349-0.241,8.702-0.432
		c1.353-0.191,1.157-0.368,0.95-1.979s-0.988-2.498-1.011-5.184s1.698-5.027,1.109-6.096
		C150.996,394.402,150.798,393.866,148.675,394.421z"/>
	<path id="XMLID_129_" fill="#1BA9B1" d="M149.981,411.598c-3.109,1.339-4.819,2.011-9.069,2.763s-7.349,0.24-8.703,0.253
		c-1.354,0.012-1.153,0.904-2.305,1.987c-1.151,1.084-3.269,2.355-4.25,0.753c-0.98-1.604-0.613-3.934-1.582-4.104
		c-0.969-0.17-2.126,0.196-4.256,0.035s-2.134-0.697-3.1-0.511c-0.965,0.188,0.218,2.862,0.234,4.832
		c0.017,1.97-0.739,4.124-3.631,5.223c-2.892,1.099-4.822,1.652-6.538,4.71c-1.715,3.059-1.097,7.528-0.506,8.777
		c0.591,1.248,2.141,1.593,3.672-0.391c1.531-1.981,3.063-3.785,7.698-4.72c4.635-0.936,6,0.308,7.159,0.118
		c1.159-0.188,1.347-0.906,1.141-2.337c-0.206-1.432,0.152-4.835,2.666-5.035c2.514-0.2,3.107,1.406,3.511,3.372
		c0.403,1.966-0.167,3.224,1.581,3.926c1.747,0.701,2.498-1.991,8.874-2.939c6.375-0.948,6.756-1.669,8.886-1.508
		s2.901-0.023,2.497-2.17c-0.405-2.145-2.17-4.994-1.815-8.757S152.101,410.685,149.981,411.598z"/>
	<path id="XMLID_128_" fill="#1BA9B1" d="M152.644,429.12c-2.438,1.064-6.164,3.096-9.446,3.84
		c-3.283,0.743-7.345,0.778-9.085,0.793c-1.741,0.015-1.341,1.622-2.302,2.347s-2.691,1.992-4.056,0.75
		c-1.365-1.24-1.186-3.032-2.926-2.84c-1.739,0.194-2.707,0.202-4.447,0.217c-1.74,0.016-2.321,0.021-2.117,1.271
		c0.204,1.251,1.183,2.675-0.348,4.657c-1.531,1.981-5.011,2.189-6.926,4.534c-1.915,2.344-2.666,5.035-2.442,8.613
		c0.224,3.579,0.622,4.829,1.403,5.719c0.781,0.889,1.552,0.522,2.123-0.557c0.571-1.079,3.82-5.761,8.652-6.339
		c4.831-0.578,6.766-0.595,8.118-0.785c1.352-0.189,0.189-0.538,0.169-2.865c-0.02-2.326-0.429-5.01,2.861-4.857
		c3.29,0.151,3.118,2.659,3.131,4.271c0.013,1.612-0.363,2.867,0.609,3.396c0.972,0.529,5.396-2.373,9.836-3.484
		c4.44-1.111,8.118-0.785,10.051-0.979c1.933-0.195,2.604-1.773,1.71-3.596c-0.787-1.604-1.381-3.211-1.791-5.894
		c-0.433-2.836,0.152-4.835-0.053-6.266C155.163,429.636,155.149,428.025,152.644,429.12z"/>
	<path id="XMLID_131_" fill="#1BA9B1" d="M156.107,449.858c-2.456,0.779-4.428,2.544-8.291,3.293
		c-3.863,0.749-8.883,1.864-10.432,1.698c-1.549-0.166-2.325-0.338-2.702,0.739c-0.378,1.077-0.945,2.693-2.687,2.529
		c-1.742-0.164-3.299-1.227-3.887-2.116s-0.399-1.429-2.719-1.229c-2.32,0.197-4.064-0.146-5.029,0.042
		c-0.966,0.188-0.57,1.258,0.027,3.223c0.597,1.964,0.82,5.543-1.687,6.459c-2.507,0.917-3.864,0.57-5.983,1.662
		c-2.119,1.092-2.868,3.963-3.033,7.366c-0.165,3.401,0.248,6.441,1.032,7.688c0.785,1.246,1.171,1.243,1.754,1.597
		s3.073-2.712,4.408-4.87c1.336-2.16,2.104-2.884,4.227-3.438s4.248-0.931,6.571-0.771c2.323,0.159,3.873,0.504,3.859-1.107
		c-0.013-1.61-1.987-6.249,1.875-6.998c3.863-0.748,3.885,1.938,4.092,3.547s0.41,2.683,0.999,3.751
		c0.589,1.069,1.552,0.523,4.25-0.752s3.653-2.717,8.097-3.291c4.444-0.575,6.379-0.591,7.923-0.962s2.318-0.378,1.916-2.165
		s-1.582-4.104-2.196-8.038c-0.613-3.934-0.044-5.19-0.059-6.98C158.417,448.945,157.844,449.307,156.107,449.858z"/>
	<path id="XMLID_130_" fill="#1BA9B1" d="M160.151,470.593c-1.705,1.124-3.654,2.537-9.057,4.193
		c-5.402,1.657-8.881,2.045-10.235,2.057c-1.354,0.011-0.379,0.898-1.529,2.161s-3.851,2.181-5.017,1.475
		c-1.166-0.705-1.954-2.311-2.157-3.384c-0.202-1.071-0.777-0.352-3.096-0.151c-2.32,0.197-3.097-0.153-4.063,0.033
		c-0.965,0.188-0.964,0.366-0.359,3.227s0.615,4.112-0.146,5.551c-0.762,1.439-3.268,2.534-5.588,2.554
		c-2.321,0.021-4.061,0.214-4.615,3.263c-0.555,3.049-0.917,5.916-0.118,8.953c0.8,3.035,0.633,6.261,3.911,4.979
		s5.764-4.703,9.624-5.811c3.859-1.106,7.334-2.031,8.683-2.579c1.35-0.55,0.771-1.751,0.358-3.405
		c-0.4-1.607-1.783-4.998,1.887-5.565c3.671-0.567,5.048,2.105,4.875,4.613c-0.173,2.508,0.431,5.188,1.969,4.103
		c1.538-1.089,4.229-3.08,8.668-4.37c4.438-1.291,8.689-1.864,10.621-2.238c1.931-0.374,2.889-1.457,2.101-3.24
		c-0.789-1.784-2.738-3.558-2.964-7.314c-0.323-5.39-0.438-6.084-0.646-7.872S162.075,469.323,160.151,470.593z"/>
</g>
<g id="Lumbar_Spine">
	<path id="XMLID_133_" fill="#EDC600" d="M169.856,497.275c-0.309,4.854,1.24,9.389,2.133,12.066
		c0.893,2.678,0.916,5.363-1.986,5.389c-2.902,0.024-6.383,0.054-10.432,1.698c-4.048,1.646-7.224,3.552-9.25,4.106
		c-2.027,0.554-2.034-0.252-2.634-2.663c-0.601-2.412-0.642-7.246-4.692-5.869c-4.05,1.377-3.457,2.983-2.57,4.854
		c0.886,1.873,1.192,3.75-0.542,4.57c-1.734,0.82-4.636,0.845-8.977,2.226c-4.341,1.379-7.217,4.356-9.845,2.5
		c-2.628-1.857-4.096-3.994-3.845-8.563c0.252-4.567,1.698-5.116,5.751-6.225c4.053-1.109,5.495-2.195,5.479-4.075
		c-0.016-1.879-1.478-3.21-0.029-3.49c1.448-0.281,3.468-1.641,5.205-2.191c1.736-0.553,1.731-1.09,3.779,0.772
		c2.047,1.862,4.08,2.114,5.517,0.49c1.438-1.623,2.875-3.247,2.875-3.247s3.189-0.295,9.849-1.963
		c6.66-1.667,8.385-3.563,10.412-4.116C168.079,492.994,170.112,493.245,169.856,497.275z"/>
	<path id="XMLID_134_" fill="#EDC600" d="M171.792,520.354c-4.136,0.803-6.073,2.47-11.579,3.32
		c-5.506,0.854-8.396,2.22-9.854,1.426c-1.458-0.793-1.453-0.256-2.603,1.098c-1.15,1.353-4.037,2.987-5.792,1.392
		c-1.755-1.596-0.605-2.949-2.054-2.668c-1.449,0.28-0.281,1.076-3.758,1.644c-3.478,0.565-4.357-0.5-4.919,1.652
		c-0.562,2.153,1.199,4.556-2.852,5.933c-4.051,1.377-4.647-0.498-7.533,1.405c-2.885,1.904-2.86,4.858-2.253,8.076
		c0.607,3.217,0.925,6.438,5.857,6.396c4.932-0.042,6.662-1.399,10.432-1.699c3.77-0.301,7.245-1.136,8.688-1.953
		c1.444-0.818-0.603-2.681-0.043-5.103c0.56-2.423,1.419-3.771,3.16-3.786c1.741-0.016,3.774,0.235,3.811,4.533
		c0.037,4.296,0.335,5.367,2.079,5.621c1.744,0.255,7.512-3.822,12.443-4.134c4.93-0.31,8.117-0.874,10.151-0.623
		c2.033,0.252,3.178-1.638,2.582-3.513c-0.596-1.875-2.647-4.274-2.4-9.379c0.247-5.105,0.227-7.521-0.075-8.861
		C174.979,519.791,173.24,520.074,171.792,520.354z"/>
	<path id="XMLID_132_" fill="#EDC600" d="M176.389,549.319c-3.396,1.079-5.205,2.191-11.008,2.24
		c-5.803,0.05-7.832,0.335-10.155,0.087c-2.323-0.25-0.573,0.811-2.883,2.173c-2.31,1.361-4.626,1.919-5.801,0.316
		c-1.175-1.602-0.607-3.218-2.349-3.203c-1.741,0.016-1.156,0.548-4.055,0.841s-4.935-0.228-5.22,0.313
		c-0.286,0.54,0.584,0.532,0.315,2.952c-0.27,2.419-0.549,3.764-4.898,4.069c-4.35,0.305-6.384,0.054-7.519,3.018
		c-1.136,2.964-2.281,4.854,0.077,9.13c2.357,4.276,5.837,3.979,9.892,3.139c4.056-0.84,8.406-1.145,10.729-0.896
		c2.323,0.248,4.352-0.037,3.754-2.181c-0.599-2.145-2.385-7.499,2.55-7.272c4.935,0.229,3.802,3.459,4.11,5.605
		c0.309,2.146,0.327,4.294,1.202,4.822c0.875,0.529,0.879,1.066,4.062-0.033c3.183-1.103,6.365-2.202,11.008-2.241
		s6.676,0.212,8.707,0.193c2.031-0.017,3.77-0.3,2.872-3.515c-0.897-3.216-0.916-5.363-1.537-10.192
		c-0.516-4.008,0.233-6.716-0.363-8.59C179.282,548.221,178.994,548.491,176.389,549.319z"/>
	<path id="XMLID_136_" fill="#EDC600" d="M179.531,577.759c-2.866,0.911-4.921,1.384-9.273,1.421
		c-4.353,0.037-9.29-0.459-11.903-0.705s-1.736,0.553-3.761,1.375c-2.024,0.822-4.336,1.916-5.513,0.047
		c-1.177-1.87-1.192-3.75-2.063-3.742s-1.734,0.819-4.348,0.573c-2.614-0.247-4.651-1.034-4.935-0.228
		c-0.283,0.809,1.202,4.824-0.818,6.184c-2.02,1.36-5.799,0.587-7.83,0.604c-2.031,0.018-4.058,0.571-4.89,5.144
		c-0.832,4.573-0.809,7.258,2.113,9.65c2.922,2.392,5.81,0.757,11.032,0.712c5.223-0.044,7.834-0.065,9.285-0.078
		c1.451-0.012,1.739-0.283,1.718-2.7s-0.632-6.171,3.724-5.671c4.357,0.5,3.509,3.193,3.532,5.879s-0.537,5.106,2.07,4.547
		c2.607-0.559,5.211-1.387,11.017-1.167c5.806,0.221,9.575-0.08,11.613,0.708c2.038,0.788,2.906,0.514,2.593-2.171
		c-0.313-2.683-0.621-4.828-0.95-9.391c-0.329-4.563,0.816-6.452,0.503-9.135C182.136,576.931,181.268,577.207,179.531,577.759z"/>
	<path id="XMLID_135_" fill="#EDC600" d="M179.209,608.376c-4.075,0.454-5.798,0.586-10.448-0.181
		c-4.649-0.767-9.305-2.338-11.341-2.857c-2.036-0.521-0.875-0.53-2.895,0.83c-2.02,1.359-4.921,1.384-6.104-1.292
		c-1.183-2.675-0.027-3.222-2.348-3.202c-2.321,0.021-4.355-0.231-6.386-0.215c-2.031,0.018-1.451,0.013-2.591,2.438
		c-1.141,2.428-3.16,3.787-6.352,3.813c-3.191,0.027-5.789,1.66-7.208,5.432c-1.419,3.772-1.104,6.725-0.503,9.137
		c0.601,2.41,2.045,1.594,4.368,1.843c2.324,0.249,4.046-1.914,9.861-0.621c5.814,1.294,8.145,2.349,9.01,1.805
		c0.866-0.545,0.558-2.689,0.828-5.108c0.27-2.42,1.695-5.387,4.905-3.266s2.072,4.816,1.512,7.238s0.045,5.37,4.101,4.53
		c4.056-0.84,5.792-1.393,11.606-0.099s5.529,1.833,8.147,2.616c2.618,0.784,3.484,0.239,3.165-3.249
		c-0.319-3.488-0.95-6.127,0.775-11.285C183.292,610.759,181.818,608.085,179.209,608.376z"/>
</g>
<g id="Sacral">
	<path id="XMLID_137_" fill="#E02837" d="M178.008,637.927c-3.746,0.417-14.208,1.194-17.414-0.391
		c-3.206-1.584-4.099-4.262-7.882-5.572c-3.784-1.312-7.27-1.817-9.886-2.334c-2.616-0.515-2.611,0.022-2.886,1.904
		s-0.247,5.104-3.144,5.666c-2.897,0.562-4.073-1.309-6.084,1.126c-2.011,2.434-0.233,6.716-0.211,9.399
		c0.023,2.687-1.995,4.314-5.18,5.146c-3.185,0.833-3.459,2.715-3.142,5.935c0.317,3.221,1.514,7.508-0.207,9.938
		c-1.72,2.432-3.178,1.638-2.849,6.2c0.329,4.562,1.5,5.896,0.642,7.246c-0.859,1.35,0.021,2.416-0.834,4.304
		c-0.855,1.887-2.886,1.904-3.158,4.055c-0.272,2.151,0.616,4.291,1.793,6.161c1.176,1.87,2.661,5.886,1.807,7.772
		c-0.854,1.888-3.464,2.178-1.125,4.307s8.446,3.688,9.296,1.265c0.85-2.425,0.551-3.496,1.383-8.067
		c0.832-4.572,2.799-12.108,6.546-15.095c3.747-2.985,5.49-2.731,7.791-5.169c2.301-2.436,2.578-4.05,4.307-5.406
		c1.729-1.357,6.367-1.935,9.545-3.571c3.178-1.639,10.543-5.752,11.239-9.227c1.671-8.34-2.716-8.536-2.419-11.526
		c0.268-2.688,7.469-8.926,10.652-10.026C179.774,640.865,180.617,637.636,178.008,637.927z"/>
</g>
<g id="Coccyx">
	<path id="XMLID_139_" fill="#0F5B8A" d="M127.869,713.813c0.016,1.898-0.54,4.839,1.236,8.853c1.775,4.013,3.253,7.224,4.15,10.438
		c0.897,3.215,4.978,5.329,3.534,6.146c-1.444,0.818-5.208-3.238-7.594-5.844c-2.929-3.198-3.826-6.413-5.891-10.425
		c-1.817-3.527-2.668-6.69-3.845-8.561c-1.177-1.87-2.355-4.009-0.61-3.486c1.745,0.523,2.335,1.593,4.946,1.569
		S127.844,710.858,127.869,713.813z"/>
</g>
</svg>
