<?xml version="1.0" encoding="utf-8"?>
<!-- Generator: Adobe Illustrator 21.0.0, SVG Export Plug-In . SVG Version: 6.00 Build 0)  -->
<svg version="1.1" id="Layer_1" xmlns="http://www.w3.org/2000/svg" xmlns:xlink="http://www.w3.org/1999/xlink" x="0px" class="disabled" width="50%" height="375px" style="float:left;" viewbox="-10 0 280 700" xml:space="preserve">
<style type="text/css">
	.st0chart{fill:#D1D1D1;}
	.st1chart{stroke:#000000;stroke-miterlimit:10;}
	<!-- .st1chart{fill:#B5B5B5;stroke:#000000;stroke-miterlimit:10;} -->
	.st2e{fill:#fff;stroke:#000000;stroke-miterlimit:10;}
	.st3e{opacity:0.26;fill:#020202;enable-background:new    ;}
	.st4e{opacity:0.5;fill:#494949;enable-background:new    ;}
	.st5e{fill:none;stroke:#000000;stroke-miterlimit:10;}
	.st6e{fill:none;stroke:#000000;stroke-width:1.5;stroke-miterlimit:10;}
	.st7{display:none;enable-background:new    ;}
	.st8{font-family:'MyriadPro-Bold';}
	.st9{font-size:7px;}
	.st10{display:none;fill:none;stroke:#000000;stroke-miterlimit:10;}
	.st11e{opacity:0.5;}
	.st12{fill:#494949;}
	.st13{fill:#666666;}
</style>
<text x="10" y="20" fill="Black" font-size="23">Myotome</text>
<path class="st0chart" d="M129.4,277.7c-3.4-2.4-7.8-8.8-12-10.8c-5.8-2.7-8-0.7-14.5-3.9c-1.2-0.6-2.2-1.2-3.2-1.9
	c-0.6,3.7-1,7.4-1.5,11.1c0.5,0.4,1,0.8,1.5,1.2c6.2,5.5,9.9,9.3,15,13.2c4.2,3.1,11.7,5.4,14.8,8.1c10.2,8.9,14.7,13.3,19.2,14.9
	c0.1-0.6,0.2-1.3,0.2-1.7c0.3,0,0.7-0.1,1-0.1c0.3,0.1,0.3-1.4,0.3-1.4v-25.5C145.4,281,133.6,280.8,129.4,277.7z"/>
<path class="st0chart" d="M142.4,262.5c-4.1-0.9-8.5-8.2-13-9.4c-5.4-1.4-16.2,3.4-21.8-6.5c-0.8-1.5-3-3.5-4.5-4.6
	c-1.3,6.1-2.5,12.9-3.4,19.1c1,0.7,2,1.3,3.2,1.9c6.5,3.2,8.7,1.2,14.5,3.9c4.2,2,8.6,8.3,12,10.8c4.3,3.1,16.1,3.3,20.9,3.2v-18
	C147.8,263,144.6,263,142.4,262.5z"/>
<path class="st0chart" d="M128.5,241.4c-5.4-1.4-11-1.3-15-2.7c-2.4-0.8-6.6-3.7-9.3-5.5c0,1,0,2-0.1,3c0,0.7-0.1,1.4-0.2,2
	c-0.3,1.3-0.6,2.6-0.8,3.9c1.6,1.1,3.7,3.1,4.5,4.6c5.6,9.9,16.3,5.1,21.8,6.5c4.5,1.2,8.9,8.5,13,9.4c2.3,0.5,5.4,0.6,7.9,0.5v-17
	c-2.6-0.1-6-0.3-9.6-0.8C136.6,244.7,133,242.5,128.5,241.4z"/>
<path class="st0chart" d="M112.4,227c-1.8,0-5.3-1.1-8-1.6c-0.1,2.6-0.1,5.3-0.2,7.9c2.7,1.8,6.9,4.7,9.3,5.5c3.9,1.4,9.6,1.2,15,2.7
	c4.5,1.2,8.1,3.3,12.2,3.9c3.6,0.4,6.9,0.7,9.6,0.8v-18.6C142.9,227.3,121.3,226.9,112.4,227z"/>
<path class="st0chart" d="M113.5,213.3c-1.9,0.1-6.2-0.5-9.3-0.2c-0.1,4.1,0.3,8.3,0.2,12.3c2.7,0.5,6.2,1.8,8,1.7
	c8.9-0.1,30.6,0.3,37.9,0.4v-14.2C141.8,213.3,121.2,212.9,113.5,213.3z"/>
<path class="st0chart" d="M113.5,199.9c-2.2,0.1-6,1-8.6,2.1c0,4.2-0.5,7.7-0.6,11.8c3.1-0.3,7.4,0.2,9.3,0.2c7.7-0.3,28.3,0,36.8,0.2
	v-13.9C138.8,200,120.1,199.6,113.5,199.9z"/>
<path class="st0chart" d="M150.3,201.5v-15.1c-11.7-0.4-30.6-0.6-36.9,0.4c-2.2,0.4-6,1.4-8.6,2.5c0.1,4.8,0.1,9.6,0.1,14.4
	c2.7-1.3,6.5-2.5,8.6-2.5C120.1,200.7,138.8,201.1,150.3,201.5z"/>
<path class="st0chart" d="M150.3,187.2v-13.1c-11.4-0.2-30.7-0.5-37.8,0.2c-1.6,0.2-6.5,2.3-9.4,3.4c1,3.1,1.3,5.8,1.6,9.1
	c0.1,1,0,2.2,0,3.2c2.6-1,6.5-2.3,8.7-2.6C119.6,186.7,138.5,186.9,150.3,187.2z"/>
<path class="st0chart" d="M150.3,175.2v-11.5c-8.7-0.2-35.7-0.7-44.4,0.2c-1.4,0.1-4.3,1.5-6.6,2.6c-0.4,0.2-0.6,1.5-0.1,3
	c0.5,0.9,2.9,5.9,3.8,8.8c2.9-1.1,7.8-2.8,9.5-2.9C119.6,174.7,138.9,174.9,150.3,175.2z"/>
<path class="st0chart" d="M150.3,163.7v-9.4c-9.8-0.2-37.2-0.6-44.6,0.2c-1.7,0.2-5.4,1.6-7.7,2.6c0.1,0.9,0.2,1.7,0.1,2
	c-0.2,1.5-0.1,5.3-0.1,8.1c2.4-1.2,5.9-2.3,7.4-2.4C114.3,164,141.3,163.5,150.3,163.7z"/>
<path class="st0chart" d="M149.3,155.3l0.5-10.4c-6.7-0.1-38.3-0.7-46.3,0.1c-1.5,0.1-4.3,1.4-6.5,2.3c0.6,3.4,1.1,7.7,1.4,10.4
	c2.3-1.1,5.6-2.1,7.3-2.2C112.9,154.6,139.6,155.1,149.3,155.3z"/>
<path class="st0chart" d="M102,108.1c5.5,2.1,15.2,0.2,20.8,0s12.3-0.1,15.6,1.3c4.8,2,6.7,6.4,10.6,6.3c0.2,0,0.3,0,0.5-0.1V99.9
	c-0.3,0.1-0.6,0.1-0.9,0.1c-4.3,0.1-6.1-2-8.8-3.8s-4.2-2.6-7.2-2.5s-7.9-2.4-9.8-3.7c-0.5-0.4-1.3-1.1-2.2-1.9
	c-7.4,4.7-15,9.2-23,12.5C98.2,103.7,99.3,107,102,108.1z"/>
<path class="st0chart" d="M132.7,93.7c3-0.1,4.5,0.8,7.2,2.5s4.5,3.9,8.8,3.8c0.3,0,0.6,0,0.9-0.1V83c-8.2,0.3-14.9-6.6-18.6-11.7
	c-0.1,5-1.8,11.3-7.1,14.7c-1,0.7-2.1,1.4-3.1,2c0.9,0.8,1.7,1.5,2.2,1.9C124.8,91.4,129.8,93.9,132.7,93.7z"/>
<path class="st0chart" d="M149.6,83v-2.7c-8.3,0-15-6.5-18.9-11.4c0.2,1.5,0.3,1,0.3,2.4C134.7,76.5,141.4,83.3,149.6,83z"/>
<path class="st0chart" d="M148.7,280.6v25.5c0,0,0,1.5,0.3,1.4c0.3,0,0.7,0.1,1,0.1c0,0.4,0.1,1.1,0.2,1.7c4.5-1.6,9-6,19.2-14.9
	c3.1-2.7,10.6-5,14.8-8.1c5.1-3.9,8.8-7.7,15-13.2c0.5-0.4,1-0.8,1.5-1.2c-0.5-3.7-0.9-7.4-1.5-11.1c-1,0.7-2,1.3-3.2,1.9
	c-6.5,3.2-8.7,1.2-14.5,3.9c-4.2,2-8.6,8.4-12,10.8C165.3,280.5,153.5,280.7,148.7,280.6z"/>
<path class="st0chart" d="M148.6,262.6v18c4.8,0.1,16.6-0.1,20.9-3.2c3.4-2.5,7.8-8.8,12-10.8c5.8-2.7,8-0.7,14.5-3.9
	c1.2-0.6,2.2-1.2,3.2-1.9c-0.9-6.2-2.1-13-3.4-19.1c-1.5,1.1-3.7,3.1-4.5,4.6c-5.6,9.9-16.4,5.1-21.8,6.5c-4.5,1.2-8.9,8.5-13,9.4
	C154.3,262.7,151.1,262.7,148.6,262.6z"/>
<path class="st0chart" d="M158.2,245c-3.6,0.5-7,0.7-9.6,0.8v17c2.5,0.1,5.6,0,7.9-0.5c4.1-0.9,8.5-8.2,13-9.4c5.5-1.4,16.2,3.4,21.8-6.5
	c0.8-1.5,2.9-3.5,4.5-4.6c-0.2-1.3-0.5-2.6-0.8-3.9c-0.1-0.6-0.2-1.3-0.2-2c-0.1-1-0.1-2-0.1-3c-2.7,1.8-6.9,4.7-9.3,5.5
	c-4,1.4-9.6,1.3-15,2.7C165.9,242.2,162.3,244.4,158.2,245z"/>
<path class="st0chart" d="M148.6,227.3v18.6c2.7-0.1,6-0.4,9.6-0.8c4.1-0.6,7.7-2.7,12.2-3.9c5.4-1.5,11.1-1.3,15-2.7
	c2.4-0.8,6.6-3.7,9.3-5.5c-0.1-2.6-0.1-5.3-0.2-7.9c-2.7,0.5-6.2,1.6-8,1.6C177.6,226.6,156,227,148.6,227.3z"/>
<path class="st0chart" d="M148.6,213.1v14.2c7.3-0.1,29-0.5,37.9-0.4c1.8,0.1,5.3-1.2,8-1.7c-0.1-4,0.3-8.2,0.2-12.3
	c-3.1-0.3-7.4,0.3-9.3,0.2C177.7,212.5,157.1,213,148.6,213.1z"/>
<path class="st0chart" d="M148.5,200v13.9c8.5-0.2,29.1-0.5,36.8-0.2c1.9,0,6.2-0.5,9.3-0.2c-0.1-4.1-0.6-7.6-0.6-11.8
	c-2.6-1.1-6.4-2-8.6-2.1C178.8,199.3,160.1,199.7,148.5,200z"/>
<path class="st0chart" d="M185.4,200.8c2.1,0,5.9,1.2,8.6,2.5c0-4.8,0-9.6,0.1-14.4c-2.6-1.1-6.4-2.1-8.6-2.5c-6.3-0.9-25.2-0.7-36.9-0.4
	v15.1C160.1,200.8,178.8,200.3,185.4,200.8z"/>
<path class="st0chart" d="M185.5,187.2c2.2,0.3,6.1,1.6,8.7,2.6c0-1.1-0.1-2.3,0-3.2c0.3-3.3,0.6-6,1.6-9.1c-2.9-1.2-7.8-3.2-9.4-3.4
	c-7.1-0.8-26.4-0.4-37.8-0.2V187C160.4,186.6,179.3,186.3,185.5,187.2z"/>
<path class="st0chart" d="M186.4,175.1c1.7,0.1,6.6,1.8,9.5,2.9c0.9-2.9,3.3-7.9,3.8-8.8c0.5-1.5,0.3-2.8-0.1-3c-2.3-1.1-5.2-2.5-6.6-2.6
	c-8.7-0.9-35.7-0.4-44.4-0.2v11.5C160,174.6,179.3,174.4,186.4,175.1z"/>
<path class="st0chart" d="M193,163.6c1.4,0.1,5.6,2.4,7.9,3.6c0-2.9,0.2-6.9,0-8.4c-0.1-0.3,0-1.1,0.1-2c-2.2-1-7.2-2.9-8.9-3.1
	c-7.3-0.8-34-0.4-43.6-0.2l0.1,9.9C157.4,163.2,184.3,162.7,193,163.6z"/>
<path class="st0chart" d="M192.7,154.2c1.7,0.1,5.2,1.6,7.5,2.6c0.3-2.5,1.1-6.5,1.7-9.7c-2.2-0.9-5-2.1-6.5-2.2
	c-8-0.8-39.6-0.2-46.3-0.1v9.2C158.8,153.8,185.5,153.4,192.7,154.2z"/>
<path class="st0chart" d="M201.3,100.3c-8-3.3-15.6-7.8-23-12.5c-0.9,0.8-1.7,1.5-2.2,1.9c-1.9,1.3-6.8,3.8-9.8,3.7s-4.5,0.7-7.2,2.5
	s-4.5,3.9-8.8,3.8c-0.3,0-0.6,0-0.9-0.1v15.7c0.2,0.1,0.3,0.1,0.5,0.1c3.9,0.1,5.8-4.3,10.6-6.3c3.3-1.4,10-1.5,15.6-1.3
	s15.3,2.1,20.8,0C199.6,106.7,200.7,103.4,201.3,100.3z"/>
<path class="st0chart" d="M175.9,89.6c0.5-0.4,1.3-1.1,2.2-1.9c-1-0.6-2.1-1.3-3.1-2c-5.3-3.4-7-9.7-7.1-14.7c-3.7,5.1-10.4,12-18.6,11.7
	v16.9c0.3,0.1,0.6,0.1,0.9,0.1c4.3,0.1,6.1-2.1,8.8-3.8s4.2-2.6,7.2-2.5C169.1,93.6,174.1,91.1,175.9,89.6z"/>
<path class="st0chart" d="M167.9,71c0-1.4,0.1-0.9,0.3-2.4c-3.9,4.9-10.6,11.6-18.9,11.6v2.5C157.5,83,164.2,76.2,167.9,71z"/>
<path class="st0chart" d="M150.3,145v-8.6c-0.6,0-1.1,0.1-1.4,0.1c-3.5-0.2-40.6-1.7-42.7-1.4c-2.2,0.3-12.2,0.3-10.2,8.3
	c0.1,0.5,0.5,2.3,0.9,4.4c2.2-0.9,5.7-2.5,7.1-2.7C112,144.4,143.6,144.9,150.3,145z"/>
<path class="st0chart" d="M194.5,145.4c1.4,0.2,5.3,1.5,7.5,2.4c0.4-2.1,1.1-4.7,1.2-5.2c1.2-6-7.8-7.5-10-7.8c-2.1-0.3-39.7,1-43.2,1.2
	c-0.3,0-1,0.1-1.6,0.1l-0.2,9.2C154.9,145.2,186.5,144.7,194.5,145.4z"/>
<g>
	<path id="Right_Lower_S1" class="st1chart myotome" fill="#B5B5B5"  d="M122.9,558.3c2.1-4.3,3.9-6.2,5.2-12s0-26.5-1.2-38s-4.3-17.8-5.1-20.7
		c-0.3-1.1-1.5-2.1-2.8-2.8c2.5,10.5,4.9,21,5.7,31.6c1,15,1,30.6-6.7,44.7c-0.8,1.4-1.2,3.1-1.7,4.7c-1.5,4.9,0,8.7,2.4,10.9
		c0-0.5,0.1-1,0.1-1.4C119,570.7,120.8,562.7,122.9,558.3z"/>
</g>
<g>
	<path id="Right_Lower_L5" class="st1chart myotome" fill="#B5B5B5"  d="M138.9,556.7c-1.5-3.4-1.3-13.4-1.3-20.9c0.1-7.5,0.3-23.7,0-28.7
		s-3.4-19-5.3-25.3c-1.8-6.3-11.8-30.7-13.3-35.7s-3.4-15.5-3.6-17.2s0.3-19.6,0.2-20.7s0.6-3.8,1.3-5.2c0.8-1.3,1.1-5.6,0-7.8
		c-1.5-2.9-6.4-9.8-7.3-11c-0.4-0.5-2-2.4-3.7-4.4c0.4,1.7,0.7,3.3,1.1,5c2.9,13,5.5,26,3.6,39.5c-0.8,5.7-2.2,11.8-1.2,17.3
		c1.8,11.3,5.3,22.3,7.7,33.4c0.7,3.3,1.5,6.6,2.2,9.9c1.3,0.8,2.5,1.7,2.8,2.8c0.8,2.8,4,9.2,5.1,20.7c1.2,11.5,2.5,32.2,1.2,38
		s-3,7.7-5.2,12c-2.1,4.3-4,12.3-4.1,17c0,0.4,0,0.9-0.1,1.4c2.8,2.6,6.9,3,8.8,0.6c1.7,3.1,5,2.8,7.7,0.3c0.4,1.8,1.3,2.9,2.5,3.4
		c0.1-2.5,0.8-4.6,2-8C141.5,569,140.7,560.7,138.9,556.7z"/>
</g>
<g>
	<path id="Right_Lower_L4" class="st1chart myotome" fill="#B5B5B5"  d="M143.7,460.8c-0.7-4.5-5.7-13.2-6.7-16.5s-1.3-18.2-0.5-25.5
		c0.8-7.4,2.5-14.8,0.8-22.6c-1.7-7.8-4.5-13.3-6.5-19s-11.5-21.3-17.7-30.8s-14.8-26.3-16.5-29c1,20.8,4.9,42.3,9.4,62.7
		c1.7,2,3.3,3.9,3.7,4.4c0.8,1.2,5.7,8.1,7.3,11c1.1,2.1,0.8,6.4,0,7.8c-0.8,1.3-1.4,4.1-1.3,5.2s-0.3,19-0.2,20.7
		c0.2,1.7,2.1,12.2,3.6,17.2s11.4,29.3,13.3,35.7c1.8,6.3,5,20.3,5.3,25.3s0.1,21.2,0,28.7s-0.2,17.6,1.3,20.9
		c1.8,4,2.7,12.3,1.2,16.6c-1.2,3.4-1.8,5.5-2,8c3.2,1.4,8.1-1.7,8.7-5.7c0.7-4.6-0.7-9.5-0.7-14.2c0-2.3-0.9-4.8-0.3-6.8
		c2.7-8.5,1.8-17.2,0.3-25.5c-2.3-13.6-3.3-27.2-1.6-40.7c-0.4-1.2-0.7-2.8-0.8-4.8C143.1,476.7,144.4,465.3,143.7,460.8z"/>
</g>
<g>
	<path id="Right_Lower_L3" class="st1chart myotome" fill="#B5B5B5"  d="M111,307.6c-4.3-4.3-8.8-8.3-14.2-14.8c-0.1,1.9,0.2,4.3,0.1,6.2
		c-0.2,6.5-0.5,11.9-0.1,18.3c1.7,2.7,10.3,19.5,16.5,29s15.7,25.2,17.7,30.8c2,5.7,4.8,11.2,6.5,19s0,15.3-0.8,22.6
		c-0.8,7.4-0.5,22.2,0.5,25.5s6,12,6.7,16.5s-0.6,15.8,0,22.8c0.2,2,0.5,3.5,0.8,4.8c0.3-2.7,0.8-5.3,1.3-7.9
		c2.9-14.4,3.4-28.1-2.2-42.1c-3.7-9.2-3.8-19-1.3-29c2-7.9,2.9-16.1,3.3-24.2c0.9-18,2.2-35.5,2.7-53.2c-4.2-1.8-6-7.8-20.9-12.1
		C123.5,318.8,115.3,312,111,307.6z"/>
</g>
<g>
	<path id="Right_Lower_L2" class="st1chart myotome" fill="#B5B5B5"  d="M114.7,286.6c-5.1-3.8-8.8-7.7-15-13.2c-0.5-0.4-1-0.8-1.5-1.2
		c-0.8,7-1.1,13.5-1.5,20.6c5.4,6.5,9.9,10.4,14.2,14.8c4.4,4.4,12.5,11.2,16.5,12.4c14.9,4.4,16.7,10.3,20.9,12.1
		c0.2-6.7,0.3-13.4,0.2-20.1c0-0.6,0.1-1.5,0.2-2.3c-4.5-1.6-9-5.9-19.2-14.9C126.4,292,118.9,289.8,114.7,286.6z"/>
</g>
<g>
	<path id="Right_Upper_T1" class="st1chart myotome" fill="#B5B5B5"  d="M100.2,124.6c-11.1-4.8-19,0-22.3,6c-3.3,6-0.5,15.7,0.8,21.5s-1.8,10.8-4.2,20.7
		c-2.3,9.8-3,30.3-4.2,39.5s-7.8,26.3-12.2,35.6s-4.3,20-4.3,20c0.1-0.1,0.3-0.3,0.6-0.6c0-0.3-0.1-0.5-0.1-0.7
		c0.9-0.6,1.8-1.1,2.5-1.7c1.9-1.7,4.3-3.8,6.8-5.2c0.4-0.2,0.7-0.4,1.1-0.7c1.1-0.9,2.2-1.7,3.3-2.6c2.2-2,4.2-4.6,6.2-7.6
		c1.9-3.3,3.4-6.9,4.3-10.2c0.3-1.3,0.5-2.7,0.7-4.1c0.2-2.1,0.5-6.1,1.1-10.4c0.1-1.7,0.2-3.1,0.3-3.9c0.1-1.6,1-4.5,2.1-7.9l0,0
		c0.9-3,2.9-9.2,5.2-15.7v-0.1c0.4-1.6,1.1-3.4,1.9-5.4c2.3-6.6,4.6-12.7,6-15.4c0.8-1.5,1.4-2.7,1.8-3.5c0.2-0.5,0.3-0.9,0.4-1.2
		c0.9-3.9,0.1-10,0.4-12.5s-1.5-10.2-2.7-16.2s7.8-6.8,10-7.2c2.2-0.3,42.1,1,42.7,1v-10.7C127.1,125.8,104.5,126.5,100.2,124.6z"/>
</g>
<g>
	<path id="Right_Upper_C8" class="st1chart myotome" fill="#B5B5B5"  d="M89.9,191.1c-0.6,1.8-1.3,3.7-1.9,5.5c-1.3,4.5-3.5,10.7-5.2,15.8
		c-1,3.4-1.8,7.8-2.4,11.9c-0.2,2.9-0.5,6.6-1.1,10.4l0,0c-0.1,1.2-0.3,2.6-0.7,4.1c-0.7,3.1-1.5,5.9-2.7,7.8
		c-0.5,0.8-1,1.6-1.5,2.4c-1.8,3.1-3.9,5.8-6.2,7.6c0,0-0.1,0-0.1,0.1c-1.1,1-2.2,1.9-3.3,2.6c-2.2,1.8-4.6,3.6-7.9,5.8
		c-1,1-1.9,1.8-2.4,2.4c0.6,3.2,1.5,9.4-0.6,16c-1.8,5.9-6.4,8.2-8.6,13.9c-0.3,0.8-0.6,1.6-0.9,2.4c1.1,0.5-3.2,14.1-1.7,17.9
		c0.9,1.4,3.4,0.9,4.5-2c2.2-5.4,3.7-13,5-15.5c1-1.5-1.4,11.1,0.3,12.2c2.1,1.4,3.4-3.9,3.8-5.3c2.8-10.4,5.1-19.3,6.8-29.9
		c1.1-6.7,2-12.2,6-17.4c17.8-22.8,19.2-37.3,22.6-58c1.6-10,3.9-19.6,6.3-29.4c0-0.2-0.2-0.1-0.3,0
		C94.8,176.9,92.5,184.4,89.9,191.1z"/>
</g>
<g>
	<path id="Right_Upper_C7" class="st1chart myotome" fill="#B5B5B5"  d="M53.5,268.6c-0.7,5.4,0.1,10.1-1.4,13.9c-2.7,6.8-13.5,10.6-20.6,12.4
		c-0.8,3.3-1.6,6.5-2.1,8.4c-0.6,2.9-1.5,7-1.7,9.9c0,2.2,3.3,2.7,4.5,0c1.8-5,4.2-15.7,4.9-15.2c0.3,0.7-2.8,14.4-1.2,19.2
		c0.5,1.6,2.6,2,3.8-0.5c0.6-0.9,1.4-4.4,2.2-8c0.2-1,0.4-2.1,0.7-3.2c0.6-2.9,1.1-5.3,1.3-5.6c0.2-0.1,0.3-0.1,0.4-0.1
		c0.3-0.8,0.6-1.6,0.9-2.4c2.2-5.6,6.8-8,8.6-13.9c2.1-6.6,1.1-12.7,0.6-16C54.4,267,53.6,268.2,53.5,268.6z"/>
</g>
<g>
	<path id="Right_Upper_C6" class="st1chart myotome" fill="#B5B5B5"  d="M52.2,282.4c4.3-10.7-2.8-29.9,3.3-43.8c5.4-12.3,7.8-24.4,8.8-34.7
		c-0.4,1.5-0.8,3-1.4,4.5c-4.9,13.3-9.2,31.3-12.4,45.3c-2.2,9.8-3.3,12.6-6.5,15.8c-1,1-7.6,3.6-13.1,7.4
		c-6.6,4.5-12,10.8-9.9,13.3c1.8,2.1,8.7-4.9,12.8-6.6c0.6-0.1-0.8,5.7-2.2,11.2C38.6,293,49.5,289.2,52.2,282.4z"/>
	<path id="Right_Upper_C6" class="st1chart myotome" fill="#B5B5B5"  d="M73.2,152.6c0.3-5.7-0.7-12.2-0.8-20.8c-0.2-8.7,2.3-11.8,3.7-15
		c0.5-1.3,1.3-3.2,2-5c-6.9,7-9.6,16.2-8.9,28c0.6,10.1,1.2,16.5-1.1,27.8c-0.3,1.6-0.6,3.2-0.8,4.8c0.1-0.1,0.2-0.2,0.3-0.2
		C72.2,168.4,72.9,158.3,73.2,152.6z"/>
</g>
<g>
	<path id="Right_Upper_C5" class="st1chart myotome" fill="#B5B5B5"  d="M53.9,268c0,0,0-10.7,4.3-20s11-26.5,12.2-35.6c1.2-9.2,1.8-29.7,4.2-39.5
		c2.3-9.8,5.5-14.8,4.2-20.7c-1.3-5.8-4.2-15.5-0.8-21.5c3.3-6,11.1-10.8,22.3-6c2.9,1.2,21.1,0.3,49.4,0.8v-9.9
		c-0.2,0-0.3,0.1-0.5,0.1c-4,0.2-5.9-4.3-10.6-6.3c-3.3-1.4-9.9-1.5-15.6-1.3c-5.7,0.2-15.3,2.1-20.8,0c-2.8-1-3.9-4.4-4.3-7.5
		c-1,0.4-1.9,0.8-2.9,1.1c-7.2,2.6-12.7,6-16.8,10.1c-0.7,1.8-1.5,3.7-2,5c-1.3,3.2-3.9,6.3-3.7,15s1.2,15.2,0.8,20.8
		c-0.3,5.7-1,15.8-5.6,19.5c-0.1,0.1-0.2,0.2-0.3,0.2c-1.3,10.7-0.2,20.8-3,31.5c-1.1,10.3-3.5,22.4-8.8,34.7
		c-3.8,8.7-2.4,19.5-2,29L53.9,268z"/>
</g>
<g>
	<path id="Left_Lower_S1" class="st1chart myotome" fill="#B5B5B5"  d="M179.7,575.3c0,0.4,0.1,0.9,0.1,1.4c2.4-2.2,3.9-6,2.4-10.9
		c-0.5-1.6-0.9-3.3-1.7-4.7c-7.7-14.1-7.7-29.7-6.7-44.7c0.8-10.6,3.2-21.1,5.7-31.6c-1.3,0.7-2.5,1.7-2.8,2.8
		c-0.8,2.9-3.9,9.2-5.1,20.7c-1.2,11.5-2.5,32.2-1.2,38s3.1,7.7,5.2,12C177.7,562.7,179.5,570.7,179.7,575.3z"/>
</g>
<g>
	<path id="Left_Lower_L5" class="st1chart myotome" fill="#B5B5B5"  d="M158.9,572.8c1.2,3.4,1.9,5.5,2,8c1.2-0.5,2.1-1.6,2.5-3.4c2.7,2.5,6,2.8,7.7-0.3
		c1.9,2.4,6,2,8.8-0.6c-0.1-0.5-0.1-1-0.1-1.4c-0.1-4.7-2-12.7-4.1-17c-2.2-4.3-3.9-6.2-5.2-12s0-26.5,1.2-38
		c1.1-11.5,4.3-17.9,5.1-20.7c0.3-1.1,1.5-2,2.8-2.8c0.7-3.3,1.5-6.6,2.2-9.9c2.4-11.1,5.9-22.1,7.7-33.4c1-5.5-0.4-11.6-1.2-17.3
		c-1.9-13.5,0.7-26.5,3.6-39.5c0.4-1.7,0.7-3.3,1.1-5c-1.7,2-3.3,3.9-3.7,4.4c-0.9,1.2-5.8,8.1-7.3,11c-1.1,2.2-0.8,6.5,0,7.8
		c0.7,1.4,1.4,4.1,1.3,5.2s0.4,19,0.2,20.7s-2.1,12.2-3.6,17.2s-11.5,29.4-13.3,35.7c-1.9,6.3-5,20.3-5.3,25.3s-0.1,21.2,0,28.7
		c0,7.5,0.2,17.5-1.3,20.9C158.2,560.4,157.4,568.7,158.9,572.8z"/>
</g>
<g>
	<path id="Left_Lower_L4" class="st1chart myotome" fill="#B5B5B5"  d="M155.1,483.6c-0.1,2-0.4,3.6-0.8,4.8c1.7,13.5,0.7,27.1-1.6,40.7
		c-1.5,8.3-2.4,17,0.3,25.5c0.6,2-0.3,4.5-0.3,6.8c0,4.7-1.4,9.6-0.7,14.2c0.6,4,5.5,7.1,8.7,5.7c-0.2-2.5-0.8-4.6-2-8
		c-1.5-4.3-0.6-12.6,1.2-16.6c1.5-3.3,1.4-13.4,1.3-20.9s-0.3-23.7,0-28.7s3.5-19,5.3-25.3c1.9-6.4,11.8-30.7,13.3-35.7
		s3.4-15.5,3.6-17.2c0.1-1.7-0.3-19.6-0.2-20.7s-0.5-3.9-1.3-5.2c-0.8-1.4-1.1-5.7,0-7.8c1.6-2.9,6.5-9.8,7.3-11
		c0.4-0.5,2-2.4,3.7-4.4c4.5-20.4,8.4-41.9,9.4-62.7c-1.7,2.7-10.3,19.5-16.5,29s-15.7,25.1-17.7,30.8s-4.8,11.2-6.5,19
		s0,15.2,0.8,22.6c0.8,7.3,0.5,22.2-0.5,25.5s-6,12-6.7,16.5S155.8,476.4,155.1,483.6z"/>
</g>
<g>
	<path id="Left_Lower_L3" class="st1chart myotome" fill="#B5B5B5"  d="M171.3,319.5c-14.9,4.3-16.7,10.3-20.9,12.1c0.5,17.7,1.8,35.2,2.7,53.2
		c0.4,8.1,1.3,16.3,3.3,24.2c2.5,10,2.4,19.8-1.3,29c-5.6,14-5.1,27.7-2.2,42.1c0.5,2.6,1,5.2,1.3,7.9c0.3-1.3,0.6-2.8,0.8-4.8
		c0.6-7-0.7-18.3,0-22.8s5.7-13.2,6.7-16.5s1.3-18.1,0.5-25.5c-0.8-7.3-2.5-14.8-0.8-22.6s4.5-13.3,6.5-19
		c2-5.6,11.5-21.3,17.7-30.8s14.8-26.3,16.5-29c0.4-6.4,0.1-11.8-0.1-18.3c-0.1-1.9,0.2-4.3,0.1-6.2c-5.4,6.5-9.9,10.5-14.2,14.8
		C183.6,311.7,175.4,318.5,171.3,319.5z"/>
</g>
<g>
	<path id="Left_Lower_L2" class="st1chart myotome" fill="#B5B5B5"  d="M169.4,294.5c-10.2,9-14.7,13.3-19.2,14.9c0.1,0.8,0.2,1.7,0.2,2.3
		c-0.1,6.7,0,13.4,0.2,20.1c4.2-1.8,6-7.7,20.9-12.1c4-1.2,12.1-8,16.5-12.4c4.3-4.4,8.8-8.3,14.2-14.8c-0.4-7.1-0.7-13.6-1.5-20.6
		c-0.5,0.4-1,0.8-1.5,1.2c-6.2,5.5-9.9,9.4-15,13.2C180,289.5,172.5,291.7,169.4,294.5z"/>
</g>
<g>
	<path id="Left_Upper_T1" class="st1chart myotome" fill="#B5B5B5"  d="M148.6,125.1v10.7c0.6,0,2,0,2.3,0c3.5-0.2,40.1-1.3,42.3-1
		c2.2,0.4,11.2,1.2,10,7.2s-3,13.7-2.7,16.2s-0.5,8.6,0.4,12.5c0.1,0.3,0.2,0.7,0.4,1.2c0.4,0.8,1,2,1.8,3.5c1.4,2.7,3.7,8.8,6,15.4
		c0.8,2,1.5,3.8,1.9,5.4v0.1c2.3,6.5,4.3,12.7,5.2,15.7l0,0c1.1,3.4,2,6.3,2.1,7.9c0.1,0.8,0.2,2.2,0.3,3.9
		c0.6,4.3,0.9,8.3,1.1,10.4c0.2,1.4,0.4,2.8,0.7,4.1c0.9,3.3,2.4,6.9,4.3,10.2c2,3,4,5.6,6.2,7.6c1.1,0.9,2.2,1.7,3.3,2.6
		c0.4,0.3,0.7,0.5,1.1,0.7c2.5,1.4,4.9,3.5,6.8,5.2c0.7,0.6,1.6,1.1,2.5,1.7c0,0.2-0.1,0.4-0.1,0.7c0.3,0.3,0.5,0.5,0.6,0.6
		c0,0,0.1-10.7-4.3-20s-11-26.4-12.2-35.6c-1.2-9.2-1.9-29.7-4.2-39.5c-2.4-9.9-5.5-14.9-4.2-20.7s4.1-15.5,0.8-21.5
		s-11.2-10.8-22.3-6C194.4,126.2,169.9,125.5,148.6,125.1z"/>
</g>
<g>
	<path id="Left_Upper_C8" class="st1chart myotome" fill="#B5B5B5"  d="M201.2,172.1c-0.1-0.1-0.3-0.2-0.3,0c2.4,9.8,4.7,19.4,6.3,29.4
		c3.4,20.7,4.8,35.2,22.6,58c4,5.2,4.9,10.7,6,17.4c1.7,10.6,4,19.5,6.8,29.9c0.4,1.4,1.7,6.7,3.8,5.3c1.7-1.1-0.7-13.7,0.3-12.2
		c1.3,2.5,2.8,10.1,5,15.5c1.1,2.9,3.6,3.4,4.5,2c1.5-3.8-2.8-17.4-1.7-17.9c-0.3-0.8-0.6-1.6-0.9-2.4c-2.2-5.7-6.8-8-8.6-13.9
		c-2.1-6.6-1.2-12.8-0.6-16c-0.5-0.6-1.4-1.4-2.4-2.4c-3.3-2.2-5.7-4-7.9-5.8c-1.1-0.7-2.2-1.6-3.3-2.6c0-0.1-0.1-0.1-0.1-0.1
		c-2.3-1.8-4.4-4.5-6.2-7.6c-0.5-0.8-1-1.6-1.5-2.4c-1.2-1.9-2-4.7-2.7-7.8c-0.4-1.5-0.6-2.9-0.7-4.1l0,0c-0.6-3.8-0.9-7.5-1.1-10.4
		c-0.6-4.1-1.4-8.5-2.4-11.9c-1.7-5.1-3.9-11.3-5.2-15.8c-0.6-1.8-1.3-3.7-1.9-5.5C206.4,184.1,204.1,176.6,201.2,172.1z"/>
</g>
<g>
	<path id="Left_Upper_C7" class="st1chart myotome" fill="#B5B5B5"  d="M244.5,267.2c-0.5,3.3-1.5,9.4,0.6,16c1.8,5.9,6.4,8.3,8.6,13.9
		c0.3,0.8,0.6,1.6,0.9,2.4c0.1,0,0.2,0,0.4,0.1c0.2,0.3,0.7,2.7,1.3,5.6c0.3,1.1,0.5,2.2,0.7,3.2c0.8,3.6,1.6,7.1,2.2,8
		c1.2,2.5,3.3,2.1,3.8,0.5c1.6-4.8-1.5-18.5-1.2-19.2c0.7-0.5,3.1,10.2,4.9,15.2c1.2,2.7,4.5,2.2,4.5,0c-0.2-2.9-1.1-7-1.7-9.9
		c-0.5-1.9-1.3-5.1-2.1-8.4c-7.1-1.8-17.9-5.6-20.6-12.4c-1.5-3.8-0.7-8.5-1.4-13.9C245.3,267.9,244.5,266.7,244.5,267.2z"/>
</g>
<g>
	<path id="Left_Upper_C6" class="st1chart myotome" fill="#B5B5B5"  d="M267.3,294.5c-1.4-5.5-2.8-11.3-2.2-11.2c4.1,1.7,11,8.7,12.8,6.6
		c2.1-2.5-3.3-8.8-9.9-13.3c-5.5-3.8-12.1-6.4-13.1-7.4c-3.2-3.2-4.3-6-6.5-15.8c-3.2-14-7.5-32-12.4-45.3c-0.6-1.5-1-3-1.4-4.5
		c1,10.3,3.4,22.4,8.8,34.7c6.1,13.9-1,33.1,3.3,43.8C249.4,288.9,260.3,292.7,267.3,294.5z"/>
	<path id="Left_Upper_C6" class="st1chart myotome" fill="#B5B5B5"  d="M231.3,171.9c0.1,0,0.2,0.1,0.3,0.2c-0.2-1.6-0.5-3.2-0.8-4.8
		c-2.3-11.3-1.7-17.7-1.1-27.8c0.7-11.8-2-21-8.9-28c0.7,1.8,1.5,3.7,2,5c1.4,3.2,3.9,6.3,3.7,15c-0.1,8.6-1.1,15.1-0.8,20.8
		C226,158,226.7,168.1,231.3,171.9z"/>
</g>
<g>
	<path id="Left_Upper_C5" class="st1chart myotome" fill="#B5B5B5"  d="M245.3,267.2c0.4-9.5,1.8-20.3-2-29c-5.3-12.3-7.7-24.4-8.8-34.7
		c-2.8-10.7-1.7-20.8-3-31.5c-0.1,0-0.2-0.1-0.3-0.2c-4.6-3.7-5.3-13.8-5.6-19.5c-0.4-5.6,0.6-12.1,0.8-20.8s-2.4-11.8-3.7-15
		c-0.5-1.3-1.3-3.2-2-5c-4.1-4.1-9.6-7.5-16.8-10.1c-1-0.3-1.9-0.7-2.9-1.1c-0.4,3.1-1.5,6.5-4.3,7.5c-5.5,2.1-15.1,0.2-20.8,0
		s-12.3-0.1-15.6,1.3c-4.7,2-6.6,6.5-10.6,6.3c-0.2,0-0.3-0.1-0.5-0.1v9.9c28.3-0.5,46.5,0.4,49.4-0.8c11.2-4.8,19,0,22.3,6
		c3.4,6,0.5,15.7-0.8,21.5c-1.3,5.9,1.9,10.9,4.2,20.7c2.4,9.8,3,30.3,4.2,39.5c1.2,9.1,7.9,26.3,12.2,35.6s4.3,20,4.3,20
		L245.3,267.2z"/>
</g>
<path class="st2e" d="M138.9,303.1c-0.2,1-0.3,1.9-0.3,2.7c0.1,1.5,1.9,6,5.6,5.2s2.1-1.2,4.6-1.2s5.3,2.6,8-0.5c1-1.1,1.4-3,1.4-5.2
	"/>
<path class="st0chart" d="M153.2,299.7c1.8,10.2-11.7,8.4-9.1,0c0-4.8,0-18.7,0-18.7h9.1C153.2,281,153.2,293.8,153.2,299.7z"/>
<path class="st2e" d="M149.6,80.3c8.3,0.1,14.7-6.5,18.6-11.4c0.3-2.2,0.7-4.5,1.2-6.8c7.3-0.8,5.9-17.5,3-17.4
	c-0.3,0-0.5-0.1-0.5-0.4c0.1-1,0.1-3.1,0.1-4.3c-0.5-14.1-7.9-22.5-20.2-23c-0.8,0-1.6-0.3-2.4-0.3c-0.8,0-1.4-0.1-2.2-0.1
	c-12.3,0.5-19.8,9.3-20.3,23.4c0,1.2,0,3.3,0.1,4.3c0,0.3-0.2,0.4-0.5,0.4c-2.9-0.1-4.3,16.6,3,17.4c0.5,2.3,0.9,4.6,1.2,6.8
	C134.6,73.8,141.3,80.4,149.6,80.3z"/>
<path class="st3e" d="M111.2,164.8c0.2,0,0.5,0,0.7,0c6.5,0.5,12.7-1,19-2.1c4.3-0.8,8.5-1.7,12.8-2.2c6.6-0.7,13.2,0,19.7,1.5
	c6.9,1.6,13.8,3.5,21,3c0.3,0,0.7,0.3,1,0.4c-1.4,0.5-2.8,0.6-4.1,0.6c-3.5,0-7-0.6-10.4-1.3c-5-1-10-1.7-15-2.8
	c-3.9-0.8-7.8-0.8-11.6-0.3c-6.7,0.9-13.5,2.3-20.2,3.5c-4,0.6-8,1.1-12.1,0.8c-0.4-0.1-0.8-0.2-1.4-0.4
	C111,165.1,111,164.9,111.2,164.8z"/>
<path d="M115.6,411.8c0.2,0.7,0.5,1.2,0.5,1.6c0,1.9,0.7,3.7,1.6,5.3c1.4,2.7,3.8,4.3,6.8,2.8c1.4-0.7,2.6-1.5,3.3-3
	c0.2-0.5,0.8-0.7,1.2-1.1c0.1,0.1,0.3,0.2,0.4,0.3c-0.2,0.6-0.3,1.4-0.8,1.9c-1.6,1.7-3.2,3.3-5.7,3.8c-1.2,0.2-2.4,0-3.4-0.8
	c-1.6-1.3-2.9-2.6-3.6-4.6c-0.7-1.8-1.1-3.5-0.8-5.5C115.3,412.4,115.4,412.3,115.6,411.8z"/>
<path d="M180.6,411.8c-0.3,0.8-0.6,1.3-0.6,1.9c-0.1,2.2-0.8,4.2-1.8,6c-1.6,3-4.3,4.9-7.8,3.2c-1.6-0.8-3-1.7-3.7-3.4
	c-0.2-0.5-0.9-0.8-1.4-1.2c-0.2,0.1-0.3,0.2-0.5,0.3c0.3,0.7,0.4,1.6,0.9,2.1c1.8,1.9,3.7,3.8,6.4,4.3c1.4,0.2,2.7,0.1,3.8-0.9
	c1.8-1.4,3.3-3,4.1-5.3c0.7-2,1.3-4,0.9-6.2C180.9,412.5,180.8,412.3,180.6,411.8z"/>
<path d="M223.8,200.3c0.2,0.3,0.5,0.7,0.5,1c0.1,2.1-0.4,4.1-1.8,5.8c-1,1.3-1.9,1.6-3.2,0.6c-1.4-1-2.9-2.1-3.8-3.5
	c-1.8-3-3.4-6.1-4.8-9.3c-0.9-1.9-1.3-3.9-1.9-5.9c-0.1-0.4-0.1-0.8-0.1-1.3c1.1,0.5,1.1,1.4,1.4,2.1c1.5,3.9,3,7.8,4.6,11.5
	c0.9,2,2.1,3.8,4,5c2,1.3,3.1,1,4-1.3c0.3-0.8,0.4-1.6,0.5-2.4c0.1-0.7,0.1-1.5,0.2-2.2C223.5,200.4,223.6,200.3,223.8,200.3z"/>
<path d="M87.3,191.4c0.1,0.8,0.2,1.1,0.1,1.4c-1.2,4.3-2.7,8.6-4.9,12.5c-1.2,2.2-2.6,4.1-4.6,5.6c-2.1,1.6-3.5,1.3-4.7-1
	c-0.9-1.7-1.6-3.6-0.6-6.1c0.3,0.9,0.4,1.3,0.5,1.7c0.3,1.3,0.5,2.8,1,4c0.6,1.5,1.5,1.8,2.9,0.9c1.1-0.7,2.2-1.7,3-2.8
	c2.6-3.5,4.1-7.6,5.5-11.7C85.9,194.7,86,193.1,87.3,191.4z"/>
<path class="st4e" d="M148.8,215.3c2.5,0.2,2.8,3.6,3.1,5.5c0.2,1.1-1.6,2.2-3.1,2.2s-3.1-0.9-3.1-2.2
	C145.7,218.9,147.2,215.2,148.8,215.3z M149.1,218.6c-0.3-0.2-0.9-0.1-1.2,0.1c-1,0.7-1,3.5,1.2,3.2
	C150.2,221.7,150.2,219.3,149.1,218.6z"/>
<path d="M141.3,66.1c1.6-0.7,3.2-1.2,4.9-1.4c0.5-0.1,1.1,0.1,1.6,0.3c1.1,0.4,2.1,0.3,3.1,0.1c0.8-0.2,1.7-0.4,2.5-0.3
	c1.3,0.2,2.5,0.8,3.9,1.2c-0.3,0.4-0.4,0.7-0.6,0.8c-1.7,0.9-3.5,1.7-5.2,2.6c-1.4,0.7-2.8,0.7-4.3,0c-1.8-0.9-3.7-1.7-5.5-2.6
	C141.7,66.7,141.6,66.4,141.3,66.1z M153.7,66.5L153.7,66.5c0.1-0.5,0.1-0.9-0.6-0.9c-0.6,0-1.2,0-1.8,0.2c-1.2,0.4-2.4,0.4-3.6,0
	c-0.8-0.2-1.6-0.8-2.2,0.4c-0.1,0.1-0.6,0.1-0.8,0.1c-0.3,0-0.6,0.1-0.9,0.1c1.2,0.9,2.4,1.4,3.6,2c1.4,0.7,2.8,0.7,4.2,0
	c1.2-0.6,2.4-1.2,3.6-1.8c0-0.1-0.1-0.3-0.1-0.4C154.7,66.5,154.2,66.5,153.7,66.5z"/>
<path d="M152.7,56.6c0.1-0.5,2.7,0.7,1.8,3c-0.2,0.5-2,1.2-3,0.4c-1,0.5-1.2,0.9-2.5,1.1c-1.2,0.1-2.4-0.5-3.2-1.1
	c-0.6,0.3-1.2,0.5-1.9-0.4s-0.4-2.4,1.4-3.7c-0.1,0.9-1.7,2.7-0.7,3.4c1.5,0.9,1.1-1,1.9-0.1c1.6,2.1,3.2,1.1,4.3,0.1
	c0.2-0.1,0.5-0.5,0.7-0.6c1.6,1,2.5,0.6,2.4-0.2C153.8,57.2,152.7,57.1,152.7,56.6z"/>
<path d="M146.4,49.9c0.1-1.3,0.1-2.5,0.2-3.8c0-0.5,0-1,0.7-1.1l0,0c-0.6,0.8-0.1,1.8-0.2,2.7C147,48.4,147.3,49.3,146.4,49.9
	L146.4,49.9z"/>
<path d="M151.1,49.5c-0.1-1.3-0.1-2.5-0.2-3.8c0-0.5,0-1-0.7-1.1l0,0c0.6,0.8,0.1,1.8,0.2,2.7C150.6,48.1,150.2,49,151.1,49.5
	L151.1,49.5z"/>
<path d="M150.4,67.5c-0.5,0-1,0-1.5,0c0.5-0.6,1-0.5,1.5-0.3C150.4,67.3,150.4,67.4,150.4,67.5z"/>
<path d="M153.7,66.5c-0.6,0.6-1.3,0.7-2.1,0.4c0-0.1,0-0.2,0-0.3C152.3,66.6,153,66.6,153.7,66.5L153.7,66.5z"/>
<path d="M146.6,66.7c0.3,0,0.7,0,1,0c0,0.1,0,0.1,0,0.2c-0.2,0-0.3,0.1-0.5,0.1s-0.4-0.1-0.6-0.1C146.6,66.8,146.6,66.8,146.6,66.7z
	"/>
<path d="M152.7,41.9c2-1.6,5.4-2.5,8.2-2.1c0.8,0.1,4.1,1.1,5.5,3.3c0,0.1-0.1,0.2-0.1,0.3c-0.1,0-0.2,0.1-0.3,0.1
	c-1-1.3-2.9-2.1-4.5-2.3c-1.3-0.2-2.5,0.5-3.6,0.7c-1.2,0.2-2.4-0.1-3.6,0.2C153.8,42.1,153.4,42.6,152.7,41.9z"/>
<path d="M154.8,47.5c0.9-1.5,2.1-3.1,4.1-2.8c0.6,0.1,3.3,0.4,4.8,2.3c0.3,0.3-0.5,0-0.4,0c-1.1-0.8-2.9-1.3-4-1.4
	c-1.8-0.3-3,0.4-4,2.3C155.1,48.1,154.6,47.9,154.8,47.5z"/>
<path d="M155.2,48.3c0,0,0.5-1.6,2.1-2.3c1-0.5,3.4-0.3,4.4,0.3s1.5,1.3,1.6,1.4c0.1,0.2-0.7,0.4-0.9,0.5c-0.4,0.3-0.7,0.6-1.7,0.9
	s-2.9,0.2-3,0.1c-0.1-0.1,0.1-0.1,1-0.2s1.8-0.3,2.2-0.6c0.5-0.3,1.3-0.7,1.3-0.7s-0.8-0.7-1.1-0.9c-0.7-0.3-2.4-0.5-3.1-0.3
	C156.2,47.4,155.8,48.9,155.2,48.3z"/>
<path d="M161.4,46.9c0,0.9-0.8,1.7-1.8,1.7s-1.8-0.8-1.8-1.7c-0.1-0.1,0.5-0.4,0.6-0.3c-0.1,1.2,0.6,1.5,1.2,1.5s1.3-0.4,1.4-1.4
	C161,46.5,161.4,46.8,161.4,46.9z"/>
<path d="M143.9,41.9c-2-1.6-5.4-2.5-8.2-2.1c-0.8,0.1-4.1,1.1-5.5,3.3c0,0.1,0.1,0.2,0.1,0.3c0.1,0,0.2,0.1,0.3,0.1
	c1-1.3,2.9-2.1,4.5-2.3c1.3-0.2,2.5,0.5,3.6,0.7c1.2,0.2,2.4-0.1,3.6,0.2C142.8,42.2,143.2,42.7,143.9,41.9z"/>
<path d="M141.8,47.5c-0.9-1.5-2.1-3.1-4.1-2.8c-0.6,0.1-3.3,0.4-4.8,2.3c-0.3,0.3,0.5,0,0.4,0c1.1-0.8,2.9-1.3,4-1.4
	c1.8-0.3,3,0.4,4,2.3C141.6,48.2,142,48,141.8,47.5z"/>
<path d="M141.4,48.4c0,0-0.5-1.6-2.1-2.3c-1-0.5-3.4-0.3-4.4,0.3s-1.5,1.3-1.6,1.4c-0.1,0.2,0.7,0.4,0.9,0.5
	c0.4,0.3,0.7,0.6,1.7,0.9c0.9,0.3,2.9,0.2,3,0.1c0.1-0.1-0.1-0.1-1-0.2c-0.9-0.1-1.8-0.3-2.2-0.6c-0.5-0.3-1.3-0.7-1.3-0.7
	s0.8-0.7,1.1-0.9c0.7-0.3,2.4-0.5,3.1-0.3C140.4,47.4,140.9,49,141.4,48.4z"/>
<path d="M135.3,46.9c0,0.9,0.8,1.7,1.8,1.7s1.8-0.8,1.8-1.7c0.1-0.1-0.5-0.4-0.6-0.3c0.1,1.2-0.6,1.5-1.2,1.5s-1.3-0.4-1.4-1.4
	C135.6,46.6,135.2,46.8,135.3,46.9z"/>
<path class="st5e" d="M170.1,51.9c0,0,0.4-1.4,0.9-2.6c0.5-1.1,1.5-1.7,1.8-1.7"/>
<path class="st5e" d="M171.8,51c0,0,0.3,1.1,0.4,2.1s0,1.8-0.2,2"/>
<path class="st5e" d="M172.2,56c0,0-1.1,0.6-1.5,1.4c-0.5,0.8-0.8,1.1-1,1.3"/>
<path class="st5e" d="M169.9,53.3c0,0,1.1,2,0.2,3.2c-0.5,0.7-0.6,1.7-0.9,2"/>
<path class="st5e" d="M128.1,51.3c0,0-0.3-1.5-0.8-2.7s-1-1.9-1.3-2"/>
<path class="st5e" d="M126.4,49.7c0,0,0,1.4-0.2,2.4s0.3,2.5,0.9,3"/>
<path class="st5e" d="M128,52.3c0,0-0.2,2,0.1,2.4c0.3,0.5,0.9,1.4,0.9,2.3c0,0.9-0.1,1.4-0.1,1.4s-0.9-2-1.3-2"/>
<path class="st5e" d="M146.9,73c0,0,3.4-0.9,4.9-0.1"/>
<path class="st6e" d="M149.7,310.4c-1.1-0.1-1.7-0.1-1.7,0.9c0.3,24.7-1.7,48.5-2.9,73.3c-0.4,8.1-1.3,16.3-3.3,24.2
	c-2.5,10-2.3,19.7,1.3,29c5.5,14,5.1,27.7,2.2,42.1c-3.3,16.1-2.5,32.4,0.3,48.7c1.4,8.4,2.4,17-0.3,25.5c-0.6,2,0.2,4.5,0.3,6.8
	c0,4.7,1.5,9.6,0.7,14.2c-0.9,5.4-9.6,9.2-11.2,2.3c-2.7,2.4-6,2.7-7.7-0.3c-3.6,4.5-14.5-0.8-11.2-11.4c0.5-1.6,0.9-3.2,1.7-4.7
	c7.6-14.1,7.7-29.6,6.7-44.7c-0.9-14-4.9-27.7-7.9-41.5c-2.4-11.2-5.8-22.2-7.7-33.4c-0.9-5.6,0.4-11.6,1.2-17.3
	c1.9-13.5-0.7-26.5-3.6-39.5c-6.4-28.3-11.3-56.6-10.3-86c0.7-20.4,3.1-40.4,7.7-60.1c0.2-0.7,0.2-1.3,0.2-2
	c0.3-16.6,1-33.2,0.5-49.8c-0.2-5.9-3.1-11.7-4.8-17.5c-0.7,0-0.6,0-1.3,0c-2.7,10.9-5.1,21.6-6.8,32.6c-3.3,20.6-4.8,35.1-22.6,58
	c-4,5.2-5,10.8-6,17.4c-1.7,10.6-4.1,19.4-6.8,29.9c-0.4,1.4-1.7,6.7-3.8,5.3c-1.7-1.1,0.7-13.7-0.3-12.2c-1.2,2.5-2.8,10.1-5,15.5
	c-1.1,3-3.6,3.5-4.5,2c-1.6-4.1,3.6-19.5,1.4-17.8c-0.6,0.9-2.9,14.9-4.2,16.8c-1.3,2.5-3.4,2.1-3.8,0.5c-1.5-4.8,1.5-18.5,1.2-19.2
	c-0.7-0.6-3.1,10.2-4.9,15.2c-1.3,2.8-4.5,2.3-4.5,0c0.1-2.9,1-7.1,1.7-9.9c1.1-5.1,5.2-19.7,4.2-19.5c-4.1,1.7-11,8.7-12.8,6.6
	c-2.1-2.5,3.3-8.8,9.9-13.3c5.5-3.8,12.2-6.5,13.1-7.4c3.3-3.3,4.3-6,6.5-15.8C53.7,240,58.1,222,63,208.6c5.1-14,2.4-26.9,5.2-40.8
	c2.3-11.3,1.7-17.7,1.1-27.8c-1.1-18.8,6.6-31.1,25.7-38.1c10.2-3.7,19.8-9.6,29-15.6c8.9-5.8,7.6-14.1,5.6-23.9
	c-7.3-0.8-5.9-17.4-3-17.4c0.3,0,0.5-0.2,0.5-0.4c0-1-0.1-3.2-0.1-4.3c0.5-14.1,8-22.9,20.3-23.4c0.8,0,1.6,0,2.3,0"/>
<path class="st6e" d="M149.6,16.9c0.8,0,1.5,0,2.3,0c12.3,0.5,19.8,8.9,20.3,23c0,1.1-0.1,3.3-0.1,4.3c0,0.2,0.2,0.4,0.5,0.4
	c2.9,0,4.3,16.6-3,17.4c-2,9.8-3.3,18.1,5.6,23.9c9.2,6,18.8,11.9,29,15.6c19.1,7,26.8,19.3,25.7,38.1c-0.6,10.1-1.2,16.5,1.1,27.8
	c2.8,13.9,0.1,26.8,5.2,40.8c4.9,13.4,9.3,31.4,12.4,45.3c2.2,9.8,3.2,12.5,6.5,15.8c0.9,0.9,7.6,3.6,13.1,7.4
	c6.6,4.5,12,10.8,9.9,13.3c-1.8,2.1-8.7-4.9-12.8-6.6c-1-0.2,3.1,14.4,4.2,19.5c0.7,2.8,1.6,7,1.7,9.9c0,2.3-3.2,2.8-4.5,0
	c-1.8-5-4.2-15.8-4.9-15.2c-0.3,0.7,2.7,14.4,1.2,19.2c-0.4,1.6-2.5,2-3.8-0.5c-1.3-1.9-3.6-15.9-4.2-16.8c-2.2-1.7,3,13.7,1.4,17.8
	c-0.9,1.5-3.4,1-4.5-2c-2.2-5.4-3.8-13-5-15.5c-1-1.5,1.4,11.1-0.3,12.2c-2.1,1.4-3.4-3.9-3.8-5.3c-2.7-10.5-5.1-19.3-6.8-29.9
	c-1-6.6-2-12.2-6-17.4c-17.8-22.9-19.3-37.4-22.6-58c-1.7-11-4.1-21.7-6.8-32.6c-0.7,0-0.6,0-1.3,0c-1.7,5.8-4.6,11.6-4.8,17.5
	c-0.5,16.6,0.2,33.2,0.5,49.8c0,0.7,0,1.3,0.2,2c4.6,19.7,7,39.7,7.7,60.1c1,29.4-3.9,57.7-10.3,86c-2.9,13-5.5,26-3.6,39.5
	c0.8,5.7,2.1,11.7,1.2,17.3c-1.9,11.2-5.3,22.2-7.7,33.4c-3,13.8-7,27.5-7.9,41.5c-1,15.1-0.9,30.6,6.7,44.7
	c0.8,1.5,1.2,3.1,1.7,4.7c3.3,10.6-7.6,15.9-11.2,11.4c-1.7,3-5,2.7-7.7,0.3c-1.6,6.9-10.3,3.1-11.2-2.3c-0.8-4.6,0.7-9.5,0.7-14.2
	c0.1-2.3,0.9-4.8,0.3-6.8c-2.7-8.5-1.7-17.1-0.3-25.5c2.8-16.3,3.6-32.6,0.3-48.7c-2.9-14.4-3.3-28.1,2.2-42.1
	c3.6-9.3,3.8-19,1.3-29c-2-7.9-2.9-16.1-3.3-24.2c-1.2-24.8-4-48.6-3.7-73.3c0-0.8-1.5-0.9-1.7-0.9"/>
<text transform="matrix(1 0 0 1 155.8318 89.4877)" class="st7 st8 st9">C3</text>
<text transform="matrix(1 0 0 1 159.245 104.6544)" class="st7 st8 st9">C4</text>
<text transform="matrix(1 0 0 1 163.7517 120.4044)" class="st8 st9">C5</text>
<text transform="matrix(1 0 0 1 163.6844 132.6544)" class="st8 st9">T1</text>
<text transform="matrix(1 0 0 1 213.6158 180.9878)" class="st8 st9">T1</text>
<text transform="matrix(1 0 0 1 163.752 142.6556)" class="st7 st8 st9">T2</text>
<text transform="matrix(1 0 0 1 163.6841 151.8223)" class="st7 st8 st9">T3</text>
<text transform="matrix(1 0 0 1 163.6841 160.989)" class="st7 st8 st9">T4</text>
<text transform="matrix(1 0 0 1 163.6841 170.8924)" class="st7 st8 st9">T5</text>
<text transform="matrix(1 0 0 1 163.6841 182.5414)" class="st7 st8 st9">T6</text>
<text transform="matrix(1 0 0 1 163.7519 196.0414)" class="st7 st8 st9">T7</text>
<text transform="matrix(1 0 0 1 163.6842 209.7081)" class="st7 st8 st9">T8</text>
<text transform="matrix(1 0 0 1 163.6841 222.0414)" class="st7 st8 st9">T9</text>
<text transform="matrix(1 0 0 1 163.7519 235.511)" class="st7 st8 st9">T10</text>
<text transform="matrix(1 0 0 1 163.6842 251.011)" class="st7 st8 st9">T11</text>
<text transform="matrix(1 0 0 1 164.5175 267.6108)" class="st7 st8 st9">T12</text>
<text transform="matrix(1 0 0 1 164.784 286.5703)" class="st8 st9">L1</text>
<text transform="matrix(1 0 0 1 172.8987 304.3105)" class="st8 st9">L2</text>
<text transform="matrix(1 0 0 1 144.9592 295.948)" class="st7 st8 st9">S2</text>
<text transform="matrix(1 0 0 1 150.2094 309.3293)" class="st7 st8 st9">S3</text>
<text transform="matrix(1 0 0 1 176.7677 332.117)" class="st8 st9">L3</text>
<text transform="matrix(1 0 0 1 178.1011 376.2714)" class="st8 st9">L4</text>
<text transform="matrix(1 0 0 1 153.1745 547.1886)" class="st8 st9">L4</text>
<text transform="matrix(1 0 0 1 187.1743 539.8553)" class="st8 st9">S1</text>
<text transform="matrix(1 0 0 1 172.8982 477.9382)" class="st8 st9">L5</text>
<line class="st10" x1="169.3" y1="70.6" x2="175.9" y2="67.3"/>
<text transform="matrix(1 0 0 1 176.4986 68.6106)" class="st7 st8 st9">C2</text>
<text transform="matrix(1 0 0 1 238.748 142.8169)" class="st8 st9">C6</text>
<line class="st5e" x1="231.6" y1="144.8" x2="238.1" y2="141.5"/>
<text transform="matrix(1 0 0 1 242.3297 189.7545)" class="st8 st9">C5</text>
<line class="st5e" x1="235.2" y1="191.8" x2="241.7" y2="188.4"/>
<text transform="matrix(1 0 0 1 263.3206 263.5806)" class="st8 st9">C6</text>
<line class="st5e" x1="256.1" y1="265.6" x2="262.7" y2="262.3"/>
<line class="st5e" x1="228.2" y1="300.5" x2="237.6" y2="295.7"/>
<line class="st5e" x1="176.8" y1="543.8" x2="186.1" y2="539"/>
<text transform="matrix(1 0 0 1 268.4905 331.747)" class="st8 st9">C7</text>
<text transform="matrix(1 0 0 1 218.1034 303.247)" class="st8 st9">C8</text>
<line class="st5e" x1="269" y1="324" x2="265.7" y2="316.2"/>
<g class="st11e">
	<ellipse class="st12" cx="112.2" cy="154.4" rx="3.3" ry="2.7"/>
	<ellipse class="st13" cx="112.2" cy="154.4" rx="0.7" ry="0.6"/>
	<ellipse class="st12" cx="188.7" cy="154.4" rx="3.3" ry="2.7"/>
	<ellipse class="st13" cx="188.7" cy="154.4" rx="0.7" ry="0.6"/>
</g>
</svg>
