<?xml version="1.0" encoding="utf-8"?>
<!-- Generator: Adobe Illustrator 16.0.0, SVG Export Plug-In . SVG Version: 6.00 Build 0)  -->
<!DOCTYPE svg PUBLIC "-//W3C//DTD SVG 1.1//EN" "http://www.w3.org/Graphics/SVG/1.1/DTD/svg11.dtd">
<svg version="1.1" id="Layer_1" xmlns="http://www.w3.org/2000/svg" xmlns:xlink="http://www.w3.org/1999/xlink" x="0px" y="0px"
	 width="512px" height="512px" viewBox="0 0 512 512" enable-background="new 0 0 512 512" xml:space="preserve">
<path   fill="#394046" d="M244.056,290.693c-0.31-36.507-15.314-139.916-22.618-168.188c-1.435-5.555-3.154-12.274-5.031-19.677
	l-41.156,11.786c8.124,41.312,17.155,89.697,21.239,121.443c7.563,58.789-2.281,148.236-2.281,148.236s9.485,7.55,18.33,9.107
	c8.846,1.562,21.771-1.817,24.116-2.928c2.347-1.107,1.98-4.246,2.851-10.924C240.376,372.877,244.362,327.2,244.056,290.693z"/>
<g id="L-1">
	<g id="XMLID_133_">
		<path class="human"  fill="#EDC600" d="M222.712,111.514c-0.603,9.483,2.422,18.337,4.168,23.569c1.745,5.23,1.787,10.476-3.878,10.523
			c-5.669,0.048-12.469,0.105-20.377,3.319c-7.906,3.214-14.108,6.938-18.068,8.021c-3.958,1.082-3.971-0.492-5.145-5.201
			c-1.173-4.711-1.253-14.153-9.165-11.463c-7.912,2.689-6.752,5.827-5.02,9.483c1.732,3.658,2.329,7.324-1.059,8.927
			c-3.386,1.602-9.054,1.65-17.533,4.345c-8.479,2.693-14.098,8.511-19.229,4.883c-5.131-3.627-8-7.801-7.509-16.722
			c0.492-8.921,3.317-9.993,11.232-12.158c7.916-2.165,10.733-4.288,10.701-7.959c-0.031-3.67-2.886-6.27-0.057-6.817
			c2.831-0.549,6.775-3.204,10.166-4.282c3.392-1.078,3.382-2.127,7.382,1.511c3.998,3.637,7.969,4.129,10.775,0.957
			c2.808-3.17,5.613-6.342,5.613-6.342s6.229-0.576,19.238-3.834c13.008-3.256,16.376-6.956,20.336-8.04
			C219.24,103.151,223.214,103.642,222.712,111.514z"/>
	</g>
	<g opacity="0.7" enable-background="new    ">
		<path class="human"  d="M93.295,165.938c0,0.234-0.01,0.432-0.029,0.592s-0.049,0.293-0.088,0.398s-0.088,0.182-0.146,0.229
			s-0.127,0.07-0.205,0.07h-6.949c-0.258,0-0.475-0.076-0.65-0.229s-0.264-0.4-0.264-0.744v-13.77c0-0.078,0.025-0.148,0.076-0.211
			s0.135-0.113,0.252-0.152s0.275-0.07,0.475-0.094s0.447-0.035,0.744-0.035c0.305,0,0.555,0.012,0.75,0.035
			s0.352,0.055,0.469,0.094s0.201,0.09,0.252,0.152s0.076,0.133,0.076,0.211v12.199h4.77c0.078,0,0.146,0.021,0.205,0.064
			s0.107,0.113,0.146,0.211s0.068,0.227,0.088,0.387S93.295,165.704,93.295,165.938z"/>
		<path class="human"  d="M100.115,161.333c0,0.453-0.043,0.77-0.129,0.949s-0.223,0.27-0.41,0.27h-4.875c-0.195,0-0.336-0.092-0.422-0.275
			s-0.129-0.498-0.129-0.943c0-0.438,0.043-0.746,0.129-0.926s0.227-0.27,0.422-0.27h4.875c0.094,0,0.174,0.02,0.24,0.059
			s0.123,0.105,0.17,0.199s0.08,0.219,0.1,0.375S100.115,161.114,100.115,161.333z"/>
		<path class="human"  d="M111.869,166.056c0,0.219-0.012,0.404-0.035,0.557s-0.057,0.273-0.1,0.363s-0.092,0.154-0.146,0.193
			s-0.117,0.059-0.188,0.059h-8.367c-0.063,0-0.121-0.02-0.176-0.059s-0.104-0.104-0.146-0.193s-0.076-0.211-0.1-0.363
			s-0.035-0.338-0.035-0.557c0-0.227,0.01-0.416,0.029-0.568s0.051-0.275,0.094-0.369s0.092-0.162,0.146-0.205
			s0.117-0.064,0.188-0.064h2.824v-9.867l-2.438,1.348c-0.18,0.086-0.326,0.139-0.439,0.158s-0.203-0.004-0.27-0.07
			s-0.111-0.182-0.135-0.346s-0.035-0.395-0.035-0.691c0-0.188,0.004-0.342,0.012-0.463s0.027-0.225,0.059-0.311
			s0.074-0.156,0.129-0.211s0.129-0.113,0.223-0.176l3.258-2.109c0.039-0.031,0.088-0.057,0.146-0.076s0.135-0.035,0.229-0.047
			s0.217-0.02,0.369-0.023s0.35-0.006,0.592-0.006c0.297,0,0.537,0.006,0.721,0.018s0.322,0.031,0.416,0.059
			s0.156,0.064,0.188,0.111s0.047,0.105,0.047,0.176v12.527h2.473c0.07,0,0.135,0.021,0.193,0.064s0.109,0.111,0.152,0.205
			s0.074,0.217,0.094,0.369S111.869,165.829,111.869,166.056z"/>
	</g>
</g>
<g id="L-2">
	<g id="XMLID_134_">
		<path class="human"  fill="#EDC600" d="M226.494,156.591c-8.078,1.566-11.862,4.822-22.616,6.485c-10.754,1.665-16.399,4.335-19.245,2.785
			c-2.848-1.548-2.838-0.5-5.083,2.142c-2.245,2.642-7.885,5.837-11.313,2.718c-3.426-3.119-1.183-5.76-4.009-5.211
			c-2.831,0.547-0.549,2.102-7.341,3.208c-6.792,1.106-8.509-0.977-9.608,3.229c-1.099,4.206,2.342,8.896-5.569,11.585
			c-7.912,2.689-9.077-0.973-14.714,2.747c-5.634,3.719-5.586,9.489-4.4,15.774c1.186,6.283,1.806,12.573,11.44,12.492
			c9.634-0.082,13.012-2.733,20.376-3.319c7.362-0.588,14.149-2.219,16.968-3.815c2.821-1.599-1.177-5.236-0.084-9.966
			c1.095-4.73,2.773-7.366,6.172-7.395c3.401-0.028,7.372,0.462,7.442,8.854c0.072,8.391,0.656,10.485,4.059,10.98
			c3.407,0.496,14.674-7.467,24.305-8.074c9.628-0.604,15.854-1.707,19.825-1.217c3.971,0.492,6.206-3.199,5.043-6.861
			c-1.163-3.663-5.171-8.349-4.688-18.319c0.482-9.97,0.442-14.69-0.145-17.308C232.718,155.49,229.323,156.043,226.494,156.591z"/>
	</g>
	<g opacity="0.7" enable-background="new    ">
		<path class="human"  d="M95.462,209.271c0,0.234-0.01,0.432-0.029,0.592s-0.049,0.293-0.088,0.398s-0.088,0.182-0.146,0.229
			s-0.127,0.07-0.205,0.07h-6.949c-0.258,0-0.475-0.076-0.65-0.229s-0.264-0.4-0.264-0.744v-13.77c0-0.078,0.025-0.148,0.076-0.211
			s0.135-0.113,0.252-0.152s0.275-0.07,0.475-0.094s0.447-0.035,0.744-0.035c0.305,0,0.555,0.012,0.75,0.035
			s0.352,0.055,0.469,0.094s0.201,0.09,0.252,0.152s0.076,0.133,0.076,0.211v12.199h4.77c0.078,0,0.146,0.021,0.205,0.064
			s0.107,0.113,0.146,0.211s0.068,0.227,0.088,0.387S95.462,209.037,95.462,209.271z"/>
		<path class="human"  d="M102.282,204.666c0,0.453-0.043,0.77-0.129,0.949s-0.223,0.27-0.41,0.27h-4.875c-0.195,0-0.336-0.092-0.422-0.275
			s-0.129-0.498-0.129-0.943c0-0.438,0.043-0.746,0.129-0.926s0.227-0.27,0.422-0.27h4.875c0.094,0,0.174,0.02,0.24,0.059
			s0.123,0.105,0.17,0.199s0.08,0.219,0.1,0.375S102.282,204.447,102.282,204.666z"/>
		<path class="human"  d="M114.177,209.307c0,0.227-0.01,0.42-0.029,0.58s-0.049,0.291-0.088,0.393s-0.09,0.174-0.152,0.217
			s-0.133,0.064-0.211,0.064h-8.719c-0.172,0-0.32-0.016-0.445-0.047s-0.227-0.092-0.305-0.182s-0.135-0.221-0.17-0.393
			s-0.053-0.395-0.053-0.668c0-0.258,0.012-0.479,0.035-0.662s0.066-0.348,0.129-0.492s0.143-0.285,0.24-0.422
			s0.225-0.287,0.381-0.451l2.625-2.813c0.523-0.547,0.945-1.045,1.266-1.494s0.57-0.859,0.75-1.23s0.303-0.713,0.369-1.025
			s0.1-0.609,0.1-0.891c0-0.258-0.041-0.502-0.123-0.732s-0.203-0.432-0.363-0.604s-0.361-0.307-0.604-0.404
			s-0.527-0.146-0.855-0.146c-0.461,0-0.869,0.059-1.225,0.176s-0.668,0.248-0.938,0.393s-0.494,0.277-0.674,0.398
			s-0.32,0.182-0.422,0.182c-0.07,0-0.131-0.023-0.182-0.07s-0.092-0.125-0.123-0.234s-0.057-0.256-0.076-0.439
			s-0.029-0.408-0.029-0.674c0-0.18,0.006-0.33,0.018-0.451s0.029-0.227,0.053-0.316s0.055-0.168,0.094-0.234
			s0.107-0.146,0.205-0.24s0.277-0.213,0.539-0.357s0.584-0.285,0.967-0.422s0.805-0.252,1.266-0.346s0.941-0.141,1.441-0.141
			c0.789,0,1.479,0.1,2.068,0.299s1.08,0.477,1.471,0.832s0.682,0.777,0.873,1.266s0.287,1.014,0.287,1.576
			c0,0.492-0.047,0.977-0.141,1.453s-0.289,0.99-0.586,1.541s-0.715,1.16-1.254,1.828s-1.254,1.443-2.145,2.326l-1.77,1.816h5.977
			c0.078,0,0.15,0.023,0.217,0.07s0.123,0.119,0.17,0.217s0.082,0.227,0.105,0.387S114.177,209.088,114.177,209.307z"/>
	</g>
</g>
<g id="L-3">
	<g id="XMLID_132_">
		<path class="human"  fill="#EDC600" d="M235.473,213.164c-6.633,2.108-10.165,4.282-21.501,4.377c-11.333,0.096-15.295,0.654-19.833,0.168
			c-4.539-0.486-1.121,1.583-5.632,4.244c-4.511,2.661-9.036,3.748-11.33,0.62c-2.294-3.128-1.187-6.285-4.587-6.256
			c-3.399,0.029-2.258,1.068-7.919,1.641c-5.663,0.572-9.64-0.442-10.197,0.61c-0.557,1.055,1.141,1.04,0.614,5.766
			c-0.526,4.725-1.072,7.351-9.567,7.948c-8.496,0.595-12.467,0.105-14.685,5.894c-2.218,5.789-4.454,9.479,0.151,17.832
			c4.604,8.352,11.4,7.771,19.322,6.131c7.919-1.641,16.417-2.236,20.954-1.75c4.538,0.484,8.5-0.072,7.332-4.259
			c-1.169-4.187-4.658-14.646,4.98-14.204c9.638,0.444,7.426,6.756,8.028,10.948c0.603,4.19,0.637,8.386,2.346,9.42
			c1.709,1.034,1.717,2.083,7.935-0.065c6.215-2.149,12.433-4.303,21.5-4.379c9.068-0.076,13.039,0.414,17.005,0.381
			c3.967-0.03,7.364-0.586,5.609-6.863c-1.753-6.281-1.789-10.475-3.002-19.907c-1.007-7.828,0.458-13.117-0.708-16.777
			C241.122,211.018,240.562,211.546,235.473,213.164z"/>
	</g>
	<g opacity="0.7" enable-background="new    ">
		<path class="human"  d="M103.963,256.771c0,0.234-0.01,0.432-0.029,0.592s-0.049,0.293-0.088,0.398s-0.088,0.182-0.146,0.229
			s-0.127,0.07-0.205,0.07h-6.949c-0.258,0-0.475-0.076-0.65-0.229s-0.264-0.4-0.264-0.744v-13.77c0-0.078,0.025-0.148,0.076-0.211
			s0.135-0.113,0.252-0.152s0.275-0.07,0.475-0.094s0.447-0.035,0.744-0.035c0.305,0,0.555,0.012,0.75,0.035
			s0.352,0.055,0.469,0.094s0.201,0.09,0.252,0.152s0.076,0.133,0.076,0.211v12.199h4.77c0.078,0,0.146,0.021,0.205,0.064
			s0.107,0.113,0.146,0.211s0.068,0.227,0.088,0.387S103.963,256.537,103.963,256.771z"/>
		<path class="human"  d="M110.783,252.166c0,0.453-0.043,0.77-0.129,0.949s-0.223,0.27-0.41,0.27h-4.875c-0.195,0-0.336-0.092-0.422-0.275
			s-0.129-0.498-0.129-0.943c0-0.438,0.043-0.746,0.129-0.926s0.227-0.27,0.422-0.27h4.875c0.094,0,0.174,0.02,0.24,0.059
			s0.123,0.105,0.17,0.199s0.08,0.219,0.1,0.375S110.783,251.947,110.783,252.166z"/>
		<path class="human"  d="M122.607,253.619c0,0.758-0.145,1.43-0.434,2.016s-0.691,1.078-1.207,1.477s-1.133,0.701-1.852,0.908
			s-1.504,0.311-2.355,0.311c-0.516,0-1-0.037-1.453-0.111s-0.854-0.166-1.201-0.275s-0.635-0.223-0.861-0.34
			s-0.375-0.207-0.445-0.27s-0.123-0.133-0.158-0.211s-0.066-0.17-0.094-0.275s-0.047-0.238-0.059-0.398s-0.018-0.354-0.018-0.58
			c0-0.375,0.031-0.635,0.094-0.779s0.156-0.217,0.281-0.217c0.078,0,0.213,0.053,0.404,0.158s0.436,0.219,0.732,0.34
			s0.645,0.234,1.043,0.34s0.852,0.158,1.359,0.158c0.43,0,0.809-0.051,1.137-0.152s0.607-0.244,0.838-0.428
			s0.402-0.406,0.516-0.668s0.17-0.553,0.17-0.873c0-0.352-0.068-0.668-0.205-0.949s-0.34-0.521-0.609-0.721
			s-0.609-0.354-1.02-0.463s-0.893-0.164-1.447-0.164h-1.313c-0.102,0-0.188-0.014-0.258-0.041s-0.129-0.084-0.176-0.17
			s-0.08-0.205-0.1-0.357s-0.029-0.35-0.029-0.592c0-0.227,0.01-0.412,0.029-0.557s0.051-0.256,0.094-0.334s0.098-0.133,0.164-0.164
			s0.146-0.047,0.24-0.047h1.324c0.453,0,0.855-0.053,1.207-0.158s0.646-0.256,0.885-0.451s0.42-0.432,0.545-0.709
			s0.188-0.584,0.188-0.92c0-0.258-0.043-0.502-0.129-0.732s-0.213-0.43-0.381-0.598s-0.385-0.301-0.65-0.398
			s-0.578-0.146-0.938-0.146c-0.406,0-0.789,0.061-1.148,0.182s-0.682,0.254-0.967,0.398s-0.527,0.279-0.727,0.404
			s-0.346,0.188-0.439,0.188c-0.063,0-0.117-0.014-0.164-0.041s-0.086-0.08-0.117-0.158s-0.055-0.191-0.07-0.34
			s-0.023-0.34-0.023-0.574c0-0.195,0.004-0.357,0.012-0.486s0.023-0.236,0.047-0.322s0.053-0.16,0.088-0.223
			s0.092-0.131,0.17-0.205s0.238-0.186,0.48-0.334s0.547-0.293,0.914-0.434s0.791-0.26,1.271-0.357s1.002-0.146,1.564-0.146
			c0.734,0,1.385,0.086,1.951,0.258s1.043,0.42,1.43,0.744s0.68,0.723,0.879,1.195s0.299,1.006,0.299,1.6
			c0,0.461-0.059,0.891-0.176,1.289s-0.289,0.754-0.516,1.066s-0.51,0.578-0.85,0.797s-0.732,0.383-1.178,0.492v0.035
			c0.531,0.063,1.008,0.197,1.43,0.404s0.779,0.467,1.072,0.779s0.518,0.666,0.674,1.061S122.607,253.166,122.607,253.619z"/>
	</g>
</g>
<g id="L-4">
	<g id="XMLID_136_">
		<path class="human"  fill="#EDC600" d="M241.61,268.711c-5.599,1.779-9.613,2.703-18.112,2.775c-8.502,0.072-18.144-0.896-23.25-1.377
			c-5.105-0.481-3.391,1.076-7.345,2.686c-3.952,1.605-8.469,3.742-10.768,0.089c-2.298-3.651-2.329-7.321-4.03-7.31
			c-1.699,0.016-3.385,1.604-8.492,1.121c-5.104-0.481-9.083-2.021-9.638-0.443c-0.553,1.58,2.348,9.422-1.597,12.078
			c-3.946,2.656-11.326,1.146-15.293,1.178c-3.967,0.035-7.925,1.116-9.55,10.047c-1.625,8.932-1.581,14.176,4.126,18.85
			c5.707,4.673,11.349,1.479,21.549,1.393c10.201-0.086,15.301-0.128,18.136-0.15c2.833-0.022,3.395-0.556,3.355-5.273
			c-0.04-4.721-1.234-12.053,7.273-11.076c8.511,0.977,6.855,6.236,6.898,11.482c0.044,5.242-1.049,9.974,4.042,8.881
			c5.093-1.092,10.18-2.708,21.52-2.279c11.337,0.43,18.7-0.158,22.681,1.383c3.98,1.539,5.676,1.002,5.063-4.24
			c-0.61-5.236-1.213-9.43-1.854-18.342c-0.641-8.91,1.595-12.602,0.984-17.842C246.697,267.094,245.002,267.633,241.61,268.711z"/>
	</g>
	<g opacity="0.7" enable-background="new    ">
		<path class="human"  d="M109.962,302.271c0,0.234-0.01,0.432-0.029,0.592s-0.049,0.293-0.088,0.398s-0.088,0.182-0.146,0.229
			s-0.127,0.07-0.205,0.07h-6.949c-0.258,0-0.475-0.076-0.65-0.229s-0.264-0.4-0.264-0.744v-13.77c0-0.078,0.025-0.148,0.076-0.211
			s0.135-0.113,0.252-0.152s0.275-0.07,0.475-0.094s0.447-0.035,0.744-0.035c0.305,0,0.555,0.012,0.75,0.035
			s0.352,0.055,0.469,0.094s0.201,0.09,0.252,0.152s0.076,0.133,0.076,0.211v12.199h4.77c0.078,0,0.146,0.021,0.205,0.064
			s0.107,0.113,0.146,0.211s0.068,0.227,0.088,0.387S109.962,302.036,109.962,302.271z"/>
		<path class="human"  d="M116.782,297.665c0,0.453-0.043,0.77-0.129,0.949s-0.223,0.27-0.41,0.27h-4.875c-0.195,0-0.336-0.092-0.422-0.275
			s-0.129-0.498-0.129-0.943c0-0.438,0.043-0.746,0.129-0.926s0.227-0.27,0.422-0.27h4.875c0.094,0,0.174,0.02,0.24,0.059
			s0.123,0.105,0.17,0.199s0.08,0.219,0.1,0.375S116.782,297.446,116.782,297.665z"/>
		<path class="human"  d="M129.146,299.2c0,0.398-0.041,0.701-0.123,0.908s-0.193,0.311-0.334,0.311h-1.348v2.742c0,0.078-0.023,0.146-0.07,0.205
			s-0.129,0.107-0.246,0.146s-0.27,0.068-0.457,0.088s-0.43,0.029-0.727,0.029c-0.281,0-0.518-0.01-0.709-0.029
			s-0.344-0.049-0.457-0.088s-0.191-0.088-0.234-0.146s-0.064-0.127-0.064-0.205v-2.742h-5.801c-0.109,0-0.207-0.014-0.293-0.041
			s-0.158-0.09-0.217-0.188s-0.102-0.238-0.129-0.422s-0.041-0.428-0.041-0.732c0-0.25,0.006-0.467,0.018-0.65
			s0.031-0.35,0.059-0.498s0.066-0.289,0.117-0.422s0.115-0.273,0.193-0.422l4.711-8.309c0.039-0.07,0.105-0.131,0.199-0.182
			s0.225-0.094,0.393-0.129s0.381-0.061,0.639-0.076s0.57-0.023,0.938-0.023c0.398,0,0.738,0.01,1.02,0.029s0.506,0.051,0.674,0.094
			s0.291,0.096,0.369,0.158s0.117,0.137,0.117,0.223v9.129h1.348c0.125,0,0.232,0.096,0.322,0.287S129.146,298.755,129.146,299.2z
			 M124.376,290.985h-0.023l-3.996,6.973h4.02V290.985z"/>
	</g>
</g>
<g id="L-5">
	<g id="XMLID_135_">
		<path class="human"  fill="#EDC600" d="M240.98,328.511c-7.957,0.888-11.324,1.146-20.405-0.353c-9.081-1.495-18.173-4.566-22.15-5.581
			c-3.977-1.017-1.709-1.036-5.655,1.621c-3.944,2.655-9.609,2.702-11.921-2.523c-2.312-5.225-0.054-6.292-4.587-6.254
			c-4.533,0.038-8.505-0.454-12.472-0.42c-3.968,0.034-2.834,0.024-5.061,4.763c-2.228,4.74-6.172,7.396-12.408,7.448
			c-6.233,0.054-11.307,3.243-14.076,10.608c-2.773,7.369-2.157,13.133-0.984,17.844c1.173,4.71,3.994,3.113,8.532,3.6
			c4.538,0.487,7.902-3.738,19.259-1.213c11.356,2.527,15.908,4.588,17.6,3.524c1.692-1.064,1.089-5.255,1.616-9.979
			c0.526-4.727,3.311-10.519,9.583-6.376c6.268,4.144,4.046,9.407,2.952,14.138c-1.095,4.73,0.088,10.488,8.01,8.851
			c7.921-1.642,11.313-2.72,22.669-0.188c11.356,2.526,10.798,3.578,15.911,5.108c5.114,1.528,6.806,0.467,6.181-6.349
			c-0.624-6.813-1.854-11.967,1.514-22.041C248.955,333.165,246.077,327.941,240.98,328.511z"/>
	</g>
	<g opacity="0.7" enable-background="new    ">
		<path class="human"  d="M106.462,348.771c0,0.234-0.01,0.432-0.029,0.592s-0.049,0.293-0.088,0.398s-0.088,0.182-0.146,0.229
			s-0.127,0.07-0.205,0.07h-6.949c-0.258,0-0.475-0.076-0.65-0.229s-0.264-0.4-0.264-0.744v-13.77c0-0.078,0.025-0.148,0.076-0.211
			s0.135-0.113,0.252-0.152s0.275-0.07,0.475-0.094s0.447-0.035,0.744-0.035c0.305,0,0.555,0.012,0.75,0.035
			s0.352,0.055,0.469,0.094s0.201,0.09,0.252,0.152s0.076,0.133,0.076,0.211v12.199h4.77c0.078,0,0.146,0.021,0.205,0.064
			s0.107,0.113,0.146,0.211s0.068,0.227,0.088,0.387S106.462,348.536,106.462,348.771z"/>
		<path class="human"  d="M113.282,344.165c0,0.453-0.043,0.77-0.129,0.949s-0.223,0.27-0.41,0.27h-4.875c-0.195,0-0.336-0.092-0.422-0.275
			s-0.129-0.498-0.129-0.943c0-0.438,0.043-0.746,0.129-0.926s0.227-0.27,0.422-0.27h4.875c0.094,0,0.174,0.02,0.24,0.059
			s0.123,0.105,0.17,0.199s0.08,0.219,0.1,0.375S113.282,343.946,113.282,344.165z"/>
		<path class="human"  d="M125.036,345.138c0,0.82-0.143,1.553-0.428,2.197s-0.688,1.188-1.207,1.629s-1.145,0.779-1.875,1.014
			s-1.541,0.352-2.432,0.352c-0.469,0-0.914-0.029-1.336-0.088s-0.801-0.133-1.137-0.223s-0.611-0.18-0.826-0.27
			s-0.355-0.164-0.422-0.223s-0.115-0.123-0.146-0.193s-0.057-0.154-0.076-0.252s-0.033-0.221-0.041-0.369s-0.012-0.324-0.012-0.527
			c0-0.219,0.008-0.404,0.023-0.557s0.041-0.275,0.076-0.369s0.076-0.16,0.123-0.199s0.102-0.059,0.164-0.059
			c0.078,0,0.197,0.045,0.357,0.135s0.371,0.189,0.633,0.299s0.58,0.209,0.955,0.299s0.824,0.135,1.348,0.135
			c0.453,0,0.865-0.047,1.236-0.141s0.686-0.244,0.943-0.451s0.457-0.467,0.598-0.779s0.211-0.688,0.211-1.125
			c0-0.375-0.059-0.709-0.176-1.002s-0.301-0.541-0.551-0.744s-0.574-0.355-0.973-0.457s-0.883-0.152-1.453-0.152
			c-0.453,0-0.865,0.023-1.236,0.07s-0.721,0.07-1.049,0.07c-0.227,0-0.389-0.057-0.486-0.17s-0.146-0.322-0.146-0.627v-6.586
			c0-0.313,0.061-0.537,0.182-0.674s0.314-0.205,0.58-0.205h7.184c0.07,0,0.137,0.023,0.199,0.07s0.115,0.121,0.158,0.223
			s0.074,0.236,0.094,0.404s0.029,0.369,0.029,0.604c0,0.469-0.041,0.809-0.123,1.02s-0.201,0.316-0.357,0.316h-5.391v3.246
			c0.273-0.031,0.545-0.051,0.814-0.059s0.553-0.012,0.85-0.012c0.82,0,1.549,0.096,2.186,0.287s1.172,0.473,1.605,0.844
			s0.764,0.832,0.99,1.383S125.036,344.411,125.036,345.138z"/>
	</g>
</g>
</svg>
