<?xml version="1.0" encoding="utf-8"?>
<!-- Generator: Adobe Illustrator 16.0.0, SVG Export Plug-In . SVG Version: 6.00 Build 0)  -->
<!DOCTYPE svg PUBLIC "-//W3C//DTD SVG 1.1//EN" "http://www.w3.org/Graphics/SVG/1.1/DTD/svg11.dtd">
<svg version="1.1" id="Layer_1" xmlns="http://www.w3.org/2000/svg" xmlns:xlink="http://www.w3.org/1999/xlink" x="0px" y="0px"
	 width="100%" height="100%" viewbox="-300 280 850 200" enable-background="new 0 0 370 760" xml:space="preserve">
<g id="bigCrayfish">
	<text x="-25" y="25" fill="Black" font-size="25">Right Side</text></g>
<g>
	<g>
		<path class="human" id="Right_lateral_Wrist" fill="#B5B5B5" stroke="#000000" d="M32.225,358.667c-0.123,9.021,0.002,10.833-0.248,15.646
			c1.582,5.854,28.5,4.937,31.25-2.313c-1.798-2.18-2.75-3.208-3.209-5.25c-0.315-1.415-0.332-3.763-0.459-6.75
			C51.559,366.167,32.727,363.333,32.225,358.667z"/>
		<path fill="#FFFFFF" d="M44.501,378.395c-5.646,0-11.963-1.055-12.766-4.017l-0.01-0.039l0.002-0.04
			c0.157-3.017,0.166-4.799,0.181-8.034c0.01-1.887,0.021-4.246,0.067-7.603l0.498-0.023c0.265,2.477,6.722,4.65,13.818,4.65l0,0
			c3.208,0,9.176-0.454,13.112-3.488l0.384-0.295l0.021,0.482c0.025,0.616,0.046,1.204,0.066,1.763
			c0.078,2.146,0.139,3.842,0.386,4.943c0.41,1.828,1.245,2.837,2.761,4.667l0.488,0.59l-0.051,0.136
			C61.891,376.229,52.732,378.395,44.501,378.395z M32.228,374.285c0.644,2.195,5.448,3.61,12.271,3.61
			c7.97,0,16.799-2.009,18.438-5.851l-0.299-0.363c-1.565-1.89-2.428-2.932-2.865-4.877c-0.255-1.146-0.318-2.862-0.396-5.035
			c-0.016-0.414-0.03-0.844-0.048-1.289c-4.047,2.871-9.866,3.309-13.036,3.309l0,0c-5.748,0-12.048-1.469-13.833-3.915
			c-0.033,2.728-0.043,4.741-0.053,6.393C32.393,369.39,32.383,371.28,32.228,374.285z"/>
	</g>
</g>
<g>
	<g>
		<path class="human" id="Right_lateral_Forearrm" fill="#B5B5B5" stroke="#000000" d="M32.225,358.667C32.393,342.5,31.727,277,32.227,281.5s40.5,0.5,40.5-1.5
			c0-0.985,2.311,19.261-5.25,37.25c-7.25,17.25-9.084,25.083-7.918,42.75C51.559,366.167,32.727,363.333,32.225,358.667z"/>
		<path fill="#FFFFFF" d="M46.292,363.791C46.291,363.791,46.292,363.791,46.292,363.791c-6.622,0-13.979-1.949-14.316-5.097
			c0.069-6.795-0.008-22.408-0.082-37.506c-0.174-35.098-0.137-39.841,0.104-40.083l0.072-0.074l0.107-0.002
			c0.245,0,0.273,0.246,0.295,0.443c0.062,0.551,1.204,1.833,10.473,1.833c12.462,0,28.926-2.236,29.535-3.339v-0.25l0.381-0.001
			l0.076,0.113c0.309,0.463,2.038,20.221-5.232,37.519c-7.172,17.066-9.08,24.733-7.897,42.637l0.008,0.133l-0.104,0.082
			C55.656,363.323,49.564,363.791,46.292,363.791z M32.353,282.27c-0.129,4.183-0.041,21.809,0.043,38.915
			c0.073,15.101,0.15,30.715,0.08,37.484c0.266,2.448,6.722,4.621,13.817,4.621l0,0c3.179,0,9.07-0.445,13.008-3.408
			c-1.17-17.91,0.755-25.622,7.945-42.729c6.746-16.052,5.566-33.72,5.293-36.681c-2.945,1.657-20.072,3.333-29.592,3.333
			C35.453,283.806,33.105,282.967,32.353,282.27z"/>
	</g>
</g>
<g>
	<g>
		<path class="human" id="Right_lateral_Elbow" fill="#B5B5B5" stroke="#000000" d="M33.309,259.792c-0.5,1.25-1.582,17.208-1.082,21.708s40.5,0.5,40.5-1.5
			s-0.084-16.208-0.084-16.208C61.059,270,32.977,264.292,33.309,259.792z"/>
		<path fill="#FFFFFF" d="M42.946,283.806c-10.717,0-10.907-1.714-10.971-2.278c-0.502-4.527,0.561-20.478,1.102-21.829l0.601-1.502
			l-0.119,1.613c-0.021,0.311,0.133,0.65,0.465,1.007c2.391,2.574,13.229,5.453,24.154,5.454c0.001,0,0.001,0,0.002,0
			c6.088,0,11.049-0.934,14.344-2.7l0.367-0.196l0.002,0.415c0,0.142,0.084,14.231,0.084,16.209
			C72.977,281.789,53.387,283.805,42.946,283.806z M33.369,260.796c-0.503,3.65-1.352,16.562-0.895,20.676
			c0.063,0.551,1.205,1.833,10.476,1.833c12.46,0,28.923-2.236,29.532-3.339c-0.006-1.755-0.072-13.422-0.088-15.765
			c-4.229,2.118-10.033,2.57-14.213,2.57c-0.002,0-0.002,0-0.003,0c-10.104,0-21.792-2.676-24.521-5.613
			C33.545,261.038,33.449,260.917,33.369,260.796z"/>
	</g>
</g>
<g>
	<g>
		<path class="human" id="Right_lateral_Upperarrm" fill="#B5B5B5" stroke="#000000" d="M104.602,217.5c-10.875-1.375-27.574-11.855-31.375-20
			c-2.625-5.625-2.479-8.917-2.875-8.375c-3.293,4.5-18.25,24.875-24,36.375c-5.475,10.947-12.793,29.083-13.125,34.75
			c-0.334,5.667,32.5,8.875,39.332,3.75c1.192-0.894,30.668-29.999,33.334-34.333c2.668-4.334,11.666-17.667,11.666-17.667
			C113.563,213.877,108.792,218.03,104.602,217.5z"/>
		<path fill="#FFFFFF" d="M58.314,266.821c-9.594,0-21.754-1.913-24.668-5.003c-0.479-0.507-0.705-1.04-0.672-1.583
			c0.348-5.914,8.021-24.588,13.15-34.847c2.581-5.161,8.811-15.623,23.834-36.154l0.188-0.257c0.098-0.133,0.207-0.161,0.28-0.161
			c0.304,0,0.364,0.275,0.56,1.187c0.291,1.364,0.838,3.902,2.465,7.39c3.688,7.904,20.299,18.482,31.181,19.858
			c0.233,0.029,0.476,0.044,0.719,0.044c2.681,0,5.577-1.747,8.38-3.437c1.303-0.785,2.533-1.527,3.723-2.085l0.82-0.386
			l-0.507,0.751c-0.091,0.133-9.026,13.378-11.659,17.658c-2.635,4.281-31.861,33.25-33.397,34.402
			C69.669,266.48,62.387,266.821,58.314,266.821z M70.367,189.525l-0.002,0.005c-15.005,20.503-21.22,30.938-23.79,36.082
			c-5.799,11.593-12.783,29.255-13.1,34.653c-0.023,0.4,0.156,0.807,0.537,1.21c2.824,2.994,14.814,4.846,24.305,4.846
			c6.821,0,11.956-0.919,14.093-2.521c1.529-1.148,30.647-30.003,33.271-34.264c2.265-3.679,9.166-13.956,11.14-16.887
			c-0.908,0.479-1.849,1.046-2.832,1.639c-2.86,1.725-5.819,3.509-8.638,3.509l0,0c-0.265,0-0.526-0.016-0.78-0.048
			c-11.23-1.42-27.754-11.962-31.57-20.142c-1.65-3.539-2.225-6.212-2.502-7.498C70.453,189.893,70.408,189.684,70.367,189.525z"/>
	</g>
</g>
<g>
	<g>
		<path class="human" id="Left_median_Wrist" fill="#B5B5B5" stroke="#000000" d="M267.559,316.084c4.98,2.916,6.887,4.104,8.418,6.854
			c5.67,2.151,19.76-17.146,15.5-23.625c-2.817,0.177-2.453,0.326-4.375-0.5c-1.334-0.573-2.3-1.164-4.793-2.813
			C283.143,306.583,271.634,318.415,267.559,316.084z"/>
	</g>
</g>
<g>
	<g>
		<path class="human" id="Left_median_Forearm" fill="#B5B5B5" stroke="#000000" d="M268.059,316.334c-14.266-7.607-59.582-29.959-62.332-32.167
			c3.416,0.667,19.86-38.656,18.086-39.578c-0.875-0.455,14.205,10.557,27.289,25.036c12.5,13.833,16.5,15.875,31.291,25.875
			C284.172,305.443,272.432,318.042,268.059,316.334z"/>
		<path fill="#FFFFFF" d="M268.953,316.741C268.951,316.741,268.951,316.741,268.953,316.741c-0.357,0-0.688-0.059-0.984-0.174
			c-5.863-3.125-16.66-8.585-28.094-14.367c-16.059-8.121-32.659-16.517-34.305-17.838l-0.791-0.634l0.994,0.194
			c0.002,0,0.004,0,0.006,0c0.244,0,0.861-0.243,2.271-2.356c5.831-8.728,16.159-34.597,15.634-36.725
			c-0.113-0.101-0.199-0.198-0.145-0.35l0.001-0.003l-0.271-0.652l0.652,0.532c0.055,0.027,0.119,0.077,0.176,0.171
			c0.19,0.161,0.553,0.447,1.057,0.848c3.857,3.071,15.598,12.414,26.131,24.072c11.162,12.352,15.447,15.228,26.904,22.914
			c1.342,0.901,2.777,1.867,4.342,2.921l0.088,0.059l0.02,0.104c0.993,5.555-2.199,11.771-5.518,15.736
			C274.258,314.615,271.127,316.741,268.953,316.741z M206.328,284.276c3.134,1.981,18.695,9.852,33.771,17.477
			c11.436,5.783,22.232,11.246,28.073,14.36c0.214,0.081,0.479,0.127,0.775,0.127c2,0,5.057-2.107,7.782-5.369
			c3.229-3.854,6.332-9.864,5.431-15.224c-1.522-1.031-2.938-1.978-4.252-2.861c-11.493-7.711-15.793-10.597-26.996-22.994
			c-10.509-11.627-22.224-20.951-26.071-24.015c-0.119-0.097-0.23-0.186-0.338-0.27l0.021,0.049l-0.354-0.299
			c-0.411,4.782-10.813,29.259-15.706,36.585C207.43,283.399,206.77,284.03,206.328,284.276z"/>
	</g>
</g>
<g>
	<g>
		<path class="human" id="Left_median_Elbow" fill="#B5B5B5" stroke="#000000" d="M189.434,273.125c1.062,0.837,11.584,8.292,16.125,10.875
			c3.938,2.239,19.943-38.458,18.418-39.75c-1.625-1.375-16.918-12.25-16.918-12.25
			C208.227,243.563,194.727,275.583,189.434,273.125z"/>
		<path fill="#FFFFFF" d="M205.898,284.339c-0.166,0-0.322-0.041-0.467-0.122c-4.553-2.589-15.043-10.015-16.154-10.896
			l-1.658-1.314l1.92,0.892c0.158,0.073,0.328,0.11,0.51,0.11c0,0,0,0,0.001,0c0.742,0,1.708-0.633,2.792-1.832
			c6.126-6.773,14.92-29.739,13.969-39.152l-0.056-0.548l0.448,0.319c0.625,0.444,15.32,10.896,16.936,12.263
			c0.568,0.482-0.354,4.041-2.75,10.577C217.838,264.327,209.383,284.337,205.898,284.339L205.898,284.339z M190.337,273.487
			c2.726,1.985,11.341,8.019,15.347,10.296c0.064,0.038,0.137,0.056,0.217,0.056l0,0c0.474,0,1.634-0.636,4.104-4.889
			c6.421-11.048,14.503-33.285,13.797-34.526c-1.43-1.207-13.938-10.121-16.448-11.909c0.592,9.819-8.066,32.288-14.139,38.997
			C192.141,272.698,191.174,273.361,190.337,273.487z"/>
	</g>
</g>
<g>
	<g>
		<path class="human" id="Left_median_Upperarm" fill="#B5B5B5" stroke="#000000" d="M187.059,270.167c0,0,0.104,1.245,1.834,2.667
			c6.5,5.334,21.711-37.766,17.334-41.833c-2.053-1.908-3.449-4.223-7.625-10.813c-5.625-8.875-10.336-18.995-11.125-17.75
			C187.225,202.833,187.059,270.167,187.059,270.167z"/>
		<path fill="#FFFFFF" d="M190.107,273.541c-0.496,0-0.959-0.173-1.373-0.513c-1.795-1.472-1.922-2.785-1.926-2.84
			c0.063-25.195,0.203-67.487,0.457-67.884c0.09-0.142,0.225-0.22,0.381-0.22c0.75,0,1.93,1.98,5.106,7.641
			c1.708,3.04,3.833,6.823,6.06,10.33l0.895,1.411c3.504,5.538,4.814,7.609,6.689,9.353c2.379,2.211-0.607,14.757-4.871,25.608
			C199.947,260.441,194.463,273.541,190.107,273.541z M187.309,270.167c0.002,0,0.137,1.155,1.741,2.473
			c0.329,0.269,0.675,0.4,1.06,0.4c2.687,0,6.884-6.437,10.951-16.797c4.633-11.794,6.922-23.27,4.996-25.059
			c-1.923-1.787-3.242-3.874-6.771-9.451l-0.896-1.411c-2.229-3.518-4.357-7.308-6.068-10.352c-1.951-3.476-3.969-7.066-4.613-7.367
			C187.518,205.152,187.363,247.648,187.309,270.167L187.309,270.167z"/>
	</g>
</g>
<g>
	<path class="human" id="Left_median_Knee" fill="#B5B5B5" stroke="#000000" d="M244.313,503.832c12.025,27.542-1.744,37.82-2.521,40.536
		c-4.065,0.007-44.815-5.618-45.897-6.735c1.586-5.563,2.48-10.492,1.33-12.216C195.186,522.361,227.977,516.25,244.313,503.832z"/>
</g>
<g>
	<g>
		<path class="human" id="Left_median_Thigh" fill="#B5B5B5" stroke="#000000" d="M166.539,483.854c0,0,6.953-24.42,8.354-28.521c6.666-19.5,9-42,9.332-47.333
			c0.334-5.333-2.5-40-2.5-40c10.666,12.834,25.5,41.667,28.5,48s19.666,52.167,23.332,62.167c3.668,10,7,17.333,10.754,25.665
			c1.725,3.816-47.086,20.501-47.086,20.501C185.893,499.667,166.539,483.854,166.539,483.854z"/>
		<path fill="#FFFFFF" d="M196.962,524.952l-0.188-0.41c-11.149-24.271-30.356-40.144-30.548-40.302l-0.255-0.208l0.091-0.315
			c0.069-0.244,6.973-24.479,8.362-28.546c6.383-18.672,8.883-40.404,9.308-47.202c0.326-5.232-2.472-39.582-2.5-39.928
			l-0.129-1.578l1.012,1.217c10.961,13.19,26.217,43.143,28.57,48.106c2.672,5.643,15.979,42.049,21.658,57.595l1.688,4.614
			c3.547,9.666,6.719,16.699,10.389,24.843l0.354,0.789c0.088,0.192,0.151,0.506-0.021,0.907
			c-2.019,4.658-42.726,18.688-47.356,20.271L196.962,524.952z M167.105,483.679c2.313,1.963,19.813,17.3,30.383,40.035
			c22.725-7.786,46.806-17.478,46.365-19.677l-0.354-0.788c-3.681-8.161-6.854-15.21-10.412-24.91l-1.688-4.615
			c-5.678-15.528-18.975-51.903-21.627-57.51c-3.731-7.886-17.414-33.972-27.417-46.643c0.558,6.971,2.664,33.751,2.369,38.46
			c-0.426,6.835-2.938,28.687-9.358,47.464C174.07,459.285,167.923,480.821,167.105,483.679z"/>
	</g>
</g>
<g>
	<g>
		<path class="human" id="Left_median_Lower_Limb" fill="#B5B5B5" stroke="#000000" d="M243.977,637c0-3.75,0.25-24.75,0-33.75s-2.185-58.882-2.185-58.882
			l-45.315-6.618c0,0-4,13-6,19s-4.5,19.75-1.5,35s26.916,77.417,26.916,79.417s15.326,4.583,22.5,4.083
			c7.735-0.539,12.584-8,12.584-8C248.977,665.25,243.977,640.75,243.977,637z"/>
		<path fill="#FFFFFF" d="M238.734,675.755c-0.119,0-0.238-0.002-0.361-0.006c-3.012-0.098-22.982-1.458-22.982-4.583
			c-0.063-0.783-3.181-9.373-6.789-19.32c-7.229-19.922-18.156-50.023-20.117-60c-2.801-14.253-0.935-27.896,1.521-35.255
			c1.978-5.926,5.957-18.854,5.996-18.989l0.127-0.404l46.146,6.735l0.021,0.415c0.021,0.499,1.938,49.988,2.188,58.893
			c0.19,6.945,0.088,21.188,0.027,28.837c-0.017,2.311-0.027,4.065-0.027,4.927c0,3.723,5.055,28.097,6.854,29.896l0.271,0.271
			l-0.193,0.333C251.211,667.84,246.482,675.756,238.734,675.755z M196.826,538.307c-0.695,2.263-4.098,13.268-5.877,18.604
			c-0.535,1.604-5.127,16.228-1.483,34.745c1.946,9.896,12.854,39.959,20.075,59.853c4.973,13.699,6.852,18.943,6.852,19.661
			c0.471,1.292,12.612,3.28,22.021,3.583c6.563,0.256,11.045-6.074,11.963-7.478c-2.267-3.638-6.896-26.765-6.896-30.272
			c0-0.856,0.015-2.621,0.028-4.934c0.06-7.646,0.162-21.87-0.028-28.808c-0.231-8.459-1.979-53.63-2.168-58.461L196.826,538.307z"
			/>
	</g>
</g>
<g>
	<path class="human" id="Right_Lateral_Foot" fill="#B5B5B5" stroke="#000000" stroke="#FFFFFF" stroke-width="0.5" stroke-miterlimit="10" d="M177.143,729.833
		c-2.75-1.5-8.582-5.833-10.832-7.583s-9.334-1.75-11.084-1.75s-6.25-4.25-7.75-6.5s-7.5-5-10.5-5.5s-4.883-5.149-6.334-9.416
		c-1.416-4.167-2.425-9.417-2.425-9.417s-4.503,1.13-12.5,1.333c-19.674,0.5-21.499-1-28.249-4c-0.698,2.793-1,17.25-3.5,19.5
		c-7.78,7.002-8.439,25.441-4.25,34.75c4.5,10,31.588,8.188,33.25,6.75c9.25-8,16.75-7.5,19.5-7.5s21.584,5.917,28.25,7.25
		c6.455,1.291,19.083,1.5,25.333,0.917c6.022-0.562,10.917-0.167,14.925-5.416c3.25-5.084-0.75-9.001-0.75-9.001
		S179.893,731.333,177.143,729.833z"/>
</g>
<g>
	<g>
		<path class="human" id="Right_Lateral_Lower_Limb" fill="#B5B5B5" stroke="#000000" d="M141.977,600.749c1-4.125,3.809-49.979,3.809-49.979l-46.559-11.521
			c0,0-3.752,7.383-7.25,15.5c-4.418,10.251-10.072,40.242-8.084,50.584c1.088,5.66,6.586,23.263,8.209,27.791
			s-3.543,44.542-4.459,52.542c-0.742,6.477,39.592,6.796,41.073,2.813C128.955,687.834,140.977,604.874,141.977,600.749z"/>
		<path fill="#FFFFFF" d="M111.959,691.582c-10.168,0-21.594-1.307-24.202-4.231c-0.478-0.532-0.685-1.123-0.615-1.737
			c0.121-1.059,0.315-2.663,0.56-4.676c1.447-11.983,5.295-43.821,3.927-47.646c-1.519-4.234-7.108-22.044-8.229-27.865
			c-2.07-10.769,3.789-40.833,8.115-50.877c3.465-8.038,7.227-15.454,7.264-15.523l0.18-0.354l47.351,11.716l-0.024,0.416
			c-0.115,1.874-2.823,45.946-3.822,50.067c-0.616,2.541-5.547,35.923-9.15,60.298c-3.162,21.398-4.031,27.229-4.127,27.488
			C128.146,691.442,114.656,691.583,111.959,691.582z M99.494,539.83c-0.786,1.568-4.036,8.103-7.058,15.117
			c-4.26,9.886-10.028,40.014-8.052,50.291c1.059,5.512,6.459,22.896,8.188,27.717c1.277,3.563-1.242,26.314-3.875,48.102
			c-0.244,2.011-0.438,3.614-0.559,4.666c-0.037,0.329,0.084,0.646,0.368,0.963c2.047,2.298,11.692,3.897,23.456,3.897
			c9.663,0,15.869-1.158,16.285-2.279c0.119-0.514,1.953-12.921,4.076-27.284c3.805-25.753,8.541-57.803,9.166-60.389
			c0.929-3.828,3.486-44.873,3.771-49.477L99.494,539.83z"/>
	</g>
</g>
<g>
	<g>
		<path class="human" id="Right_Lateral_Knee_1_" fill="#B5B5B5" stroke="#000000" d="M155.977,534c-1.75,9-8.185,16.105-10.875,16.875
			c-2.691,0.77-45.875-11.625-45.875-11.625c7.375-18.5,9.5-37.75,9.5-37.75c2.25,3.75,13.25,7.25,21.75,9s26.75,4,26.75,4
			C156.352,520.25,157.727,525,155.977,534z"/>
		<path fill="#FFFFFF" d="M144.751,551.41L144.751,551.41c-4.919-0.001-44.001-11.202-45.663-11.68l-0.531-0.151l0.205-0.514
			c7.264-18.226,9.446-37.433,9.467-37.619l0.164-1.479l0.762,1.271c2.051,3.415,12.541,6.938,21.424,8.768
			c8.383,1.729,26.527,3.976,26.709,3.993l0.512,0.063l-0.078,0.51c-0.359,2.352-0.331,4.588-0.305,6.955
			c0.039,3.398,0.082,7.259-0.948,12.563c-1.794,9.23-8.291,16.42-11.229,17.263C145.109,551.393,144.955,551.409,144.751,551.41z
			 M99.896,538.92c4.791,1.368,40.376,11.487,44.855,11.488l0,0c0.157,0,0.21-0.02,0.212-0.02
			c2.365-0.676,8.794-7.604,10.521-16.485c1.012-5.205,0.969-9.012,0.93-12.362c-0.025-2.24-0.051-4.365,0.244-6.608
			c-3.008-0.378-18.652-2.373-26.283-3.939c-7.973-1.645-17.872-4.708-21.303-8.245C108.479,507.188,106.018,523.342,99.896,538.92z
			"/>
	</g>
</g>
<g>
	<g>
		<path class="human" id="Right_Lateral_Thigh" fill="#B5B5B5" stroke="#000000" d="M157.227,334.25c8.398,8.14,6.602,24.304,7.25,26.25
			c2.25,6.75,17.25,7.5,17.25,7.5s1,1.5,2.5,23c1.5,21.5-6.5,55-8,62s-19,61.5-19,61.5s-49.75-5.375-48.25-14.375
			c0.881-5.287,0.582-13.834-3-21c-2-4-4.345-10.25-5.375-14.375c-2.502-10,1.623-60.75-0.688-67.787
			c-2.312-7.037-14.021-23.296-8.354-52.629c2.763-14.296,12.576-22.292,23.326-25.667
			C120.15,316.339,144.255,321.682,157.227,334.25z"/>
	</g>
</g>
<g>
	<g>
		<path class="human" id="Left_median_Foot" fill="#B5B5B5" stroke="#000000" stroke="#FFFFFF" stroke-width="0.5" stroke-miterlimit="10" d="M266.719,693.5
			c-11.25-6.75-15.863-28.678-16.5-26.667c-4.166,13.167-23,8.334-34.367,4.542c-0.854-0.528,4.457,11.626,3.623,16.042
			c-0.865,4.585-5.332,7-7.666,11.334s-4.957,21.582,0.834,28.083c6.006,6.743,26.207,3.875,28.959,3.041
			c1.914-0.58,11.623-2.042,15.957-4.125c3.426-1.646,16.25,1.167,27.168,3.333c10.338,2.052,30.138,5.589,35.665,3.418
			c5.532-2.171,7.827-4.667,7.661-9.334c-2.168-6.334-15.62-7.278-29.084-12.584C285.115,705.124,271.959,697.051,266.719,693.5z"/>
	</g>
</g>
<g>
	<g>
		<path class="human" id="Right_Lateral_acromial" fill="#B5B5B5" stroke="#000000" d="M108.559,154.333c17.813,0,40.668,13.941,40.668,32.167
			S133.703,219,115.893,219c-17.813,0-45-11.774-45-30S90.746,154.333,108.559,154.333z"/>
		<path fill="#FFFFFF" d="M115.892,219.25c-18.015,0-45.25-12.065-45.25-30.25c0-8.568,4.461-17.445,12.237-24.355
			c7.443-6.614,17.043-10.562,25.679-10.562c18.533,0,40.918,14.46,40.918,32.417c0,8.789-3.575,17.052-10.065,23.265
			C133.023,215.882,124.67,219.25,115.892,219.25z M108.559,154.583c-8.517,0-17.992,3.901-25.347,10.436
			c-7.67,6.815-12.069,15.556-12.069,23.981c0,17.884,26.936,29.75,44.75,29.75c18.242,0,33.084-14.467,33.084-32.25
			C148.977,168.82,126.865,154.583,108.559,154.583z"/>
	</g>
</g>
<g>
	
		<ellipse class="human" id="Right_armpit" fill="#B5B5B5" stroke="#000000" stroke="#FFFFFF" stroke-width="0.5" stroke-miterlimit="10" cx="104.5" cy="195.125" rx="19.75" ry="15.625"/>
</g>
<g>
	<g>
		<path d="M180.314,92.625l-0.053-0.999c-2.195,0.114-5.805,0.285-6.152,0.255l-0.07,0.494l-0.122,0.485
			c0.028,0.007,0.075,0.019,0.358,0.019C174.83,92.879,176.293,92.834,180.314,92.625z"/>
	</g>
	<g>
		<path d="M179.391,95.886c-1.582-0.949-4.205-2.788-4.773-3.459c0.105-0.031,0.259-0.064,0.398-0.094
			c0.454-0.098,1.143-0.246,2.082-0.616c3.406-1.342,6.289-4.051,6.41-4.165l-0.688-0.727c-0.028,0.027-2.867,2.692-6.09,3.961
			c-0.863,0.34-1.479,0.472-1.928,0.569c-0.611,0.132-1.191,0.257-1.264,0.971c-0.111,1.115,4.775,4.083,5.334,4.417L179.391,95.886
			z"/>
	</g>
	<g>
		<g>
			<g>
				<path d="M132.042,82.237c0.974-0.659,2.126-1.983,2.094-4.553c-0.038-2.894-0.047-3.705-0.048-3.896h0.001l-0.011-0.563
					l-0.5,0.008c-0.252,0.004-0.377,0.006-0.433,0.566l-0.059,0.008l0.059-0.001c-0.056,0.561-0.04,1.676-0.012,3.892
					c0.021,1.682-0.55,2.965-1.653,3.712c-1.271,0.861-3.033,0.856-4.115,0.406c-0.78-0.323-1.662-1.803-2.517-3.234
					c-0.957-1.607-1.946-3.269-3.192-4.223c-3.814-2.918-5.739-6.826-5.722-11.615c0.013-3.37,1.005-5.751,2.948-7.077
					c2.156-1.471,5.199-1.343,7.115-0.6c2.566,0.994,3.729,3.448,3.88,4.001c0.258,0.956,1.606,1.022,1.762,1.026l0.029-1
					c-0.341-0.012-0.787-0.146-0.825-0.287c-0.229-0.851-1.548-3.537-4.482-4.673c-1.66-0.643-5.222-1.217-8.041,0.707
					c-2.231,1.523-3.371,4.18-3.386,7.899c-0.018,5.119,2.039,9.295,6.113,12.413c1.094,0.837,2.032,2.415,2.942,3.94
					c1.021,1.714,1.904,3.195,2.99,3.646c0.559,0.229,1.273,0.376,2.039,0.376C130.023,83.115,131.113,82.866,132.042,82.237z"/>
			</g>
			<g>
				<path d="M129.227,75.139c-0.926,0-2.023-0.626-2.48-1.39c-0.643-1.073-0.926-1.046-1.766-0.968
					c-0.451,0.042-1.013,0.094-1.746-0.01c-3.332-0.474-5.064-5.625-5.656-7.818c-0.666-2.463,0.203-5.536,2.017-7.146
					c1.401-1.244,3.235-1.503,5.168-0.727c6.144,2.468,4.123,8.896,4.103,8.961l-0.951-0.31c0.021-0.067,0.181-0.578,0.262-1.321
					c-0.116,0.193-0.246,0.415-0.393,0.668c-0.197,0.344-0.127,0.478,0.168,0.937c0.281,0.433,0.664,1.026,0.56,1.955
					c-0.212,1.889-0.002,2.126,0.507,2.7c0.293,0.333,0.659,0.747,1.068,1.501c0.984,1.819,0.371,2.524-0.082,2.782
					C129.775,75.082,129.51,75.139,129.227,75.139z M125.466,71.753c0.791,0,1.409,0.26,2.14,1.483
					c0.404,0.678,1.541,1.051,1.902,0.847c0.176-0.1,0.154-0.592-0.303-1.437c-0.354-0.654-0.664-1.005-0.938-1.315
					c-0.684-0.773-1-1.244-0.75-3.475c0.066-0.574-0.152-0.91-0.404-1.299c-0.297-0.46-0.705-1.091-0.194-1.978
					c0.685-1.194,1.054-1.721,1.069-1.743l0.215,0.149c-0.139-1.725-0.955-3.832-3.813-4.979c-1.58-0.634-3.01-0.447-4.13,0.547
					c-1.524,1.354-2.278,4.051-1.715,6.138c0.421,1.562,2.013,6.688,4.833,7.089c0.617,0.088,1.092,0.043,1.512,0.004
					C125.093,71.767,125.283,71.753,125.466,71.753z"/>
			</g>
			<g>
				<path d="M124.779,71.908c-0.574-1.284-0.66-2.46-0.256-3.494c0.676-1.733,2.519-2.543,2.537-2.551l-0.394-0.919
					c-0.091,0.039-2.238,0.972-3.072,3.097c-0.509,1.296-0.417,2.733,0.271,4.275L124.779,71.908z"/>
			</g>
			<g>
				<path d="M129.598,81.077l-0.386-0.923c-0.459,0.191-1.065,0.141-1.623-0.132c-0.454-0.222-0.675-0.496-0.706-0.616l-0.966,0.26
					c0.126,0.469,0.586,0.938,1.229,1.254c0.476,0.233,0.974,0.351,1.448,0.351C128.945,81.271,129.285,81.207,129.598,81.077z"/>
			</g>
		</g>
		<g>
			<path d="M163.164,112.179c-0.168-0.037-16.965-3.722-25.023-10.804c-6.322-5.556-9.385-11.836-9.104-18.667l-0.998-0.041
				c-0.295,7.147,2.881,13.694,9.438,19.459c8.255,7.252,24.776,10.879,25.476,11.03L163.164,112.179z"/>
		</g>
		<g>
			<path d="M182.162,79.667c0.104-1.5-1.334-1.479-1.729-0.958c-0.43,0.565,1.106,1.413,0.832,1.667
				c-0.541,0.5-2.854-0.252-2.791-1.688c0.084-1.896,4.532-2.5,4.771,0.5C183.246,79.188,182.139,80.005,182.162,79.667z"/>
			<g>
				<path d="M180.854,81.044c-0.433-0.063-3.824-1.077-4.531-3.124c-0.473-1.37,1.281-2.808,1.301-2.822l-0.627-0.78
					c-0.096,0.076-2.321,1.891-1.618,3.928c0.944,2.738,5.149,3.795,5.432,3.795L180.854,81.044z"/>
			</g>
			<g>
				<path d="M165.334,49.829c2.92-1.512,5.441-2.817,9.539-1.964c0.49,0.101,0.82,0.306,1.011,0.627
					c0.367,0.616,0.116,1.479,0.112,1.487l0.479,0.146l-0.479-0.147l0.957,0.295c0.015-0.052,0.384-1.283-0.207-2.284
					c-0.336-0.572-0.897-0.943-1.67-1.104c-4.445-0.926-7.244,0.522-10.203,2.055c-1.16,0.601-2.358,1.222-3.696,1.715l0.347,0.938
					C162.92,51.08,164.148,50.444,165.334,49.829z"/>
			</g>
			<g>
				<path d="M172.77,53.971c1.219-0.436,1.668,0.424,1.746,0.601l0.922-0.389c-0.279-0.67-1.267-1.775-3.004-1.153
					c-1.75,0.625-8.002,2.875-8.002,2.875l0.34,0.938C164.771,56.845,171.02,54.596,172.77,53.971z"/>
			</g>
			<g>
				<path d="M172.148,62.145l-0.012-1c-0.006,0-0.012,0-0.02,0c-1.414,0-4.584-1.745-5.4-2.458c1.551-1.552,4.99-2.022,6.031-1.709
					l0.287-0.958c-1.51-0.452-5.64,0.203-7.323,2.291c-0.146,0.18-0.167,0.423-0.058,0.649c0.422,0.87,4.586,3.186,6.467,3.186
					C172.131,62.146,172.141,62.146,172.148,62.145z"/>
			</g>
			<g>
				<path d="M171.845,62.161L171.845,62.161c-0.575,0-1.075-0.223-1.442-0.646c-0.578-0.667-0.813-1.846-0.629-3.157
					c0.213-1.528,1.486-2.441,2.592-2.441c0.719,0,1.305,0.386,1.572,1.032c0.506,1.218,0.448,2.8-0.142,3.936
					c-0.341,0.657-0.83,1.086-1.377,1.208C172.221,62.138,172.027,62.161,171.845,62.161z M172.365,56.917
					c-0.664,0-1.465,0.604-1.602,1.58c-0.141,0.998,0.014,1.924,0.395,2.362c0.18,0.206,0.397,0.301,0.688,0.301l0,0
					c0.109,0,0.229-0.014,0.354-0.042c0.252-0.057,0.511-0.309,0.709-0.693c0.371-0.716,0.563-1.989,0.105-3.092
					C172.9,57.057,172.682,56.917,172.365,56.917z"/>
			</g>
			<ellipse cx="173.152" cy="58.625" rx="1.385" ry="1.542"/>
			<g>
				<g>
					<g>
						<path d="M323.718,732.424c2.893-1.518,5.668-5.702,5.192-9.515c-0.217-1.745-1.361-4.86-6.588-6.115
							c-8.98-2.153-30.637-8.99-38.297-13.837c-1.687-1.064-3.467-2.164-5.273-3.279c-8.051-4.964-17.176-10.59-19.206-14.383
							c-3.438-6.426-15.364-34.854-14.623-53.021c0.745-18.249,0.571-34.403-0.582-54.021c-0.341-5.795-0.683-10.875-0.974-15.229
							c-0.672-10.018-1.115-16.628-0.614-18.384c0.075-0.27,0.59-0.971,1.086-1.646c3.498-4.779,11.69-15.971,1.39-39.563
							c-8.209-18.804-12.498-31.809-16.281-43.28c-1.688-5.125-3.284-9.968-5.028-14.656c-8.543-22.969-26.967-62.987-42.698-79.097
							l-1.431,1.397c15.517,15.889,33.771,55.588,42.252,78.396c1.729,4.652,3.319,9.479,5.009,14.586
							c3.801,11.518,8.104,24.565,16.354,43.458c9.84,22.539,2.125,33.079-1.172,37.58c-0.734,1.005-1.223,1.668-1.396,2.277
							c-0.598,2.087-0.189,8.117,0.543,19.063c0.292,4.35,0.632,9.424,0.975,15.212c1.146,19.547,1.32,35.642,0.578,53.817
							c-0.758,18.578,11.361,47.518,14.857,54.049c2.283,4.27,11.25,9.797,19.92,15.142c1.802,1.112,3.578,2.207,5.255,3.271
							c7.841,4.963,29.81,11.91,38.897,14.094c3.092,0.741,4.799,2.228,5.067,4.417c0.355,2.855-1.893,6.313-4.139,7.495
							c-6.9,3.624-42.521-3.33-54.222-5.615l-2.539-0.493c-4.872-0.936-8.997,0.236-14.219,1.719
							c-6.102,1.734-13.692,3.896-26.119,3.896c-6.146,0-10.556-1.565-13.106-4.653c-4.354-5.268-2.692-13.977-1.701-19.179
							c0.208-1.092,0.39-2.033,0.479-2.782c0.548-4.365,3.455-7.82,6.271-11.16c0.959-1.14,1.864-2.216,2.66-3.31
							c2.132-2.934-1.646-13.15-8.499-30.964c-3.426-8.9-7.312-18.988-9.976-27.722c-1.379-4.523-2.81-8.857-4.188-13.052
							c-5.633-17.099-10.498-31.867-8.96-49.409c0.438-4.983,2.94-13.004,5.366-20.757c3.133-10.019,5.837-18.67,4.666-21.948
							c-2.016-5.641-10.373-19.35-16.262-26.671c-2.304-2.86-14.685-14.898-15.209-15.413l-1.396,1.438
							c0.128,0.125,12.815,12.463,15.045,15.23c5.678,7.057,14.018,20.71,15.938,26.091c0.943,2.646-2.049,12.229-4.69,20.681
							c-2.455,7.854-4.993,15.977-5.448,21.179c-1.575,17.951,3.35,32.899,9.051,50.209c1.379,4.186,2.805,8.505,4.18,13.014
							c2.686,8.798,6.578,18.921,10.02,27.854c4.853,12.596,10.348,26.875,8.748,29.068c-0.753,1.033-1.637,2.084-2.572,3.191
							c-2.858,3.397-6.104,7.248-6.725,12.201c-0.086,0.687-0.26,1.6-0.462,2.655c-1.062,5.549-2.831,14.837,2.125,20.827
							c2.952,3.565,7.881,5.38,14.646,5.38c12.705,0,20.446-2.199,26.668-3.968c5.158-1.47,8.89-2.528,13.295-1.682l2.531,0.491
							c16.791,3.279,35.926,6.668,47.237,6.667C319.168,733.665,322.059,733.293,323.718,732.424z"/>
					</g>
					<g>
						<path d="M216.135,550.067c2.764-1.729,10.124-8.335,7.795-15.789c-2.672-8.559,1.504-12.87,1.688-13.059
							c0.394-0.387,0.397-1.017,0.012-1.407c-0.387-0.396-1.021-0.401-1.414-0.018c-0.215,0.211-5.25,5.293-2.19,15.074
							c1.811,5.786-3.898,11.593-6.945,13.498c-0.469,0.293-0.607,0.909-0.314,1.378c0.188,0.304,0.518,0.47,0.85,0.47
							C215.789,550.219,215.973,550.17,216.135,550.067z"/>
					</g>
					<g>
						<path d="M127.203,553.619c0.916-3.126,2.024-12.957-4.67-16.979c-7.687-4.61-7.431-10.612-7.416-10.873
							c0.035-0.549-0.381-1.021-0.931-1.062c-0.555-0.024-1.026,0.379-1.065,0.93c-0.021,0.303-0.405,7.443,8.381,12.725
							c5.197,3.117,4.792,11.253,3.781,14.696c-0.155,0.53,0.147,1.086,0.678,1.241c0.094,0.027,0.189,0.04,0.281,0.04
							C126.675,554.337,127.074,554.055,127.203,553.619z"/>
					</g>
					<g>
						<path d="M110.221,723.085c0.473-0.283,0.629-0.896,0.344-1.371c-0.283-0.474-0.896-0.626-1.371-0.345
							c-0.074,0.045-7.549,4.458-12.205,2.842c-1.43-0.498-2.422-1.515-3.026-3.113c-1.327-3.492,0.411-6.723,2.25-10.139
							c0.817-1.521,1.666-3.094,2.221-4.695c0.948-2.733,0.675-12.444,0.64-13.547c-0.019-0.551-0.477-1.021-1.031-0.968
							c-0.553,0.016-0.985,0.479-0.969,1.03c0.092,2.882,0.172,10.805-0.528,12.83c-0.501,1.447-1.274,2.882-2.091,4.396
							c-1.973,3.661-4.01,7.447-2.359,11.796c0.818,2.156,2.246,3.604,4.244,4.298c0.932,0.32,1.934,0.459,2.956,0.459
							C104.352,726.559,109.939,723.253,110.221,723.085z"/>
					</g>
					<g>
						<path d="M235.301,699.904c5.094-0.232,10.367-4.575,10.76-6.145c0.133-0.536-0.181-1.116-0.717-1.251
							c-0.535-0.13-1.066,0.154-1.199,0.689c-0.408,0.835-5.056,4.999-9.759,4.698c-3.575-0.22-6.313-2.978-8.135-8.199
							c-0.181-0.521-0.753-0.797-1.272-0.615c-0.521,0.181-0.797,0.752-0.615,1.273c2.729,7.813,7.119,9.555,10.486,9.555
							C235.002,699.914,235.152,699.91,235.301,699.904z"/>
					</g>
					<g>
						<path d="M163.436,360.489c-0.959-0.107-0.813-0.97-0.707-1.928c0.047-0.429,0.157-1.025,0.295-1.756
							c0.955-5.061,0.909-18.187-11.306-24.138c-0.865-0.422-1.169-1.172-0.747-2.037c0.424-0.868,0.172-1.091,1.039-0.671
							c14.609,7.117,15.535,19.768,14.527,25.109c-0.116,0.622-1.135,3.513-1.174,3.877c-0.1,0.894-0.855,1.553-1.732,1.553
							C163.564,360.498,163.5,360.496,163.436,360.489z"/>
					</g>
					<g>
						<path d="M293.919,315.698c0.142-0.586-0.173-0.664,0.411-0.521c0.261,0.064,0.623,0.179,1.063,0.325
							c3.059,1.001,12.158,3.37,16.831-3.711c0.333-0.501,1.04-0.165,1.542,0.167c0.508,0.332,0.832,0.524,0.501,1.026
							c-5.591,8.469-14.02,6.131-17.247,5.073c-0.375-0.122-2.08-0.986-2.306-1.041c-0.545-0.134-0.891-0.656-0.821-1.2
							C293.9,315.777,293.906,315.737,293.919,315.698z"/>
					</g>
					<g>
						<path d="M132.531,376.053c-0.897-0.352-0.228-2.243,0.123-3.14c0.133-0.337,0.698-0.504,0.971-1.067
							c1.962-4.075,5.352-15.095-3.682-19.153c-0.879-0.395-0.806-1.735-0.173-2.462c0.634-0.727,1.734-0.807,2.464-0.172
							c10.272,8.935,5.041,19.799,3.071,23.891c-0.224,0.461-0.405,0.836-0.515,1.113c-0.271,0.689-0.93,1.11-1.627,1.11
							C132.953,376.173,132.738,376.135,132.531,376.053z"/>
					</g>
					<g>
						<path d="M36.171,260.981c0.392-0.596,1.291-1.121,1.888-0.731c0.223,0.146,1.078,1.604,1.418,1.917
							c3.75,3.458,8.073,2.894,13.75,1.5c0.691-0.17,1.653-0.568,2.082,0c0.43,0.569,0.334,0.707-0.291,1.053
							c-7.875,4.364-15.086,0.635-17.746-1.412c-0.299-0.23-0.543-0.42-0.728-0.541c-0.457-0.3-0.662-0.839-0.557-1.343
							C36.021,261.271,36.08,261.119,36.171,260.981z"/>
					</g>
					<g>
						<path d="M41.768,274.5c2-0.125,2.918-0.763,5.75-1.458c0.346-0.085,2.082,0.542-0.166,2.212
							c-3.396,2.524-8.808,1.701-10.135,0.68c-0.148-0.116-0.17-2.183-0.115-2.434C37.115,273.424,40.577,274.574,41.768,274.5z"/>
					</g>
					<g>
						<path d="M198.059,263.224c-0.307-0.436-0.324-1.993,0.127-2.513c0.166-0.195,0.486-0.182,0.791-0.496
							c2.219-2.279,4.652-7.626,5.326-13.145c0.082-0.672,0.178-1.337,0.705-1.68c0.527-0.341,1.068-0.149,1.205,0.436
							c1.949,8.255-3.961,14.327-6.186,16.614c-0.252,0.258-0.457,0.467-0.598,0.627c-0.348,0.399-0.789,0.534-1.111,0.377
							C198.219,263.396,198.129,263.324,198.059,263.224z"/>
					</g>
					<g>
						<path d="M212.285,262.488c0.078-0.102,1.271-2.946,1.811-5.602c0.066-0.324,2.232-2.362,2.42-0.215
							c0.283,3.243-1.931,8.243-2.924,9.439c-0.113,0.134-2.334-0.328-2.453-0.387C211.1,265.707,212.082,262.757,212.285,262.488z"
							/>
					</g>
					<g>
						<path d="M62.572,444.737c0.527-2.141,3.029-14.707,4.275-26.641c0.51-4.89,0.631-9.639,0.729-13.448
							c0.069-2.799,0.144-5.675,0.381-6.79c0.819,0.611,2.026,3.399,2.862,5.333c1.983,4.571,4.451,10.271,8.973,12.457
							c2.318,1.117,3.63,0.563,4.32-0.101c3.468-3.321-1.969-16.473-3.094-19.076c-4.027-9.315-11.187-17.917-15.924-23.604
							c-2.22-2.666-4.516-5.423-4.621-6.131c0.096-2.611,0.008-5.948-0.087-9.48c-0.194-7.342-0.416-15.662,0.919-20.242
							c0.527-1.81,1.723-4.967,3.108-8.623c3.962-10.464,9.952-26.278,9.733-35.033c-0.113-4.516-0.361-9.588-0.58-14.064
							c-0.316-6.483-0.645-13.188-0.324-14.468c0.636-2.176,15.805-15.659,21.516-20.735c4.616-4.104,16.766-19.102,19.449-25.066
							c2.553-5.674,15.378-19.649,16.378-20.65l-1.415-1.414c-1.066,1.066-14.074,15.212-16.788,21.244
							c-2.546,5.657-14.56,20.485-18.954,24.392c-13.246,11.776-21.568,19.52-22.125,21.743c-0.375,1.497-0.154,6.443,0.266,15.054
							c0.22,4.464,0.468,9.524,0.578,14.016c0.209,8.363-5.695,23.956-9.604,34.274c-1.457,3.847-2.608,6.886-3.158,8.771
							c-1.423,4.88-1.198,13.367-0.999,20.855c0.094,3.5,0.183,6.806,0.088,9.354c-0.047,1.27,1.433,3.1,5.084,7.484
							c4.664,5.6,11.712,14.063,15.626,23.119c3.869,8.957,4.842,15.601,3.545,16.844c-0.447,0.429-1.486,0.02-2.067-0.266
							c-3.851-1.856-6.155-7.179-8.007-11.446c-1.752-4.048-3.01-6.966-5.32-6.644c-1.539,0.223-1.594,2.396-1.759,8.839
							c-0.098,3.78-0.218,8.485-0.721,13.298c-1.232,11.826-3.704,24.26-4.226,26.364c-1.185,4.802-2.716,6.077-3.448,6.077
							c-0.005,0-0.011,0-0.016-0.001c-0.646-0.016-1.497-1.062-1.875-3.026c-0.296-1.528,0.309-10.005,0.75-16.188
							c0.795-11.146,0.725-11.218,0.268-11.708l-0.313-0.328H55.56c-0.983,0-0.983,0-2.377,6.729
							c-1.255,6.073-4.591,22.215-6.729,23.188c-0.969,0.444-1.704,0.493-2.187,0.143c-0.565-0.406-1.808-2.093-1.06-8.814
							c0.026-0.235,2.346-23.647,0.547-25.262c-0.274-0.245-0.632-0.346-0.983-0.268c-0.959,0.212-1.008,0.701-1.602,6.688
							c-0.667,6.714-2.229,22.438-5.501,23.604c-1.306,0.466-2.256,0.451-2.83-0.037c-1.153-0.979-1.338-4.096-0.505-8.533
							c1.159-6.188,2.731-21.052,2.731-21.903l-0.002-0.901l-0.877-0.105c-0.896-0.107-0.991,0.236-1.575,2.54
							c-4.664,18.379-6.857,20.153-7.375,20.268c-1.556-0.415-2.617-6.477-0.472-16.348c0.943-4.353,1.644-10.484,2.317-16.421
							c0.689-6.068,1.342-11.804,2.103-13.893l3.297-8.729l0.035-0.107c1.269-5.073,1.034-32.755,0.787-62.063
							c-0.201-24.014-0.412-48.847,0.398-55.597c1.379-11.486,8.102-24.822,13.505-35.537c1.39-2.755,2.701-5.357,3.859-7.793
							c2.097-4.401,6.533-10.682,11.671-17.955c8.708-12.327,19.546-27.67,22.726-39.827l-1.936-0.506
							c-3.088,11.806-13.81,26.984-22.424,39.179c-5.19,7.349-9.674,13.695-11.842,18.25c-1.149,2.415-2.457,5.007-3.842,7.752
							c-5.473,10.855-12.285,24.365-13.705,36.199c-0.826,6.878-0.625,30.667-0.413,55.853c0.234,27.791,0.477,56.524-0.715,61.507
							l-3.28,8.687c-0.845,2.32-1.479,7.896-2.214,14.355c-0.669,5.886-1.362,11.975-2.284,16.225
							c-1.862,8.562-1.994,17.66,1.908,18.7c0.361,0.102,0.924,0.134,1.569-0.249c1.635-0.96,3.346-4.433,5.429-11.188
							c-0.434,3.473-0.914,6.933-1.349,9.25c-1.026,5.467-0.643,8.877,1.172,10.426c1.157,0.988,2.771,1.122,4.801,0.396
							c2.835-1.014,4.409-6.688,5.519-14.188c-0.195,2.738-0.42,5.328-0.641,7.318c-0.645,5.794-0.031,9.275,1.875,10.657
							c1.107,0.804,2.516,0.82,4.188,0.06c2.247-1.025,4.19-7.547,6.72-19.21c-0.6,8.405-0.987,14.455-0.674,16.077
							c0.543,2.815,1.992,4.601,3.788,4.646c0.021,0,0.045,0.001,0.067,0.001C58.527,452.338,60.95,451.316,62.572,444.737z"/>
					</g>
					<g>
						<path d="M149.886,216.875c6.083,2.625,12.249,2.208,15.666,0.625c8.565-3.969,18.502-10.498,20.593-12.233
							c0.619-0.514,1.256-1.043,1.586-1.218c0.049,0.073,0.119,0.188,0.211,0.372c5.563,11.123,14.781,25.603,19.646,29.432
							c0.765,0.602,2.546,1.877,5.017,3.643c3.838,2.746,9.098,6.506,14.725,10.726c5.357,4.019,12.32,11.107,19.055,17.962
							c6.279,6.392,12.773,13.003,17.877,17.009c6.09,4.779,15.997,12.248,22.365,16.677c1.115,0.774,3.402,0.432,8.475-0.418
							c5.998-1.005,14.214-2.383,22.133-1.476c7.173,0.82,13.17,3.418,13.947,6.043c0.103,0.339,0.406,1.371-1.383,2.854
							c-0.663,0.549-4.229-0.063-6.586-0.468c-4.369-0.752-8.885-1.527-11.025,0.235c-0.745,0.615-1.151,1.503-1.179,2.568
							c-0.043,1.88,5.766,6.319,27.014,20.651c4.856,3.276,9.055,6.105,10.053,6.956c3.352,2.85,3.973,4.813,3.438,5.7
							c-0.528,0.877-2.524,1.246-4.647,0.394c-1.348-0.539-7.088-4.108-12.15-7.256c-11.578-7.195-11.576-7.193-12.267-6.117
							c-0.587,0.91-0.587,0.91,5.497,5.595c5.906,4.55,21.604,16.635,21.496,19.182c-0.498,1.432-1.094,2.255-1.769,2.447
							c-1.459,0.415-4.071-1.574-7.334-4.222c-0.185-0.149-18.646-14.779-20.955-14.12c-0.354,0.097-0.629,0.346-0.754,0.687
							c-0.338,0.92,0.047,1.225,4.754,4.956c5.289,4.192,17.677,14.009,16.892,17.395c-0.313,1.349-0.841,2.143-1.563,2.361
							c-1.461,0.444-4.17-1.089-7.453-4.189c-4.584-4.326-16.231-13.682-16.952-14.144l-0.749-0.475l-0.563,0.658
							c-0.593,0.687-0.593,0.687,1.83,3.455c10.383,11.862,12.815,15.776,12.945,16.92c-0.078,0.042-0.191,0.06-0.269,0.068
							c-2.217,0.232-8.573-3.407-14.184-9.012c-3.638-3.635-10.388-8.638-16.345-13.054c-4.483-3.324-8.721-6.464-10.021-7.883
							c-4.154-4.53-11.063-15.83-11.136-15.944l-0.125-0.164c-2.558-2.72-13.371-8.033-27.063-14.759
							c-22.494-11.049-53.301-26.182-62.692-37.56c0,0-0.578,2.391-0.024,2.962c11.073,11.459,40.254,25.792,61.838,36.393
							c12.854,6.314,23.974,11.775,26.425,14.264c0.729,1.183,7.182,11.658,11.309,16.16c1.433,1.56,5.545,4.609,10.308,8.139
							c5.897,4.374,12.59,9.331,16.121,12.861c4.829,4.828,11.771,9.606,15.412,9.606c0.139,0,0.27-0.007,0.393-0.024
							c1.02-0.109,1.547-0.623,1.813-1.036c0.843-1.31-0.296-4.007-8.008-13.208c3.146,2.605,6.426,5.397,8.363,7.228
							c4.045,3.817,7.121,5.338,9.404,4.65c1.457-0.44,2.441-1.726,2.932-3.823c0.685-2.932-3.234-7.322-8.946-12.312
							c2.194,1.645,4.253,3.233,5.809,4.494c3.965,3.219,6.745,5.277,9.143,4.593c1.355-0.386,2.373-1.601,3.107-3.714
							c0.782-2.255-3.156-6.465-15.734-16.412c4.875,3.026,9.188,5.673,10.523,6.208c2.926,1.173,5.979,0.649,7.104-1.216
							c0.742-1.229,1.229-3.935-3.852-8.257c-1.084-0.923-5.119-3.644-10.229-7.09c-8.741-5.897-24.938-16.822-26.126-19.067
							c0.04-0.547,0.258-0.794,0.444-0.95c1.434-1.179,5.855-0.42,9.416,0.192c4.229,0.727,6.895,1.119,8.199,0.037
							c2.319-1.922,2.381-3.76,2.021-4.964c-1.204-4.056-8.725-6.669-15.641-7.461c-8.19-0.938-16.569,0.466-22.688,1.49
							c-2.982,0.5-6.363,1.065-7.002,0.749c-6.336-4.407-16.205-11.846-22.271-16.608c-5.003-3.926-11.449-10.49-17.687-16.838
							c-6.783-6.908-13.803-14.051-19.279-18.16c-5.646-4.233-10.912-8.002-14.76-10.753c-2.445-1.749-4.213-3.013-4.938-3.586
							c-4.144-3.262-13.063-16.699-19.091-28.755c-0.303-0.606-0.754-1.324-1.563-1.494c-1.014-0.206-1.82,0.467-3.305,1.696
							c-2.008,1.667-15.313,9.93-21.732,11.855c-2.5,0.75-5.791,1.458-12.333-0.583"/>
					</g>
					<path d="M125.634,143.111c-1.062-0.42-1.858-1.668-2.534-2.205c-4.875-3.875-10.434-6.97-13.264-11.854
						c-1.986-3.428-2.361-5.803-2.521-9.188c0.963-0.15,0.762-0.153,1.725-0.302c0.563,5,0.938,8.375,5.938,12.75
						c3.686,3.225,9.274,6.102,12.771,9.825C128.193,142.688,126.727,143.688,125.634,143.111z"/>
					<path d="M161.287,145.187c-4.81,0.382-22.476,0.835-27.62,0.686c-2.056-0.432-1.548-2.396-0.747-2.469
						c6.867,1.346,18.492,0.846,25.432,0.096C159.227,143.313,160.125,143.878,161.287,145.187z"/>
					<path d="M149.953,216.874c-0.873,0-19.771-17.122-20.354-16.249c-0.582,0.872-12.564,14.92-21.875,16.375
						c-4.886,0.764-5.775,0.165-5.484-1.871c0.291-2.037,2.75-1.713,8.859-2.004s14.84-15.003,16.875-15.875
						c2.036-0.873,3.139-1.417,5,1.25c1.857,2.661,17.889,16.465,17.889,16.465"/>
					<path d="M187.484,263.133c0,0-13.803,6.69-16.486,15.903c-3.78,12.997-17.164,13.19-22.399,13.19
						c-1.032,0-2.037-0.589-0.68-1.073c3.641-1.299,11.454-2.446,14.547-5.237c3.978-3.589,6.979-12.257,9.887-15.166
						c2.908-2.909,14.625-10.5,14.625-10.5L187.484,263.133z"/>
					<path d="M101.352,324.25c-1.697,1.461-10.457,9.289-7.354,11.423c7.807-8.875,14.181-14.833,20.584-15.433
						c19.47-1.823,37.615,13.04,37.887,12.885c0.576-0.33-0.021-2.739-0.375-3c-15.938-11.75-29.462-11.845-32.969-12
						C115.594,317.969,106.594,319.5,101.352,324.25z"/>
				</g>
				<g>
					<path d="M115.335,747.476c5.575-3.979,7.885-5.632,12.802-5.632c5.309,0,19.027,2.34,26.377,5.448
						c7.635,3.229,35.786,2.757,40.503,1.5c3.438-0.917,8.023-5.756,8.271-9.886c0.15-2.549-1.299-4.566-4.086-5.688
						c-2.912-1.166-6.541-1.601-10.385-2.06c-6.208-0.742-12.627-1.511-16.747-5.4c-6.892-6.506-8.875-6.494-14.78-6.479
						l-1.034,0.002c-2.672,0-3.9-1.378-5.759-3.465c-2.226-2.497-4.996-5.605-11.38-7.733c-7.104-2.369-9.402-14.235-9.402-19.611
						c0-3.104,3.842-26.896,7.557-49.908c3.129-19.385,6.084-37.688,6.789-43.854c0.977-8.519,1.653-23.313,2.104-33.104
						c0.228-4.948,0.441-9.639,0.558-10.45c0.138-0.154,0.455-0.452,0.739-0.725c3.009-2.834,12.146-11.438,10.195-29.497
						c0.314-1.646,3.218-16.722,5.562-23.571c0.203-0.593,20.315-60.731,21.58-80.946c0.869-13.906-0.431-33.08-1.127-43.381
						c-0.246-3.624-0.423-6.242-0.423-7.304c0-1.55,0.675-3.437,1.529-5.827c1.313-3.675,3.11-8.707,3.7-16.01
						c0.965-11.943-0.698-72.035-0.771-74.532c0.087-3.119,2.108-76.479-0.239-83.924c-2.052-6.495-14.313-33.579-28.207-42.288
						c-2.108-1.539-4.371-24.33-3.959-28.217c0.136-1.266,5.828-1.371,8.888-1.428c1.793-0.033,3.483-0.064,4.941-0.203
						c4.891-0.465,12.277-1.169,11.423-10.648c-0.065-0.717-0.268-1.54-0.481-2.411c-0.203-0.83-0.575-2.342-0.453-2.825
						c1.318-0.615,2.105-1.346,2.4-2.232c0.377-1.134-0.168-2.126-0.527-2.783c-0.039-0.069-0.086-0.155-0.129-0.236
						c1.682-1.295,3.953-4.15,2.229-7.168c-0.19-0.332-0.373-0.641-0.541-0.93c-0.631-1.073-1.226-2.087-1.09-2.452
						c0.271-0.732,3.344-1.78,4.501-2.175c1.759-0.6,2.435-1.763,2.688-2.634c1.131-3.852-3.223-10.063-8.096-16.202
						c-0.521-0.656-0.938-1.181-1.188-1.529c-1.895-2.62-1.395-4.268-0.705-6.548c0.349-1.154,0.744-2.461,0.81-3.99
						c0.097-2.192-4.883-22.294-17.659-31.602c-11.937-8.695-27.685-7.181-36.146-6.368c-1.166,0.112-2.181,0.21-3.006,0.261
						c-9.591,0.593-23.46,7.398-31.409,19.253c-4.881,7.28-9.505,19.477-3.811,36.234c1.002,2.948,2.488,6.198,4.063,9.638
						c5.828,12.739,13.08,28.584,4.681,46.596c-0.1,0.121-0.308,0.369-0.609,0.729c-9.803,11.701-26.387,32.59-27.32,41.013
						c-1.136,10.229-0.479,25.022,0.019,26.518l1.902-0.621c-0.31-1.107-1.088-15.277,0.068-25.676
						c0.641-5.771,10.432-20.332,26.866-39.95c0.773-0.925,0.773-0.925,0.838-1.063c8.867-18.89,1.387-35.24-4.625-48.378
						c-1.553-3.393-3.02-6.598-3.988-9.449c-4.299-12.65-3.061-24.572,3.579-34.476c7.588-11.316,20.77-17.808,29.87-18.371
						c0.847-0.052,1.883-0.151,3.074-0.266c8.197-0.789,23.455-2.255,34.777,5.993c12.668,9.23,16.889,28.73,16.84,29.898
						c-0.057,1.278-0.396,2.407-0.728,3.499c-0.726,2.397-1.474,4.875,0.997,8.297c0.264,0.364,0.699,0.914,1.244,1.601
						c2.391,3.011,8.738,11.008,7.744,14.396c-0.115,0.392-0.389,0.954-1.416,1.305c-3.474,1.185-5.218,1.992-5.729,3.371
						c-0.468,1.255,0.248,2.474,1.237,4.161c0.166,0.283,0.344,0.585,0.529,0.91c1.37,2.4-1.912,4.739-1.945,4.762
						c-1.168,0.799-0.471,2.07-0.172,2.613c0.237,0.435,0.483,0.883,0.383,1.188c-0.053,0.156-0.297,0.577-1.437,1.092
						c-1.62,0.735-1.079,2.942-0.556,5.075c0.188,0.76,0.38,1.547,0.431,2.113c0.63,6.96-3.59,7.904-9.618,8.478
						c-1.384,0.132-3.039,0.163-4.791,0.195c-5.408,0.1-10.519,0.195-10.838,3.216c-0.209,1.96,1.247,27.843,4.879,30.12
						c13.428,8.418,25.362,34.851,27.364,41.198c1.803,5.702,0.887,56.96,0.147,83.322c0.019,0.624,1.733,62.537,0.778,74.371
						c-0.566,7.039-2.314,11.928-3.593,15.497c-0.92,2.572-1.646,4.604-1.646,6.5c0,1.128,0.18,3.775,0.428,7.439
						c0.693,10.257,1.986,29.347,1.126,43.121c-1.113,17.824-18.164,70.744-21.476,80.425c-2.518,7.354-5.535,23.319-5.662,23.996
						l-0.026,0.146l0.017,0.146c1.907,17.17-6.727,25.3-9.563,27.975c-0.765,0.722-1.111,1.049-1.253,1.471
						c-0.172,0.512-0.287,2.688-0.672,11.063c-0.446,9.768-1.123,24.521-2.09,32.975c-0.699,6.114-3.651,24.396-6.776,43.757
						c-3.899,24.15-7.583,46.963-7.583,50.229c0,4.648,1.979,18.576,10.771,21.51c5.879,1.962,8.45,4.85,10.52,7.17
						c1.977,2.219,3.684,4.134,7.252,4.134l1.041-0.002c5.585-0.019,7.09-0.024,13.4,5.935c4.599,4.345,11.655,5.188,17.885,5.937
						c3.705,0.439,7.207,0.858,9.875,1.932c2.01,0.804,2.936,2.017,2.834,3.705c-0.204,3.389-4.379,7.429-6.793,8.074
						c-4.473,1.188-32.072,1.604-39.211-1.41c-7.562-3.199-21.687-5.606-27.155-5.606c-5.56,0-8.192,1.883-13.964,6.006
						c-5.68,4.061-25.35,1.942-30.896-1.489c-5.143-3.188-5.535-15.105-4.188-25.2c0.79-5.923,2.329-7.656,3.96-9.491
						c0.683-0.769,1.388-1.562,2.021-2.646c1.604-2.75,2.606-12.18,3.67-22.154c0.357-3.373,0.729-6.862,1.112-9.938l0.47-3.711
						c1.522-12.021,3.825-30.188,3.021-35.83c-0.942-6.599-5.108-18.814-6.173-21.729c-6.387-17.479,1.33-48.03,6.676-59.76
						c3.338-7.323,12.295-33.401,14.025-40.32c1.84-7.371,4.08-26.729-1.265-36.229c-4.711-8.38-6.612-16.982-5.981-27.086
						c0.507-8.089,0.354-39.733,0.307-50.138c-0.008-1.624-0.014-2.733-0.014-3.166c0-1.342-0.572-2.299-1.439-3.748
						c-1.584-2.646-4.533-7.57-7.604-21.201c-3.933-17.449,1.885-32.893,4.68-40.314c0.482-1.28,0.861-2.291,1.117-3.097
						c1.615-5.116,1.539-25.75,1.507-34.562l-0.007-2.396c0-5.365-2.344-7.146-5.313-9.401c-0.738-0.563-1.504-1.143-2.309-1.833
						c-3.357-2.878-3.299-18.567-3.264-27.942c0.004-1.037,0.008-2.032,0.008-2.969h-2c0,0.934-0.004,1.926-0.008,2.961
						c-0.054,14.219,0.207,26.251,3.961,29.469c0.851,0.729,1.675,1.355,2.401,1.907c2.82,2.142,4.522,3.436,4.522,7.808
						l0.006,2.404c0.029,7.969,0.105,29.134-1.414,33.952c-0.237,0.755-0.629,1.793-1.082,2.995
						c-2.864,7.603-8.823,23.425-4.759,41.458c3.141,13.938,6.194,19.046,7.838,21.787c0.823,1.375,1.157,1.964,1.157,2.723
						c0,0.435,0.005,1.547,0.013,3.177c0.051,10.385,0.199,41.98-0.302,50.002c-0.657,10.504,1.322,19.46,6.234,28.19
						c4.771,8.485,3.047,26.827,1.064,34.763c-1.717,6.86-10.596,32.717-13.904,39.979c-5.461,11.979-13.316,43.257-6.734,61.271
						c1.557,4.256,5.244,15.534,6.072,21.324c0.768,5.372-1.515,23.38-3.023,35.297l-0.471,3.714
						c-0.385,3.095-0.758,6.591-1.117,9.975c-0.945,8.896-2.02,18.979-3.407,21.356c-0.534,0.915-1.144,1.604-1.789,2.327
						c-1.677,1.89-3.576,4.026-4.447,10.56c-0.692,5.195-2.375,22.521,5.119,27.166c3.729,2.31,12.59,4.016,20.472,4.015
						C107.941,750.074,112.758,749.317,115.335,747.476z"/>
				</g>
			</g>
		</g>
	</g>
</g>
</svg>
