<svg xmlns="http://www.w3.org/2000/svg" viewBox="0 0 120 120"><title>male</title><rect width="120" height="120" style="fill:#fff;fill-opacity:0"/><rect x="59.96" y="66.64" width="0.07" height="0.07" style="fill:none"/><rect x="59.96" y="66.64" width="0.07" height="0.07" style="fill:none"/><path d="M91,96.43H83a5.62,5.62,0,0,1-5.62-5.62h0V86.19a27.64,27.64,0,0,0,9.41-14.52h2a6.59,6.59,0,0,0,6.6-6.58h0V51.45a4,4,0,0,0-4-4H87.58V36.35A22.44,22.44,0,0,0,65.14,14H54.85A22.43,22.43,0,0,0,32.41,36.4V47.46H28.67a4,4,0,0,0-4,4V65.09a6.62,6.62,0,0,0,6.6,6.63h2a27.64,27.64,0,0,0,9.41,14.52v4.59a5.62,5.62,0,0,1-5.62,5.62h-8a17.29,17.29,0,0,0-16.9,13.77c-.19,1.13-.36,8.59-.36,9.78h3.62c0-.76.06-7.8.18-8.53a13.68,13.68,0,0,1,13.48-11.42h8a9.17,9.17,0,0,0,4.73-1.32,27.6,27.6,0,0,0,16.35,6.44V120h3.62V105.11a27.48,27.48,0,0,0,15.87-6.68,9.22,9.22,0,0,0,5.21,1.62h8a13.68,13.68,0,0,1,13.43,10.87c.19.89.29,8.13.29,9.08h3.62c0-.82-.06-7.92-.17-8.71A17.29,17.29,0,0,0,91,96.43Zm-7-42h3.62V51.08h3.75a.36.36,0,0,1,.36.36h0V65.09a3,3,0,0,1-3,3H87.37a26.78,26.78,0,0,0,.21-3.35H84a24,24,0,0,1-47.92,0H32.42a27.1,27.1,0,0,0,.21,3.37H31.29a3,3,0,0,1-3-3V51.45a.36.36,0,0,1,.36-.36H32.4v3.34H36V36.35A18.81,18.81,0,0,1,54.84,17.57H65.15A18.81,18.81,0,0,1,84,36.34h0ZM60,92.35a27.33,27.33,0,0,0,13.65-3.62v2.12a9.06,9.06,0,0,0,1.5,5,24,24,0,0,1-30.61.45,9.2,9.2,0,0,0,1.81-5.47V88.7A27.36,27.36,0,0,0,60,92.35Z" style="fill:#a5a5a5"/></svg>