<?xml version="1.0" standalone="no"?>
<!DOCTYPE svg PUBLIC "-//W3C//DTD SVG 1.1//EN" "http://www.w3.org/Graphics/SVG/1.1/DTD/svg11.dtd" >
<svg xmlns="http://www.w3.org/2000/svg">
<metadata>Generated by IcoMoon</metadata>
<defs>
<font id="scorg-font" horiz-adv-x="1024">
<font-face units-per-em="1024" ascent="960" descent="-64" />
<missing-glyph horiz-adv-x="1024" />
<glyph unicode="&#x20;" horiz-adv-x="512" d="" />
<glyph unicode="&#xe900;" glyph-name="address-card" horiz-adv-x="1152" d="M1024 896h-896c-70.6 0-128-57.4-128-128v-640c0-70.6 57.4-128 128-128h896c70.6 0 128 57.4 128 128v640c0 70.6-57.4 128-128 128zM1088 128c0-35.2-28.8-64-64-64h-896c-35.2 0-64 28.8-64 64v640c0 35.2 28.8 64 64 64h896c35.2 0 64-28.8 64-64v-640zM944 384h-224c-8.8 0-16-7.2-16-16v-32c0-8.8 7.2-16 16-16h224c8.8 0 16 7.2 16 16v32c0 8.8-7.2 16-16 16zM944 512h-224c-8.8 0-16-7.2-16-16v-32c0-8.8 7.2-16 16-16h224c8.8 0 16 7.2 16 16v32c0 8.8-7.2 16-16 16zM944 640h-224c-8.8 0-16-7.2-16-16v-32c0-8.8 7.2-16 16-16h224c8.8 0 16 7.2 16 16v32c0 8.8-7.2 16-16 16zM416 384c88.4 0 160 71.6 160 160s-71.6 160-160 160-160-71.6-160-160 71.6-160 160-160zM416 640c53 0 96-43 96-96s-43-96-96-96-96 43-96 96 43 96 96 96zM509.6 352c-39 0-48.8-14-93.6-14s-54.6 14-93.6 14c-42.4 0-83.6-18.8-107.6-54.8-14.4-21.4-22.8-47.2-22.8-75v-46.2c0-8.8 7.2-16 16-16h32c8.8 0 16 7.2 16 16v46.2c0 14 4.2 27.6 12 39.2 11.2 16.6 31.6 26.4 54.6 26.4 24.8 0 41.6-14 93.6-14 51.8 0 68.6 14 93.6 14 23 0 43.4-10 54.6-26.4 7.8-11.6 12-25.2 12-39.2v-46.2c0-8.8 7.2-16 16-16h32c8.8 0 16 7.2 16 16v46.2c0 27.8-8.4 53.6-22.8 75-24.6 36-65.8 54.8-108 54.8z" />
<glyph unicode="&#xe901;" glyph-name="admin" d="M512 362.667v-341.333h-341.333c0 188.513 152.82 341.333 341.333 341.333v0zM512 405.333c-141.44 0-256 114.56-256 256s114.56 256 256 256 256-114.56 256-256-114.56-256-256-256zM896 234.667h42.667v-213.333h-341.333v213.333h42.667v42.667c0 70.692 57.308 128 128 128s128-57.308 128-128v0-42.667zM810.667 234.667v42.667c0 23.564-19.103 42.667-42.667 42.667s-42.667-19.103-42.667-42.667v0-42.667h85.333z" />
<glyph unicode="&#xe902;" glyph-name="application-settings" d="M546.595 872.037c-0.041 0-0.090 0-0.138 0-30.391 0-55.028-24.637-55.028-55.028s24.637-55.028 55.028-55.028c30.391 0 55.028 24.637 55.028 55.028v0c-0.078 30.311-24.59 54.872-54.875 55.028h-0.015zM567.351 796.368c-5.23-5.299-12.492-8.58-20.521-8.58-0.083 0-0.166 0-0.249 0.001h0.013c-0.041 0-0.090 0-0.138 0-16.113 0-29.175 13.062-29.175 29.175s13.062 29.175 29.175 29.175c16.096 0 29.148-13.036 29.175-29.126v-0.003c0.001-0.085 0.001-0.185 0.001-0.285 0-8.001-3.254-15.241-8.51-20.471l-0.001-0.001zM706.745 872.037c-0.007 0-0.015 0-0.023 0-30.391 0-55.028-24.637-55.028-55.028s24.637-55.028 55.028-55.028c30.391 0 55.028 24.637 55.028 55.028v0c-0.091 30.346-24.661 54.924-54.995 55.028h-0.010zM706.745 787.788v0c-16.113 0-29.175 13.062-29.175 29.175s13.062 29.175 29.175 29.175c16.097 0 29.148-13.036 29.175-29.126v-0.003c0-0.007 0-0.015 0-0.023 0-16.117-13.059-29.185-29.173-29.198h-0.001zM866.987 872.037c-30.391 0-55.028-24.637-55.028-55.028s24.637-55.028 55.028-55.028c30.391 0 55.028 24.637 55.028 55.028v0c-0.065 30.365-24.663 54.963-55.022 55.028h-0.006zM887.743 796.368c-5.241-5.298-12.512-8.58-20.549-8.58-0.024 0-0.049 0-0.073 0h0.004c-0.041 0-0.090 0-0.138 0-16.113 0-29.175 13.062-29.175 29.175s13.062 29.175 29.175 29.175c16.096 0 29.148-13.036 29.175-29.126v-0.003c0.001-0.085 0.001-0.185 0.001-0.285 0-8.001-3.254-15.241-8.51-20.471l-0.001-0.001zM510.662 222.374c60.824 0.235 110.066 49.485 110.288 110.289v0.021c0 0.014 0 0.030 0 0.046 0 60.885-49.357 110.241-110.241 110.241v0c-60.22-0.899-108.693-49.927-108.693-110.276s48.473-109.377 108.608-110.275l0.084-0.001zM510.662 385.453c0.007 0 0.015 0 0.023 0 29.181 0 52.837-23.656 52.837-52.837s-23.656-52.837-52.837-52.837c-29.181 0-52.837 23.656-52.837 52.837 0 0.008 0 0.016 0 0.024v-0.001c0.026 29.174 23.683 52.814 52.861 52.814 0 0 0 0 0 0v0zM261.258 375.628l31.919-18.474-0.3-2.975c-0.694-6.44-1.089-13.909-1.089-21.472s0.396-15.032 1.167-22.39l-0.078 0.919 0.3-2.952-2.583-1.499-29.405-17.136c-9.376-5.596-15.559-15.688-15.559-27.224 0-3.399 0.537-6.672 1.53-9.74l-0.063 0.224c14.115-45.019 30.974-74.355 62.27-108.396 5.768-6.258 14.006-10.165 23.156-10.165 5.791 0 11.217 1.565 15.877 4.295l-0.148-0.080 32.196 18.612 2.306-1.753c10.722-7.845 22.896-15.027 35.76-20.969l1.326-0.549 2.721-1.222v-36.901c0.055-14.955 10.4-27.477 24.321-30.86l0.218-0.045c18.715-4.621 40.266-7.398 62.421-7.655l0.172-0.002c22.273 0.233 43.788 2.977 64.429 7.963l-1.951-0.398c14.237 3.256 24.699 15.812 24.701 30.812v0 36.901l2.698 1.222c14.224 6.57 26.408 13.748 37.788 21.97l-0.657-0.452 2.422 1.73 2.56-1.499 29.613-17.113c4.551-2.715 10.037-4.32 15.898-4.32 9.15 0 17.387 3.912 23.128 10.156l0.020 0.022c38.677 41.514 61.786 78.414 68.705 109.803 0.44 1.984 0.692 4.263 0.692 6.6 0 11.279-5.872 21.187-14.725 26.834l-0.128 0.077-32.98 20.572 0.277 2.86c0.694 6.488 1.090 14.014 1.090 21.633s-0.396 15.145-1.168 22.56l0.078-0.927-0.277 2.837 2.306 1.522 26.753 16.905c9.067 5.589 15.020 15.465 15.020 26.731 0 3.479-0.568 6.826-1.616 9.952l0.064-0.221c-13.63 41.859-32.773 74.378-64 108.719-5.79 6.365-14.105 10.344-23.35 10.344-5.842 0-11.313-1.589-16.004-4.358l0.147 0.080-32.081-18.497-2.422 1.73c-10.711 7.756-22.883 14.898-35.724 20.838l-1.361 0.565-2.698 1.245v36.901c-0.013 15.040-10.555 27.615-24.652 30.75l-0.21 0.039c-18.81 4.589-40.468 7.341-62.728 7.586l-0.165 0.001c-22.104-0.214-43.459-2.968-63.927-7.983l1.91 0.396c-14.25-3.165-24.747-15.696-24.747-30.678 0-0.031 0-0.062 0-0.093v0.005-37.016l-2.698-1.222c-14.225-6.562-26.409-13.733-37.79-21.947l0.658 0.452-2.306-1.73-2.583 1.499-29.452 17.182c-4.51 2.612-9.923 4.153-15.696 4.153-9.214 0-17.51-3.927-23.308-10.198l-0.019-0.021c-31.089-33.718-47.925-63.054-62.27-108.235-0.931-2.843-1.468-6.115-1.468-9.513 0-11.613 6.275-21.761 15.619-27.238l0.149-0.081zM292.14 412.298c9.8 26.482 23.277 49.333 40.090 69.281l-0.283-0.345 2.468 2.975 3.344-1.937 46.933-27.076 11.647 9.986c15.606 13.475 33.946 24.306 54.011 31.519l1.202 0.377 14.576 5.166v57.934l3.828 0.646c11.954 2.186 25.712 3.436 39.761 3.436s27.806-1.25 41.166-3.645l-1.406 0.209 3.828-0.646v-57.796l14.599-5.189c21.265-7.518 39.599-18.35 55.375-32.050l-0.208 0.177 11.647-9.986 50.393 28.829 2.491-2.86c22.233-25.669 36.901-48.202 45.111-68.889l1.43-3.69-50.277-29.036 2.86-15.083c1.848-9.604 2.906-20.65 2.906-31.942s-1.057-22.338-3.079-33.043l0.173 1.101-2.86-15.175 50.277-29.013-1.43-3.69c-10.425-26.661-29.59-50.739-45.111-68.866l-2.491-2.906-3.298 1.914-46.956 27.099-11.532-9.986c-15.606-13.475-33.946-24.306-54.011-31.519l-1.202-0.377-14.599-5.166v-57.934l-3.828-0.669c-11.954-2.186-25.712-3.436-39.761-3.436s-27.806 1.25-41.166 3.645l1.406-0.209-3.828 0.669v57.796l-14.668 5.12c-21.272 7.522-39.613 18.353-55.4 32.051l0.21-0.178-11.67 10.079-50.301-29.129-2.399 3.090c-16.47 19.594-29.933 42.407-39.257 67.244l-0.526 1.599-1.338 3.644 3.344 1.96 46.91 27.076-2.86 15.083c-1.842 9.604-2.896 20.65-2.896 31.942s1.054 22.338 3.069 33.045l-0.173-1.103 2.883 15.175-50.439 29.059zM917.91 960h-811.82c-58.56-0.079-106.011-47.53-106.090-106.083v-811.828c0.079-58.56 47.53-106.011 106.083-106.090h811.828c58.56 0.079 106.011 47.53 106.090 106.083v811.828c-0.079 58.56-47.53 106.011-106.083 106.090h-0.008zM959.423 42.090c0-22.927-18.586-41.514-41.514-41.514v0h-811.82c-22.927 0-41.514 18.586-41.514 41.514v0 631.928h894.847zM959.423 738.595h-894.847v115.315c0 22.927 18.586 41.514 41.514 41.514v0h811.82c22.927 0 41.514-18.586 41.514-41.514v0z" />
<glyph unicode="&#xe903;" glyph-name="appointment-status" horiz-adv-x="896" d="M800 832h-96v112c0 8.837-7.163 16-16 16v0h-32c-8.837 0-16-7.163-16-16v0-112h-384v112c0 8.837-7.163 16-16 16v0h-32c-8.837 0-16-7.163-16-16v0-112h-96c-53.019 0-96-42.981-96-96v0-704c0-53.019 42.981-96 96-96v0h704c53.019 0 96 42.981 96 96v0 704c0 53.019-42.981 96-96 96v0zM832 32c0-17.673-14.327-32-32-32v0h-704c-17.673 0-32 14.327-32 32v0 544h768zM832 640h-768v96c0 17.673 14.327 32 32 32v0h704c17.673 0 32-14.327 32-32v0zM540.1 133.74l-6.22-25.44q-28-11.060-44.7-16.84c-10.911-3.691-23.477-5.821-36.54-5.821-0.78 0-1.559 0.008-2.336 0.023l0.116-0.002q-34 0-52.74 16.54c-11.556 9.881-18.834 24.475-18.834 40.768 0 0.433 0.005 0.865 0.015 1.296l-0.001-0.064c0.006 7.138 0.522 14.149 1.513 21.007l-0.093-0.787c0.94 6.9 2.46 14.66 4.54 23.34l23.34 82.6q3.12 11.88 5.26 22.5c1.279 5.79 2.047 12.464 2.12 19.306v0.054c0 10.54-2.18 18-6.54 22s-12.64 6.24-24.96 6.24c-6.64-0.058-13.018-1.092-19.026-2.965l0.466 0.125c-6.34-1.88-11.78-3.7-16.32-5.38l6.24 25.46q22.92 9.36 43.88 16c11.815 4.057 25.434 6.48 39.595 6.659l0.085 0.001q33.7 0 52-16.28t18.24-42.28c0-3.6-0.38-10-1.24-18.96-0.83-9.192-2.507-17.636-4.974-25.735l0.234 0.895-23.22-82.26c-1.78-5.935-3.552-13.574-4.911-21.355l-0.189-1.305c-1.213-5.66-2.031-12.274-2.274-19.035l-0.006-0.205q0-16.38 7.32-22.34t25.42-6c6.901 0.142 13.496 1.221 19.736 3.115l-0.516-0.135c6.082 1.572 11.248 3.371 16.22 5.531l-0.7-0.271zM546 479.16c0.002-0.171 0.003-0.373 0.003-0.575 0-14.335-6.268-27.206-16.213-36.021l-0.050-0.044c-9.886-9.393-23.285-15.171-38.033-15.171-0.389 0-0.777 0.004-1.164 0.012l0.058-0.001c-0.32-0.007-0.698-0.010-1.077-0.010-14.822 0-28.294 5.775-38.291 15.196l0.028-0.026c-10.088 8.845-16.422 21.758-16.422 36.151 0 0.172 0.001 0.344 0.003 0.516v-0.026c-0.001 0.135-0.002 0.295-0.002 0.454 0 14.465 6.33 27.452 16.371 36.341l0.051 0.044c10.291 9.478 24.087 15.289 39.24 15.289s28.949-5.811 39.281-15.326l-0.041 0.037c9.999-8.947 16.263-21.891 16.263-36.298 0-0.19-0.001-0.38-0.003-0.57v0.029z" />
<glyph unicode="&#xe904;" glyph-name="apt-status" d="M964 375.5v492.5c0 16.57-13.43 30-30 30h-152v32c0 16.57-13.43 30-30 30s-30-13.43-30-30v-32h-120v32c0 16.57-13.43 30-30 30s-30-13.43-30-30v-32h-120v32c0 16.57-13.43 30-30 30s-30-13.43-30-30v-32h-120v32c0 16.57-13.43 30-30 30s-30-13.43-30-30v-32h-152c-16.57 0-30-13.43-30-30v-782c0-16.57 13.43-30 30-30h499.609c48.5-72.305 130.977-120 224.391-120 148.875 0 270 121.125 270 270 0 64.141-22.5 123.125-60 169.5zM182 838v-30c0-16.57 13.43-30 30-30s30 13.43 30 30v30h120v-30c0-16.57 13.43-30 30-30s30 13.43 30 30v30h120v-30c0-16.57 13.43-30 30-30s30 13.43 30 30v30h120v-30c0-16.57 13.43-30 30-30s30 13.43 30 30v30h122v-120h-844v120zM60 116v542h844v-227.609c-42.93 28.789-94.539 45.609-150 45.609-94.797 0-178.328-49.117-226.516-123.227-4.055 2.047-8.625 3.227-13.484 3.227h-60c-16.57 0-30-13.43-30-30s13.43-30 30-30h45.445c-6.773-19.109-11.461-39.203-13.766-60h-31.68c-16.57 0-30-13.43-30-30s13.43-30 30-30h31.68c2.305-20.797 6.984-40.891 13.766-60zM754-4c-115.797 0-210 94.203-210 210s94.203 210 210 210 210-94.203 210-210-94.203-210-210-210zM874 236h-90v90c0 16.57-13.43 30-30 30s-30-13.43-30-30v-120c0-16.57 13.43-30 30-30h120c16.57 0 30 13.43 30 30s-13.43 30-30 30zM272 596h-60c-16.57 0-30-13.43-30-30s13.43-30 30-30h60c16.57 0 30 13.43 30 30s-13.43 30-30 30zM272 476h-60c-16.57 0-30-13.43-30-30s13.43-30 30-30h60c16.57 0 30 13.43 30 30s-13.43 30-30 30zM272 356h-60c-16.57 0-30-13.43-30-30s13.43-30 30-30h60c16.57 0 30 13.43 30 30s-13.43 30-30 30zM454 536h60c16.57 0 30 13.43 30 30s-13.43 30-30 30h-60c-16.57 0-30-13.43-30-30s13.43-30 30-30zM454 416h60c16.57 0 30 13.43 30 30s-13.43 30-30 30h-60c-16.57 0-30-13.43-30-30s13.43-30 30-30zM272 236h-60c-16.57 0-30-13.43-30-30s13.43-30 30-30h60c16.57 0 30 13.43 30 30s-13.43 30-30 30zM694 536h60c16.57 0 30 13.43 30 30s-13.43 30-30 30h-60c-16.57 0-30-13.43-30-30s13.43-30 30-30z" />
<glyph unicode="&#xe905;" glyph-name="arrow" horiz-adv-x="896" d="M459.8 12.202l39.598 39.598c9.372 9.372 9.372 24.568 0 33.942l-310.26 310.258h682.862c13.254 0 24 10.746 24 24v56c0 13.254-10.746 24-24 24h-682.862l310.26 310.26c9.372 9.372 9.372 24.568 0 33.942l-39.598 39.596c-9.372 9.372-24.568 9.372-33.942 0l-418.828-418.828c-9.372-9.372-9.372-24.568 0-33.942l418.828-418.828c9.372-9.372 24.568-9.372 33.942 0.002z" />
<glyph unicode="&#xe906;" glyph-name="ban" d="M512 944c-273.934 0-496-222.066-496-496s222.066-496 496-496 496 222.066 496 496-222.066 496-496 496zM206.53 142.53c-161.244 161.244-168.298 417.914-21.8 587.486l609.288-609.286c-169.608-146.528-426.276-139.412-587.488 21.8zM839.27 165.984l-609.286 609.286c169.608 146.526 426.274 139.41 587.486-21.8 161.244-161.242 168.298-417.914 21.8-587.486z" />
<glyph unicode="&#xe907;" glyph-name="bell" horiz-adv-x="896" d="M448 0c-35.32 0-64 28.76-64 64.060h-64c0-70.62 57.44-128.060 128-128.060s128 57.44 128 128.060h-64c0-35.3-28.68-64.060-64-64.060zM866.76 290.38c-55.92 53.24-98.68 108.96-98.68 297.82 0 159.18-126.78 289-288.080 304.7v35.1c0 17.68-14.32 32-32 32s-32-14.32-32-32v-35.12c-161.3-15.7-288.080-145.5-288.080-304.68 0-188.84-42.78-244.58-98.7-297.82-27.94-26.6-36.76-66.82-22.5-102.46 14.56-36.4 49.6-59.92 89.28-59.92h704c39.68 0 74.72 23.54 89.28 59.94 14.26 35.64 5.42 75.84-22.52 102.44zM800 192h-704c-28.46 0-42.68 32.94-22.64 52.020 69.72 66.38 118.56 140.68 118.56 344.16 0 134.76 114.54 243.82 256.080 243.82 141.52 0 256.080-109.040 256.080-243.8 0-202.7 48.42-277.4 118.56-344.16 20.12-19.18 5.7-52.040-22.64-52.040z" />
<glyph unicode="&#xe908;" glyph-name="billing" d="M832.876 672.317h-76.676v254.489c0 18.332-14.862 33.194-33.194 33.194h-422.009c-18.332 0-33.194-14.862-33.194-33.194v-254.489h-76.679c-18.332 0-33.194-14.862-33.194-33.194v-257.142c0-18.332 14.862-33.194 33.194-33.194h3.74v-379.594c0-18.332 14.862-33.194 33.194-33.194h567.887c18.332 0 33.194 14.862 33.194 33.194v379.596h3.738c18.332 0 33.194 14.862 33.194 33.194v257.14c0 18.334-14.86 33.194-33.194 33.194zM689.812 672.317h-184.449v221.295h184.449v-221.295zM461.103 893.612v-221.295h-48.685v221.295h48.685zM334.191 893.612h33.969v-221.295h-33.969v221.295zM224.316 605.928h575.367v-190.754h-575.367v190.754zM762.75 2.388h-501.498v346.4h501.498v-346.4zM288.491 435.653h447.016c12.222 0 22.129 9.907 22.129 22.129v105.542c0 12.222-9.907 22.129-22.129 22.129h-447.016c-12.222 0-22.129-9.907-22.129-22.129v-105.542c0-12.222 9.91-22.129 22.129-22.129zM497.504 479.912l61.283 61.283h54.695l-61.283-61.283h-54.695zM713.377 479.912h-98.587l61.283 61.283h37.304v-61.283zM310.621 541.195h185.576l-61.283-61.283h-124.292v61.283zM323.9 264.107h66.388c12.222 0 22.129 9.907 22.129 22.129s-9.907 22.129-22.129 22.129h-66.388c-12.222 0-22.129-9.907-22.129-22.129s9.907-22.129 22.129-22.129zM323.9 190.341h66.388c12.222 0 22.129 9.907 22.129 22.129s-9.907 22.129-22.129 22.129h-66.388c-12.222 0-22.129-9.907-22.129-22.129s9.907-22.129 22.129-22.129zM323.9 116.577h66.388c12.222 0 22.129 9.907 22.129 22.129s-9.907 22.129-22.129 22.129h-66.388c-12.222 0-22.129-9.907-22.129-22.129s9.907-22.129 22.129-22.129zM390.289 87.071h-66.388c-12.222 0-22.129-9.907-22.129-22.129s9.907-22.129 22.129-22.129h66.388c12.222 0 22.129 9.907 22.129 22.129s-9.907 22.129-22.129 22.129zM478.807 264.107h66.388c12.222 0 22.129 9.907 22.129 22.129s-9.907 22.129-22.129 22.129h-66.388c-12.222 0-22.129-9.907-22.129-22.129s9.907-22.129 22.129-22.129zM478.807 190.341h66.388c12.222 0 22.129 9.907 22.129 22.129s-9.907 22.129-22.129 22.129h-66.388c-12.222 0-22.129-9.907-22.129-22.129s9.907-22.129 22.129-22.129zM478.807 116.577h66.388c12.222 0 22.129 9.907 22.129 22.129s-9.907 22.129-22.129 22.129h-66.388c-12.222 0-22.129-9.907-22.129-22.129s9.907-22.129 22.129-22.129zM478.807 42.812h66.388c12.222 0 22.129 9.907 22.129 22.129s-9.907 22.129-22.129 22.129h-66.388c-12.222 0-22.129-9.907-22.129-22.129s9.907-22.129 22.129-22.129zM633.713 264.107h66.388c12.222 0 22.129 9.907 22.129 22.129s-9.907 22.129-22.129 22.129h-66.388c-12.222 0-22.129-9.907-22.129-22.129s9.907-22.129 22.129-22.129zM633.713 190.341h66.388c12.222 0 22.129 9.907 22.129 22.129s-9.907 22.129-22.129 22.129h-66.388c-12.222 0-22.129-9.907-22.129-22.129s9.907-22.129 22.129-22.129zM633.713 116.577h66.388c12.222 0 22.129 9.907 22.129 22.129s-9.907 22.129-22.129 22.129h-66.388c-12.222 0-22.129-9.907-22.129-22.129s9.907-22.129 22.129-22.129zM633.713 42.812h66.388c12.222 0 22.129 9.907 22.129 22.129s-9.907 22.129-22.129 22.129h-66.388c-12.222 0-22.129-9.907-22.129-22.129s9.907-22.129 22.129-22.129z" />
<glyph unicode="&#xe909;" glyph-name="briefcase" d="M928 704h-224v144c0 26.52-21.48 48-48 48h-288c-26.52 0-48-21.48-48-48v-144h-224c-53.020 0-96-42.98-96-96v-512c0-53.020 42.98-96 96-96h832c53.020 0 96 42.98 96 96v512c0 53.020-42.98 96-96 96zM384 832h256v-128h-256v128zM960 96c0-17.64-14.36-32-32-32h-832c-17.64 0-32 14.36-32 32v288h320v-80c0-26.5 21.5-48 48-48h160c26.5 0 48 21.5 48 48v80h320v-288zM448 320v64h128v-64h-128zM960 448h-896v160c0 17.64 14.36 32 32 32h832c17.64 0 32-14.36 32-32v-160z" />
<glyph unicode="&#xe90a;" glyph-name="bring-forward" d="M704 352v512c0 53.019-42.981 96-96 96v0h-512c-53.019 0-96-42.981-96-96v0-512c0-53.019 42.981-96 96-96v0h512c53.019 0 96 42.981 96 96v0zM64 352v512c0 17.673 14.327 32 32 32v0h512c17.673 0 32-14.327 32-32v0-512c0-17.673-14.327-32-32-32v0h-512c-17.673 0-32 14.327-32 32v0zM928 640h-160v-64h160c17.673 0 32-14.327 32-32v0-512c0-17.673-14.327-32-32-32v0h-512c-17.673 0-32 14.327-32 32v0 160h-64v-160c0-53.019 42.981-96 96-96v0h512c53.019 0 96 42.981 96 96v0 512c0 53.019-42.981 96-96 96v0zM832 128h-320v64h-64v-96c0-17.673 14.327-32 32-32v0h384c17.673 0 32 14.327 32 32v0 384c0 17.673-14.327 32-32 32v0h-96v-64h64z" />
<glyph unicode="&#xe90b;" glyph-name="calendar-alt" horiz-adv-x="896" d="M800 832h-96v104c0 13.2-10.8 24-24 24h-16c-13.2 0-24-10.8-24-24v-104h-384v104c0 13.2-10.8 24-24 24h-16c-13.2 0-24-10.8-24-24v-104h-96c-53 0-96-43-96-96v-704c0-53 43-96 96-96h704c53 0 96 43 96 96v704c0 53-43 96-96 96zM96 768h704c17.6 0 32-14.4 32-32v-96h-768v96c0 17.6 14.4 32 32 32zM800 0h-704c-17.6 0-32 14.4-32 32v544h768v-544c0-17.6-14.4-32-32-32zM296 320h-80c-13.2 0-24 10.8-24 24v80c0 13.2 10.8 24 24 24h80c13.2 0 24-10.8 24-24v-80c0-13.2-10.8-24-24-24zM488 320h-80c-13.2 0-24 10.8-24 24v80c0 13.2 10.8 24 24 24h80c13.2 0 24-10.8 24-24v-80c0-13.2-10.8-24-24-24zM680 320h-80c-13.2 0-24 10.8-24 24v80c0 13.2 10.8 24 24 24h80c13.2 0 24-10.8 24-24v-80c0-13.2-10.8-24-24-24zM488 128h-80c-13.2 0-24 10.8-24 24v80c0 13.2 10.8 24 24 24h80c13.2 0 24-10.8 24-24v-80c0-13.2-10.8-24-24-24zM296 128h-80c-13.2 0-24 10.8-24 24v80c0 13.2 10.8 24 24 24h80c13.2 0 24-10.8 24-24v-80c0-13.2-10.8-24-24-24zM680 128h-80c-13.2 0-24 10.8-24 24v80c0 13.2 10.8 24 24 24h80c13.2 0 24-10.8 24-24v-80c0-13.2-10.8-24-24-24z" />
<glyph unicode="&#xe90c;" glyph-name="calendar-day" horiz-adv-x="896" d="M800 832h-96v112c0 8.8-7.2 16-16 16h-32c-8.8 0-16-7.2-16-16v-112h-384v112c0 8.8-7.2 16-16 16h-32c-8.8 0-16-7.2-16-16v-112h-96c-53 0-96-43-96-96v-704c0-53 43-96 96-96h704c53 0 96 43 96 96v704c0 53-43 96-96 96zM832 32c0-17.6-14.4-32-32-32h-704c-17.6 0-32 14.4-32 32v544h768v-544zM832 640h-768v96c0 17.6 14.4 32 32 32h704c17.6 0 32-14.4 32-32v-96zM224 192h192c17.6 0 32 14.4 32 32v192c0 17.6-14.4 32-32 32h-192c-17.6 0-32-14.4-32-32v-192c0-17.6 14.4-32 32-32zM256 384h128v-128h-128v128z" />
<glyph unicode="&#xe90d;" glyph-name="calendar-minus" horiz-adv-x="896" d="M800 832h-96v104c0 13.2-10.8 24-24 24h-16c-13.2 0-24-10.8-24-24v-104h-384v104c0 13.2-10.8 24-24 24h-16c-13.2 0-24-10.8-24-24v-104h-96c-53 0-96-43-96-96v-704c0-53 43-96 96-96h704c53 0 96 43 96 96v704c0 53-43 96-96 96zM96 768h704c17.6 0 32-14.4 32-32v-96h-768v96c0 17.6 14.4 32 32 32zM800 0h-704c-17.6 0-32 14.4-32 32v544h768v-544c0-17.6-14.4-32-32-32zM616 256h-336c-13.2 0-24 10.8-24 24v16c0 13.2 10.8 24 24 24h336c13.2 0 24-10.8 24-24v-16c0-13.2-10.8-24-24-24z" />
<glyph unicode="&#xe90e;" glyph-name="calling" d="M350.28 408.64c-155.19-13.073-277.958-135.847-290.941-289.874l-0.079-1.166c13.062 155.193 135.829 277.967 289.854 290.961l1.166 0.079zM59.3 117.6h634c-13.062 155.193-135.829 277.967-289.854 290.961l-1.166 0.079v53.040h50.16v52h-152.32v-52h50.16v-53.040c-155.174-13.092-277.921-135.86-290.901-289.875l-0.079-1.165zM661.080 13.66v51.96h-569.080v-51.98h-81.32v-51.98h731.2v51.98l-80.8 0.020zM830.1 834.84c-109.5 0-113.9-1.48-215.58-7-43.28-2.3-52.3-4-77-12.42-131.82-44.56-273.32-163.24-276-177.52-6-33.060 30.16-47.32 57.46-45.62 51.78 3.2 119.86 54.92 185.48 84.64 80.56 36.46 205.82 7.080 205.84 7.080-19.32-9.080-97.86-27.78-113.7-34.72-84-37-76.9-114-36.86-113.46 52.86 0.9 84 13.88 189.5 28.26 80 10.88 174.62 6.9 220 24.24 16.48 6.3 35.54 21.86 54.76 41.5v330.18s-145.86-125.16-193.9-125.16z" />
<glyph unicode="&#xe90f;" glyph-name="camera" d="M648.6 832c6.6 0 12.6-4.2 15-10.4l44.2-117.6h220.2c17.6 0 32-14.4 32-32v-576c0-17.6-14.4-32-32-32h-832c-17.6 0-32 14.4-32 32v576c0 17.6 14.4 32 32 32h220.4l40.2 107.2c4.6 12.4 16.6 20.8 30 20.8h262zM648.6 896h-262c-40 0-75.8-24.8-89.8-62.2l-24.8-65.8h-176c-53 0-96-43-96-96v-576c0-53 43-96 96-96h832c53 0 96 43 96 96v576c0 53-43 96-96 96h-176l-28.6 76c-11.6 31.4-41.4 52-74.8 52zM512 144c-132.4 0-240 107.6-240 240s107.6 240 240 240 240-107.6 240-240-107.6-240-240-240zM512 560c-97 0-176-79-176-176s79-176 176-176 176 79 176 176-79 176-176 176z" />
<glyph unicode="&#xe910;" glyph-name="change-password" horiz-adv-x="1152" d="M864.6 960c-159 0.4-288.6-129-288.6-288v-96h-480c-53 0-96-43-96-96v-448c0-53 43-96 96-96h704c53 0 96 43 96 96v448c0 53-43 96-96 96h-128v93.6c0 105.6 84.2 193.4 190 194.4 106.8 1.2 194-85.4 194-192v-112c0-26.6 21.4-48 48-48s48 21.4 48 48v109.2c0 159.2-128 290.4-287.4 290.8zM800 480v-448h-704v448h704zM450 136c-31 0-56 25-56 56v128c0 31 25 56 56 56s56-25 56-56v-128c0-31-25-56-56-56z" />
<glyph unicode="&#xe911;" glyph-name="chart-pie-alt" d="M922.58 384h-474.58v474.58c0 17.66-14.36 32.42-31.48 32.42-1.38 0-2.8-0.1-4.22-0.3-238.14-33.64-420.22-241.56-412.040-490.84 8.14-248.060 215.56-455.46 463.6-463.6 5.38-0.18 10.78-0.26 16.14-0.26 242.080 0 441.78 179.32 474.7 412.32 2.66 18.9-13.040 35.68-32.12 35.68zM480 0c-4.66 0-9.36 0.080-14.040 0.24-214.48 7.040-394.7 187.26-401.74 401.74-6.54 199.98 128.68 373.56 319.78 418.36v-500.34h500.3c-43.76-184.86-211.32-320-404.3-320zM577.6 959.92c-0.7 0.060-1.4 0.080-2.080 0.080-17.32 0-31.52-14.88-31.52-32.46v-447.54h447.54c18.28 0 33.64 15.38 32.4 33.6-16.5 238.92-207.42 429.84-446.34 446.32zM608 544v348.2c178.5-27.62 320.56-169.7 348.2-348.2h-348.2z" />
<glyph unicode="&#xe912;" glyph-name="chat" horiz-adv-x="1152" d="M1139.8 77.8c-1 0.8-45.2 48.4-75.8 109.8 55 54.2 88 122.2 88 196.4 0 160-153 292.2-352.4 315.8-62.8 115.2-211 196.2-383.6 196.2-229.8 0-416-143.2-416-320 0-74 33-142 88-196.4-30.6-61.4-74.6-109-75.4-109.8-12.6-13.4-16.2-33-8.8-50 7.2-17 24-28 42.4-28 107 0 193.4 40.4 250.4 77.6 18.2-4.2 36.8-7.4 56-9.6 63-115 211-196 383.6-196 41.6 0 81.6 4.8 119.6 13.6 57-37 143.2-77.6 250.4-77.6 18.4 0 35 11 42.4 28 7.2 17 3.8 36.6-8.8 50zM310.8 332l-26.4 6-22.8-14.8c-40.2-26.2-101-56.4-175.4-65 17.6 22.6 40.4 55.2 59 92.8l20.8 41.6-33 32.6c-31.6 31-69 82.4-69 150.8 0 141.2 158 256 352 256s352-114.8 352-256-158-256-352-256c-35.4 0-70.8 4-105.2 12zM890.4 131.2l-22.8 14.8-26.4-6.2c-34.4-8-69.8-12-105.2-12-130.2 0-244 51.8-304.8 128.6 222.6 6.4 400.8 146.8 400.8 319.6 0 19-2.6 37.4-6.6 55.4 150.8-29 262.6-128.8 262.6-247.4 0-68.4-37.4-119.8-69-150.8l-33-32.6 20.6-41.4c18.8-37.8 41.6-70.4 59-92.8-74.2 8.4-135 38.8-175.2 64.8z" />
<glyph unicode="&#xe913;" glyph-name="check" horiz-adv-x="896" d="M827.010 776.098l-560.030-560.030-197.99 197.99c-9.372 9.372-24.568 9.372-33.942 0l-22.626-22.626c-9.372-9.372-9.372-24.568 0-33.942l237.588-237.588c9.372-9.372 24.568-9.372 33.942 0l599.626 599.626c9.372 9.372 9.372 24.568 0 33.942l-22.628 22.628c-9.372 9.372-24.568 9.372-33.94 0z" />
<glyph unicode="&#xe914;" glyph-name="chevron-double-right" d="M955 414l-388.8-388.6c-18.8-18.8-49.2-18.8-67.8 0l-45.4 45.4c-18.8 18.8-18.8 49 0 67.8l308 309.4-308 309.4c-18.6 18.8-18.6 49 0 67.8l45.4 45.4c18.8 18.8 49.2 18.8 67.8 0l388.8-388.6c18.6-18.8 18.6-49.2 0-68zM571 482l-388.8 388.6c-18.8 18.8-49.2 18.8-67.8 0l-45.4-45.4c-18.8-18.8-18.8-49 0-67.8l308-309.4-308-309.4c-18.6-18.8-18.6-49 0-67.8l45.4-45.4c18.8-18.8 49.2-18.8 67.8 0l388.8 388.6c18.6 18.8 18.6 49.2 0 68z" />
<glyph unicode="&#xe915;" glyph-name="clipboard-list" horiz-adv-x="768" d="M560 480h-224c-8.8 0-16-7.2-16-16v-32c0-8.8 7.2-16 16-16h224c8.8 0 16 7.2 16 16v32c0 8.8-7.2 16-16 16zM560 288h-224c-8.8 0-16-7.2-16-16v-32c0-8.8 7.2-16 16-16h224c8.8 0 16 7.2 16 16v32c0 8.8-7.2 16-16 16zM224 496c-26.6 0-48-21.4-48-48s21.4-48 48-48 48 21.4 48 48-21.4 48-48 48zM224 304c-26.6 0-48-21.4-48-48s21.4-48 48-48 48 21.4 48 48-21.4 48-48 48zM672 832h-177.2c0.8 5.2 1.2 10.6 1.2 16 0 61.8-50.2 112-112 112s-112-50.2-112-112c0-5.4 0.4-10.8 1.2-16h-177.2c-53 0-96-43-96-96v-704c0-53 43-96 96-96h576c53 0 96 43 96 96v704c0 53-43 96-96 96zM384 896c26.6 0 48-21.4 48-48s-21.4-48-48-48-48 21.4-48 48 21.4 48 48 48zM704 32c0-17.6-14.4-32-32-32h-576c-17.6 0-32 14.4-32 32v704c0 17.6 14.4 32 32 32h96v-40c0-13.2 10.8-24 24-24h336c13.2 0 24 10.8 24 24v40h96c17.6 0 32-14.4 32-32v-704z" />
<glyph unicode="&#xe916;" glyph-name="clipboard-list-check" horiz-adv-x="768" d="M672 832h-177.2c0.8 5.2 1.2 10.6 1.2 16 0 61.8-50.2 112-112 112s-112-50.2-112-112c0-5.4 0.4-10.8 1.2-16h-177.2c-53 0-96-43-96-96v-704c0-53 43-96 96-96h576c53 0 96 43 96 96v704c0 53-43 96-96 96zM384 896c26.6 0 48-21.4 48-48s-21.4-48-48-48-48 21.4-48 48 21.4 48 48 48zM704 32c0-17.6-14.4-32-32-32h-576c-17.6 0-32 14.4-32 32v704c0 17.6 14.4 32 32 32h96v-40c0-13.2 10.8-24 24-24h336c13.2 0 24 10.8 24 24v40h96c17.6 0 32-14.4 32-32v-704zM224 304c-26.6 0-48-21.4-48-48s21.4-48 48-48 48 21.4 48 48-21.4 48-48 48zM560 288h-224c-8.8 0-16-7.2-16-16v-32c0-8.8 7.2-16 16-16h224c8.8 0 16 7.2 16 16v32c0 8.8-7.2 16-16 16zM252.4 419.2l128.4 127.2c4.2 4.2 4.2 11 0 15.2l-25.2 25.4c-4.2 4.2-11 4.2-15.2 0l-95.2-94.4-41.2 41.8c-4.2 4.2-11 4.2-15.2 0l-25.4-25.2c-4.2-4.2-4.2-11 0-15.2l74.2-74.8c3.8-4.2 10.6-4.2 14.8 0zM560 480h-155.2l-64.6-64h219.8c8.8 0 16 7.2 16 16v32c0 8.8-7.2 16-16 16z" />
<glyph unicode="&#xe917;" glyph-name="clock" d="M512 944c-274 0-496-222-496-496s222-496 496-496 496 222 496 496-222 496-496 496zM944 448c0-237.4-192.2-432-432-432-237.4 0-432 192.2-432 432 0 237.4 192.2 432 432 432 237.4 0 432-192.2 432-432zM646.2 271.4l-162.4 118c-6.2 4.6-9.8 11.8-9.8 19.4v319.2c0 13.2 10.8 24 24 24h28c13.2 0 24-10.8 24-24v-292.6l141-102.6c10.8-7.8 13-22.8 5.2-33.6l-16.4-22.6c-7.8-10.6-22.8-13-33.6-5.2z" />
<glyph unicode="&#xe918;" glyph-name="cogs" horiz-adv-x="1280" d="M1077.2 567.2l-5 7.8c-8.2-0.6-16.2-0.6-24.4 0l-5-8c-11.6-18.4-34.2-26.8-55-20.2-27.6 8.6-46 17.6-68.6 36.2-18 14.8-22.4 40.6-10.8 60.8l5 8.6c-4.6 6.8-8.6 13.8-12.2 21.2h-18.2c-23.2 0-42.8 16.4-47.2 39.2-5.2 27.4-5.4 48.4 0.2 77 4.2 22.6 24.2 39 47.2 39h18c3.6 7.4 7.6 14.4 12.2 21.2l-5.2 9c-11.6 20-7.2 45.4 10.4 60.6 21.2 18.2 39.4 28.6 67 38 21.6 7.4 45.4-1.4 57-21.2l5.2-8.8c8.2 0.6 16.2 0.6 24.4 0l5.2 8.8c11.6 19.8 35.4 28.6 57.2 21 26.6-9 44.6-19.2 67-38.2 17.6-15 21.8-40.4 10.2-60.4l-5.2-8.8c4.6-6.8 8.6-13.8 12.2-21.2h10.2c23.2 0 42.8-16.4 47.2-39.2 5.2-27.4 5.4-48.4-0.2-77-4.2-22.6-24.2-39-47.2-39h-10c-3.6-7.4-7.6-14.4-12.2-21.2l5-8.6c11.8-20.4 7-46.2-11-61-21.4-17.6-39.8-26.8-68-35.8-21-6.6-43.8 1.6-55.4 20.2zM1101.6 636.2l21.2-36.6c13.4 5.6 25.8 12.8 37.4 21.6l-21.2 36.6 12.8 15c9.6 11.4 17.2 24.2 22 38.2l6.6 18.6h42.2c1.8 14.2 1.8 28.8 0 43h-42.2l-6.6 18.6c-5 14-12.4 26.8-22 38.2l-12.8 15 21 36.8c-11.4 8.8-24 16-37.4 21.6l-21.2-36.6-19.4 3.6c-14.6 2.8-29.6 2.8-44.2 0l-19.4-3.6-21.2 36.6c-13.2-5.4-25.8-12.8-37.2-21.6l21.2-36.6-12.8-15c-9.6-11.4-17.2-24.2-22-38.2l-6.6-18.6h-42.2c-1.8-14.2-1.8-28.8 0-43h42.2l6.6-18.6c5-14 12.4-26.8 22-38.2l12.8-15-21.2-36.8c11.4-8.8 24-16 37.4-21.6l21.2 36.6 19.4-3.6c14.6-2.8 29.6-2.8 44.2 0l19.4 3.6zM290.6 51.2v63.2c-25.8 11-50.2 25.2-72.8 42.2l-55-31.8c-19.6-11.2-44.2-7.4-59.4 9.2-48.4 52.6-77 99-101.2 176.2-6.8 21.4 2.2 44.6 21.6 56l54.6 31.8c-3.4 28-3.4 56.2 0 84.2l-54.6 31.6c-19.4 11.2-28.4 34.6-21.6 56 24.2 76.8 52.4 123.2 101.2 176.2 15.2 16.6 40 20.4 59.4 9.2l54.8-31.8c22.6 17 47 31 72.8 42.2v63.2c0 22.6 15.6 42 37.6 46.8 69.4 15.6 124 17.4 203.4 0 22-4.8 37.8-24.4 37.8-46.8v-63.2c25.8-11 50.2-25.2 72.8-42l54.8 31.6c19.6 11.2 44.4 7.4 59.6-9.2 53.8-59.2 83-111.8 104.2-177 6.8-21-1.6-43.8-20.4-55.4l-50-31.6c3.4-28 3.4-56.2 0-84.2l56.2-35c17.2-10.8 26-31.2 21.6-51-13.8-62.6-66-129.2-111.8-178.4-15.2-16.4-39.8-20-59.2-8.8l-55 31.8c-22.6-17-47-31-72.8-42.2v-63.2c0-22.4-15.6-42-37.6-46.8-75-16.6-129.8-16.4-203.8 0-21.6 5-37.2 24.6-37.2 47zM354.6 63.6c49.6-10 101-10 150.6 0v95.4l21.4 7.6c33.6 11.8 64.6 29.8 91.8 53l17.2 14.8 82.8-47.8c33.6 38.2 68 82.6 84.2 130.4l-82.8 47.8 4.2 22.2c6.4 35.2 6.4 71 0 106.2l-4.2 22.2 82.8 47.8c-16.2 47.8-50.6 92.4-84.2 130.4l-82.8-47.8-17.2 14.8c-27.2 23.4-58 41.2-91.8 53l-21.4 7.6v95.2c-49.6 10-101 10-150.6 0v-95.4l-21.4-7.6c-33.6-11.8-64.6-29.8-91.8-53l-17.2-14.8-82.8 47.8c-32.349-36.632-58.026-80.034-74.584-127.701l-0.816-2.699 82.8-47.8-4.2-22.2c-6.4-35.2-6.4-71 0-106.2l4.2-22.2-82.8-47.8c16.2-47.8 41.8-92.4 75.4-130.4l82.8 47.8 17.2-14.8c27.2-23.4 58-41.2 91.8-53l21.4-7.6v-95.2zM431.4 274.2c-91.4 0-165.8 74.4-165.8 165.8s74.4 165.8 165.8 165.8 165.8-74.4 165.8-165.8-74.4-165.8-165.8-165.8zM431.4 541.8c-56 0-101.8-45.6-101.8-101.8s45.6-101.8 101.8-101.8c56 0 101.8 45.6 101.8 101.8s-45.6 101.8-101.8 101.8zM1077.2-41.6l-5 7.8c-8.2-0.6-16.2-0.6-24.4 0l-5-8c-11.6-18.4-34.2-26.8-55-20.2-27.6 8.6-46 17.6-68.6 36.2-18 14.8-22.4 40.6-10.8 60.8l5 8.6c-4.6 6.8-8.6 13.8-12.2 21.2h-18.2c-23.2 0-42.8 16.4-47.2 39.2-5.2 27.4-5.4 48.4 0.2 77 4.2 22.6 24.2 39 47.2 39h18c3.6 7.4 7.6 14.4 12.2 21.2l-5.2 9c-11.6 20-7.2 45.4 10.4 60.6 21.2 18.2 39.4 28.6 67 38 21.6 7.4 45.4-1.4 57-21.2l5.2-8.8c8.2 0.6 16.2 0.6 24.4 0l5.2 8.8c11.6 19.8 35.4 28.6 57.2 21 26.6-9 44.6-19.2 67-38.2 17.6-15 21.8-40.4 10.2-60.4l-5.2-8.8c4.6-6.8 8.6-13.8 12.2-21.2h10.2c23.2 0 42.8-16.4 47.2-39.2 5.2-27.4 5.4-48.4-0.2-77-4.2-22.6-24.2-39-47.2-39h-10c-3.6-7.4-7.6-14.4-12.2-21.2l5-8.6c11.8-20.4 7-46.2-11-61-21.4-17.6-39.8-26.8-68-35.8-21-6.4-43.8 1.8-55.4 20.2zM1101.6 27.6l21.2-36.6c13.4 5.6 25.8 12.8 37.4 21.6l-21.2 36.6 12.8 15c9.6 11.4 17.2 24.2 22 38.2l6.6 18.6h42.2c1.8 14.2 1.8 28.8 0 43h-42.2l-6.6 18.6c-5 14-12.4 26.8-22 38.2l-12.8 15 21.2 36.6c-11.4 8.8-24 16-37.4 21.6l-21.2-36.6-19.4 3.6c-14.6 2.8-29.6 2.8-44.2 0l-19.4-3.6-21.2 36.6c-13.4-5.6-25.8-12.8-37.4-21.6l21.2-36.6-12.8-15c-9.6-11.4-17.2-24.2-22-38.2l-6.6-18.6h-42.2c-1.8-14.2-1.8-28.8 0-43h42.2l6.6-18.6c5-14 12.4-26.8 22-38.2l12.8-15-21.2-36.6c11.4-8.8 24-16 37.4-21.6l21.2 36.6 19.4-3.6c14.6-2.8 29.6-2.8 44.2 0l19.4 3.6zM1120 144c0 35.4-28.6 64-64 64s-64-28.6-64-64 28.6-64 64-64 64 28.6 64 64zM1120 752.6c0 35.4-28.6 64-64 64s-64-28.6-64-64 28.6-64 64-64 64 28.8 64 64z" />
<glyph unicode="&#xe919;" glyph-name="connect" horiz-adv-x="1280" d="M1184 768h-704c-52.996-0.057-95.943-43.004-96-95.995v-32.005h64v32c0 17.673 14.327 32 32 32v0h704c17.673 0 32-14.327 32-32v0-448c0-17.673-14.327-32-32-32v0h-352v-64h352c52.996 0.057 95.943 43.004 96 95.995v448.005c-0.057 52.996-43.004 95.943-95.995 96h-0.005zM192 864c0 17.673 14.327 32 32 32v0h576c17.673 0 32-14.327 32-32v0-32h64v32c-0.057 52.996-43.004 95.943-95.995 96h-576.005c-52.996-0.057-95.943-43.004-96-95.995v-224.005h64zM1120 448c17.673 0 32 14.327 32 32v0 128c0 17.673-14.327 32-32 32v0h-128c-17.673 0-32-14.327-32-32v0-128c0-17.673 14.327-32 32-32v0zM1024 576h64v-64h-64zM672 576h-576c-52.996-0.057-95.943-43.004-96-95.995v-448.005c0.057-52.996 43.004-95.943 95.995-96h576.005c52.996 0.057 95.943 43.004 96 95.995v448.005c-0.057 52.996-43.004 95.943-95.995 96h-0.005zM704 32c0-17.673-14.327-32-32-32v0h-576c-17.673 0-32 14.327-32 32v0 300.8c25.6-19.2 64-51.2 192-140.8 25.6-19.2 76.8-64 128-64s102.4 44.8 128 64c128 89.6 166.4 121.6 192 140.8zM704 409.6c-51.2-38.4-44.8-38.4-230.4-172.8-19.2-6.4-57.6-44.8-89.6-44.8s-70.4 38.4-89.6 51.2c-185.6 134.4-179.2 134.4-230.4 172.8v64c0 17.673 14.327 32 32 32v0h576c17.673 0 32-14.327 32-32v0z" />
<glyph unicode="&#xe91a;" glyph-name="consultation" horiz-adv-x="1280" d="M32 320.4c17.6 0 32 14.4 32 32s-14.4 32-32 32-32-14.4-32-32c0-17.8 14.4-32 32-32zM1264 704l-227-0.4-102.4 99.8c-18.2 18.2-42.2 28.2-67.8 28.2h-202c-20.8 0-40.2-7.8-56.6-20-16.8 13-37.4 20.6-58.6 20.6h-139c-25.4 0-49.8-10.2-67.8-28.2l-100-100h-226.8c-8.8 0-16-7.2-16-16v-32c0-8.8 7.2-16 16-16h112v-383.8h-112c-8.8 0-16-7.2-16-16v-32c0-8.8 7.2-16 16-16h112c35.2 0 63.6 28.4 63.8 63.4h66.4l163-156c59.6-48.2 143.6-46.8 202 0.4l14.4-12.4c19.2-15.6 42.6-23.8 67-23.8 32 0 62.2 14 82.8 39.2l43.8 53.8c32.8-17.8 85.8-18 120 24l19 23.4c12.4 15.2 19.2 33.2 21 51.4h97.2c0.2-35 28.8-63.4 63.8-63.4h112c8.8 0 16 7.2 16 16v32c0 8.8-7.2 16-16 16h-112v383.4l112 0.4c8.8 0 16 7.2 16 16v32c-0.2 9-7.4 16-16.2 16zM920.4 244.8l-19-23.4c-10.8-13.2-30.8-16.2-45-4.6l-35.6 28.8-83-102c-15-18.6-42-20.4-58.8-6.8l-61.2 52.2-20.8-25.6c-33.4-41-94-47.4-133.2-15.8l-179.8 172.2h-92v320.4h77.2l118.6 118.6c6 6 14.2 9.4 22.6 9.4h139c1.8-4.4 0.6-1.4 2.2-5.8l-118-108.4c-56.4-51.8-59.2-138.4-8.4-193.8 28.6-31.2 117.2-78.6 193.8-8.4l45.6 41.8 251.2-203.8c13.6-11.2 15.6-31.4 4.6-45zM1088 319.8h-114.4c-5 7-10.6 13.8-17.6 19.6l-243.8 198 56.8 52.2c13 12 14 32.2 2 45.2s-32.2 13.8-45.2 2l-150.2-137.6c-28.8-26.2-77.2-24-103.4 4.4-27.2 29.6-25.4 76 4.4 103.4l166.2 152.4c6 5.4 13.6 8.4 21.6 8.4h202c8.6 0 16.6-3.4 22.8-9.6l121.4-118.2h77.4v-320.2zM1248 384.2c-17.6 0-32-14.4-32-32s14.4-32 32-32 32 14.4 32 32c0 17.8-14.4 32-32 32z" />
<glyph unicode="&#xe91b;" glyph-name="copy" horiz-adv-x="896" d="M867.882 828.118l-103.764 103.764c-17.373 17.373-41.372 28.118-67.882 28.118h-344.236c-53.020 0-96-42.98-96-96v-96h-160c-53.020 0-96-42.98-96-96v-640c0-53.020 42.98-96 96-96h448c53.020 0 96 42.98 96 96v96h160c53.020 0 96 42.98 96 96v536.236c0 26.51-10.745 50.509-28.118 67.882v0zM704 895.018c5.851-1.475 10.883-4.406 14.862-8.39v0l103.764-103.766c3.983-3.98 6.915-9.011 8.343-14.642l0.047-0.22h-127.016v127.018zM576 32c0-17.644-14.356-32-32-32h-448c-17.644 0-32 14.356-32 32v640c0 17.644 14.356 32 32 32h160v-480c0-53.020 42.98-96 96-96h224v-96zM832 224c0-17.644-14.356-32-32-32h-448c-17.644 0-32 14.356-32 32v640c0 17.644 14.356 32 32 32h288v-144c0-26.4 21.6-48 48-48h144v-480z" />
<glyph unicode="&#xe91c;" glyph-name="dashboard" horiz-adv-x="1152" d="M823.12 612.12l-194.18-239.88c-16.18 7.38-34 11.76-52.94 11.76-70.7 0-128-57.3-128-128s57.3-128 128-128 128 57.3 128 128c0 28.52-9.64 54.6-25.42 75.88l194.28 240c11.12 13.72 9 33.88-4.76 45-13.78 11.080-33.86 9-44.98-4.76zM576 192c-35.34 0-64 28.66-64 64s28.66 64 64 64 64-28.66 64-64-28.66-64-64-64zM576 896c-318.12 0-576-257.88-576-576 0-105.6 28.5-204.52 78.12-289.6 11.22-19.24 32.6-30.4 54.88-30.4h886c22.28 0 43.66 11.16 54.88 30.4 49.62 85.080 78.12 184 78.12 289.6 0 318.12-257.88 576-576 576zM1019 64l-885.6-1.36c-45.4 77.86-69.4 166.84-69.4 257.36 0 282.32 229.68 512 512 512s512-229.68 512-512c0-90.52-24-179.5-69-256z" />
<glyph unicode="&#xe91d;" glyph-name="desktop" horiz-adv-x="1152" d="M912 22h-204.4l-2.2 6.8-37.2 111.6c-1.8 5.8-7.2 9.6-13.4 9.6h-157.4c-6 0-11.4-3.8-13.2-9.6l-37.2-111.6-2.2-6.8h-204.8c-21 0-38-17-38-38s17-38 38-38h672c21 0 38 17 38 38s-17 38-38 38zM1056 950h-960c-47.4 0-86-38.6-86-86v-576c0-47.4 38.6-86 86-86h960c47.4 0 86 38.6 86 86v576c0 47.4-38.6 86-86 86zM1066 300c0-12.2-9.8-22-22-22h-936c-12.2 0-22 9.8-22 22v552c0 12.2 9.8 22 22 22h936c12.2 0 22-9.8 22-22v-552z" />
<glyph unicode="&#xe91e;" glyph-name="display-status-settings" d="M933.060 844.28h-842.12c-41.028 0-74.289-33.254-74.3-74.279v-495.381c0-41.035 33.265-74.3 74.3-74.3v0h396.3v-99.080h-260c-6.837 0-12.38-5.543-12.38-12.38v0-24.86c0-6.837 5.543-12.38 12.38-12.38v0h569.6c6.837 0 12.38 5.543 12.38 12.38v0 24.86c0 6.837-5.543 12.38-12.38 12.38v0h-260v99.080h396.22c41.035 0 74.3 33.265 74.3 74.3v0 495.38c-0.011 41.026-33.272 74.28-74.3 74.28v0zM957.82 274.62c0-13.675-11.085-24.76-24.76-24.76v0h-842.12c-13.675 0-24.76 11.085-24.76 24.76v0 495.38c0.011 13.67 11.090 24.749 24.759 24.76h842.121c13.67-0.011 24.749-11.090 24.76-24.759v-0.001zM917.16 678.22c-10.801-26.075-36.047-44.084-65.499-44.084-9.597 0-18.747 1.912-27.090 5.376l0.468-0.172-146.5-173.34c6.256-10.339 9.958-22.829 9.958-36.185 0-39.058-31.662-70.72-70.72-70.72s-70.72 31.662-70.72 70.72c0 7.197 1.075 14.143 3.073 20.686l-0.132-0.501-122.78 88.66c-11.8-9.204-26.839-14.757-43.175-14.757-10.018 0-19.548 2.088-28.179 5.853l0.455-0.177-122.32-145.82c5.753-10.013 9.146-22.016 9.146-34.811 0-39.113-31.707-70.82-70.82-70.82s-70.82 31.707-70.82 70.82c0 39.113 31.707 70.82 70.82 70.82 10.487 0 20.442-2.28 29.396-6.37l-0.442 0.181 121.68 145.2c-6.088 10.228-9.686 22.553-9.686 35.719 0 39.047 31.653 70.7 70.7 70.7s70.7-31.653 70.7-70.7c0-6.858-0.976-13.488-2.798-19.758l0.124 0.499 123.14-88.94c11.704 8.948 26.543 14.337 42.641 14.337 9.931 0 19.384-2.051 27.956-5.753l-0.458 0.176 146 172.76c-6.606 10.549-10.523 23.367-10.523 37.1 0 39.024 31.636 70.66 70.66 70.66 0.029 0 0.059 0 0.088 0h-0.005c0.051 0 0.111 0 0.171 0 39.047 0 70.7-31.653 70.7-70.7 0-9.604-1.915-18.76-5.384-27.108l0.172 0.468z" />
<glyph unicode="&#xe91f;" glyph-name="edit" horiz-adv-x="1152" d="M835.6 329l40 40c7.6 7.6 20.4 2.2 20.4-8.4v-328.6c0-53-43-96-96-96h-704c-53 0-96 43-96 96v704c0 53 43 96 96 96h584.6c10.6 0 16-13 8.4-20.4l-40-40c-2.2-2.2-5.4-3.6-8.4-3.6h-544.6c-17.6 0-32-14.4-32-32v-704c0-17.6 14.4-32 32-32h704c17.6 0 32 14.4 32 32v288.6c0 3.2 1.2 6.2 3.6 8.4zM1127.4 711.4l-625-625-199.8-22.2c-26.8-3-49.4 19.6-46.4 46.4l22.2 199.8 625 625c32.8 32.8 86 32.8 118.8 0l105.2-105.2c32.8-32.8 32.8-86 0-118.8zM940.2 614.6l-133.4 133.4-467.2-467-16.6-150.2 150.2 16.6 467 467.2zM1082.2 785l-105.2 105.2c-7.6 7.6-20.4 8-28.2 0l-96.8-96.8 133.4-133.4 96.8 96.8c7.8 7.6 7.8 20.4 0 28.2z" />
<glyph unicode="&#xe920;" glyph-name="ellipse" d="M511.994 89.844c-282.324 0-511.994 160.672-511.994 358.15 0 197.501 229.671 358.173 511.994 358.173s511.994-160.66 511.994-358.162c0-197.513-229.671-358.162-511.994-358.162zM511.994 771.39c-263.138 0-477.217-145.069-477.217-323.396 0-178.304 214.079-323.384 477.217-323.384s477.217 145.080 477.217 323.384c0 178.316-214.079 323.396-477.217 323.396z" />
<glyph unicode="&#xe921;" glyph-name="emergency" d="M762.416 530.606h-101.954c-13.222 0-23.94 10.718-23.94 23.94v101.952c0 13.222-10.718 23.94-23.94 23.94h-117.326c-13.222 0-23.94-10.718-23.94-23.94v-101.954c0-13.222-10.718-23.94-23.94-23.94h-101.954c-13.222 0-23.94-10.718-23.94-23.94v-117.326c0-13.222 10.718-23.94 23.94-23.94h101.954c13.222 0 23.94-10.718 23.94-23.94v-101.954c0-13.222 10.718-23.94 23.94-23.94h117.326c13.218 0.004 23.94 10.722 23.94 23.944v101.954c0 13.222 10.718 23.94 23.94 23.94h101.954c13.222 0 23.94 10.718 23.94 23.94v117.326c0 13.22-10.718 23.938-23.94 23.938zM930.188 918.082h-752.542c-51.73 0-93.812-42.082-93.812-93.812v-59.054h-58.25c-14.128 0-25.584-11.454-25.584-25.584v-186.156c0-14.13 11.456-25.584 25.584-25.584h58.248v-159.552h-58.248c-14.128-0.002-25.584-11.456-25.584-25.586v-186.156c0-14.13 11.456-25.586 25.584-25.586h58.248v-59.282c0-51.73 42.082-93.812 93.812-93.812h752.544c51.73 0 93.812 42.082 93.812 93.812v752.54c0 51.73-42.086 93.812-93.812 93.812zM83.834 182.182h-32.664v134.986h32.664v-134.986zM83.834 579.060h-32.664v134.986h32.664v-134.986zM972.83 71.73c0-23.514-19.128-42.642-42.642-42.642h-752.542c-23.514 0-42.642 19.128-42.642 42.642 0 9.474 0 727.166 0 752.544 0 23.514 19.128 42.642 42.642 42.642h752.544c23.514 0 42.642-19.128 42.642-42.642v-752.544zM938.904 447.994c0-16.694-13.534-30.228-30.228-30.228s-30.228 13.534-30.228 30.228c0 16.694 13.534 30.228 30.228 30.228s30.228-13.534 30.228-30.228z" />
<glyph unicode="&#xe922;" glyph-name="emr-care-team" d="M938.994 813.851c-53.44 57.966-126.766 89.897-206.469 89.897-59.749 0-114.446-18.857-162.583-56.069-21.828-17.203-40.873-36.393-57.383-57.651l-0.56-0.749c-17.047 22.004-36.086 41.182-57.218 57.822l-0.702 0.533c-48.137 37.257-102.857 56.114-162.537 56.114-79.657 0-152.96-32-206.4-89.897-52.571-57.143-81.646-135.040-81.646-219.429 0-86.72 32.137-165.897 101.166-249.143 61.326-74.011 148.389-148.137 249.143-233.966l0.16-0.137 0.137-0.114 2.926-2.491c33.417-28.503 71.314-60.823 110.446-95.040 11.836-10.411 27.462-16.764 44.571-16.764s32.735 6.353 44.647 16.829l-0.075-0.065c41.143 36.023 81.349 70.286 113.714 97.829l0.251 0.206c100.846 85.966 187.954 160.206 248.891 233.737 69.029 83.246 101.166 162.423 101.166 249.143-0.069 84.411-29.029 162.263-81.646 219.406zM616.823 787.154c31.311 24.986 71.464 40.092 115.145 40.092 0.196 0 0.392 0 0.588-0.001h-0.030c0.471 0.004 1.028 0.006 1.586 0.006 58.704 0 111.558-25.045 148.459-65.034l0.126-0.138c39.566-42.994 61.303-102.514 61.303-167.589 0-68.846-25.76-130.651-83.543-200.389-57.143-69.074-141.874-141.097-239.84-224.503-32-27.2-69.6-59.429-108.731-93.326-38.469 33.577-75.429 65.029-108.114 92.914l-0.206 0.183h-0.114l-1.737 1.509c-97.531 83.154-181.737 154.971-238.149 223.040-57.851 69.92-83.566 131.794-83.566 200.571 0 65.12 21.806 124.594 61.371 167.52 37.021 40.166 89.891 65.24 148.618 65.24 0.546 0 1.092-0.002 1.637-0.006l-0.084 0.001c0.171 0.001 0.374 0.001 0.577 0.001 43.712 0 83.896-15.106 115.617-40.382l-0.376 0.29c30.994-23.977 52.571-54.377 65.326-75.657 8.158-13.508 22.761-22.401 39.44-22.401s31.282 8.893 39.325 22.196l0.115 0.205c12.663 21.303 34.331 51.726 65.257 75.657z" />
<glyph unicode="&#xe923;" glyph-name="emr-diagnosis" d="M438.857 256v177.166c-63.819-18.536-109.676-76.477-109.676-145.128 0-83.316 67.541-150.857 150.857-150.857 68.651 0 126.591 45.857 144.862 108.61l0.266 1.066h-186.309zM544 502.857c-8.073-0.007-15.992-0.639-23.72-1.848l0.863 0.111v-171.977h171.977c1.108 6.87 1.742 14.79 1.742 22.857 0 83.316-67.541 150.857-150.857 150.857-0.002 0-0.003 0-0.005 0v0zM686.949 918.857c-14.055 14.036-33.428 22.749-54.837 22.857h-408.112c-42.896-0.22-77.598-34.987-77.714-77.886v-831.828c0-42.92 34.794-77.714 77.714-77.714v0h576c42.884 0.091 77.623 34.83 77.714 77.706v664.078c-0.13 21.508-8.892 40.944-22.994 55.040v0zM818.286 607.886v-594.171h-612.571v868.389h356.571v-226.286c0-16.411 13.304-29.714 29.714-29.714v0h226.286zM792.091 685.6h-170.377v214.56l214.606-214.583z" />
<glyph unicode="&#xe924;" glyph-name="emr-history" d="M746.4 503.017h-264.983c-0.208 0.006-0.452 0.010-0.697 0.010-13.513 0-24.467-10.954-24.467-24.467 0-13.268 10.56-24.069 23.734-24.456l0.036-0.001h266.377c13.507 0 24.457 10.95 24.457 24.457s-10.95 24.457-24.457 24.457v0zM746.811 354.651h-264.96c-13.507 0-24.457-10.95-24.457-24.457s10.95-24.457 24.457-24.457h264.983c13.507 0 24.457 10.95 24.457 24.457s-10.95 24.457-24.457 24.457v0zM746.811 200.16h-264.96c-13.194-0.416-23.732-11.212-23.732-24.469s10.538-24.053 23.694-24.468l0.038-0.001h264.983c13.194 0.416 23.732 11.212 23.732 24.469s-10.538 24.053-23.694 24.468l-0.038 0.001zM449.829 680.754c0.14-0.003 0.304-0.004 0.469-0.004 13.52 0 24.48 10.96 24.48 24.48 0 13.187-10.426 23.938-23.485 24.46l-0.047 0.002h-115.246v96c0.006 0.208 0.010 0.452 0.010 0.697 0 13.513-10.954 24.467-24.467 24.467-13.268 0-24.069-10.56-24.456-23.734l-0.001-0.036c0-0.457 0-0.937 0-1.394v-120.48c0-13.512 10.947-24.467 24.456-24.48h0.001zM831.246 779.429h-232.274c2.705-11.971 4.708-26.148 5.586-40.629l0.037-0.765h226.674c22.313-0.065 40.382-18.142 40.434-40.452v-660.256c-0.065-22.302-18.113-40.366-40.403-40.457h-446.478c-22.314 0.065-40.389 18.124-40.48 40.426v410.066q-7.246-0.434-14.446-0.48h-0.206q-13.371 0-26.697 1.463v-411.086c0.13-45.148 36.701-81.712 81.84-81.829h446.434c45.129 0.156 81.666 36.717 81.783 81.84v660.422c-0.168 45.098-36.702 81.608-81.793 81.737h-0.012zM325.691 952c-124.75-0.13-225.828-101.29-225.828-226.057 0-124.848 101.209-226.057 226.057-226.057 124.768 0 225.927 101.079 226.057 225.816v0.012c-0.091 124.938-101.348 226.195-226.277 226.286h-0.008zM325.691 539.406v0c-102.971 0-186.446 83.475-186.446 186.446s83.475 186.446 186.446 186.446c102.971 0 186.446-83.475 186.446-186.446 0-0.008 0-0.016 0-0.024v0.001c-0.285-102.847-83.595-186.141-186.421-186.4h-0.025z" />
<glyph unicode="&#xe925;" glyph-name="emr-icu-flow-sheet" d="M154.446 493.509c0.019 0 0.042 0 0.065 0 20.337 0 38.78 8.11 52.271 21.272l-0.015-0.015 6.994 6.857 106.034-53.051-1.623-9.966c-0.45-2.563-0.777-5.616-0.909-8.721l-0.005-0.148c0.806-41.175 34.374-74.245 75.666-74.245 41.381 0 75.005 33.212 75.67 74.434l0.001 0.063c-0.116 11.781-2.939 22.876-7.876 32.728l0.196-0.431-4.297 8.8 133.371 133.349 8.8-4.297c9.594-4.771 20.894-7.563 32.847-7.563 41.481 0 75.109 33.627 75.109 75.109 0 0.168-0.001 0.336-0.002 0.503v-0.026c-0.129 7.993-1.499 15.622-3.926 22.763l0.154-0.523-3.109 9.371 7.909 5.92 111.703 83.771 8.069-5.371c11.736-7.848 26.172-12.525 41.7-12.525 41.797 0 75.68 33.883 75.68 75.68 0 41.655-33.654 75.45-75.255 75.679h-0.022c-0.014 0-0.030 0-0.046 0-41.806 0-75.7-33.877-75.726-75.677v-0.003c0.153-8.010 1.546-15.643 3.996-22.786l-0.156 0.524 3.109-9.371-7.954-5.897-111.726-83.84-8.091 5.486c-11.859 8.161-26.531 13.034-42.342 13.034-41.582 0-75.291-33.709-75.291-75.291 0-12.051 2.831-23.44 7.864-33.539l-0.197 0.437 4.274-8.8-133.371-133.349-8.846 4.251c-9.517 4.768-20.736 7.559-32.607 7.559-20.248 0-38.599-8.121-51.974-21.283l0.010 0.010-6.994-6.857-8.754 4.366-97.326 48.663 1.623 9.966c0.437 2.544 0.764 5.597 0.908 8.698l0.006 0.171c-0.143 41.689-33.971 75.429-75.68 75.429-41.797 0-75.68-33.883-75.68-75.68s33.883-75.68 75.68-75.68v0zM990.72-14.629h-45.486v643.406c0 8.837-7.163 16-16 16v0h-119.269c-8.837 0-16-7.163-16-16v0-643.406h-87.109v464.617c-0.064 8.811-7.189 15.936-15.994 16h-119.275c-8.837 0-16-7.163-16-16v0-464.617h-87.017v226.286c0 8.837-7.163 16-16 16v0h-119.337c-8.837 0-16-7.163-16-16v0-226.286h-87.109v345.44c-0.064 8.811-7.189 15.936-15.994 16h-119.275c-8.811-0.064-15.936-7.189-16-15.994v-345.446h-45.577c-8.881 0-16.080-7.199-16.080-16.080s7.199-16.080 16.080-16.080v0h957.44c8.881 0 16.080 7.199 16.080 16.080s-7.199 16.080-16.080 16.080v0z" />
<glyph unicode="&#xe926;" glyph-name="emr-icu-vital-sheet" d="M15.771 394.583c0.052-17.217 14.021-31.154 31.246-31.154 0 0 0 0 0 0h191.406c0.041 0 0.090 0 0.14 0 15.686 0 28.644 11.678 30.655 26.814l0.017 0.158 33.829 242.743 68.32-624.823c1.714-14.85 13.647-26.438 28.509-27.605l0.108-0.007c0.891 0 1.623-0.137 2.56-0.137 0.038 0 0.083 0 0.129 0 14.205 0 26.172 9.585 29.786 22.64l0.051 0.217 101.783 362.103 100.274-190.514c5.188-10.031 15.485-16.768 27.355-16.768 1.42 0 2.818 0.096 4.187 0.283l-0.159-0.018c12.953 1.618 23.355 10.935 26.557 23.165l0.049 0.218 48.8 195.086h235.429c0.252-0.007 0.548-0.011 0.846-0.011 17.269 0 31.269 13.999 31.269 31.269 0 16.972-13.521 30.785-30.379 31.256l-0.044 0.001h-261.509c-0.010 0-0.022 0-0.033 0-14.565 0-26.801-9.973-30.251-23.464l-0.047-0.216-34.857-139.246-98.651 187.223c-5.136 10.057-15.42 16.824-27.285 16.824-1.251 0-2.484-0.075-3.695-0.221l0.146 0.014c-12.849-1.463-23.269-10.432-26.845-22.359l-0.058-0.224-79.406-282.446-78.263 714.949c-1.74 15.56-14.747 27.569-30.59 27.726h-0.016c-17.577-1.486-29.189-11.429-31.383-27.063l-64.594-465.143h-164.183c-17.234-0.052-31.187-14.029-31.2-31.267v-0.001z" />
<glyph unicode="&#xe927;" glyph-name="emr-intake-output" d="M852.571 663.109c-24.986-0.069-47.745-9.549-64.93-25.081l0.085 0.075c-17.073 15.525-39.861 25.030-64.869 25.030-53.335 0-96.571-43.237-96.571-96.571 0-0.025 0-0.050 0-0.074v0.004c0-0.101-0.001-0.22-0.001-0.339 0-21.87 7.348-42.024 19.711-58.128l-0.167 0.227 119.474-157.943v-208.937c0-86.629-69.943-156.983-155.886-156.983-86.677 0.078-156.925 70.31-157.029 156.973v4.056h13.897c12.376 0.039 22.397 10.068 22.423 22.443v37.991h16.846c54.839 0.078 99.272 44.519 99.337 99.354v467.96c-0.065 54.836-44.501 99.272-99.331 99.337h-67.618v20.823c-0.013 34.916-28.308 63.22-63.22 63.246h-69.717c-34.915-0.026-63.21-28.329-63.223-63.244v-20.824h-67.657c-54.836-0.065-99.272-44.501-99.337-99.331v-467.937c0.039-54.856 44.485-99.318 99.331-99.383h16.829v-38.057c0.026-12.386 10.060-22.42 22.443-22.446h72.643c12.396 0.013 22.443 10.052 22.469 22.443v38.059h62.789v-38.057c0-12.388 10.036-22.433 22.422-22.446h13.876v-4.023c0.117-111.458 90.44-201.78 201.886-201.897h0.011c0.188-0.001 0.41-0.001 0.632-0.001 55.432 0 105.567 22.681 141.631 59.269l0.023 0.024c36.109 36.381 58.425 86.496 58.425 141.824 0 0.307-0.001 0.614-0.002 0.921v-0.047 208.914l119.497 157.92c12.188 15.997 19.526 36.261 19.526 58.24 0 53.36-43.257 96.617-96.617 96.617-0.010 0-0.021 0-0.031 0h0.002zM787.726 580.069c0.001 0 0.001 0 0.002 0 8.363 0 15.662 4.555 19.551 11.319l0.058 0.11c8.991 16.069 25.904 26.753 45.312 26.753 28.58 0 51.749-23.169 51.749-51.749 0-11.809-3.956-22.695-10.615-31.404l0.092 0.125-106.149-140.274-106.080 140.366c-6.498 8.553-10.409 19.38-10.409 31.121 0 28.567 23.158 51.726 51.726 51.726 19.332 0 36.186-10.605 45.064-26.315l0.134-0.258c3.934-6.904 11.234-11.491 19.607-11.52h0.004zM286.606 893.211c0 10.099 8.187 18.286 18.286 18.286v0h69.714c0.034 0 0.074 0 0.114 0 10.099 0 18.286-8.187 18.286-18.286 0 0 0 0 0 0v0-20.823h-106.354zM393.646 250.469h-107.657c-12.384 0-22.423-10.039-22.423-22.423v-38.011h-27.749v38.194c0 0.020 0 0.044 0 0.069 0 12.368-10.013 22.397-22.375 22.423h-39.316c-30.052 0.026-54.413 24.355-54.491 54.392v468.054c0.078 30.045 24.439 54.374 54.489 54.4h331.431c30.027-0.065 54.355-24.376 54.446-54.391v-467.963c-0.078-30.013-24.387-54.322-54.393-54.4h-39.321c-12.378-0.026-22.407-10.047-22.446-22.419v-38.244h-27.703v38.080c0 0.007 0 0.015 0 0.023 0 12.393-10.033 22.443-22.42 22.469h-0.002zM535.109 397.6v325.874c-0.026 12.032-9.773 21.78-21.803 21.806h-346.814c-12.038-0.013-21.793-9.768-21.806-21.804v-325.875c0-18.935 15.35-34.286 34.286-34.286v0h321.874c18.926 0.013 34.263 15.358 34.263 34.286v0zM491.429 701.714v-294.857h-303.291v294.857zM227.337 647.246h225.097c4.582 0 8.297-3.715 8.297-8.297v-16.16c0-4.582-3.715-8.297-8.297-8.297h-225.097c-4.582 0-8.297 3.715-8.297 8.297v16.16c0 4.582 3.715 8.297 8.297 8.297zM227.337 563.086h225.097c4.582 0 8.297-3.715 8.297-8.297v-16.16c0-4.582-3.715-8.297-8.297-8.297h-225.097c-4.582 0-8.297 3.715-8.297 8.297v16.16c0 4.582 3.715 8.297 8.297 8.297zM227.337 478.949h225.097c4.582 0 8.297-3.715 8.297-8.297v-16.16c0-4.582-3.715-8.297-8.297-8.297h-225.097c-4.582 0-8.297 3.715-8.297 8.297v16.16c0 4.582 3.715 8.297 8.297 8.297z" />
<glyph unicode="&#xe928;" glyph-name="emr-mar" horiz-adv-x="1280" d="M1264 32h-1248c-8.837 0-16-7.163-16-16v0-64c0-8.837 7.163-16 16-16v0h1248c8.837 0 16 7.163 16 16v0 64c0 8.837-7.163 16-16 16v0zM512 352c0-17.673 14.327-32 32-32s32 14.327 32 32c0 17.673-14.327 32-32 32v0c-17.673 0-32-14.327-32-32v0zM992 448c17.673 0 32 14.327 32 32s-14.327 32-32 32c-17.673 0-32-14.327-32-32v0c0-17.673 14.327-32 32-32v0zM192 416c17.673 0 32 14.327 32 32s-14.327 32-32 32c-17.673 0-32-14.327-32-32v0c0-17.673 14.327-32 32-32v0zM1169.2 303.2l-35.6-53.4c-5.798-8.68-15.532-14.336-26.59-14.4h-0.010c-19.6 0-111.2 69.8-275 117.8v-225.2h96v87.6c45.723-20.325 83.132-39.836 119.253-61.289l-5.253 2.889c18.585-11.186 41.019-17.802 64.998-17.802 44.246 0 83.231 22.528 106.11 56.739l0.291 0.463 35.6 53.4c13.519 19.957 21.583 44.568 21.583 71.063 0 46.269-24.592 86.794-61.418 109.218l-0.564 0.319c-27.6 16.6-70.6 40.2-122.4 64.6 8.4-53-26.6-83-34.8-89.8 46.4-22.2 84.4-43.2 107.8-57.2 9.382-5.551 15.575-15.619 15.575-27.132 0-6.682-2.086-12.877-5.642-17.97l0.067 0.102zM66.4 196.6c23.17-34.674 62.155-57.202 106.402-57.202 23.979 0 46.413 6.617 65.576 18.124l-0.577-0.321c30.87 18.565 68.279 38.076 106.833 55.502l7.167 2.898v-87.6h96v225.2c-162.2-47.6-255.8-117.8-275-117.8-0.024 0-0.052 0-0.080 0-11.061 0-20.795 5.679-26.446 14.281l-0.074 0.12-35.6 53.4c-3.451 5.001-5.513 11.192-5.513 17.864 0 11.452 6.073 21.486 15.174 27.057l0.139 0.079c7.2 4.4 17 9.8 26.8 15.4-29.638 15.895-49.74 46.163-50.995 81.232l-0.005 0.168c-8.8-5-18.2-10.2-25.2-14.4-29.411-17.856-50.75-46.512-58.631-80.338l-0.169-0.862c-1.953-8.422-3.072-18.093-3.072-28.026 0-26.583 8.018-51.293 21.768-71.843l-0.295 0.469 35.8-53.4zM286.4 431.2c99 41.8 225 80.8 353.6 80.8 89.8 0 178-19.2 257.2-44.8-7.2 53.2 28.2 82.2 36.6 88.8-33.314 11.627-75.562 23.222-118.731 32.318l-7.269 1.282c34.4 39.4 56 90.2 56 146.6 0.2 123.4-100.2 223.8-223.8 223.8-123.68-0.080-223.92-100.32-224-223.992v-0.008c0-56 21.4-106.8 55.6-146.2-79.6-16.2-154.2-41.6-218.6-68.4 21.393-17.394 34.949-43.711 34.949-73.194 0-6.012-0.564-11.893-1.641-17.592l0.092 0.586zM640 864c70.692 0 128-57.308 128-128s-57.308-128-128-128c-70.692 0-128 57.308-128 128v0c0.068 70.665 57.335 127.932 127.993 128h0.007zM704 192c0-17.673 14.327-32 32-32s32 14.327 32 32c0 17.673-14.327 32-32 32v0c-17.673 0-32-14.327-32-32v0z" />
<glyph unicode="&#xe929;" glyph-name="emr-orders" d="M391.611 425.371c0-21.283-17.254-38.537-38.537-38.537s-38.537 17.254-38.537 38.537c0 21.283 17.254 38.537 38.537 38.537s38.537-17.254 38.537-38.537zM464.32 448.023h222.514c3.724 0 6.743-3.019 6.743-6.743v-31.794c0-3.724-3.019-6.743-6.743-6.743h-222.514c-3.724 0-6.743 3.019-6.743 6.743v31.794c0 3.724 3.019 6.743 6.743 6.743zM391.611 542.994c0-21.283-17.254-38.537-38.537-38.537s-38.537 17.254-38.537 38.537c0 21.283 17.254 38.537 38.537 38.537s38.537-17.254 38.537-38.537zM464.32 565.646h222.514c3.724 0 6.743-3.019 6.743-6.743v-31.794c0-3.724-3.019-6.743-6.743-6.743h-222.514c-3.724 0-6.743 3.019-6.743 6.743v31.794c0 3.724 3.019 6.743 6.743 6.743zM391.611 190.149c0-21.283-17.254-38.537-38.537-38.537s-38.537 17.254-38.537 38.537c0 21.283 17.254 38.537 38.537 38.537s38.537-17.254 38.537-38.537zM464.32 212.8h222.514c3.724 0 6.743-3.019 6.743-6.743v-31.794c0-3.724-3.019-6.743-6.743-6.743h-222.514c-3.724 0-6.743 3.019-6.743 6.743v31.794c0 3.724 3.019 6.743 6.743 6.743zM391.611 307.749c0-21.283-17.254-38.537-38.537-38.537s-38.537 17.254-38.537 38.537c0 21.283 17.254 38.537 38.537 38.537s38.537-17.254 38.537-38.537zM464.32 330.4h222.514c3.724 0 6.743-3.019 6.743-6.743v-31.794c0-3.724-3.019-6.743-6.743-6.743h-222.514c-3.724 0-6.743 3.019-6.743 6.743v31.794c0 3.724 3.019 6.743 6.743 6.743zM803.314 829.394h-190.103l1.669 10.72c0.698 4.437 1.097 9.553 1.097 14.762 0 0.001 0 0.002 0 0.004v0c0 57.438-46.562 104-104 104s-104-46.562-104-104v0c0-0.001 0-0.002 0-0.003 0-5.209 0.399-10.326 1.168-15.32l-0.071 0.558 1.669-10.72h-190.057c-48.467-0.052-87.742-39.328-87.794-87.789v-712.096c0.052-48.467 39.328-87.742 87.789-87.794h582.633c48.467 0.052 87.742 39.328 87.794 87.789v712.096c-0.052 48.467-39.328 87.742-87.789 87.794h-0.005zM512 912.731c31.95 0 57.851-25.901 57.851-57.851s-25.901-57.851-57.851-57.851c-31.942 0-57.838 25.888-57.851 57.827v0.001c0 0.007 0 0.015 0 0.023 0 31.95 25.901 57.851 57.851 57.851v0zM844.983 29.509c-0.026-23.002-18.666-41.643-41.666-41.669h-582.631c-23.002 0.026-41.643 18.666-41.669 41.666v712.093c0.026 23.002 18.666 41.643 41.666 41.669h106.425v-49.76c0.013-8.263 6.708-14.958 14.97-14.971h339.841c8.263 0.013 14.958 6.708 14.971 14.97v49.761h106.423c23.002-0.026 41.643-18.666 41.669-41.666v-0.002z" />
<glyph unicode="&#xe92a;" glyph-name="emr-pacs" d="M403.223 179.68c-31.812 0-57.6 25.788-57.6 57.6s25.788 57.6 57.6 57.6c31.812 0 57.6-25.788 57.6-57.6v0c0-0.027 0-0.059 0-0.092 0-31.767-25.726-57.525-57.481-57.577h-0.119zM555.223 119.017c-22.091 0-40 17.909-40 40s17.909 40 40 40c22.091 0 40-17.909 40-40v0 0c0-0.048 0-0.104 0-0.161 0-22.019-17.792-39.883-39.783-39.999h-0.011zM595.223 237.28c-0.007 0-0.015 0-0.023 0-15.906 0-28.8 12.894-28.8 28.8s12.894 28.8 28.8 28.8c15.898 0 28.787-12.881 28.8-28.776v-0.115c0-15.893-12.884-28.777-28.777-28.777v0zM292.709 746.629l-235.291 1.211c-2.204-0.026-4.19-0.939-5.622-2.399l-0.001-0.001c-1.418-1.451-2.318-3.413-2.4-5.585v-0.015l-0.16-31.269c0 0 0 0 0-0.001 0-4.386 3.53-7.948 7.904-7.999h15.708l-1.829-360.937c0.514-55.973 46.008-101.149 102.053-101.149 55.676 0 100.938 44.582 102.037 99.995l0.002 0.103 0.777 156.617 1.051 204.32h15.634c0.038-0.001 0.082-0.001 0.127-0.001 2.148 0 4.092 0.874 5.496 2.286v0c1.406 1.447 2.276 3.421 2.286 5.598v0.002l0.16 31.269c-0.026 4.399-3.598 7.954-8 7.954-0.016 0-0.032 0-0.048 0h0.002zM120.411 699.84l108.823-0.571-0.663-149.349h-108.914zM227.406 338.903c-0.752-29.472-24.823-53.076-54.406-53.076-29.768 0-53.954 23.9-54.416 53.558l-0.001 0.043 0.8 163.749h108.846l-0.411-85.051zM926.217 143.337l-237.166 381.44v357.509h58.377c3.156 0 5.714 2.558 5.714 5.714v0 48c0 3.156-2.558 5.714-5.714 5.714v0h-464c-3.156 0-5.714-2.558-5.714-5.714v0-48c0-3.156 2.558-5.714 5.714-5.714v0h58.286v-357.509l-2.766-4.434-36.114-58.011-152.434-245.189-45.714-73.737c-11.721-18.566-18.677-41.157-18.677-65.373 0-68.128 55.054-123.398 123.101-123.747h612.422c68.165 0.221 123.338 55.53 123.338 123.725 0 24.197-6.946 46.772-18.953 65.839l0.301-0.513zM877.257 46.446c-10.914-19.653-31.548-32.733-55.236-32.733-0.172 0-0.344 0.001-0.516 0.002h-612.363c-0.118-0.001-0.258-0.001-0.398-0.001-23.717 0-44.37 13.121-55.095 32.501l-0.164 0.323c-5.133 9.055-8.158 19.889-8.158 31.429 0 12.603 3.608 24.363 9.847 34.304l-0.158-0.269 92 147.977 15.474 24.754 126.926 204.411c7.303 11.642 11.634 25.792 11.634 40.954 0 0.002 0 0.004 0 0.007v0 352.183h228.571v-352.297c0-0.006 0-0.014 0-0.021 0-15.16 4.341-29.306 11.847-41.263l-0.19 0.324 234.4-377.029c6.102-9.694 9.722-21.484 9.722-34.12 0-11.541-3.020-22.376-8.313-31.758l0.168 0.324z" />
<glyph unicode="&#xe92b;" glyph-name="emr-progress-notes" d="M982.857 572.823v0c-13.815 11.601-31.793 18.649-51.417 18.649-24.54 0-46.506-11.021-61.218-28.383l-0.096-0.117-100.96-119.543v316.183c-0.073 22.878-9.625 43.512-24.932 58.19l-0.028 0.027-113.349 107.497c-14.273 13.667-33.673 22.080-55.038 22.080-0.033 0-0.066 0-0.099 0h-482.898c-44.277-0.13-80.135-35.995-80.251-80.263v-838.32c0.117-44.279 35.974-80.145 80.239-80.274h595.99c44.268 0.143 80.112 36.003 80.229 80.263v166.16l2.171 2.56 221.44 262.286c11.678 13.851 18.774 31.897 18.774 51.6 0 24.579-11.044 46.579-28.44 61.309l-0.117 0.097zM590.24 777.76v129.189l15.474-14.674c30.149-28.686 52.16-49.554 68.206-64.846 44.114-41.874 44.114-41.874 45.714-44v-0.16l11.269-14.697h-140.663zM727.749 122.857v-94.034c-0.052-21.462-17.404-38.855-38.846-38.971h-596.102c-21.419 0.103-38.754 17.439-38.857 38.847v838.433c0.103 21.419 17.439 38.754 38.847 38.857h456.147v-158.034c0-11.361 9.21-20.571 20.571-20.571v0h158.171v-332.709l-2.171-2.56-126.651-149.829c-7.695-9.163-13.439-20.232-16.433-32.383l-0.115-0.554-27.703-115.909c-0.373-1.465-0.587-3.146-0.587-4.878 0-9.639 6.629-17.729 15.576-19.961l0.142-0.030h0.183c1.425-0.363 3.060-0.572 4.744-0.572 0.020 0 0.039 0 0.059 0h-0.003c0.011 0 0.023 0 0.036 0 2.964 0 5.78 0.631 8.323 1.766l-0.13-0.052 109.28 47.36c7.798 3.423 14.514 7.693 20.471 12.82l-0.106-0.089 15.109 12.96zM653.714 228.8l52.731-44.206-5.92-6.994-10.24-12.023c-3.843-4.538-8.625-8.156-14.059-10.575l-0.25-0.099-71.474-30.971 4.183 17.783 13.851 57.966c1.491 6.118 4.253 11.449 8.004 15.923l-0.049-0.060 10.286 12.16 5.874 6.857zM903.451 418.126l-170.469-201.943-6.971 5.851-52.731 44.183 5.92 6.994 170.583 201.783 59.543-49.943zM961.371 486.697l-6.377-8.114-0.297 0.297-12.754-15.109-5.897-6.857-6.857 5.851-52.549 44.114 5.92 6.994 19.246 22.697v0.114c7.134 7.828 17.373 12.721 28.754 12.721 21.46 0 38.857-17.397 38.857-38.857 0-9.030-3.080-17.34-8.247-23.938l0.064 0.085zM150.080 726.857h300.754c0.092-0.001 0.2-0.002 0.309-0.002 12.789 0 23.156 10.367 23.156 23.156 0 12.68-10.192 22.98-22.831 23.154h-301.387c-12.471-0.404-22.427-10.611-22.427-23.143s9.956-22.739 22.39-23.142l0.037-0.001zM150.080 544.823h479.817c12.471 0.404 22.427 10.611 22.427 23.143s-9.956 22.739-22.39 23.142l-0.037 0.001h-479.817c-12.471-0.404-22.427-10.611-22.427-23.143s9.956-22.739 22.39-23.142l0.037-0.001zM150.080 364.823h479.817c12.471 0.404 22.427 10.611 22.427 23.143s-9.956 22.739-22.39 23.142l-0.037 0.001h-479.817c-12.471-0.404-22.427-10.611-22.427-23.143s9.956-22.739 22.39-23.142l0.037-0.001zM451.451 231.131h-301.371c-12.471-0.404-22.427-10.611-22.427-23.143s9.956-22.739 22.39-23.142l0.037-0.001h300.754c0.092-0.001 0.2-0.002 0.309-0.002 12.789 0 23.156 10.367 23.156 23.156 0 12.68-10.192 22.98-22.831 23.154h-0.016z" />
<glyph unicode="&#xe92c;" glyph-name="emr-setting" d="M996.894 559.712h-144.709c-5.666 17.208-12.592 33.849-20.689 49.802l102.369 102.369c10.584 10.584 10.584 27.741 0 38.322l-119.665 119.665c-10.584 10.584-27.741 10.584-38.322 0l-102.369-102.369c-15.953 8.097-32.591 15.023-49.799 20.689v144.706c0.002 14.967-12.13 27.099-27.097 27.099h-169.23c-14.965 0-27.099-12.132-27.099-27.097v-144.709c-17.208-5.664-33.847-12.592-49.802-20.689l-102.367 102.367c-10.584 10.584-27.741 10.584-38.322 0l-119.665-119.665c-10.584-10.581-10.584-27.741 0-38.322l102.367-102.367c-8.097-15.953-15.025-32.593-20.689-49.802h-144.706c-14.967 0-27.099-12.134-27.099-27.099v-169.23c0-14.965 12.132-27.097 27.099-27.097h144.709c5.666-17.208 12.592-33.847 20.689-49.802l-102.367-102.367c-10.584-10.581-10.584-27.741 0-38.322l119.665-119.665c10.584-10.581 27.741-10.581 38.322 0l102.367 102.367c15.953-8.097 32.591-15.025 49.802-20.689v-144.709c0-14.965 12.132-27.097 27.099-27.097h169.23c14.965 0 27.099 12.132 27.099 27.097v144.709c17.208 5.664 33.847 12.592 49.799 20.689l102.369-102.367c10.584-10.581 27.741-10.581 38.322 0l119.665 119.665c10.584 10.584 10.584 27.741 0 38.322l-102.367 102.367c8.097 15.953 15.023 32.591 20.689 49.799h144.709c14.965 0 27.099 12.132 27.099 27.097v169.23c-0.007 14.967-12.139 27.102-27.106 27.102zM511.997 313.087c-74.51 0-134.914 60.403-134.914 134.914s60.403 134.914 134.914 134.914 134.914-60.403 134.914-134.914-60.403-134.914-134.914-134.914z" />
<glyph unicode="&#xe92d;" glyph-name="enquiry" horiz-adv-x="944" d="M8 488v-108h92v-436h740v436h96v108h-928zM473.68 25.64c-24.28 0-43.92 19.68-43.92 43.96 0 24.24 19.64 43.92 43.92 43.92s43.96-19.68 43.96-43.92c0-24.28-19.68-43.96-43.96-43.96zM575.84 233.32c-5.96-8.36-17.32-19.24-34.16-32.4l-16.68-13c-9.16-7.040-15.080-15.24-18.12-24.68-1.92-5.96-2.88-15.24-3.040-27.76h-63.68c0.96 26.48 3.52 44.76 7.56 54.84 4 10.12 14.56 21.8 31.4 34.96l17.16 13.48c5.64 4.32 10.28 8.96 13.64 13.96 6.24 8.48 9.32 17.96 9.32 28.36 0 11.88-3.56 22.8-10.44 32.56-7.040 9.8-19.72 14.76-38.16 14.76-18.12 0-31.12-6.080-38.64-18.12-6.76-10.76-10.44-21.8-11.24-33.36v-0.64c0-1.12 0-2.4-0.16-3.52-0.88-8.6-4.92-16.2-10.96-21.68s-14.040-8.8-22.88-8.8c-17.64 0-32.080 13.32-33.84 30.48 0 0 0.32 8.48 0.64 10.88 3.72 39 19.080 67.040 45.88 84.2 18.44 11.88 41.2 17.8 68.16 17.8 35.44 0 64.92-8.32 88.36-25.32 23.4-16.84 35.12-42.040 35.12-75.52 0-20.4-5.16-37.56-15.24-51.48zM584 752h-228c-62.36 0-112-53.64-112-116v-128h80v108c0 6.84 5.16 12 12 12s12-5.16 12-12v-108h244v108c0 6.84 5.16 12 12 12s12-5.16 12-12v-108h80v128c0 61.96-50.040 116-112 116zM470 952c-49.88 0-90.52-40.64-90.52-90.52 0-49.84 40.24-90.48 90.52-90.48 49.48 0 90.48 40.64 90.48 90.48 0 49.88-40.6 90.52-90.48 90.52z" />
<glyph unicode="&#xe92e;" glyph-name="entity-room-map" horiz-adv-x="1023" d="M475.492 789.134h16.881c8.042 0 13.979 2.016 17.855 6.026 3.689 3.947 5.955 9.265 5.955 15.112 0 0.31-0.006 0.619-0.019 0.927l0.001-0.044c0.022 0.344 0.034 0.746 0.034 1.151 0 5.425-2.216 10.332-5.792 13.866l-0.002 0.002c-3.882 3.346-8.973 5.383-14.541 5.383-0.496 0-0.988-0.016-1.475-0.048l0.066 0.003c-0.227 0.008-0.494 0.012-0.763 0.012-5.489 0-10.537-1.891-14.527-5.056l0.048 0.037c-3.753-2.942-6.142-7.476-6.142-12.567 0-0.146 0.002-0.291 0.006-0.436v0.021h-31.679c-0.002 0.138-0.003 0.301-0.003 0.464 0 8.198 2.527 15.806 6.845 22.087l-0.086-0.132c4.738 6.754 11.116 12.058 18.567 15.393l0.285 0.114c7.63 3.528 16.559 5.586 25.968 5.586 0.216 0 0.433-0.001 0.648-0.003h-0.033q25.321 0 39.676-12.096t14.444-33.362c0-0.048 0-0.105 0-0.162 0-7.538-2.496-14.492-6.708-20.082l0.061 0.085c-4.485-6.116-10.393-10.936-17.25-14.024l-0.273-0.11c8.252-2.683 15.118-7.73 19.994-14.335l0.077-0.109c4.169-6.164 6.655-13.762 6.655-21.942 0-0.3-0.003-0.599-0.010-0.898l0.001 0.044c0.016-0.429 0.025-0.934 0.025-1.44 0-13.141-6.022-24.875-15.457-32.594l-0.075-0.059q-15.507-12.827-41.049-12.827-23.903 0-39.056 12.605c-9.316 7.61-15.216 19.099-15.216 31.965 0 0.445 0.007 0.888 0.021 1.329l-0.002-0.064h31.679c-0.004-0.146-0.007-0.318-0.007-0.49 0-5.693 2.575-10.784 6.623-14.174l0.029-0.024c4.278-3.55 9.825-5.704 15.876-5.704 0.26 0 0.519 0.004 0.777 0.012l-0.038-0.001q11.298 0 17.722 5.959c3.999 3.774 6.488 9.11 6.488 15.027 0 0.317-0.007 0.632-0.021 0.945l0.002-0.044q0 23.881-26.296 23.903h-16.77zM395.896 538.207h-109.369v21.688l51.616 55.028c5.735 6.009 10.923 12.64 15.422 19.75l0.307 0.52c3.014 4.66 4.885 10.31 5.094 16.382l0.002 0.055c0.026 0.42 0.040 0.91 0.040 1.404 0 5.816-2.037 11.155-5.437 15.345l0.036-0.045c-3.542 3.777-8.564 6.13-14.135 6.13-0.428 0-0.853-0.014-1.274-0.041l0.057 0.003c-0.292 0.015-0.633 0.023-0.977 0.023-6.385 0-12.099-2.87-15.923-7.391l-0.025-0.031c-3.888-4.917-6.237-11.206-6.237-18.044 0-0.495 0.012-0.987 0.037-1.475l-0.003 0.069h-31.79c-0.001 0.094-0.001 0.205-0.001 0.316 0 9.675 2.625 18.737 7.201 26.513l-0.133-0.245c4.703 8.062 11.391 14.508 19.408 18.79l0.263 0.128c8.061 4.317 17.635 6.854 27.801 6.854 0.351 0 0.701-0.003 1.050-0.009l-0.053 0.001q24.656 0 38.303-11.852t13.646-33.407c-0.144-8.843-2.397-17.128-6.278-24.415l0.141 0.29q-6.159-12.251-21.045-28.6l-36.287-38.258h68.674zM211.029 381.076h-31.59v122.085l-37.815-11.719v25.764l66.016 23.659h3.389zM326.668 960l-326.668-326.712v-364.461l376.712-0.532v377.62h-305.999l115.196 115.196h306.597v-293.616h-95.59v-41.692h136.042v376.911h-305.423l116.37 116.37h305.977v-294.635h-96.897v-41.426h137.814v376.978zM334.71 604.356v-295.654h-294.147v295.654zM746.866 334.577c-0.013 0-0.029 0-0.044 0-61.48 0-111.319-49.839-111.319-111.319s49.839-111.319 111.319-111.319c61.464 0 111.294 49.814 111.319 111.272v0.002c-0.038 61.458-49.824 111.275-111.266 111.363h-0.008zM746.866 167.211c-0.013 0-0.029 0-0.044 0-30.991 0-56.114 25.123-56.114 56.114s25.123 56.114 56.114 56.114c30.975 0 56.088-25.098 56.114-56.067v-0.002c-0.038-30.969-25.107-56.070-56.061-56.158h-0.008zM1002.689 184.889l-28.533 16.371c0.645 6.62 1.014 14.31 1.014 22.087s-0.368 15.467-1.088 23.055l0.074-0.969 28.799 16.349c12.006 7.022 19.943 19.852 19.943 34.536 0 4.28-0.674 8.403-1.923 12.267l0.079-0.282c-13.474 42.572-35.197 79.192-63.477 109.637l0.164-0.179c-7.324 8.059-17.847 13.098-29.547 13.098-7.451 0-14.425-2.044-20.391-5.601l0.183 0.101-28.4-16.393c-11.083 8.079-23.672 15.475-36.973 21.587l-1.374 0.566v32.875c0.001 0.107 0.002 0.233 0.002 0.359 0 19.017-13.312 34.925-31.127 38.913l-0.266 0.050c-19.003 4.436-40.822 6.978-63.236 6.978s-44.233-2.543-65.186-7.355l1.95 0.377c-18.090-4.11-31.391-20.054-31.391-39.105 0-0.022 0-0.043 0-0.065v0.003-32.986c-14.613-6.626-27.161-14.023-38.812-22.571l0.598 0.418-28.467 16.393c-5.76 3.42-12.697 5.441-20.107 5.441-11.672 0-22.173-5.015-29.465-13.008l-0.028-0.031c-28.053-30.3-49.764-66.906-62.749-107.419l-0.564-2.039c-1.155-3.583-1.821-7.706-1.821-11.984 0-14.868 8.044-27.858 20.017-34.855l0.191-0.103 28.444-16.371c-0.645-6.623-1.013-14.317-1.013-22.098s0.368-15.475 1.087-23.067l-0.074 0.969-28.622-16.393c-12.007-7.142-19.926-20.049-19.926-34.807 0-4.26 0.66-8.367 1.884-12.222l-0.078 0.286c13.523-42.547 35.205-79.154 63.4-109.65l-0.176 0.192c7.386-7.956 17.902-12.919 29.578-12.919 7.412 0 14.357 2 20.324 5.49l-0.191-0.103 28.422 16.393c11.069-8.062 23.643-15.456 36.921-21.582l1.381-0.571v-32.786c-0.001-0.081-0.001-0.177-0.001-0.273 0-19.049 13.357-34.978 31.215-38.932l0.265-0.049c18.974-4.393 40.761-6.912 63.136-6.912s44.163 2.518 65.094 7.287l-1.958-0.375c18.067 4.118 31.347 20.047 31.347 39.077 0 0.070 0 0.141-0.001 0.211v-0.011 32.786c14.668 6.69 27.249 14.085 38.965 22.596l-0.641-0.443 28.422-16.415c5.739-3.351 12.635-5.329 19.992-5.329 11.648 0 22.138 4.958 29.474 12.879l0.024 0.026c28.055 30.306 49.767 66.92 62.749 107.441l0.564 2.039c1.23 3.685 1.939 7.928 1.939 12.336 0 14.777-7.972 27.693-19.85 34.68l-0.188 0.103zM913.678 172.439l50.708-29.331c-9.784-26.166-23.094-48.748-39.641-68.53l0.297 0.365-50.708 29.353c-36.929-31.568-42.29-34.692-88.191-50.952v-58.661c-11.826-2.156-25.435-3.39-39.333-3.39s-27.507 1.233-40.725 3.596l1.393-0.206v58.595c-46.388 16.393-52.082 20.181-88.169 50.952l-50.708-29.353c-16.276 19.407-29.589 41.993-38.821 66.576l-0.523 1.589 50.73 29.441c-8.44 46.233-8.861 52.791 0 101.771l-50.708 29.419c9.753 26.164 23.066 48.743 39.635 68.499l-0.291-0.357 50.73-29.331c36.907 31.59 42.29 34.669 88.147 50.952v58.484c11.824 2.040 25.442 3.207 39.333 3.207s27.509-1.166 40.762-3.406l-1.429 0.2v-58.683c46.255-16.393 52.126-19.938 88.191-50.952l50.708 29.331c16.299-19.394 29.62-41.975 38.845-66.56l0.521-1.583-50.753-29.331c8.418-46.211 8.861-52.791 0-101.793z" />
<glyph unicode="&#xe92f;" glyph-name="envelope" d="M928 832h-832c-53 0-96-43-96-96v-576c0-53 43-96 96-96h832c53 0 96 43 96 96v576c0 53-43 96-96 96zM96 768h832c17.6 0 32-14.4 32-32v-82.8c-43.8-37-106.4-88-301.2-242.6-33.8-26.8-100.4-91.4-146.8-90.6-46.4-0.8-113.2 63.8-146.8 90.6-194.8 154.6-257.4 205.6-301.2 242.6v82.8c0 17.6 14.4 32 32 32zM928 128h-832c-17.6 0-32 14.4-32 32v410c45.6-37.4 117.6-95.2 261.4-209.4 41-32.8 113.4-105 186.6-104.6 72.8-0.6 144.6 71 186.6 104.6 143.8 114.2 215.8 172 261.4 209.4v-410c0-17.6-14.4-32-32-32z" />
<glyph unicode="&#xe930;" glyph-name="eraser" d="M995.88 412.12c17.371 17.372 28.115 41.371 28.115 67.88s-10.744 50.508-28.116 67.88l-320 320c-17.372 17.371-41.371 28.115-67.88 28.115s-50.508-10.744-67.88-28.116l-512-512c-17.371-17.372-28.115-41.371-28.115-67.88s10.744-50.508 28.116-67.88l192-192c17.372-17.373 41.371-28.119 67.88-28.12h712c13.255 0 24 10.745 24 24v0 48c0 13.255-10.745 24-24 24v0h-320.24l316.12 316.12zM608 800l320-320-206-206-320 320zM288 96l-192 192 238 238 320-320-110-110z" />
<glyph unicode="&#xe931;" glyph-name="event-communication" d="M895.855 960h-767.834c-70.702-0.059-127.997-57.376-128.021-128.081v-575.919c0.059-70.676 57.343-127.953 128.016-128h192.005v-167.99c0-0.019 0-0.041 0-0.063 0-13.182 10.651-23.877 23.817-23.948h0.132c0.038 0 0.084 0 0.129 0 5.323 0 10.223 1.812 14.116 4.853l-0.051-0.038 249.816 187.185h287.875c70.664 0.071 127.929 57.336 128 127.993v575.924c-0.012 70.704-57.302 128.024-127.994 128.083h-0.006zM959.855 256c-0.106-35.304-28.696-63.894-63.99-64h-309.219l-16.996-12.804-185.733-139.185v151.99h-255.896c-35.304 0.106-63.894 28.696-64 63.99v575.927c0.059 35.339 28.667 63.977 63.99 64.083h767.844c0.018 0 0.039 0 0.061 0 4.549 0 8.985-0.484 13.26-1.402l-0.413 0.074c1.038-0.208 2.075-0.457 3.092-0.726 0.519-0.125 1.017-0.249 1.536-0.415 0.996-0.291 2.075-0.602 2.988-0.934s2.075-0.706 2.947-1.079 1.909-0.789 2.864-1.224 1.868-0.872 2.781-1.349c0.457-0.208 0.913-0.457 1.39-0.726 20.154-11.046 33.6-32.099 33.639-56.295v-0.005zM717.385 730.418c-0.003 0-0.006 0-0.009 0-9.734 0-18.54-3.968-24.892-10.374l-253.429-253.429-107.663 107.559c-6.492 7.281-15.898 11.844-26.37 11.844-19.484 0-35.279-15.795-35.279-35.279 0-10.472 4.563-19.878 11.809-26.34l0.035-0.031 132.545-132.565c6.38-6.358 15.182-10.29 24.903-10.29s18.523 3.931 24.904 10.291l278.349 278.391c6.359 6.38 10.29 15.182 10.29 24.903 0 19.454-15.746 35.23-35.188 35.279h-0.005z" />
<glyph unicode="&#xe932;" glyph-name="expand" d="M670.16 545.82l268.5 268.5v-110.32c0.518-23.171 19.423-41.756 42.67-41.756s42.152 18.585 42.669 41.708l0.001 0.048v213.34c0 1.4 0 2.8-0.22 4.2 0 0.64-0.18 1.24-0.26 1.88s-0.2 1.5-0.34 2.26-0.34 1.4-0.52 2.1-0.3 1.3-0.5 2-0.46 1.36-0.7 2-0.44 1.3-0.7 2-0.58 1.24-0.86 1.84-0.6 1.3-0.94 2-0.68 1.16-1.020 1.72-0.72 1.26-1.12 1.86-0.9 1.24-1.36 1.84-0.72 1.020-1.14 1.52c-0.913 1.128-1.829 2.139-2.797 3.097l-0.003 0.003c-0.965 0.971-1.976 1.893-3.030 2.764l-0.070 0.056c-0.5 0.4-1.020 0.74-1.52 1.12s-1.2 0.94-1.84 1.36-1.24 0.76-1.86 1.12-1.12 0.7-1.72 1.020-1.28 0.62-2 0.94-1.22 0.6-1.84 0.86-1.28 0.46-2 0.7-1.34 0.5-2 0.7-1.3 0.34-2 0.5-1.4 0.38-2.1 0.52-1.52 0.24-2.26 0.34l-1.74 0.14c-1.4 0.12-2.8 0.2-4.2 0.2h-213.34c-23.171-0.518-41.756-19.423-41.756-42.67s18.585-42.152 41.708-42.669l0.048-0.001h110.32l-268.48-268.48c-7.727-7.722-12.507-18.393-12.507-30.18 0-23.564 19.103-42.667 42.667-42.667 11.777 0 22.44 4.772 30.16 12.487v0zM353.82 350.16l-268.48-268.48v110.32c-0.518 23.171-19.423 41.756-42.67 41.756s-42.152-18.585-42.669-41.708l-0.001-0.048v-213.34c0-1.4 0-2.8 0.22-4.2 0-0.64 0.18-1.24 0.26-1.88s0.2-1.5 0.34-2.26 0.34-1.4 0.52-2.1 0.3-1.3 0.5-2 0.46-1.36 0.7-2 0.46-1.28 0.72-2 0.56-1.24 0.84-1.84 0.6-1.3 0.94-2 0.68-1.14 1.020-1.72 0.72-1.26 1.12-1.86 0.9-1.22 1.36-1.84 0.72-1.020 1.14-1.52c0.922-1.127 1.837-2.137 2.8-3.1v0c0.963-0.963 1.973-1.878 3.027-2.742l0.073-0.058c0.5-0.42 1.020-0.76 1.52-1.14s1.2-0.92 1.84-1.36 1.24-0.74 1.86-1.12 1.12-0.7 1.72-1.020 1.28-0.62 2-0.94 1.22-0.58 1.84-0.84 1.28-0.48 2-0.7 1.34-0.5 2-0.72 1.3-0.34 2-0.5 1.4-0.38 2.12-0.52 1.5-0.22 2.26-0.34 1.22-0.2 1.86-0.26c1.4-0.14 2.8-0.22 4.2-0.22h213.2c23.171 0.518 41.756 19.423 41.756 42.67s-18.585 42.152-41.708 42.669l-0.048 0.001h-110.32l268.48 268.64c7.778 7.73 12.593 18.434 12.593 30.263 0 23.56-19.1 42.66-42.66 42.66-11.834 0-22.542-4.818-30.27-12.6l-0.002-0.002zM1015.48-46.84c0.44 0.6 0.92 1.18 1.34 1.82s0.76 1.24 1.12 1.86 0.7 1.12 1.020 1.72 0.62 1.28 0.94 2 0.58 1.22 0.86 1.84 0.46 1.28 0.7 2 0.5 1.34 0.7 2 0.34 1.3 0.5 2 0.38 1.4 0.52 2.1 0.22 1.52 0.34 2.26 0.2 1.24 0.26 1.88c0.14 1.4 0.22 2.8 0.22 4.2v213.16c-0.518 23.171-19.423 41.756-42.67 41.756s-42.152-18.585-42.669-41.708l-0.001-0.048v-110.32l-268.5 268.48c-7.721 7.721-18.388 12.497-30.17 12.497-23.564 0-42.667-19.103-42.667-42.667 0-11.782 4.776-22.449 12.497-30.17l268.5-268.48h-110.32c-23.171-0.518-41.756-19.423-41.756-42.67s18.585-42.152 41.708-42.669l0.048-0.001h213.34c1.4 0 2.8 0 4.2 0.22 0.64 0 1.24 0.18 1.88 0.26s1.5 0.2 2.26 0.34l2.1 0.52c0.64 0.16 1.3 0.3 2 0.5s1.36 0.46 2 0.7 1.28 0.44 2 0.7l1.84 0.86c0.66 0.32 1.3 0.6 2 0.94s1.14 0.68 1.72 1.020 1.26 0.72 1.86 1.12 1.22 0.9 1.82 1.34 1.040 0.74 1.54 1.16c1.12 0.914 2.124 1.823 3.080 2.78v0c0.98 0.98 2 2 2.78 3.080 0.32 0.58 0.68 1.1 1.060 1.62zM145.68 874.66h110.32c23.171 0.518 41.756 19.423 41.756 42.67s-18.585 42.152-41.708 42.669l-0.048 0.001h-213.34c-1.4 0-2.8 0-4.2-0.22-0.64 0-1.24-0.18-1.86-0.26s-1.52-0.2-2.26-0.34-1.42-0.34-2.12-0.52-1.3-0.3-2-0.5-1.36-0.46-2-0.7-1.28-0.46-2-0.72-1.24-0.56-1.86-0.86-1.28-0.58-2-0.92-1.16-0.68-1.72-1.020-1.26-0.72-1.86-1.12-1.24-0.9-1.84-1.36-1.020-0.72-1.52-1.14c-2.218-1.815-4.185-3.782-5.941-5.926l-0.059-0.074c-0.42-0.5-0.76-1.020-1.14-1.52s-0.92-1.2-1.36-1.84-0.76-1.24-1.12-1.86-0.7-1.12-1.020-1.72-0.62-1.28-0.94-2-0.6-1.22-0.86-1.84-0.46-1.28-0.7-2-0.5-1.34-0.7-2-0.34-1.3-0.5-2-0.38-1.4-0.52-2.12-0.24-1.5-0.34-2.26-0.2-1.22-0.28-1.86c-0.12-1.4-0.2-2.8-0.2-4.2v-213.1c0.518-23.171 19.423-41.756 42.67-41.756s42.152 18.585 42.669 41.708l0.001 0.048v110.32l268.74-268.48c7.721-7.721 18.388-12.497 30.17-12.497 23.564 0 42.667 19.103 42.667 42.667 0 11.782-4.776 22.449-12.497 30.17v0z" />
<glyph unicode="&#xe933;" glyph-name="extend" d="M867.44 448.62h-30.96c-8.549 0-15.48-6.931-15.48-15.48v0-387.020c0-17.099-13.861-30.96-30.96-30.96-0.014 0-0.028 0-0.042 0h-681.118c-17.064 0.046-30.88 13.889-30.88 30.96 0 0 0 0 0 0v0 681.16c0 17.099 13.861 30.96 30.96 30.96v0h386.94c8.549 0 15.48 6.931 15.48 15.48v0 30.96c0 8.549-6.931 15.48-15.48 15.48v0h-387.020c-51.296 0-92.88-41.584-92.88-92.88v0-681.16c0-51.296 41.584-92.88 92.88-92.88v0h681.12c51.296 0 92.88 41.584 92.88 92.88v0 387.020c0 0 0 0 0 0 0 8.535-6.908 15.457-15.438 15.48h-0.002zM944.84 944h-0.12l-186-0.32c-55.14 0-82.72-66.84-43.78-105.68l68.26-68.26-512.8-512.8c-4.203-4.202-6.802-10.007-6.802-16.42s2.599-12.218 6.802-16.42l16.42-16.42c4.202-4.203 10.007-6.802 16.42-6.802s12.218 2.599 16.42 6.802l512.88 512.7 68.26-68.26c38.7-38.7 105.6-11.62 105.7 43.68l0.26 186.2c0 0 0 0 0 0 0 34.178-27.656 61.897-61.81 62h-0.010zM944.52 696l-185.78 185.74 186 0.32z" />
<glyph unicode="&#xe934;" glyph-name="eye" horiz-adv-x="1152" d="M576 384c70.692 0 128 57.308 128 128s-57.308 128-128 128v0c-2 0-3.76-0.48-5.7-0.58 3.613-9.645 5.705-20.791 5.705-32.425 0-52.467-42.533-95-95-95-11.634 0-22.78 2.091-33.082 5.919l0.657-0.214c0-2-0.58-3.76-0.58-5.7 0-70.692 57.308-128 128-128v0zM1145.040 477.2c-108.46 211.62-323.18 354.8-569.040 354.8s-460.64-143.28-569.040-354.82c-4.387-8.495-6.959-18.542-6.959-29.19s2.572-20.695 7.129-29.553l-0.17 0.363c108.46-211.62 323.18-354.8 569.040-354.8s460.64 143.28 569.040 354.82c4.387 8.495 6.959 18.542 6.959 29.19s-2.572 20.695-7.129 29.553l0.17-0.363zM576 768c141.385 0 256-114.615 256-256s-114.615-256-256-256c-141.385 0-256 114.615-256 256v0c0.159 141.321 114.679 255.841 255.985 256h0.015zM576 128c-214.72 0-410.92 122.62-512 320 57.931 112.088 147.223 201.090 256.246 257.113l3.314 1.547c-41.74-54.040-67.56-121-67.56-194.66 0-176.731 143.269-320 320-320s320 143.269 320 320v0c0 73.66-25.82 140.62-67.56 194.66 112.336-57.569 201.628-146.571 258.012-255.376l1.548-3.284c-101.060-197.38-297.28-320-512-320z" />
<glyph unicode="&#xe935;" glyph-name="eye-slash" horiz-adv-x="1280" d="M1274-10.5l-1228 967c-2.711 2.181-6.196 3.501-9.989 3.501-5.039 0-9.534-2.33-12.467-5.97l-0.024-0.031-20-25.020c-2.186-2.713-3.509-6.201-3.509-9.999 0-5.034 2.324-9.524 5.959-12.457l0.031-0.024 1228-967c2.713-2.187 6.203-3.511 10.001-3.511 5.044 0 9.542 2.334 12.475 5.98l0.024 0.031 20 25.020c2.181 2.711 3.501 6.196 3.501 9.989 0 5.039-2.33 9.534-5.97 12.467l-0.031 0.024zM640 768c141.321-0.159 255.841-114.679 256-255.985v-0.015c0-43.24-11.8-83.38-30.8-119.14l50.9-40c27.2 46.96 43.9 100.86 43.9 159.14 0 73.66-25.82 140.62-67.56 194.66 112.368-57.565 201.692-146.567 258.112-255.378l1.548-3.282c-35.46-67.978-80.811-125.707-134.927-173.785l-0.613-0.535 50.64-39.88c56.94 52.56 105.74 114.52 141.86 185.020 4.387 8.495 6.959 18.542 6.959 29.19s-2.572 20.695-7.129 29.553l0.17-0.363c-108.46 211.62-323.18 354.8-569.060 354.8-0.098 0-0.214 0-0.33 0-94.272 0-183.648-20.957-263.726-58.466l3.816 1.606 91.54-72c45.18 39.82 103.82 64.86 168.7 64.86zM761.72 474.34c3.99 11.755 6.293 25.294 6.293 39.372 0 69.754-56.546 126.3-126.3 126.3-0.602 0-1.204-0.004-1.804-0.013l0.091 0.001c-2 0-3.78-0.48-5.7-0.58 3.61-9.377 5.701-20.225 5.701-31.562 0-11.81-2.269-23.089-6.395-33.427l0.214 0.609zM326.48 572.66c-3.964-18.167-6.315-39.092-6.479-60.537l-0.001-0.123c-0.001-0.363-0.002-0.792-0.002-1.222 0-176.057 142.723-318.78 318.78-318.78 48.533 0 94.532 10.846 135.707 30.245l-1.945-0.824-59.16 46.58c-23.4-7.060-47.7-12-73.36-12-141.325 0.159-255.849 114.677-256.020 255.984v0.016c0 4.88 1.18 9.44 1.44 14.24zM640 128c-214.72 0-410.94 122.62-512 320 34.86 68 82.18 125.44 136.62 173.44l-51.72 40.74c-56.96-52.56-105.74-114.5-141.86-185-4.387-8.495-6.959-18.542-6.959-29.19s2.572-20.695 7.129-29.553l-0.17 0.363c108.38-211.62 323.1-354.8 568.96-354.8 0.095 0 0.208 0 0.321 0 94.275 0 183.654 20.957 263.735 58.466l-3.816-1.606-58.5 46c-63.62-24.54-131.44-38.86-201.74-38.86z" />
<glyph unicode="&#xe936;" glyph-name="filter" d="M959.936 960h-895.86c-56.85 0-85.534-68.974-45.256-109.254l365.18-365.256v-373.49c0-0.001 0-0.002 0-0.002 0-19.17 8.429-36.371 21.784-48.099l0.072-0.062 128-111.966c40.876-35.766 106.144-7.36 106.144 48.164v485.456l365.19 365.256c40.2 40.198 11.71 109.254-45.254 109.254zM576 512v-512l-128 112v400l-384 384h896l-384-384z" />
<glyph unicode="&#xe937;" glyph-name="front-desk" d="M512 960c-67.6 0-122.88-55.28-122.88-122.88s55.28-122.88 122.88-122.88c67.6 0 122.88 55.28 122.88 122.88s-55.28 122.88-122.88 122.88zM512 919.040c45.52 0 81.92-36.4 81.92-81.92s-36.4-81.92-81.92-81.92c-45.52 0-81.92 36.4-81.92 81.92s36.4 81.92 81.92 81.92zM450.56 693.76c-78.72 0-143.36-64.64-143.36-143.36v-61.44h40.96v61.44c0 56.4 46 102.4 102.4 102.4h122.88c56.4 0 102.4-46 102.4-102.4v-61.44h40.96v61.44c0 78.72-64.64 143.36-143.36 143.36zM860.16 570.88v-20.48h40.96v20.48zM880.64 550.4c-49.2 0-90.88-35.44-100.48-81.92h-759.68c-0.64 0-1.28 0-1.92 0-10.56-0.96-18.64-9.84-18.56-20.48v-81.92c0-11.28 9.2-20.48 20.48-20.48h20.48v-389.12c0-11.28 9.2-20.48 20.48-20.48h901.12c11.28 0 20.48 9.2 20.48 20.48v389.12h20.48c11.28 0 20.48 9.2 20.48 20.48v81.92c0 11.28-9.2 20.48-20.48 20.48h-22.4c-9.6 46.48-51.28 81.92-100.48 81.92zM880.64 509.44c26.64 0 49.040-17.28 57.6-40.96h-115.2c8.56 23.68 30.96 40.96 57.6 40.96zM40.96 427.52h942.080v-40.96h-917.76c-2.72 0.56-5.6 0.56-8.32 0h-16zM81.92 345.6h860.16v-368.64h-860.16z" />
<glyph unicode="&#xe938;" glyph-name="front-desk-dashboard" d="M512 960c-67.865 0-122.88-55.015-122.88-122.88s55.015-122.88 122.88-122.88c67.865 0 122.88 55.015 122.88 122.88v0c0 67.865-55.015 122.88-122.88 122.88v0zM512 919.040c45.243 0 81.92-36.677 81.92-81.92s-36.677-81.92-81.92-81.92c-45.243 0-81.92 36.677-81.92 81.92v0c0 45.243 36.677 81.92 81.92 81.92v0zM450.56 693.76c-79.176 0-143.36-64.184-143.36-143.36v0-61.44h40.96v61.44c0 56.554 45.846 102.4 102.4 102.4v0h122.88c56.554 0 102.4-45.846 102.4-102.4v0-61.44h40.96v61.44c0 79.176-64.184 143.36-143.36 143.36v0zM860.16 570.88v-20.48h40.96v20.48zM880.64 550.4c-0.067 0-0.146 0-0.226 0-49.304 0-90.47-34.846-100.214-81.253l-0.117-0.667h-761.446c-10.49-0.976-18.637-9.735-18.637-20.397 0-0.029 0-0.058 0-0.088v0.004-81.92c0-11.311 9.169-20.48 20.48-20.48v0h20.48v-389.12c0-11.311 9.169-20.48 20.48-20.48v0h901.12c11.311 0 20.48 9.169 20.48 20.48v0 389.12h20.48c11.311 0 20.48 9.169 20.48 20.48v0 81.92c0 11.311-9.169 20.48-20.48 20.48v0h-22.323c-9.861 47.075-51.027 81.92-100.331 81.92-0.079 0-0.159 0-0.238 0h0.012zM880.64 509.44c26.44-0.168 48.903-17.010 57.414-40.532l0.135-0.428h-115.098c8.646 23.95 31.109 40.792 57.528 40.96h0.020zM40.96 427.52h942.080v-40.96h-917.709c-1.262 0.295-2.71 0.463-4.198 0.463s-2.937-0.169-4.328-0.488l0.129 0.025h-15.974zM81.92 345.6h860.16v-368.64h-860.16zM401.203 193.434c6.056 0.031 11.541 2.446 15.571 6.354l-0.006-0.006 2.662 2.458 3.072-1.638 27.443-13.722 3.277-1.434v-3.686c0-1.434 0-2.048 0-2.662-0.065-0.646-0.102-1.396-0.102-2.155 0-12.555 10.178-22.733 22.733-22.733s22.733 10.178 22.733 22.733c0 0.759-0.037 1.509-0.11 2.249l0.007-0.094c-0.067 3.509-0.891 6.809-2.314 9.767l0.061-0.141-1.638 3.277 2.662 2.458 39.526 39.731 3.277-1.638c2.819-1.339 6.116-2.16 9.593-2.252l0.032-0.001c12.555 0 22.733 10.178 22.733 22.733v0c-0.053 2.365-0.499 4.611-1.275 6.695l0.046-0.142-1.843 4.096 2.867 2.253 32.154 24.166 3.072 2.048 2.867-1.843c3.481-2.435 7.804-3.891 12.466-3.891 0.009 0 0.019 0 0.028 0h-0.001c0.061-0.001 0.132-0.001 0.204-0.001 12.555 0 22.733 10.178 22.733 22.733s-10.178 22.733-22.733 22.733c-12.555 0-22.733-10.178-22.733-22.733 0-0.072 0-0.143 0.001-0.215v0.011c0.053-2.365 0.499-4.611 1.275-6.695l-0.046 0.142 1.024-3.482-2.867-2.253-32.358-24.781-2.867-2.048-3.072 1.843c-3.328 2.435-7.502 3.897-12.018 3.897-0.167 0-0.334-0.002-0.5-0.006h0.025c-12.395-0.115-22.413-10.133-22.528-22.517v-0.011c0.069-3.579 0.892-6.949 2.316-9.981l-0.063 0.15 1.638-3.277-2.662-2.458-36.045-37.069-2.458-2.662-3.277 1.638c-3.083 1.682-6.729 2.727-10.607 2.866l-0.043 0.001c-0.003 0-0.007 0-0.011 0-6.122 0-11.679-2.42-15.766-6.356l0.007 0.007-2.662-2.458-3.072 1.638-30.72 15.155v3.686c0 1.434 0 2.048 0 2.662 0.001 0.061 0.001 0.132 0.001 0.204 0 12.555-10.178 22.733-22.733 22.733s-22.733-10.178-22.733-22.733c0-12.555 10.178-22.733 22.733-22.733 0.072 0 0.143 0 0.215 0.001h-0.011zM660.48 34.099h-14.95v200.294c0 0.001 0 0.003 0 0.005 0 2.303-1.811 4.184-4.086 4.296h-37.079c-2.285-0.112-4.096-1.993-4.096-4.296 0-0.002 0-0.003 0-0.005v0-200.294h-28.672v144.998c0 2.262-1.834 4.096-4.096 4.096h-37.069c-2.262 0-4.096-1.834-4.096-4.096v0-144.998h-28.672v71.066c0 2.262-1.834 4.096-4.096 4.096v0h-37.069c-2.262 0-4.096-1.834-4.096-4.096v0-71.066h-28.672v107.93c0 2.262-1.834 4.096-4.096 4.096v0h-37.069c-2.262 0-4.096-1.834-4.096-4.096v0-107.93h-14.95c-2.262 0-4.096-1.834-4.096-4.096s1.834-4.096 4.096-4.096h296.96c2.262 0 4.096 1.834 4.096 4.096s-1.834 4.096-4.096 4.096v0z" />
<glyph unicode="&#xe939;" glyph-name="front-desk-mapping" d="M512 960c-67.865 0-122.88-55.015-122.88-122.88s55.015-122.88 122.88-122.88c67.865 0 122.88 55.015 122.88 122.88v0c0 67.865-55.015 122.88-122.88 122.88v0zM512 919.040c45.243 0 81.92-36.677 81.92-81.92s-36.677-81.92-81.92-81.92c-45.243 0-81.92 36.677-81.92 81.92v0c0 45.243 36.677 81.92 81.92 81.92v0zM450.56 693.76c-79.176 0-143.36-64.184-143.36-143.36v0-61.44h40.96v61.44c0 56.554 45.846 102.4 102.4 102.4v0h122.88c56.554 0 102.4-45.846 102.4-102.4v0-61.44h40.96v61.44c0 79.176-64.184 143.36-143.36 143.36v0zM860.16 570.88v-20.48h40.96v20.48zM880.64 550.4c-0.067 0-0.146 0-0.226 0-49.304 0-90.47-34.846-100.214-81.253l-0.117-0.667h-761.446c-10.49-0.976-18.637-9.735-18.637-20.397 0-0.029 0-0.058 0-0.088v0.004-81.92c0-11.311 9.169-20.48 20.48-20.48v0h20.48v-389.12c0-11.311 9.169-20.48 20.48-20.48v0h901.12c11.311 0 20.48 9.169 20.48 20.48v0 389.12h20.48c11.311 0 20.48 9.169 20.48 20.48v0 81.92c0 11.311-9.169 20.48-20.48 20.48v0h-22.323c-9.861 47.075-51.027 81.92-100.331 81.92-0.079 0-0.159 0-0.238 0h0.012zM880.64 509.44c26.44-0.168 48.903-17.010 57.414-40.532l0.135-0.428h-115.098c8.646 23.95 31.109 40.792 57.528 40.96h0.020zM40.96 427.52h942.080v-40.96h-917.709c-1.262 0.295-2.71 0.463-4.198 0.463s-2.937-0.169-4.328-0.488l0.129 0.025h-15.974zM81.92 345.6h860.16v-368.64h-860.16zM517.325 210.432c-1.773 0.83-3.851 1.315-6.042 1.315s-4.268-0.484-6.131-1.352l0.090 0.037c-3.873-1.66-6.791-4.914-7.962-8.913l-0.025-0.098c-1.105-3.29-1.904-7.119-2.24-11.080l-0.013-0.184c-0.006-0.164-0.010-0.356-0.010-0.55 0-6.186 3.656-11.517 8.926-13.952l0.095-0.039c5.721-2.609 10.605-6.051 14.741-10.235l0.005-0.005c9.014-9.13 14.581-21.681 14.581-35.533s-5.567-26.403-14.586-35.538l0.005 0.005-47.718-48.947c-9.083-9.033-21.605-14.616-35.43-14.616-27.753 0-50.251 22.498-50.251 50.251 0 13.927 5.666 26.531 14.818 35.633l46.082 46.082c2.738 2.742 4.432 6.528 4.432 10.709 0 0.701-0.048 1.391-0.14 2.067l0.009-0.079c-0.1 1.226-0.158 2.654-0.158 4.096s0.057 2.87 0.17 4.282l-0.012-0.186c-0.243 6.035-4.027 11.128-9.321 13.276l-0.1 0.036c-1.68 0.687-3.629 1.085-5.671 1.085-4.069 0-7.768-1.582-10.516-4.165l0.008 0.008-52.634-50.995c-15.907-15.87-25.748-37.813-25.748-62.056 0-48.246 38.979-87.388 87.163-87.653h0.025c24.015 0.037 45.739 9.816 61.436 25.596l48.746 48.746c15.956 15.847 25.832 37.797 25.832 62.054s-9.876 46.208-25.828 62.050l-0.005 0.005c-7.375 7.831-16.22 14.184-26.107 18.633l-0.517 0.208zM651.674 298.086c-15.724 15.748-37.433 25.515-61.424 25.6h-0.016c-24.015-0.037-45.739-9.816-61.436-25.596l-0.004-0.004-49.971-48.742c-15.857-15.892-25.662-37.828-25.662-62.054s9.805-46.162 25.664-62.056l-0.002 0.002c7.701-7.946 16.969-14.323 27.311-18.641l0.541-0.2c1.736-0.777 3.762-1.229 5.893-1.229 0.016 0 0.032 0 0.048 0h-0.002c2.241 0.070 4.343 0.591 6.242 1.475l-0.098-0.041c3.873 1.66 6.791 4.914 7.962 8.913l0.025 0.098c1.084 3.281 1.882 7.108 2.238 11.062l0.015 0.202c0.005 0.147 0.008 0.32 0.008 0.494 0 6.257-3.644 11.662-8.925 14.211l-0.094 0.041c-5.719 2.535-10.605 5.913-14.747 10.037l0.002-0.002c-9.014 9.13-14.581 21.681-14.581 35.533s5.567 26.403 14.586 35.538l48.737 48.737c9.075 9.050 21.599 14.646 35.43 14.646 27.713 0 50.179-22.466 50.179-50.179 0-13.882-5.637-26.447-14.747-35.532l-0.001-0.001-46.080-46.285c-2.738-2.742-4.432-6.528-4.432-10.709 0-0.701 0.048-1.391 0.14-2.067l-0.009 0.079c0.1-1.226 0.158-2.654 0.158-4.096s-0.057-2.87-0.17-4.282l0.012 0.186c0.296-6.017 4.059-11.086 9.32-13.275l0.1-0.037c1.68-0.687 3.629-1.085 5.671-1.085 4.069 0 7.768 1.582 10.516 4.165l50.987 50.987c15.808 15.915 25.578 37.844 25.578 62.054s-9.77 46.14-25.583 62.059l0.005-0.005z" />
<glyph unicode="&#xe93a;" glyph-name="gdn" horiz-adv-x="1011" d="M1010.766 448.97c0.516-282.095-229.533-512.764-511.628-512.97-0.337-0.001-0.737-0.001-1.137-0.001-131.981 0-252.254 50.128-342.818 132.382l0.42-0.376c-5.030 4.552-8.177 11.105-8.177 18.392 0 6.847 2.778 13.046 7.268 17.53v0l35.097 35.097c4.496 4.466 10.691 7.226 17.531 7.226 6.417 0 12.267-2.43 16.679-6.42l-0.022 0.019c72.634-64.953 169.042-104.655 274.722-104.655 228.040 0 412.903 184.863 412.903 412.903s-184.863 412.903-412.903 412.903c-114.5 0-218.116-46.606-292.91-121.883l-0.022-0.022 101.347-99.964c4.601-4.502 7.454-10.775 7.454-17.714 0-13.682-11.092-24.774-24.774-24.774-0.029 0-0.059 0-0.088 0h-264.934c-13.682 0-24.774 11.092-24.774 24.774v0 261.285c0 13.682 11.092 24.774 24.774 24.774 6.785 0 12.932-2.727 17.406-7.145l93.086-91.807c92.561 93.546 220.961 151.474 362.891 151.474 0.214 0 0.428 0 0.642 0h-0.033c282.446 0 511.484-228.707 512-511.030zM734.121 563.613l-222.018 104.175c-4.028 1.762-8.723 2.787-13.657 2.787s-9.628-1.025-13.882-2.875l0.225 0.087-222.637-106.653c-2.439-0.931-4.444-2.542-5.836-4.602l-0.027-0.043-2.065-2.065c-2.783-2.564-4.775-5.948-5.594-9.767l-0.022-0.122c-0.31-0.826-0.516-1.548-0.681-2.065-0.029-0.144-0.064-0.269-0.109-0.389l0.006 0.017-1.074-2.065v-2.952c-0.509-1.411-0.816-3.039-0.846-4.735v-306.285c-0.001-0.071-0.001-0.155-0.001-0.239 0-12.155 6.799-22.722 16.801-28.106l0.17-0.084 220.119-117.12c1.458-1.084 3.192-1.889 5.073-2.296l0.088-0.016c0.517-0.271 1.121-0.511 1.751-0.686l0.066-0.016c2.534-0.851 5.452-1.342 8.485-1.342s5.951 0.491 8.679 1.398l-0.194-0.056c1.009 0.305 1.885 0.69 2.701 1.167l-0.059-0.032h0.908l223.628 118.999c10.171 5.456 16.971 16.016 16.971 28.164 0 0.093 0 0.185-0.001 0.278v-0.014 305.363c0.395 1.235 0.622 2.655 0.622 4.129s-0.227 2.894-0.649 4.228l0.027-0.099c-0.137 2.28-0.732 4.391-1.693 6.284l0.042-0.091v0.619l-1.197 2.374c-0.658 1.293-1.303 2.374-2.009 3.409l0.068-0.106c-0.188 0.253-0.379 0.543-0.554 0.843l-0.024 0.045-0.805 1.631-2.065 2.065zM466.354 395.995v-232.898l-157.729 83.159v232.919zM687.546 479.195v-232.96l-156.883-83.138v232.857zM462.968 586.323l35.448 16.723 150.359-72.258-39.37-21.244zM540.057 473.992l-41.703-22.462-150.090 80.083 42.219 20.067z" />
<glyph unicode="&#xe93b;" glyph-name="grn" horiz-adv-x="1333" d="M1287.674 452.008l-90.65 39.278-77.164 149.991c-20.501 39.753-61.273 66.465-108.284 66.465-0.34 0-0.68-0.001-1.020-0.004h-132.657v37.486c0 67.852-54.225 123.208-122.029 123.208h-160.694v17.163c0 41.093-33.313 74.406-74.406 74.406v0h-446.388c-41.083-0.013-74.382-33.321-74.382-74.406v0-714.801c-0.005-0.325-0.008-0.708-0.008-1.093 0-40.928 32.868-74.179 73.648-74.798l0.058-0.001h17.069c0-2.971-0.306-4.173-0.306-5.965 0.693-84.614 69.447-152.94 154.159-152.94 84.297 0 152.792 67.659 154.143 151.634l0.002 0.127v1.485c0.002 0.176 0.003 0.383 0.003 0.591 0 1.885-0.104 3.745-0.307 5.576l0.020-0.226h512.731v-5.941c0.684-84.621 69.441-152.956 154.159-152.956 84.295 0 152.788 67.654 154.143 151.626l0.002 0.127v7.45h38.405c41.398 0.040 74.945 33.596 74.972 74.993v212.47c0.001 0.135 0.001 0.295 0.001 0.456 0 30.59-18.402 56.883-44.74 68.411l-0.48 0.187zM48.991 588.018v297.576c0.013 14.023 11.371 25.388 25.389 25.415h446.391c14.021-0.027 25.378-11.392 25.391-25.414v-297.577c-0.013-14.018-11.373-25.378-25.39-25.391h-446.389c-14.018 0.013-25.378 11.373-25.391 25.39v0.001zM245.19-6.616h-0.236c-52.149 0.067-94.398 42.358-94.398 94.516 0 52.2 42.316 94.516 94.516 94.516s94.516-42.316 94.516-94.516c0-52.158-42.249-94.449-94.392-94.516h-0.006zM818.417 153.701h-433.798c-25.097 52.973-78.126 88.955-139.558 88.955s-114.461-35.982-139.159-88.021l-0.399-0.934h-30.507c-9.218 0-15.466 7.073-15.466 16.362v153.385h758.841zM818.417 382.954h-758.888v132.026c4.465-0.943 9.595-1.484 14.852-1.485h446.389c41.093 0 74.406 33.313 74.406 74.406v0 220.577h160.694c34.586-0.32 62.501-28.432 62.501-63.063 0-0.117 0-0.234-0.001-0.351v0.018zM877.947 647.689h132.709c0.283 0.005 0.617 0.007 0.952 0.007 24.021 0 44.894-13.48 55.466-33.289l0.165-0.338 59.506-115.169h-248.845zM1065.895-6.616h-0.259c-52.149 0.067-94.398 42.358-94.398 94.516 0 52.2 42.316 94.516 94.516 94.516s94.516-42.316 94.516-94.516c0-52.158-42.249-94.449-94.392-94.516h-0.006zM1258.204 153.842h-52.975c-25.132 52.936-78.153 88.884-139.57 88.884s-114.439-35.948-139.171-87.951l-0.399-0.932h-48.189v285.67h291.635l94.634-41.659c5.653-2.995 9.438-8.841 9.438-15.571 0-0.179-0.003-0.356-0.008-0.534l0.001 0.026v-211.571c0.094-9.218-6.153-16.362-15.395-16.362zM280.012 679.634c1.857-1.864 4.427-3.018 7.266-3.018 0.023 0 0.047 0 0.070 0h-0.004c2.771 0.041 5.267 1.187 7.072 3.017l148.813 148.695c3.030 3.022 4.904 7.201 4.904 11.818 0 2.080-0.381 4.071-1.076 5.908l0.038-0.115h2.24l-15.041 15.041c-3.022 3.006-7.188 4.864-11.788 4.864s-8.766-1.858-11.789-4.865l-123.372-123.278-46.728 46.704c-2.993 3.028-7.147 4.904-11.739 4.904-0.017 0-0.034 0-0.051 0h0.003c-0.070 0.001-0.153 0.002-0.236 0.002-4.499 0-8.577-1.8-11.554-4.719l0.003 0.003-9.1-9.218c-3.006-3.022-4.864-7.188-4.864-11.788s1.858-8.766 4.865-11.789l-0.001 0.001z" />
<glyph unicode="&#xe93c;" glyph-name="history" horiz-adv-x="1011" d="M1010.766 448.97c0.516-282.095-229.533-512.764-511.628-512.97-0.337-0.001-0.737-0.001-1.137-0.001-131.981 0-252.254 50.128-342.818 132.382l0.42-0.376c-5.030 4.552-8.177 11.105-8.177 18.392 0 6.847 2.778 13.046 7.268 17.53v0l35.097 35.097c4.496 4.466 10.691 7.226 17.531 7.226 6.417 0 12.267-2.43 16.679-6.42l-0.022 0.019c72.634-64.953 169.042-104.655 274.722-104.655 228.040 0 412.903 184.863 412.903 412.903s-184.863 412.903-412.903 412.903c-114.5 0-218.116-46.606-292.91-121.883l-0.022-0.022 101.347-99.964c4.601-4.502 7.454-10.775 7.454-17.714 0-13.682-11.092-24.774-24.774-24.774-0.029 0-0.059 0-0.088 0h-264.934c-13.682 0-24.774 11.092-24.774 24.774v0 261.285c0 13.682 11.092 24.774 24.774 24.774 6.785 0 12.932-2.727 17.406-7.145l93.086-91.807c92.561 93.546 220.961 151.474 362.891 151.474 0.214 0 0.428 0 0.642 0h-0.033c282.446 0 511.484-228.707 512-511.030zM665.868 262.813l29.151 40.052c2.964 4.034 4.743 9.098 4.743 14.578 0 8.21-3.994 15.488-10.145 19.995l-0.069 0.049-141.234 102.71v296.836c0 13.682-11.092 24.774-24.774 24.774v0h-49.548c-13.682 0-24.774-11.092-24.774-24.774v0-347.293l182.049-132.397c4.031-2.958 9.090-4.733 14.564-4.733 8.206 0 15.48 3.99 19.988 10.135l0.048 0.069z" />
<glyph unicode="&#xe93d;" glyph-name="holiday" horiz-adv-x="896" d="M864.94 60.24h-33.32l-69.9 140c-5.025 9.942-15.161 16.64-26.861 16.64-0.014 0-0.027 0-0.041 0h-166.378l-119.58 357.52 268.22 89.8c12.045 4.124 20.55 15.349 20.55 28.559 0 5.513-1.481 10.68-4.067 15.125l0.077-0.144c-74 129.42-222 186.36-378 145.74l-7.32 22c-4.116 12.025-15.321 20.517-28.51 20.517-16.606 0-30.067-13.461-30.067-30.067 0-3.417 0.57-6.701 1.62-9.761l-0.063 0.211 7.32-22c-148.92-61.46-233-196.14-214.4-344.1 1.872-14.933 14.49-26.371 29.78-26.371 3.428 0 6.723 0.575 9.791 1.634l-0.211-0.063 268.26 89.82 113.18-338.36h-247.24l-209.4 151.060c-4.873 3.536-10.974 5.656-17.57 5.656-16.633 0-30.116-13.484-30.116-30.116 0-10.037 4.91-18.927 12.459-24.4l0.087-0.060 199.52-143.88-36.98-114.96h-144.72c-16.635 0-30.12-13.485-30.12-30.12s13.485-30.12 30.12-30.12h833.88c16.635 0 30.12 13.485 30.12 30.12s-13.485 30.12-30.12 30.12v0zM141.8 535.080c1.18 80 38.56 151.040 106 201.82-11.2-49.82-10.26-110.52 2.72-165.42zM455 806.26c84.3 0 156.84-34.3 205.74-97.42l-108.64-36.36c-22.58 51.66-58.28 100.7-97.16 133.78zM307.72 590.64c-19 86.76-0.88 182.88 37.46 196.88v0l0.98 0.38c3.28 1.24 31.9 10 81.44-38.18 26.54-25.82 50.84-60.76 67.14-96.4zM238.96 60.24l31.040 96.46h255.18l32.26-96.46zM620.96 60.24l-32.36 96.46h127.64l48.16-96.46z" />
<glyph unicode="&#xe93e;" glyph-name="home" horiz-adv-x="1152" d="M1082 501.68l-122 99.66v154.8c0 6.627-5.373 12-12 12v0h-40c-6.627 0-12-5.373-12-12v0-102.66l-279.62 228.24c-10.938 8.878-25.031 14.255-40.38 14.255s-29.442-5.376-40.499-14.349l0.119 0.094-465.62-380.040c-3.608-2.957-5.892-7.413-5.892-12.403 0-3.833 1.348-7.351 3.595-10.106l-0.023 0.029 20.2-24.82c2.957-3.606 7.412-5.889 12.401-5.889 3.798 0 7.286 1.323 10.030 3.533l-0.031-0.024 81.72 66.76v-486c0-17.673 14.327-32 32-32v0h256c17.673 0 32 14.327 32 32v0 256l128-0.6v-256.16c0-17.673 14.327-32 32-32v0l256 0.66c17.673 0 32 14.327 32 32v0 486.1l81.72-66.76c2.728-2.23 6.251-3.582 10.089-3.582 4.994 0 9.454 2.288 12.388 5.873l0.023 0.028 20.2 24.82c2.218 2.724 3.562 6.237 3.562 10.065 0 5.030-2.321 9.519-5.952 12.452l-0.030 0.024zM895.78 64.5h0.2l-192-0.6v256.34c-0.056 17.615-14.293 31.887-31.889 32h-0.011l-192 0.54c-0.030 0-0.065 0-0.1 0-17.673 0-32-14.327-32-32 0 0 0 0 0 0v0-256.28h-191.98v506.48l320 261.14 320-261.14z" />
<glyph unicode="&#xe93f;" glyph-name="hospital" horiz-adv-x="896" d="M256 472v80c0 13.254 10.746 24 24 24h80c13.254 0 24-10.746 24-24v-80c0-13.254-10.746-24-24-24h-80c-13.254 0-24 10.746-24 24zM536 448h80c13.254 0 24 10.746 24 24v80c0 13.254-10.746 24-24 24h-80c-13.254 0-24-10.746-24-24v-80c0-13.254 10.746-24 24-24zM384 280v80c0 13.254-10.746 24-24 24h-80c-13.254 0-24-10.746-24-24v-80c0-13.254 10.746-24 24-24h80c13.254 0 24 10.746 24 24zM536 256h80c13.254 0 24 10.746 24 24v80c0 13.254-10.746 24-24 24h-80c-13.254 0-24-10.746-24-24v-80c0-13.254 10.746-24 24-24zM896 8v-72h-896v72c0 13.254 10.746 24 24 24h39v757.93c0 23.234 21.49 42.070 48 42.070h177v80c0 26.51 21.49 48 48 48h224c26.51 0 48-21.49 48-48v-80h177c26.51 0 48-18.836 48-42.070v-757.93h39c13.254 0 24-10.746 24-24zM159 34h225v134c0 13.254 10.746 24 24 24h80c13.254 0 24-10.746 24-24v-134h225v702h-129v-48c0-26.51-21.49-48-48-48h-224c-26.51 0-48 21.49-48 48v48h-129v-702zM532 832h-52v52c0 6.627-5.373 12-12 12v0h-40c-6.627 0-12-5.373-12-12v0-52h-52c-6.627 0-12-5.373-12-12v0-40c0-6.627 5.373-12 12-12v0h52v-52c0-6.627 5.373-12 12-12v0h40c6.627 0 12 5.373 12 12v0 52h52c6.627 0 12 5.373 12 12v0 40c0 6.627-5.373 12-12 12v0z" />
<glyph unicode="&#xe940;" glyph-name="indent" horiz-adv-x="896" d="M54.62 662.6c-5.679 5.801-13.589 9.398-22.34 9.4v0c-0.083 0.001-0.182 0.001-0.28 0.001-17.673 0-32-14.327-32-32 0 0 0-0.001 0-0.001v0-384c0 0 0-0.001 0-0.001 0-17.673 14.327-32 32-32 0.091 0 0.183 0 0.274 0.001h-0.014c0.017 0 0.037 0 0.056 0 8.74 0 16.639 3.598 22.298 9.394l192.006 192.006c5.786 5.79 9.365 13.787 9.365 22.62s-3.579 16.83-9.365 22.62v0zM64 333.28v229.44l114.74-114.72zM880 864h-864c-8.837 0-16-7.163-16-16v0-32c0-8.837 7.163-16 16-16v0h864c8.837 0 16 7.163 16 16v0 32c0 8.837-7.163 16-16 16v0zM880 96h-864c-8.837 0-16-7.163-16-16v0-32c0-8.837 7.163-16 16-16v0h864c8.837 0 16 7.163 16 16v0 32c0 8.837-7.163 16-16 16v0zM880 352h-480c-8.837 0-16-7.163-16-16v0-32c0-8.837 7.163-16 16-16v0h480c8.837 0 16 7.163 16 16v0 32c0 8.837-7.163 16-16 16v0zM880 608h-480c-8.837 0-16-7.163-16-16v0-32c0-8.837 7.163-16 16-16v0h480c8.837 0 16 7.163 16 16v0 32c0 8.837-7.163 16-16 16v0z" />
<glyph unicode="&#xe941;" glyph-name="info" d="M512 880c237.242 0 432-192.15 432-432 0-238.582-193.22-432-432-432-238.488 0-432 193.124-432 432 0 238.406 193.204 432 432 432zM512 944c-273.914 0-496-222.166-496-496 0-273.994 222.086-496 496-496s496 222.006 496 496c0 273.834-222.086 496-496 496zM440 256h24v240h-24c-13.254 0-24 10.746-24 24v16c0 13.254 10.746 24 24 24h96c13.254 0 24-10.746 24-24v-280h24c13.254 0 24-10.746 24-24v-16c0-13.254-10.746-24-24-24h-144c-13.254 0-24 10.746-24 24v16c0 13.254 10.746 24 24 24zM512 736c-35.346 0-64-28.654-64-64s28.654-64 64-64 64 28.654 64 64-28.654 64-64 64z" />
<glyph unicode="&#xe942;" glyph-name="info-circle" d="M512 880c237.242 0 432-192.15 432-432 0-238.582-193.22-432-432-432-238.488 0-432 193.124-432 432 0 238.406 193.204 432 432 432zM512 944c-273.914 0-496-222.166-496-496 0-273.994 222.086-496 496-496s496 222.006 496 496c0 273.834-222.086 496-496 496zM440 256h24v240h-24c-13.254 0-24 10.746-24 24v16c0 13.254 10.746 24 24 24h96c13.254 0 24-10.746 24-24v-280h24c13.254 0 24-10.746 24-24v-16c0-13.254-10.746-24-24-24h-144c-13.254 0-24 10.746-24 24v16c0 13.254 10.746 24 24 24zM512 736c-35.346 0-64-28.654-64-64s28.654-64 64-64 64 28.654 64 64-28.654 64-64 64z" />
</font>
</defs>
</svg>
