<?xml version="1.0" encoding="utf-8"?>
<!-- Generator: Adobe Illustrator 16.0.0, SVG Export Plug-In . SVG Version: 6.00 Build 0)  -->
<!DOCTYPE svg PUBLIC "-//W3C//DTD SVG 1.1//EN" "http://www.w3.org/Graphics/SVG/1.1/DTD/svg11.dtd">
<svg version="1.1" id="Layer_1" xmlns="http://www.w3.org/2000/svg" xmlns:xlink="http://www.w3.org/1999/xlink" x="0px" y="0px"
	 width="100%" height="100%" viewbox="-300 280 850 200" enable-background="new 0 0 370 760" xml:space="preserve">
<g id="bigCrayfish">		
		<text x="25" y="25" fill="Black" font-size="25">Left Side</text></g>
<g>
	<g>
		<path class="human" id="Left_lateral_Wrist" fill="#B5B5B5" stroke="#000000" d="M342.994,358.667c0.123,9.021-0.002,10.833,0.248,15.646
			c-1.582,5.854-28.5,4.937-31.25-2.313c1.798-2.18,2.75-3.208,3.209-5.25c0.314-1.415,0.332-3.763,0.459-6.75
			C323.66,366.167,342.492,363.333,342.994,358.667z"/>
		<path fill="#FFFFFF" d="M311.76,372.087l-0.051-0.136l0.488-0.59c1.516-1.83,2.351-2.839,2.761-4.667
			c0.247-1.101,0.308-2.797,0.386-4.943c0.021-0.559,0.041-1.147,0.066-1.763l0.021-0.482l0.385,0.295
			c3.937,3.034,9.903,3.488,13.111,3.488l0,0c7.098,0,13.555-2.173,13.818-4.65l0.498,0.023c0.047,3.357,0.058,5.716,0.066,7.603
			c0.016,3.235,0.023,5.017,0.182,8.034l0.002,0.04l-0.01,0.039c-0.804,2.962-7.119,4.017-12.767,4.017
			C322.486,378.395,313.328,376.229,311.76,372.087z M342.813,366.267c-0.01-1.652-0.02-3.665-0.053-6.393
			c-1.785,2.446-8.085,3.915-13.833,3.915l0,0c-3.17,0-8.989-0.438-13.036-3.309c-0.018,0.445-0.031,0.875-0.048,1.289
			c-0.078,2.173-0.142,3.889-0.396,5.035c-0.438,1.945-1.301,2.987-2.865,4.877l-0.299,0.363c1.639,3.842,10.468,5.851,18.438,5.851
			c6.823,0,11.628-1.415,12.271-3.61C342.836,371.28,342.826,369.39,342.813,366.267z"/>
	</g>
</g>
<g>
	<g>
		<path class="human" id="Left_lateral_Forearrm" fill="#B5B5B5" stroke="#000000" d="M342.994,358.667c-0.168-16.167,0.498-81.667-0.002-77.167s-40.5,0.5-40.5-1.5
			c0-0.985-2.311,19.261,5.25,37.25c7.25,17.25,9.084,25.083,7.918,42.75C323.66,366.167,342.492,363.333,342.994,358.667z"/>
		<path fill="#FFFFFF" d="M315.507,360.199l-0.104-0.082l0.008-0.133c1.183-17.904-0.727-25.571-7.897-42.637
			c-7.271-17.298-5.541-37.056-5.231-37.519l0.075-0.113l0.381,0.001v0.25c0.609,1.103,17.073,3.339,29.536,3.339
			c9.269,0,10.41-1.282,10.473-1.833c0.021-0.197,0.05-0.443,0.295-0.443l0.107,0.002l0.071,0.074
			c0.241,0.242,0.278,4.985,0.104,40.083c-0.074,15.098-0.151,30.711-0.082,37.506c-0.338,3.148-7.694,5.097-14.316,5.097
			c0,0,0.001,0,0,0C325.654,363.791,319.563,363.323,315.507,360.199z M332.271,283.805c-9.521,0-26.646-1.676-29.592-3.333
			c-0.273,2.961-1.453,20.629,5.292,36.681c7.19,17.107,9.115,24.819,7.945,42.729c3.938,2.963,9.829,3.408,13.008,3.408l0,0
			c7.097,0,13.552-2.173,13.817-4.621c-0.07-6.769,0.007-22.383,0.08-37.484c0.084-17.106,0.172-34.732,0.043-38.915
			C342.113,282.967,339.766,283.806,332.271,283.805z"/>
	</g>
</g>
<g>
	<g>
		<path class="human" id="Left_lateral_Elbow" fill="#B5B5B5" stroke="#000000" d="M341.91,259.792c0.5,1.25,1.582,17.208,1.082,21.708s-40.5,0.5-40.5-1.5
			s0.084-16.208,0.084-16.208C314.16,270,342.242,264.292,341.91,259.792z"/>
		<path fill="#FFFFFF" d="M302.242,279.999c0-1.978,0.084-16.067,0.084-16.209l0.002-0.415l0.367,0.196
			c3.295,1.766,8.256,2.7,14.344,2.7c0.001,0,0.001,0,0.002,0c10.926-0.001,21.764-2.88,24.154-5.454
			c0.332-0.357,0.485-0.696,0.465-1.007l-0.119-1.613l0.601,1.502c0.541,1.351,1.604,17.302,1.103,21.829
			c-0.063,0.564-0.254,2.278-10.971,2.278C321.832,283.805,302.242,281.789,302.242,279.999z M341.561,261.158
			c-2.729,2.937-14.416,5.613-24.521,5.613c-0.001,0-0.001,0-0.003,0c-4.18,0-9.984-0.452-14.213-2.57
			c-0.016,2.343-0.082,14.01-0.088,15.765c0.609,1.103,17.071,3.339,29.531,3.339c9.271,0,10.413-1.282,10.477-1.833
			c0.457-4.114-0.393-17.026-0.896-20.676C341.77,260.917,341.674,261.038,341.561,261.158z"/>
	</g>
</g>
<g>
	<g>
		<path class="human" id="Left_lateral_Upperarrm" fill="#B5B5B5" stroke="#000000" d="M270.617,217.5c10.875-1.375,27.574-11.855,31.375-20
			c2.625-5.625,2.479-8.917,2.875-8.375c3.293,4.5,18.25,24.875,24,36.375c5.475,10.947,12.793,29.083,13.125,34.75
			c0.334,5.667-32.5,8.875-39.332,3.75c-1.192-0.894-30.668-29.999-33.334-34.333C266.658,225.333,257.66,212,257.66,212
			C261.656,213.877,266.427,218.03,270.617,217.5z"/>
		<path fill="#FFFFFF" d="M302.509,264.198c-1.536-1.152-30.763-30.121-33.397-34.402c-2.633-4.28-11.567-17.525-11.658-17.658
			l-0.508-0.751l0.82,0.386c1.189,0.558,2.42,1.3,3.724,2.085c2.803,1.69,5.698,3.437,8.38,3.437c0.242,0,0.484-0.015,0.719-0.044
			c10.883-1.376,27.492-11.954,31.182-19.858c1.627-3.488,2.174-6.026,2.465-7.39c0.195-0.912,0.256-1.187,0.56-1.187
			c0.073,0,0.183,0.028,0.28,0.161l0.188,0.257c15.023,20.531,21.253,30.993,23.834,36.154c5.13,10.259,12.804,28.933,13.15,34.847
			c0.033,0.543-0.193,1.076-0.672,1.583c-2.914,3.09-15.074,5.003-24.668,5.003C312.832,266.821,305.55,266.48,302.509,264.198z
			 M304.721,190.109c-0.277,1.286-0.852,3.959-2.502,7.498c-3.816,8.18-20.34,18.722-31.57,20.142
			c-0.254,0.032-0.516,0.048-0.779,0.048l0,0c-2.818,0-5.777-1.784-8.639-3.509c-0.982-0.593-1.924-1.16-2.832-1.639
			c1.975,2.931,8.875,13.208,11.141,16.887c2.623,4.261,31.74,33.116,33.271,34.264c2.137,1.602,7.271,2.521,14.093,2.521
			c9.489,0,21.479-1.852,24.305-4.846c0.381-0.403,0.561-0.81,0.537-1.21c-0.316-5.398-7.301-23.06-13.101-34.653
			c-2.569-5.144-8.784-15.579-23.789-36.082l-0.002-0.005C304.811,189.684,304.766,189.893,304.721,190.109z"/>
	</g>
</g>
<g>
	<g>
		<path class="human" id="Right_median_Wrist" fill="#B5B5B5" stroke="#000000" d="M107.66,316.084c-4.98,2.916-6.887,4.104-8.418,6.854
			c-5.67,2.151-19.76-17.146-15.5-23.625c2.82,0.177,2.453,0.326,4.375-0.5c1.334-0.573,2.3-1.164,4.793-2.813
			C92.076,306.583,103.585,318.415,107.66,316.084z"/>
	</g>
</g>
<g>
	<g>
		<path class="human" id="Right_median_Forearm" fill="#B5B5B5" stroke="#000000" d="M107.16,316.334c14.266-7.607,59.582-29.959,62.332-32.167
			c-3.416,0.667-19.86-38.656-18.086-39.578c0.875-0.455-14.205,10.557-27.289,25.036c-12.5,13.833-16.5,15.875-31.291,25.875
			C91.047,305.443,102.787,318.042,107.16,316.334z"/>
		<path fill="#FFFFFF" d="M98.098,311.193c-3.318-3.965-6.511-10.181-5.518-15.736l0.02-0.104l0.088-0.059
			c1.561-1.054,3-2.02,4.342-2.921c11.457-7.686,15.742-10.562,26.903-22.914c10.534-11.658,22.274-21.001,26.132-24.072
			c0.504-0.401,0.863-0.687,1.055-0.848c0.055-0.094,0.121-0.144,0.174-0.171l0.654-0.532l-0.271,0.652l0.001,0.003
			c0.057,0.152-0.029,0.249-0.143,0.35c-0.527,2.128,9.801,27.997,15.632,36.725c1.411,2.113,2.028,2.356,2.272,2.356
			c0.002,0,0.004,0,0.006,0l0.994-0.194l-0.791,0.634c-1.645,1.321-18.246,9.717-34.304,17.838
			c-11.433,5.782-22.231,11.242-28.094,14.367c-0.296,0.115-0.626,0.174-0.984,0.174c0.001,0,0.001,0,0,0
			C104.092,316.741,100.961,314.615,98.098,311.193z M166.751,281.842c-4.894-7.326-15.295-31.803-15.706-36.585l-0.354,0.299
			l0.021-0.049c-0.105,0.084-0.217,0.173-0.338,0.27c-3.85,3.064-15.564,12.388-26.071,24.015
			c-11.203,12.397-15.503,15.283-26.996,22.994c-1.315,0.883-2.727,1.83-4.252,2.861c-0.905,5.36,2.2,11.37,5.427,15.224
			c2.729,3.262,5.785,5.369,7.786,5.369c0.296,0,0.564-0.046,0.775-0.127c5.841-3.114,16.641-8.577,28.075-14.36
			c15.078-7.625,30.639-15.496,33.773-17.477C168.449,284.03,167.789,283.399,166.751,281.842z"/>
	</g>
</g>
<g>
	<g>
		<path class="human" id="Right_median_Elbow" fill="#B5B5B5" stroke="#000000" d="M185.785,273.125c-1.058,0.837-11.584,8.292-16.125,10.875
			c-3.938,2.239-19.943-38.458-18.418-39.75c1.625-1.375,16.918-12.25,16.918-12.25
			C166.992,243.563,180.492,275.583,185.785,273.125z"/>
		<path fill="#FFFFFF" d="M169.32,284.339c-3.484-0.002-11.939-20.012-15.49-29.703c-2.393-6.536-3.318-10.095-2.75-10.577
			c1.615-1.367,16.311-11.819,16.936-12.263l0.448-0.319l-0.056,0.548c-0.95,9.413,7.843,32.379,13.969,39.152
			c1.084,1.199,2.05,1.832,2.792,1.832c0.001,0,0.001,0,0.001,0c0.181,0,0.352-0.037,0.51-0.11l1.92-0.892l-1.658,1.314
			c-1.111,0.881-11.604,8.307-16.154,10.896C169.642,284.298,169.486,284.339,169.32,284.339L169.32,284.339z M182.005,271.512
			c-6.069-6.709-14.729-29.178-14.138-38.997c-2.512,1.788-15.019,10.702-16.449,11.909c-0.706,1.241,7.376,23.478,13.797,34.526
			c2.473,4.253,3.632,4.889,4.104,4.889l0,0c0.08,0,0.151-0.018,0.217-0.056c4.005-2.277,12.621-8.311,15.346-10.296
			C184.045,273.361,183.078,272.698,182.005,271.512z"/>
	</g>
</g>
<g>
	<g>
		<path class="human" id="Right_median_Upperarm" fill="#B5B5B5" stroke="#000000" d="M188.16,270.167c0,0-0.104,1.245-1.834,2.667
			c-6.5,5.334-21.711-37.766-17.334-41.833c2.053-1.908,3.449-4.223,7.625-10.813c5.625-8.875,10.336-18.995,11.125-17.75
			C187.994,202.833,188.16,270.167,188.16,270.167z"/>
		<path fill="#FFFFFF" d="M173.693,256.427c-4.263-10.851-7.25-23.397-4.871-25.608c1.875-1.744,3.186-3.815,6.69-9.353l0.894-1.411
			c2.224-3.507,4.349-7.29,6.057-10.33c3.18-5.661,4.359-7.641,5.109-7.641c0.156,0,0.291,0.078,0.381,0.22
			c0.254,0.397,0.395,42.689,0.457,67.884c-0.004,0.055-0.131,1.368-1.926,2.84c-0.414,0.34-0.877,0.513-1.375,0.513
			C180.756,273.541,175.271,260.441,173.693,256.427z M187.91,270.167c-0.055-22.519-0.209-65.015-0.398-67.564
			c-0.645,0.301-2.662,3.891-4.613,7.367c-1.711,3.044-3.841,6.834-6.07,10.352l-0.895,1.411c-3.529,5.577-4.849,7.664-6.771,9.451
			c-1.926,1.789,0.363,13.265,4.996,25.059c4.07,10.36,8.267,16.797,10.951,16.797c0.385,0,0.73-0.131,1.059-0.4
			C187.773,271.322,187.908,270.167,187.91,270.167L187.91,270.167z"/>
	</g>
</g>
<g>
	<path class="human" id="Right_median_Knee" fill="#B5B5B5" stroke="#000000" d="M130.906,503.832c-12.025,27.542,1.744,37.82,2.521,40.536
		c4.065,0.007,44.815-5.618,45.897-6.735c-1.586-5.563-2.48-10.492-1.33-12.216C180.033,522.361,147.242,516.25,130.906,503.832z"/>
</g>
<g>
	<g>
		<path class="human" id="Right_median_Thigh" fill="#B5B5B5" stroke="#000000" d="M208.68,483.854c0,0-6.953-24.42-8.354-28.521c-6.666-19.5-9-42-9.332-47.333
			c-0.334-5.333,2.5-40,2.5-40c-10.666,12.834-25.5,41.667-28.5,48s-19.666,52.167-23.332,62.167c-3.668,10-7,17.333-10.754,25.665
			c-1.722,3.816,47.086,20.501,47.086,20.501C189.326,499.667,208.68,483.854,208.68,483.854z"/>
		<path fill="#FFFFFF" d="M177.831,524.805c-4.634-1.583-45.341-15.611-47.359-20.271c-0.174-0.401-0.108-0.715-0.021-0.907
			l0.354-0.789c3.67-8.144,6.841-15.177,10.386-24.843l1.688-4.614c5.682-15.546,18.988-51.952,21.661-57.595
			c2.351-4.963,17.606-34.916,28.567-48.106l1.012-1.217l-0.129,1.578c-0.028,0.346-2.826,34.692-2.5,39.928
			c0.425,6.798,2.925,28.53,9.308,47.202c1.39,4.067,8.293,28.302,8.362,28.546l0.091,0.315l-0.255,0.208
			c-0.191,0.158-19.398,16.031-30.551,40.302l-0.188,0.41L177.831,524.805z M199.854,455.495
			c-6.42-18.777-8.933-40.629-9.357-47.464c-0.295-4.709,1.813-31.489,2.369-38.46c-10.004,12.671-23.684,38.757-27.418,46.643
			c-2.653,5.604-15.949,41.979-21.627,57.51l-1.688,4.615c-3.558,9.7-6.733,16.749-10.412,24.91l-0.354,0.788
			c-0.44,2.199,23.641,11.891,46.365,19.677c10.571-22.735,28.071-38.072,30.382-40.035
			C207.296,480.821,201.148,459.285,199.854,455.495z"/>
	</g>
</g>
<g>
	<g>
		<path class="human" id="Right_median_Lower_Limb" fill="#B5B5B5" stroke="#000000" d="M131.242,637c0-3.75-0.25-24.75,0-33.75s2.185-58.882,2.185-58.882
			l45.315-6.618c0,0,4,13,6,19s4.5,19.75,1.5,35s-26.916,77.417-26.916,79.417s-15.326,4.583-22.5,4.083
			c-7.735-0.539-12.584-8-12.584-8C126.242,665.25,131.242,640.75,131.242,637z"/>
		<path fill="#FFFFFF" d="M123.809,667.503l-0.195-0.333l0.273-0.273c1.801-1.799,6.854-26.173,6.854-29.896
			c0-0.858-0.012-2.616-0.029-4.927c-0.057-7.649-0.163-21.89,0.029-28.837c0.248-8.901,2.166-58.392,2.186-58.891l0.018-0.415
			l46.149-6.737l0.126,0.406c0.04,0.133,4.021,13.063,5.997,18.989c2.452,7.356,4.319,21.002,1.518,35.255
			c-1.96,9.975-12.887,40.078-20.116,60c-3.608,9.947-6.727,18.537-6.789,19.32c0,3.125-19.971,4.485-22.983,4.583
			c-0.122,0.004-0.242,0.006-0.36,0.006C128.736,675.756,124.008,667.84,123.809,667.503z M133.91,544.803
			c-0.188,4.831-1.935,50.002-2.168,58.461c-0.192,6.936-0.088,21.159-0.03,28.806c0.017,2.313,0.03,4.073,0.03,4.934
			c0,3.511-4.633,26.638-6.896,30.272c0.917,1.402,5.396,7.732,11.963,7.478c9.405-0.303,21.547-2.291,22.018-3.583
			c0-0.718,1.879-5.962,6.85-19.661c7.221-19.894,18.129-49.957,20.076-59.853c3.644-18.519-0.948-33.142-1.484-34.745
			c-1.779-5.339-5.181-16.344-5.877-18.604L133.91,544.803z"/>
	</g>
</g>
<g>
	<path class="human" id="Left_Lateral_Foot" fill="#B5B5B5" stroke="#000000" stroke="#FFFFFF" stroke-width="0.5" stroke-miterlimit="10" d="M198.076,729.833
		c2.75-1.5,8.582-5.833,10.832-7.583s9.334-1.75,11.084-1.75s6.25-4.25,7.75-6.5s7.5-5,10.5-5.5s4.883-5.149,6.334-9.416
		c1.416-4.167,2.425-9.417,2.425-9.417s4.503,1.13,12.5,1.333c19.674,0.5,21.499-1,28.249-4c0.698,2.793,1,17.25,3.5,19.5
		c7.779,7.002,8.439,25.441,4.25,34.75c-4.5,10-31.588,8.188-33.25,6.75c-9.25-8-16.75-7.5-19.5-7.5s-21.584,5.917-28.25,7.25
		c-6.455,1.291-19.083,1.5-25.333,0.917c-6.022-0.562-10.917-0.167-14.925-5.416c-3.25-5.084,0.75-9.001,0.75-9.001
		S195.326,731.333,198.076,729.833z"/>
</g>
<g>
	<g>
		<path class="human" id="Left_Lateral_Lower_Limb" fill="#B5B5B5" stroke="#000000" d="M233.242,600.749c-1-4.125-3.809-49.979-3.809-49.979l46.559-11.521
			c0,0,3.752,7.383,7.25,15.5c4.418,10.251,10.072,40.242,8.084,50.584c-1.088,5.66-6.586,23.263-8.209,27.791
			s3.543,44.542,4.459,52.542c0.742,6.477-39.592,6.796-41.073,2.813C246.264,687.834,234.242,604.874,233.242,600.749z"/>
		<path fill="#FFFFFF" d="M246.035,688.654c-0.096-0.258-0.965-6.089-4.127-27.488c-3.604-24.375-8.534-57.757-9.15-60.298
			c-0.999-4.121-3.707-48.193-3.822-50.067l-0.023-0.416l47.352-11.716l0.18,0.354c0.037,0.071,3.799,7.487,7.264,15.525
			c4.326,10.044,10.186,40.108,8.115,50.877c-1.121,5.821-6.711,23.631-8.229,27.865c-1.368,3.821,2.479,35.659,3.927,47.646
			c0.244,2.01,0.438,3.616,0.561,4.673c0.068,0.616-0.139,1.205-0.615,1.739c-2.607,2.926-14.033,4.231-24.201,4.231
			C260.563,691.583,247.072,691.442,246.035,688.654z M229.958,551.154c0.284,4.604,2.842,45.647,3.771,49.477
			c0.625,2.586,5.361,34.636,9.166,60.389c2.123,14.363,3.957,26.771,4.076,27.284c0.416,1.121,6.622,2.279,16.285,2.279
			c11.764,0,21.409-1.604,23.456-3.897c0.284-0.316,0.405-0.634,0.368-0.963c-0.121-1.052-0.314-2.658-0.559-4.666
			c-2.633-21.787-5.152-44.539-3.875-48.102c1.729-4.821,7.129-22.205,8.188-27.717c1.977-10.277-3.792-40.405-8.052-50.291
			c-3.021-7.016-6.271-13.549-7.058-15.117L229.958,551.154z"/>
	</g>
</g>
<g>
	<g>
		<path class="human" id="Left_Lateral_Knee_1_" fill="#B5B5B5" stroke="#000000" d="M219.242,534c1.75,9,8.185,16.105,10.875,16.875
			c2.691,0.77,45.875-11.625,45.875-11.625c-7.375-18.5-9.5-37.75-9.5-37.75c-2.25,3.75-13.25,7.25-21.75,9s-26.75,4-26.75,4
			C218.867,520.25,217.492,525,219.242,534z"/>
		<path fill="#FFFFFF" d="M229.98,551.355c-2.938-0.843-9.437-8.031-11.229-17.263c-1.03-5.305-0.987-9.162-0.948-12.563
			c0.026-2.367,0.055-4.604-0.305-6.955l-0.078-0.509l0.512-0.063c0.182-0.021,18.326-2.267,26.709-3.993
			c8.883-1.83,19.373-5.353,21.424-8.768l0.763-1.271l0.164,1.477c0.021,0.188,2.202,19.396,9.467,37.619l0.205,0.514l-0.531,0.15
			c-1.661,0.479-40.743,11.68-45.663,11.681l0,0C230.264,551.409,230.109,551.393,229.98,551.355z M266.146,502.745
			c-3.432,3.537-13.33,6.604-21.304,8.245c-7.631,1.568-23.274,3.563-26.282,3.941c0.295,2.243,0.27,4.368,0.244,6.608
			c-0.039,3.354-0.082,7.157,0.93,12.362c1.728,8.882,8.156,15.813,10.521,16.487c0.002,0,0.056,0.018,0.212,0.018l0,0
			c4.479-0.001,40.064-10.12,44.855-11.488C269.201,523.342,266.74,507.188,266.146,502.745z"/>
	</g>
</g>
<g>
	<g>
		<path class="human" id="Left_Lateral_Thigh" fill="#B5B5B5" stroke="#000000" d="M217.992,334.25c-8.398,8.14-6.602,24.304-7.25,26.25
			c-2.25,6.75-17.25,7.5-17.25,7.5s-1,1.5-2.5,23s6.5,55,8,62s19,61.5,19,61.5s49.75-5.375,48.25-14.375
			c-0.881-5.287-0.582-13.834,3-21c2-4,4.345-10.25,5.375-14.375c2.502-10-1.623-60.75,0.688-67.787
			c2.313-7.037,14.021-23.296,8.354-52.629c-2.763-14.296-12.576-22.292-23.326-25.667
			C255.068,316.339,230.964,321.682,217.992,334.25z"/>
	</g>
</g>
<g>
	<g>
		<path class="human" id="Right_median_Foot" fill="#B5B5B5" stroke="#000000" stroke="#FFFFFF" stroke-width="0.5" stroke-miterlimit="10" d="M108.5,693.5
			c11.25-6.75,15.864-28.678,16.5-26.667c4.167,13.167,23,8.334,34.367,4.542c0.857-0.528-4.457,11.626-3.623,16.042
			c0.865,4.585,5.332,7,7.666,11.334s4.957,21.582-0.834,28.083c-6.006,6.743-26.207,3.875-28.959,3.041
			c-1.914-0.58-11.623-2.042-15.957-4.125c-3.426-1.646-16.25,1.167-27.168,3.333c-10.338,2.052-30.135,5.589-35.665,3.418
			c-5.532-2.171-7.827-4.667-7.661-9.334c2.167-6.334,15.62-7.278,29.083-12.584C90.104,705.124,103.26,697.051,108.5,693.5z"/>
	</g>
</g>
<g>
	<g>
		<path class="human" id="Left_Lateral_acromial" fill="#B5B5B5" stroke="#000000" d="M266.66,154.333c-17.813,0-40.668,13.941-40.668,32.167
			s15.523,32.5,33.334,32.5c17.813,0,45-11.774,45-30S284.473,154.333,266.66,154.333z"/>
		<path fill="#FFFFFF" d="M235.809,209.765c-6.49-6.213-10.064-14.476-10.064-23.265c0-17.957,22.385-32.417,40.918-32.417
			c8.636,0,18.234,3.948,25.679,10.562c7.776,6.91,12.237,15.787,12.237,24.355c0,18.185-27.235,30.25-45.25,30.25
			C250.549,219.25,242.195,215.882,235.809,209.765z M226.242,186.5c0,17.783,14.842,32.25,33.084,32.25
			c17.814,0,44.75-11.866,44.75-29.75c0-8.425-4.399-17.166-12.069-23.981c-7.354-6.535-16.83-10.436-25.347-10.436
			C248.354,154.583,226.242,168.82,226.242,186.5z"/>
	</g>
</g>
<g>
	
		<ellipse class="human" id="Left_armpit" fill="#B5B5B5" stroke="#000000" stroke="#FFFFFF" stroke-width="0.5" stroke-miterlimit="10" cx="263.5" cy="200.125" rx="19.75" ry="15.625"/>
</g>
<g>
	<g>
		<path d="M194.904,92.625l0.053-0.999c2.195,0.114,5.805,0.285,6.152,0.255l0.07,0.494l0.121,0.485
			c-0.027,0.007-0.074,0.019-0.357,0.019C200.389,92.879,198.926,92.834,194.904,92.625z"/>
	</g>
	<g>
		<path d="M195.828,95.886c1.582-0.949,4.205-2.788,4.773-3.459c-0.105-0.031-0.26-0.064-0.398-0.094
			c-0.454-0.098-1.143-0.246-2.082-0.616c-3.406-1.342-6.289-4.051-6.41-4.165l0.688-0.727c0.028,0.027,2.867,2.692,6.09,3.961
			c0.863,0.34,1.479,0.472,1.929,0.569c0.61,0.132,1.19,0.257,1.265,0.971c0.11,1.115-4.775,4.083-5.334,4.417L195.828,95.886z"/>
	</g>
	<g>
		<g>
			<g>
				<path d="M243.177,82.237c-0.974-0.659-2.126-1.983-2.094-4.553c0.038-2.894,0.047-3.705,0.048-3.896h-0.001l0.011-0.563
					l0.5,0.008c0.252,0.004,0.377,0.006,0.434,0.566l0.059,0.008l-0.059-0.001c0.056,0.561,0.039,1.676,0.012,3.892
					c-0.021,1.682,0.551,2.965,1.652,3.712c1.271,0.861,3.033,0.856,4.115,0.406c0.78-0.323,1.662-1.803,2.518-3.234
					c0.957-1.607,1.945-3.269,3.191-4.223c3.814-2.918,5.739-6.826,5.723-11.615c-0.014-3.37-1.006-5.751-2.948-7.077
					c-2.155-1.471-5.198-1.343-7.114-0.6c-2.566,0.994-3.729,3.448-3.881,4.001c-0.258,0.956-1.605,1.022-1.762,1.026l-0.029-1
					c0.342-0.012,0.787-0.146,0.825-0.287c0.229-0.851,1.548-3.537,4.481-4.673c1.66-0.643,5.223-1.217,8.041,0.707
					c2.231,1.523,3.371,4.18,3.387,7.899c0.018,5.119-2.039,9.295-6.113,12.413c-1.094,0.837-2.031,2.415-2.941,3.94
					c-1.021,1.714-1.904,3.195-2.99,3.646c-0.559,0.229-1.273,0.376-2.039,0.376C245.195,83.115,244.105,82.866,243.177,82.237z"/>
			</g>
			<g>
				<path d="M245.215,74.953c-0.453-0.258-1.066-0.963-0.082-2.782c0.409-0.754,0.775-1.168,1.068-1.501
					c0.509-0.574,0.719-0.811,0.507-2.7c-0.104-0.929,0.278-1.522,0.56-1.955c0.295-0.459,0.365-0.593,0.168-0.937
					c-0.146-0.253-0.275-0.475-0.393-0.668c0.081,0.743,0.24,1.254,0.262,1.321l-0.951,0.31c-0.021-0.065-2.041-6.493,4.104-8.961
					c1.934-0.776,3.768-0.517,5.168,0.727c1.813,1.61,2.684,4.683,2.018,7.146c-0.593,2.193-2.324,7.344-5.656,7.818
					c-0.733,0.104-1.295,0.052-1.746,0.01c-0.84-0.078-1.123-0.105-1.766,0.968c-0.457,0.764-1.556,1.39-2.48,1.39
					C245.709,75.139,245.443,75.082,245.215,74.953z M250.328,71.784c0.42,0.039,0.895,0.084,1.512-0.004
					c2.82-0.401,4.412-5.527,4.833-7.089c0.563-2.087-0.19-4.784-1.715-6.138c-1.12-0.994-2.55-1.181-4.13-0.547
					c-2.857,1.147-3.674,3.254-3.813,4.979l0.215-0.149c0.016,0.022,0.385,0.549,1.068,1.743c0.512,0.887,0.104,1.518-0.193,1.978
					c-0.252,0.389-0.472,0.725-0.404,1.299c0.25,2.231-0.066,2.702-0.75,3.475c-0.273,0.31-0.584,0.661-0.938,1.315
					c-0.457,0.845-0.479,1.337-0.304,1.437c0.36,0.204,1.498-0.169,1.901-0.847c0.73-1.223,1.35-1.483,2.141-1.483
					C249.936,71.753,250.126,71.767,250.328,71.784z"/>
			</g>
			<g>
				<path d="M250.439,71.908c0.574-1.284,0.66-2.46,0.256-3.494c-0.676-1.733-2.52-2.543-2.537-2.551l0.394-0.919
					c0.091,0.039,2.238,0.972,3.072,3.097c0.509,1.296,0.417,2.733-0.271,4.275L250.439,71.908z"/>
			</g>
			<g>
				<path d="M245.621,81.077l0.386-0.923c0.459,0.191,1.065,0.141,1.623-0.132c0.454-0.222,0.675-0.496,0.706-0.616l0.966,0.26
					c-0.126,0.469-0.586,0.938-1.229,1.254c-0.476,0.233-0.974,0.351-1.448,0.351C246.273,81.271,245.934,81.207,245.621,81.077z"/>
			</g>
		</g>
		<g>
			<path d="M212.055,112.179c0.168-0.037,16.965-3.722,25.023-10.804c6.322-5.556,9.385-11.836,9.104-18.667l0.998-0.041
				c0.295,7.147-2.881,13.694-9.438,19.459c-8.256,7.252-24.776,10.879-25.477,11.03L212.055,112.179z"/>
		</g>
		<g>
			<path d="M193.057,79.667c-0.104-1.5,1.334-1.479,1.729-0.958c0.43,0.565-1.106,1.413-0.832,1.667
				c0.541,0.5,2.854-0.252,2.791-1.688c-0.084-1.896-4.532-2.5-4.771,0.5C191.973,79.188,193.08,80.005,193.057,79.667z"/>
			<g>
				<path d="M194.365,81.044c0.433-0.063,3.824-1.077,4.531-3.124c0.473-1.37-1.281-2.808-1.301-2.822l0.627-0.78
					c0.096,0.076,2.32,1.891,1.617,3.928c-0.943,2.738-5.148,3.795-5.432,3.795L194.365,81.044z"/>
			</g>
			<g>
				<path d="M209.885,49.829c-2.92-1.512-5.441-2.817-9.539-1.964c-0.49,0.101-0.82,0.306-1.011,0.627
					c-0.367,0.616-0.116,1.479-0.112,1.487l-0.479,0.146l0.479-0.147l-0.957,0.295c-0.015-0.052-0.384-1.283,0.207-2.284
					c0.336-0.572,0.897-0.943,1.67-1.104c4.445-0.926,7.244,0.522,10.203,2.055c1.16,0.601,2.358,1.222,3.696,1.715l-0.347,0.938
					C212.299,51.08,211.07,50.444,209.885,49.829z"/>
			</g>
			<g>
				<path d="M202.449,53.971c-1.219-0.436-1.668,0.424-1.746,0.601l-0.922-0.389c0.279-0.67,1.267-1.775,3.004-1.153
					c1.75,0.625,8.002,2.875,8.002,2.875l-0.34,0.938C210.447,56.845,204.199,54.596,202.449,53.971z"/>
			</g>
			<g>
				<path d="M203.07,62.145l0.012-1c0.006,0,0.012,0,0.02,0c1.414,0,4.584-1.745,5.4-2.458c-1.551-1.552-4.99-2.022-6.031-1.709
					l-0.287-0.958c1.51-0.452,5.641,0.203,7.323,2.291c0.146,0.18,0.167,0.423,0.058,0.649c-0.422,0.87-4.586,3.186-6.467,3.186
					C203.088,62.146,203.078,62.146,203.07,62.145z"/>
			</g>
			<g>
				<path d="M202.8,62.093c-0.547-0.122-1.036-0.551-1.377-1.208c-0.59-1.136-0.647-2.718-0.142-3.936
					c0.268-0.646,0.854-1.032,1.572-1.032c1.104,0,2.379,0.913,2.592,2.441c0.185,1.311-0.051,2.49-0.629,3.157
					c-0.367,0.423-0.867,0.646-1.442,0.646l0,0C203.191,62.161,202.998,62.138,202.8,62.093z M202.205,57.333
					c-0.457,1.103-0.266,2.376,0.105,3.092c0.197,0.384,0.457,0.636,0.709,0.693c0.125,0.028,0.244,0.042,0.354,0.042l0,0
					c0.29,0,0.508-0.095,0.688-0.301c0.381-0.438,0.535-1.364,0.396-2.362c-0.138-0.976-0.938-1.58-1.603-1.58
					C202.537,56.917,202.318,57.057,202.205,57.333z"/>
			</g>
			<ellipse cx="202.066" cy="58.625" rx="1.385" ry="1.542"/>
			<g>
				<g>
					<g>
						<path d="M51.501,732.424c-2.89-1.518-5.668-5.702-5.193-9.515c0.218-1.745,1.362-4.86,6.589-6.115
							c8.98-2.153,30.635-8.99,38.297-13.837c1.683-1.064,3.465-2.164,5.273-3.279c8.051-4.964,17.176-10.59,19.206-14.383
							c3.438-6.426,15.364-34.855,14.623-53.021c-0.745-18.249-0.571-34.403,0.582-54.021c0.341-5.795,0.683-10.875,0.974-15.229
							c0.672-10.016,1.115-16.628,0.614-18.382c-0.076-0.27-0.59-0.971-1.086-1.646c-3.498-4.779-11.69-15.971-1.39-39.563
							c8.209-18.804,12.498-31.809,16.281-43.282c1.69-5.125,3.287-9.966,5.032-14.656c8.543-22.969,26.966-62.987,42.698-79.097
							l1.431,1.397c-15.516,15.889-33.77,55.588-42.251,78.396c-1.732,4.654-3.322,9.479-5.008,14.586
							c-3.798,11.518-8.104,24.567-16.35,43.458c-9.84,22.539-2.125,33.079,1.17,37.58c0.736,1.005,1.221,1.668,1.396,2.279
							c0.596,2.087,0.191,8.117-0.543,19.063c-0.292,4.35-0.632,9.424-0.973,15.212c-1.148,19.547-1.322,35.642-0.58,53.819
							c0.758,18.578-11.361,47.516-14.857,54.047c-2.285,4.27-11.25,9.797-19.92,15.142c-1.802,1.112-3.578,2.207-5.255,3.269
							c-7.841,4.963-29.809,11.912-38.897,14.094c-3.093,0.741-4.8,2.228-5.071,4.417c-0.355,2.857,1.892,6.314,4.139,7.495
							c6.9,3.624,42.519-3.33,54.22-5.615l2.539-0.493c4.873-0.936,8.998,0.236,14.219,1.719c6.1,1.734,13.693,3.894,26.119,3.894
							c6.144,0,10.554-1.565,13.108-4.653c4.354-5.268,2.694-13.977,1.701-19.179c-0.208-1.092-0.388-2.033-0.481-2.782
							c-0.546-4.365-3.455-7.82-6.27-11.16c-0.959-1.14-1.865-2.216-2.66-3.31c-2.132-2.932,1.645-13.15,8.499-30.964
							c3.426-8.9,7.31-18.988,9.974-27.72c1.379-4.525,2.808-8.859,4.188-13.052c5.633-17.099,10.498-31.867,8.96-49.409
							c-0.438-4.985-2.942-13.004-5.367-20.757c-3.132-10.019-5.836-18.67-4.665-21.948c2.014-5.641,10.374-19.35,16.26-26.671
							c2.305-2.862,14.686-14.9,15.209-15.413l1.396,1.437c-0.128,0.125-12.814,12.463-15.045,15.232
							c-5.676,7.055-14.016,20.709-15.938,26.089c-0.945,2.647,2.049,12.229,4.691,20.681c2.455,7.854,4.993,15.977,5.449,21.179
							c1.573,17.951-3.35,32.899-9.051,50.209c-1.379,4.184-2.803,8.505-4.178,13.013c-2.684,8.797-6.58,18.92-10.018,27.854
							c-4.85,12.596-10.346,26.875-8.749,29.068c0.753,1.034,1.636,2.084,2.573,3.193c2.861,3.397,6.104,7.248,6.724,12.201
							c0.086,0.686,0.26,1.599,0.462,2.655c1.059,5.549,2.831,14.837-2.125,20.827c-2.952,3.567-7.881,5.38-14.648,5.38
							c-12.705,0-20.446-2.199-26.668-3.968c-5.158-1.468-8.887-2.528-13.295-1.68L107.033,727
							c-16.791,3.279-35.926,6.668-47.237,6.667C56.051,733.665,53.16,733.293,51.501,732.424z"/>
					</g>
					<g>
						<path d="M159.084,550.067c-2.764-1.729-10.124-8.335-7.795-15.789c2.672-8.557-1.504-12.87-1.688-13.057
							c-0.392-0.387-0.397-1.017-0.011-1.408c0.387-0.396,1.02-0.402,1.414-0.017c0.215,0.211,5.25,5.293,2.191,15.074
							c-1.808,5.786,3.9,11.593,6.947,13.498c0.467,0.293,0.61,0.909,0.317,1.378c-0.19,0.304-0.517,0.47-0.849,0.47
							C159.43,550.219,159.246,550.17,159.084,550.067z"/>
					</g>
					<g>
						<path d="M248.016,553.619c-0.916-3.126-2.023-12.957,4.67-16.979c7.688-4.612,7.432-10.614,7.416-10.873
							c-0.035-0.549,0.381-1.021,0.932-1.062c0.555-0.024,1.025,0.379,1.064,0.93c0.021,0.303,0.405,7.443-8.381,12.723
							c-5.197,3.119-4.792,11.253-3.781,14.698c0.155,0.53-0.146,1.086-0.678,1.241c-0.094,0.027-0.189,0.04-0.281,0.04
							C248.544,554.337,248.145,554.055,248.016,553.619z"/>
					</g>
					<g>
						<path d="M264.998,723.085c-0.473-0.283-0.629-0.896-0.344-1.371c0.283-0.474,0.896-0.626,1.371-0.345
							c0.074,0.045,7.549,4.458,12.205,2.842c1.43-0.498,2.422-1.515,3.025-3.113c1.327-3.494-0.411-6.723-2.25-10.139
							c-0.816-1.521-1.666-3.094-2.221-4.695c-0.948-2.735-0.676-12.446-0.641-13.547c0.02-0.551,0.478-1.021,1.031-0.968
							c0.553,0.016,0.985,0.479,0.969,1.03c-0.092,2.882-0.172,10.805,0.528,12.83c0.501,1.447,1.274,2.882,2.091,4.398
							c1.973,3.661,4.01,7.447,2.359,11.796c-0.818,2.156-2.246,3.604-4.244,4.296c-0.932,0.322-1.934,0.459-2.956,0.459
							C270.867,726.559,265.279,723.253,264.998,723.085z"/>
					</g>
					<g>
						<path d="M139.918,699.904c-5.094-0.232-10.367-4.575-10.76-6.143c-0.133-0.536,0.181-1.116,0.717-1.251
							c0.535-0.13,1.066,0.154,1.199,0.689c0.408,0.835,5.056,4.999,9.759,4.698c3.575-0.218,6.313-2.976,8.135-8.199
							c0.181-0.521,0.753-0.797,1.272-0.615c0.521,0.181,0.797,0.752,0.615,1.273c-2.725,7.814-7.119,9.555-10.486,9.555
							C140.217,699.914,140.066,699.91,139.918,699.904z"/>
					</g>
					<g>
						<path d="M211.783,360.489c0.959-0.107,0.813-0.97,0.707-1.928c-0.047-0.429-0.157-1.025-0.295-1.756
							c-0.955-5.061-0.909-18.187,11.306-24.138c0.865-0.422,1.169-1.172,0.747-2.037c-0.424-0.868-0.172-1.091-1.039-0.671
							c-14.609,7.117-15.535,19.768-14.527,25.109c0.116,0.622,1.135,3.513,1.174,3.877c0.101,0.894,0.855,1.553,1.732,1.553
							C211.654,360.498,211.719,360.496,211.783,360.489z"/>
					</g>
					<g>
						<path d="M81.3,315.698c-0.142-0.586,0.172-0.664-0.412-0.521c-0.26,0.064-0.622,0.179-1.063,0.325
							c-3.056,1.001-12.158,3.37-16.831-3.711c-0.333-0.501-1.04-0.165-1.542,0.167c-0.504,0.332-0.832,0.524-0.501,1.026
							c5.591,8.469,14.02,6.131,17.247,5.073c0.375-0.122,2.082-0.986,2.306-1.041c0.545-0.134,0.891-0.656,0.821-1.2
							C81.318,315.777,81.313,315.737,81.3,315.698z"/>
					</g>
					<g>
						<path d="M242.688,376.053c0.897-0.352,0.229-2.243-0.123-3.14c-0.133-0.337-0.697-0.504-0.971-1.067
							c-1.962-4.075-5.352-15.095,3.682-19.153c0.879-0.395,0.807-1.735,0.174-2.462c-0.635-0.727-1.734-0.807-2.465-0.172
							c-10.271,8.935-5.041,19.799-3.07,23.891c0.225,0.461,0.404,0.836,0.516,1.113c0.271,0.689,0.93,1.11,1.627,1.11
							C242.266,376.173,242.48,376.135,242.688,376.053z"/>
					</g>
					<g>
						<path d="M339.048,260.981c-0.392-0.596-1.291-1.121-1.888-0.731c-0.223,0.146-1.078,1.604-1.418,1.917
							c-3.75,3.458-8.073,2.894-13.75,1.5c-0.691-0.17-1.653-0.568-2.082,0c-0.43,0.569-0.334,0.707,0.291,1.053
							c7.875,4.364,15.086,0.635,17.746-1.412c0.299-0.23,0.543-0.42,0.728-0.541c0.457-0.3,0.662-0.839,0.558-1.343
							C339.197,261.271,339.139,261.119,339.048,260.981z"/>
					</g>
					<g>
						<path d="M333.451,274.5c-2-0.125-2.918-0.763-5.75-1.458c-0.346-0.085-2.082,0.542,0.166,2.212
							c3.396,2.524,8.808,1.701,10.135,0.68c0.148-0.116,0.17-2.183,0.115-2.434C338.104,273.424,334.642,274.574,333.451,274.5z"/>
					</g>
					<g>
						<path d="M177.16,263.224c0.307-0.436,0.324-1.993-0.127-2.513c-0.166-0.195-0.486-0.182-0.791-0.496
							c-2.219-2.279-4.652-7.626-5.326-13.145c-0.082-0.672-0.178-1.337-0.705-1.68c-0.527-0.341-1.068-0.149-1.205,0.436
							c-1.949,8.255,3.961,14.327,6.186,16.614c0.252,0.258,0.457,0.467,0.596,0.627c0.346,0.399,0.789,0.534,1.113,0.377
							C177,263.396,177.09,263.324,177.16,263.224z"/>
					</g>
					<g>
						<path d="M162.934,262.488c-0.078-0.102-1.271-2.946-1.811-5.602c-0.066-0.324-2.232-2.362-2.42-0.215
							c-0.283,3.243,1.931,8.243,2.924,9.439c0.113,0.134,2.334-0.328,2.453-0.387C164.119,265.707,163.137,262.757,162.934,262.488
							z"/>
					</g>
					<g>
						<path d="M312.646,444.737c-0.527-2.139-3.029-14.707-4.275-26.639c-0.51-4.89-0.631-9.639-0.729-13.45
							c-0.068-2.797-0.144-5.673-0.381-6.79c-0.818,0.613-2.026,3.401-2.862,5.333c-1.982,4.573-4.45,10.271-8.973,12.457
							c-2.318,1.119-3.63,0.564-4.32-0.099c-3.467-3.321,1.97-16.473,3.095-19.076c4.026-9.317,11.187-17.917,15.924-23.604
							c2.22-2.666,4.516-5.423,4.621-6.131c-0.096-2.611-0.008-5.948,0.087-9.48c0.194-7.342,0.416-15.662-0.919-20.242
							c-0.527-1.81-1.723-4.967-3.108-8.623c-3.962-10.464-9.951-26.278-9.732-35.033c0.113-4.516,0.361-9.588,0.58-14.064
							c0.315-6.483,0.645-13.188,0.324-14.468c-0.637-2.176-15.806-15.659-21.517-20.735c-4.616-4.104-16.767-19.102-19.449-25.066
							c-2.553-5.674-15.378-19.649-16.378-20.65l1.415-1.414c1.065,1.066,14.074,15.212,16.788,21.244
							c2.546,5.657,14.561,20.485,18.954,24.392c13.246,11.776,21.567,19.52,22.125,21.743c0.375,1.497,0.153,6.443-0.267,15.054
							c-0.219,4.464-0.467,9.524-0.578,14.016c-0.209,8.363,5.695,23.956,9.604,34.274c1.457,3.847,2.608,6.886,3.158,8.771
							c1.423,4.88,1.198,13.367,0.999,20.855c-0.094,3.5-0.183,6.806-0.088,9.354c0.047,1.27-1.434,3.1-5.084,7.484
							c-4.664,5.6-11.713,14.063-15.626,23.119c-3.869,8.957-4.843,15.599-3.546,16.842c0.447,0.429,1.486,0.02,2.067-0.264
							c3.851-1.858,6.155-7.179,8.007-11.448c1.752-4.046,3.01-6.966,5.32-6.642c1.539,0.221,1.594,2.396,1.759,8.839
							c0.099,3.78,0.219,8.485,0.722,13.298c1.231,11.826,3.704,24.258,4.226,26.364c1.185,4.802,2.716,6.077,3.448,6.077
							c0.005,0,0.011,0,0.016-0.001c0.646-0.016,1.497-1.061,1.875-3.026c0.296-1.53-0.309-10.005-0.75-16.188
							c-0.795-11.146-0.725-11.218-0.268-11.708l0.313-0.328h0.438c0.982,0,0.982,0,2.377,6.729
							c1.255,6.073,4.591,22.213,6.729,23.188c0.97,0.444,1.704,0.493,2.188,0.143c0.564-0.408,1.808-2.093,1.06-8.816
							c-0.025-0.235-2.346-23.647-0.547-25.262c0.274-0.245,0.632-0.344,0.983-0.266c0.959,0.212,1.008,0.701,1.602,6.688
							c0.667,6.714,2.229,22.438,5.501,23.604c1.307,0.466,2.256,0.451,2.83-0.037c1.153-0.981,1.338-4.096,0.505-8.534
							c-1.159-6.187-2.73-21.051-2.73-21.904l0.002-0.901l0.877-0.107c0.896-0.107,0.991,0.238,1.575,2.54
							c4.664,18.379,6.856,20.155,7.375,20.268c1.556-0.415,2.616-6.477,0.472-16.348c-0.943-4.351-1.645-10.484-2.317-16.421
							c-0.688-6.068-1.342-11.803-2.103-13.891l-3.297-8.729l-0.035-0.109c-1.27-5.073-1.034-32.755-0.787-62.063
							c0.201-24.014,0.412-48.847-0.398-55.597c-1.379-11.486-8.102-24.822-13.505-35.537c-1.39-2.755-2.7-5.357-3.858-7.793
							c-2.098-4.401-6.533-10.682-11.671-17.955c-8.708-12.327-19.546-27.67-22.727-39.827l1.937-0.506
							c3.088,11.806,13.81,26.984,22.424,39.179c5.189,7.349,9.674,13.695,11.842,18.25c1.149,2.415,2.457,5.007,3.842,7.752
							c5.474,10.855,12.285,24.365,13.705,36.199c0.826,6.878,0.625,30.667,0.413,55.853c-0.234,27.791-0.477,56.524,0.715,61.507
							l3.28,8.685c0.845,2.32,1.479,7.898,2.214,14.357c0.669,5.886,1.362,11.973,2.284,16.223
							c1.862,8.562,1.994,17.662-1.908,18.702c-0.361,0.1-0.924,0.132-1.569-0.249c-1.635-0.96-3.346-4.433-5.429-11.188
							c0.435,3.473,0.914,6.933,1.35,9.25c1.025,5.467,0.643,8.877-1.173,10.426c-1.156,0.988-2.771,1.122-4.801,0.396
							c-2.835-1.012-4.409-6.686-5.519-14.188c0.194,2.738,0.42,5.328,0.641,7.318c0.646,5.794,0.031,9.277-1.875,10.658
							c-1.106,0.803-2.516,0.821-4.188,0.059c-2.247-1.025-4.19-7.547-6.721-19.21c0.601,8.405,0.987,14.455,0.675,16.077
							c-0.544,2.817-1.992,4.601-3.788,4.646c-0.021,0-0.045,0.001-0.067,0.001C316.691,452.338,314.269,451.316,312.646,444.737z"
							/>
					</g>
					<g>
						<path d="M187.488,204.049c-0.049,0.073-0.119,0.188-0.211,0.372c-5.563,11.123-14.781,25.603-19.644,29.432
							c-0.763,0.602-2.546,1.877-5.015,3.643c-3.838,2.746-9.096,6.506-14.723,10.726c-5.359,4.019-12.322,11.107-19.055,17.962
							c-6.279,6.392-12.773,13.003-17.877,17.009c-6.089,4.779-15.997,12.248-22.365,16.677c-1.115,0.774-3.402,0.432-8.474-0.418
							c-5.999-1.005-14.214-2.383-22.132-1.476c-7.172,0.82-13.169,3.418-13.949,6.043c-0.1,0.339-0.407,1.371,1.383,2.854
							c0.663,0.549,4.228-0.063,6.585-0.468c4.37-0.752,8.885-1.527,11.026,0.235c0.747,0.615,1.154,1.503,1.179,2.568
							c0.043,1.88-5.764,6.319-27.013,20.651c-4.857,3.276-9.053,6.105-10.051,6.956c-3.351,2.85-3.972,4.813-3.437,5.7
							c0.53,0.877,2.526,1.246,4.65,0.394c1.345-0.539,7.087-4.108,12.151-7.256c11.577-7.195,11.576-7.193,12.266-6.117
							c0.586,0.91,0.586,0.91-5.498,5.595c-5.908,4.55-21.604,16.635-21.496,19.182c0.498,1.432,1.092,2.255,1.766,2.447
							c1.46,0.415,4.072-1.574,7.335-4.222c0.184-0.149,18.645-14.779,20.955-14.12c0.354,0.097,0.628,0.346,0.754,0.687
							c0.338,0.92-0.047,1.225-4.755,4.956c-5.289,4.192-17.676,14.009-16.889,17.395c0.314,1.349,0.839,2.143,1.562,2.361
							c1.46,0.444,4.17-1.089,7.453-4.189c4.583-4.326,16.233-13.682,16.952-14.144l0.749-0.475l0.566,0.658
							c0.592,0.687,0.592,0.687-1.83,3.455c-10.382,11.862-12.818,15.776-12.948,16.92c0.08,0.042,0.194,0.06,0.269,0.068
							c2.216,0.232,8.573-3.407,14.182-9.012c3.636-3.635,10.387-8.638,16.344-13.054c4.483-3.324,8.72-6.464,10.021-7.883
							c4.153-4.53,11.063-15.83,11.133-15.944l0.125-0.164c2.557-2.72,13.373-8.033,27.066-14.759
							c22.494-11.049,53.301-26.182,62.693-37.56c0,0,0.577,2.391,0.026,2.962c-11.076,11.459-40.255,25.792-61.838,36.393
							c-12.854,6.314-23.972,11.775-26.425,14.264c-0.726,1.183-7.18,11.658-11.307,16.16c-1.431,1.56-5.544,4.609-10.306,8.139
							c-5.9,4.374-12.59,9.331-16.12,12.861c-4.831,4.828-11.772,9.606-15.414,9.606c-0.137,0-0.268-0.007-0.392-0.024
							c-1.017-0.109-1.546-0.623-1.812-1.036c-0.841-1.31,0.296-4.007,8.007-13.208c-3.144,2.605-6.425,5.397-8.365,7.228
							c-4.044,3.817-7.121,5.338-9.403,4.65c-1.458-0.44-2.444-1.726-2.932-3.823c-0.683-2.932,3.236-7.322,8.948-12.312
							c-2.197,1.645-4.253,3.233-5.808,4.494c-3.965,3.219-6.745,5.277-9.142,4.593c-1.356-0.386-2.373-1.601-3.107-3.714
							c-0.784-2.255,3.156-6.465,15.733-16.412c-4.875,3.026-9.188,5.673-10.523,6.208c-2.926,1.173-5.979,0.649-7.105-1.216
							c-0.742-1.229-1.227-3.935,3.851-8.257c1.084-0.923,5.12-3.644,10.229-7.09c8.743-5.897,24.942-16.822,26.126-19.067
							c-0.04-0.547-0.256-0.794-0.445-0.95c-1.432-1.179-5.856-0.42-9.416,0.192c-4.23,0.727-6.892,1.119-8.198,0.037
							c-2.321-1.922-2.382-3.76-2.024-4.964c1.205-4.056,8.724-6.669,15.64-7.461c8.191-0.938,16.571,0.466,22.689,1.49
							c2.984,0.5,6.365,1.065,7.001,0.749c6.336-4.407,16.205-11.846,22.272-16.608c5.002-3.926,11.449-10.49,17.685-16.838
							c6.784-6.908,13.801-14.051,19.28-18.16c5.646-4.233,10.912-8.002,14.76-10.753c2.445-1.749,4.212-3.013,4.939-3.586
							c4.143-3.262,13.063-16.699,19.09-28.755c0.303-0.606,0.754-1.324,1.562-1.494L187.488,204.049z"/>
					</g>
					<path d="M249.585,143.111c1.062-0.42,1.858-1.668,2.534-2.205c4.875-3.875,10.434-6.97,13.264-11.854
						c1.986-3.428,2.361-5.803,2.521-9.188c-0.963-0.15-0.762-0.153-1.725-0.302c-0.563,5-0.938,8.375-5.938,12.75
						c-3.687,3.225-9.274,6.102-12.771,9.825C247.025,142.688,248.492,143.688,249.585,143.111z"/>
					<path d="M213.932,145.187c4.811,0.382,22.477,0.835,27.62,0.686c2.056-0.432,1.548-2.396,0.747-2.469
						c-6.867,1.346-18.492,0.846-25.432,0.096C215.992,143.313,215.094,143.878,213.932,145.187z"/>
					<path d="M273.867,324.25c1.697,1.461,10.457,9.289,7.354,11.423c-7.807-8.875-14.181-14.833-20.584-15.433
						c-19.47-1.823-37.615,13.04-37.887,12.885c-0.576-0.33,0.021-2.739,0.375-3c15.938-11.75,29.462-11.845,32.969-12
						C259.625,317.969,268.625,319.5,273.867,324.25z"/>
				</g>
				<g>
					<path d="M259.884,747.476c-5.575-3.981-7.885-5.632-12.802-5.632c-5.309,0-19.027,2.34-26.377,5.448
						c-7.635,3.229-35.786,2.757-40.504,1.5c-3.44-0.917-8.025-5.756-8.273-9.886c-0.152-2.549,1.298-4.566,4.086-5.686
						c2.912-1.166,6.541-1.601,10.382-2.06c6.209-0.742,12.629-1.511,16.748-5.4c6.892-6.506,8.875-6.494,14.779-6.479l1.034,0.002
						c2.672,0,3.899-1.378,5.759-3.465c2.227-2.497,4.996-5.605,11.381-7.733c7.104-2.369,9.401-14.235,9.401-19.611
						c0-3.104-3.842-26.898-7.558-49.91c-3.129-19.383-6.084-37.688-6.789-43.852c-0.977-8.519-1.652-23.313-2.104-33.104
						c-0.229-4.948-0.441-9.637-0.558-10.45c-0.138-0.154-0.455-0.452-0.739-0.723c-3.009-2.834-12.146-11.438-10.195-29.497
						c-0.313-1.646-3.218-16.722-5.562-23.573c-0.203-0.592-20.315-60.731-21.58-80.946c-0.869-13.906,0.431-33.08,1.127-43.381
						c0.246-3.624,0.423-6.242,0.423-7.304c0-1.55-0.675-3.437-1.529-5.827c-1.313-3.675-3.112-8.707-3.703-16.01
						c-0.963-11.943,0.701-72.035,0.771-74.532c-0.087-3.119-2.11-76.479,0.239-83.924c2.052-6.495,14.315-33.579,28.207-42.288
						c2.108-1.539,4.37-24.33,3.959-28.217c-0.136-1.266-5.828-1.371-8.888-1.428c-1.793-0.033-3.483-0.064-4.941-0.203
						c-4.891-0.465-12.277-1.169-11.423-10.648c0.065-0.717,0.268-1.54,0.481-2.411c0.202-0.83,0.574-2.342,0.452-2.825
						c-1.317-0.615-2.104-1.346-2.399-2.232c-0.377-1.134,0.168-2.126,0.526-2.783c0.039-0.069,0.087-0.155,0.13-0.236
						c-1.683-1.295-3.953-4.15-2.229-7.168c0.19-0.332,0.373-0.641,0.541-0.93c0.631-1.073,1.226-2.087,1.09-2.452
						c-0.271-0.732-3.345-1.78-4.501-2.175c-1.76-0.6-2.434-1.763-2.688-2.634c-1.131-3.852,3.223-10.063,8.096-16.202
						c0.521-0.656,0.938-1.181,1.188-1.529c1.895-2.62,1.395-4.268,0.705-6.548c-0.349-1.154-0.744-2.461-0.811-3.99
						c-0.096-2.192,4.884-22.294,17.66-31.602c11.937-8.695,27.685-7.181,36.146-6.368c1.166,0.112,2.181,0.21,3.006,0.261
						c9.591,0.593,23.46,7.398,31.409,19.253c4.881,7.28,9.505,19.477,3.811,36.234c-1.002,2.948-2.487,6.198-4.063,9.638
						c-5.828,12.739-13.08,28.584-4.682,46.596c0.101,0.121,0.309,0.369,0.609,0.729c9.803,11.701,26.387,32.59,27.32,41.013
						c1.136,10.229,0.479,25.022-0.02,26.518l-1.901-0.621c0.31-1.107,1.088-15.277-0.068-25.676
						c-0.641-5.771-10.432-20.332-26.866-39.95c-0.772-0.925-0.772-0.925-0.838-1.063c-8.867-18.89-1.387-35.24,4.625-48.378
						c1.553-3.393,3.021-6.598,3.988-9.449c4.301-12.651,3.063-24.573-3.577-34.477c-7.588-11.316-20.771-17.808-29.87-18.371
						c-0.847-0.052-1.883-0.151-3.074-0.266c-8.196-0.789-23.455-2.255-34.776,5.993c-12.668,9.23-16.89,28.73-16.841,29.898
						c0.058,1.278,0.396,2.407,0.729,3.499c0.727,2.397,1.475,4.875-0.997,8.297c-0.264,0.364-0.698,0.914-1.243,1.601
						c-2.392,3.011-8.738,11.008-7.744,14.396c0.115,0.392,0.388,0.954,1.416,1.305c3.474,1.185,5.217,1.992,5.729,3.371
						c0.468,1.255-0.248,2.474-1.236,4.161c-0.166,0.283-0.345,0.585-0.529,0.91c-1.371,2.4,1.912,4.739,1.945,4.762
						c1.168,0.799,0.471,2.07,0.172,2.613c-0.238,0.435-0.483,0.883-0.384,1.188c0.054,0.156,0.298,0.577,1.437,1.092
						c1.621,0.735,1.08,2.942,0.557,5.075c-0.188,0.76-0.38,1.547-0.432,2.113c-0.629,6.96,3.591,7.904,9.619,8.478
						c1.384,0.132,3.039,0.163,4.791,0.195c5.408,0.1,10.519,0.195,10.838,3.216c0.209,1.96-1.248,27.843-4.879,30.12
						c-13.428,8.418-25.362,34.851-27.364,41.198c-1.802,5.702-0.886,56.96-0.147,83.322c-0.019,0.624-1.734,62.537-0.779,74.371
						c0.567,7.039,2.315,11.928,3.595,15.497c0.92,2.572,1.646,4.604,1.646,6.5c0,1.128-0.18,3.775-0.428,7.439
						c-0.693,10.256-1.986,29.346-1.126,43.121c1.113,17.824,18.164,70.744,21.476,80.425c2.519,7.354,5.535,23.319,5.662,23.996
						l0.026,0.146l-0.017,0.146c-1.907,17.17,6.727,25.3,9.563,27.974c0.766,0.721,1.111,1.048,1.253,1.47
						c0.173,0.512,0.287,2.69,0.673,11.065c0.445,9.766,1.122,24.52,2.09,32.973c0.698,6.115,3.65,24.398,6.775,43.757
						c3.898,24.15,7.583,46.963,7.583,50.229c0,4.649-1.979,18.577-10.771,21.509c-5.879,1.962-8.45,4.85-10.521,7.17
						c-1.978,2.219-3.685,4.134-7.252,4.134l-1.041-0.002c-5.585-0.018-7.09-0.024-13.399,5.935
						c-4.6,4.344-11.656,5.188-17.886,5.935c-3.706,0.441-7.208,0.86-9.875,1.932c-2.009,0.804-2.936,2.016-2.834,3.705
						c0.204,3.389,4.378,7.429,6.793,8.074c4.473,1.19,32.072,1.606,39.21-1.41c7.563-3.199,21.688-5.606,27.155-5.606
						c5.56,0,8.192,1.882,13.964,6.005c5.68,4.06,25.35,1.943,30.896-1.49c5.143-3.186,5.535-15.105,4.188-25.2
						c-0.79-5.923-2.329-7.656-3.96-9.491c-0.683-0.769-1.388-1.562-2.021-2.647c-1.604-2.75-2.606-12.178-3.67-22.154
						c-0.357-3.373-0.729-6.862-1.112-9.938l-0.47-3.71c-1.522-12.021-3.826-30.189-3.021-35.831
						c0.941-6.598,5.107-18.815,6.173-21.729c6.388-17.48-1.329-48.03-6.676-59.76c-3.338-7.323-12.295-33.401-14.024-40.32
						c-1.841-7.371-4.08-26.728,1.265-36.229c4.711-8.38,6.612-16.983,5.981-27.086c-0.508-8.088-0.354-39.734-0.308-50.137
						c0.008-1.624,0.014-2.734,0.014-3.166c0-1.342,0.572-2.299,1.439-3.749c1.584-2.646,4.532-7.57,7.604-21.2
						c3.932-17.449-1.886-32.893-4.681-40.314c-0.481-1.28-0.86-2.291-1.117-3.097c-1.614-5.116-1.539-25.75-1.507-34.562
						l0.007-2.396c0-5.365,2.345-7.146,5.313-9.401c0.738-0.563,1.504-1.143,2.309-1.833c3.357-2.878,3.299-18.567,3.264-27.942
						c-0.004-1.037-0.008-2.032-0.008-2.969h2c0,0.934,0.004,1.926,0.008,2.961c0.055,14.219-0.207,26.251-3.961,29.469
						c-0.851,0.729-1.675,1.355-2.4,1.907c-2.82,2.142-4.522,3.436-4.522,7.808l-0.006,2.404
						c-0.028,7.969-0.104,29.134,1.414,33.952c0.237,0.755,0.629,1.793,1.082,2.995c2.864,7.603,8.823,23.425,4.759,41.458
						c-3.141,13.939-6.193,19.046-7.838,21.787c-0.822,1.375-1.157,1.964-1.157,2.723c0,0.433-0.005,1.547-0.013,3.176
						c-0.051,10.384-0.199,41.981,0.302,50.002c0.657,10.503-1.321,19.46-6.233,28.191c-4.771,8.485-3.047,26.827-1.064,34.762
						c1.717,6.861,10.596,32.716,13.904,39.979c5.461,11.979,13.316,43.257,6.734,61.271c-1.558,4.256-5.244,15.535-6.072,21.325
						c-0.769,5.372,1.515,23.38,3.022,35.297l0.472,3.713c0.385,3.094,0.758,6.59,1.117,9.974c0.944,8.896,2.02,18.979,3.406,21.358
						c0.534,0.915,1.145,1.603,1.789,2.327c1.678,1.888,3.576,4.026,4.447,10.558c0.691,5.197,2.375,22.522-5.119,27.166
						c-3.729,2.31-12.59,4.016-20.473,4.015C267.277,750.074,262.461,749.317,259.884,747.476z"/>
				</g>
			</g>
		</g>
	</g>
</g>
</svg>
