<svg id="Layer_1" data-name="Layer 1" xmlns="http://www.w3.org/2000/svg" viewBox="0 0 11.88 17.43"><defs><style>.cls-1{fill:#1e1e1e;}</style></defs><title>small-rupee</title><path class="cls-1" d="M10.68,3.88H9.61a4.8,4.8,0,0,0-.9-1.94h2a1,1,0,0,0,0-1.94H1A1,1,0,0,0,1,1.94H4.83A2.9,2.9,0,0,1,7.59,3.88H1A1,1,0,0,0,1,5.82H7.59A2.91,2.91,0,0,1,4.83,7.73H1A.94.94,0,0,0,.6,7.8a1,1,0,0,0-.52.53,1,1,0,0,0,0,.74,1,1,0,0,0,.21.32l7.76,7.76a1,1,0,0,0,.69.28,1,1,0,0,0,.68-.28,1,1,0,0,0,0-1.37l-6.1-6H4.83A4.85,4.85,0,0,0,9.58,5.85h1.07a1,1,0,0,0,.49-1.94,1,1,0,0,0-.49,0Z" transform="translate(-0.01)"/></svg>