<?xml version="1.0" encoding="utf-8"?>
<!-- Generator: Adobe Illustrator 21.0.0, SVG Export Plug-In . SVG Version: 6.00 Build 0)  -->
<svg version="1.1" id="Layer_1" xmlns="http://www.w3.org/2000/svg" xmlns:xlink="http://www.w3.org/1999/xlink" x="0px" y="0px"
	 width="80%" height="100%" viewBox="-80 150 480 500">
<style type="text/css">
	.st0_12x{fill:#f5e6e6;stroke:#6d6d6d;;}
	.st1_12x{fill:none;stroke:#000000;stroke-linejoin:round;}
	.st2_12x{fill:none;stroke:#000000;stroke-linejoin:round;}
</style>
<g>
	<path id="Left_Posterior_cervical_04" class="st0_12x human" d="M185.9,91.3c-5.2,0-9.6-0.1-9.8-0.2c0.3,3,0.5,5.9,0.6,8.5h9.2V91.3z"/>
	<path id="Left_Posterior_cervical_03" class="st0_12x human" d="M176.1,112.8c0,0-1.4,1-3.4,2.4H186V99.7h-9.2
		C176.9,105.4,176.7,110.1,176.1,112.8z"/>
	<path id="Left_Posterior_cervical_02" class="st0_12x human" d="M165.3,121.6c0.1,0,0.1,0,0.2,0h0.1c2.1-0.4,3.9-0.6,5.6-0.5v-4.8
		c-3,2-7.1,4.7-10.8,6.9c0.2-0.1,0.5-0.2,0.7-0.3C162,122.5,163.5,122,165.3,121.6z"/>
	<path id="Left_Posterior_cervical_01" class="st0_12x human" d="M171.3,121c4.4,0.1,7.8,1.7,10.4,3.7c1.4,1,3.1,2.5,4.3,4.1v-13.6h-13.3
		c-0.4,0.3-0.9,0.6-1.4,0.9V121z"/>
</g>
<g>
	<path id="Left_Scapular_Region_19" class="st0_12x human" d="M150.9,130.7h6.2v-6C154.7,126.1,152.7,128.2,150.9,130.7z"/>
	<path id="Left_Scapular_Region_18" class="st0_12x human" d="M158.7,123.8c-0.6,0.3-1.1,0.6-1.6,0.9v6h14.2v-9.6c-2.1-0.1-4,0.1-5.6,0.5
		h-0.1c-0.1,0-0.1,0-0.2,0c-1.3,0.3-2.7,0.7-4.1,1.2c-0.5,0.2-0.8,0.3-0.8,0.3l0,0c-0.2,0.1-0.4,0.1-0.6,0.2
		c-0.2,0.1-0.3,0.1-0.5,0.2C159.2,123.5,158.9,123.7,158.7,123.8z"/>
	<path id="Left_Scapular_Region_17" class="st0_12x human" d="M171.3,130.7h14.6v-1.8c-1.1-1.4-2.8-2.9-4.3-4.1c-3.4-2.6-7-3.5-10.4-3.6
		L171.3,130.7L171.3,130.7z"/>
	<path id="Left_Scapular_Region_16" class="st0_12x human" d="M157.1,130.7h-6.2c-3.4,4.7-5.7,10.7-7.2,15.5h13.4V130.7z"/>
	<rect id="Left_Scapular_Region_15" x="157.1" y="130.7" class="st0_12x human" width="14.2" height="15.5"/>
	<polygon id="Left_Scapular_Region_14" class="st0_12x human" points="185.5,146.2 185.9,130.6 171.3,130.7 171.3,146.2 	"/>
	<path id="Left_Scapular_Region_13" class="st0_12x human" d="M142.8,149c-0.8,2.7-1.2,4.8-1.4,5.4l-0.1,0.1c-0.1,0.7-0.5,3.3-0.9,7.1h2.4
		V149z"/>
	<path id="Left_Scapular_Region_12" class="st0_12x human" d="M157.1,161.6v-15.5h-13.4c-0.3,1-0.6,2-0.9,2.9v12.6H157.1z"/>
	<rect id="Left_Scapular_Region_11" x="157.1" y="146.2" class="st0_12x human" width="14.2" height="15.5"/>
	<rect id="Left_Scapular_Region_10" x="171.3" y="146.2" class="st0_12x human" width="14.2" height="15.5"/>
	<path id="Left_Scapular_Region_09" class="st0_12x human" d="M142.8,161.6h-2.4c-0.4,4.1-1,9.5-1.3,15.5h3.7V161.6z"/>
	<rect id="Left_Scapular_Region_08" x="142.8" y="161.6" class="st0_12x human" width="14.2" height="15.5"/>
	<rect id="Left_Scapular_Region_07" x="157.1" y="161.6" class="st0_12x human" width="14.2" height="15.5"/>
	<rect id="Left_Scapular_Region_06" x="171.3" y="161.6" class="st0_12x human" width="14.2" height="15.5"/>
	<path id="Left_Scapular_Region_05" class="st0_12x human" d="M139.1,177.1c-0.1,2.5-0.2,5.1-0.3,7.6l0,0l4,0.8v-0.2V177L139.1,177.1
		L139.1,177.1z"/>
	<polygon id="Left_Scapular_Region_04" class="st0_12x human" points="142.8,177.1 142.8,185.4 142.8,185.5 157.1,188.3 157.1,188.1 
		157.1,177.1 	"/>
	<polygon id="Left_Scapular_Region_03" class="st0_12x human" points="157.1,177.1 157.1,188.1 157.1,188.3 171.3,191.1 171.3,190.9 
		171.3,177.1 	"/>
	<polygon id="Left_Scapular_Region_02" class="st0_12x human" points="171.3,177.1 171.3,190.9 171.3,191.1 178.7,192.6 179.5,192.6 
		185.5,192.6 185.5,177.1 	"/>
	<polygon id="Left_Scapular_Region_01" class="st0_12x human" points="179.5,192.6 178.7,192.6 185.5,193.9 185.5,193.8 185.5,192.6 	"/>
</g>
<g>
	<path id="Left_Posterior_Acromial_14" class="st0_12x human" d="M133.5,130.7h9.4V127C140.4,127.8,137.1,129,133.5,130.7z"/>
	<path id="Left_Posterior_Acromial_13" class="st0_12x human" d="M146.6,125.9c0,0-1.5,0.4-3.8,1.1v3.7h7.6h0.4c1.8-2.5,3.8-4.6,6.2-6
		v-0.1v-0.8C152.8,124.6,146.6,125.9,146.6,125.9z"/>
	<path id="Left_Posterior_Acromial_12" class="st0_12x human" d="M142.8,130.7h-9.4c-1.6,0.7-3.2,1.6-4.9,2.5v13h14.2L142.8,130.7
		L142.8,130.7z"/>
	<path id="Left_Posterior_Acromial_11" class="st0_12x human" d="M150.5,130.7h-7.6v15.5h0.3h0.5c1.5-4.8,3.8-10.7,7.2-15.5H150.5z"/>
	<path id="Left_Posterior_Acromial_10" class="st0_12x human" d="M128.6,146.2v15.5h5.3c1.7-1.7,3.2-3.1,4.4-4.3l3.1-2.8
		c0.2-0.7,0.6-2.7,1.4-5.4v-1.8v-1.1L128.6,146.2L128.6,146.2z"/>
	<path id="Left_Posterior_Acromial_09" class="st0_12x human" d="M133.9,161.6h-5.3v5.2C130.5,165,132.3,163.2,133.9,161.6z"/>
	<path id="Left_Posterior_Acromial_08" class="st0_12x human" d="M114.5,146.2h14.1v-13C122.9,136.4,117.4,140.7,114.5,146.2z"/>
	<path id="Left_Posterior_Acromial_07" class="st0_12x human" d="M114.4,146.3c-0.5,1-0.9,2-1.3,3.1c-1.2,3.8-2,8.1-2.6,12.3h3.9V146.3z"
		/>
	<path id="Left_Posterior_Acromial_06" class="st0_12x human" d="M128.6,161.6v-15.5h-14.1c0,0.1-0.1,0.1-0.1,0.2v15.3H128.6z"/>
	<path id="Left_Posterior_Acromial_05" class="st0_12x human" d="M114.4,161.6h-3.9c-0.8,5.6-1.1,11.1-1.3,15.5h5.1v-15.5H114.4z"/>
	<path id="Left_Posterior_Acromial_04" class="st0_12x human" d="M127.7,167.7c0.3-0.3,0.6-0.6,0.9-0.9v-5.2h-14.2v15.5h3.7L127.7,167.7z"
		/>
	<path id="Left_Posterior_Acromial_03" class="st0_12x human" d="M114.4,177.1h-5.1c-0.1,4.5-0.4,8-0.3,9l5.5-5.3L114.4,177.1L114.4,177.1
		z"/>
	<polygon id="Left_Posterior_Acromial_02" class="st0_12x human" points="114.4,177.1 114.4,180.7 118.1,177.1 	"/>
	<path id="Left_Posterior_Acromial_01" class="st0_12x human" d="M143.2,146.2h-0.3v1.1v1.8c0.2-0.9,0.5-1.9,0.9-2.9L143.2,146.2
		L143.2,146.2z"/>
</g>
<g>
	<path id="Left_Thoracic_19" class="st0_12x human" d="M138.9,184.8c0,2.6,0,5.2,0,7.8h4v-7L138.9,184.8z"/>
	<polygon id="Left_Thoracic_18" class="st0_12x human" points="157.1,188.3 142.8,185.5 142.8,192.6 157.1,192.6 	"/>
	<polygon id="Left_Thoracic_17" class="st0_12x human" points="171.3,191.1 157.1,188.3 157.1,192.6 171.3,192.6 	"/>
	<polygon id="Left_Thoracic_16" class="st0_12x human" points="171.3,192.6 178.7,192.6 171.3,191.1 	"/>
	<path id="Left_Thoracic_15" class="st0_12x human" d="M142.8,208.1v-15.5h-4c0,0.6,0,1.2,0.1,1.8c0.2,2.7,0.4,5.7,0.8,8.9
		c0.2,1.3,0.4,3.7,0.4,4s0.1,0.6,0.1,0.8H142.8z"/>
	<rect id="Left_Thoracic_14" x="142.8" y="192.6" class="st0_12x human" width="14.2" height="15.5"/>
	<rect id="Left_Thoracic_13" x="157.1" y="192.6" class="st0_12x human" width="14.2" height="15.5"/>
	<polygon id="Left_Thoracic_12" class="st0_12x human" points="185.5,193.9 178.7,192.6 171.3,192.6 171.3,208.1 185.5,208.1 	"/>
	<path id="Left_Thoracic_11" class="st0_12x human" d="M142.8,208.1h-2.6c0.6,5.1,1.3,10.4,2,15.5h0.6V208.1z"/>
	<rect id="Left_Thoracic_10" x="142.8" y="208.1" class="st0_12x human" width="14.2" height="15.5"/>
	<rect id="Left_Thoracic_09" x="157.1" y="208.1" class="st0_12x human" width="14.2" height="15.5"/>
	<rect id="Left_Thoracic_08" x="171.3" y="208.1" class="st0_12x human" width="14.2" height="15.5"/>
	<path id="Left_Thoracic_07" class="st0_12x human" d="M157.1,239v-15.5h-14.2v4.3c0.6,4.1,1.1,7.9,1.6,11.2H157.1z"/>
	<rect id="Left_Thoracic_06" x="157.1" y="223.6" class="st0_12x human" width="14.2" height="15.5"/>
	<rect id="Left_Thoracic_05" x="171.3" y="223.6" class="st0_12x human" width="14.2" height="15.5"/>
	<path id="Left_Thoracic_04" class="st0_12x human" d="M144.4,239c0.8,5.5,1.3,9.6,1.3,11h0.1c1.4,0.1,5.8,0.8,11.3,1.6v-0.1V239H144.4z"
		/>
	<path id="Left_Thoracic_03" class="st0_12x human" d="M157.1,239v12.6v0.1c3.2,0.5,6.7,1.1,10.3,1.6c1.3,0.2,2.7,0.4,4,0.6v-15L157.1,239
		L157.1,239z"/>
	<path id="Left_Thoracic_02" class="st0_12x human" d="M185.5,254.5V239h-14.2v15c1.1,0.2,2.2,0.4,3.2,0.5H185.5z"/>
	<path id="Left_Thoracic_01" class="st0_12x human" d="M185.5,254.5h-11c4.7,0.8,8.7,1.4,11,1.8V254.5z"/>
</g>
<g>
	<path id="Left_Flank_09" class="st0_12x human" d="M142.8,281.4c-0.3,1.3-0.5,2.7-0.8,4.1h0.8V281.4z"/>
	<path id="Left_Flank_08" class="st0_12x human" d="M157.1,285.5v-3.9c-0.9-0.8-2.1-1.7-3.4-2.8c-3.2-2.7-7.4-6.4-8.7-8.2l-0.1,0.3
		c-0.3,1.6-0.9,4.5-1.6,8.6c-0.1,0.6-0.3,1.3-0.4,2v4.1h14.2V285.5z"/>
	<path id="Left_Flank_07" class="st0_12x human" d="M158.7,283.4c-0.2-0.4-0.3-0.7-0.5-1c-0.3-0.2-0.6-0.4-0.9-0.7c-0.1,0-0.1-0.1-0.2-0.1
		v3.9h2.3C159.2,284.7,159,284,158.7,283.4z"/>
	<path id="Left_Flank_06" class="st0_12x human" d="M142.8,285.5H142c-0.9,4.5-2,9.9-3,15.5h3.9L142.8,285.5L142.8,285.5z"/>
	<rect id="Left_Flank_05" x="142.8" y="285.5" class="st0_12x human" width="14.2" height="15.5"/>
	<path id="Left_Flank_04" class="st0_12x human" d="M157.9,301c0.2-0.5,0.3-0.9,0.5-1.2c1.7-5,2-10.4,1-14.2h-2.3V301H157.9z"/>
	<path id="Left_Flank_03" class="st0_12x human" d="M139.6,314.2c1.1,0,2.2-0.1,3.2-0.3V301H139c-0.8,4.3-1.6,8.7-2.4,13.1
		C137.6,314.1,138.6,314.2,139.6,314.2z"/>
	<path id="Left_Flank_02" class="st0_12x human" d="M157.1,302.9V301h-14.2v12.9c2.5-0.4,4.7-1.2,6.5-2.2
		C153.2,309.3,155.6,305.8,157.1,302.9z"/>
	<path id="Left_Flank_01" class="st0_12x human" d="M157.9,301h-0.8v1.9c0.3-0.6,0.5-1.1,0.7-1.6C157.8,301.2,157.9,301.1,157.9,301z"/>
</g>
<g>
	<path id="Left_Lumbar_12" class="st0_12x human" d="M157.1,251.7c-5.5-0.9-9.9-1.5-11.3-1.6c0,0.7-0.1,2.4-0.2,4.4H157v-2.8H157.1z"/>
	<path id="Left_Lumbar_11" class="st0_12x human" d="M171.3,254l-4-0.7c-3.5-0.6-7.1-1.1-10.3-1.6v2.8h14.2V254H171.3z"/>
	<polygon id="Left_Lumbar_10" class="st0_12x human" points="171.3,254 171.3,254.5 174.2,254.5 	"/>
	<path id="Left_Lumbar_09" class="st0_12x human" d="M157.1,254.5h-11.4c-0.2,5.3-0.5,13.3-0.7,15.5h12.1L157.1,254.5L157.1,254.5z"/>
	<rect id="Left_Lumbar_08" x="157.1" y="254.5" class="st0_12x human" width="14.2" height="15.5"/>
	<polygon id="Left_Lumbar_07" class="st0_12x human" points="185.5,256.4 174.2,254.5 171.3,254.5 171.3,270 185.5,270 	"/>
	<path id="Left_Lumbar_06" class="st0_12x human" d="M157.1,270H145c0,0.2,0,0.4,0,0.5c1.5,2,5.4,5.4,8.7,8.2c1.6,1.4,3,2.5,3.4,2.8
		L157.1,270L157.1,270z"/>
	<path id="Left_Lumbar_05" class="st0_12x human" d="M157.1,270v11.5c0.1,0.1,0.1,0.1,0.2,0.1c0.3,0.3,0.6,0.5,0.9,0.7
		c2,0.8,3.9,1.5,6,2.3l0,0c0.7,0.3,1.4,0.5,2,0.8h0.2h4.9V270H157.1z"/>
	<rect id="Left_Lumbar_04" x="171.3" y="270" class="st0_12x human" width="14.2" height="15.5"/>
	<path id="Left_Lumbar_03" class="st0_12x human" d="M166.4,285.5h-0.2c1.8,0.7,3.5,1.4,5.1,2.2l0,0v-2.2H166.4z"/>
	<path id="Left_Lumbar_02" class="st0_12x human" d="M171.3,285.5v2.2c0.5,0.3,1,0.6,1.5,0.9c0.1,0.1,0.2,0.1,0.3,0.2s0.3,0.2,0.4,0.3
		c0.1,0.1,0.2,0.2,0.4,0.2c0.3,0.2,0.5,0.4,0.8,0.6c2.8,2.2,5.4,5.5,8.3,11.1h0.4h2.2v-15.5L171.3,285.5L171.3,285.5z"/>
	<path id="Left_Lumbar_01" class="st0_12x human" d="M183.4,301H183c0.8,1.7,1.7,3.5,2.6,5.6v-0.7v-5h-2.2V301z"/>
</g>
<g>
	<path id="Left_Posterior_Upper_Arm_19" class="st0_12x human" d="M141,154.8c-0.5,0.4-1.4,1.3-2.7,2.5l-4.4,4.3h6h0.5
		c0.4-3.8,0.8-6.4,0.9-7.1C141.2,154.6,141.1,154.7,141,154.8z"/>
	<path id="Left_Posterior_Upper_Arm_18" class="st0_12x human" d="M139.9,161.6h-6l-5.3,5.2v10.3h9.9h0.6c0.3-6,0.8-11.4,1.3-15.5H139.9z"
		/>
	<path id="Left_Posterior_Upper_Arm_17" class="st0_12x human" d="M138.8,184.8C138.8,184.8,138.9,184.8,138.8,184.8
		c0.1-2.6,0.2-5.2,0.3-7.6h-0.6h-9.9v15.5h10.2C138.7,189.5,138.7,186.8,138.8,184.8L138.8,184.8z"/>
	<path id="Left_Posterior_Upper_Arm_16" class="st0_12x human" d="M140.1,207.2c-0.2-1.4-0.3-2.7-0.4-4c-0.4-2.8-0.6-5.8-0.8-8.9
		c0-0.6-0.1-1.2-0.1-1.8h-10.2V208h11.1C139.9,207.8,140,207.5,140.1,207.2z"/>
	<path id="Left_Posterior_Upper_Arm_15" class="st0_12x human" d="M139.7,208.1h-11.1v15.5h4.9C135.6,217.7,137.8,212.1,139.7,208.1z"/>
	<path id="Left_Posterior_Upper_Arm_14" class="st0_12x human" d="M128.6,223.6v14.5c1.4-4.4,3.1-9.5,4.9-14.5H128.6z"/>
	<polygon id="Left_Posterior_Upper_Arm_13" class="st0_12x human" points="127.7,167.7 118.1,177.1 118.2,177.1 128.6,177.1 128.6,166.8 	
		"/>
	<path id="Left_Posterior_Upper_Arm_12" class="st0_12x human" d="M109.2,185.8l-0.3,0.3c0,0-0.7,2.5-1.8,6.5h7.2v-11.7v-0.2L109.2,185.8z
		"/>
	<polygon id="Left_Posterior_Upper_Arm_11" class="st0_12x human" points="118.2,177.1 118.1,177.1 114.4,180.7 114.4,180.9 114.4,192.6 
		128.6,192.6 128.6,177.1 	"/>
	<path id="Left_Posterior_Upper_Arm_10" class="st0_12x human" d="M107.2,192.6c-1.1,4-2.6,9.6-4.1,15.5h11.3v-15.5H107.2z"/>
	<rect id="Left_Posterior_Upper_Arm_09" x="114.4" y="192.6" class="st0_12x human" width="14.2" height="15.5"/>
	<path id="Left_Posterior_Upper_Arm_08" class="st0_12x human" d="M114.4,223.6v-15.5h-11.3c-1,3.7-2,7.6-2.9,11.3v4.2H114.4z"/>
	<rect id="Left_Posterior_Upper_Arm_07" x="114.4" y="208.1" class="st0_12x human" width="14.2" height="15.5"/>
	<path id="Left_Posterior_Upper_Arm_06" class="st0_12x human" d="M100.1,223.6H99c-1.7,6.7-3.1,12.5-3.6,15.5h4.7V223.6z"/>
	<rect id="Left_Posterior_Upper_Arm_05" x="100.1" y="223.6" class="st0_12x human" width="14.2" height="15.5"/>
	<path id="Left_Posterior_Upper_Arm_04" class="st0_12x human" d="M128.3,239c0.1-0.3,0.2-0.6,0.3-0.9v-14.5h-14.2V239H128.3z"/>
	<path id="Left_Posterior_Upper_Arm_03" class="st0_12x human" d="M95.5,239c-0.5,1.3-1.2,2.2-1,2.2c1.7-0.4,4.1-0.6,5.6-0.7v-0.4v-1h-4.6
		V239z"/>
	<path id="Left_Posterior_Upper_Arm_02" class="st0_12x human" d="M100.1,239v1v0.4c5.7-0.4,10.5,0.6,14.2,2.1v-1V239H100.1z"/>
	<path id="Left_Posterior_Upper_Arm_01" class="st0_12x human" d="M114.4,239v2.5v1c7,2.8,10.5,7.4,10.5,7.4s1.4-4.6,3.4-10.9H114.4z"/>
</g>
<g>
	<path id="Left_Elbow_Joint_06" class="st0_12x human" d="M100.1,254.5v-14c-1.5,0.1-4,0.3-5.6,0.7c-0.5,1.8-4.9,10.1-4.9,10.1
		c0.5,0.5,1.5,2.5,2.1,3.2H100.1z"/>
	<path id="Left_Elbow_Joint_05" class="st0_12x human" d="M114.4,242.6c-3.8-1.5-8.5-2.5-14.2-2.1v14h14.2V242.6z"/>
	<path id="Left_Elbow_Joint_04" class="st0_12x human" d="M124.9,250c0,0-3.5-4.6-10.5-7.4v11.9h10C124.6,252.8,124.9,251.1,124.9,250z"/>
	<path id="Left_Elbow_Joint_03" class="st0_12x human" d="M100.1,254.5h-8.4c1.8,2.2,4.2,4.9,7.3,7.1c0,0,0.1,0,0.1,0.1l0,0
		c0.3,0.2,0.7,0.4,1,0.7V254.5z"/>
	<path id="Left_Elbow_Joint_02" class="st0_12x human" d="M100.1,254.5v7.9c1.5,0.9,3.1,1.7,4.8,2.2c2.8,0.9,6,1.2,9.4,0.6V265v-10.4
		h-14.2V254.5z"/>
	<path id="Left_Elbow_Joint_01" class="st0_12x human" d="M114.4,254.5V265v0.2c2.6-0.5,5.3-1.5,8.2-3.3c0.5-1,1.2-4.3,1.7-7.4
		L114.4,254.5L114.4,254.5z"/>
</g>
<g>
	<path id="Left_Posterior_Fore-arm_18" class="st0_12x human" d="M89.6,251.3c-0.3,0.6,0,2.5-0.3,3.2h2.2h0.2
		C91.1,253.8,90.1,251.9,89.6,251.3z"/>
	<path id="Left_Posterior_Fore-arm_17" class="st0_12x human" d="M99.1,261.7L99.1,261.7l-0.1-0.1c-3.1-2.2-5.5-5-7.3-7.1h-0.2h-2.2
		c-1.2,3.2-2.3,8-3.4,13.7v1.8h14.2v-7.6C99.8,262.2,99.4,262,99.1,261.7z"/>
	<path id="Left_Posterior_Fore-arm_16" class="st0_12x human" d="M114.4,265.2c-3.4,0.6-6.6,0.3-9.4-0.6c-1.8-0.5-3.4-1.3-4.8-2.2v7.6
		h14.2L114.4,265.2z"/>
	<path id="Left_Posterior_Fore-arm_15" class="st0_12x human" d="M122.6,261.9c-2.9,1.8-5.7,2.8-8.2,3.3v4.8h5.9
		C121.3,267,122.1,264.2,122.6,261.9z"/>
	<path id="Left_Posterior_Fore-arm_14" class="st0_12x human" d="M85.9,270h-0.3c-0.9,4.7-1.8,10-2.8,15.5H86L85.9,270L85.9,270z"/>
	<rect id="Left_Posterior_Fore-arm_13" x="85.9" y="270" class="st0_12x human" width="14.2" height="15.5"/>
	<path id="Left_Posterior_Fore-arm_12" class="st0_12x human" d="M114.2,285.5c0-0.1,0.1-0.2,0.1-0.3V270h-14.2v15.5H114.2z"/>
	<path id="Left_Posterior_Fore-arm_11" class="st0_12x human" d="M114.4,270v15.1c2.3-5.4,4.3-10.6,5.9-15.1H114.4z"/>
	<path id="Left_Posterior_Fore-arm_10" class="st0_12x human" d="M85.9,285.5h-3.2c-0.9,5.1-1.9,10.4-2.9,15.5h6.1V285.5z"/>
	<rect id="Left_Posterior_Fore-arm_09" x="85.9" y="285.5" class="st0_12x human" width="14.2" height="15.5"/>
	<path id="Left_Posterior_Fore-arm_08" class="st0_12x human" d="M114.2,285.5h-14.1V301h7.2C109.7,295.8,112.1,290.6,114.2,285.5z"/>
	<path id="Left_Posterior_Fore-arm_07" class="st0_12x human" d="M85.9,301h-6.1c-1.1,5.4-2.3,10.7-3.6,15.5h9.7V301z"/>
	<path id="Left_Posterior_Fore-arm_06" class="st0_12x human" d="M100.1,316.4V301H85.9v15.5L100.1,316.4L100.1,316.4z"/>
	<path id="Left_Posterior_Fore-arm_05" class="st0_12x human" d="M100.1,301v15.4c2.2-4.7,4.7-10,7.2-15.4H100.1z"/>
	<path id="Left_Posterior_Fore-arm_04" class="st0_12x human" d="M85.9,316.4h-9.7c-1.1,4-2.3,7.7-3.7,10.8c1.6,0.4,6.3,1.9,13.4,4.2
		L85.9,316.4z"/>
	<path id="Left_Posterior_Fore-arm_03" class="st0_12x human" d="M85.9,316.4v15l1.5,0.5h5.8c1.4-3.5,3.9-9,7-15.5H85.9z"/>
	<path id="Left_Posterior_Fore-arm_02" class="st0_12x human" d="M87.4,331.9l5,1.8c0,0,0.5-1.1,0.7-1.8H87.4z"/>
	<path id="Left_Posterior_Fore-arm_01" class="st0_12x human" d="M85.9,268.2c-0.1,0.6-0.2,1.2-0.3,1.8h0.3V268.2z"/>
</g>
<g>
	<path id="Left_Posterior_Wrist_05" class="st0_12x human" d="M72.6,327.2C72.5,327.2,72.5,327.2,72.6,327.2c-0.3,0.4-0.5,0.9-0.9,1.4v3.3
		l14.2-0.5l0,0C78.8,329.1,74.2,327.6,72.6,327.2z"/>
	<path id="Left_Posterior_Wrist_04" class="st0_12x human" d="M71.7,331.9v7.5c4.7,1.5,10.5,3.3,14.2,4.5v-12.5L71.7,331.9z"/>
	<path id="Left_Posterior_Wrist_03" class="st0_12x human" d="M85.9,331.4v12.4c2.2,0.7,3.7,1.3,3.7,1.3s1.5-7.7,2.8-11.5
		c-1.8-0.7-3.5-1.2-5-1.8L85.9,331.4z"/>
	<path id="Left_Posterior_Wrist_02" class="st0_12x human" d="M71.7,328.6c-0.7,1.1-1.7,2.2-2.7,3.3h2.7V328.6z"/>
	<path id="Left_Posterior_Wrist_01" class="st0_12x human" d="M71.7,331.9H69c-2.1,2.2-4.5,4.3-5.1,4.8c0.8,0.4,4,1.5,7.8,2.7L71.7,331.9z
		"/>
</g>
<g>
	<path id="Left_Gluteal_26" class="st0_12x human" d="M164.2,284.7L164.2,284.7L164.2,284.7c-1.8-0.7-3.8-1.4-6-2.3c0.2,0.3,0.4,0.7,0.5,1
		c0.3,0.6,0.5,1.3,0.7,2.1h0.2h6.7C165.6,285.2,164.9,285,164.2,284.7z"/>
	<path id="Left_Gluteal_25" class="st0_12x human" d="M166.2,285.5h-6.7h-0.2c1,3.9,0.7,9.2-1,14.2c0,0.1,0,0.1-0.1,0.2
		c-0.1,0.3-0.2,0.7-0.4,1.1h13.4v-13.3C169.7,286.8,168,286.2,166.2,285.5z"/>
	<path id="Left_Gluteal_24" class="st0_12x human" d="M173.8,289.2c-0.1-0.1-0.2-0.2-0.4-0.2c-0.1-0.1-0.3-0.2-0.4-0.3
		c-0.1-0.1-0.2-0.1-0.3-0.2c-0.5-0.3-1-0.6-1.5-0.9V301h11.6C179.8,294.8,177,291.5,173.8,289.2z"/>
	<path id="Left_Gluteal_23" class="st0_12x human" d="M186.7,311.8c-0.7-2.1-1-3.5-0.9-4.5c-0.1-0.2-0.2-0.5-0.3-0.7v9.8h2.5
		C187.4,314.1,187,312.4,186.7,311.8z"/>
	<path id="Left_Gluteal_22" class="st0_12x human" d="M188,316.4h-2.5v15.5h6.2C190.6,326.5,189.1,320.5,188,316.4z"/>
	<path id="Left_Gluteal_21" class="st0_12x human" d="M193.7,347.1c-0.1-1.1-0.1-2.3,0-3.7c0-0.2,0-0.3,0-0.5v0.1c-0.2-2.4-0.9-6.5-1.9-11
		h-6.2v15.5h8.1C193.6,347.3,193.7,347.2,193.7,347.1z"/>
	<path id="Left_Gluteal_20" class="st0_12x human" d="M192.9,348.1c0.1-0.3,0.7-0.4,0.7-0.7h-8.1v9.4c1.5-0.9,2.6-1.7,3.2-2.1
		C190.4,352.5,191.6,350.5,192.9,348.1z"/>
	<path id="Left_Gluteal_19" class="st0_12x human" d="M142.8,314c-0.9,0.1-1.8,0.2-2.8,0.2c-0.1,0-0.3,0-0.4,0c-1,0-2,0-3-0.1
		c0,0-0.2,0.9-0.5,2.4h6.7V314z"/>
	<path id="Left_Gluteal_18" class="st0_12x human" d="M149.3,311.7c-1.8,1.1-4,1.9-6.5,2.3v2.5H157V303v-0.1
		C155.6,305.8,153.2,309.3,149.3,311.7z"/>
	<path id="Left_Gluteal_17" class="st0_12x human" d="M171.3,301h-13.4c0,0.1-0.1,0.2-0.1,0.3c-0.2,0.5-0.4,1.1-0.7,1.7v13.5h14.2V301z"/>
	<path id="Left_Gluteal_16" class="st0_12x human" d="M185.5,306.6c-0.9-2.1-1.8-4-2.6-5.6h-11.6v15.5h14.2L185.5,306.6L185.5,306.6z"/>
	<path id="Left_Gluteal_15" class="st0_12x human" d="M142.8,316.4h-6.7c-0.7,3.4-1.9,9.9-3,15.5h9.6L142.8,316.4L142.8,316.4z"/>
	<rect id="Left_Gluteal_14" x="142.8" y="316.4" class="st0_12x human" width="14.2" height="15.5"/>
	<rect id="Left_Gluteal_13" x="157.1" y="316.4" class="st0_12x human" width="14.2" height="15.5"/>
	<rect id="Left_Gluteal_12" x="171.3" y="316.4" class="st0_12x human" width="14.2" height="15.5"/>
	<path id="Left_Gluteal_11" class="st0_12x human" d="M142.8,347.4v-15.5h-9.6c-0.6,3-1.1,5.7-1.4,7.6c0.7,1.3,1.9,4.4,3.9,7.9H142.8z"/>
	<rect id="Left_Gluteal_10" x="142.8" y="331.9" class="st0_12x human" width="14.2" height="15.5"/>
	<rect id="Left_Gluteal_09" x="157.1" y="331.9" class="st0_12x human" width="14.2" height="15.5"/>
	<rect id="Left_Gluteal_08" x="171.3" y="331.9" class="st0_12x human" width="14.2" height="15.5"/>
	<path id="Left_Gluteal_07" class="st0_12x human" d="M135.8,347.4c1.7,2.8,3.9,5.9,7.1,8.7v-8.7H135.8z"/>
	<path id="Left_Gluteal_06" class="st0_12x human" d="M157.1,347.4h-14.2v8.7c3.2,2.8,7.2,5.3,12.4,6.8h1.8V347.4z"/>
	<rect id="Left_Gluteal_05" x="157.1" y="347.4" class="st0_12x human" width="14.2" height="15.5"/>
	<path id="Left_Gluteal_04" class="st0_12x human" d="M185.5,347.4h-14.2v15.5h0.7c5.5-1.5,10.4-4.2,13.5-6.1V347.4z"/>
	<path id="Left_Gluteal_03" class="st0_12x human" d="M157.1,362.9h-1.8c0.6,0.2,1.2,0.3,1.8,0.4V362.9z"/>
	<path id="Left_Gluteal_02" class="st0_12x human" d="M157.1,362.9v0.4c1,0.2,2.1,0.4,3.2,0.6c3.7,0.5,7.5,0.1,11.1-0.8v-0.2H157.1z"/>
	<path id="Left_Gluteal_01" class="st0_12x human" d="M171.3,362.9v0.2c0.2-0.1,0.5-0.1,0.7-0.2H171.3z"/>
</g>
<g>
	<path id="Left_Posterior_Palm_12" class="st0_12x human" d="M71.7,339.4v1v7h14.2v-2.6v-0.9C82.2,342.7,76.4,340.9,71.7,339.4z"/>
	<path id="Left_Posterior_Palm_11" class="st0_12x human" d="M89.7,345.6c0-0.1,0-0.3,0-0.4s-1.5-0.6-3.7-1.3v0.9v2.6h3.9
		C89.8,346.7,89.8,346.1,89.7,345.6z"/>
	<rect id="Left_Posterior_Palm_10" x="71.7" y="347.4" class="st0_12x human" width="14.2" height="15.5"/>
	<path id="Left_Posterior_Palm_09" class="st0_12x human" d="M89.8,347.4h-3.9v15.5h2C89,357.5,89.9,351.6,89.8,347.4z"/>
	<path id="Left_Posterior_Palm_08" class="st0_12x human" d="M57.5,340c-0.9,0.5-1.6,1-1.8,1.2c1.8,1.5,1.6,4.4,1.3,6.2h0.5V340z"/>
	<path id="Left_Posterior_Palm_07" class="st0_12x human" d="M63.9,336.7c-0.6,0.2-4,1.7-6.4,3.3v7.4h14.2v-7v-1
		C67.8,338.1,64.7,337.1,63.9,336.7z"/>
	<path id="Left_Posterior_Palm_06" class="st0_12x human" d="M57.5,347.4H57c-1.1,4.7-2,4.6-2,4.6s-0.1,4.3-0.4,5.3
		c-0.3,1.1-1,3.3-1.6,5.6h4.5V347.4z"/>
	<rect id="Left_Posterior_Palm_05" x="57.5" y="347.4" class="st0_12x human" width="14.2" height="15.5"/>
	<path id="Left_Posterior_Palm_04" class="st0_12x human" d="M84,376.9c0.3-0.2,1.1-2.4,2-5.6v-8.5H71.7v13.7
		C78.5,377.3,83.8,377,84,376.9z"/>
	<path id="Left_Posterior_Palm_03" class="st0_12x human" d="M85.9,362.9v8.5c0.7-2.4,1.4-5.3,2-8.5H85.9z"/>
	<path id="Left_Posterior_Palm_02" class="st0_12x human" d="M52.9,362.9c-0.9,3.4-1.8,6.9-1.6,7.7c1.9,1.2,3.9,2.1,6.1,2.9v-10.6H52.9z"
		/>
	<path id="Left_Posterior_Palm_01" class="st0_12x human" d="M71.7,362.9H57.5v10.6c4.7,1.7,9.8,2.6,14.2,3.1V362.9z"/>
</g>
<g>
	<path id="Left_Posterior_Thigh_47" class="st0_12x human" d="M188.7,354.6c-0.5,0.4-1.6,1.2-3.2,2.1v0.6v5.5h2.4c0.7-5.2,1.2-8.5,1.2-8.5
		S189,354.4,188.7,354.6z"/>
	<path id="Left_Posterior_Thigh_46" class="st0_12x human" d="M131.8,339.5c-0.7,2.4-1.3,5.1-1.9,7.9h5.1h0.7
		C133.7,343.9,132.5,340.8,131.8,339.5z"/>
	<path id="Left_Posterior_Thigh_45" class="st0_12x human" d="M135.8,347.4H135h-5.1c-0.5,2.4-0.9,4.9-1.3,7.6v7.9h14.2v-5.7v-1
		C139.7,353.3,137.4,350.2,135.8,347.4z"/>
	<path id="Left_Posterior_Thigh_44" class="st0_12x human" d="M142.8,356.1v1v5.7h9.9h2.5C150.1,361.4,146,359,142.8,356.1z"/>
	<path id="Left_Posterior_Thigh_43" class="st0_12x human" d="M172,362.9h2.5h11.1v-5.5v-0.6C182.4,358.7,177.5,361.3,172,362.9z"/>
	<path id="Left_Posterior_Thigh_42" class="st0_12x human" d="M128.6,355c-0.4,2.5-0.7,5.2-1,7.9h1V355z"/>
	<path id="Left_Posterior_Thigh_41" class="st0_12x human" d="M187.9,362.9h-2.4v15.5h0.3C186.6,372.5,187.3,367.1,187.9,362.9z"/>
	<rect id="Left_Posterior_Thigh_40" x="128.6" y="362.9" class="st0_12x human" width="14.2" height="15.5"/>
	<path id="Left_Posterior_Thigh_39" class="st0_12x human" d="M155.3,362.9h-2.5h-9.9v15.5h14.2V364v-0.7
		C156.5,363.2,155.9,363,155.3,362.9z"/>
	<path id="Left_Posterior_Thigh_38" class="st0_12x human" d="M160.2,363.9c-1.1-0.1-2.1-0.3-3.2-0.6v0.7v14.3h14.2v-14.7V363
		C167.7,364,164,364.4,160.2,363.9z"/>
	<path id="Left_Posterior_Thigh_37" class="st0_12x human" d="M174.5,362.9H172c-0.2,0.1-0.5,0.1-0.7,0.2v0.6v14.7h14.2v-15.5L174.5,362.9
		L174.5,362.9z"/>
	<rect id="Left_Posterior_Thigh_36" x="128.6" y="378.4" class="st0_12x human" width="14.2" height="15.5"/>
	<rect id="Left_Posterior_Thigh_35" x="142.8" y="378.4" class="st0_12x human" width="14.2" height="15.5"/>
	<rect id="Left_Posterior_Thigh_34" x="157.1" y="378.4" class="st0_12x human" width="14.2" height="15.5"/>
	<path id="Left_Posterior_Thigh_33" class="st0_12x human" d="M185.5,380.4v-2h-14.2v15.5h12.5C184.3,389.4,184.9,384.8,185.5,380.4z"/>
	<rect id="Left_Posterior_Thigh_32" x="128.6" y="393.8" class="st0_12x human" width="14.2" height="15.5"/>
	<rect id="Left_Posterior_Thigh_31" x="142.8" y="393.8" class="st0_12x human" width="14.2" height="15.5"/>
	<rect id="Left_Posterior_Thigh_30" x="157.1" y="393.8" class="st0_12x human" width="14.2" height="15.5"/>
	<path id="Left_Posterior_Thigh_29" class="st0_12x human" d="M183.8,393.8h-12.5v15.5h10.5C182.4,404.7,183.1,399.4,183.8,393.8z"/>
	<rect id="Left_Posterior_Thigh_28" x="128.6" y="409.3" class="st0_12x human" width="14.2" height="15.5"/>
	<rect id="Left_Posterior_Thigh_27" x="142.8" y="409.3" class="st0_12x human" width="14.2" height="15.5"/>
	<rect id="Left_Posterior_Thigh_26" x="157.1" y="409.3" class="st0_12x human" width="14.2" height="15.5"/>
	<path id="Left_Posterior_Thigh_25" class="st0_12x human" d="M180.8,418.5c0.2-2.4,0.6-5.6,1-9.2h-10.5v15.5h9
		C180.5,422.5,180.6,420.4,180.8,418.5z"/>
	<rect id="Left_Posterior_Thigh_24" x="128.6" y="424.8" class="st0_12x human" width="14.2" height="15.5"/>
	<rect id="Left_Posterior_Thigh_23" x="142.8" y="424.8" class="st0_12x human" width="14.2" height="15.5"/>
	<rect id="Left_Posterior_Thigh_22" x="157.1" y="424.8" class="st0_12x human" width="14.2" height="15.5"/>
	<path id="Left_Posterior_Thigh_21" class="st0_12x human" d="M180.3,424.8h-9v15.5h8.3C179.8,434.6,180,429.4,180.3,424.8z"/>
	<path id="Left_Posterior_Thigh_20" class="st0_12x human" d="M142.8,455.8v-15.5h-14.2v9.4c0.2,2.1,0.4,4.1,0.7,6.1H142.8z"/>
	<rect id="Left_Posterior_Thigh_19" x="142.8" y="440.3" class="st0_12x human" width="14.2" height="15.5"/>
	<rect id="Left_Posterior_Thigh_18" x="157.1" y="440.3" class="st0_12x human" width="14.2" height="15.5"/>
	<path id="Left_Posterior_Thigh_17" class="st0_12x human" d="M179.6,440.3h-8.3v15.5h7.5C179.1,450.5,179.4,445.2,179.6,440.3z"/>
	<path id="Left_Posterior_Thigh_16" class="st0_12x human" d="M142.8,455.8h-13.6c0.6,5.5,1.4,10.7,2.2,15.5h11.4L142.8,455.8L142.8,455.8
		z"/>
	<rect id="Left_Posterior_Thigh_15" x="142.8" y="455.8" class="st0_12x human" width="14.2" height="15.5"/>
	<rect id="Left_Posterior_Thigh_14" x="157.1" y="455.8" class="st0_12x human" width="14.2" height="15.5"/>
	<path id="Left_Posterior_Thigh_13" class="st0_12x human" d="M178.8,455.8h-7.5v15.5h6.3C178.1,466.2,178.5,460.9,178.8,455.8z"/>
	<path id="Left_Posterior_Thigh_12" class="st0_12x human" d="M131.5,471.2c0.7,4.4,1.5,8.5,2.4,12.1c3-1.1,6-1.8,9-2.2v-10h-11.4V471.2z"
		/>
	<path id="Left_Posterior_Thigh_11" class="st0_12x human" d="M146.5,481c1.9,0,3.7,0.1,5.5,0.3c0.9,0.1,1.8,0.3,2.7,0.4
		c0.8,0.2,1.6,0.3,2.4,0.6v-11.1h-14.2v10c0.3,0,0.6-0.1,0.9-0.1C144.7,481,145.6,481,146.5,481z"/>
	<path id="Left_Posterior_Thigh_10" class="st0_12x human" d="M162.4,484.1c1.2,0.5,2.4,1.1,3.6,1.7c0.6,0.3,1.1,0.6,1.7,0.9h3.7v-15.5
		h-14.2v11.1c0.5,0.1,1,0.3,1.6,0.4C159.9,483.1,161.2,483.6,162.4,484.1z"/>
	<path id="Left_Posterior_Thigh_09" class="st0_12x human" d="M177.6,471.2h-6.3v15.5h4.2C176.4,481.9,177.1,476.7,177.6,471.2z"/>
	<path id="Left_Posterior_Thigh_08" class="st0_12x human" d="M128.6,362.9h-1c-0.5,4.9-0.9,10.1-1.2,15.5h2.2V362.9z"/>
	<path id="Left_Posterior_Thigh_07" class="st0_12x human" d="M128.6,378.4h-2.2c-0.3,5-0.4,10.2-0.5,15.5h2.6L128.6,378.4L128.6,378.4z"
		/>
	<path id="Left_Posterior_Thigh_06" class="st0_12x human" d="M128.6,393.8H126c-0.1,5.1,0,10.3,0.1,15.5h2.5V393.8z"/>
	<path id="Left_Posterior_Thigh_05" class="st0_12x human" d="M128.6,409.3h-2.5c0.1,5.2,0.3,10.3,0.6,15.5h1.9V409.3z"/>
	<path id="Left_Posterior_Thigh_04" class="st0_12x human" d="M128.6,424.8h-1.9c0.3,5.2,0.6,10.4,1.1,15.5h0.9L128.6,424.8L128.6,424.8z"
		/>
	<path id="Left_Posterior_Thigh_03" class="st0_12x human" d="M127.7,440.3c0.3,3.2,0.6,6.3,0.9,9.4v-9.4H127.7z"/>
	<path id="Left_Posterior_Thigh_02" class="st0_12x human" d="M171.3,486.7h-3.7c0.2,0.1,0.4,0.2,0.6,0.4c0.7,0.4,1.5,0.9,2.2,1.4
		c0.3,0.2,0.6,0.4,0.9,0.6V486.7z"/>
	<path id="Left_Posterior_Thigh_01" class="st0_12x human" d="M174.4,491.6c0.4-1.6,0.7-3.2,1-4.9h-4.2v2.4
		C172.4,489.9,173.4,490.7,174.4,491.6z"/>
</g>
<g>
	<path id="Left_Popliteal_Fossa_11" class="st0_12x human" d="M142.8,481.2c-3,0.3-6,1-9,2.2c0,1.2,0.1,2.3,0.1,3.3h9v-5.5H142.8z"/>
	<path id="Left_Popliteal_Fossa_10" class="st0_12x human" d="M157.1,486.7v-4.4c-0.8-0.2-1.6-0.4-2.4-0.6c-0.9-0.2-1.8-0.3-2.7-0.4
		c-1.8-0.2-3.6-0.4-5.5-0.3c-0.9,0-1.9,0.1-2.8,0.1c-0.3,0-0.6,0.1-0.9,0.1v5.5L157.1,486.7L157.1,486.7z"/>
	<path id="Left_Popliteal_Fossa_09" class="st0_12x human" d="M166,485.8c-1.2-0.6-2.4-1.2-3.6-1.7c-1.2-0.5-2.5-1-3.8-1.4
		c-0.5-0.2-1-0.3-1.6-0.4v4.4h10.6C167.1,486.4,166.6,486.1,166,485.8z"/>
	<path id="Left_Popliteal_Fossa_08" class="st0_12x human" d="M142.8,486.7h-9c0,7.1-0.7,11.4-1.4,15.5h10.4V486.7z"/>
	<rect id="Left_Popliteal_Fossa_07" x="142.8" y="486.7" class="st0_12x human" width="14.2" height="15.5"/>
	<path id="Left_Popliteal_Fossa_06" class="st0_12x human" d="M171.3,489.1c-0.3-0.2-0.6-0.4-0.9-0.6c-0.7-0.5-1.4-1-2.2-1.4
		c-0.2-0.1-0.4-0.2-0.6-0.4H157v15.5h14.2v-13.1H171.3z"/>
	<path id="Left_Popliteal_Fossa_05" class="st0_12x human" d="M174.4,491.6c-1-0.9-2-1.7-3.1-2.5v13.1h0.7
		C172.8,499.1,173.6,495.6,174.4,491.6z"/>
	<path id="Left_Popliteal_Fossa_04" class="st0_12x human" d="M132.4,502.2c-0.3,1.6-0.6,3.1-0.9,4.8c1.7,3.1,5.5,7.1,11.3,8.8v-13.6
		L132.4,502.2L132.4,502.2z"/>
	<path id="Left_Popliteal_Fossa_03" class="st0_12x human" d="M148.3,516.6c3.1,0.1,6.1,0,8.8-0.3v-14.1h-14.2v13.6c1.2,0.4,2.6,0.6,4,0.7
		C147.3,516.5,147.8,516.5,148.3,516.6z"/>
	<path id="Left_Popliteal_Fossa_02" class="st0_12x human" d="M171.3,504.8v-2.6h-14.2v14.1c6.7-0.7,11.5-2.1,11.5-2.1
		S169.7,510.7,171.3,504.8z"/>
	<path id="Left_Popliteal_Fossa_01" class="st0_12x human" d="M171.3,502.2v2.6c0.2-0.8,0.4-1.7,0.7-2.6H171.3z"/>
</g>
<g>
	<path id="Left_Calf_33" class="st0_12x human" d="M142.8,517.7v-1.9c-5.9-1.7-9.6-5.6-11.3-8.8c-1.1,1.7-2.1,3.9-2.9,6.6v4.1L142.8,517.7
		L142.8,517.7z"/>
	<path id="Left_Calf_32" class="st0_12x human" d="M157.1,516.4c-2.6,0.2-5.6,0.3-8.8,0.1c-0.5,0-1,0-1.4-0.1c-1.4-0.1-2.8-0.4-4-0.7v1.9
		h14.2V516.4z"/>
	<path id="Left_Calf_31" class="st0_12x human" d="M168.5,514.2c-1.3,0.5-5.4,1.7-11.5,2.2v1.3h10.5C167.9,516.5,168.2,515.3,168.5,514.2z
		"/>
	<rect id="Left_Calf_30" x="128.6" y="517.7" class="st0_12x human" width="14.2" height="15.5"/>
	<rect id="Left_Calf_29" x="142.8" y="517.7" class="st0_12x human" width="14.2" height="15.5"/>
	<path id="Left_Calf_28" class="st0_12x human" d="M167.6,517.7h-10.5v15.5h8.3C165.8,527.9,166.4,522.7,167.6,517.7z"/>
	<rect id="Left_Calf_27" x="128.6" y="533.2" class="st0_12x human" width="14.2" height="15.5"/>
	<rect id="Left_Calf_26" x="142.8" y="533.2" class="st0_12x human" width="14.2" height="15.5"/>
	<path id="Left_Calf_25" class="st0_12x human" d="M164,548.6c0.5-5.3,0.9-10.5,1.3-15.5H157v15.5H164z"/>
	<rect id="Left_Calf_24" x="128.6" y="548.6" class="st0_12x human" width="14.2" height="15.5"/>
	<rect id="Left_Calf_23" x="142.8" y="548.6" class="st0_12x human" width="14.2" height="15.5"/>
	<path id="Left_Calf_22" class="st0_12x human" d="M164,548.6h-6.9v15.5h4.5C162.8,558.7,163.5,553.6,164,548.6z"/>
	<rect id="Left_Calf_21" x="128.6" y="564.1" class="st0_12x human" width="14.2" height="15.5"/>
	<rect id="Left_Calf_20" x="142.8" y="564.1" class="st0_12x human" width="14.2" height="15.5"/>
	<path id="Left_Calf_19" class="st0_12x human" d="M161.6,564.1h-4.5v15.5h0.3c0.8-2.9,1.7-5.8,2.5-8.8
		C160.6,568.5,161.1,566.3,161.6,564.1z"/>
	<rect id="Left_Calf_18" x="128.6" y="579.6" class="st0_12x human" width="14.2" height="15.5"/>
	<path id="Left_Calf_17" class="st0_12x human" d="M157.1,579.6h-14.2v15.5h10.2c1.2-4.5,2.6-9.3,4-14.4V579.6z"/>
	<path id="Left_Calf_16" class="st0_12x human" d="M157.1,580.7c0.1-0.4,0.2-0.7,0.3-1.1h-0.3V580.7z"/>
	<rect id="Left_Calf_15" x="128.6" y="595.1" class="st0_12x human" width="14.2" height="15.5"/>
	<path id="Left_Calf_14" class="st0_12x human" d="M142.8,595.1v15.5h6.1c1.2-4.6,2.5-9.8,4.1-15.5H142.8z"/>
	<path id="Left_Calf_13" class="st0_12x human" d="M128.6,513.5c-0.4,1.3-0.8,2.7-1.1,4.1h1.1V513.5z"/>
	<path id="Left_Calf_12" class="st0_12x human" d="M128.6,517.7h-1.1c-1,4.4-1.7,9.7-2.3,15.5h3.4V517.7z"/>
	<path id="Left_Calf_11" class="st0_12x human" d="M128.6,533.2h-3.4c-0.4,4.8-0.7,10.1-0.9,15.5h4.2v-15.5H128.6z"/>
	<path id="Left_Calf_10" class="st0_12x human" d="M128.6,548.6h-4.2c-0.2,5-0.2,10.2-0.2,15.5h4.4V548.6z"/>
	<path id="Left_Calf_09" class="st0_12x human" d="M128.6,564.1h-4.4c0,5.2,0.1,10.4,0.2,15.5h4.3L128.6,564.1L128.6,564.1z"/>
	<path id="Left_Calf_08" class="st0_12x human" d="M128.6,579.6h-4.3c0.1,5.3,0.2,10.5,0.4,15.5h3.9V579.6z"/>
	<path id="Left_Calf_07" class="st0_12x human" d="M128.6,595.1h-3.9c0.1,5.5,0.3,10.8,0.4,15.5h3.6v-15.5H128.6z"/>
	<rect id="Left_Calf_06" x="128.6" y="610.6" class="st0_12x human" width="14.2" height="15.5"/>
	<path id="Left_Calf_05" class="st0_12x human" d="M142.8,610.6V626h2.5c0.8-3.8,2-9.1,3.7-15.5L142.8,610.6L142.8,610.6z"/>
	<path id="Left_Calf_04" class="st0_12x human" d="M128.6,630.4c5.2-0.6,10.9-0.4,14.2,0.7V626h-14.2V630.4z"/>
	<path id="Left_Calf_03" class="st0_12x human" d="M142.8,631.1c0.6,0.2,1.1,0.4,1.5,0.7c0.1-1.1,0.4-3.1,0.9-5.7h-2.5v5H142.8z"/>
	<path id="Left_Calf_02" class="st0_12x human" d="M128.6,610.6H125c0.1,6.2,0.1,11.5-0.1,15.5h3.7V610.6z"/>
	<path id="Left_Calf_01" class="st0_12x human" d="M128.6,626H125c-0.1,2-0.3,3.7-0.5,4.9c0.9-0.2,1.9-0.3,2.9-0.4
		c0.4-0.1,0.8-0.1,1.2-0.2V626z"/>
</g>
<g>
	<path id="Left_posterior_ankle_06" class="st0_12x human" d="M128.6,630.5v11.1h14.2v-10.4C139.5,630,133.8,630,128.6,630.5z"/>
	<path id="Left_posterior_ankle_05" class="st0_12x human" d="M142.8,631.1v10.4h0.1c0.6-3.6,1.2-7.2,1.4-9.7
		C143.9,631.5,143.4,631.3,142.8,631.1z"/>
	<path id="Left_posterior_ankle_04" class="st0_12x human" d="M128.6,641.5v2.7c0.8-0.2,1.6-0.3,2.4-0.3c0.4,0,0.8,0.1,1.2,0.2l0,0l0,0
		c0.3,0.1,0.5,0.2,0.8,0.3c0.1,0,0.2,0.1,0.3,0.2c0.1,0,0.2,0.1,0.3,0.1c0.3,0.1,0.5,0.3,0.8,0.4c0.1,0.1,0.2,0.1,0.3,0.2
		c0.1,0.1,0.2,0.1,0.3,0.2c2.7,2,5.2,5.6,5.9,10.3l0,0c0.2-3.3,1.1-8.6,2-13.7v-0.6L128.6,641.5L128.6,641.5z"/>
	<path id="Left_posterior_ankle_03" class="st0_12x human" d="M142.8,642.1c0-0.2,0.1-0.4,0.1-0.6h-0.1V642.1z"/>
	<path id="Left_posterior_ankle_02" class="st0_12x human" d="M128.6,630.5c-0.4,0-0.8,0.1-1.2,0.1c-1,0.1-2,0.3-2.9,0.5
		c-0.5,1.8-1.6,6.1-2.5,10.4h6.6V630.5z"/>
	<path id="Left_posterior_ankle_01" class="st0_12x human" d="M128.6,641.5H122c-1.1,5.3-2.1,10.7-1.8,11.7c0.6-1.7,1.4-3.1,2.3-4.4
		c0.1-0.2,0.2-0.3,0.3-0.5c0.1-0.1,0.1-0.1,0.2-0.2c1.2-1.5,2.8-3,4.8-3.7c0.3-0.1,0.5-0.2,0.8-0.3V641.5z"/>
</g>
<g>
	<path id="Left_Heel_04" class="st0_12x human" d="M134.9,645.5c-0.1-0.1-0.2-0.1-0.3-0.2c-0.1-0.1-0.2-0.1-0.3-0.2
		c-0.3-0.2-0.5-0.3-0.8-0.4c-0.1,0-0.2-0.1-0.3-0.1c-0.1-0.1-0.2-0.1-0.3-0.2c-0.3-0.1-0.5-0.2-0.8-0.3l0,0
		c-1.3-0.2-2.5-0.2-3.6,0.1V657H141c0-0.4-0.1-0.8-0.1-1.2C139.9,651.2,138.3,648.2,134.9,645.5z"/>
	<path id="Left_Heel_03" class="st0_12x human" d="M128.6,663.8l11.6-0.2c0,0,1-4.5,0.8-6.6h-12.4L128.6,663.8L128.6,663.8z"/>
	<path id="Left_Heel_02" class="st0_12x human" d="M128.6,644.2c-0.3,0.1-0.6,0.1-0.8,0.2c-1.7,0.7-3.3,1.9-4.8,3.7
		c-0.1,0.1-0.1,0.1-0.2,0.2c-0.1,0.2-0.2,0.3-0.3,0.5c-1.3,1.9-2,3.7-2.3,4.4l0,0c-0.4,1.2-0.8,2.4-1.1,3.8h9.5V644.2z"/>
	<path id="Left_Heel_01" class="st0_12x human" d="M128.6,663.8V657h-9.5c-0.3,1.5-0.5,3.2-0.6,5C118.5,662,125.1,663.2,128.6,663.8z"/>
</g>
<g>
	<path id="Left_Posterior_Thumb_Proximal_phalanx_1" class="st0_12x human" d="M55.4,351.8c2.2-4.1,2.4-8.9,0.3-10.6c-3.1,1.5-7.1,4-7.6,5.4
		c-0.4,1.1,2.6,8.9,2.6,8.9S53.5,352.4,55.4,351.8z"/>
	<path id="Left_Posterior_Thumb_Distal_phalanx_1" class="st0_12x human" d="M38.8,362.8c-4.5-2.2,9.2-16.2,9.2-16.2l2.6,8.9
		C50.6,355.5,42.3,364.5,38.8,362.8z"/>
</g>
<g>
	<g>
		<path id="Left_Posterior_Little_Distal_phalanx_1" class="st0_12x human" d="M78.6,395.9c1.8,0.1,4.3-6,4.4-8.8c-1.5,0.5-3.2,0.9-6,1.1
			C76.9,391.7,77.2,395.7,78.6,395.9z"/>
	</g>
	<g>
		<path id="Left_Posterior_Ring_Distal_phalanx_1" class="st0_12x human" d="M69.1,402.5c3.1,0.2,3.5-7.7,4.2-10.7c-1.9,0.2-2.9-0.3-6.3-0.1
			C66.6,395.7,65.9,402.2,69.1,402.5z"/>
	</g>
	<g>
		<path id="Left_Posterior_Middle_Distal_phalanx_1" class="st0_12x human" d="M58.3,403.4c3.6,0,5.6-8.5,5.8-11.5c-2-0.6-3.9-0.8-7.1-1.6
			C56.4,394.2,55.1,403.4,58.3,403.4z"/>
	</g>
	<path id="Left_Posterior_Index_Distal_phalanx_1" class="st0_12x human" d="M49,399c3.7,0,4.7-7,5.4-10c-1.8-0.9-3.7-2.4-6.2-3.9
		C47.5,389,45.8,399,49,399z"/>
	<path id="Left_Posterior_Little_Proximal_phalanx_1" class="st0_12x human" d="M77.4,382.9l6.3-0.5c0.3-2.9,0.6-5.8,0.6-5.8
		s-3.2,0.3-6.6,0.4C77.5,378.3,77.3,380.7,77.4,382.9z"/>
	<path id="Left_Posterior_Little_Middle_phalanx_1" class="st0_12x human" d="M77.3,382.8c-0.1,2.1-0.1,4.3-0.2,5.7c2.7-0.1,4.5-0.6,6-1.1
		c0.1-1,0.3-3,0.5-5L77.3,382.8z"/>
	<path id="Left_Posterior_Ring_Proximal_phalanx_1" class="st0_12x human" d="M68,384.3l6.8,0.5c0.8-3.7,1.7-7.8,1.7-7.8s-3.4-0.3-7.5-0.8
		C68.6,379.6,68.3,382.4,68,384.3z"/>
	<path id="Left_Posterior_Ring_Middle_phalanx_1" class="st0_12x human" d="M67,391.6c3.4-0.2,4.4,0.7,6.3,0.1c0.2-1,0.9-4,1.5-6.9l-6.8-0.5
		C67.4,388.5,67.2,389.8,67,391.6z"/>
	<path id="Left_Posterior_Middle_proximal_phalanx_1" class="st0_12x human" d="M58.3,383.4l7,0.8c0.3-1.9,0.8-4.6,1.4-8.4
		c0,0-2.4-0.1-6.5-1.4C59.8,376,59,379.9,58.3,383.4z"/>
	<path id="Left_Posterior_Middle_Middle_phalanx_1" class="st0_12x human" d="M58.2,383.5c-0.5,2.8-1,5.5-1.2,6.9c3.4,0.8,5,1,7.1,1.5
		c0.4-2.4,0.6-3.7,1.2-7.6L58.2,383.5z"/>
	<path id="Left_Posterior_Index_proximal_phalanx_1" class="st0_12x human" d="M49.5,377.9l6.7,3.4c0.5-1.8,1.1-4.2,1.9-7.4
		c0,0-3.1-1.5-6.9-3.6C50.8,371.7,50.2,374.8,49.5,377.9z"/>
	<path id="Left_Posterior_Index_Middle_phalanx_1" class="st0_12x human" d="M49.5,377.9c-0.6,2.8-1.1,5.6-1.4,7.2c2.6,1.5,4.5,3.1,6.2,3.9
		c0.4-1.6,0.5-2.1,1.9-7.7L49.5,377.9z"/>
</g>
<g>
	<g>
		<path id="Left_posterior_Toe_2" class="st0_12x human" d="M140.2,719.5c0,0-0.2,11.2-2,14.3c-2.4,4-9.1,3.8-9.7-0.4c-0.6-4.2,1-9.3,1.1-9.9
			C137.3,724.2,140.2,719.5,140.2,719.5z"/>
	</g>
</g>
<g>
	<g>
		<path id="Left_Posterior_2nd_Phalange_2" class="st0_12x human" d="M129.6,723.3c0,0-1.2,6.8-2.2,8.5c-1.3,2.2-5.6,1.1-5.9-1.2
			s0.6-9.2,0.7-9.5C126.9,723.6,129.6,723.3,129.6,723.3z"/>
	</g>
</g>
<g>
	<g>
		<path id="Left_Posterior_3rd_Phalange_2" class="st0_12x human" d="M122.2,721.2c0,0-0.5,4.8-0.6,6.8c-0.1,1.9-4.6,1.2-4.6-2.7
			c0-1.7,0.7-6.6,0.7-6.8C119.8,720,122.2,721.2,122.2,721.2z"/>
	</g>
</g>
<g>
	<g>
		<path id="Left_Posterior_4th_Phalange_2" class="st0_12x human" d="M117.7,718.5c0,0-0.4,3.1-0.5,5.1c-0.1,1.9-4.1,0-4.1-4
			c0-1.7,0.5-4.6,0.6-4.8C115,716.4,117.7,718.5,117.7,718.5z"/>
	</g>
</g>
<g>
	<g>
		<path id="Left_Posterior_5th_Phalange_2" class="st0_12x human" d="M113.9,714.1c0,0-0.7,2.7-0.8,4.7c-0.1,1.9-3.7,0.9-3.7-3.1
			c0-1.7,0.4-6.2,0.4-6.4C111,711.9,113.9,714.1,113.9,714.1z"/>
	</g>
</g>
<g>
	<path id="Left_Transverse_arch_2" class="st0_12x human" d="M141.1,712.9c0,0-2.3,0.5-3.7,0.9c0.1,6.4-7.9,4.6-13.3,3.2
		c-5.1-1.3-11.6-5.4-11.1-8.5c-2.4-0.9-3.1-1.2-3.1-1.2s-0.3,1.6,0.1,2.4c0.8,1.6,4.7,7.3,9.9,10.2c5.4,3,8.1,4.1,12.8,3.5
		c4.9-0.6,7-3.3,7.1-3.4C141.2,718.6,141.1,712.9,141.1,712.9z"/>
</g>
<g>
	<path id="Left_Inner_longitudinal_arch_1" class="st0_12x human" d="M140.1,663.5c0,0-1.5,12.3-1.5,18.8c0,4,2.6,26,2.5,30.5
		c-0.2,0-3.8,1.7-4.1,0.6c-0.1-4.4-1.7-19.1-2.9-31.2c-0.7-10.9-0.6-18.5-0.6-18.5L140.1,663.5z"/>
</g>
<g>
	<path id="Left_Outer_longitudinal_arch_1" class="st0_12x human" d="M118.4,661.9c0,0-2.5,13.8-3.9,20.3c-0.8,3.9-3.8,20.7-4.6,25.1
		c0.2,0,3.1,1.2,3.3,1.1c0.7-4.7,4.9-14.7,8.2-26.5c2.9-11.3,4.4-18.6,4.4-18.6L118.4,661.9z"/>
</g>
<g>
	<path id="Left_Foot_middle_1" class="st0_12x human" d="M125.8,663.3c0,0-2.4,10.8-3.7,16.2c-3.1,11.1-7.4,21-9,28.6
		c-1.5,7.2,24.5,14.8,24.2,6.7c-0.3-9.3-2.6-23.4-3.5-36.3c-0.4-5.1-0.3-14.8-0.3-14.8l-4.9,0.1L125.8,663.3z"/>
</g>
<g>
	<circle id="Left_Inner_ball_2" class="st0_12x human" cx="133.7" cy="714.5" r="3.5"/>
</g>
<g>
	<circle id="Left_Outer_ball_2" class="st0_12x human" cx="116.8" cy="709" r="3.5"/>
</g>
<g>
	<path id="Cervical_Spine_03" class="st0_12x human" d="M199.7,99.6v-8.4c0.2,0.2-12.5-0.1-13.6,0.1c0,0-0.2,3.5,0,8.4L199.7,99.6z"/>
	<path id="Cervical_Spine_02" class="st0_12x human" d="M199.7,115V99.6l-13.6,0.1c0.2,4.5-0.2,10.2,0,15.5L199.7,115z"/>
	<polygon id="Cervical_Spine_01" class="st0_12x human" points="186,130.5 199.6,130.6 199.7,115 186,115.1 	"/>
</g>
<g>
	<path id="Thoracic_Spine_10" class="st0_12x human" d="M186,130.5c0,2.2-0.4,15.5-0.4,15.5l14,0.1v-15.2v-0.3
		C199.6,130.6,187,130.5,186,130.5z"/>
	<polygon id="Thoracic_Spine_09" class="st0_12x human" points="185.6,146.1 199.6,146.1 199.6,161.6 185.6,161.6 	"/>
	<rect id="Thoracic_Spine_08" x="185.6" y="161.5" class="st0_12x human" width="14" height="15.5"/>
	<rect id="Thoracic_Spine_07" x="185.6" y="177" class="st0_12x human" width="14" height="15.5"/>
	<path id="Thoracic_Spine_06" class="st0_12x human" d="M199.7,192.5h-14v1.6h14v0.1l0,0c0.1,0-0.2,0,0-0.1V192.5z"/>
	<polygon id="Thoracic_Spine_05" class="st0_12x human" points="185.6,194.1 185.6,208 199.7,208 199.7,194.2 199.7,194.1 	"/>
	<polygon id="Thoracic_Spine_04" class="st0_12x human" points="199.7,208 185.6,208 185.6,223.5 199.7,223.5 	"/>
	<polygon id="Thoracic_Spine_03" class="st0_12x human" points="199.7,223.5 185.6,223.5 185.6,238.9 199.7,238.9 	"/>
	<polygon id="Thoracic_Spine_02" class="st0_12x human" points="185.6,238.9 185.7,254.4 199.7,254.4 199.7,238.9 	"/>
	<path id="Thoracic_Spine_01" class="st0_12x human" d="M199.7,254.4h-12h-0.6h-1.5v1.8c0.6,0.1,2.1,0.3,2.1,0.3l0,0l11.9,0.2v-0.1l0,0
		v-1.5v-0.7L199.7,254.4L199.7,254.4z"/>
</g>
<g>
	<path id="Lumbar_Spine_04" class="st0_12x human" d="M185.6,269.9h14c0-7.1,0-12.6,0-13.2l0,0l0,0l-11.9-0.2l-2.1-0.3V269.9z"/>
	<path id="Lumbar_Spine_03" class="st0_12x human" d="M199.7,269.9h-14v15.5h14C199.6,280,199.7,274.6,199.7,269.9z"/>
	<path id="Lumbar_Spine_02" class="st0_12x human" d="M185.6,300.9h14c-0.1-4.3,0.1-9.8,0-15.5h-14V300.9z"/>
	<path id="Lumbar_Spine_01" class="st0_12x human" d="M186.4,300.9h-0.8v5v0.7c0.1,0.2,0.2,0.5,0.3,0.7c0-0.1,0-0.2,0-0.3
		c0.1-0.3,0.1-0.5,0.3-0.7l0.1-0.1c1.3-0.7,12.5-0.1,13.3,0.1v-5.4L186.4,300.9L186.4,300.9z"/>
</g>
<g>
	<path id="Sacral_Spine_03" class="st0_12x human" d="M199.5,306.2c-0.9-0.2-11.9-0.7-13.2-0.1l0,0c0,0-0.1,0-0.1,0.1
		c-0.1,0.2-0.2,0.4-0.3,0.7c0,0.1,0,0.2,0,0.3c-0.1,0.9,0.2,2.4,0.9,4.5c0.2,0.7,0.7,2.4,1.3,4.7h0.4h9.6h0.6
		c0.5-2.6,0.9-4.5,1.1-5.1c0-0.1,0.2-1.2,0.2-2C200.1,308.6,200,306.3,199.5,306.2z"/>
	<path id="Sacral_Spine_02" class="st0_12x human" d="M198.2,316.3h-9.6h-0.5c1.1,4.1,2.5,10,3.7,15.5h0.3h3h0.7c1-5.3,2.2-11.3,3.1-15.5
		H198.2z"/>
	<path id="Sacral_Spine_01" class="st0_12x human" d="M195.1,331.8h-3h-0.3c1,4.5,1.7,8.7,1.9,11v-0.1c0-0.2,0.1-0.4,0.1-0.6
		c0.4-2.2,1.1-6.1,1.9-10.4h-0.6V331.8z"/>
</g>
<g>
	<path id="Right_Posterior_cervical_04" class="st0_12x human" d="M199.8,99.5h9.2c0.1-2.6,0.3-5.5,0.6-8.5c-0.2,0.1-4.6,0.2-9.8,0.2V99.5
		z"/>
	<path id="Right_Posterior_cervical_03" class="st0_12x human" d="M208.9,99.6h-9.2v15.5H213c-2-1.4-3.4-2.4-3.4-2.4
		C209,110,208.8,105.3,208.9,99.6z"/>
	<path id="Right_Posterior_cervical_02" class="st0_12x human" d="M224.6,122.8c0.2,0.1,0.5,0.2,0.7,0.3c-3.7-2.2-7.9-5.1-10.9-7.1
		l0.1,5.1c1.7-0.1,3.5,0,5.6,0.4h0.1c0.1,0,0.1,0,0.2,0C222.2,121.9,223.7,122.4,224.6,122.8z"/>
	<path id="Right_Posterior_cervical_01" class="st0_12x human" d="M214.4,116c-0.5-0.3-1-0.6-1.4-0.9h-13.3l-0.1,13.8
		c1.2-1.6,3-3.3,4.4-4.3c2.6-2,6.1-3.4,10.5-3.5L214.4,116z"/>
</g>
<g>
	<path id="Right_Scapular_Region_19" class="st0_12x human" d="M228.6,124.6v6h6.2C233,128.1,231,126,228.6,124.6z"/>
	<path id="Right_Scapular_Region_18" class="st0_12x human" d="M226.3,123.4c-0.2-0.1-0.3-0.1-0.5-0.2s-0.4-0.1-0.6-0.2l0,0
		c0,0-0.3-0.1-0.8-0.3c-1.4-0.5-2.8-0.9-4.1-1.2c-0.1,0-0.1,0-0.2,0H220c-1.6-0.4-3.4-0.5-5.5-0.4l-0.1,9.5h14.2v-6
		c-0.5-0.3-1-0.6-1.6-0.9C226.8,123.6,226.5,123.4,226.3,123.4z"/>
	<path id="Right_Scapular_Region_17" class="st0_12x human" d="M214.4,130.6l0.1-9.5c-3.4,0.1-7.1,0.9-10.5,3.5c-1.5,1.2-3.3,2.9-4.4,4.3
		v1.7H214.4L214.4,130.6z"/>
	<path id="Right_Scapular_Region_16" class="st0_12x human" d="M228.6,146.1H242c-1.5-4.8-3.8-10.8-7.2-15.5h-6.2V146.1z"/>
	<rect id="Right_Scapular_Region_15" x="214.4" y="130.6" class="st0_12x human" width="14.2" height="15.5"/>
	<polygon id="Right_Scapular_Region_14" class="st0_12x human" points="214.4,146.1 214.4,130.6 199.6,130.6 199.6,146.1 	"/>
	<path id="Right_Scapular_Region_13" class="st0_12x human" d="M242.9,161.5h2.4c-0.4-3.8-0.8-6.4-0.9-7.1l-0.1-0.1
		c-0.2-0.6-0.6-2.5-1.4-5.2V161.5z"/>
	<path id="Right_Scapular_Region_12" class="st0_12x human" d="M242.9,161.5v-12.4c-0.3-0.9-0.6-2.1-0.9-3.1h-13.4v15.5H242.9z"/>
	<rect id="Right_Scapular_Region_11" x="214.4" y="146.1" class="st0_12x human" width="14.2" height="15.5"/>
	<polygon id="Right_Scapular_Region_10" class="st0_12x human" points="214.4,161.6 199.6,161.5 199.6,146.1 214.4,146.1 	"/>
	<path id="Right_Scapular_Region_09" class="st0_12x human" d="M242.9,177h3.7c-0.3-6-0.9-11.4-1.3-15.5h-2.4V177z"/>
	<rect id="Right_Scapular_Region_08" x="228.7" y="161.5" class="st0_12x human" width="14.2" height="15.5"/>
	<rect id="Right_Scapular_Region_07" x="214.4" y="161.5" class="st0_12x human" width="14.2" height="15.5"/>
	<rect id="Right_Scapular_Region_06" x="199.6" y="161.5" class="st0_12x human" width="14.8" height="15.5"/>
	<path id="Right_Scapular_Region_05" class="st0_12x human" d="M246.6,177h-3.7v8.2v0.2l4-0.8l0,0C246.8,182.1,246.7,179.5,246.6,177
		L246.6,177z"/>
	<polygon id="Right_Scapular_Region_04" class="st0_12x human" points="228.6,177 228.6,188 228.6,188.2 242.9,185.4 242.9,185.3 
		242.9,177 	"/>
	<polygon id="Right_Scapular_Region_03" class="st0_12x human" points="214.4,177 214.4,190.8 214.4,191 228.6,188.2 228.6,188 228.6,177 
			"/>
	<polygon id="Right_Scapular_Region_02" class="st0_12x human" points="199.6,177 199.6,192.5 206.2,192.5 207,192.5 214.4,191 
		214.4,190.8 214.4,177 	"/>
	<polygon id="Right_Scapular_Region_01" class="st0_12x human" points="199.6,192.5 199.7,194.1 207,192.5 206.2,192.5 	"/>
</g>
<g>
	<path id="Right_Posterior_Acromial_14" class="st0_12x human" d="M242.8,127.9v2.7l7.7,0C246.9,128.9,245.3,128.7,242.8,127.9z"/>
	<path id="Right_Posterior_Acromial_13" class="st0_12x human" d="M228.7,123.7v0.8v0.1c2.4,1.4,4.4,3.5,6.2,6h0.4h7.6v-2.7
		c-2.3-0.7-3.8-1.1-3.8-1.1S232.9,124.5,228.7,123.7z"/>
	<path id="Right_Posterior_Acromial_12" class="st0_12x human" d="M242.9,130.6l-0.1,15.5h14.3l0-12.1c-1.7-0.9-4.9-2.7-6.5-3.4
		L242.9,130.6L242.9,130.6z"/>
	<path id="Right_Posterior_Acromial_11" class="st0_12x human" d="M234.8,130.6c3.4,4.8,5.7,10.6,7.2,15.4l0.8,0.1v-15.5h-7.6H234.8z"/>
	<path id="Right_Posterior_Acromial_10" class="st0_12x human" d="M257.1,146.1h-14.3l0.1,3c0.8,2.7,1.2,4.7,1.4,5.4l3.1,2.8
		c1.2,1.2,2.7,2.6,4.4,4.3h5.3L257.1,146.1L257.1,146.1z"/>
	<path id="Right_Posterior_Acromial_09" class="st0_12x human" d="M257.1,166.7v-5.2h-5.3C253.4,163.1,255.2,164.9,257.1,166.7z"/>
	<path id="Right_Posterior_Acromial_08" class="st0_12x human" d="M257.1,134l0,12.1l13.4-0.1C267.6,140.5,262.8,137.2,257.1,134z"/>
	<path id="Right_Posterior_Acromial_07" class="st0_12x human" d="M271.3,161.6h3.9c-0.6-4.2-1.4-8.5-2.6-12.3c-0.4-1.1-1.5-2.3-2-3.3
		L271.3,161.6z"/>
	<path id="Right_Posterior_Acromial_06" class="st0_12x human" d="M271.3,161.5l-0.7-15.5c0-0.1-0.1,0.1-0.1,0l-13.4,0.1l0,15.4H271.3z"/>
	<path id="Right_Posterior_Acromial_05" class="st0_12x human" d="M271.4,161.5V177h5.1c-0.2-4.4-0.5-9.9-1.3-15.5H271.4L271.4,161.5z"/>
	<path id="Right_Posterior_Acromial_04" class="st0_12x human" d="M267.6,177h3.7v-15.5h-14.2v5.2c0.3,0.3,0.6,0.6,0.9,0.9L267.6,177z"/>
	<path id="Right_Posterior_Acromial_03" class="st0_12x human" d="M271.3,177l-0.1,3.7l5.5,5.3c0.1-1-0.2-4.5-0.3-9H271.3L271.3,177z"/>
	<polygon id="Right_Posterior_Acromial_02" class="st0_12x human" points="267.6,177 271.3,180.6 271.3,177 	"/>
	<path id="Right_Posterior_Acromial_01" class="st0_12x human" d="M242,146c0.3,1,0.6,2.2,0.9,3.1l-0.1-1.9v-1.1L242,146z"/>
</g>
<g>
	<path id="Right_Thoracic_19" class="st0_12x human" d="M242.8,185.5v7h4c0-2.6,0-5.2,0-7.8L242.8,185.5z"/>
	<polygon id="Right_Thoracic_18" class="st0_12x human" points="228.6,192.5 242.9,192.5 242.9,185.4 228.6,188.2 	"/>
	<polygon id="Right_Thoracic_17" class="st0_12x human" points="214.4,192.5 228.6,192.5 228.6,188.2 214.4,191 	"/>
	<polygon id="Right_Thoracic_16" class="st0_12x human" points="214.4,191 207,192.5 214.4,192.5 	"/>
	<path id="Right_Thoracic_15" class="st0_12x human" d="M245.5,208c0-0.2,0.1-0.5,0.1-0.8s0.2-2.7,0.4-4c0.4-3.2,0.6-6.2,0.8-8.9
		c0.1-0.6,0.1-1.2,0.1-1.8h-4V208H245.5z"/>
	<rect id="Right_Thoracic_14" x="228.7" y="192.5" class="st0_12x human" width="14.2" height="15.5"/>
	<rect id="Right_Thoracic_13" x="214.4" y="192.5" class="st0_12x human" width="14.2" height="15.5"/>
	<polygon id="Right_Thoracic_12" class="st0_12x human" points="199.7,208 214.4,208 214.4,192.5 207,192.5 199.7,194.2 	"/>
	<path id="Right_Thoracic_11" class="st0_12x human" d="M242.9,223.5h0.6c0.7-5.1,1.4-10.4,2-15.5h-2.6V223.5z"/>
	<rect id="Right_Thoracic_10" x="228.7" y="208" class="st0_12x human" width="14.2" height="15.5"/>
	<rect id="Right_Thoracic_09" x="214.4" y="208" class="st0_12x human" width="14.2" height="15.5"/>
	<rect id="Right_Thoracic_08" x="199.7" y="208" class="st0_12x human" width="14.7" height="15.5"/>
	<path id="Right_Thoracic_07" class="st0_12x human" d="M241.2,238.9c0.5-3.3,1-7.1,1.6-11.2v-4.3h-14.2v15.5H241.2z"/>
	<rect id="Right_Thoracic_06" x="214.4" y="223.5" class="st0_12x human" width="14.2" height="15.5"/>
	<rect id="Right_Thoracic_05" x="199.7" y="223.5" class="st0_12x human" width="14.7" height="15.4"/>
	<path id="Right_Thoracic_04" class="st0_12x human" d="M228.6,238.9v12.5v0.1c5.5-0.8,9.9-1.5,11.3-1.6h0.1c0-1.4,0.5-5.5,1.3-11H228.6z"
		/>
	<path id="Right_Thoracic_03" class="st0_12x human" d="M228.6,238.9h-14.2v15c1.3-0.2,2.6-0.5,3.9-0.7c3.6-0.5,7.1-1.1,10.3-1.6v-0.1
		V238.9L228.6,238.9z"/>
	<path id="Right_Thoracic_02" class="st0_12x human" d="M211.2,254.4c1-0.1,2.1-0.3,3.2-0.5v-15h-14.7l-0.1,15.5H211.2z"/>
	<path id="Right_Thoracic_01" class="st0_12x human" d="M199.6,256.7c2.3-0.4,7.1-1.4,11.9-2.3h-11.9V256.7z"/>
</g>
<g>
	<path id="Right_Flank_09" class="st0_12x human" d="M242.9,285.4h0.8c-0.3-1.4-0.5-2.8-0.8-4.1V285.4z"/>
	<path id="Right_Flank_08" class="st0_12x human" d="M228.6,285.5h14.2v-4.1c-0.1-0.7-0.3-1.4-0.4-2c-0.7-4.1-1.3-7-1.6-8.6l-0.1-0.3
		c-1.3,1.8-5.5,5.5-8.7,8.2c-1.3,1.1-2.5,2-3.4,2.8v3.9V285.5z"/>
	<path id="Right_Flank_07" class="st0_12x human" d="M226.3,285.4h2.3v-3.9c-0.1,0-0.1,0.1-0.2,0.1c-0.3,0.3-0.6,0.5-0.9,0.7
		c-0.2,0.3-0.3,0.6-0.5,1C226.7,283.9,226.5,284.6,226.3,285.4z"/>
	<path id="Right_Flank_06" class="st0_12x human" d="M242.9,285.4l-0.1,15.5h3.9c-1-5.6-2.1-11-3-15.5H242.9L242.9,285.4z"/>
	<rect id="Right_Flank_05" x="228.7" y="285.4" class="st0_12x human" width="14.2" height="15.5"/>
	<path id="Right_Flank_04" class="st0_12x human" d="M228.6,300.9v-15.4h-2.3c-1,3.8-0.7,9.2,1,14.2c0.2,0.3,0.3,0.7,0.5,1.2L228.6,300.9
		L228.6,300.9z"/>
	<path id="Right_Flank_03" class="st0_12x human" d="M249.1,314c-0.8-4.4-1.6-8.8-2.4-13.1h-3.8v12.9c1,0.2,2.1,0.3,3.2,0.3
		C247.1,314.1,248.1,314,249.1,314z"/>
	<path id="Right_Flank_02" class="st0_12x human" d="M236.3,311.6c1.8,1,4,1.8,6.5,2.2v-12.9h-14.2v1.9
		C230.1,305.7,232.5,309.2,236.3,311.6z"/>
	<path id="Right_Flank_01" class="st0_12x human" d="M227.9,301.2c0.2,0.5,0.4,1,0.7,1.6v-1.9h-0.8C227.8,301,227.9,301.1,227.9,301.2z"/>
</g>
<g>
	<path id="Right_Lumbar_12" class="st0_12x human" d="M228.6,251.6h0.1v2.8h11.4c-0.1-2-0.2-3.7-0.2-4.4
		C238.5,250.1,234.1,250.7,228.6,251.6L228.6,251.6z"/>
	<path id="Right_Lumbar_11" class="st0_12x human" d="M214.4,254.4h14.3v-2.8c-3.2,0.5-6.8,1-10.3,1.6l-4,0.7V254.4z"/>
	<polygon id="Right_Lumbar_10" class="st0_12x human" points="211.5,254.4 214.4,254.4 214.4,253.9 	"/>
	<path id="Right_Lumbar_09" class="st0_12x human" d="M228.6,254.4v15.5h12.1c-0.2-2.2-0.5-10.2-0.7-15.5H228.6L228.6,254.4z"/>
	<rect id="Right_Lumbar_08" x="214.4" y="254.4" class="st0_12x human" width="14.2" height="15.5"/>
	<polygon id="Right_Lumbar_07" class="st0_12x human" points="199.7,269.9 214.4,269.9 214.4,254.4 211.5,254.4 199.6,256.7 	"/>
	<path id="Right_Lumbar_06" class="st0_12x human" d="M228.6,269.9v11.5c0.4-0.3,1.8-1.4,3.4-2.8c3.3-2.8,7.2-6.2,8.7-8.2
		c0-0.1,0-0.3,0-0.5H228.6L228.6,269.9z"/>
	<path id="Right_Lumbar_05" class="st0_12x human" d="M214.4,269.9v15.4h4.9h0.2c0.6-0.3,1.3-0.5,2-0.8l0,0c2.1-0.8,4-1.5,6-2.3
		c0.3-0.2,0.6-0.4,0.9-0.7c0.1,0,0.1,0,0.2-0.1v-11.5H214.4z"/>
	<polygon id="Right_Lumbar_04" class="st0_12x human" points="214.4,285.4 199.6,285.4 199.7,269.9 214.4,269.9 	"/>
	<path id="Right_Lumbar_03" class="st0_12x human" d="M214.4,285.4v2.2l0,0c1.6-0.8,3.3-1.5,5.1-2.2h-0.2H214.4z"/>
	<path id="Right_Lumbar_02" class="st0_12x human" d="M214.4,285.4h-14.8v15.5h2.7h0.5c2.9-5.6,5.4-8.9,8.2-11.1c0.3-0.2,0.5-0.4,0.8-0.6
		c0.2,0,0.3-0.1,0.4-0.2c0.1-0.1,0.3-0.2,0.4-0.3s0.2-0.1,0.3-0.2c0.5-0.3,1-0.6,1.5-0.9L214.4,285.4L214.4,285.4z"/>
	<path id="Right_Lumbar_01" class="st0_12x human" d="M199.6,300.9v5.3l0.6,0.3c0.9-2.1,1.8-3.9,2.6-5.6L199.6,300.9L199.6,300.9z"/>
</g>
<g>
	<path id="Right_Posterior_Upper_Arm_19" class="st0_12x human" d="M244.4,154.4c0.1,0.7,0.5,3.3,0.9,7.1h0.5h6l-4.4-4.3
		c-1.3-1.2-2.2-2.1-2.7-2.5C244.6,154.6,244.5,154.5,244.4,154.4z"/>
	<path id="Right_Posterior_Upper_Arm_18" class="st0_12x human" d="M245.3,161.5c0.5,4.1,1,9.5,1.3,15.5h0.6h9.9v-10.3l-5.3-5.2h-6H245.3z
		"/>
	<path id="Right_Posterior_Upper_Arm_17" class="st0_12x human" d="M246.9,184.7c0.1,2,0.1,4.7,0,7.9h10.2V177h-9.9h-0.6
		C246.7,179.4,246.8,182.1,246.9,184.7C246.8,184.7,246.9,184.7,246.9,184.7L246.9,184.7z"/>
	<path id="Right_Posterior_Upper_Arm_16" class="st0_12x human" d="M246,207.9h11.1v-15.5h-10.2c0,0.6-0.1,1.2-0.1,1.8
		c-0.2,3.1-0.4,6.1-0.8,8.9c-0.1,1.3-0.2,2.6-0.4,4C245.7,207.4,245.8,207.7,246,207.9z"/>
	<path id="Right_Posterior_Upper_Arm_15" class="st0_12x human" d="M252.2,223.5h4.9V208H246C247.9,212,250.1,217.6,252.2,223.5z"/>
	<path id="Right_Posterior_Upper_Arm_14" class="st0_12x human" d="M252.2,223.5c1.8,5,3.5,10.1,4.9,14.5v-14.5H252.2z"/>
	<polygon id="Right_Posterior_Upper_Arm_13" class="st0_12x human" points="257.1,166.7 257.1,177 267.5,177 267.6,177 258,167.6 	"/>
	<path id="Right_Posterior_Upper_Arm_12" class="st0_12x human" d="M271.4,180.6v0.2v11.7h7.2c-1.1-4-1.8-6.5-1.8-6.5l-0.3-0.3
		L271.4,180.6z"/>
	<polygon id="Right_Posterior_Upper_Arm_11" class="st0_12x human" points="257.1,177 257.1,192.5 271.3,192.5 271.3,180.8 271.3,180.6 
		267.6,177 267.5,177 	"/>
	<path id="Right_Posterior_Upper_Arm_10" class="st0_12x human" d="M271.3,192.5V208h11.3c-1.5-5.9-3-11.5-4.1-15.5H271.3z"/>
	<rect id="Right_Posterior_Upper_Arm_09" x="257.1" y="192.5" class="st0_12x human" width="14.2" height="15.5"/>
	<path id="Right_Posterior_Upper_Arm_08" class="st0_12x human" d="M285.5,223.5v-4.2c-0.9-3.7-1.9-7.6-2.9-11.3h-11.3v15.5H285.5z"/>
	<rect id="Right_Posterior_Upper_Arm_07" x="257.1" y="208" class="st0_12x human" width="14.2" height="15.5"/>
	<path id="Right_Posterior_Upper_Arm_06" class="st0_12x human" d="M285.6,239h4.7c-0.5-3-1.9-8.8-3.6-15.5h-1.1V239z"/>
	<rect id="Right_Posterior_Upper_Arm_05" x="271.4" y="223.5" class="st0_12x human" width="14.2" height="15.5"/>
	<path id="Right_Posterior_Upper_Arm_04" class="st0_12x human" d="M271.3,238.9v-15.4h-14.2V238c0.1,0.3,0.2,0.6,0.3,0.9H271.3z"/>
	<path id="Right_Posterior_Upper_Arm_03" class="st0_12x human" d="M290.2,239h-4.6v1v0.4c1.5,0.1,3.9,0.3,5.6,0.7c0.2,0-0.5-0.9-1-2.2
		V239z"/>
	<path id="Right_Posterior_Upper_Arm_02" class="st0_12x human" d="M271.4,238.9v2.5v1c3.7-1.5,8.5-2.5,14.2-2.1v-0.4v-1H271.4z"/>
	<path id="Right_Posterior_Upper_Arm_01" class="st0_12x human" d="M257.4,238.9c2,6.3,3.4,10.9,3.4,10.9s3.5-4.6,10.5-7.4v-1v-2.5H257.4z
		"/>
</g>
<g>
	<path id="Right_Elbow_Joint_06" class="st0_12x human" d="M294,254.4c0.6-0.7,1.6-2.7,2.1-3.2c0,0-4.4-8.3-4.9-10.1
		c-1.6-0.4-4.1-0.6-5.6-0.7v14H294z"/>
	<path id="Right_Elbow_Joint_05" class="st0_12x human" d="M271.3,254.4h14.2v-14c-5.7-0.4-10.4,0.6-14.2,2.1V254.4z"/>
	<path id="Right_Elbow_Joint_04" class="st0_12x human" d="M261.3,254.4h10v-11.9c-7,2.8-10.5,7.4-10.5,7.4
		C260.8,251,261.1,252.7,261.3,254.4z"/>
	<path id="Right_Elbow_Joint_03" class="st0_12x human" d="M285.6,262.3c0.3-0.3,0.7-0.5,1-0.7l0,0c0-0.1,0.1-0.1,0.1-0.1
		c3.1-2.2,5.5-4.9,7.3-7.1h-8.4V262.3z"/>
	<path id="Right_Elbow_Joint_02" class="st0_12x human" d="M285.6,254.5h-14.2v10.4v0.2c3.4,0.6,6.6,0.3,9.4-0.6c1.7-0.5,3.3-1.3,4.8-2.2
		v-7.9L285.6,254.5z"/>
	<path id="Right_Elbow_Joint_01" class="st0_12x human" d="M271.3,254.4h-9.9c0.5,3.1,1.2,6.4,1.7,7.4c2.9,1.8,5.6,2.8,8.2,3.3v-0.2
		L271.3,254.4L271.3,254.4z"/>
</g>
<g>
	<path id="Right_Posterior_Fore-arm_18" class="st0_12x human" d="M294,254.4h0.2h2.2c-0.3-0.7,0-2.6-0.3-3.2
		C295.6,251.8,294.6,253.7,294,254.4z"/>
	<path id="Right_Posterior_Fore-arm_17" class="st0_12x human" d="M285.6,262.3v7.6h14.2v-1.8c-1.1-5.7-2.2-10.5-3.4-13.7h-2.2H294
		c-1.8,2.1-4.2,4.9-7.3,7.1l-0.1,0.1l0,0C286.3,261.9,285.9,262.1,285.6,262.3z"/>
	<path id="Right_Posterior_Fore-arm_16" class="st0_12x human" d="M271.3,269.9h14.2v-7.6c-1.4,0.9-3,1.7-4.8,2.2c-2.8,0.9-6,1.2-9.4,0.6
		L271.3,269.9z"/>
	<path id="Right_Posterior_Fore-arm_15" class="st0_12x human" d="M265.4,269.9h5.9v-4.8c-2.5-0.5-5.3-1.5-8.2-3.3
		C263.6,264.1,264.4,266.9,265.4,269.9z"/>
	<path id="Right_Posterior_Fore-arm_14" class="st0_12x human" d="M299.8,269.9l-0.1,15.5h3.2c-1-5.5-1.9-10.8-2.8-15.5H299.8L299.8,269.9
		z"/>
	<rect id="Right_Posterior_Fore-arm_13" x="285.6" y="269.9" class="st0_12x human" width="14.2" height="15.5"/>
	<path id="Right_Posterior_Fore-arm_12" class="st0_12x human" d="M285.6,285.4v-15.5h-14.2v15.2c0,0.1,0.1,0.2,0.1,0.3H285.6z"/>
	<path id="Right_Posterior_Fore-arm_11" class="st0_12x human" d="M265.4,269.9c1.6,4.5,3.6,9.7,5.9,15.1v-15.1H265.4z"/>
	<path id="Right_Posterior_Fore-arm_10" class="st0_12x human" d="M299.8,300.9h6.1c-1-5.1-2-10.4-2.9-15.5h-3.2V300.9z"/>
	<rect id="Right_Posterior_Fore-arm_09" x="285.6" y="285.4" class="st0_12x human" width="14.2" height="15.5"/>
	<path id="Right_Posterior_Fore-arm_08" class="st0_12x human" d="M278.4,300.9h7.2v-15.5h-14.1C273.6,290.5,276,295.7,278.4,300.9z"/>
	<path id="Right_Posterior_Fore-arm_07" class="st0_12x human" d="M299.8,316.4h9.7c-1.3-4.8-2.5-10.1-3.6-15.5h-6.1V316.4z"/>
	<path id="Right_Posterior_Fore-arm_06" class="st0_12x human" d="M285.6,316.3l14.2,0.1v-15.5h-14.2V316.3L285.6,316.3z"/>
	<path id="Right_Posterior_Fore-arm_05" class="st0_12x human" d="M278.4,300.9c2.5,5.4,5,10.7,7.2,15.4v-15.4H278.4z"/>
	<path id="Right_Posterior_Fore-arm_04" class="st0_12x human" d="M299.8,331.3c7.1-2.3,11.8-3.8,13.4-4.2c-1.4-3.1-2.6-6.8-3.7-10.8h-9.7
		L299.8,331.3z"/>
	<path id="Right_Posterior_Fore-arm_03" class="st0_12x human" d="M285.5,316.3c3.1,6.5,5.6,12,7,15.5h5.8l1.5-0.5v-15H285.5z"/>
	<path id="Right_Posterior_Fore-arm_02" class="st0_12x human" d="M292.6,331.8c0.2,0.7,0.7,1.8,0.7,1.8l5-1.8H292.6z"/>
	<path id="Right_Posterior_Fore-arm_01" class="st0_12x human" d="M299.8,269.9h0.3c-0.1-0.6-0.2-1.2-0.3-1.8V269.9z"/>
</g>
<g>
	<path id="Right_Posterior_Wrist_05" class="st0_12x human" d="M299.8,331.3L299.8,331.3l14.2,0.5v-3.3c-0.4-0.5-0.6-1-0.9-1.4
		c0.1,0,0.1,0,0,0C311.5,327.5,306.9,329,299.8,331.3z"/>
	<path id="Right_Posterior_Wrist_04" class="st0_12x human" d="M299.8,331.3v12.5c3.7-1.2,9.5-3,14.2-4.5v-7.5L299.8,331.3z"/>
	<path id="Right_Posterior_Wrist_03" class="st0_12x human" d="M298.3,331.7c-1.5,0.6-3.2,1.1-5,1.8c1.3,3.8,2.8,11.5,2.8,11.5
		s1.5-0.6,3.7-1.3v-12.4L298.3,331.7z"/>
	<path id="Right_Posterior_Wrist_02" class="st0_12x human" d="M314,331.8h2.7c-1-1.1-2-2.2-2.7-3.3V331.8z"/>
	<path id="Right_Posterior_Wrist_01" class="st0_12x human" d="M314,339.3c3.8-1.2,7-2.3,7.8-2.7c-0.6-0.5-3-2.6-5.1-4.8H314L314,339.3z"
		/>
</g>
<g>
	<path id="Right_Gluteal_26" class="st0_12x human" d="M219.4,285.4h6.7h0.2c0.2-0.8,0.4-1.5,0.7-2.1c0.1-0.3,0.3-0.7,0.5-1
		c-2.2,0.9-4.2,1.6-6,2.3l0,0l0,0C220.8,284.9,220.1,285.1,219.4,285.4z"/>
	<path id="Right_Gluteal_25" class="st0_12x human" d="M214.5,287.6v13.3h13.4c-0.2-0.4-0.3-0.8-0.4-1.1c-0.1-0.1-0.1-0.1-0.1-0.2
		c-1.7-5-2-10.3-1-14.2h-0.2h-6.7C217.7,286.1,216,286.7,214.5,287.6z"/>
	<path id="Right_Gluteal_24" class="st0_12x human" d="M202.8,300.9h11.7v-13.4c-0.5,0.3-1,0.6-1.5,0.9c-0.1,0.1-0.2,0.1-0.3,0.2
		s-0.3,0.2-0.4,0.3c-0.2,0-0.3,0.1-0.4,0.2C208.7,291.4,205.8,294.7,202.8,300.9z"/>
	<path id="Right_Gluteal_23" class="st0_12x human" d="M197.7,316.3h2.5v-9.8c-0.1,0.2-0.2,0.5-0.3,0.7c0.1,1-0.2,2.4-0.9,4.5
		C198.7,312.3,198.3,314,197.7,316.3z"/>
	<path id="Right_Gluteal_22" class="st0_12x human" d="M194,331.8h6.2v-15.5h-2.5C196.6,320.4,195.1,326.4,194,331.8z"/>
	<path id="Right_Gluteal_21" class="st0_12x human" d="M192,347.4h8.1v-15.5h-6.2c-1,4.5-1.7,8.6-1.9,11v-0.1c0,0.2,0,0.3,0,0.5
		c0.1,1.4,0.1,2.6,0,3.7C192,347.1,192.1,347.2,192,347.4z"/>
	<path id="Right_Gluteal_20" class="st0_12x human" d="M197,354.6c0.6,0.4,1.7,1.2,3.2,2.1v-9.4h-8.1c0,0.3,0.6,0.4,0.7,0.7
		C194.1,350.4,195.3,352.4,197,354.6z"/>
	<path id="Right_Gluteal_19" class="st0_12x human" d="M242.9,316.4h6.7c-0.3-1.5-0.5-2.4-0.5-2.4c-1,0.1-2,0.1-3,0.1c-0.1,0-0.3,0-0.4,0
		c-1,0-1.9-0.1-2.8-0.2V316.4z"/>
	<path id="Right_Gluteal_18" class="st0_12x human" d="M228.7,302.8v0.1v13.5h14.2v-2.5c-2.5-0.4-4.7-1.2-6.5-2.3
		C232.5,309.2,230.1,305.7,228.7,302.8z"/>
	<path id="Right_Gluteal_17" class="st0_12x human" d="M214.4,316.4h14.2v-13.5c-0.3-0.6-0.5-1.2-0.7-1.7c0-0.1-0.1-0.2-0.1-0.3h-13.4
		V316.4z"/>
	<path id="Right_Gluteal_16" class="st0_12x human" d="M200.2,306.5v9.9h14.2v-15.5h-11.6C202,302.5,201.1,304.4,200.2,306.5L200.2,306.5z
		"/>
	<path id="Right_Gluteal_15" class="st0_12x human" d="M242.9,316.3l0.1,15.5h9.6c-1.1-5.6-2.3-12.1-3-15.5H242.9L242.9,316.3z"/>
	<rect id="Right_Gluteal_14" x="228.7" y="316.3" class="st0_12x human" width="14.2" height="15.5"/>
	<rect id="Right_Gluteal_13" x="214.4" y="316.3" class="st0_12x human" width="14.2" height="15.5"/>
	<rect id="Right_Gluteal_12" x="200.2" y="316.3" class="st0_12x human" width="14.2" height="15.5"/>
	<path id="Right_Gluteal_11" class="st0_12x human" d="M250,347.3c2-3.5,3.2-6.6,3.9-7.9c-0.3-1.9-0.8-4.6-1.4-7.6h-9.6v15.5H250z"/>
	<rect id="Right_Gluteal_10" x="228.7" y="331.8" class="st0_12x human" width="14.2" height="15.5"/>
	<rect id="Right_Gluteal_09" x="214.4" y="331.8" class="st0_12x human" width="14.2" height="15.5"/>
	<rect id="Right_Gluteal_08" x="200.2" y="331.8" class="st0_12x human" width="14.2" height="15.5"/>
	<path id="Right_Gluteal_07" class="st0_12x human" d="M242.8,347.3v8.7c3.2-2.8,5.4-5.9,7.1-8.7H242.8z"/>
	<path id="Right_Gluteal_06" class="st0_12x human" d="M228.6,362.8h1.8c5.2-1.5,9.2-4,12.4-6.8v-8.7h-14.2V362.8z"/>
	<rect id="Right_Gluteal_05" x="214.4" y="347.3" class="st0_12x human" width="14.2" height="15.5"/>
	<path id="Right_Gluteal_04" class="st0_12x human" d="M200.2,356.7c3.1,1.9,8,4.6,13.5,6.1h0.7v-15.5h-14.2V356.7z"/>
	<path id="Right_Gluteal_03" class="st0_12x human" d="M228.6,363.2c0.6-0.1,1.2-0.2,1.8-0.4h-1.8V363.2z"/>
	<path id="Right_Gluteal_02" class="st0_12x human" d="M214.3,362.8v0.2c3.6,0.9,7.4,1.3,11.1,0.8c1.1-0.2,2.2-0.4,3.2-0.6v-0.4H214.3z"/>
	<path id="Right_Gluteal_01" class="st0_12x human" d="M213.7,362.8c0.2,0.1,0.5,0.1,0.7,0.2v-0.2H213.7z"/>
</g>
<g>
	<path id="Right_Posterior_Palm_12" class="st0_12x human" d="M299.8,343.8v0.9v2.6H314v-7v-1C309.3,340.8,303.5,342.6,299.8,343.8z"/>
	<path id="Right_Posterior_Palm_11" class="st0_12x human" d="M295.8,347.3h3.9v-2.6v-0.9c-2.2,0.7-3.7,1.2-3.7,1.3s0,0.3,0,0.4
		C295.9,346,295.9,346.6,295.8,347.3z"/>
	<rect id="Right_Posterior_Palm_10" x="299.8" y="347.3" class="st0_12x human" width="14.2" height="15.5"/>
	<path id="Right_Posterior_Palm_09" class="st0_12x human" d="M297.8,362.8h2v-15.5h-3.9C295.8,351.5,296.7,357.4,297.8,362.8z"/>
	<path id="Right_Posterior_Palm_08" class="st0_12x human" d="M328.2,347.3h0.5c-0.3-1.8-0.5-4.7,1.3-6.2c-0.2-0.2-0.9-0.7-1.8-1.2V347.3z
		"/>
	<path id="Right_Posterior_Palm_07" class="st0_12x human" d="M314,339.3v1v7h14.2v-7.4c-2.4-1.6-5.8-3.1-6.4-3.3
		C321,337,317.9,338,314,339.3z"/>
	<path id="Right_Posterior_Palm_06" class="st0_12x human" d="M328.2,362.8h4.5c-0.6-2.3-1.3-4.5-1.6-5.6c-0.3-1-0.4-5.3-0.4-5.3
		s-0.9,0.1-2-4.6h-0.5V362.8z"/>
	<rect id="Right_Posterior_Palm_05" x="314" y="347.3" class="st0_12x human" width="14.2" height="15.5"/>
	<path id="Right_Posterior_Palm_04" class="st0_12x human" d="M314,376.4v-13.7h-14.3v8.5c0.9,3.2,1.7,5.4,2,5.6
		C301.9,376.9,307.2,377.2,314,376.4z"/>
	<path id="Right_Posterior_Palm_03" class="st0_12x human" d="M297.8,362.8c0.6,3.2,1.3,6.1,2,8.5v-8.5H297.8z"/>
	<path id="Right_Posterior_Palm_02" class="st0_12x human" d="M328.3,362.8v10.6c2.2-0.8,4.2-1.7,6.1-2.9c0.2-0.8-0.7-4.3-1.6-7.7H328.3z"
		/>
	<path id="Right_Posterior_Palm_01" class="st0_12x human" d="M314,376.5c4.4-0.5,9.5-1.4,14.2-3.1v-10.6H314V376.5z"/>
</g>
<g>
	<path id="Right_Posterior_Thigh_47" class="st0_12x human" d="M196.6,354.2c0,0,0.5,3.3,1.2,8.5h2.4v-5.5v-0.6c-1.6-0.9-2.7-1.7-3.2-2.1
		C196.7,354.3,196.6,354.2,196.6,354.2z"/>
	<path id="Right_Posterior_Thigh_46" class="st0_12x human" d="M250,347.3h0.7h5.1c-0.6-2.8-1.2-5.5-1.9-7.9
		C253.2,340.7,252,343.8,250,347.3z"/>
	<path id="Right_Posterior_Thigh_45" class="st0_12x human" d="M242.9,356.1v1v5.7h14.2v-7.9c-0.4-2.7-0.8-5.2-1.3-7.6h-5.1h-0.8
		C248.3,350.1,246,353.2,242.9,356.1z"/>
	<path id="Right_Posterior_Thigh_44" class="st0_12x human" d="M230.5,362.7h2.5h9.9V357v-1C239.7,358.9,235.6,361.3,230.5,362.7z"/>
	<path id="Right_Posterior_Thigh_43" class="st0_12x human" d="M200.1,356.7v0.6v5.5h11.1h2.5C208.2,361.2,203.3,358.6,200.1,356.7z"/>
	<path id="Right_Posterior_Thigh_42" class="st0_12x human" d="M257.1,362.8h1c-0.3-2.7-0.6-5.4-1-7.9V362.8z"/>
	<path id="Right_Posterior_Thigh_41" class="st0_12x human" d="M199.9,378.3h0.3v-15.5h-2.4C198.4,367,199.1,372.4,199.9,378.3z"/>
	<rect id="Right_Posterior_Thigh_40" x="242.9" y="362.8" class="st0_12x human" width="14.2" height="15.5"/>
	<path id="Right_Posterior_Thigh_39" class="st0_12x human" d="M228.6,363.2v0.7v14.4h14.2v-15.5h-9.9h-2.5
		C229.8,362.9,229.2,363.1,228.6,363.2z"/>
	<path id="Right_Posterior_Thigh_38" class="st0_12x human" d="M214.5,362.9v0.6v14.7h14.2v-14.3v-0.7c-1.1,0.3-2.1,0.5-3.2,0.6
		C221.7,364.3,218,363.9,214.5,362.9z"/>
	<path id="Right_Posterior_Thigh_37" class="st0_12x human" d="M211.2,362.8h-11v15.5h14.2v-14.7V363c-0.2-0.1-0.5-0.1-0.7-0.2
		L211.2,362.8L211.2,362.8z"/>
	<rect id="Right_Posterior_Thigh_36" x="242.9" y="378.3" class="st0_12x human" width="14.2" height="15.5"/>
	<rect id="Right_Posterior_Thigh_35" x="228.7" y="378.3" class="st0_12x human" width="14.2" height="15.5"/>
	<rect id="Right_Posterior_Thigh_34" x="214.4" y="378.3" class="st0_12x human" width="14.2" height="15.5"/>
	<path id="Right_Posterior_Thigh_33" class="st0_12x human" d="M201.9,393.8h12.5v-15.5h-14.2v2C200.8,384.7,201.4,389.3,201.9,393.8z"/>
	<rect id="Right_Posterior_Thigh_32" x="242.9" y="393.7" class="st0_12x human" width="14.2" height="15.5"/>
	<rect id="Right_Posterior_Thigh_31" x="228.7" y="393.7" class="st0_12x human" width="14.2" height="15.5"/>
	<rect id="Right_Posterior_Thigh_30" x="214.4" y="393.7" class="st0_12x human" width="14.2" height="15.5"/>
	<path id="Right_Posterior_Thigh_29" class="st0_12x human" d="M203.9,409.2h10.5v-15.5h-12.5C202.6,399.3,203.3,404.6,203.9,409.2z"/>
	<rect id="Right_Posterior_Thigh_28" x="242.9" y="409.2" class="st0_12x human" width="14.2" height="15.5"/>
	<rect id="Right_Posterior_Thigh_27" x="228.7" y="409.2" class="st0_12x human" width="14.2" height="15.5"/>
	<rect id="Right_Posterior_Thigh_26" x="214.4" y="409.2" class="st0_12x human" width="14.2" height="15.5"/>
	<path id="Right_Posterior_Thigh_25" class="st0_12x human" d="M205.4,424.7h9v-15.5h-10.5c0.4,3.6,0.8,6.8,1,9.2
		C205.1,420.3,205.2,422.4,205.4,424.7z"/>
	<rect id="Right_Posterior_Thigh_24" x="242.9" y="424.7" class="st0_12x human" width="14.2" height="15.5"/>
	<rect id="Right_Posterior_Thigh_23" x="228.7" y="424.7" class="st0_12x human" width="14.2" height="15.5"/>
	<rect id="Right_Posterior_Thigh_22" x="214.4" y="424.7" class="st0_12x human" width="14.2" height="15.5"/>
	<path id="Right_Posterior_Thigh_21" class="st0_12x human" d="M206.1,440.2h8.3v-15.5h-9C205.7,429.3,205.9,434.5,206.1,440.2z"/>
	<path id="Right_Posterior_Thigh_20" class="st0_12x human" d="M256.4,455.7c0.3-2,0.5-4,0.7-6.1v-9.4h-14.2v15.5H256.4z"/>
	<rect id="Right_Posterior_Thigh_19" x="228.7" y="440.2" class="st0_12x human" width="14.2" height="15.5"/>
	<rect id="Right_Posterior_Thigh_18" x="214.4" y="440.2" class="st0_12x human" width="14.2" height="15.5"/>
	<path id="Right_Posterior_Thigh_17" class="st0_12x human" d="M206.9,455.7h7.5v-15.5h-8.3C206.3,445.1,206.6,450.4,206.9,455.7z"/>
	<path id="Right_Posterior_Thigh_16" class="st0_12x human" d="M242.9,455.7v15.5h11.4c0.8-4.8,1.6-10,2.2-15.5H242.9L242.9,455.7z"/>
	<rect id="Right_Posterior_Thigh_15" x="228.7" y="455.7" class="st0_12x human" width="14.2" height="15.5"/>
	<rect id="Right_Posterior_Thigh_14" x="214.4" y="455.7" class="st0_12x human" width="14.2" height="15.5"/>
	<path id="Right_Posterior_Thigh_13" class="st0_12x human" d="M208.1,471.2h6.3v-15.5h-7.5C207.2,460.8,207.6,466.1,208.1,471.2z"/>
	<path id="Right_Posterior_Thigh_12" class="st0_12x human" d="M254.2,471h-11.4v10c3,0.4,6,1.1,9,2.2c0.9-3.6,1.7-7.7,2.4-12.1V471z"/>
	<path id="Right_Posterior_Thigh_11" class="st0_12x human" d="M241.9,481c0.3,0,0.6,0.1,0.9,0.1v-10h-14.2v11.1c0.8-0.3,1.6-0.4,2.4-0.6
		c0.9-0.1,1.8-0.3,2.7-0.4c1.8-0.2,3.6-0.3,5.5-0.3C240.1,480.9,241,480.9,241.9,481z"/>
	<path id="Right_Posterior_Thigh_10" class="st0_12x human" d="M226.9,482.6c0.6-0.1,1.1-0.3,1.6-0.4v-11.1h-14.2v15.5h3.7
		c0.6-0.3,1.1-0.6,1.7-0.9c1.2-0.6,2.4-1.2,3.6-1.7S225.8,483,226.9,482.6z"/>
	<path id="Right_Posterior_Thigh_09" class="st0_12x human" d="M210.2,486.6h4.2v-15.5h-6.3C208.6,476.6,209.3,481.8,210.2,486.6z"/>
	<path id="Right_Posterior_Thigh_08" class="st0_12x human" d="M257.1,378.3h1.4c-0.3-5.4,0.1-10.6-0.4-15.5h-1V378.3z"/>
	<path id="Right_Posterior_Thigh_07" class="st0_12x human" d="M257.1,378.3l0.1,15.5l1.8,0.1c-0.1-5.3-0.3-10.6-0.6-15.6H257.1
		L257.1,378.3z"/>
	<path id="Right_Posterior_Thigh_06" class="st0_12x human" d="M257.1,409.2h1.9c0.1-5.2,0-10.3-0.1-15.4l-1.8-0.1V409.2z"/>
	<path id="Right_Posterior_Thigh_05" class="st0_12x human" d="M257.1,424.7h1.6c0.3-5.2,0.3-10.3,0.4-15.5h-1.9V424.7z"/>
	<path id="Right_Posterior_Thigh_04" class="st0_12x human" d="M257.1,424.7l-0.1,15.5h0.9c0.5-5.1,0.5-10.3,0.8-15.5H257.1L257.1,424.7z"
		/>
	<path id="Right_Posterior_Thigh_03" class="st0_12x human" d="M257.1,440.2v9.4c0.3-3.1,0.6-6.2,0.9-9.4H257.1z"/>
	<path id="Right_Posterior_Thigh_02" class="st0_12x human" d="M214.4,489c0.3-0.2,0.6-0.4,0.9-0.6c0.7-0.5,1.5-1,2.2-1.4
		c0.2-0.2,0.4-0.3,0.6-0.4h-3.7V489z"/>
	<path id="Right_Posterior_Thigh_01" class="st0_12x human" d="M214.5,489v-2.4h-4.2c0.3,1.7,0.6,3.3,1,4.9
		C212.3,490.6,213.3,489.8,214.5,489z"/>
</g>
<g>
	<path id="Right_Popliteal_Fossa_11" class="st0_12x human" d="M242.8,481.1v5.5h9c0-1,0.1-2.1,0.1-3.3c-3-1.2-6-1.9-9-2.2H242.8z"/>
	<path id="Right_Popliteal_Fossa_10" class="st0_12x human" d="M228.6,486.6h14.3v-5.5c-0.3,0-0.6-0.1-0.9-0.1c-0.9,0-1.9-0.1-2.8-0.1
		c-1.9-0.1-3.7,0.1-5.5,0.3c-0.9,0.1-1.8,0.2-2.7,0.4c-0.8,0.2-1.6,0.4-2.4,0.6L228.6,486.6L228.6,486.6z"/>
	<path id="Right_Popliteal_Fossa_09" class="st0_12x human" d="M218.1,486.6h10.6v-4.4c-0.6,0.1-1.1,0.2-1.6,0.4c-1.3,0.4-2.6,0.9-3.8,1.4
		s-2.4,1.1-3.6,1.7C219.1,486,218.6,486.3,218.1,486.6z"/>
	<path id="Right_Popliteal_Fossa_08" class="st0_12x human" d="M242.9,502.1h10.4c-0.7-4.1-1.4-8.4-1.4-15.5h-9V502.1z"/>
	<rect id="Right_Popliteal_Fossa_07" x="228.7" y="486.6" class="st0_12x human" width="14.2" height="15.5"/>
	<path id="Right_Popliteal_Fossa_06" class="st0_12x human" d="M214.5,489v13.1h14.2v-15.5h-10.6c-0.2,0.2-0.4,0.3-0.6,0.4
		c-0.8,0.4-1.5,0.9-2.2,1.4C215,488.6,214.7,488.8,214.5,489L214.5,489z"/>
	<path id="Right_Popliteal_Fossa_05" class="st0_12x human" d="M213.7,502.1h0.7V489c-1.1,0.8-2.1,1.6-3.1,2.5
		C212.1,495.5,212.9,499,213.7,502.1z"/>
	<path id="Right_Popliteal_Fossa_04" class="st0_12x human" d="M253.3,502.1h-10.4v13.6c5.8-1.7,9.6-5.7,11.3-8.8
		C253.9,505.2,253.6,503.7,253.3,502.1L253.3,502.1z"/>
	<path id="Right_Popliteal_Fossa_03" class="st0_12x human" d="M238.8,516.4c1.4-0.1,2.8-0.3,4-0.7v-13.6h-14.2v14.1
		c2.7,0.3,5.7,0.4,8.8,0.3C237.9,516.4,238.4,516.4,238.8,516.4z"/>
	<path id="Right_Popliteal_Fossa_02" class="st0_12x human" d="M217.1,514.1c0,0,4.8,1.4,11.5,2.1v-14.1h-14.2v2.6
		C216,510.6,217.1,514.1,217.1,514.1z"/>
	<path id="Right_Popliteal_Fossa_01" class="st0_12x human" d="M213.7,502.1c0.3,0.9,0.5,1.8,0.7,2.6v-2.6H213.7z"/>
</g>
<g>
	<path id="Right_Calf_33" class="st0_12x human" d="M242.9,517.6h14.2v-4.1c-0.8-2.7-1.8-4.9-2.9-6.6c-1.7,3.2-5.4,7.1-11.3,8.8V517.6
		L242.9,517.6z"/>
	<path id="Right_Calf_32" class="st0_12x human" d="M228.6,517.5h14.2v-1.9c-1.2,0.3-2.6,0.6-4,0.7c-0.4,0.1-0.9,0.1-1.4,0.1
		c-3.2,0.2-6.2,0.1-8.8-0.1V517.5z"/>
	<path id="Right_Calf_31" class="st0_12x human" d="M218.2,517.6h10.5v-1.3c-6.1-0.5-10.2-1.7-11.5-2.2
		C217.5,515.2,217.8,516.4,218.2,517.6z"/>
	<rect id="Right_Calf_30" x="242.9" y="517.6" class="st0_12x human" width="14.2" height="15.5"/>
	<rect id="Right_Calf_29" x="228.7" y="517.6" class="st0_12x human" width="14.2" height="15.5"/>
	<path id="Right_Calf_28" class="st0_12x human" d="M220.3,533.1h8.3v-15.5h-10.5C219.3,522.6,219.9,527.8,220.3,533.1z"/>
	<rect id="Right_Calf_27" x="242.9" y="533.1" class="st0_12x human" width="14.2" height="15.5"/>
	<rect id="Right_Calf_26" x="228.7" y="533.1" class="st0_12x human" width="14.2" height="15.5"/>
	<path id="Right_Calf_25" class="st0_12x human" d="M228.7,548.5V533h-8.3c0.4,5,0.8,10.2,1.3,15.5H228.7z"/>
	<rect id="Right_Calf_24" x="242.9" y="548.5" class="st0_12x human" width="14.2" height="15.5"/>
	<rect id="Right_Calf_23" x="228.7" y="548.5" class="st0_12x human" width="14.2" height="15.5"/>
	<path id="Right_Calf_22" class="st0_12x human" d="M224.1,564h4.5v-15.5h-6.9C222.2,553.5,222.9,558.6,224.1,564z"/>
	<rect id="Right_Calf_21" x="242.9" y="564" class="st0_12x human" width="14.2" height="15.5"/>
	<rect id="Right_Calf_20" x="228.7" y="564" class="st0_12x human" width="14.2" height="15.5"/>
	<path id="Right_Calf_19" class="st0_12x human" d="M225.8,570.7c0.8,3,1.7,5.9,2.5,8.8h0.3V564h-4.5C224.6,566.2,225.1,568.4,225.8,570.7
		z"/>
	<rect id="Right_Calf_18" x="242.9" y="579.5" class="st0_12x human" width="14.2" height="15.5"/>
	<path id="Right_Calf_17" class="st0_12x human" d="M228.6,580.6c1.4,5.1,2.8,9.9,4,14.4h10.2v-15.5h-14.2V580.6z"/>
	<path id="Right_Calf_16" class="st0_12x human" d="M228.6,579.5h-0.3c0.1,0.4,0.2,0.7,0.3,1.1V579.5z"/>
	<rect id="Right_Calf_15" x="242.9" y="595" class="st0_12x human" width="14.2" height="15.5"/>
	<path id="Right_Calf_14" class="st0_12x human" d="M232.7,595c1.6,5.7,2.9,10.9,4.1,15.5h6.1V595H232.7z"/>
	<path id="Right_Calf_13" class="st0_12x human" d="M257.1,517.5h1.1c-0.3-1.4-0.7-2.8-1.1-4.1V517.5z"/>
	<path id="Right_Calf_12" class="st0_12x human" d="M257.1,533.1h3.4c-0.6-5.8-1.3-11.1-2.3-15.5h-1.1V533.1z"/>
	<path id="Right_Calf_11" class="st0_12x human" d="M257.2,533.1v15.5h4.2c-0.2-5.4-0.5-10.7-0.9-15.5h-3.4H257.2z"/>
	<path id="Right_Calf_10" class="st0_12x human" d="M257.1,564h4.4c0-5.3,0-10.5-0.2-15.5h-4.2V564z"/>
	<path id="Right_Calf_09" class="st0_12x human" d="M257.1,564l-0.1,15.5h4.3c0.1-5.1,0.2-10.3,0.2-15.5H257.1L257.1,564z"/>
	<path id="Right_Calf_08" class="st0_12x human" d="M257.1,595h3.9c0.2-5,0.3-10.2,0.4-15.5h-4.3V595z"/>
	<path id="Right_Calf_07" class="st0_12x human" d="M257,595v15.5h3.6c0.1-4.7,0.3-10,0.4-15.5h-3.9H257z"/>
	<rect id="Right_Calf_06" x="242.9" y="610.5" class="st0_12x human" width="14.2" height="15.5"/>
	<path id="Right_Calf_05" class="st0_12x human" d="M242.9,610.5l-6.2-0.1c1.7,6.4,2.9,11.7,3.7,15.5h2.5V610.5L242.9,610.5z"/>
	<path id="Right_Calf_04" class="st0_12x human" d="M257.1,625.9h-14.2v5.1c3.3-1.1,9-1.3,14.2-0.7V625.9z"/>
	<path id="Right_Calf_03" class="st0_12x human" d="M243,631v-5h-2.5c0.5,2.6,0.8,4.6,0.9,5.7c0.4-0.3,0.9-0.5,1.5-0.7H243z"/>
	<path id="Right_Calf_02" class="st0_12x human" d="M257.1,626h3.7c-0.2-4-0.2-9.3-0.1-15.5h-3.6V626z"/>
	<path id="Right_Calf_01" class="st0_12x human" d="M257.1,630.2c0.4,0.1,0.8,0.1,1.2,0.2c1,0.1,2,0.2,2.9,0.4c-0.2-1.2-0.4-2.9-0.5-4.9
		h-3.6V630.2z"/>
</g>
<g>
	<path id="Right_posterior_ankle_06" class="st0_12x human" d="M242.9,631.1v10.4h14.2v-11.1C251.9,629.9,246.2,629.9,242.9,631.1z"/>
	<path id="Right_posterior_ankle_05" class="st0_12x human" d="M241.4,631.7c0.2,2.5,0.8,6.1,1.4,9.7h0.1V631
		C242.3,631.2,241.8,631.4,241.4,631.7z"/>
	<path id="Right_posterior_ankle_04" class="st0_12x human" d="M257.1,641.4h-14.3v0.6c0.9,5.1,1.8,10.4,2,13.7l0,0
		c0.7-4.7,3.2-8.3,5.9-10.3c0.1-0.1,0.2-0.1,0.3-0.2c0.1-0.1,0.2-0.1,0.3-0.2c0.3-0.1,0.5-0.3,0.8-0.4c0.1,0,0.2-0.1,0.3-0.1
		c0.1-0.1,0.2-0.2,0.3-0.2c0.3-0.1,0.5-0.2,0.8-0.3l0,0l0,0c0.4-0.1,0.8-0.2,1.2-0.2c0.8,0,1.6,0.1,2.4,0.3V641.4L257.1,641.4z"/>
	<path id="Right_posterior_ankle_03" class="st0_12x human" d="M242.9,641.4h-0.1c0,0.2,0.1,0.4,0.1,0.6V641.4z"/>
	<path id="Right_posterior_ankle_02" class="st0_12x human" d="M257.1,641.4h6.6c-0.9-4.3-2-8.6-2.5-10.4c-0.9-0.2-1.9-0.4-2.9-0.5
		c-0.4,0-0.8-0.1-1.2-0.1V641.4z"/>
	<path id="Right_posterior_ankle_01" class="st0_12x human" d="M257.1,644c0.3,0.1,0.5,0.2,0.8,0.3c2,0.7,3.6,2.2,4.8,3.7
		c0.1,0.1,0.1,0.1,0.2,0.2c0.1,0.2,0.2,0.3,0.3,0.5c0.9,1.3,1.7,2.7,2.3,4.4c0.3-1-0.7-6.4-1.8-11.7h-6.6V644z"/>
</g>
<g>
	<path id="Right_Heel_04" class="st0_12x human" d="M244.8,655.7c0,0.4-0.1,0.8-0.1,1.2h12.5v-12.8c-1.1-0.3-2.3-0.3-3.6-0.1l0,0
		c-0.3,0.1-0.5,0.2-0.8,0.3c-0.1,0.1-0.2,0.1-0.3,0.2c-0.1,0-0.2,0.1-0.3,0.1c-0.3,0.1-0.5,0.2-0.8,0.4c-0.1,0.1-0.2,0.1-0.3,0.2
		c-0.1,0.1-0.2,0.1-0.3,0.2C247.4,648.1,245.8,651.1,244.8,655.7z"/>
	<path id="Right_Heel_03" class="st0_12x human" d="M257.1,663.7v-6.8h-12.4c-0.2,2.1,0.8,6.6,0.8,6.6L257.1,663.7L257.1,663.7z"/>
	<path id="Right_Heel_02" class="st0_12x human" d="M257.1,656.9h9.5c-0.3-1.4-0.7-2.6-1.1-3.8l0,0c-0.3-0.7-1-2.5-2.3-4.4
		c-0.1-0.2-0.2-0.3-0.3-0.5c-0.1-0.1-0.1-0.1-0.2-0.2c-1.5-1.8-3.1-3-4.8-3.7c-0.2-0.1-0.5-0.1-0.8-0.2L257.1,656.9L257.1,656.9z"/>
	<path id="Right_Heel_01" class="st0_12x human" d="M267.2,661.9c-0.1-1.8-0.3-3.5-0.6-5h-9.5v6.8C260.6,663.1,267.2,661.9,267.2,661.9z"
		/>
</g>
<g>
	<path id="Right_Posterior_Thumb_Proximal_phalanx_1" class="st0_12x human" d="M335,355.4c0,0,3-7.8,2.6-8.9c-0.5-1.4-4.5-3.9-7.6-5.4
		c-2.1,1.7-1.9,6.5,0.3,10.6C332.2,352.3,335,355.4,335,355.4z"/>
	<path id="Right_Posterior_Thumb_Distal_phalanx_1" class="st0_12x human" d="M335.1,355.4l2.6-8.9c0,0,13.7,14,9.2,16.2
		C343.4,364.4,335.1,355.4,335.1,355.4z"/>
</g>
<g>
	<g>
		<path id="Right_Posterior_Little_Distal_phalanx_1" class="st0_12x human" d="M308.7,388.1c-2.8-0.2-4.5-0.6-6-1.1c0.1,2.8,2.6,8.9,4.4,8.8
			C308.5,395.6,308.8,391.6,308.7,388.1z"/>
	</g>
	<g>
		<path id="Right_Posterior_Ring_Distal_phalanx_1" class="st0_12x human" d="M318.7,391.6c-3.4-0.2-4.4,0.3-6.3,0.1c0.7,3,1.1,10.9,4.2,10.7
			C319.8,402.1,319.1,395.6,318.7,391.6z"/>
	</g>
	<g>
		<path id="Right_Posterior_Middle_Distal_phalanx_1" class="st0_12x human" d="M328.7,390.2c-3.2,0.8-5.1,1-7.1,1.6c0.2,3,2.2,11.5,5.8,11.5
			C330.6,403.3,329.3,394.1,328.7,390.2z"/>
	</g>
	<path id="Right_Posterior_Index_Distal_phalanx_1" class="st0_12x human" d="M337.5,385c-2.5,1.5-4.4,3-6.2,3.9c0.7,3,1.7,10,5.4,10
		C339.9,398.9,338.2,388.9,337.5,385z"/>
	<path id="Right_Posterior_Little_Proximal_phalanx_1" class="st0_12x human" d="M308,376.9c-3.4-0.1-6.6-0.4-6.6-0.4s0.3,2.9,0.6,5.8
		l6.3,0.5C308.4,380.6,308.2,378.2,308,376.9z"/>
	<path id="Right_Posterior_Little_Middle_phalanx_1" class="st0_12x human" d="M302.1,382.3c0.2,2,0.4,4,0.5,5c1.5,0.5,3.3,1,6,1.1
		c-0.1-1.4-0.1-3.6-0.2-5.7L302.1,382.3z"/>
	<path id="Right_Posterior_Ring_Proximal_phalanx_1" class="st0_12x human" d="M316.7,376.1c-4.1,0.5-7.5,0.8-7.5,0.8s0.9,4.1,1.7,7.8
		l6.8-0.5C317.4,382.3,317.1,379.5,316.7,376.1z"/>
	<path id="Right_Posterior_Ring_Middle_phalanx_1" class="st0_12x human" d="M317.7,384.2l-6.8,0.5c0.6,2.9,1.3,5.9,1.5,6.9
		c1.9,0.6,2.9-0.3,6.3-0.1C318.5,389.7,318.3,388.4,317.7,384.2z"/>
	<path id="Right_Posterior_Middle_proximal_phalanx_1" class="st0_12x human" d="M325.5,374.3c-4.1,1.3-6.5,1.4-6.5,1.4
		c0.6,3.8,1.1,6.5,1.4,8.4l7-0.8C326.7,379.8,325.9,375.9,325.5,374.3z"/>
	<path id="Right_Posterior_Middle_Middle_phalanx_1" class="st0_12x human" d="M320.4,384.2c0.6,3.9,0.8,5.2,1.2,7.6c2.1-0.5,3.7-0.7,7.1-1.5
		c-0.2-1.4-0.7-4.1-1.2-6.9L320.4,384.2z"/>
	<path id="Right_Posterior_Index_proximal_phalanx_1" class="st0_12x human" d="M334.5,370.2c-3.8,2.1-6.9,3.6-6.9,3.6
		c0.8,3.2,1.4,5.6,1.9,7.4l6.7-3.4C335.5,374.7,334.9,371.6,334.5,370.2z"/>
	<path id="Right_Posterior_Index_Middle_phalanx_1" class="st0_12x human" d="M329.5,381.2c1.4,5.6,1.5,6.1,1.9,7.7c1.7-0.8,3.6-2.4,6.2-3.9
		c-0.3-1.6-0.8-4.4-1.4-7.2L329.5,381.2z"/>
</g>
<g>
	<g>
		<path id="Right_posterior_Toe_2" class="st0_12x human" d="M256.1,723.4c0.1,0.6,1.7,5.7,1.1,9.9s-7.3,4.4-9.7,0.4c-1.8-3.1-2-14.3-2-14.3
			S248.4,724.1,256.1,723.4z"/>
	</g>
</g>
<g>
	<g>
		<path id="Right_Posterior_2nd_Phalange_2" class="st0_12x human" d="M263.5,721c0.1,0.3,1,7.2,0.7,9.5s-4.6,3.4-5.9,1.2
			c-1-1.7-2.2-8.5-2.2-8.5S258.8,723.5,263.5,721z"/>
	</g>
</g>
<g>
	<g>
		<path id="Right_Posterior_3rd_Phalange_2" class="st0_12x human" d="M268,718.4c0,0.2,0.7,5.1,0.7,6.8c0,3.9-4.5,4.6-4.6,2.7
			c-0.1-2-0.6-6.8-0.6-6.8S265.9,719.9,268,718.4z"/>
	</g>
</g>
<g>
	<g>
		<path id="Right_Posterior_4th_Phalange_2" class="st0_12x human" d="M272,714.7c0.1,0.2,0.6,3.1,0.6,4.8c0,4-4,5.9-4.1,4
			c-0.1-2-0.5-5.1-0.5-5.1S270.7,716.3,272,714.7z"/>
	</g>
</g>
<g>
	<g>
		<path id="Right_Posterior_5th_Phalange_2" class="st0_12x human" d="M275.9,709.2c0,0.2,0.4,4.7,0.4,6.4c0,4-3.6,5-3.7,3.1
			c-0.1-2-0.8-4.7-0.8-4.7S274.7,711.8,275.9,709.2z"/>
	</g>
</g>
<g>
	<path id="Right_Transverse_arch_2" class="st0_12x human" d="M245.9,719.9c0.1,0.1,2.2,2.8,7.1,3.4c4.7,0.6,7.4-0.5,12.8-3.5
		c5.2-2.9,9.1-8.6,9.9-10.2c0.4-0.8,0.1-2.4,0.1-2.4s-0.7,0.3-3.1,1.2c0.5,3.1-6,7.2-11.1,8.5c-5.4,1.4-13.4,3.2-13.3-3.2
		c-1.4-0.4-3.7-0.9-3.7-0.9S244.5,718.5,245.9,719.9z"/>
</g>
<g>
	<path id="Right_Inner_longitudinal_arch_1" class="st0_12x human" d="M252.2,663.6c0,0,0.1,7.6-0.6,18.5c-1.2,12.1-2.8,26.8-2.9,31.2
		c-0.3,1.1-3.9-0.6-4.1-0.6c-0.1-4.5,2.5-26.5,2.5-30.5c0-6.5-1.5-18.8-1.5-18.8L252.2,663.6z"/>
</g>
<g>
	<path id="Right_Outer_longitudinal_arch_1" class="st0_12x human" d="M259.9,663.2c0,0,1.5,7.3,4.4,18.6c3.3,11.8,7.5,21.8,8.2,26.5
		c0.2,0.1,3.1-1.1,3.3-1.1c-0.8-4.4-3.8-21.2-4.6-25.1c-1.4-6.5-3.9-20.3-3.9-20.3L259.9,663.2z"/>
</g>
<g>
	<path id="Right_Foot_middle_1" class="st0_12x human" d="M257.1,663.7l-4.9-0.1c0,0,0.1,9.7-0.3,14.8c-0.9,12.9-3.2,27-3.5,36.3
		c-0.3,8.1,25.7,0.5,24.2-6.7c-1.6-7.6-5.9-17.5-9-28.6c-1.3-5.4-3.7-16.2-3.7-16.2L257.1,663.7z"/>
</g>
<g>
	<circle id="Right_Inner_ball_2" class="st0_12x human" cx="252" cy="714.4" r="3.5"/>
</g>
<g>
	<circle id="Right_Outer_ball_2" class="st0_12x human" cx="268.9" cy="708.9" r="3.5"/>
</g>
<g>
	<g>
		<path class="st1_12x" d="M133.1,737c-2.9,0-5.8-2-4.7-7.5c-0.7,6-7.8,4.1-7.1-0.8c-2,1.3-4.7-0.3-4.7-3.5c0-0.1,0-0.3,0-0.5
			c-1-0.1-2.2-1.1-2.7-1.7c-0.5-0.8-1-2.4-1-3.6c-0.9,0.9-2.1,0.4-2.7-0.2c-0.8-0.8-1.3-2.1-1.2-3.6c0-1.6,0.4-6.2,0.4-6.5l0.3-1.7
			c0.9-5.5,3.8-21.9,7-39.7c1.4-7.6,2.5-14.2,2.7-15.2c-0.5-3.4,3.6-19.1,4.4-21.8c1-5.5,0.6-19.4,0.2-35.4
			c-0.9-33.7-2.1-75.5,6.7-89.1l0.2-1.3c1.1-6.3,2.4-13.4,2-24.6c-8.3-36.3-10-111.7-1.8-139.7c3.7-12.6,7-35.7,10.1-51.4
			c1.9-9.6,3.5-17.3,3.7-18.7c0-0.1,0-0.3,0.1-0.6c0.3-0.9-0.4-10.2,0-22.4l0,0V247c0-1.9-1-9-2.1-17.2c-0.9-6.7-2-14.7-3-22.4
			c-5.8,12.9-13.2,37.8-13.7,39.6c-0.2,3-1.5,10-2.3,12.1c-2.8,12.7-14.6,37.2-22.4,55c-3.8,8.6-8,17.8-9.2,21.2
			c-0.8,2.5-1.4,5.2-1.9,7.4c-0.2,1-0.4,1.9-0.6,2.5c0.1,11.9-4.3,26.6-4.5,27.7c-0.4,1.7-0.7,2.6-0.8,2.9c-0.1,0.7-0.7,5.6-1,7.9
			c-0.1,1.8-1.6,12.7-4.6,12.1c-2.8-0.5-2.8-6.1-2.5-11.1c0.1-2.1,0.5-5.5,0.8-7.3c-0.1,0-0.3,0-0.4,0c-0.3,1.5-2.8,12.1-3,13
			c-0.1,0.6-0.3,1.4-0.4,2.3c-0.7,4.5-1,10.2-4.3,10.4c-0.8-0.1-1.5-0.4-2-1c-1.7-2-1.4-6.3-0.9-11c0,0,1.2-9,1.9-14.5
			c-0.1,0-1.5-0.1-1.5-0.1s-2,29-9.4,26.2c-3-1.1-0.9-11.2-0.6-12.9c0.3-2.9,2.3-11.9,3.1-15.2c0.1-0.2-1.6-0.9-1.7-0.9
			c-2.8,11-2.8,11.1-3.6,14.8c-0.6,2.8-1,10.5-4.7,10.6c-0.7,0-1.3-0.3-1.8-0.9c-2.7-4.2,2.4-26.6,3-29l0.3-1.3l0,0
			c0.3-1.3,0.6-2.4,0.8-3.3c0.3-1.3,0.5-2.1,0.6-2.9v-0.1c0.1-0.5,0.3-1.2,0.5-1.9c0.6-1.9,2.1-6.7,1.8-7.2c-0.3,0-2.8,1.8-3.4,2.5
			c-0.7,0.8-6.7,8.2-10.9,8.2c-0.5,0-1-0.1-1.4-0.3c-0.8-0.4-1.3-1-1.4-1.9c-0.7-4,8.2-13.3,10.2-15.5c1.9-2.1,10.4-6.6,11.5-7.1
			c2.2-1,4.1-2.2,6.5-4.1l0.8-0.7c1.6-1.6,4.5-4.7,5.4-7.2c4.9-11.2,8.2-31.1,11.2-48.6c2.1-12.8,4.9-22.8,6.9-27.6
			c0.1-0.2,0.6-1.2,1.2-2.6c1.3-2.9,3.6-7.6,4-8.8c0.5-1.4,9.9-37.9,13.5-52.7l-0.2-3.1c-0.1-3.3-0.6-20.2,3.6-34
			c5.1-16.7,35.4-23,36.6-23.3c4-0.9,10.4-2.3,11.2-2.6l0.7-0.3c3-1.4,9.2-5.6,15.1-10.2c0.2-2.2,0.9-12.6,0.2-20.7
			c-4.5-2.8-7.2-10.1-8.1-13.2c-0.1-0.3-0.2-0.6-0.2-0.8c-2.6-1.1-6.4-6.6-7.2-10.7l-0.2-0.8c-0.6-3-1.2-6.2,0.3-8.1
			c0.9-1.1,2.3-1.6,4.3-1.6h0.1c-0.6-7.5-1.1-14.2-1.1-14.2v-0.7c0-14.9,12-25.3,29.2-25.3s29,10.5,29,25.5c0,0.2-0.6,7.7-1.4,15.8
			c1.6-0.4,2.9-0.1,3.7,1c1.9,2.3,1.2,7.6,0.8,9.7c-0.8,3.9-4.3,9.2-6.9,10.4c-0.2,0.5-0.5,1.5-0.7,2.3c-0.5,1.5-0.8,2.5-1,3
			c-1.7,4-6.4,6.7-7.2,7.5c-0.8,7.8-0.4,17.9,0,21c2,1.3,14.1,9.5,17.2,11c3.8,0.7,40.3,7.4,46,28.1c4.5,14.8,3.6,32.1,3.6,33.6
			l0.1,0.4c0.4,1.7,11.5,43.4,13.4,52.3c0.3,0.8,5.2,11.4,5.2,11.4c2.5,5,5.2,16.5,7.5,30.5c2.7,16.7,5.7,36.1,10.4,46.8
			c1,2.4,6.4,7.7,9.7,9.9c1.6,1.1,5.8,3.3,7.2,4.1c3.1,1.5,6.7,4.3,7.8,5.6c0.4,0.4,0.8,0.9,1.4,1.5c4.9,5.4,9.7,10.2,9.1,13.5
			c-0.2,0.9-0.2,1.4-1.1,1.9c-0.4,0.2-0.9,0.3-1.5,0.3c-4.1,0-10.7-7-11.5-7.8c-0.7-0.7-2.6-2.8-3.6-3.5c0.4,2.5,1.1,6,1.7,7.9
			c0.2,0.7,0.4,1.4,0.6,1.9v0.1c0.1,0.8,0.5,1.6,0.8,2.9c0.2,1,0.5,2.1,0.8,3.6l0.3,1c0.5,2.2,2.7,12.1,2.7,12.1l0.2,1
			c0.1,0.7,2.6,13.7,0.8,15.9c-0.5,0.6-1.1,0.9-1.8,0.9c-4.1,0-4.7-5.9-5.5-9.5c-0.1-0.4-0.6-3.9-3.7-15.7c-0.1,0-1.9-0.1-2,0.3
			c0.7,3.2,2.8,11.3,3.7,15.1c0.5,2.5,1.7,10.6,0.1,13.1c-0.5,0.6-1.2,0.9-1.9,0.9c-5.4,0-6.3-13-6.3-13c-0.4-2.9-0.5-5-2.1-14.3
			c-0.2,0-1.7-0.1-1.9,0c0.7,5.6,2.4,15.5,2.4,15.5c0.5,4.7,0.2,9.4-2.3,10.5c-2.6,1.1-4.1-4.2-4.8-8.6c-0.1-0.9-0.3-1.7-0.4-2.3
			c-0.2-1.2-3-14.4-3-14.4H308c0.3,2.3,0.4,6,0.5,8.6c0.2,4.9,0.9,10.5-1.4,10.7H307c-3.1,0-5.5-10.3-5.6-12.2
			c-0.2-2.2-0.9-7.2-1-7.9c-0.1-0.3-0.4-1.2-0.8-2.9c-0.2-0.6-0.3-1.3-0.5-2.1c-0.2-0.9-0.4-2-0.7-3.2l-0.1-0.4
			c-2.5-9.8-2.7-12.2-3.2-19.1c-0.1-1.5-0.2-3.2-0.4-5.2c-0.2-0.6-0.4-1.5-0.6-2.5c-0.5-2.2-1.1-4.9-1.9-7.5
			c-1.2-3.5-4.3-10.6-8.2-19.5c-7.5-17.2-18.7-40.7-22.5-55c-0.2-0.9-0.7-3.3-1.2-5.7c-0.4-2.2-0.9-4.4-1.2-5.8
			c-2.5-10.6-8.2-29.4-13.7-41.1c-3.8,25.3-6.3,49.2-4,68.1c2.2,18.1,8.3,39.3,14.3,72.3c6.7,47.9,1.8,111.1-3.5,133.8
			c-0.4,11.2,2.3,26.4,2.3,26.4c8.8,13.6,8.2,52.8,7.3,86.4c-0.4,16-1.5,32.3-0.5,37.9c0.5,1.7,2.4,5.9,4.1,15.6
			c1.7,10,1.5,14.8,2,18.5c0.7,2.6,5.5,26.4,7,35.3c0.6,3.5,2.3,12.5,2.3,14.1c0,1.4-0.4,2.4-1.1,3.2c-0.6,0.6-1.5,1-2.6,1
			c-0.1,2.8-2.3,4.3-3.9,4.8c0,0.2,0,0.5,0,0.6c0,1.2-0.3,2.1-1.1,2.8c-1,1-2.4,1.3-3.4,1.3c0,0.5,0,1-0.1,1.3
			c-0.3,2-2.5,3.3-4.5,3.3c-1,0-2.9-2.8-2.9-2.7c-0.4,2.5-2.1,6.3-5,6.3c-2.5,0-4.3-1.6-5.5-3.7c-1.7-3.2-1.3-11.3-1.3-13.3
			c-1-1.7-1.6-4.7-1.4-6.5c-0.2-1,0-3.7,1-11.9c0.6-4.6,0.6-9.2,1.3-18.5c0.6-7.1-2.7-31.6-2.8-31.8v-0.1c-0.2-3.8-1.6-9.1-2.4-14.3
			c-0.3-2.5-0.5-5-0.7-7.1c-0.2-4.8-5.9-31.6-15.3-64c-3.3-11.5-4.2-21.8-5-31.7c-0.7-8.7-1.4-16.9-3.7-24.9c0,0-3.1-9.1-5.9-22.7
			c-3.7-15.5-4.1-37.7-5.2-55.5c-0.4-6.9-0.8-12.9-1.3-17.5c-1.4-15.1-8-58.4-8.4-61.6c-0.3-1.9-1.8-3.8-1.8-3.8
			c-1.3,0-3.4,2.8-4.6,8.4c-1.2,8.1-6,45.2-7.4,59.6c-0.5,5.3-0.8,12.2-1.2,20.3c-0.7,17-1.7,38.2-5.2,53
			c-2.8,13.5-5.9,22.6-5.9,22.7c-2.3,7.9-3,16.1-3.7,24.8c-0.8,9.9-1.6,20.2-5,31.7c-9.4,32.4-19.4,82.6-19.6,86.5v0.1
			c0,0.2-3.1,20.7-2.5,27.8c0.3,3.9,0.9,9.6,1.6,15.2c1.2,10.9,1.9,19.4,0.2,23c0,2-0.3,10.5-2.1,13.6
			C137.6,736,135.6,737,133.1,737z"/>
		<path class="st2_12x" d="M244.9,720.2c0,0,5.5,4.1,10.1,3.7c1.9-0.2,9.5-2,13.6-5.4c2.4-2,6.7-6.9,6.9-7.6"/>
		<path class="st2_12x" d="M140.2,720.3c0,0-5.9,3.8-10.5,3.2c-1.9-0.3-9.4-2.5-13.3-6.1c-2.3-2.1-6.4-7.2-6.5-7.9"/>
	</g>
</g>
</svg>
