<?xml version="1.0" encoding="utf-8"?>
<!-- Generator: Adobe Illustrator 16.0.0, SVG Export Plug-In . SVG Version: 6.00 Build 0)  -->
<!DOCTYPE svg PUBLIC "-//W3C//DTD SVG 1.1//EN" "http://www.w3.org/Graphics/SVG/1.1/DTD/svg11.dtd">
<svg version="1.1" id="Layer_1" xmlns="http://www.w3.org/2000/svg" xmlns:xlink="http://www.w3.org/1999/xlink" x="0px" y="0px"
	 width="200px" height="200px" viewBox="0 0 512 512" enable-background="new 0 0 512 512" xml:space="preserve">
	 <g id="bigCrayfish">
	<text x="150" y="40" fill="Black" font-size="40"> Side</text>	
<g>
<g>	 
<path class="human"  fill="#394046" d="M342.939,81.894l-29.925-3.763c0,0,18.477,107.39,19.701,163.584
	c1.489,68.248-18.126,151.268-40.229,202.907c-4.082,9.538-9.055,20.051-14.625,31.332l56.231,29.932
	c17.438-56.896,31.917-109.214,36.381-138.853C386.854,258.211,342.939,81.894,342.939,81.894z"/>
</g>
<g id="C-2_1_">
	<g>
		<path class="human"  fill="#FFA009" d="M207.248,113.381c17.207-17.547,40.308-22.427,49.749-17.822c8.489,4.142,13.084,7.922,18.856,6.535
			c4.26-1.024,9.724-3.858,10.722-10.787c24.351-0.104,44.711,0.881,64.96,13.439c-1.605,14.106,7.816,14.562,12.063,26.053
			c4.442,12.009,3.075,21.391,3.075,21.391s-10.157-3.931-18.881-9.209c-8.722-5.281-15.94-3.882-15.94-3.882
			s-2.104-1.658-5.358-3.862c-2.123-6.155-0.589-25.881-12.95-23.423c-5.386,1.071-7.598,12.579-3.492,14.753
			c-4.05-1.808-15.023-4.933-18.845-5.196c-8.685-0.596-1.729,1.234-20.95,2.855c-44.082,3.719-47.583,17.134-66.407,14.615
			C200.197,138.354,198.671,125.5,207.248,113.381z"/>
	</g>
	<g opacity="0.7" enable-background="new  ">
		<path class="human"  d="M171.182,139.189c0,0.244-0.007,0.452-0.022,0.623s-0.037,0.317-0.066,0.439s-0.068,0.227-0.117,0.314
			s-0.127,0.188-0.234,0.301s-0.315,0.256-0.623,0.432s-0.684,0.344-1.128,0.506c-0.444,0.16-0.952,0.295-1.523,0.402
			s-1.189,0.161-1.853,0.161c-1.299,0-2.471-0.2-3.516-0.601s-1.934-0.998-2.666-1.795c-0.732-0.795-1.294-1.789-1.685-2.98
			s-0.586-2.578-0.586-4.16c0-1.611,0.215-3.042,0.645-4.292s1.03-2.3,1.802-3.149s1.697-1.494,2.776-1.934s2.268-0.659,3.567-0.659
			c0.527,0,1.035,0.044,1.523,0.132s0.94,0.203,1.355,0.344c0.415,0.143,0.789,0.306,1.121,0.491s0.564,0.345,0.696,0.476
			c0.132,0.133,0.222,0.242,0.271,0.33s0.088,0.2,0.117,0.337s0.051,0.298,0.066,0.483s0.022,0.415,0.022,0.688
			c0,0.293-0.01,0.542-0.029,0.747s-0.054,0.371-0.103,0.498s-0.107,0.22-0.176,0.278s-0.146,0.088-0.234,0.088
			c-0.146,0-0.332-0.085-0.557-0.257c-0.225-0.17-0.515-0.36-0.872-0.57s-0.781-0.4-1.274-0.572
			c-0.493-0.17-1.082-0.256-1.765-0.256c-0.752,0-1.423,0.154-2.014,0.461c-0.591,0.309-1.094,0.748-1.509,1.318
			c-0.415,0.572-0.73,1.263-0.945,2.073s-0.322,1.724-0.322,2.739c0,1.113,0.115,2.078,0.344,2.893
			c0.229,0.816,0.557,1.487,0.981,2.015s0.938,0.921,1.538,1.179c0.601,0.26,1.277,0.389,2.029,0.389
			c0.684,0,1.274-0.08,1.772-0.242c0.498-0.16,0.925-0.339,1.282-0.534s0.649-0.371,0.879-0.527s0.408-0.234,0.535-0.234
			c0.098,0,0.176,0.02,0.234,0.059s0.107,0.117,0.146,0.234s0.068,0.281,0.088,0.491S171.182,138.838,171.182,139.189z"/>
		<path class="human"  d="M180.206,134.692c0,0.566-0.054,0.962-0.161,1.187s-0.278,0.337-0.513,0.337h-6.094c-0.244,0-0.42-0.114-0.527-0.345
			c-0.107-0.229-0.161-0.622-0.161-1.179c0-0.547,0.054-0.933,0.161-1.157s0.283-0.337,0.527-0.337h6.094
			c0.117,0,0.217,0.024,0.3,0.073s0.154,0.132,0.212,0.249s0.1,0.273,0.125,0.469S180.206,134.419,180.206,134.692z"/>
		<path class="human"  d="M195.074,140.493c0,0.283-0.012,0.525-0.037,0.726s-0.061,0.363-0.11,0.49s-0.112,0.218-0.19,0.271
			s-0.166,0.08-0.264,0.08h-10.898c-0.215,0-0.4-0.02-0.557-0.059s-0.283-0.114-0.381-0.227s-0.168-0.276-0.212-0.491
			s-0.066-0.493-0.066-0.835c0-0.322,0.015-0.598,0.044-0.828c0.029-0.229,0.083-0.434,0.161-0.615
			c0.078-0.18,0.178-0.355,0.3-0.527c0.122-0.17,0.281-0.358,0.476-0.563l3.281-3.516c0.654-0.684,1.182-1.306,1.582-1.868
			c0.4-0.561,0.713-1.073,0.938-1.537s0.378-0.892,0.461-1.282s0.125-0.762,0.125-1.113c0-0.322-0.051-0.627-0.154-0.915
			s-0.254-0.54-0.454-0.755s-0.452-0.383-0.754-0.505s-0.659-0.184-1.069-0.184c-0.576,0-1.086,0.073-1.531,0.22
			s-0.835,0.311-1.172,0.491s-0.618,0.347-0.842,0.498s-0.4,0.227-0.527,0.227c-0.088,0-0.164-0.029-0.227-0.088
			s-0.115-0.156-0.154-0.293s-0.071-0.319-0.095-0.549s-0.037-0.511-0.037-0.843c0-0.225,0.007-0.412,0.022-0.563
			s0.037-0.283,0.066-0.396c0.029-0.111,0.068-0.209,0.117-0.293c0.049-0.082,0.134-0.183,0.256-0.3s0.347-0.266,0.674-0.446
			s0.73-0.356,1.208-0.527s1.006-0.315,1.582-0.433s1.177-0.176,1.802-0.176c0.986,0,1.848,0.124,2.585,0.374
			c0.737,0.248,1.35,0.596,1.838,1.039c0.488,0.445,0.852,0.973,1.091,1.582c0.239,0.611,0.359,1.268,0.359,1.971
			c0,0.615-0.059,1.221-0.176,1.816s-0.361,1.238-0.732,1.926c-0.371,0.689-0.894,1.451-1.567,2.285
			c-0.674,0.836-1.567,1.805-2.681,2.908l-2.212,2.271h7.471c0.098,0,0.188,0.029,0.271,0.088s0.154,0.149,0.212,0.271
			c0.059,0.123,0.103,0.284,0.132,0.484S195.074,140.22,195.074,140.493z"/>
	</g>
</g>
<g id="C-1">
	<g>
		<path class="human"  fill="#FFA009" d="M197.547,77.993c4.972-10.753,8.564-13.459,12.904-13.496c4.339-0.037,13.047,0.11,31.077-2.271
			c10.835-1.428,17.338-2.153,25.98-6.242c8.646-4.088,5.657-15.44,1.249-23.435c-4.403-7.996-17.365-1.193-17.365-1.193
			l2.792-12.069c0,0,0,0,18.777-2.839c18.779-2.835,20.258,1.168,33.275,1.059c13.018-0.109,8.632-5.427,15.851-6.827
			c7.226-1.399,18.761-5.512,18.761-5.512s3.014,14.698-1.246,24.104c-4.261,9.406,11.729,18.641,17.641,33.313
			c3.057,7.596-3.65,22.388-5.544,28.826c-13.002,1.45-40.285-6.26-64.412-6.148c-2.526-5.566-6.112-10.658-13.109-10.597
			c-6.508,0.054-7.854,2.022-16.567,7.5c-4.315,2.714-17.255,2.371-17.333,2.824c-15.479,0.209-24.628,7.686-34.631,9.662
			C194.663,96.824,195.915,81.523,197.547,77.993z"/>
	</g>
	<g opacity="0.7" enable-background="new  ">
		<path class="human"  d="M168.182,93.189c0,0.244-0.007,0.452-0.022,0.623s-0.037,0.317-0.066,0.439s-0.068,0.227-0.117,0.314
			s-0.127,0.188-0.234,0.301s-0.315,0.256-0.623,0.432s-0.684,0.344-1.128,0.506c-0.444,0.16-0.952,0.295-1.523,0.402
			s-1.189,0.161-1.853,0.161c-1.299,0-2.471-0.2-3.516-0.601s-1.934-0.998-2.666-1.795c-0.732-0.795-1.294-1.789-1.685-2.98
			s-0.586-2.578-0.586-4.16c0-1.611,0.215-3.042,0.645-4.292s1.03-2.3,1.802-3.149s1.697-1.494,2.776-1.934s2.268-0.659,3.567-0.659
			c0.527,0,1.035,0.044,1.523,0.132s0.94,0.203,1.355,0.344c0.415,0.143,0.789,0.306,1.121,0.491s0.564,0.345,0.696,0.476
			c0.132,0.133,0.222,0.242,0.271,0.33s0.088,0.2,0.117,0.337s0.051,0.298,0.066,0.483s0.022,0.415,0.022,0.688
			c0,0.293-0.01,0.542-0.029,0.747s-0.054,0.371-0.103,0.498s-0.107,0.22-0.176,0.278s-0.146,0.088-0.234,0.088
			c-0.146,0-0.332-0.085-0.557-0.257c-0.225-0.17-0.515-0.36-0.872-0.57s-0.781-0.4-1.274-0.572
			c-0.493-0.17-1.082-0.256-1.765-0.256c-0.752,0-1.423,0.154-2.014,0.461c-0.591,0.309-1.094,0.748-1.509,1.318
			c-0.415,0.572-0.73,1.263-0.945,2.073s-0.322,1.724-0.322,2.739c0,1.113,0.115,2.078,0.344,2.893
			c0.229,0.816,0.557,1.487,0.981,2.015s0.938,0.921,1.538,1.179c0.601,0.26,1.277,0.389,2.029,0.389
			c0.684,0,1.274-0.08,1.772-0.242c0.498-0.16,0.925-0.339,1.282-0.534s0.649-0.371,0.879-0.527s0.408-0.234,0.535-0.234
			c0.098,0,0.176,0.02,0.234,0.059s0.107,0.117,0.146,0.234s0.068,0.281,0.088,0.491S168.182,92.838,168.182,93.189z"/>
		<path class="human"  d="M177.206,88.692c0,0.566-0.054,0.962-0.161,1.187s-0.278,0.337-0.513,0.337h-6.094c-0.244,0-0.42-0.114-0.527-0.345
			c-0.107-0.229-0.161-0.622-0.161-1.179c0-0.547,0.054-0.933,0.161-1.157s0.283-0.337,0.527-0.337h6.094
			c0.117,0,0.217,0.024,0.3,0.073s0.154,0.132,0.212,0.249s0.1,0.273,0.125,0.469S177.206,88.419,177.206,88.692z"/>
		<path class="human"  d="M191.898,94.596c0,0.273-0.015,0.506-0.044,0.695c-0.029,0.191-0.071,0.343-0.125,0.455s-0.115,0.192-0.183,0.241
			s-0.146,0.073-0.234,0.073h-10.459c-0.078,0-0.151-0.024-0.22-0.073s-0.129-0.129-0.183-0.241s-0.095-0.264-0.125-0.455
			c-0.029-0.189-0.044-0.422-0.044-0.695c0-0.283,0.012-0.52,0.037-0.711c0.024-0.189,0.063-0.344,0.117-0.461
			s0.115-0.202,0.183-0.256s0.146-0.081,0.234-0.081h3.53V80.753l-3.047,1.685c-0.225,0.107-0.408,0.174-0.549,0.197
			c-0.142,0.025-0.254-0.004-0.337-0.088c-0.083-0.082-0.139-0.227-0.168-0.432s-0.044-0.493-0.044-0.864
			c0-0.234,0.005-0.427,0.015-0.579c0.01-0.15,0.034-0.28,0.073-0.388s0.093-0.195,0.161-0.264s0.161-0.142,0.278-0.22l4.072-2.637
			c0.049-0.039,0.11-0.07,0.183-0.096c0.073-0.023,0.168-0.043,0.286-0.059c0.117-0.014,0.271-0.023,0.461-0.029
			c0.19-0.004,0.437-0.007,0.74-0.007c0.371,0,0.671,0.007,0.901,0.022c0.229,0.014,0.403,0.039,0.52,0.072
			c0.117,0.035,0.195,0.081,0.234,0.14s0.059,0.132,0.059,0.22v15.659h3.091c0.088,0,0.168,0.027,0.242,0.081
			s0.137,0.139,0.19,0.256s0.093,0.271,0.117,0.461C191.886,94.076,191.898,94.313,191.898,94.596z"/>
	</g>
</g>
<g id="C-3">
	<g>
		<path class="human"  fill="#FFA009" d="M374.587,176.217c0,0,2.094,19.616,0.244,28.556c-1.854,8.939-7.637,8.988-17.31,5.498
			c-9.672-3.488-27.19-22.97-38.824-30.01c-11.628-7.042-25.188-14.065-50.197-6.715c-25.007,7.35-63.529,13.028-63.529,13.028
			s1.84-10.724,7.533-21.478c5.695-10.757,15.352-9.054,30.703-18.107c15.354-9.053,44.188-20.006,57.758-11.198
			c13.576,8.811,2.035,12.478,17.521,19.485c15.487,7.01,13.581,8.811,25.166,10.497
			C355.234,167.458,361.032,169.193,374.587,176.217z"/>
	</g>
	<g opacity="0.7" enable-background="new  ">
		<path class="human"  d="M174.182,184.322c0,0.244-0.007,0.452-0.022,0.623s-0.037,0.317-0.066,0.439s-0.068,0.227-0.117,0.314
			s-0.127,0.188-0.234,0.301s-0.315,0.256-0.623,0.432s-0.684,0.344-1.128,0.506c-0.444,0.16-0.952,0.295-1.523,0.402
			s-1.189,0.161-1.853,0.161c-1.299,0-2.471-0.2-3.516-0.601s-1.934-0.998-2.666-1.795c-0.732-0.795-1.294-1.789-1.685-2.98
			s-0.586-2.578-0.586-4.16c0-1.611,0.215-3.042,0.645-4.292s1.03-2.3,1.802-3.149s1.697-1.494,2.776-1.934s2.268-0.659,3.567-0.659
			c0.527,0,1.035,0.044,1.523,0.132s0.94,0.203,1.355,0.344c0.415,0.143,0.789,0.306,1.121,0.491s0.564,0.345,0.696,0.476
			c0.132,0.133,0.222,0.242,0.271,0.33s0.088,0.2,0.117,0.337s0.051,0.298,0.066,0.483s0.022,0.415,0.022,0.688
			c0,0.293-0.01,0.542-0.029,0.747s-0.054,0.371-0.103,0.498s-0.107,0.22-0.176,0.278s-0.146,0.088-0.234,0.088
			c-0.146,0-0.332-0.085-0.557-0.257c-0.225-0.17-0.515-0.36-0.872-0.57s-0.781-0.4-1.274-0.572
			c-0.493-0.17-1.082-0.256-1.765-0.256c-0.752,0-1.423,0.154-2.014,0.461c-0.591,0.309-1.094,0.748-1.509,1.318
			c-0.415,0.572-0.73,1.263-0.945,2.073s-0.322,1.724-0.322,2.739c0,1.113,0.115,2.078,0.344,2.893
			c0.229,0.816,0.557,1.487,0.981,2.015s0.938,0.921,1.538,1.179c0.601,0.26,1.277,0.389,2.029,0.389
			c0.684,0,1.274-0.08,1.772-0.242c0.498-0.16,0.925-0.339,1.282-0.534s0.649-0.371,0.879-0.527s0.408-0.234,0.535-0.234
			c0.098,0,0.176,0.02,0.234,0.059s0.107,0.117,0.146,0.234s0.068,0.281,0.088,0.491S174.182,183.971,174.182,184.322z"/>
		<path class="human"  d="M183.206,179.825c0,0.566-0.054,0.962-0.161,1.187s-0.278,0.337-0.513,0.337h-6.094c-0.244,0-0.42-0.114-0.527-0.345
			c-0.107-0.229-0.161-0.622-0.161-1.179c0-0.547,0.054-0.933,0.161-1.157s0.283-0.337,0.527-0.337h6.094
			c0.117,0,0.217,0.024,0.3,0.073s0.154,0.132,0.212,0.249s0.1,0.273,0.125,0.469S183.206,179.552,183.206,179.825z"/>
		<path class="human"  d="M197.986,181.642c0,0.947-0.181,1.787-0.542,2.52s-0.864,1.348-1.509,1.846s-1.416,0.877-2.314,1.136
			c-0.898,0.258-1.88,0.388-2.944,0.388c-0.645,0-1.25-0.047-1.816-0.14s-1.067-0.207-1.501-0.344s-0.793-0.278-1.077-0.425
			s-0.469-0.259-0.557-0.337s-0.154-0.166-0.198-0.264s-0.083-0.213-0.117-0.344c-0.034-0.133-0.059-0.298-0.073-0.498
			s-0.022-0.442-0.022-0.726c0-0.469,0.039-0.793,0.117-0.974s0.195-0.271,0.352-0.271c0.098,0,0.266,0.066,0.505,0.197
			c0.239,0.133,0.544,0.274,0.916,0.426s0.806,0.293,1.304,0.424c0.498,0.133,1.064,0.198,1.699,0.198
			c0.537,0,1.011-0.063,1.421-0.19s0.759-0.305,1.047-0.535c0.288-0.229,0.503-0.507,0.645-0.834s0.212-0.691,0.212-1.092
			c0-0.439-0.085-0.835-0.256-1.187s-0.425-0.651-0.762-0.901c-0.337-0.248-0.762-0.441-1.274-0.578s-1.116-0.205-1.809-0.205
			h-1.641c-0.127,0-0.234-0.017-0.322-0.051s-0.161-0.105-0.22-0.213s-0.1-0.256-0.125-0.447c-0.024-0.189-0.037-0.437-0.037-0.739
			c0-0.283,0.012-0.515,0.037-0.696c0.024-0.18,0.063-0.319,0.117-0.417s0.122-0.166,0.205-0.205s0.183-0.059,0.3-0.059h1.655
			c0.566,0,1.069-0.065,1.509-0.198c0.439-0.131,0.808-0.319,1.106-0.563s0.525-0.539,0.681-0.886s0.234-0.73,0.234-1.15
			c0-0.322-0.054-0.627-0.161-0.916c-0.107-0.287-0.266-0.536-0.476-0.746s-0.481-0.376-0.813-0.498s-0.723-0.184-1.172-0.184
			c-0.508,0-0.986,0.076-1.436,0.227c-0.449,0.152-0.852,0.318-1.208,0.498c-0.356,0.182-0.659,0.35-0.908,0.506
			s-0.432,0.234-0.549,0.234c-0.078,0-0.146-0.017-0.205-0.051s-0.107-0.101-0.146-0.198s-0.068-0.239-0.088-0.425
			s-0.029-0.425-0.029-0.718c0-0.244,0.005-0.446,0.015-0.608c0.01-0.16,0.029-0.295,0.059-0.402s0.066-0.2,0.11-0.278
			s0.115-0.163,0.212-0.257c0.098-0.092,0.298-0.231,0.601-0.417s0.684-0.366,1.143-0.542s0.989-0.324,1.589-0.447
			c0.601-0.121,1.252-0.183,1.956-0.183c0.918,0,1.731,0.107,2.439,0.322s1.304,0.525,1.787,0.931s0.85,0.903,1.099,1.494
			s0.374,1.257,0.374,1.999c0,0.576-0.073,1.113-0.22,1.611s-0.361,0.942-0.645,1.333s-0.637,0.723-1.062,0.996
			s-0.916,0.479-1.472,0.615v0.044c0.664,0.078,1.26,0.247,1.787,0.505c0.527,0.26,0.974,0.584,1.34,0.975s0.647,0.833,0.842,1.326
			S197.986,181.075,197.986,181.642z"/>
	</g>
</g>
<g id="C-4">
	<g>
		<path class="human"  fill="#FFA009" d="M375.177,245.818c1.7,8.602,2.565,18.049,2.216,33.892c-0.177,7.979-9.688-5.272-27.083-10.479
			c-17.406-5.207-25.116-5.144-31.034-21.153c-5.924-16.012-15.655-26.638-25.342-31.913c-9.687-5.271-15.834-8.82-32.826-5.077
			c-16.842,3.712-43.498,15.986-43.498,15.986s1.29-18.753,4.147-22.791c6.768-9.567,10.227-4.541,23.802-7.34
			c18.048-3.723,39.156-15.948,52.701-10.708c13.545,5.24,14.724,20.972,24.615,31.471
			C346.219,242.494,372.407,231.786,375.177,245.818z"/>
	</g>
	<g opacity="0.7" enable-background="new  ">
		<path class="human"  d="M186.182,226.768c0,0.244-0.007,0.452-0.022,0.623s-0.037,0.317-0.066,0.439s-0.068,0.227-0.117,0.314
			s-0.127,0.188-0.234,0.301s-0.315,0.256-0.623,0.432s-0.684,0.344-1.128,0.506c-0.444,0.16-0.952,0.295-1.523,0.402
			s-1.189,0.161-1.853,0.161c-1.299,0-2.471-0.2-3.516-0.601s-1.934-0.998-2.666-1.795c-0.732-0.795-1.294-1.789-1.685-2.98
			s-0.586-2.578-0.586-4.16c0-1.611,0.215-3.042,0.645-4.292s1.03-2.3,1.802-3.149s1.697-1.494,2.776-1.934s2.268-0.659,3.567-0.659
			c0.527,0,1.035,0.044,1.523,0.132s0.94,0.203,1.355,0.344c0.415,0.143,0.789,0.306,1.121,0.491s0.564,0.345,0.696,0.476
			c0.132,0.133,0.222,0.242,0.271,0.33s0.088,0.2,0.117,0.337s0.051,0.298,0.066,0.483s0.022,0.415,0.022,0.688
			c0,0.293-0.01,0.542-0.029,0.747s-0.054,0.371-0.103,0.498s-0.107,0.22-0.176,0.278s-0.146,0.088-0.234,0.088
			c-0.146,0-0.332-0.085-0.557-0.257c-0.225-0.17-0.515-0.36-0.872-0.57s-0.781-0.4-1.274-0.572
			c-0.493-0.17-1.082-0.256-1.765-0.256c-0.752,0-1.423,0.154-2.014,0.461c-0.591,0.309-1.094,0.748-1.509,1.318
			c-0.415,0.572-0.73,1.263-0.945,2.073s-0.322,1.724-0.322,2.739c0,1.113,0.115,2.078,0.344,2.893
			c0.229,0.816,0.557,1.487,0.981,2.015s0.938,0.921,1.538,1.179c0.601,0.26,1.277,0.389,2.029,0.389
			c0.684,0,1.274-0.08,1.772-0.242c0.498-0.16,0.925-0.339,1.282-0.534s0.649-0.371,0.879-0.527s0.408-0.234,0.535-0.234
			c0.098,0,0.176,0.02,0.234,0.059s0.107,0.117,0.146,0.234s0.068,0.281,0.088,0.491S186.182,226.416,186.182,226.768z"/>
		<path class="human"  d="M195.206,222.271c0,0.566-0.054,0.962-0.161,1.187s-0.278,0.337-0.513,0.337h-6.094c-0.244,0-0.42-0.114-0.527-0.345
			c-0.107-0.229-0.161-0.622-0.161-1.179c0-0.547,0.054-0.933,0.161-1.157s0.283-0.337,0.527-0.337h6.094
			c0.117,0,0.217,0.024,0.3,0.073s0.154,0.132,0.212,0.249s0.1,0.273,0.125,0.469S195.206,221.997,195.206,222.271z"/>
		<path class="human"  d="M210.66,224.189c0,0.498-0.051,0.877-0.154,1.135c-0.103,0.26-0.242,0.389-0.417,0.389h-1.685v3.428
			c0,0.098-0.029,0.184-0.088,0.256c-0.059,0.074-0.161,0.135-0.308,0.184s-0.337,0.085-0.571,0.109s-0.537,0.037-0.908,0.037
			c-0.352,0-0.647-0.013-0.886-0.037s-0.43-0.061-0.571-0.109s-0.239-0.109-0.293-0.184c-0.054-0.072-0.081-0.158-0.081-0.256
			v-3.428h-7.251c-0.137,0-0.259-0.017-0.366-0.051s-0.198-0.112-0.271-0.234s-0.127-0.298-0.161-0.527s-0.051-0.535-0.051-0.916
			c0-0.313,0.007-0.583,0.022-0.813s0.039-0.438,0.073-0.623s0.083-0.361,0.146-0.527s0.144-0.342,0.242-0.527l5.889-10.386
			c0.049-0.088,0.132-0.163,0.249-0.228c0.117-0.063,0.281-0.117,0.491-0.16c0.21-0.045,0.476-0.076,0.798-0.096
			s0.713-0.029,1.172-0.029c0.498,0,0.923,0.013,1.274,0.037s0.632,0.063,0.842,0.117s0.364,0.119,0.461,0.197
			s0.146,0.171,0.146,0.278v11.411h1.685c0.156,0,0.291,0.12,0.403,0.359S210.66,223.633,210.66,224.189z M204.698,213.921h-0.029
			l-4.995,8.716h5.024V213.921z"/>
	</g>
</g>
<g id="C_x5F_5">
	<g>
		<path class="human"  fill="#FFA009" d="M368.68,304.102c-4.596-2.272-30.506-15.807-37.776-20.43c-7.27-4.625-7.969-1.939-12.368-9.268
			c-4.405-7.324-5.874-9.988-11.743-19.979c-5.871-9.991-7.406-20.685-14.644-21.293c-7.236-0.608-12.305-1.234-27.461,2.239
			c-15.158,3.476-22.395,2.867-31.039,6.956c-8.643,4.089-6.218,5.627-8.569,12.79c-3.524,10.736,0.881,18.73,0.881,18.73
			s23.102-4.881,29.58-8.279c6.48-3.402,13.688-6.143,18.049-3.502c4.361,2.644,2.244,8.684,3.725,12.688
			c1.479,4.003,5.136,8.656,12.398,12.612c7.266,3.954,11.645,8.599,16.706,8.559c5.063-0.043,10.11-1.423,11.628,6.595
			c1.51,8.02-3.504,13.416,1.598,18.06c5.102,4.642,16.726,10.567,28.345,16.491c11.618,5.926,9.447,5.94,13.822,9.922
			c4.371,3.979,4.521,6.686,10.188,7.947c2.901,0.645,7.15-10.102,4.107-27.477C373.069,310.085,376.666,308.048,368.68,304.102z"/>
	</g>
	<g opacity="0.7" enable-background="new  ">
		<path class="human"  d="M194.182,269.872c0,0.244-0.007,0.452-0.022,0.623s-0.037,0.317-0.066,0.439s-0.068,0.227-0.117,0.314
			s-0.127,0.188-0.234,0.301s-0.315,0.256-0.623,0.432s-0.684,0.344-1.128,0.506c-0.444,0.16-0.952,0.295-1.523,0.402
			s-1.189,0.161-1.853,0.161c-1.299,0-2.471-0.2-3.516-0.601s-1.934-0.998-2.666-1.795c-0.732-0.795-1.294-1.789-1.685-2.98
			s-0.586-2.578-0.586-4.16c0-1.611,0.215-3.042,0.645-4.292s1.03-2.3,1.802-3.149s1.697-1.494,2.776-1.934s2.268-0.659,3.567-0.659
			c0.527,0,1.035,0.044,1.523,0.132s0.94,0.203,1.355,0.344c0.415,0.143,0.789,0.306,1.121,0.491s0.564,0.345,0.696,0.476
			c0.132,0.133,0.222,0.242,0.271,0.33s0.088,0.2,0.117,0.337s0.051,0.298,0.066,0.483s0.022,0.415,0.022,0.688
			c0,0.293-0.01,0.542-0.029,0.747s-0.054,0.371-0.103,0.498s-0.107,0.22-0.176,0.278s-0.146,0.088-0.234,0.088
			c-0.146,0-0.332-0.085-0.557-0.257c-0.225-0.17-0.515-0.36-0.872-0.57s-0.781-0.4-1.274-0.572
			c-0.493-0.17-1.082-0.256-1.765-0.256c-0.752,0-1.423,0.154-2.014,0.461c-0.591,0.309-1.094,0.748-1.509,1.318
			c-0.415,0.572-0.73,1.263-0.945,2.073s-0.322,1.724-0.322,2.739c0,1.113,0.115,2.078,0.344,2.893
			c0.229,0.816,0.557,1.487,0.981,2.015s0.938,0.921,1.538,1.179c0.601,0.26,1.277,0.389,2.029,0.389
			c0.684,0,1.274-0.08,1.772-0.242c0.498-0.16,0.925-0.339,1.282-0.534s0.649-0.371,0.879-0.527s0.408-0.234,0.535-0.234
			c0.098,0,0.176,0.02,0.234,0.059s0.107,0.117,0.146,0.234s0.068,0.281,0.088,0.491S194.182,269.521,194.182,269.872z"/>
		<path class="human"  d="M203.206,265.375c0,0.566-0.054,0.962-0.161,1.187s-0.278,0.337-0.513,0.337h-6.094c-0.244,0-0.42-0.114-0.527-0.345
			c-0.107-0.229-0.161-0.622-0.161-1.179c0-0.547,0.054-0.933,0.161-1.157s0.283-0.337,0.527-0.337h6.094
			c0.117,0,0.217,0.024,0.3,0.073s0.154,0.132,0.212,0.249s0.1,0.273,0.125,0.469S203.206,265.102,203.206,265.375z"/>
		<path class="human"  d="M217.898,266.591c0,1.025-0.178,1.941-0.535,2.746c-0.356,0.807-0.859,1.485-1.509,2.037s-1.431,0.974-2.344,1.267
			s-1.926,0.439-3.04,0.439c-0.586,0-1.143-0.036-1.67-0.11c-0.527-0.072-1.001-0.166-1.421-0.277
			c-0.42-0.112-0.764-0.225-1.033-0.338c-0.269-0.111-0.444-0.205-0.527-0.277c-0.083-0.074-0.144-0.154-0.183-0.242
			s-0.071-0.192-0.095-0.314s-0.042-0.276-0.051-0.462s-0.015-0.405-0.015-0.659c0-0.273,0.01-0.506,0.029-0.695
			c0.02-0.191,0.051-0.345,0.095-0.462s0.095-0.2,0.154-0.249s0.127-0.073,0.205-0.073c0.098,0,0.247,0.057,0.447,0.169
			s0.464,0.236,0.791,0.373s0.725,0.262,1.194,0.373c0.469,0.113,1.03,0.169,1.685,0.169c0.566,0,1.082-0.059,1.545-0.176
			s0.857-0.305,1.179-0.563s0.571-0.584,0.747-0.975s0.264-0.859,0.264-1.406c0-0.469-0.073-0.887-0.22-1.252
			c-0.146-0.367-0.376-0.677-0.688-0.931s-0.718-0.444-1.216-0.571s-1.104-0.19-1.816-0.19c-0.566,0-1.082,0.029-1.545,0.088
			s-0.901,0.088-1.311,0.088c-0.283,0-0.486-0.07-0.608-0.212s-0.183-0.403-0.183-0.784v-8.232c0-0.391,0.076-0.671,0.227-0.843
			c0.151-0.17,0.393-0.256,0.725-0.256h8.979c0.088,0,0.171,0.029,0.249,0.088s0.144,0.151,0.198,0.278s0.093,0.296,0.117,0.505
			c0.024,0.211,0.037,0.462,0.037,0.755c0,0.586-0.051,1.011-0.154,1.274s-0.251,0.396-0.447,0.396h-6.738v4.058
			c0.342-0.039,0.681-0.063,1.018-0.073s0.691-0.015,1.062-0.015c1.025,0,1.936,0.12,2.732,0.359s1.465,0.591,2.007,1.055
			s0.955,1.039,1.238,1.729C217.756,264.884,217.898,265.683,217.898,266.591z"/>
	</g>
</g>
<g id="C-6">
	<g>
		<path class="human"  fill="#FFA009" d="M364.945,375.743c-8.135-5.916-16.705-8.56-27.623-17.167c-10.923-8.609-10.229-11.961-17.471-13.239
			c-7.242-1.276-12.279,1.44-15.229-5.226c-2.949-6.668-3.831-25.4-7.496-31.395c-3.668-5.99-9.479-9.287-16.737-12.572
			c-7.262-3.287-7.309-8.64-22.471-5.834c-15.163,2.806-28.201,0.236-36.161-0.363c-7.959-0.604-14.467-0.547-22.342,8.888
			c-7.876,9.437-7.813,16.8-7.056,20.812c0.757,4.008,1.497,6.008,10.168,5.267c8.672-0.741,20.237-1.509,27.46-2.239
			c7.227-0.729,14.418-5.477,19.481-5.52c5.063-0.043,10.892,5.262,11.688,13.957c0.799,8.693,1.542,11.363,9.537,15.979
			c7.994,4.617,13.102,9.933,19.627,11.884c6.523,1.95,14.5,4.563,10.953,12.623c-3.547,8.063-8.58,11.451-6.383,14.777
			c2.197,3.328,13.076,7.254,30.509,15.806c17.426,8.554,24.023,19.207,29.837,22.502c5.813,3.298,9.48,9.29,11.563-0.766
			c2.084-10.056,4.147-22.791,3.354-30.813C369.36,385.077,368.581,378.391,364.945,375.743z"/>
	</g>
	<g opacity="0.7" enable-background="new  ">
		<path class="human"  d="M166.182,312.992c0,0.244-0.007,0.452-0.022,0.623s-0.037,0.317-0.066,0.439s-0.068,0.227-0.117,0.314
			s-0.127,0.188-0.234,0.301s-0.315,0.256-0.623,0.432s-0.684,0.344-1.128,0.506c-0.444,0.16-0.952,0.295-1.523,0.402
			s-1.189,0.161-1.853,0.161c-1.299,0-2.471-0.2-3.516-0.601s-1.934-0.998-2.666-1.795c-0.732-0.795-1.294-1.789-1.685-2.98
			s-0.586-2.578-0.586-4.16c0-1.611,0.215-3.042,0.645-4.292s1.03-2.3,1.802-3.149s1.697-1.494,2.776-1.934s2.268-0.659,3.567-0.659
			c0.527,0,1.035,0.044,1.523,0.132s0.94,0.203,1.355,0.344c0.415,0.143,0.789,0.306,1.121,0.491s0.564,0.345,0.696,0.476
			c0.132,0.133,0.222,0.242,0.271,0.33s0.088,0.2,0.117,0.337s0.051,0.298,0.066,0.483s0.022,0.415,0.022,0.688
			c0,0.293-0.01,0.542-0.029,0.747s-0.054,0.371-0.103,0.498s-0.107,0.22-0.176,0.278s-0.146,0.088-0.234,0.088
			c-0.146,0-0.332-0.085-0.557-0.257c-0.225-0.17-0.515-0.36-0.872-0.57s-0.781-0.4-1.274-0.572
			c-0.493-0.17-1.082-0.256-1.765-0.256c-0.752,0-1.423,0.154-2.014,0.461c-0.591,0.309-1.094,0.748-1.509,1.318
			c-0.415,0.572-0.73,1.263-0.945,2.073s-0.322,1.724-0.322,2.739c0,1.113,0.115,2.078,0.344,2.893
			c0.229,0.816,0.557,1.487,0.981,2.015s0.938,0.921,1.538,1.179c0.601,0.26,1.277,0.389,2.029,0.389
			c0.684,0,1.274-0.08,1.772-0.242c0.498-0.16,0.925-0.339,1.282-0.534s0.649-0.371,0.879-0.527s0.408-0.234,0.535-0.234
			c0.098,0,0.176,0.02,0.234,0.059s0.107,0.117,0.146,0.234s0.068,0.281,0.088,0.491S166.182,312.641,166.182,312.992z"/>
		<path class="human"  d="M175.206,308.495c0,0.566-0.054,0.962-0.161,1.187s-0.278,0.337-0.513,0.337h-6.094c-0.244,0-0.42-0.114-0.527-0.345
			c-0.107-0.229-0.161-0.622-0.161-1.179c0-0.547,0.054-0.933,0.161-1.157s0.283-0.337,0.527-0.337h6.094
			c0.117,0,0.217,0.024,0.3,0.073s0.154,0.132,0.212,0.249s0.1,0.273,0.125,0.469S175.206,308.222,175.206,308.495z"/>
		<path class="human"  d="M190.367,309.535c0,0.957-0.146,1.844-0.439,2.658c-0.293,0.816-0.723,1.52-1.289,2.109
			c-0.566,0.592-1.265,1.055-2.095,1.393c-0.83,0.336-1.787,0.505-2.871,0.505c-0.879,0-1.646-0.101-2.3-0.3
			c-0.654-0.2-1.221-0.488-1.699-0.865c-0.479-0.375-0.869-0.832-1.172-1.369s-0.544-1.143-0.725-1.816s-0.305-1.406-0.374-2.197
			s-0.103-1.631-0.103-2.52c0-0.742,0.037-1.519,0.11-2.329s0.215-1.606,0.425-2.388s0.505-1.525,0.886-2.234
			c0.381-0.707,0.872-1.327,1.472-1.859s1.328-0.955,2.183-1.268s1.868-0.469,3.04-0.469c0.371,0,0.745,0.021,1.121,0.066
			c0.376,0.043,0.725,0.1,1.047,0.168s0.596,0.146,0.82,0.234s0.374,0.164,0.447,0.227c0.073,0.064,0.129,0.135,0.168,0.213
			s0.071,0.164,0.095,0.256c0.024,0.094,0.042,0.208,0.051,0.345s0.015,0.303,0.015,0.498c0,0.303-0.007,0.555-0.022,0.755
			s-0.042,0.356-0.081,0.469s-0.093,0.192-0.161,0.241s-0.151,0.073-0.249,0.073c-0.117,0-0.269-0.031-0.454-0.096
			c-0.186-0.063-0.41-0.134-0.674-0.212s-0.574-0.146-0.93-0.205s-0.769-0.088-1.238-0.088c-0.791,0-1.46,0.146-2.007,0.439
			s-0.991,0.691-1.333,1.194s-0.591,1.086-0.747,1.75s-0.239,1.367-0.249,2.109c0.215-0.137,0.461-0.273,0.74-0.41
			s0.581-0.254,0.908-0.352s0.681-0.178,1.062-0.242c0.381-0.063,0.786-0.095,1.216-0.095c0.957,0,1.777,0.132,2.461,0.396
			s1.243,0.64,1.677,1.128s0.754,1.079,0.959,1.772S190.367,308.686,190.367,309.535z M186.587,309.901
			c0-0.498-0.044-0.935-0.132-1.312c-0.088-0.375-0.229-0.692-0.425-0.951s-0.454-0.455-0.776-0.586
			c-0.322-0.133-0.713-0.198-1.172-0.198c-0.273,0-0.542,0.024-0.806,0.073s-0.522,0.117-0.776,0.205s-0.498,0.193-0.732,0.314
			c-0.234,0.123-0.454,0.252-0.659,0.389c0,1.045,0.059,1.917,0.176,2.615s0.291,1.252,0.52,1.662s0.518,0.701,0.864,0.871
			c0.347,0.172,0.75,0.257,1.208,0.257c0.449,0,0.842-0.083,1.179-0.249s0.618-0.4,0.842-0.703s0.396-0.656,0.513-1.063
			C186.529,310.822,186.587,310.38,186.587,309.901z"/>
	</g>
</g>
<g id="C-7_1_">
	<g id="C-7">
		<path class="human"  fill="#FFA009" d="M347.212,502.386c3.428-6.477,9.2-24.171,10.543-36.229c1.345-12.061,2.755-16.085-8.128-20.68
			c-10.889-4.592-26.125-10.487-37.057-20.436c-10.934-9.948-13.152-15.953-19.688-19.242c-6.536-3.29-5.778,0.718-12.321-3.242
			c-6.541-3.961-6.67-19.353-9.67-32.045c-3-12.688-5.158-11.334-11.711-16.633c-6.555-5.299-8.759-9.296-16.012-11.911
			c-7.255-2.613-9.395,0.749-22.396,2.868c-12.999,2.117-23.873-1.14-39.026,3.005c-15.15,4.146-18.76,4.844-22.996,16.928
			c-4.238,12.082-7.813,16.797-8.47,24.834c-0.654,8.035,0.82,11.369,0.82,11.369s15.779-15.525,34.54-20.369
			c18.763-4.843,20.902-8.205,27.422-6.925c6.52,1.285,13.049,3.905,11.648,9.272c-1.4,5.363-6.35,18.795-1.971,23.438
			c4.378,4.648,8.802,14.651,16.055,17.268c7.255,2.616,13.028,1.228,18.097,1.854c5.065,0.625,8.672-0.744,12.349,6.587
			c3.68,7.331,0.799,8.694-2.05,14.073c-2.849,5.377-3.521,11.408,1.561,13.371c5.077,1.965,18.15,8.548,37.047,19.765
			c18.898,11.222,26.19,18.521,31.282,21.823C342.17,504.438,345.081,506.42,347.212,502.386z"/>
	</g>
	<g opacity="0.7" enable-background="new  ">
		<path class="human"  d="M128.182,371.989c0,0.244-0.007,0.452-0.022,0.623s-0.037,0.317-0.066,0.439s-0.068,0.227-0.117,0.314
			s-0.127,0.188-0.234,0.301s-0.315,0.256-0.623,0.432s-0.684,0.344-1.128,0.506c-0.444,0.16-0.952,0.295-1.523,0.402
			s-1.189,0.161-1.853,0.161c-1.299,0-2.471-0.2-3.516-0.601s-1.934-0.998-2.666-1.795c-0.732-0.795-1.294-1.789-1.685-2.98
			s-0.586-2.578-0.586-4.16c0-1.611,0.215-3.042,0.645-4.292s1.03-2.3,1.802-3.149s1.697-1.494,2.776-1.934s2.268-0.659,3.567-0.659
			c0.527,0,1.035,0.044,1.523,0.132s0.94,0.203,1.355,0.344c0.415,0.143,0.789,0.306,1.121,0.491s0.564,0.345,0.696,0.476
			c0.132,0.133,0.222,0.242,0.271,0.33s0.088,0.2,0.117,0.337s0.051,0.298,0.066,0.483s0.022,0.415,0.022,0.688
			c0,0.293-0.01,0.542-0.029,0.747s-0.054,0.371-0.103,0.498s-0.107,0.22-0.176,0.278s-0.146,0.088-0.234,0.088
			c-0.146,0-0.332-0.085-0.557-0.257c-0.225-0.17-0.515-0.36-0.872-0.57s-0.781-0.4-1.274-0.572
			c-0.493-0.17-1.082-0.256-1.765-0.256c-0.752,0-1.423,0.154-2.014,0.461c-0.591,0.309-1.094,0.748-1.509,1.318
			c-0.415,0.572-0.73,1.263-0.945,2.073s-0.322,1.724-0.322,2.739c0,1.113,0.115,2.078,0.344,2.893
			c0.229,0.816,0.557,1.487,0.981,2.015s0.938,0.921,1.538,1.179c0.601,0.26,1.277,0.389,2.029,0.389
			c0.684,0,1.274-0.08,1.772-0.242c0.498-0.16,0.925-0.339,1.282-0.534s0.649-0.371,0.879-0.527s0.408-0.234,0.535-0.234
			c0.098,0,0.176,0.02,0.234,0.059s0.107,0.117,0.146,0.234s0.068,0.281,0.088,0.491S128.182,371.638,128.182,371.989z"/>
		<path class="human"  d="M137.206,367.492c0,0.566-0.054,0.962-0.161,1.187s-0.278,0.337-0.513,0.337h-6.094c-0.244,0-0.42-0.114-0.527-0.345
			c-0.107-0.229-0.161-0.622-0.161-1.179c0-0.547,0.054-0.933,0.161-1.157s0.283-0.337,0.527-0.337h6.094
			c0.117,0,0.217,0.024,0.3,0.073s0.154,0.132,0.212,0.249s0.1,0.273,0.125,0.469S137.206,367.219,137.206,367.492z"/>
		<path class="human"  d="M152.059,357.531c0,0.283-0.01,0.53-0.029,0.739c-0.02,0.211-0.046,0.406-0.081,0.586
			c-0.034,0.182-0.081,0.352-0.139,0.514c-0.059,0.16-0.127,0.334-0.205,0.52l-6.24,14.458c-0.059,0.127-0.134,0.229-0.227,0.308
			s-0.222,0.139-0.388,0.184c-0.166,0.043-0.378,0.072-0.637,0.088c-0.259,0.014-0.579,0.021-0.959,0.021
			c-0.518,0-0.928-0.018-1.23-0.051c-0.303-0.035-0.525-0.088-0.667-0.162c-0.142-0.072-0.217-0.165-0.227-0.277
			s0.024-0.252,0.103-0.418l6.709-14.795h-7.969c-0.205,0-0.359-0.134-0.461-0.402s-0.154-0.696-0.154-1.282
			c0-0.293,0.015-0.544,0.044-0.755c0.029-0.209,0.071-0.383,0.125-0.52s0.117-0.234,0.19-0.293s0.159-0.088,0.256-0.088h11.265
			c0.176,0,0.322,0.018,0.439,0.051c0.117,0.035,0.21,0.11,0.278,0.228s0.12,0.283,0.154,0.498S152.059,357.18,152.059,357.531z"/>
	</g>
</g>
</svg>
