<?xml version="1.0" encoding="utf-8"?>
<!-- Generator: Adobe Illustrator 16.0.0, SVG Export Plug-In . SVG Version: 6.00 Build 0)  -->
<!DOCTYPE svg PUBLIC "-//W3C//DTD SVG 1.1//EN" "http://www.w3.org/Graphics/SVG/1.1/DTD/svg11.dtd">
<svg version="1.1" id="Layer_1" xmlns="http://www.w3.org/2000/svg" xmlns:xlink="http://www.w3.org/1999/xlink" x="0px" y="0px"
	 width="512px" height="512px" viewBox="0 0 512 512" enable-background="new 0 0 512 512" xml:space="preserve">
<path fill="#394046" d="M212.605,377.922c-5.86-28.811-10.204-100.35-12.891-122.839c-2.683-22.49,10.481-88.405,17.788-109.248
	c4.791-13.658,21.98-63.063,34.688-104.967l-23.975-9.616c-10.203,20.826-25.667,48.349-35.812,75.802
	c-12.196,33.005-27.919,98.008-29.411,143.044c-1.491,45.036,9.141,136.248,13.706,159.875c2.101,10.868,8.732,42.71,16.063,79.986
	l43.596-12.485C228.234,445.405,217.312,401.073,212.605,377.922z"/>
<g id="T-1">
	<g id="XMLID_121_">
		<path fill="#00B2BF" d="M250.163,50.727c-2.946-1.605-10.241-4.081-15.071-7.374c-4.832-3.293-9.673-7.975-11.784-9.069
			c-2.11-1.093-3.899,0.311-5.711-1.063c-1.813-1.374-3.033-3.586-4.272-8.021c-1.236-4.434-2.497-11.37-5.816-13.564
			c-3.32-2.194-4.237-4.132-8.443-4.651c-4.207-0.521-17.704,0.982-23.107,1.028c-5.403,0.046-7.189,1.728-9.545,7.303
			c-2.354,5.577-3.192,12.807-2.883,13.916c0.309,1.109,1.817,1.93,3.904,0.245s7.745-7.011,12.832-8.998
			c5.088-1.988,7.779-3.122,10.193-1.476c2.415,1.647,3.058,6.365,1.882,9.43c-1.177,3.066-2.063,4.462-0.249,6.114
			c1.816,1.652,4.264,7.188,6.371,8.003c2.109,0.815,5.115,1.345,8.716,1.037c3.6-0.308,5.69-1.438,5.424,2.455
			c-0.268,3.891-1.774,3.07-2.659,5.023c-0.885,1.952-0.865,4.452,1.847,5.54c2.711,1.088,8.129,2.709,15.37,7.094
			c7.241,4.383,11.479,8.514,13.293,9.888c1.811,1.374,4.216,1.909,4.493-0.871c0.276-2.781-0.309-3.14,2.021-9.463
			c2.057-5.573,3.848-6.7,4.729-8.929C252.577,52.095,251.672,51.547,250.163,50.727z"/>
	</g>
	<g opacity="0.7" enable-background="new  ">
		<path d="M134.799,11.004c0,0.245-0.011,0.455-0.032,0.629c-0.021,0.173-0.053,0.313-0.095,0.418
			c-0.042,0.106-0.095,0.185-0.159,0.235s-0.133,0.076-0.209,0.076h-4.113v13.241c0,0.085-0.027,0.161-0.083,0.229
			s-0.146,0.123-0.273,0.165s-0.298,0.076-0.514,0.102s-0.484,0.038-0.806,0.038s-0.59-0.013-0.806-0.038s-0.387-0.06-0.514-0.102
			s-0.218-0.098-0.273-0.165s-0.083-0.144-0.083-0.229V12.362h-4.113c-0.084,0-0.157-0.025-0.216-0.076s-0.11-0.129-0.152-0.235
			c-0.042-0.105-0.074-0.245-0.095-0.418c-0.021-0.174-0.032-0.384-0.032-0.629c0-0.254,0.011-0.47,0.032-0.647
			s0.053-0.319,0.095-0.425c0.042-0.106,0.093-0.183,0.152-0.229c0.059-0.047,0.131-0.07,0.216-0.07h11.578
			c0.076,0,0.146,0.023,0.209,0.07c0.063,0.046,0.116,0.122,0.159,0.229c0.042,0.105,0.074,0.247,0.095,0.425
			S134.799,10.75,134.799,11.004z"/>
		<path d="M140.385,19.675c0,0.491-0.046,0.834-0.14,1.028s-0.241,0.292-0.444,0.292h-5.281c-0.211,0-0.364-0.1-0.457-0.298
			c-0.093-0.199-0.14-0.54-0.14-1.022c0-0.474,0.046-0.809,0.14-1.003s0.246-0.292,0.457-0.292h5.281
			c0.102,0,0.188,0.021,0.26,0.063s0.133,0.114,0.184,0.216s0.087,0.237,0.108,0.406S140.385,19.438,140.385,19.675z"/>
		<path d="M153.119,24.791c0,0.237-0.013,0.438-0.038,0.604c-0.025,0.164-0.062,0.296-0.108,0.393
			c-0.046,0.098-0.1,0.168-0.159,0.21s-0.127,0.063-0.203,0.063h-9.064c-0.068,0-0.131-0.021-0.19-0.063s-0.112-0.112-0.159-0.21
			c-0.046-0.097-0.083-0.229-0.108-0.393c-0.025-0.166-0.038-0.366-0.038-0.604c0-0.245,0.011-0.451,0.032-0.615
			c0.021-0.166,0.055-0.299,0.102-0.4s0.1-0.176,0.159-0.223c0.059-0.046,0.127-0.069,0.203-0.069h3.06V12.794l-2.641,1.46
			c-0.195,0.093-0.354,0.15-0.476,0.172c-0.123,0.021-0.22-0.005-0.292-0.076c-0.072-0.072-0.121-0.197-0.146-0.375
			s-0.038-0.428-0.038-0.749c0-0.203,0.004-0.37,0.013-0.501c0.008-0.132,0.03-0.244,0.063-0.337s0.081-0.169,0.14-0.229
			s0.14-0.123,0.241-0.19L147,9.684c0.042-0.034,0.095-0.062,0.159-0.082c0.063-0.021,0.146-0.039,0.248-0.051
			c0.102-0.014,0.235-0.021,0.4-0.025c0.165-0.005,0.379-0.007,0.641-0.007c0.322,0,0.582,0.007,0.781,0.019
			c0.199,0.014,0.349,0.034,0.451,0.064c0.102,0.029,0.169,0.069,0.203,0.12s0.051,0.114,0.051,0.19v13.571h2.679
			c0.076,0,0.146,0.023,0.209,0.069c0.063,0.047,0.119,0.121,0.165,0.223s0.081,0.234,0.102,0.4
			C153.108,24.34,153.119,24.546,153.119,24.791z"/>
	</g>
</g>
<g id="T-2">
	<g id="XMLID_122_">
		<path fill="#00B2BF" d="M239.316,81.377c-5.453-2.109-9.629-2.696-17.177-7.634c-7.546-4.937-10.273-8.248-11.179-8.517
			c-0.901-0.271-2.995,0.859-5.711-1.063c-2.719-1.921-4.547-5.24-5.493-10.51c-0.943-5.271-0.361-7.221-4.581-9.408
			c-4.222-2.186-6.057-6.061-8.457-6.04c-2.401,0.02-9.893,1.75-17.385,2.925c-7.496,1.174-8.712-0.76-12.272,4.271
			c-3.561,5.031-5.035,8.099-5.007,11.433c0.028,3.333-0.865,4.174,0.344,4.998c1.206,0.822,4.196-0.591,7.471-3.675
			c3.277-3.083,7.47-4.23,10.47-4.255c3.003-0.025,6.918,1.608,6.66,6.611c-0.256,5.002-2.635,7.801-2.017,10.019
			c0.621,2.216,3.035,3.863,5.151,5.513c2.115,1.648,3.93,3.299,7.506,0.214c3.575-3.086,5.047-6.71,9.27-4.246
			c4.224,2.465,5.451,5.51,3.07,8.308c-2.376,2.798-3.563,4.476-1.151,5.567c2.41,1.091,8.746,4.649,16.584,8.75
			c7.84,4.1,10.565,7.134,12.68,8.505c2.11,1.371,4.241,4.409,5.417,1.621c1.175-2.788,0.254-5.281,2.309-10.854
			c2.056-5.575,4.746-6.708,5.627-8.938C242.328,82.741,241.424,82.193,239.316,81.377z"/>
	</g>
	<g opacity="0.7" enable-background="new  ">
		<path d="M122.799,44.004c0,0.245-0.011,0.455-0.032,0.629c-0.021,0.173-0.053,0.313-0.095,0.418
			c-0.042,0.106-0.095,0.185-0.159,0.235s-0.133,0.076-0.209,0.076h-4.113v13.241c0,0.085-0.027,0.161-0.083,0.229
			s-0.146,0.123-0.273,0.165s-0.298,0.076-0.514,0.102s-0.484,0.038-0.806,0.038s-0.59-0.013-0.806-0.038s-0.387-0.06-0.514-0.102
			s-0.218-0.098-0.273-0.165s-0.083-0.144-0.083-0.229V45.362h-4.113c-0.084,0-0.157-0.025-0.216-0.076s-0.11-0.129-0.152-0.235
			c-0.042-0.105-0.074-0.245-0.095-0.418c-0.021-0.174-0.032-0.384-0.032-0.629c0-0.254,0.011-0.47,0.032-0.647
			s0.053-0.319,0.095-0.425c0.042-0.106,0.093-0.183,0.152-0.229c0.059-0.047,0.131-0.07,0.216-0.07h11.578
			c0.076,0,0.146,0.023,0.209,0.07c0.063,0.046,0.116,0.122,0.159,0.229c0.042,0.105,0.074,0.247,0.095,0.425
			S122.799,43.75,122.799,44.004z"/>
		<path d="M128.385,52.675c0,0.491-0.046,0.834-0.14,1.028s-0.241,0.292-0.444,0.292h-5.281c-0.211,0-0.364-0.1-0.457-0.298
			c-0.093-0.199-0.14-0.54-0.14-1.022c0-0.474,0.046-0.809,0.14-1.003s0.246-0.292,0.457-0.292h5.281
			c0.102,0,0.188,0.021,0.26,0.063s0.133,0.114,0.184,0.216s0.087,0.237,0.108,0.406S128.385,52.438,128.385,52.675z"/>
		<path d="M141.271,57.702c0,0.245-0.011,0.455-0.032,0.628c-0.021,0.174-0.053,0.315-0.095,0.426s-0.097,0.188-0.165,0.234
			c-0.068,0.047-0.144,0.07-0.229,0.07h-9.445c-0.186,0-0.347-0.017-0.482-0.051s-0.246-0.1-0.33-0.197
			c-0.084-0.097-0.146-0.238-0.184-0.425s-0.057-0.428-0.057-0.724c0-0.279,0.013-0.519,0.038-0.717
			c0.025-0.199,0.072-0.377,0.14-0.533c0.068-0.157,0.154-0.31,0.26-0.457c0.106-0.148,0.243-0.312,0.413-0.489l2.844-3.047
			c0.567-0.593,1.024-1.132,1.371-1.618c0.347-0.487,0.618-0.932,0.813-1.334c0.195-0.401,0.328-0.771,0.4-1.11
			s0.108-0.66,0.108-0.965c0-0.279-0.044-0.544-0.133-0.794c-0.089-0.249-0.22-0.467-0.394-0.653s-0.392-0.332-0.654-0.438
			c-0.262-0.105-0.571-0.158-0.927-0.158c-0.5,0-0.941,0.063-1.327,0.19s-0.724,0.269-1.016,0.425
			c-0.292,0.157-0.535,0.301-0.73,0.432c-0.195,0.132-0.347,0.197-0.457,0.197c-0.076,0-0.142-0.025-0.197-0.076
			s-0.1-0.136-0.133-0.254s-0.062-0.277-0.083-0.477c-0.021-0.198-0.032-0.441-0.032-0.729c0-0.194,0.006-0.357,0.019-0.489
			c0.013-0.131,0.032-0.245,0.057-0.342c0.025-0.098,0.059-0.183,0.102-0.254c0.042-0.072,0.116-0.159,0.222-0.261
			s0.3-0.23,0.584-0.388c0.284-0.156,0.633-0.309,1.047-0.457c0.415-0.147,0.872-0.272,1.371-0.374s1.02-0.152,1.562-0.152
			c0.855,0,1.602,0.108,2.241,0.323c0.639,0.217,1.17,0.517,1.593,0.902c0.423,0.385,0.738,0.842,0.946,1.371
			c0.208,0.528,0.311,1.098,0.311,1.707c0,0.533-0.051,1.058-0.152,1.574s-0.313,1.072-0.635,1.67
			c-0.322,0.596-0.774,1.256-1.358,1.98c-0.584,0.723-1.358,1.563-2.323,2.52l-1.917,1.968h6.475c0.084,0,0.163,0.025,0.235,0.076
			s0.133,0.129,0.184,0.235c0.051,0.105,0.089,0.245,0.114,0.418C141.258,57.26,141.271,57.465,141.271,57.702z"/>
	</g>
</g>
<g id="T-3">
	<g id="XMLID_123_">
		<path fill="#00B2BF" d="M230.289,114.513c-1.661,4.336-2.651,5.856-4.118,9.759c-1.472,3.902,0.062,7.5-1.13,8.621
			c-1.189,1.122-2.386,1.688-4.794,0.875c-2.409-0.813-9.348-4.922-16.572-7.361c-7.226-2.439-12.054-5.454-14.459-5.712
			c-2.404-0.257-3.612-1.358-2.14-4.705c1.473-3.347,1.724-9.183-1.291-10.546c-3.013-1.364-6.31-0.781-8.692,1.462
			c-2.382,2.243-3.568,3.919-5.076,3.1c-1.509-0.821-7.524-2.159-9.336-3.533c-1.813-1.374-1.23-3.601-1.263-7.213
			c-0.028-3.61-2.46-7.202-5.459-6.898c-3,0.303-10.466,4.812-14.046,7.342c-3.582,2.531-4.162,5.036-5.662,5.048
			c-1.501,0.012-3.673-8.303,0.473-15.006c4.146-6.702,7.116-10.616,13.406-12.06c6.292-1.441,16.19-2.359,18.284-3.209
			c2.095-0.852,2.999-0.582,4.813,1.069c1.814,1.652,6.95,5.498,8.468,7.43c1.518,1.933,0.333,3.886,1.263,7.213
			c0.927,3.326,3.952,6.078,7.251,5.773c3.3-0.306,2.991-1.415,5.706,0.229s8.755,5.761,16.882,8.47
			c8.128,2.709,13.547,4.607,15.654,5.146C230.556,110.344,231.464,111.447,230.289,114.513z"/>
	</g>
	<g opacity="0.7" enable-background="new  ">
		<path d="M104.799,88.004c0,0.245-0.011,0.455-0.032,0.629c-0.021,0.173-0.053,0.313-0.095,0.418
			c-0.042,0.106-0.095,0.185-0.159,0.235s-0.133,0.076-0.209,0.076h-4.113v13.241c0,0.085-0.027,0.161-0.083,0.229
			s-0.146,0.123-0.273,0.165s-0.298,0.076-0.514,0.102s-0.484,0.038-0.806,0.038s-0.59-0.013-0.806-0.038s-0.387-0.06-0.514-0.102
			s-0.218-0.098-0.273-0.165s-0.083-0.144-0.083-0.229V89.362h-4.113c-0.084,0-0.157-0.025-0.216-0.076s-0.11-0.129-0.152-0.235
			c-0.042-0.105-0.074-0.245-0.095-0.418c-0.021-0.174-0.032-0.384-0.032-0.629c0-0.254,0.011-0.47,0.032-0.647
			s0.053-0.319,0.095-0.425c0.042-0.106,0.093-0.183,0.152-0.229c0.059-0.047,0.131-0.07,0.216-0.07h11.578
			c0.076,0,0.146,0.023,0.209,0.07c0.063,0.046,0.116,0.122,0.159,0.229c0.042,0.105,0.074,0.247,0.095,0.425
			S104.799,87.75,104.799,88.004z"/>
		<path d="M110.385,96.675c0,0.491-0.046,0.834-0.14,1.028s-0.241,0.292-0.444,0.292h-5.281c-0.211,0-0.364-0.1-0.457-0.298
			c-0.093-0.199-0.14-0.54-0.14-1.022c0-0.474,0.046-0.809,0.14-1.003s0.246-0.292,0.457-0.292h5.281
			c0.102,0,0.188,0.021,0.26,0.063s0.133,0.114,0.184,0.216s0.087,0.237,0.108,0.406S110.385,96.438,110.385,96.675z"/>
		<path d="M123.195,98.249c0,0.821-0.157,1.549-0.47,2.184s-0.749,1.168-1.308,1.6s-1.227,0.76-2.006,0.983
			c-0.779,0.225-1.629,0.337-2.552,0.337c-0.559,0-1.083-0.04-1.574-0.12c-0.491-0.081-0.925-0.181-1.301-0.299
			s-0.688-0.241-0.933-0.368s-0.406-0.225-0.482-0.292s-0.133-0.144-0.171-0.229s-0.072-0.184-0.102-0.299
			c-0.03-0.113-0.051-0.258-0.063-0.432c-0.013-0.173-0.019-0.383-0.019-0.628c0-0.406,0.034-0.688,0.102-0.845
			c0.068-0.156,0.169-0.234,0.305-0.234c0.084,0,0.23,0.057,0.438,0.172c0.208,0.113,0.472,0.236,0.793,0.367
			c0.322,0.132,0.698,0.254,1.13,0.369c0.432,0.113,0.922,0.171,1.473,0.171c0.465,0,0.876-0.055,1.231-0.165
			s0.658-0.265,0.908-0.463c0.25-0.199,0.436-0.44,0.559-0.725c0.123-0.283,0.184-0.599,0.184-0.945
			c0-0.381-0.074-0.724-0.222-1.028s-0.368-0.565-0.66-0.78c-0.292-0.217-0.66-0.384-1.104-0.502s-0.967-0.178-1.568-0.178h-1.422
			c-0.11,0-0.203-0.015-0.279-0.045c-0.076-0.029-0.14-0.091-0.19-0.184s-0.087-0.223-0.108-0.387
			c-0.021-0.166-0.032-0.379-0.032-0.642c0-0.245,0.011-0.446,0.032-0.603c0.021-0.157,0.055-0.277,0.102-0.362
			s0.106-0.144,0.178-0.178s0.159-0.051,0.26-0.051h1.435c0.491,0,0.927-0.058,1.308-0.171c0.381-0.115,0.7-0.277,0.958-0.489
			s0.455-0.468,0.59-0.769c0.135-0.3,0.203-0.632,0.203-0.996c0-0.279-0.046-0.544-0.14-0.793c-0.093-0.25-0.23-0.466-0.413-0.648
			c-0.182-0.182-0.417-0.325-0.705-0.432c-0.288-0.105-0.626-0.158-1.016-0.158c-0.44,0-0.855,0.065-1.244,0.197
			c-0.389,0.131-0.738,0.274-1.047,0.432c-0.309,0.156-0.571,0.302-0.787,0.438s-0.375,0.203-0.476,0.203
			c-0.068,0-0.127-0.015-0.178-0.045c-0.051-0.029-0.093-0.086-0.127-0.171s-0.059-0.207-0.076-0.368s-0.025-0.368-0.025-0.622
			c0-0.212,0.004-0.388,0.013-0.526c0.008-0.141,0.025-0.257,0.051-0.35s0.057-0.174,0.095-0.241s0.1-0.142,0.184-0.222
			c0.084-0.081,0.258-0.201,0.521-0.362s0.592-0.317,0.99-0.47s0.857-0.281,1.377-0.387c0.521-0.106,1.085-0.159,1.695-0.159
			c0.795,0,1.5,0.093,2.114,0.279s1.13,0.455,1.549,0.806c0.419,0.352,0.736,0.783,0.952,1.295c0.216,0.513,0.324,1.09,0.324,1.733
			c0,0.499-0.063,0.965-0.19,1.396s-0.313,0.816-0.559,1.155s-0.552,0.626-0.92,0.863s-0.793,0.415-1.276,0.533v0.038
			c0.576,0.067,1.092,0.214,1.549,0.438c0.457,0.224,0.844,0.505,1.162,0.844s0.561,0.722,0.73,1.148
			C123.11,97.299,123.195,97.758,123.195,98.249z"/>
	</g>
</g>
<g id="T-4">
	<g id="XMLID_119_">
		<path fill="#00B2BF" d="M219.689,139.05c-5.466-0.795-10.822-1.853-18.649-4.565c-7.828-2.711-13.562-6.274-16.269-7.084
			c-2.708-0.811-2.999,0.303-6.3,0.33c-3.304,0.028-6.019-1.615-7.25-5.217c-1.233-3.601-0.048-5.556-2.16-6.927
			c-2.113-1.371-5.429-3.009-7.538-4.104c-2.112-1.093-3.31-0.805-6.89,1.726c-3.581,2.531-11.379,3.43-16.174,4.304
			c-4.794,0.874-10.159,5.642-12.222,10.104s-2.335,7.798-1.716,10.015c0.618,2.218,2.126,3.038,3.917,1.912s5.071-3.932,9.55-6.748
			c4.478-2.816,5.366-4.212,7.181-2.838c1.81,1.374-0.566,4.171,0.052,6.389c0.618,2.218,0.919,2.214,2.433,3.591
			c1.511,1.376,4.199-0.313,8.114,1.043c3.912,1.356,4.53,3.295,6.326,2.725c1.796-0.571,2.39-1.409,3.271-3.639
			c0.881-2.231,5.055-5.599,8.381-2.849c3.326,2.75,3.948,5.522,2.776,8.866c-1.171,3.344-1.16,4.733-0.85,5.841
			c0.309,1.109,1.214,1.657,3.017,1.919c1.804,0.263,10.22,1.302,17.745,4.017c7.527,2.715,14.465,6.545,16.575,7.639
			c2.109,1.094,3.616,1.636,4.502-0.316c0.883-1.952-0.364-7.499,1.095-12.233c1.463-4.735,2.941-7.248,4.416-10.316
			C224.498,139.565,223.297,139.575,219.689,139.05z"/>
	</g>
	<g opacity="0.7" enable-background="new  ">
		<path d="M94.799,125.003c0,0.245-0.011,0.455-0.032,0.629c-0.021,0.173-0.053,0.313-0.095,0.418
			c-0.042,0.106-0.095,0.185-0.159,0.235s-0.133,0.076-0.209,0.076h-4.113v13.241c0,0.085-0.027,0.161-0.083,0.229
			s-0.146,0.123-0.273,0.165s-0.298,0.076-0.514,0.102s-0.484,0.038-0.806,0.038s-0.59-0.013-0.806-0.038s-0.387-0.06-0.514-0.102
			s-0.218-0.098-0.273-0.165s-0.083-0.144-0.083-0.229v-13.241h-4.113c-0.084,0-0.157-0.025-0.216-0.076s-0.11-0.129-0.152-0.235
			c-0.042-0.105-0.074-0.245-0.095-0.418c-0.021-0.174-0.032-0.384-0.032-0.629c0-0.254,0.011-0.47,0.032-0.647
			s0.053-0.319,0.095-0.425c0.042-0.106,0.093-0.183,0.152-0.229c0.059-0.047,0.131-0.07,0.216-0.07h11.578
			c0.076,0,0.146,0.023,0.209,0.07c0.063,0.046,0.116,0.122,0.159,0.229c0.042,0.105,0.074,0.247,0.095,0.425
			S94.799,124.749,94.799,125.003z"/>
		<path d="M100.385,133.674c0,0.491-0.046,0.834-0.14,1.028s-0.241,0.292-0.444,0.292H94.52c-0.211,0-0.364-0.1-0.457-0.298
			c-0.093-0.199-0.14-0.54-0.14-1.022c0-0.474,0.046-0.809,0.14-1.003s0.246-0.292,0.457-0.292h5.281
			c0.102,0,0.188,0.021,0.26,0.063s0.133,0.114,0.184,0.216s0.087,0.237,0.108,0.406S100.385,133.437,100.385,133.674z"/>
		<path d="M113.779,135.337c0,0.432-0.044,0.76-0.133,0.984c-0.089,0.224-0.209,0.336-0.362,0.336h-1.46v2.971
			c0,0.085-0.025,0.158-0.076,0.223c-0.051,0.063-0.14,0.116-0.267,0.158s-0.292,0.074-0.495,0.096
			c-0.203,0.021-0.465,0.031-0.787,0.031c-0.305,0-0.561-0.011-0.768-0.031c-0.208-0.021-0.373-0.054-0.495-0.096
			s-0.208-0.096-0.254-0.158c-0.046-0.064-0.07-0.138-0.07-0.223v-2.971h-6.284c-0.119,0-0.224-0.015-0.317-0.045
			c-0.093-0.029-0.171-0.097-0.235-0.203c-0.063-0.105-0.11-0.258-0.14-0.457c-0.03-0.198-0.044-0.463-0.044-0.793
			c0-0.271,0.006-0.506,0.019-0.705c0.013-0.198,0.034-0.378,0.063-0.539s0.072-0.313,0.127-0.457s0.125-0.296,0.209-0.457
			l5.104-9.001c0.042-0.076,0.114-0.142,0.216-0.196c0.102-0.056,0.243-0.102,0.425-0.141c0.182-0.037,0.413-0.065,0.692-0.082
			s0.618-0.025,1.016-0.025c0.432,0,0.8,0.011,1.104,0.031c0.305,0.021,0.548,0.056,0.73,0.102c0.182,0.047,0.315,0.104,0.4,0.172
			s0.127,0.148,0.127,0.241v9.89h1.46c0.135,0,0.252,0.104,0.349,0.311C113.73,134.51,113.779,134.854,113.779,135.337z
			 M108.612,126.438h-0.025l-4.329,7.554h4.354V126.438z"/>
	</g>
</g>
<g id="T-5">
	<g id="XMLID_124_">
		<path fill="#00B2BF" d="M210.948,170.239c-4.803,0.04-9.898,0.917-19.825-1.5c-9.926-2.416-13.529-2.664-15.044-4.318
			c-1.516-1.654-1.216-1.656-3.916-1.356c-2.699,0.301-6.575,3.389-9,0.632c-2.424-2.757-3.976-8.856-4.303-11.909
			c-0.325-3.053-3.326-2.75-6.64-4.112c-3.314-1.361-6.336-3.836-9.028-2.702c-2.691,1.134-12.533,8.719-18.79,14.328
			c-6.256,5.609-10.107,11.753-10.677,15.37c-0.57,3.616,0.949,5.826,1.56,6.932c0.609,1.105,2.999-0.304,6.28-2.832
			c3.28-2.527,8.042-7.569,11.351-6.486c3.313,1.083,1.834,3.874,2.748,5.255c0.912,1.381,3.326,2.75,7.84,4.102
			c4.514,1.351,6.928,2.998,9.32,1.866c2.393-1.131,2.655-5.58,4.14-7.259c1.487-1.679,3.879-2.81,7.197-0.894
			c3.32,1.917,2.13,3.038,2.146,5.26c0.021,2.223-1.164,4.177-1.147,6.121c0.016,1.944,2.422,2.48,6.332,3.28
			c3.907,0.801,12.618,1.283,19.846,4c7.226,2.717,12.349,4.897,14.753,5.432c2.407,0.536,3.601-0.308,3.581-2.809
			c-0.022-2.5-1.249-5.545-0.386-9.999c0.862-4.452,3.826-8.921,4.398-12.26C214.258,171.044,213.35,170.219,210.948,170.239z"/>
	</g>
	<g opacity="0.7" enable-background="new  ">
		<path d="M83.799,166.003c0,0.245-0.011,0.455-0.032,0.629c-0.021,0.173-0.053,0.313-0.095,0.418
			c-0.042,0.106-0.095,0.185-0.159,0.235s-0.133,0.076-0.209,0.076h-4.113v13.241c0,0.085-0.027,0.161-0.083,0.229
			s-0.146,0.123-0.273,0.165s-0.298,0.076-0.514,0.102s-0.484,0.038-0.806,0.038s-0.59-0.013-0.806-0.038s-0.387-0.06-0.514-0.102
			s-0.218-0.098-0.273-0.165s-0.083-0.144-0.083-0.229v-13.241h-4.113c-0.084,0-0.157-0.025-0.216-0.076s-0.11-0.129-0.152-0.235
			c-0.042-0.105-0.074-0.245-0.095-0.418c-0.021-0.174-0.032-0.384-0.032-0.629c0-0.254,0.011-0.47,0.032-0.647
			s0.053-0.319,0.095-0.425c0.042-0.106,0.093-0.183,0.152-0.229c0.059-0.047,0.131-0.07,0.216-0.07h11.578
			c0.076,0,0.146,0.023,0.209,0.07c0.063,0.046,0.116,0.122,0.159,0.229c0.042,0.105,0.074,0.247,0.095,0.425
			S83.799,165.749,83.799,166.003z"/>
		<path d="M89.385,174.674c0,0.491-0.046,0.834-0.14,1.028s-0.241,0.292-0.444,0.292H83.52c-0.211,0-0.364-0.1-0.457-0.298
			c-0.093-0.199-0.14-0.54-0.14-1.022c0-0.474,0.046-0.809,0.14-1.003s0.246-0.292,0.457-0.292h5.281
			c0.102,0,0.188,0.021,0.26,0.063s0.133,0.114,0.184,0.216s0.087,0.237,0.108,0.406S89.385,174.437,89.385,174.674z"/>
		<path d="M102.119,175.728c0,0.889-0.154,1.682-0.463,2.381c-0.309,0.697-0.745,1.286-1.308,1.764
			c-0.563,0.479-1.24,0.845-2.031,1.099s-1.669,0.381-2.634,0.381c-0.508,0-0.99-0.032-1.447-0.095
			c-0.457-0.064-0.868-0.145-1.231-0.242c-0.364-0.097-0.662-0.194-0.895-0.291c-0.233-0.098-0.385-0.178-0.457-0.242
			c-0.072-0.063-0.125-0.133-0.159-0.209s-0.062-0.167-0.083-0.273c-0.021-0.105-0.036-0.238-0.044-0.399s-0.013-0.352-0.013-0.571
			c0-0.237,0.008-0.438,0.025-0.604c0.017-0.164,0.044-0.298,0.083-0.399s0.083-0.174,0.133-0.216s0.11-0.063,0.178-0.063
			c0.084,0,0.214,0.049,0.387,0.146c0.173,0.098,0.402,0.206,0.686,0.324s0.628,0.227,1.035,0.324
			c0.406,0.097,0.893,0.146,1.46,0.146c0.491,0,0.938-0.051,1.339-0.152s0.743-0.265,1.022-0.489
			c0.279-0.224,0.495-0.505,0.647-0.844s0.229-0.745,0.229-1.219c0-0.406-0.063-0.768-0.19-1.086
			c-0.127-0.316-0.326-0.586-0.597-0.806s-0.622-0.385-1.054-0.495s-0.957-0.165-1.574-0.165c-0.491,0-0.938,0.025-1.339,0.076
			s-0.781,0.076-1.136,0.076c-0.246,0-0.421-0.062-0.527-0.185c-0.106-0.122-0.159-0.349-0.159-0.679v-7.135
			c0-0.339,0.065-0.582,0.197-0.729c0.131-0.148,0.341-0.223,0.628-0.223h7.782c0.076,0,0.148,0.025,0.216,0.076
			s0.125,0.131,0.171,0.241s0.081,0.256,0.102,0.438c0.021,0.182,0.032,0.399,0.032,0.653c0,0.508-0.044,0.876-0.133,1.104
			s-0.218,0.343-0.387,0.343h-5.84v3.517c0.296-0.034,0.59-0.055,0.882-0.063s0.599-0.013,0.92-0.013
			c0.889,0,1.678,0.104,2.368,0.311c0.69,0.208,1.27,0.513,1.739,0.914c0.47,0.402,0.827,0.902,1.073,1.498
			C101.996,174.249,102.119,174.94,102.119,175.728z"/>
	</g>
</g>
<g id="T-6">
	<g id="XMLID_125_">
		<path fill="#00B2BF" d="M203.83,204.191c-4.769,0.532-13.6,0.857-22.011,0.187c-8.411-0.669-10.815-1.02-13.628-2.478
			c-2.817-1.458-1.617-1.839-6.013-1.061c-4.396,0.778-9.987,2.307-10.414-0.653c-0.424-2.96,1.952-5.943,0.735-7.785
			c-1.216-1.842-0.82-2.216-6.031-3.282c-5.211-1.068-8.839-4.001-11.222-1.758c-1.986,1.869-3.964,4.479-8.73,8.964
			c-4.765,4.485-11.909,11.583-15.063,17.166c-3.155,5.583-3.546,6.698-2.724,9.283c0.823,2.586,2.427,2.942,6.013,1.061
			c3.585-1.882,7.15-6.357,14.764-5.311c7.613,1.047,12.428,2.488,14.442,3.953c2.013,1.465,2.423,2.572,3.999-0.404
			c1.576-2.978,1.929-8.536,5.925-9.311c3.995-0.775,7.226,2.531,8.048,5.118c0.822,2.585-1.558,5.199-1.536,7.791
			c0.022,2.593-0.77,3.711,3.633,3.675c4.403-0.038,10.406-0.088,18.813,0.211c8.41,0.299,13.679,1.262,16.834,2.821
			c4.421,2.186,6-0.42,5.975-3.384c-0.023-2.963-1.255-6.286-0.497-11.479c0.758-5.191,2.74-7.431,3.111-10.768
			C208.627,203.411,207.429,203.792,203.83,204.191z"/>
	</g>
	<g opacity="0.7" enable-background="new  ">
		<path d="M79.799,212.003c0,0.245-0.011,0.455-0.032,0.629c-0.021,0.173-0.053,0.313-0.095,0.418
			c-0.042,0.106-0.095,0.185-0.159,0.235s-0.133,0.076-0.209,0.076h-4.113v13.241c0,0.085-0.027,0.161-0.083,0.229
			s-0.146,0.123-0.273,0.165s-0.298,0.076-0.514,0.102s-0.484,0.038-0.806,0.038s-0.59-0.013-0.806-0.038s-0.387-0.06-0.514-0.102
			s-0.218-0.098-0.273-0.165s-0.083-0.144-0.083-0.229v-13.241h-4.113c-0.084,0-0.157-0.025-0.216-0.076s-0.11-0.129-0.152-0.235
			c-0.042-0.105-0.074-0.245-0.095-0.418c-0.021-0.174-0.032-0.384-0.032-0.629c0-0.254,0.011-0.47,0.032-0.647
			s0.053-0.319,0.095-0.425c0.042-0.106,0.093-0.183,0.152-0.229c0.059-0.047,0.131-0.07,0.216-0.07h11.578
			c0.076,0,0.146,0.023,0.209,0.07c0.063,0.046,0.116,0.122,0.159,0.229c0.042,0.105,0.074,0.247,0.095,0.425
			S79.799,211.749,79.799,212.003z"/>
		<path d="M85.385,220.674c0,0.491-0.046,0.834-0.14,1.028s-0.241,0.292-0.444,0.292H79.52c-0.211,0-0.364-0.1-0.457-0.298
			c-0.093-0.199-0.14-0.54-0.14-1.022c0-0.474,0.046-0.809,0.14-1.003s0.246-0.292,0.457-0.292h5.281
			c0.102,0,0.188,0.021,0.26,0.063s0.133,0.114,0.184,0.216s0.087,0.237,0.108,0.406S85.385,220.437,85.385,220.674z"/>
		<path d="M98.525,221.575c0,0.829-0.127,1.598-0.381,2.305c-0.254,0.706-0.626,1.315-1.117,1.828
			c-0.491,0.512-1.096,0.914-1.815,1.205c-0.719,0.293-1.549,0.438-2.488,0.438c-0.762,0-1.426-0.087-1.993-0.261
			c-0.567-0.173-1.058-0.423-1.473-0.748c-0.415-0.326-0.753-0.722-1.016-1.188s-0.472-0.99-0.628-1.574s-0.265-1.219-0.324-1.904
			s-0.089-1.413-0.089-2.184c0-0.644,0.032-1.316,0.095-2.019s0.186-1.393,0.368-2.069s0.438-1.322,0.768-1.936
			c0.33-0.614,0.755-1.151,1.276-1.613c0.521-0.461,1.151-0.827,1.892-1.098s1.619-0.406,2.634-0.406
			c0.322,0,0.646,0.02,0.971,0.057c0.326,0.039,0.628,0.087,0.908,0.146s0.516,0.127,0.711,0.203s0.324,0.142,0.387,0.197
			c0.063,0.055,0.112,0.116,0.146,0.184s0.062,0.142,0.083,0.223c0.021,0.08,0.036,0.18,0.044,0.298s0.013,0.263,0.013,0.432
			c0,0.263-0.006,0.48-0.019,0.653c-0.013,0.174-0.036,0.31-0.07,0.406c-0.034,0.098-0.081,0.168-0.14,0.21
			s-0.131,0.063-0.216,0.063c-0.102,0-0.233-0.027-0.394-0.082c-0.161-0.056-0.355-0.117-0.584-0.185s-0.497-0.127-0.806-0.178
			s-0.667-0.076-1.073-0.076c-0.686,0-1.265,0.127-1.739,0.381s-0.859,0.599-1.155,1.034c-0.296,0.437-0.512,0.942-0.647,1.518
			s-0.208,1.185-0.216,1.828c0.186-0.118,0.4-0.237,0.641-0.355s0.503-0.22,0.787-0.305s0.59-0.154,0.92-0.209
			c0.33-0.056,0.681-0.083,1.054-0.083c0.83,0,1.541,0.114,2.133,0.343s1.077,0.555,1.454,0.978s0.654,0.936,0.832,1.536
			S98.525,220.839,98.525,221.575z M95.25,221.893c0-0.432-0.038-0.811-0.114-1.136c-0.076-0.326-0.199-0.602-0.368-0.826
			c-0.169-0.224-0.394-0.393-0.673-0.508c-0.279-0.113-0.618-0.171-1.016-0.171c-0.237,0-0.47,0.021-0.698,0.063
			s-0.453,0.102-0.673,0.178s-0.432,0.167-0.635,0.273c-0.203,0.105-0.394,0.218-0.571,0.336c0,0.905,0.051,1.661,0.152,2.266
			c0.102,0.605,0.252,1.086,0.451,1.441s0.449,0.607,0.749,0.756c0.3,0.147,0.649,0.222,1.047,0.222c0.389,0,0.73-0.072,1.022-0.216
			s0.535-0.347,0.73-0.609s0.343-0.569,0.444-0.92C95.199,222.69,95.25,222.308,95.25,221.893z"/>
	</g>
</g>
<g id="T-7">
	<g id="XMLID_127_">
		<path fill="#00B2BF" d="M199.322,239.049c-6.018,0.052-12.394,1.586-20.803,1.287c-8.407-0.299-14.022-1.734-16.827-2.08
			c-2.805-0.347-0.776,2.97-5.573,3.751c-4.796,0.782-6.817-1.424-7.641-4.38c-0.825-2.956,1.551-5.939-0.856-6.66
			c-2.409-0.721-6.403,0.054-9.214-1.034c-2.812-1.087-6.033-3.283-7.625-2.528c-1.596,0.753,0.433,4.07-2.353,5.946
			c-2.785,1.875-10.368,4.532-16.292,13.843c-5.925,9.311-6.279,14.869-5.847,18.57c0.431,3.7,1.253,6.286,5.246,5.145
			c3.993-1.146,6.75-6.354,13.142-7.893c6.391-1.535,12.016,1.01,15.221,1.354c3.204,0.343,6.805-0.06,8.397-0.813
			c1.596-0.754-1.635-4.061-0.057-6.666c1.58-2.605,3.156-5.583,7.177-3.396c4.021,2.189,5.231,3.289,5.262,6.994
			c0.032,3.704-0.346,6.3-0.736,7.413c-0.392,1.115,1.225,2.953,4.017,1.818c2.792-1.136,6.377-3.019,16.386-2.731
			c10.01,0.286,15.609-0.132,19.215,0.209c3.604,0.341,4.809,0.7,4.781-2.634c-0.029-3.334-1.655-6.283-1.695-11.101
			c-0.043-4.814,2.722-9.282,2.302-11.872C204.525,239.006,202.923,239.019,199.322,239.049z"/>
	</g>
	<g opacity="0.7" enable-background="new  ">
		<path d="M76.799,258.003c0,0.245-0.011,0.455-0.032,0.629c-0.021,0.173-0.053,0.313-0.095,0.418
			c-0.042,0.106-0.095,0.185-0.159,0.235s-0.133,0.076-0.209,0.076h-4.113v13.241c0,0.085-0.027,0.161-0.083,0.229
			s-0.146,0.123-0.273,0.165s-0.298,0.076-0.514,0.102s-0.484,0.038-0.806,0.038s-0.59-0.013-0.806-0.038s-0.387-0.06-0.514-0.102
			s-0.218-0.098-0.273-0.165s-0.083-0.144-0.083-0.229v-13.241h-4.113c-0.084,0-0.157-0.025-0.216-0.076s-0.11-0.129-0.152-0.235
			c-0.042-0.105-0.074-0.245-0.095-0.418c-0.021-0.174-0.032-0.384-0.032-0.629c0-0.254,0.011-0.47,0.032-0.647
			s0.053-0.319,0.095-0.425c0.042-0.106,0.093-0.183,0.152-0.229c0.059-0.047,0.131-0.07,0.216-0.07h11.578
			c0.076,0,0.146,0.023,0.209,0.07c0.063,0.046,0.116,0.122,0.159,0.229c0.042,0.105,0.074,0.247,0.095,0.425
			S76.799,257.749,76.799,258.003z"/>
		<path d="M82.385,266.674c0,0.491-0.046,0.834-0.14,1.028s-0.241,0.292-0.444,0.292H76.52c-0.211,0-0.364-0.1-0.457-0.298
			c-0.093-0.199-0.14-0.54-0.14-1.022c0-0.474,0.046-0.809,0.14-1.003s0.246-0.292,0.457-0.292h5.281
			c0.102,0,0.188,0.021,0.26,0.063s0.133,0.114,0.184,0.216s0.087,0.237,0.108,0.406S82.385,266.437,82.385,266.674z"/>
		<path d="M95.258,258.041c0,0.245-0.008,0.459-0.025,0.642c-0.017,0.182-0.04,0.351-0.07,0.508c-0.03,0.156-0.07,0.305-0.121,0.443
			c-0.051,0.141-0.11,0.29-0.178,0.451l-5.408,12.53c-0.051,0.11-0.116,0.199-0.197,0.267s-0.192,0.121-0.336,0.158
			c-0.144,0.039-0.328,0.064-0.552,0.076c-0.224,0.014-0.501,0.02-0.832,0.02c-0.449,0-0.804-0.015-1.066-0.045
			c-0.262-0.029-0.455-0.076-0.578-0.139c-0.123-0.064-0.188-0.145-0.197-0.242c-0.008-0.097,0.021-0.218,0.089-0.361l5.814-12.822
			h-6.906c-0.178,0-0.311-0.116-0.4-0.35c-0.089-0.232-0.133-0.603-0.133-1.11c0-0.254,0.013-0.472,0.038-0.653
			c0.025-0.183,0.062-0.333,0.108-0.451s0.102-0.203,0.165-0.254s0.138-0.076,0.222-0.076h9.763c0.152,0,0.279,0.015,0.381,0.045
			c0.102,0.029,0.182,0.095,0.241,0.196s0.104,0.245,0.133,0.432S95.258,257.736,95.258,258.041z"/>
	</g>
</g>
<g id="T-8">
	<g id="XMLID_126_">
		<path fill="#00B2BF" d="M199.216,273.87c-5.068,1.323-8.783,2.668-17.185,3.106c-8.401,0.44-15.215-0.61-18.419-0.955
			c-3.205-0.345-3.198,0.396-4.38,2.629c-1.182,2.233-3.564,4.479-7.173,3.768c-3.608-0.712-5.217-1.809-5.655-6.25
			c-0.439-4.441,3.574-3.363-0.439-4.441c-4.012-1.078-7.205,0.063-10.411-0.651c-3.209-0.716-5.227-2.918-6.81-0.685
			c-1.582,2.235,0.852,5.92-0.729,8.525c-1.579,2.605-3.152,5.954-10.722,10.092c-7.569,4.139-10.34,7.866-11.471,16.025
			c-1.132,8.158,0.479,9.256,1.695,11.098c1.217,1.842,3.224,2.566,5.603-0.048c2.379-2.612,5.54-7.454,10.731-8.979
			c5.189-1.526,8.001-0.438,14.804-0.498c6.805-0.057,8.817,1.408,9.601-0.448c0.786-1.858-0.885-9.994,3.506-11.515
			c4.391-1.52,7.603-0.063,8.446,4.744c0.84,4.809-0.346,6.67,0.869,8.143c1.214,1.473,2.831,3.311,5.215,1.438
			c2.386-1.87,7.973-3.771,18.774-4.604c10.798-0.832,15.205-0.497,18.002-0.894c2.799-0.394,2.395-0.762,1.966-4.092
			c-0.428-3.329-2.044-5.168-2.091-10.726c-0.049-5.556,3.513-10.4,2.296-12.613C204.019,273.83,203.61,272.723,199.216,273.87z"/>
	</g>
	<g opacity="0.7" enable-background="new  ">
		<path d="M75.8,303.003c0,0.245-0.011,0.455-0.032,0.629c-0.021,0.173-0.053,0.313-0.095,0.418
			c-0.042,0.106-0.095,0.185-0.159,0.235s-0.133,0.076-0.209,0.076h-4.113v13.241c0,0.085-0.027,0.161-0.083,0.229
			s-0.146,0.123-0.273,0.165s-0.298,0.076-0.514,0.102s-0.484,0.038-0.806,0.038s-0.59-0.013-0.806-0.038s-0.387-0.06-0.514-0.102
			s-0.218-0.098-0.273-0.165s-0.083-0.144-0.083-0.229v-13.241h-4.113c-0.084,0-0.157-0.025-0.216-0.076s-0.11-0.129-0.152-0.235
			c-0.042-0.105-0.074-0.245-0.095-0.418c-0.021-0.174-0.032-0.384-0.032-0.629c0-0.254,0.011-0.47,0.032-0.647
			s0.053-0.319,0.095-0.425c0.042-0.106,0.093-0.183,0.152-0.229c0.059-0.047,0.131-0.07,0.216-0.07h11.578
			c0.076,0,0.146,0.023,0.209,0.07c0.063,0.046,0.116,0.122,0.159,0.229c0.042,0.105,0.074,0.247,0.095,0.425
			S75.8,302.749,75.8,303.003z"/>
		<path d="M81.386,311.674c0,0.491-0.046,0.834-0.14,1.028s-0.241,0.292-0.444,0.292h-5.281c-0.211,0-0.364-0.1-0.457-0.298
			c-0.093-0.199-0.14-0.54-0.14-1.022c0-0.474,0.046-0.809,0.14-1.003s0.246-0.292,0.457-0.292h5.281
			c0.102,0,0.188,0.021,0.26,0.063s0.133,0.114,0.184,0.216s0.087,0.237,0.108,0.406S81.386,311.437,81.386,311.674z"/>
		<path d="M94.525,313.654c0,0.745-0.129,1.409-0.387,1.993s-0.639,1.077-1.143,1.479c-0.503,0.402-1.128,0.707-1.873,0.914
			c-0.745,0.208-1.604,0.312-2.577,0.312c-0.931,0-1.748-0.093-2.45-0.279s-1.291-0.459-1.765-0.819
			c-0.474-0.359-0.83-0.804-1.066-1.332c-0.237-0.529-0.355-1.137-0.355-1.822c0-0.466,0.07-0.903,0.209-1.314
			c0.14-0.41,0.347-0.791,0.622-1.143c0.275-0.351,0.618-0.681,1.028-0.99c0.411-0.309,0.882-0.603,1.416-0.882
			c-0.432-0.237-0.821-0.493-1.168-0.769c-0.347-0.274-0.643-0.575-0.889-0.9c-0.246-0.326-0.432-0.684-0.559-1.073
			s-0.19-0.813-0.19-1.27c0-0.66,0.116-1.259,0.349-1.796c0.233-0.538,0.58-1.004,1.041-1.396c0.461-0.395,1.039-0.696,1.733-0.908
			s1.498-0.317,2.412-0.317c0.906,0,1.682,0.098,2.33,0.292s1.179,0.47,1.593,0.825s0.722,0.78,0.92,1.276
			c0.199,0.494,0.298,1.043,0.298,1.644c0,0.397-0.065,0.785-0.197,1.161c-0.131,0.377-0.315,0.734-0.552,1.073
			s-0.529,0.658-0.876,0.958c-0.347,0.301-0.741,0.574-1.181,0.819c0.516,0.271,0.978,0.559,1.384,0.863s0.749,0.633,1.028,0.983
			c0.279,0.352,0.493,0.727,0.641,1.124S94.525,313.188,94.525,313.654z M91.225,313.883c0-0.313-0.053-0.599-0.159-0.856
			c-0.106-0.259-0.271-0.502-0.495-0.73s-0.506-0.448-0.844-0.66s-0.732-0.428-1.181-0.647c-0.389,0.212-0.732,0.423-1.028,0.635
			s-0.542,0.434-0.736,0.667c-0.195,0.232-0.341,0.478-0.438,0.736c-0.097,0.258-0.146,0.535-0.146,0.831
			c0,0.66,0.214,1.164,0.641,1.511s1.064,0.521,1.911,0.521c0.83,0,1.449-0.178,1.86-0.533S91.225,314.509,91.225,313.883z
			 M90.844,305.682c0-0.296-0.042-0.563-0.127-0.8s-0.218-0.438-0.4-0.604c-0.182-0.164-0.406-0.289-0.673-0.374
			s-0.582-0.127-0.946-0.127c-0.711,0-1.24,0.163-1.587,0.489c-0.347,0.325-0.521,0.776-0.521,1.352
			c0,0.271,0.044,0.521,0.133,0.749s0.227,0.444,0.413,0.647s0.427,0.402,0.724,0.597s0.647,0.402,1.054,0.622
			c0.618-0.364,1.094-0.753,1.428-1.168S90.844,306.189,90.844,305.682z"/>
	</g>
</g>
<g id="T-9">
	<g id="XMLID_129_">
		<path fill="#00B2BF" d="M201.917,309.407c-6.433,2.771-9.969,4.157-18.763,5.714c-8.793,1.556-15.206,0.499-18.006,0.521
			c-2.801,0.024-2.386,1.873-4.769,4.113c-2.382,2.243-6.763,4.874-8.793,1.561c-2.029-3.318-1.269-8.142-3.273-8.492
			c-2.004-0.354-4.399,0.404-8.805,0.072c-4.405-0.334-4.413-1.443-6.413-1.059c-1.996,0.389,0.453,5.926,0.485,9.998
			c0.036,4.074-1.528,8.532-7.513,10.807c-5.985,2.271-9.978,3.418-13.526,9.743c-3.548,6.329-2.269,15.575-1.047,18.16
			c1.223,2.583,4.43,3.295,7.598-0.808c3.168-4.102,6.338-7.83,15.926-9.766c9.589-1.934,12.414,0.637,14.813,0.244
			c2.398-0.389,2.786-1.875,2.362-4.835c-0.427-2.96,0.315-10.004,5.514-10.418c5.198-0.414,6.427,2.91,7.264,6.978
			c0.834,4.066-0.344,6.67,3.269,8.123c3.616,1.449,5.168-4.119,18.362-6.082c13.189-1.965,13.978-3.453,18.383-3.119
			c4.406,0.334,6.004-0.051,5.166-4.488c-0.839-4.438-4.489-10.333-3.756-18.118C207.13,310.475,206.306,307.52,201.917,309.407z"/>
	</g>
	<g opacity="0.7" enable-background="new  ">
		<path d="M79.8,348.003c0,0.245-0.011,0.455-0.032,0.629c-0.021,0.173-0.053,0.313-0.095,0.418
			c-0.042,0.106-0.095,0.185-0.159,0.235s-0.133,0.076-0.209,0.076h-4.113v13.241c0,0.085-0.027,0.161-0.083,0.229
			s-0.146,0.123-0.273,0.165s-0.298,0.076-0.514,0.102s-0.484,0.038-0.806,0.038s-0.59-0.013-0.806-0.038s-0.387-0.06-0.514-0.102
			s-0.218-0.098-0.273-0.165s-0.083-0.144-0.083-0.229v-13.241h-4.113c-0.084,0-0.157-0.025-0.216-0.076s-0.11-0.129-0.152-0.235
			c-0.042-0.105-0.074-0.245-0.095-0.418c-0.021-0.174-0.032-0.384-0.032-0.629c0-0.254,0.011-0.47,0.032-0.647
			s0.053-0.319,0.095-0.425c0.042-0.106,0.093-0.183,0.152-0.229c0.059-0.047,0.131-0.07,0.216-0.07h11.578
			c0.076,0,0.146,0.023,0.209,0.07c0.063,0.046,0.116,0.122,0.159,0.229c0.042,0.105,0.074,0.247,0.095,0.425
			S79.8,347.749,79.8,348.003z"/>
		<path d="M85.386,356.674c0,0.491-0.046,0.834-0.14,1.028s-0.241,0.292-0.444,0.292h-5.281c-0.211,0-0.364-0.1-0.457-0.298
			c-0.093-0.199-0.14-0.54-0.14-1.022c0-0.474,0.046-0.809,0.14-1.003s0.246-0.292,0.457-0.292h5.281
			c0.102,0,0.188,0.021,0.26,0.063s0.133,0.114,0.184,0.216s0.087,0.237,0.108,0.406S85.386,356.437,85.386,356.674z"/>
		<path d="M98.31,354.097c0,0.669-0.034,1.36-0.102,2.076c-0.068,0.715-0.197,1.415-0.387,2.101s-0.453,1.337-0.787,1.955
			s-0.766,1.157-1.295,1.618c-0.529,0.462-1.172,0.828-1.93,1.099s-1.652,0.406-2.685,0.406c-0.364,0-0.726-0.025-1.085-0.076
			s-0.688-0.114-0.984-0.19s-0.548-0.156-0.755-0.241s-0.357-0.171-0.451-0.261c-0.093-0.088-0.161-0.218-0.203-0.387
			s-0.063-0.406-0.063-0.711c0-0.279,0.006-0.504,0.019-0.673s0.038-0.301,0.076-0.394s0.084-0.154,0.14-0.184
			c0.055-0.03,0.121-0.045,0.197-0.045c0.102,0,0.246,0.029,0.432,0.089s0.413,0.127,0.679,0.203s0.569,0.144,0.908,0.203
			s0.715,0.089,1.13,0.089c0.711,0,1.312-0.127,1.803-0.381s0.889-0.597,1.193-1.028s0.529-0.931,0.673-1.498
			s0.224-1.164,0.241-1.79c-0.389,0.245-0.859,0.459-1.409,0.641c-0.55,0.183-1.181,0.273-1.892,0.273
			c-0.872,0-1.612-0.114-2.222-0.343s-1.104-0.559-1.485-0.99s-0.658-0.956-0.832-1.574s-0.26-1.316-0.26-2.095
			c0-0.821,0.123-1.576,0.368-2.266c0.246-0.69,0.609-1.287,1.092-1.791c0.482-0.503,1.083-0.895,1.803-1.174
			s1.553-0.419,2.501-0.419c0.762,0,1.428,0.089,2,0.267s1.062,0.432,1.473,0.762s0.753,0.73,1.028,1.199
			c0.275,0.471,0.491,0.993,0.647,1.568s0.267,1.197,0.33,1.866S98.31,353.369,98.31,354.097z M94.996,353.64
			c0-0.905-0.051-1.663-0.152-2.272s-0.254-1.096-0.457-1.46s-0.457-0.622-0.762-0.774s-0.66-0.229-1.066-0.229
			c-0.398,0-0.741,0.069-1.028,0.21c-0.288,0.139-0.527,0.336-0.717,0.59s-0.332,0.555-0.425,0.901s-0.14,0.728-0.14,1.143
			c0,0.448,0.04,0.845,0.121,1.187c0.081,0.344,0.208,0.627,0.381,0.852c0.173,0.224,0.4,0.391,0.679,0.501s0.618,0.165,1.016,0.165
			c0.491,0,0.954-0.074,1.39-0.223C94.271,354.082,94.658,353.885,94.996,353.64z"/>
	</g>
</g>
<g id="T-10">
	<g id="XMLID_128_">
		<path fill="#00B2BF" d="M207.427,345.661c-5.043,2.204-12.754,6.405-19.544,7.944c-6.793,1.537-15.196,1.608-18.799,1.641
			c-3.6,0.029-2.772,3.355-4.76,4.854c-1.988,1.498-5.568,4.123-8.393,1.553c-2.825-2.566-2.453-6.273-6.053-5.875
			c-3.599,0.402-5.601,0.418-9.202,0.449c-3.6,0.029-4.803,0.039-4.38,2.629c0.422,2.59,2.449,5.535-0.719,9.639
			s-10.368,4.529-14.329,9.38c-3.961,4.853-5.516,10.42-5.053,17.821c0.463,7.405,1.286,9.993,2.902,11.832
			c1.617,1.838,3.211,1.084,4.393-1.15c1.182-2.232,7.905-11.918,17.901-13.113c9.995-1.195,13.998-1.229,16.796-1.625
			c2.798-0.395,0.392-1.113,0.35-5.929c-0.041-4.813-0.887-10.364,5.918-10.052c6.809,0.313,6.451,5.502,6.479,8.836
			c0.028,3.333-0.75,5.932,1.259,7.025c2.013,1.094,11.165-4.91,20.353-7.209c9.188-2.302,16.797-1.625,20.797-2.027
			c3.996-0.403,5.386-3.67,3.538-7.438c-1.629-3.319-2.857-6.643-3.704-12.192c-0.896-5.866,0.315-10.004-0.11-12.963
			C212.64,346.729,212.612,343.396,207.427,345.661z"/>
	</g>
	<g opacity="0.7" enable-background="new  ">
		<path d="M74.8,393.003c0,0.245-0.011,0.455-0.032,0.629c-0.021,0.173-0.053,0.313-0.095,0.418
			c-0.042,0.106-0.095,0.185-0.159,0.235s-0.133,0.076-0.209,0.076h-4.113v13.241c0,0.085-0.027,0.161-0.083,0.229
			s-0.146,0.123-0.273,0.165s-0.298,0.076-0.514,0.102s-0.484,0.038-0.806,0.038s-0.59-0.013-0.806-0.038s-0.387-0.06-0.514-0.102
			s-0.218-0.098-0.273-0.165s-0.083-0.144-0.083-0.229v-13.241h-4.113c-0.084,0-0.157-0.025-0.216-0.076s-0.11-0.129-0.152-0.235
			c-0.042-0.105-0.074-0.245-0.095-0.418c-0.021-0.174-0.032-0.384-0.032-0.629c0-0.254,0.011-0.47,0.032-0.647
			s0.053-0.319,0.095-0.425c0.042-0.106,0.093-0.183,0.152-0.229c0.059-0.047,0.131-0.07,0.216-0.07h11.578
			c0.076,0,0.146,0.023,0.209,0.07c0.063,0.046,0.116,0.122,0.159,0.229c0.042,0.105,0.074,0.247,0.095,0.425
			S74.8,392.749,74.8,393.003z"/>
		<path d="M80.386,401.674c0,0.491-0.046,0.834-0.14,1.028s-0.241,0.292-0.444,0.292h-5.281c-0.211,0-0.364-0.1-0.457-0.298
			c-0.093-0.199-0.14-0.54-0.14-1.022c0-0.474,0.046-0.809,0.14-1.003s0.246-0.292,0.457-0.292h5.281
			c0.102,0,0.188,0.021,0.26,0.063s0.133,0.114,0.184,0.216s0.087,0.237,0.108,0.406S80.386,401.437,80.386,401.674z"/>
		<path d="M93.119,406.79c0,0.237-0.013,0.438-0.038,0.604c-0.025,0.164-0.062,0.296-0.108,0.393c-0.046,0.098-0.1,0.168-0.159,0.21
			s-0.127,0.063-0.203,0.063h-9.064c-0.068,0-0.131-0.021-0.19-0.063s-0.112-0.112-0.159-0.21c-0.046-0.097-0.083-0.229-0.108-0.393
			c-0.025-0.166-0.038-0.366-0.038-0.604c0-0.245,0.011-0.451,0.032-0.615c0.021-0.166,0.055-0.299,0.102-0.4s0.1-0.176,0.159-0.223
			c0.059-0.046,0.127-0.069,0.203-0.069h3.06v-10.689l-2.641,1.46c-0.195,0.093-0.354,0.15-0.476,0.172
			c-0.123,0.021-0.22-0.005-0.292-0.076c-0.072-0.072-0.121-0.197-0.146-0.375s-0.038-0.428-0.038-0.749
			c0-0.203,0.004-0.37,0.013-0.501c0.008-0.132,0.03-0.244,0.063-0.337s0.081-0.169,0.14-0.229s0.14-0.123,0.241-0.19L87,391.683
			c0.042-0.034,0.095-0.062,0.159-0.082c0.063-0.021,0.146-0.039,0.248-0.051c0.102-0.014,0.235-0.021,0.4-0.025
			c0.165-0.005,0.379-0.007,0.641-0.007c0.322,0,0.582,0.007,0.781,0.019c0.199,0.014,0.349,0.034,0.451,0.064
			c0.102,0.029,0.169,0.069,0.203,0.12s0.051,0.114,0.051,0.19v13.571h2.679c0.076,0,0.146,0.023,0.209,0.069
			c0.063,0.047,0.119,0.121,0.165,0.223s0.081,0.234,0.102,0.4C93.108,406.339,93.119,406.545,93.119,406.79z"/>
		<path d="M106.779,399.782c0,1.312-0.106,2.497-0.317,3.555s-0.557,1.959-1.035,2.704s-1.1,1.316-1.866,1.714
			s-1.703,0.597-2.812,0.597c-1.125,0-2.057-0.192-2.793-0.577c-0.736-0.386-1.32-0.939-1.752-1.664
			c-0.432-0.723-0.734-1.607-0.908-2.652c-0.173-1.046-0.26-2.229-0.26-3.549c0-1.304,0.108-2.486,0.324-3.549
			c0.216-1.062,0.563-1.965,1.041-2.71s1.1-1.316,1.866-1.714s1.699-0.597,2.799-0.597c1.125,0,2.059,0.192,2.799,0.577
			c0.741,0.386,1.327,0.939,1.758,1.664c0.432,0.723,0.732,1.607,0.901,2.652C106.695,397.279,106.779,398.462,106.779,399.782z
			 M103.415,399.947c0-0.778-0.021-1.466-0.063-2.063c-0.042-0.596-0.108-1.114-0.197-1.555s-0.199-0.813-0.33-1.117
			s-0.29-0.548-0.476-0.73c-0.186-0.182-0.398-0.311-0.635-0.387s-0.5-0.114-0.787-0.114c-0.5,0-0.912,0.12-1.238,0.362
			c-0.326,0.24-0.584,0.603-0.774,1.085s-0.324,1.083-0.4,1.803s-0.114,1.558-0.114,2.514c0,1.168,0.046,2.135,0.14,2.901
			c0.093,0.766,0.239,1.375,0.438,1.828c0.199,0.452,0.455,0.77,0.768,0.951c0.313,0.183,0.69,0.273,1.13,0.273
			c0.33,0,0.622-0.053,0.876-0.158c0.254-0.106,0.476-0.265,0.667-0.477s0.349-0.479,0.476-0.8s0.23-0.694,0.311-1.117
			s0.135-0.901,0.165-1.435S103.415,400.591,103.415,399.947z"/>
	</g>
</g>
<g id="T-11">
	<g id="XMLID_131_">
		<path fill="#00B2BF" d="M214.594,388.568c-5.08,1.613-9.162,5.263-17.154,6.813c-7.991,1.55-18.378,3.859-21.583,3.519
			c-3.205-0.346-4.809-0.699-5.588,1.527c-0.784,2.229-1.957,5.572-5.561,5.233c-3.604-0.34-6.825-2.536-8.042-4.379
			c-1.216-1.841-0.825-2.956-5.625-2.544c-4.801,0.409-8.41-0.303-10.406,0.087c-1.998,0.388-1.18,2.603,0.057,6.667
			c1.234,4.063,1.697,11.47-3.49,13.364c-5.186,1.896-7.995,1.181-12.378,3.438c-4.383,2.26-5.934,8.199-6.275,15.24
			c-0.34,7.04,0.513,13.33,2.135,15.909c1.624,2.577,2.423,2.57,3.63,3.305c1.208,0.729,6.356-5.611,9.121-10.078
			c2.764-4.471,4.352-5.965,8.745-7.112c4.393-1.146,8.789-1.926,13.596-1.597s8.013,1.043,7.985-2.291
			c-0.026-3.332-4.112-12.929,3.881-14.479c7.991-1.55,8.038,4.006,8.466,7.339c0.429,3.329,0.849,5.548,2.067,7.76
			c1.218,2.213,3.21,1.083,8.791-1.555c5.583-2.644,7.559-5.622,16.754-6.813c9.195-1.188,13.198-1.222,16.395-1.99
			c3.194-0.767,4.795-0.779,3.965-4.479c-0.832-3.697-3.273-8.492-4.545-16.63c-1.269-8.141-0.091-10.741-0.123-14.445
			C219.38,386.677,218.186,387.427,214.594,388.568z"/>
	</g>
	<g opacity="0.7" enable-background="new  ">
		<path d="M77.8,438.003c0,0.245-0.011,0.455-0.032,0.629c-0.021,0.173-0.053,0.313-0.095,0.418
			c-0.042,0.106-0.095,0.185-0.159,0.235s-0.133,0.076-0.209,0.076h-4.113v13.241c0,0.085-0.027,0.161-0.083,0.229
			s-0.146,0.123-0.273,0.165s-0.298,0.076-0.514,0.102s-0.484,0.038-0.806,0.038s-0.59-0.013-0.806-0.038s-0.387-0.06-0.514-0.102
			s-0.218-0.098-0.273-0.165s-0.083-0.144-0.083-0.229v-13.241h-4.113c-0.084,0-0.157-0.025-0.216-0.076s-0.11-0.129-0.152-0.235
			c-0.042-0.105-0.074-0.245-0.095-0.418c-0.021-0.174-0.032-0.384-0.032-0.629c0-0.254,0.011-0.47,0.032-0.647
			s0.053-0.319,0.095-0.425c0.042-0.106,0.093-0.183,0.152-0.229c0.059-0.047,0.131-0.07,0.216-0.07h11.578
			c0.076,0,0.146,0.023,0.209,0.07c0.063,0.046,0.116,0.122,0.159,0.229c0.042,0.105,0.074,0.247,0.095,0.425
			S77.8,437.749,77.8,438.003z"/>
		<path d="M83.386,446.674c0,0.491-0.046,0.834-0.14,1.028s-0.241,0.292-0.444,0.292h-5.281c-0.211,0-0.364-0.1-0.457-0.298
			c-0.093-0.199-0.14-0.54-0.14-1.022c0-0.474,0.046-0.809,0.14-1.003s0.246-0.292,0.457-0.292h5.281
			c0.102,0,0.188,0.021,0.26,0.063s0.133,0.114,0.184,0.216s0.087,0.237,0.108,0.406S83.386,446.437,83.386,446.674z"/>
		<path d="M96.119,451.79c0,0.237-0.013,0.438-0.038,0.604c-0.025,0.164-0.062,0.296-0.108,0.393c-0.046,0.098-0.1,0.168-0.159,0.21
			s-0.127,0.063-0.203,0.063h-9.064c-0.068,0-0.131-0.021-0.19-0.063s-0.112-0.112-0.159-0.21c-0.046-0.097-0.083-0.229-0.108-0.393
			c-0.025-0.166-0.038-0.366-0.038-0.604c0-0.245,0.011-0.451,0.032-0.615c0.021-0.166,0.055-0.299,0.102-0.4s0.1-0.176,0.159-0.223
			c0.059-0.046,0.127-0.069,0.203-0.069h3.06v-10.689l-2.641,1.46c-0.195,0.093-0.354,0.15-0.476,0.172
			c-0.123,0.021-0.22-0.005-0.292-0.076c-0.072-0.072-0.121-0.197-0.146-0.375s-0.038-0.428-0.038-0.749
			c0-0.203,0.004-0.37,0.013-0.501c0.008-0.132,0.03-0.244,0.063-0.337s0.081-0.169,0.14-0.229s0.14-0.123,0.241-0.19L90,436.683
			c0.042-0.034,0.095-0.062,0.159-0.082c0.063-0.021,0.146-0.039,0.248-0.051c0.102-0.014,0.235-0.021,0.4-0.025
			c0.165-0.005,0.379-0.007,0.641-0.007c0.322,0,0.582,0.007,0.781,0.019c0.199,0.014,0.349,0.034,0.451,0.064
			c0.102,0.029,0.169,0.069,0.203,0.12s0.051,0.114,0.051,0.19v13.571h2.679c0.076,0,0.146,0.023,0.209,0.069
			c0.063,0.047,0.119,0.121,0.165,0.223s0.081,0.234,0.102,0.4C96.108,451.339,96.119,451.545,96.119,451.79z"/>
		<path d="M109.297,451.79c0,0.237-0.013,0.438-0.038,0.604c-0.025,0.164-0.062,0.296-0.108,0.393
			c-0.046,0.098-0.1,0.168-0.159,0.21s-0.127,0.063-0.203,0.063h-9.064c-0.068,0-0.131-0.021-0.19-0.063s-0.112-0.112-0.159-0.21
			c-0.046-0.097-0.083-0.229-0.108-0.393c-0.025-0.166-0.038-0.366-0.038-0.604c0-0.245,0.011-0.451,0.032-0.615
			c0.021-0.166,0.055-0.299,0.102-0.4s0.1-0.176,0.159-0.223c0.059-0.046,0.127-0.069,0.203-0.069h3.06v-10.689l-2.641,1.46
			c-0.195,0.093-0.354,0.15-0.476,0.172c-0.123,0.021-0.22-0.005-0.292-0.076c-0.072-0.072-0.121-0.197-0.146-0.375
			s-0.038-0.428-0.038-0.749c0-0.203,0.004-0.37,0.013-0.501c0.008-0.132,0.03-0.244,0.063-0.337s0.081-0.169,0.14-0.229
			s0.14-0.123,0.241-0.19l3.529-2.285c0.042-0.034,0.095-0.062,0.159-0.082c0.063-0.021,0.146-0.039,0.248-0.051
			c0.102-0.014,0.235-0.021,0.4-0.025c0.165-0.005,0.379-0.007,0.641-0.007c0.322,0,0.582,0.007,0.781,0.019
			c0.199,0.014,0.349,0.034,0.451,0.064c0.102,0.029,0.169,0.069,0.203,0.12s0.051,0.114,0.051,0.19v13.571h2.679
			c0.076,0,0.146,0.023,0.209,0.069c0.063,0.047,0.119,0.121,0.165,0.223s0.081,0.234,0.102,0.4
			C109.286,451.339,109.297,451.545,109.297,451.79z"/>
	</g>
</g>
<g id="T-12">
	<g id="XMLID_130_">
		<path fill="#00B2BF" d="M222.961,431.468c-3.526,2.325-7.559,5.249-18.739,8.676c-11.177,3.431-18.376,4.23-21.176,4.257
			c-2.8,0.021-0.784,1.857-3.164,4.471c-2.38,2.612-7.967,4.513-10.381,3.052c-2.413-1.461-4.042-4.78-4.461-7.001
			c-0.418-2.219-1.608-0.728-6.405-0.313c-4.801,0.408-6.409-0.316-8.405,0.068c-1.999,0.391-1.997,0.758-0.743,6.674
			c1.248,5.917,1.272,8.511-0.303,11.484c-1.576,2.979-6.761,5.244-11.564,5.284c-4.802,0.04-8.401,0.44-9.548,6.748
			c-1.148,6.309-1.898,12.24-0.245,18.522c1.655,6.281,1.311,12.953,8.092,10.304c6.783-2.65,11.925-9.729,19.913-12.021
			c7.985-2.289,15.174-4.202,17.964-5.336c2.792-1.136,1.594-3.623,0.742-7.046c-0.829-3.325-3.689-10.341,3.903-11.515
			c7.597-1.178,10.446,4.354,10.089,9.545c-0.357,5.188,0.891,10.733,4.074,8.484c3.181-2.251,8.75-6.373,17.935-9.041
			c9.181-2.672,17.979-3.856,21.976-4.632c3.994-0.772,5.977-3.015,4.344-6.703c-1.633-3.69-5.666-7.36-6.131-15.137
			c-0.668-11.147-0.906-12.587-1.337-16.287C228.955,430.305,226.94,428.841,222.961,431.468z"/>
	</g>
	<g opacity="0.7" enable-background="new  ">
		<path d="M84.8,487.003c0,0.245-0.011,0.455-0.032,0.629c-0.021,0.173-0.053,0.313-0.095,0.418
			c-0.042,0.106-0.095,0.185-0.159,0.235s-0.133,0.076-0.209,0.076h-4.113v13.241c0,0.085-0.027,0.161-0.083,0.229
			s-0.146,0.123-0.273,0.165s-0.298,0.076-0.514,0.102s-0.484,0.038-0.806,0.038s-0.59-0.013-0.806-0.038s-0.387-0.06-0.514-0.102
			s-0.218-0.098-0.273-0.165s-0.083-0.144-0.083-0.229v-13.241h-4.113c-0.084,0-0.157-0.025-0.216-0.076s-0.11-0.129-0.152-0.235
			c-0.042-0.105-0.074-0.245-0.095-0.418c-0.021-0.174-0.032-0.384-0.032-0.629c0-0.254,0.011-0.47,0.032-0.647
			s0.053-0.319,0.095-0.425c0.042-0.106,0.093-0.183,0.152-0.229c0.059-0.047,0.131-0.07,0.216-0.07h11.578
			c0.076,0,0.146,0.023,0.209,0.07c0.063,0.046,0.116,0.122,0.159,0.229c0.042,0.105,0.074,0.247,0.095,0.425
			S84.8,486.749,84.8,487.003z"/>
		<path d="M90.386,495.674c0,0.491-0.046,0.834-0.14,1.028s-0.241,0.292-0.444,0.292h-5.281c-0.211,0-0.364-0.1-0.457-0.298
			c-0.093-0.199-0.14-0.54-0.14-1.022c0-0.474,0.046-0.809,0.14-1.003s0.246-0.292,0.457-0.292h5.281
			c0.102,0,0.188,0.021,0.26,0.063s0.133,0.114,0.184,0.216s0.087,0.237,0.108,0.406S90.386,495.437,90.386,495.674z"/>
		<path d="M103.119,500.79c0,0.237-0.013,0.438-0.038,0.604c-0.025,0.164-0.062,0.296-0.108,0.393
			c-0.046,0.098-0.1,0.168-0.159,0.21s-0.127,0.063-0.203,0.063h-9.064c-0.068,0-0.131-0.021-0.19-0.063s-0.112-0.112-0.159-0.21
			c-0.046-0.097-0.083-0.229-0.108-0.393c-0.025-0.166-0.038-0.366-0.038-0.604c0-0.245,0.011-0.451,0.032-0.615
			c0.021-0.166,0.055-0.299,0.102-0.4s0.1-0.176,0.159-0.223c0.059-0.046,0.127-0.069,0.203-0.069h3.06v-10.689l-2.641,1.46
			c-0.195,0.093-0.354,0.15-0.476,0.172c-0.123,0.021-0.22-0.005-0.292-0.076c-0.072-0.072-0.121-0.197-0.146-0.375
			s-0.038-0.428-0.038-0.749c0-0.203,0.004-0.37,0.013-0.501c0.008-0.132,0.03-0.244,0.063-0.337s0.081-0.169,0.14-0.229
			s0.14-0.123,0.241-0.19L97,485.683c0.042-0.034,0.095-0.062,0.159-0.082c0.063-0.021,0.146-0.039,0.248-0.051
			c0.102-0.014,0.235-0.021,0.4-0.025c0.165-0.005,0.379-0.007,0.641-0.007c0.322,0,0.582,0.007,0.781,0.019
			c0.199,0.014,0.349,0.034,0.451,0.064c0.102,0.029,0.169,0.069,0.203,0.12s0.051,0.114,0.051,0.19v13.571h2.679
			c0.076,0,0.146,0.023,0.209,0.069c0.063,0.047,0.119,0.121,0.165,0.223s0.081,0.234,0.102,0.4
			C103.108,500.339,103.119,500.545,103.119,500.79z"/>
		<path d="M116.449,500.701c0,0.245-0.011,0.455-0.032,0.628c-0.021,0.174-0.053,0.315-0.095,0.426s-0.097,0.188-0.165,0.234
			c-0.068,0.047-0.144,0.07-0.229,0.07h-9.445c-0.186,0-0.347-0.017-0.482-0.051s-0.246-0.1-0.33-0.197
			c-0.084-0.097-0.146-0.238-0.184-0.425s-0.057-0.428-0.057-0.724c0-0.279,0.013-0.519,0.038-0.717
			c0.025-0.199,0.072-0.377,0.14-0.533c0.068-0.157,0.154-0.31,0.26-0.457c0.106-0.148,0.243-0.312,0.413-0.489l2.844-3.047
			c0.567-0.593,1.024-1.132,1.371-1.618c0.347-0.487,0.618-0.932,0.813-1.334c0.195-0.401,0.328-0.771,0.4-1.11
			s0.108-0.66,0.108-0.965c0-0.279-0.044-0.544-0.133-0.794c-0.089-0.249-0.22-0.467-0.394-0.653s-0.392-0.332-0.654-0.438
			c-0.262-0.105-0.571-0.158-0.927-0.158c-0.5,0-0.941,0.063-1.327,0.19s-0.724,0.269-1.016,0.425
			c-0.292,0.157-0.535,0.301-0.73,0.432c-0.195,0.132-0.347,0.197-0.457,0.197c-0.076,0-0.142-0.025-0.197-0.076
			s-0.1-0.136-0.133-0.254s-0.062-0.277-0.083-0.477c-0.021-0.198-0.032-0.441-0.032-0.729c0-0.194,0.006-0.357,0.019-0.489
			c0.013-0.131,0.032-0.245,0.057-0.342c0.025-0.098,0.059-0.183,0.102-0.254c0.042-0.072,0.116-0.159,0.222-0.261
			s0.3-0.23,0.584-0.388c0.284-0.156,0.633-0.309,1.047-0.457c0.415-0.147,0.872-0.272,1.371-0.374s1.02-0.152,1.562-0.152
			c0.855,0,1.602,0.108,2.241,0.323c0.639,0.217,1.17,0.517,1.593,0.902c0.423,0.385,0.738,0.842,0.946,1.371
			c0.208,0.528,0.311,1.098,0.311,1.707c0,0.533-0.051,1.058-0.152,1.574s-0.313,1.072-0.635,1.67
			c-0.322,0.596-0.774,1.256-1.358,1.98c-0.584,0.723-1.358,1.563-2.323,2.52l-1.917,1.968h6.475c0.084,0,0.163,0.025,0.235,0.076
			s0.133,0.129,0.184,0.235c0.051,0.105,0.089,0.245,0.114,0.418C116.437,500.259,116.449,500.464,116.449,500.701z"/>
	</g>
</g>
</svg>
