<?xml version="1.0" encoding="utf-8"?>
<!-- Generator: Adobe Illustrator 21.0.0, SVG Export Plug-In . SVG Version: 6.00 Build 0)  -->
<svg version="1.1" id="Layer_1" xmlns="http://www.w3.org/2000/svg" xmlns:xlink="http://www.w3.org/1999/xlink" x="0px" y="0px" class="disabled" width="50%" height="375px" style="float:left;" viewbox="0 10 300 750">
<style type="text/css">
	.st0_14x{fill:#f5e6e6;stroke:#6d6d6d;}
</style>
<g>
	<path id="Right_median_Wrist_07" class="st0_14x human" d="M88.9,298.4c-0.3,0.1-0.5,0.3-0.8,0.4c-1.9,0.8-1.6,0.7-4.4,0.5
		c-0.4,0.6-0.6,1.4-0.7,2.2h5.9V298.4z"/>
</g>
<g>
	<path id="Right_median_Wrist_06" class="st0_14x human" d="M83,301.5c-0.4,3.9,2.4,9.8,5.9,14.4v-14.4H83z"/>
</g>
<g>
	<path id="Right_median_Wrist_05" class="st0_14x human" d="M93.3,301.5c-0.4-1.7-0.5-4.2-0.5-5.7c-1.9,1.2-2.9,2.2-3.9,2.6v3.1H93.3z"/>
</g>
<g>
	<path id="Right_median_Wrist_04" class="st0_14x human" d="M103.2,317v-1.7c-3.9-2.3-8.3-7.9-9.9-13.8h-4.4v14.4c0.3,0.4,0.6,0.7,0.8,1.1
		H103.2z"/>
</g>
<g>
	<path id="Right_median_Wrist_03" class="st0_14x human" d="M107.7,316.1c-0.1,0-0.1,0-0.2,0.1c-0.1,0.1-0.2,0.1-0.3,0.2
		c-1,0.4-2.4-0.1-3.9-1v1.7h2.9C106.6,316.7,107.1,316.4,107.7,316.1z"/>
</g>
<g>
	<path id="Right_median_Wrist_02" class="st0_14x human" d="M89.8,317c3.3,4,7.1,6.8,9.5,5.9c1-1.7,2.1-2.8,4-4.1V317H89.8z"/>
</g>
<g>
	<path id="Right_median_Wrist_01" class="st0_14x human" d="M103.2,317v1.8c0.8-0.5,1.8-1.1,2.9-1.8H103.2z"/>
</g>
<g>
	<path id="Right_median_Forearm_21" class="st0_14x human" d="M151.1,244.8c-0.7,0.5-2.5,2-5,4.1v6.1h8.2
		C152.5,250.2,151.2,246.3,151.1,244.8z"/>
</g>
<g>
	<path id="Right_median_Forearm_20" class="st0_14x human" d="M139,255h7.1v-6.1C144.1,250.5,141.7,252.6,139,255z"/>
</g>
<g>
	<path id="Right_median_Forearm_19" class="st0_14x human" d="M160.4,270c-2.3-4.9-4.4-10.5-6.1-15h-8.2v15.5h14.3V270z"/>
</g>
<g>
	<rect id="Right_median_Forearm_18" x="146.1" y="270.5" class="st0_14x human" width="14.3" height="15.5"/>
</g>
<g>
	<path id="Right_median_Forearm_17" class="st0_14x human" d="M169.5,284.2c-0.2,0-0.4,0-0.6-0.2c-1.9-0.8-5.1-6.6-8.3-13.5h-0.2V286h6
		C168,285.1,169.1,284.5,169.5,284.2z"/>
</g>
<g>
	<path id="Right_median_Forearm_16" class="st0_14x human" d="M160.4,286h-14.3v10.5c5.3-2.7,10.3-5.2,14.3-7.3V286z"/>
</g>
<g>
	<path id="Right_median_Forearm_15" class="st0_14x human" d="M160.4,286v3.1c2.4-1.2,4.4-2.3,6-3.1H160.4z"/>
</g>
<g>
	<path id="Right_median_Forearm_14" class="st0_14x human" d="M124.1,269.6c-0.3,0.3-0.5,0.6-0.8,0.9h8.5v-8.8
		C129.3,264.1,126.7,266.8,124.1,269.6z"/>
</g>
<g>
	<path id="Right_median_Forearm_13" class="st0_14x human" d="M146.1,255H139c-2.3,2-4.7,4.2-7.2,6.7v8.8h14.3V255z"/>
</g>
<g>
	<path id="Right_median_Forearm_12" class="st0_14x human" d="M131.8,270.5h-8.5c-2.2,2.4-4.1,4.4-5.8,6.1v9.4h14.3V270.5z"/>
</g>
<g>
	<rect id="Right_median_Forearm_11" x="131.8" y="270.5" class="st0_14x human" width="14.3" height="15.5"/>
</g>
<g>
	<path id="Right_median_Forearm_10" class="st0_14x human" d="M106.7,286h10.8v-9.4C113.6,280.6,110.4,283.3,106.7,286z"/>
</g>
<g>
	<rect id="Right_median_Forearm_09" x="117.5" y="286" class="st0_14x human" width="14.3" height="15.5"/>
</g>
<g>
	<path id="Right_median_Forearm_08" class="st0_14x human" d="M146.1,296.5V286h-14.3v15.5h4.4C139.5,299.8,142.9,298.1,146.1,296.5z"/>
</g>
<g>
	<path id="Right_median_Forearm_07" class="st0_14x human" d="M131.8,303.7v-2.2h-14.3v9.5C121.8,308.8,126.8,306.3,131.8,303.7z"/>
</g>
<g>
	<path id="Right_median_Forearm_06" class="st0_14x human" d="M131.8,301.5v2.2c1.4-0.7,2.9-1.5,4.4-2.2H131.8z"/>
</g>
<g>
	<path id="Right_median_Forearm_05" class="st0_14x human" d="M93.3,301.5h9.9v-13c-2.9,2-6.3,4.5-10.4,7.3
		C92.7,296,92.8,299.7,93.3,301.5z"/>
</g>
<g>
	<path id="Right_median_Forearm_04" class="st0_14x human" d="M117.5,301.5V286h-10.8c-1.1,0.8-2.3,1.6-3.5,2.5v13H117.5z"/>
</g>
<g>
	<path id="Right_median_Forearm_03" class="st0_14x human" d="M93.3,301.5c1.6,5.9,6.2,11.5,9.9,13.8v-13.8H93.3z"/>
</g>
<g>
	<path id="Right_median_Forearm_02" class="st0_14x human" d="M117.5,301.5h-14.3v13.8c1.7,1,3.2,1.3,4.3,0.8c2.6-1.4,6-3.2,10-5.2V301.5z
		"/>
</g>
<g>
	<path id="Right_median_Forearm_01" class="st0_14x human" d="M160.4,270v0.5h0.2C160.6,270.3,160.5,270.2,160.4,270z"/>
</g>
<g>
	<path id="Right_median_Elbow_09" class="st0_14x human" d="M160.4,237.5c-0.9,0.7-1.8,1.3-2.7,2h2.7V237.5z"/>
</g>
<g>
	<path id="Right_median_Elbow_08" class="st0_14x human" d="M168.7,239.5c-0.5-2.9-0.8-5.5-0.6-7.5c0,0-3.8,2.7-7.7,5.5v2H168.7z"/>
</g>
<g>
	<path id="Right_median_Elbow_07" class="st0_14x human" d="M151.4,244.6C151.5,244.6,151.4,244.6,151.4,244.6c-0.4,0.8,0.8,5,2.9,10.4
		h6.1v-15.5h-2.7c-3.1,2.2-5.8,4.2-6.4,4.8c-0.1,0.1-0.1,0.3-0.1,0.6C151.2,244.8,151.3,244.7,151.4,244.6
		C151.3,244.6,151.4,244.6,151.4,244.6z"/>
</g>
<g>
	<path id="Right_median_Elbow_06" class="st0_14x human" d="M168.7,239.5h-8.3V255h13C171.3,249.8,169.6,244.2,168.7,239.5z"/>
</g>
<g>
	<path id="Right_median_Elbow_05" class="st0_14x human" d="M174.7,258.3v12.2h6.7C179.2,267.8,176.8,263.3,174.7,258.3z"/>
</g>
<g>
	<path id="Right_median_Elbow_04" class="st0_14x human" d="M181.4,270.5h-6.7v10.3c4.6-3.1,10-6.9,11-7.6
		C184.4,273.6,183,272.6,181.4,270.5z"/>
</g>
<g>
	<path id="Right_median_Elbow_03" class="st0_14x human" d="M154.3,255c1.7,4.4,3.9,10.3,6.1,15v-15H154.3z"/>
</g>
<g>
	<path id="Right_median_Elbow_02" class="st0_14x human" d="M174.7,258.3c-0.3-0.7-0.6-1.5-0.9-2.2c-0.1-0.4-0.3-0.7-0.4-1.1h-13v15
		c0.2,0.4,0,0,0.2,0.5h14.1V258.3z"/>
</g>
<g>
	<path id="Right_median_Elbow_01" class="st0_14x human" d="M169.7,284c1.3-0.7,3.1-1.9,5.1-3.2v-10.3h-14.1c3.2,6.7,6.6,12.4,8.3,13.5
		C169.2,284.1,169.4,284.1,169.7,284z"/>
</g>
<g>
	<path id="Right_median_Upperarm_09" class="st0_14x human" d="M183.4,208.5h4.4c0-3.7-0.1-6-0.1-6.1C187.3,201.8,185.7,204.5,183.4,208.5
		z"/>
</g>
<g>
	<path id="Right_median_Upperarm_08" class="st0_14x human" d="M188,224c0-6.1-0.1-11.6-0.1-15.5h-4.4c-1.9,3.4-4.3,7.7-6.8,11.7
		c-0.7,1.1-1.3,2.1-1.9,3v0.8H188z"/>
</g>
<g>
	<path id="Right_median_Upperarm_07" class="st0_14x human" d="M188,224h-13.3v15.5h13.3C188,234.3,188,228.9,188,224z"/>
</g>
<g>
	<path id="Right_median_Upperarm_06" class="st0_14x human" d="M188.1,239.5h-13.3V255h13.4C188.1,250.3,188.1,245,188.1,239.5z"/>
</g>
<g>
	<path id="Right_median_Upperarm_05" class="st0_14x human" d="M174.7,224h-0.5c-2.4,3.8-3.6,5.5-5.2,7c-1.1,1-1,4.2-0.1,8.5h5.9V224z"/>
</g>
<g>
	<path id="Right_median_Upperarm_04" class="st0_14x human" d="M174.7,255v-15.5h-5.9c0.9,4.5,2.5,10.1,4.6,15.5H174.7z"/>
</g>
<g>
	<path id="Right_median_Upperarm_03" class="st0_14x human" d="M188.1,255h-13.4v3.2c2.2,5.1,4.5,9.6,6.7,12.3h6.7
		c0.1-0.2,0.1-0.3,0.1-0.3S188.1,263.8,188.1,255z"/>
</g>
<g>
	<path id="Right_median_Upperarm_02" class="st0_14x human" d="M185.8,273.1C185.8,273.1,185.7,273.2,185.8,273.1c0.1,0,0.3-0.1,0.5-0.3
		c1.2-1,1.6-1.9,1.8-2.3h-6.7C183,272.6,184.7,273.7,185.8,273.1z"/>
</g>
<g>
	<path id="Right_median_Upperarm_01" class="st0_14x human" d="M174.7,255h-1.3c0.1,0.4,0.3,0.7,0.4,1.1c0.3,0.7,0.6,1.4,0.9,2.1V255z"/>
</g>
<g>
	<path id="Right_median_Foot_31" class="st0_14x human" d="M146.1,669.8v3.7h12.5c0.4-1.3,0.8-2.1,0.8-2.1L146.1,669.8z"/>
</g>
<g>
	<path id="Right_median_Foot_30" class="st0_14x human" d="M158.6,673.5h-12.5V689h10.1c-0.2-0.5-0.4-1-0.5-1.6
		C155.1,684.2,157.4,677.1,158.6,673.5z"/>
</g>
<g>
	<path id="Right_median_Foot_29" class="st0_14x human" d="M156.2,689h-10.1v15.5h14.3v-9.8C158.8,692.9,157.1,691.2,156.2,689z"/>
</g>
<g>
	<path id="Right_median_Foot_28" class="st0_14x human" d="M160.4,694.7v9.8h4.7c-0.5-2.5-1.1-4.6-1.8-5.7
		C162.6,697.2,161.5,696,160.4,694.7z"/>
</g>
<g>
	<rect id="Right_median_Foot_27" x="146.1" y="704.5" class="st0_14x human" width="14.3" height="15.5"/>
</g>
<g>
	<path id="Right_median_Foot_26" class="st0_14x human" d="M165.2,704.5h-4.7V720h5.1C166.5,715,166.1,709,165.2,704.5z"/>
</g>
<g>
	<path id="Right_median_Foot_25" class="st0_14x human" d="M146.1,720v11.2c5.2,0,10.7-0.5,14.3-2.6V720H146.1z"/>
</g>
<g>
	<path id="Right_median_Foot_24" class="st0_14x human" d="M160.4,728.6c0.8-0.5,1.6-1.1,2.2-1.7c1.5-1.7,2.4-4.1,3-6.8h-5.1V728.6z"/>
</g>
<g>
	<path id="Right_median_Foot_23" class="st0_14x human" d="M124.2,667.3c0,0-0.6,2.6-1.9,6.3h9.5v-5.4L124.2,667.3z"/>
</g>
<g>
	<polygon id="Right_median_Foot_22" class="st0_14x human" points="131.8,668.1 131.8,673.5 146.1,673.5 146.1,669.8 	"/>
</g>
<g>
	<path id="Right_median_Foot_21" class="st0_14x human" d="M60.3,715.6v4.4h14.3v-8.8C69.6,713.1,64.6,714.4,60.3,715.6z"/>
</g>
<g>
	<path id="Right_median_Foot_20" class="st0_14x human" d="M76.2,710.6c-0.5,0.2-1.1,0.4-1.6,0.6v8.8h14.3v-15.1
		C84.9,706.9,80.6,708.9,76.2,710.6z"/>
	<path id="Right_median_Foot_19" class="st0_14x human" d="M60.3,720v13.2c3.9,0,9.1-0.6,14.3-1.3V720H60.3z"/>
</g>
<g>
	<path id="Right_median_Foot_18" class="st0_14x human" d="M74.6,720v11.9c5.1-0.7,10.2-1.7,14.3-2.5V720H74.6z"/>
</g>
<g>
	<path id="Right_median_Foot_17" class="st0_14x human" d="M60.3,715.6c-4.5,1.3-8.3,2.6-10.7,4.4h10.7V715.6z"/>
</g>
<g>
	<path id="Right_median_Foot_16" class="st0_14x human" d="M49.7,720c-1.2,0.9-2.1,1.9-2.5,3.2c-0.2,4.7,2.1,7.2,7.7,9.3
		c1.2,0.5,3.1,0.7,5.5,0.7V720H49.7z"/>
</g>
<g>
	<path id="Right_median_Foot_15" class="st0_14x human" d="M117.5,683.8v5.2h14.3v-15.5h-9.5C121.2,676.5,119.7,680.2,117.5,683.8z"/>
</g>
<g>
	<rect id="Right_median_Foot_14" x="131.8" y="673.5" class="st0_14x human" width="14.3" height="15.5"/>
</g>
<g>
	<rect id="Right_median_Foot_13" x="117.5" y="689" class="st0_14x human" width="14.3" height="15.5"/>
</g>
<g>
	<rect id="Right_median_Foot_12" x="131.8" y="689" class="st0_14x human" width="14.3" height="15.5"/>
</g>
<g>
	<path id="Right_median_Foot_11" class="st0_14x human" d="M113.8,689h3.8v-5.2C116.4,685.6,115.2,687.4,113.8,689z"/>
</g>
<g>
	<path id="Right_median_Foot_10" class="st0_14x human" d="M89.6,704.5h13.6v-7.6C99.6,699.1,94.9,701.8,89.6,704.5z"/>
</g>
<g>
	<path id="Right_median_Foot_09" class="st0_14x human" d="M113.8,689c-1.6,1.8-3.3,3.3-5.3,4.5c-1.3,0.9-3.1,2.1-5.3,3.4v7.6h14.3V689
		H113.8z"/>
</g>
<g>
	<rect id="Right_median_Foot_08" x="117.5" y="704.5" class="st0_14x human" width="14.3" height="15.5"/>
</g>
<g>
	<rect id="Right_median_Foot_07" x="131.8" y="704.5" class="st0_14x human" width="14.3" height="15.5"/>
</g>
<g>
	<path id="Right_median_Foot_06" class="st0_14x human" d="M117.5,720v5.7c0,0,0.1,0,0.1,0c3.5,1.7,10.6,3,14.2,3.7V720H117.5z"/>
</g>
<g>
	<path id="Right_median_Foot_05" class="st0_14x human" d="M131.8,720v9.5c0.8,0.2,1.4,0.3,1.8,0.4c1.3,0.4,6.6,1.3,12.5,1.3V720H131.8z"
		/>
</g>
<g>
	<path id="Right_median_Foot_04" class="st0_14x human" d="M89.6,704.5c-0.2,0.1-0.5,0.2-0.7,0.4V720h14.3v-15.5H89.6z"/>
</g>
<g>
	<rect id="Right_median_Foot_03" x="103.2" y="704.5" class="st0_14x human" width="14.3" height="15.5"/>
</g>
<g>
	<path id="Right_median_Foot_02" class="st0_14x human" d="M88.9,720v9.4c0.5-0.1,1.1-0.2,1.6-0.3c4.2-0.8,8.6-1.7,12.7-2.5V720H88.9z"/>
</g>
<g>
	<path id="Right_median_Foot_01" class="st0_14x human" d="M103.2,720v6.6c6.5-1.2,12.1-1.8,14.3-0.9V720H103.2z"/>
</g>
<g>
	<path id="Right_median_Knee_14" class="st0_14x human" d="M160.4,516.7c-4.7-2-9.7-4.2-14.3-6.2v8h14.3V516.7z"/>
</g>
<g>
	<path id="Right_median_Knee_13" class="st0_14x human" d="M160.4,516.7v1.8h4.2C163.3,517.9,161.9,517.3,160.4,516.7z"/>
</g>
<g>
	<path id="Right_median_Knee_12" class="st0_14x human" d="M178,524.3L178,524.3c-0.1,0-0.1-0.1-0.2-0.1l0,0c-0.1,0-0.2-0.1-0.4-0.2
		l-0.6-0.3c-0.3-0.2-0.8-0.3-1.2-0.5l-0.3-0.1c-0.2-0.1-0.4-0.2-0.5-0.2V534h4.2c0,0-1-4.1-1.1-5.5C177.7,527.5,178,524.3,178,524.3
		z"/>
</g>
<g>
	<polygon id="Right_median_Knee_11" class="st0_14x human" points="179,534 174.7,534 174.7,538.3 179.3,537.6 	"/>
</g>
<g>
	<rect id="Right_median_Knee_10" x="146.1" y="518.5" class="st0_14x human" width="14.3" height="15.5"/>
</g>
<g>
	<path id="Right_median_Knee_09" class="st0_14x human" d="M174.7,522.9c-0.1,0-0.1-0.1-0.2-0.1l-1.5-0.7c-2.3-1-5.2-2.3-8.4-3.7h-4.2V534
		h14.3V522.9z"/>
</g>
<g>
	<polygon id="Right_median_Knee_08" class="st0_14x human" points="160.4,534 146.1,534 146.1,542.5 160.4,540.4 	"/>
</g>
<g>
	<polygon id="Right_median_Knee_07" class="st0_14x human" points="174.7,534 160.4,534 160.4,540.4 174.7,538.3 	"/>
</g>
<g>
	<path id="Right_median_Knee_06" class="st0_14x human" d="M131.8,504.2c-0.3-0.1-0.6-0.3-0.9-0.4c-2.4,5.5-3.7,10.3-4.3,14.7h5.2V504.2z"
		/>
</g>
<g>
	<path id="Right_median_Knee_05" class="st0_14x human" d="M146.1,518.5v-8c-6.1-2.6-11.4-5-14.3-6.2v14.3H146.1z"/>
</g>
<g>
	<path id="Right_median_Knee_04" class="st0_14x human" d="M131.8,518.5h-5.2c-0.9,6.4-0.3,11.5,1,15.5h4.3V518.5z"/>
</g>
<g>
	<rect id="Right_median_Knee_03" x="131.8" y="518.5" class="st0_14x human" width="14.3" height="15.5"/>
</g>
<g>
	<path id="Right_median_Knee_02" class="st0_14x human" d="M127.5,534c1.2,4,3,6.9,4.3,8.6V534H127.5z"/>
</g>
<g>
	<path id="Right_median_Knee_01" class="st0_14x human" d="M133.4,544.4l12.7-1.9V534h-14.3v8.6C132.8,543.8,133.4,544.4,133.4,544.4z"/>
</g>
<g>
	<path id="Right_median_Thigh_44" class="st0_14x human" d="M189,379v-5.1c-1.1,1.6-2.3,3.3-3.4,5.1H189z"/>
</g>
<g>
	<path id="Right_median_Thigh_43" class="st0_14x human" d="M192,379c0.9-9.6,1.5-10.9,1.5-11c-1.4,1.7-2.9,3.7-4.5,5.9v5.1H192z"/>
</g>
<g>
	<path id="Right_median_Thigh_42" class="st0_14x human" d="M185.6,379c-3.2,4.9-6.4,10.3-9.3,15.5H189V379H185.6z"/>
</g>
<g>
	<path id="Right_median_Thigh_41" class="st0_14x human" d="M191,391c0.3-5,0.7-8.9,1-12H189v15.5h1.8C190.9,393.3,190.9,392.1,191,391z"
		/>
</g>
<g>
	<path id="Right_median_Thigh_40" class="st0_14x human" d="M189,410v-15.5h-12.7c-0.5,1-1.1,1.9-1.6,2.9V410H189z"/>
</g>
<g>
	<path id="Right_median_Thigh_39" class="st0_14x human" d="M190.8,394.5H189V410h2.1c-0.1-0.8-0.1-1.5-0.2-2c0-0.8,0-2.2,0-4.1
		C190.8,400.7,190.8,397.5,190.8,394.5z"/>
</g>
<g>
	<path id="Right_median_Thigh_38" class="st0_14x human" d="M174.7,397.4c-2.6,4.7-5,9.2-6.7,12.6h6.7V397.4z"/>
</g>
<g>
	<rect id="Right_median_Thigh_37" x="174.7" y="410" class="st0_14x human" width="14.3" height="15.5"/>
</g>
<g>
	<path id="Right_median_Thigh_36" class="st0_14x human" d="M191.1,410H189v15.5h4.1C192.1,418.8,191.4,413.3,191.1,410z"/>
</g>
<g>
	<rect id="Right_median_Thigh_35" x="174.7" y="425.5" class="st0_14x human" width="14.3" height="15.5"/>
</g>
<g>
	<path id="Right_median_Thigh_34" class="st0_14x human" d="M193.1,425.5H189V441h7.2C194.9,435.6,193.9,430.2,193.1,425.5z"/>
</g>
<g>
	<path id="Right_median_Thigh_33" class="st0_14x human" d="M168,410c-1.4,2.7-2.4,4.8-3,6c-0.7,1.4-2.1,4.9-3.8,9.5h13.6V410H168z"/>
</g>
<g>
	<path id="Right_median_Thigh_32" class="st0_14x human" d="M160.4,427.4c-1.5,4-3.3,8.7-5.1,13.6h5.1V427.4z"/>
</g>
<g>
	<path id="Right_median_Thigh_31" class="st0_14x human" d="M174.7,441v-15.5h-13.6c-0.2,0.6-0.5,1.3-0.7,1.9V441H174.7z"/>
</g>
<g>
	<rect id="Right_median_Thigh_30" x="174.7" y="441" class="st0_14x human" width="14.3" height="15.5"/>
</g>
<g>
	<path id="Right_median_Thigh_29" class="st0_14x human" d="M189,441v15.5h10.9c-0.4-1.6-0.8-2.8-0.9-3.5c-0.3-1.5-1-4.3-1.7-7.8
		c-0.4-1.4-0.7-2.8-1-4.2H189z"/>
</g>
<g>
	<rect id="Right_median_Thigh_28" x="174.7" y="456.5" class="st0_14x human" width="14.3" height="15.5"/>
</g>
<g>
	<path id="Right_median_Thigh_27" class="st0_14x human" d="M189,472h14.3v-4.1c-1.4-4.6-2.6-8.6-3.4-11.4H189V472z"/>
</g>
<g>
	<path id="Right_median_Thigh_26" class="st0_14x human" d="M155.3,441c-1.9,5.1-3.9,10.5-5.7,15.5h10.8V441H155.3z"/>
</g>
<g>
	<rect id="Right_median_Thigh_25" x="160.4" y="441" class="st0_14x human" width="14.3" height="15.5"/>
</g>
<g>
	<path id="Right_median_Thigh_24" class="st0_14x human" d="M160.4,472v-15.5h-10.8c-1.2,3.3-2.4,6.6-3.5,9.5v6H160.4z"/>
</g>
<g>
	<rect id="Right_median_Thigh_23" x="160.4" y="456.5" class="st0_14x human" width="14.3" height="15.5"/>
</g>
<g>
	<rect id="Right_median_Thigh_22" x="174.7" y="472" class="st0_14x human" width="14.3" height="15.5"/>
</g>
<g>
	<rect id="Right_median_Thigh_21" x="189" y="472" class="st0_14x human" width="14.3" height="15.5"/>
</g>
<g>
	<rect id="Right_median_Thigh_20" x="174.7" y="487.5" class="st0_14x human" width="14.3" height="15.5"/>
</g>
<g>
	<path id="Right_median_Thigh_19" class="st0_14x human" d="M189,503h1.9c4.6-6.1,9.1-10.9,12.4-14.2v-1.3H189V503z"/>
</g>
<g>
	<rect id="Right_median_Thigh_18" x="146.1" y="472" class="st0_14x human" width="14.3" height="15.5"/>
</g>
<g>
	<rect id="Right_median_Thigh_17" x="160.4" y="472" class="st0_14x human" width="14.3" height="15.5"/>
</g>
<g>
	<rect id="Right_median_Thigh_16" x="146.1" y="487.5" class="st0_14x human" width="14.3" height="15.5"/>
</g>
<g>
	<rect id="Right_median_Thigh_15" x="160.4" y="487.5" class="st0_14x human" width="14.3" height="15.5"/>
</g>
<g>
	<path id="Right_median_Thigh_14" class="st0_14x human" d="M204.6,472c-0.4-1.4-0.8-2.7-1.2-4.1v4.1H204.6z"/>
</g>
<g>
	<path id="Right_median_Thigh_13" class="st0_14x human" d="M203.3,472v15.5h1.3c1.8-1.7,3.1-2.9,3.7-3.4c-1.3-4.1-2.6-8.3-3.8-12.1H203.3
		z"/>
</g>
<g>
	<path id="Right_median_Thigh_12" class="st0_14x human" d="M204.6,487.5h-1.3v1.3C203.8,488.3,204.2,487.9,204.6,487.5z"/>
</g>
<g>
	<path id="Right_median_Thigh_11" class="st0_14x human" d="M146.1,466c-0.8,2.2-1.5,4.2-2.2,6h2.2V466z"/>
</g>
<g>
	<path id="Right_median_Thigh_10" class="st0_14x human" d="M143.9,472c-1,2.6-1.7,4.8-2.3,6.2c-1.2,3.4-2.4,6.4-3.6,9.3h8.1V472H143.9z"
		/>
</g>
<g>
	<path id="Right_median_Thigh_09" class="st0_14x human" d="M146.1,503v-15.5H138c-2.1,5-4.1,9.5-6.2,14.3v1.2H146.1z"/>
</g>
<g>
	<path id="Right_median_Thigh_08" class="st0_14x human" d="M189,505.5V503h-14.3v15.5h6.2C183.4,513.8,186.2,509.4,189,505.5z"/>
</g>
<g>
	<polygon id="Right_median_Thigh_07" class="st0_14x human" points="160.4,503 146.1,503 146.1,510.5 160.4,516.7 	"/>
</g>
<g>
	<polygon id="Right_median_Thigh_06" class="st0_14x human" points="174.7,518.5 174.7,503 160.4,503 160.4,516.7 164.6,518.5 	"/>
</g>
<g>
	<path id="Right_median_Thigh_05" class="st0_14x human" d="M175.3,523.1c0.1,0,0.2,0.1,0.3,0.1l1.2,0.5c0.2,0.1,0.4,0.2,0.6,0.3l0.4,0.2
		c0,0,0,0,0,0l0.2,0.1c0,0,0,0,0,0c0.9-2,1.9-3.9,2.9-5.8h-6.2v4.4L175.3,523.1z"/>
</g>
<g>
	<path id="Right_median_Thigh_04" class="st0_14x human" d="M174.7,518.5h-10.1l8.4,3.7c0.5,0.2,1.1,0.5,1.5,0.7l0.2,0.1V518.5z"/>
</g>
<g>
	<polygon id="Right_median_Thigh_03" class="st0_14x human" points="146.1,503 131.8,503 131.8,504.2 146.1,510.5 	"/>
</g>
<g>
	<path id="Right_median_Thigh_02" class="st0_14x human" d="M189,505.5c0.6-0.9,1.3-1.7,1.9-2.5H189V505.5z"/>
</g>
<g>
	<path id="Right_median_Thigh_01" class="st0_14x human" d="M131.3,503c-0.1,0.3-0.2,0.6-0.4,0.8l0.9,0.4V503H131.3z"/>
</g>
<g>
	<path id="Right_median_Lower_Limb_35" class="st0_14x human" d="M179.3,537.6l-4.6,0.7v11.2h7.8C180.9,543.7,179.3,537.6,179.3,537.6z"/>
</g>
<g>
	<polygon id="Right_median_Lower_Limb_34" class="st0_14x human" points="160.4,549.5 160.4,540.4 146.1,542.5 146.1,549.5 	"/>
</g>
<g>
	<polygon id="Right_median_Lower_Limb_33" class="st0_14x human" points="174.7,538.3 160.4,540.4 160.4,549.5 174.7,549.5 	"/>
</g>
<g>
	<path id="Right_median_Lower_Limb_32" class="st0_14x human" d="M146.1,542.5l-12.7,1.9c0,0-0.1,1.9-0.2,5.1h12.9V542.5z"/>
</g>
<g>
	<path id="Right_median_Lower_Limb_31" class="st0_14x human" d="M182.6,549.5h-7.8V565h11.9c-0.6-3.4-1.3-6.3-1.9-8.3
		C184.1,554.8,183.3,552.2,182.6,549.5z"/>
</g>
<g>
	<path id="Right_median_Lower_Limb_30" class="st0_14x human" d="M186.7,565h-11.9v15.5h12.8C187.8,574.6,187.4,569.3,186.7,565z"/>
</g>
<g>
	<rect id="Right_median_Lower_Limb_29" x="146.1" y="549.5" class="st0_14x human" width="14.3" height="15.5"/>
</g>
<g>
	<rect id="Right_median_Lower_Limb_28" x="160.4" y="549.5" class="st0_14x human" width="14.3" height="15.5"/>
</g>
<g>
	<rect id="Right_median_Lower_Limb_27" x="146.1" y="565" class="st0_14x human" width="14.3" height="15.5"/>
</g>
<g>
	<rect id="Right_median_Lower_Limb_26" x="160.4" y="565" class="st0_14x human" width="14.3" height="15.5"/>
</g>
<g>
	<path id="Right_median_Lower_Limb_25" class="st0_14x human" d="M187.6,580.5h-12.8V596h10.5c0.4-1.7,0.8-3.1,1-4.3
		C187,587.9,187.4,584.1,187.6,580.5z"/>
</g>
<g>
	<path id="Right_median_Lower_Limb_24" class="st0_14x human" d="M174.7,596v15.5h5.8c2-6.1,3.7-11.5,4.7-15.5H174.7z"/>
</g>
<g>
	<rect id="Right_median_Lower_Limb_23" x="146.1" y="580.5" class="st0_14x human" width="14.3" height="15.5"/>
</g>
<g>
	<rect id="Right_median_Lower_Limb_22" x="160.4" y="580.5" class="st0_14x human" width="14.3" height="15.5"/>
</g>
<g>
	<rect id="Right_median_Lower_Limb_21" x="146.1" y="596" class="st0_14x human" width="14.3" height="15.5"/>
</g>
<g>
	<rect id="Right_median_Lower_Limb_20" x="160.4" y="596" class="st0_14x human" width="14.3" height="15.5"/>
</g>
<g>
	<path id="Right_median_Lower_Limb_19" class="st0_14x human" d="M174.7,611.5V627h0.5c1.8-5.4,3.6-10.6,5.2-15.5H174.7z"/>
</g>
<g>
	<rect id="Right_median_Lower_Limb_18" x="146.1" y="611.5" class="st0_14x human" width="14.3" height="15.5"/>
</g>
<g>
	<rect id="Right_median_Lower_Limb_17" x="160.4" y="611.5" class="st0_14x human" width="14.3" height="15.5"/>
</g>
<g>
	<rect id="Right_median_Lower_Limb_16" x="146.1" y="627" class="st0_14x human" width="14.3" height="15.5"/>
</g>
<g>
	<path id="Right_median_Lower_Limb_15" class="st0_14x human" d="M174.7,627h-14.3v15.5h9.4c1.6-4.5,3.3-9.2,4.9-13.9V627z"/>
</g>
<g>
	<rect id="Right_median_Lower_Limb_14" x="146.1" y="642.5" class="st0_14x human" width="14.3" height="15.5"/>
</g>
<g>
	<path id="Right_median_Lower_Limb_13" class="st0_14x human" d="M160.4,642.5V658h3.8c1.6-4.5,3.6-9.8,5.6-15.5H160.4z"/>
</g>
<g>
	<path id="Right_median_Lower_Limb_12" class="st0_14x human" d="M146.1,658v11.8l13.2,1.6c0,0,0.4-1,1.1-2.9V658H146.1z"/>
</g>
<g>
	<path id="Right_median_Lower_Limb_11" class="st0_14x human" d="M160.4,668.5c0.9-2.3,2.2-6,3.8-10.5h-3.8V668.5z"/>
</g>
<g>
	<path id="Right_median_Lower_Limb_10" class="st0_14x human" d="M146.1,549.5h-12.9c-0.1,3.8-0.4,9.4-0.6,15.5h13.5V549.5z"/>
</g>
<g>
	<path id="Right_median_Lower_Limb_09" class="st0_14x human" d="M132.6,565c-0.2,5-0.4,10.4-0.6,15.5h14.1V565H132.6z"/>
</g>
<g>
	<path id="Right_median_Lower_Limb_08" class="st0_14x human" d="M132,580.5c-0.1,2.1-0.2,4.2-0.2,6.2c-0.1,3.4-0.2,6.6-0.3,9.3h0.3h14.3
		v-15.5H132z"/>
</g>
<g>
	<path id="Right_median_Lower_Limb_07" class="st0_14x human" d="M131.8,596h-0.3c-0.1,3.2-0.2,5.8-0.2,7.3c-0.1,2.2-0.1,5.1-0.1,8.3h0.7
		h14.3V596H131.8z"/>
</g>
<g>
	<path id="Right_median_Lower_Limb_06" class="st0_14x human" d="M131.8,611.5h-0.7c0,5,0,10.7,0,15.5h0.6h14.3v-15.5H131.8z"/>
</g>
<g>
	<path id="Right_median_Lower_Limb_05" class="st0_14x human" d="M131.8,627h-0.6c0,4.7,0.1,8.6,0.1,10c0,0.9-0.4,2.9-0.9,5.5h1.5h14.3
		V627H131.8z"/>
</g>
<g>
	<path id="Right_median_Lower_Limb_04" class="st0_14x human" d="M130.3,642.5c-0.9,4.4-2.4,10.5-3.7,15.5h5.2v-15.5H130.3z"/>
</g>
<g>
	<rect id="Right_median_Lower_Limb_03" x="131.8" y="642.5" class="st0_14x human" width="14.3" height="15.5"/>
</g>
<g>
	<path id="Right_median_Lower_Limb_02" class="st0_14x human" d="M126.6,658c-1.3,5.2-2.4,9.3-2.4,9.3l7.6,0.9V658H126.6z"/>
</g>
<g>
	<polygon id="Right_median_Lower_Limb_01" class="st0_14x human" points="131.8,658 131.8,668.1 146.1,669.8 146.1,658 	"/>
</g>
<g>
	<path id="Left_Lateral_Foot_33" class="st0_14x human" d="M289.1,704.5h1.1c-0.4-1.4-0.8-3.2-1.1-5.2V704.5z"/>
</g>
<g>
	<polygon id="Left_Lateral_Foot_32" class="st0_14x human" points="260.5,687.5 260.5,689 274.8,689 274.8,686.5 	"/>
</g>
<g>
	<path id="Left_Lateral_Foot_31" class="st0_14x human" d="M274.8,686.5v2.5H288c-0.2-1.5-0.3-2.7-0.4-3.3L274.8,686.5z"/>
</g>
<g>
	<rect id="Left_Lateral_Foot_30" x="260.5" y="689" class="st0_14x human" width="14.3" height="15.5"/>
</g>
<g>
	<path id="Left_Lateral_Foot_29" class="st0_14x human" d="M288,689h-13.2v15.5h14.3v-5.2C288.6,695.8,288.3,691.8,288,689z"/>
</g>
<g>
	<path id="Left_Lateral_Foot_28" class="st0_14x human" d="M291.3,706.5c-0.4-0.4-0.7-1.1-1-2h-1.1V720h8.4
		C296.6,714.5,294.5,709.5,291.3,706.5z"/>
</g>
<g>
	<path id="Left_Lateral_Foot_27" class="st0_14x human" d="M297.5,720h-8.4v15.5h8.1C298.2,730.8,298.3,725.2,297.5,720z"/>
</g>
<g>
	<rect id="Left_Lateral_Foot_26" x="260.5" y="704.5" class="st0_14x human" width="14.3" height="15.5"/>
</g>
<g>
	<rect id="Left_Lateral_Foot_25" x="274.8" y="704.5" class="st0_14x human" width="14.3" height="15.5"/>
</g>
<g>
	<rect id="Left_Lateral_Foot_24" x="260.5" y="720" class="st0_14x human" width="14.3" height="15.5"/>
</g>
<g>
	<rect id="Left_Lateral_Foot_23" x="274.8" y="720" class="st0_14x human" width="14.3" height="15.5"/>
</g>
<g>
	<path id="Left_Lateral_Foot_22" class="st0_14x human" d="M289.1,746.5c3-1.2,5.3-2.9,6.4-5.3c0.7-1.7,1.3-3.6,1.8-5.8h-8.1V746.5z"/>
</g>
<g>
	<path id="Left_Lateral_Foot_21" class="st0_14x human" d="M260.5,735.5v11.1c0.6,0.4,1.1,0.9,1.7,1.4c0.7,0.6,6.2,1.3,12.6,1.1v-13.6
		H260.5z"/>
</g>
<g>
	<path id="Left_Lateral_Foot_20" class="st0_14x human" d="M274.8,735.5v13.6c4.8-0.2,10.2-0.9,14.3-2.6v-11H274.8z"/>
</g>
<g>
	<path id="Left_Lateral_Foot_19" class="st0_14x human" d="M175,734.3c0,0-0.1,0.1-0.3,0.3v0.9H189V732C182.5,733.2,175,734.3,175,734.3z"
		/>
</g>
<g>
	<path id="Left_Lateral_Foot_18" class="st0_14x human" d="M198.1,729.8c-1.1,0.6-4.9,1.4-9.1,2.2v3.5h14.3v-9.1
		C201.4,727.8,199.4,729.1,198.1,729.8z"/>
</g>
<g>
	<path id="Left_Lateral_Foot_17" class="st0_14x human" d="M246.5,688.5c0,0,0,0.2,0,0.5h14.1v-1.5L246.5,688.5z"/>
</g>
<g>
	<path id="Left_Lateral_Foot_16" class="st0_14x human" d="M244.6,699.1c-0.6,1.9-1.3,3.8-2.2,5.4h3.8v-13.4
		C245.9,693.4,245.4,696.6,244.6,699.1z"/>
</g>
<g>
	<path id="Left_Lateral_Foot_15" class="st0_14x human" d="M246.2,691.1v13.4h14.3V689h-14.1C246.4,689.5,246.3,690.2,246.2,691.1z"/>
</g>
<g>
	<path id="Left_Lateral_Foot_14" class="st0_14x human" d="M242.4,704.5c-1.1,2.1-2.4,3.7-4.1,4c-1.6,0.3-4.1,1.2-6.3,2.4v9.1h14.3v-15.5
		H242.4z"/>
</g>
<g>
	<rect id="Left_Lateral_Foot_13" x="246.2" y="704.5" class="st0_14x human" width="14.3" height="15.5"/>
</g>
<g>
	<rect id="Left_Lateral_Foot_12" x="231.9" y="720" class="st0_14x human" width="14.3" height="15.5"/>
</g>
<g>
	<rect id="Left_Lateral_Foot_11" x="246.2" y="720" class="st0_14x human" width="14.3" height="15.5"/>
</g>
<g>
	<path id="Left_Lateral_Foot_10" class="st0_14x human" d="M227.7,714c-1.2,1.8-4.3,4.8-6.4,6h10.5v-9.1C230.1,711.8,228.4,713,227.7,714z
		"/>
</g>
<g>
	<path id="Left_Lateral_Foot_09" class="st0_14x human" d="M208.9,722.3c-1.2,0.9-3.4,2.6-5.6,4.1v9.1h14.3v-15
		C214.8,720.6,210.6,721,208.9,722.3z"/>
</g>
<g>
	<path id="Left_Lateral_Foot_08" class="st0_14x human" d="M221.4,720c-0.5,0.3-1,0.5-1.4,0.5c-0.5,0-1.3,0-2.4,0v15h14.3V720H221.4z"/>
</g>
<g>
	<path id="Left_Lateral_Foot_07" class="st0_14x human" d="M174.7,735.5v8.3c3.9,4.6,8.6,4.3,14.3,4.8v-13.2H174.7z"/>
</g>
<g>
	<path id="Left_Lateral_Foot_06" class="st0_14x human" d="M189,735.5v13.2c0,0,0.1,0,0.1,0c3.5,0.3,8.9,0.4,14.2,0.2v-13.4H189z"/>
</g>
<g>
	<path id="Left_Lateral_Foot_05" class="st0_14x human" d="M174.1,735.5c-0.9,1.5-2,4.4,0.2,7.8c0.2,0.2,0.3,0.4,0.5,0.6v-8.3H174.1z"/>
</g>
<g>
	<path id="Left_Lateral_Foot_04" class="st0_14x human" d="M231.9,735.5v7.6c5.1-1.4,9.6-2.6,10.8-2.6c0.8,0,2,0,3.5,0.1v-5.1H231.9z"/>
</g>
<g>
	<path id="Left_Lateral_Foot_03" class="st0_14x human" d="M246.2,735.5v5.1c3.4,0.3,8.4,1.5,14.3,6v-11.1H246.2z"/>
</g>
<g>
	<path id="Left_Lateral_Foot_02" class="st0_14x human" d="M203.3,735.5v13.4c4.2-0.2,8.3-0.5,11.2-1.1c0.9-0.2,1.9-0.4,3.1-0.7v-11.5
		H203.3z"/>
</g>
<g>
	<path id="Left_Lateral_Foot_01" class="st0_14x human" d="M217.6,735.5V747c4-1,9.4-2.6,14.3-3.9v-7.6H217.6z"/>
</g>
<g>
	<polygon id="Left_Lateral_Lower_Limb_47" class="st0_14x human" points="260.5,549.5 274.8,549.5 274.8,539.5 260.5,543.1 	"/>
</g>
<g>
	<path id="Left_Lateral_Lower_Limb_46" class="st0_14x human" d="M274.8,539.5v10h6.1c-2.6-5.8-4.9-10.3-4.9-10.3l0,0l0,0L274.8,539.5z"/>
</g>
<g>
	<polygon id="Left_Lateral_Lower_Limb_45" class="st0_14x human" points="246.2,549.5 246.2,546.6 234.6,549.5 	"/>
</g>
<g>
	<polygon id="Left_Lateral_Lower_Limb_44" class="st0_14x human" points="246.2,546.6 246.2,549.5 260.5,549.5 260.5,543.1 	"/>
</g>
<g>
	<path id="Left_Lateral_Lower_Limb_43" class="st0_14x human" d="M289.8,580.5c-0.2-1.2-0.4-2.4-0.6-3.6v3.6H289.8z"/>
</g>
<g>
	<rect id="Left_Lateral_Lower_Limb_42" x="260.5" y="549.5" class="st0_14x human" width="14.3" height="15.5"/>
</g>
<g>
	<path id="Left_Lateral_Lower_Limb_41" class="st0_14x human" d="M274.8,565h11.7c-1.1-4.2-2.2-7.8-3.3-10.3c-0.8-1.8-1.6-3.6-2.3-5.2
		h-6.1V565z"/>
</g>
<g>
	<rect id="Left_Lateral_Lower_Limb_40" x="260.5" y="565" class="st0_14x human" width="14.3" height="15.5"/>
</g>
<g>
	<path id="Left_Lateral_Lower_Limb_39" class="st0_14x human" d="M274.8,565v15.5h14.3v-3.6c-0.8-4.2-1.7-8.2-2.6-11.9H274.8z"/>
</g>
<g>
	<path id="Left_Lateral_Lower_Limb_38" class="st0_14x human" d="M289.1,596h2.5c-0.3-4.6-0.9-10.1-1.8-15.5h-0.6V596z"/>
</g>
<g>
	<path id="Left_Lateral_Lower_Limb_37" class="st0_14x human" d="M289.1,611.5h0.7c0.7-2.5,1.3-4.7,1.5-6.2c0.4-2.3,0.5-5.5,0.3-9.3h-2.5
		V611.5z"/>
</g>
<g>
	<rect id="Left_Lateral_Lower_Limb_36" x="260.5" y="580.5" class="st0_14x human" width="14.3" height="15.5"/>
</g>
<g>
	<rect id="Left_Lateral_Lower_Limb_35" x="274.8" y="580.5" class="st0_14x human" width="14.3" height="15.5"/>
</g>
<g>
	<rect id="Left_Lateral_Lower_Limb_34" x="260.5" y="596" class="st0_14x human" width="14.3" height="15.5"/>
</g>
<g>
	<rect id="Left_Lateral_Lower_Limb_33" x="274.8" y="596" class="st0_14x human" width="14.3" height="15.5"/>
</g>
<g>
	<path id="Left_Lateral_Lower_Limb_32" class="st0_14x human" d="M289.1,613.9c0.2-0.8,0.5-1.6,0.7-2.4h-0.7V613.9z"/>
</g>
<g>
	<rect id="Left_Lateral_Lower_Limb_31" x="260.5" y="611.5" class="st0_14x human" width="14.3" height="15.5"/>
</g>
<g>
	<path id="Left_Lateral_Lower_Limb_30" class="st0_14x human" d="M274.8,611.5V627h10.3c1.2-3.9,2.7-8.8,4-13.1v-2.4H274.8z"/>
</g>
<g>
	<rect id="Left_Lateral_Lower_Limb_29" x="260.5" y="627" class="st0_14x human" width="14.3" height="15.5"/>
</g>
<g>
	<path id="Left_Lateral_Lower_Limb_28" class="st0_14x human" d="M283,642.5c-0.3-4.7-0.3-8.2,0.1-9.4c0.4-1.2,1.2-3.4,2-6.1h-10.3v15.5
		H283z"/>
</g>
<g>
	<rect id="Left_Lateral_Lower_Limb_27" x="260.5" y="642.5" class="st0_14x human" width="14.3" height="15.5"/>
</g>
<g>
	<path id="Left_Lateral_Lower_Limb_26" class="st0_14x human" d="M274.8,642.5V658h9.6c-0.6-5.6-1.1-11.1-1.4-15.5H274.8z"/>
</g>
<g>
	<rect id="Left_Lateral_Lower_Limb_25" x="260.5" y="658" class="st0_14x human" width="14.3" height="15.5"/>
</g>
<g>
	<path id="Left_Lateral_Lower_Limb_24" class="st0_14x human" d="M274.8,658v15.5h11.3c-0.6-4.7-1.2-10.1-1.7-15.5H274.8z"/>
</g>
<g>
	<polygon id="Left_Lateral_Lower_Limb_23" class="st0_14x human" points="231.9,550.2 231.9,565 246.2,565 246.2,549.5 234.6,549.5 	"/>
</g>
<g>
	<rect id="Left_Lateral_Lower_Limb_22" x="246.2" y="549.5" class="st0_14x human" width="14.3" height="15.5"/>
</g>
<g>
	<rect id="Left_Lateral_Lower_Limb_21" x="231.9" y="565" class="st0_14x human" width="14.3" height="15.5"/>
</g>
<g>
	<rect id="Left_Lateral_Lower_Limb_20" x="246.2" y="565" class="st0_14x human" width="14.3" height="15.5"/>
</g>
<g>
	<path id="Left_Lateral_Lower_Limb_19" class="st0_14x human" d="M230.3,565h1.6v-14.8l-2.5,0.6C229.4,550.8,229.8,557,230.3,565z"/>
</g>
<g>
	<path id="Left_Lateral_Lower_Limb_18" class="st0_14x human" d="M231.4,580.5h0.5V565h-1.6C230.7,569.8,231,575.3,231.4,580.5z"/>
</g>
<g>
	<path id="Left_Lateral_Lower_Limb_17" class="st0_14x human" d="M231.9,587.4c0.3,3.3,0.5,6.3,0.7,8.6h13.6v-15.5h-14.3V587.4z"/>
</g>
<g>
	<rect id="Left_Lateral_Lower_Limb_16" x="246.2" y="580.5" class="st0_14x human" width="14.3" height="15.5"/>
</g>
<g>
	<path id="Left_Lateral_Lower_Limb_15" class="st0_14x human" d="M233.2,600.7c0.2,0.8,0.8,4.9,1.8,10.8h11.2V596h-13.6
		C232.9,598.4,233.1,600.1,233.2,600.7z"/>
</g>
<g>
	<rect id="Left_Lateral_Lower_Limb_14" x="246.2" y="596" class="st0_14x human" width="14.3" height="15.5"/>
</g>
<g>
	<path id="Left_Lateral_Lower_Limb_13" class="st0_14x human" d="M231.9,587.4v-6.9h-0.5C231.6,582.9,231.8,585.2,231.9,587.4z"/>
</g>
<g>
	<path id="Left_Lateral_Lower_Limb_12" class="st0_14x human" d="M235,611.5c0.7,4.3,1.5,9.7,2.3,15.5h8.9v-15.5H235z"/>
</g>
<g>
	<rect id="Left_Lateral_Lower_Limb_11" x="246.2" y="611.5" class="st0_14x human" width="14.3" height="15.5"/>
</g>
<g>
	<path id="Left_Lateral_Lower_Limb_10" class="st0_14x human" d="M246.2,627h-8.9c0.7,4.9,1.5,10.2,2.3,15.5h6.6V627z"/>
</g>
<g>
	<rect id="Left_Lateral_Lower_Limb_09" x="246.2" y="627" class="st0_14x human" width="14.3" height="15.5"/>
</g>
<g>
	<path id="Left_Lateral_Lower_Limb_08" class="st0_14x human" d="M239.7,642.5c0.8,5.2,1.6,10.5,2.3,15.5h4.3v-15.5H239.7z"/>
</g>
<g>
	<rect id="Left_Lateral_Lower_Limb_07" x="246.2" y="642.5" class="st0_14x human" width="14.3" height="15.5"/>
</g>
<g>
	<path id="Left_Lateral_Lower_Limb_06" class="st0_14x human" d="M241.9,658c0.8,5.6,1.6,10.9,2.3,15.5h2V658H241.9z"/>
</g>
<g>
	<rect id="Left_Lateral_Lower_Limb_05" x="246.2" y="658" class="st0_14x human" width="14.3" height="15.5"/>
</g>
<g>
	<polygon id="Left_Lateral_Lower_Limb_04" class="st0_14x human" points="260.5,673.5 260.5,687.5 274.8,686.5 274.8,673.5 	"/>
</g>
<g>
	<path id="Left_Lateral_Lower_Limb_03" class="st0_14x human" d="M274.8,686.5l12.8-0.9c-0.2-2.2-0.8-6.7-1.5-12.2h-11.3V686.5z"/>
</g>
<g>
	<path id="Left_Lateral_Lower_Limb_02" class="st0_14x human" d="M246.2,686.8v-13.3h-2C245.1,679.6,245.8,684.4,246.2,686.8z"/>
</g>
<g>
	<path id="Left_Lateral_Lower_Limb_01" class="st0_14x human" d="M246.2,673.5v13.3c0.2,1.1,0.3,1.7,0.3,1.7l14-1v-14H246.2z"/>
</g>
<g>
	<path id="Left_Lateral_Knee_17" class="st0_14x human" d="M260.5,503h6.1c-0.3-1.8-0.4-2.9-0.4-2.9l-5.7,1.7V503z"/>
</g>
<g>
	<polygon id="Left_Lateral_Knee_16" class="st0_14x human" points="260.5,503 260.5,501.8 256.6,503 	"/>
</g>
<g>
	<path id="Left_Lateral_Knee_15" class="st0_14x human" d="M260.5,518.5h9.1c-1.6-6.7-2.5-12.3-3-15.5h-6.1V518.5z"/>
</g>
<g>
	<path id="Left_Lateral_Knee_14" class="st0_14x human" d="M260.5,534H274c-1.8-5.3-3.3-10.7-4.4-15.5h-9.1V534z"/>
</g>
<g>
	<path id="Left_Lateral_Knee_13" class="st0_14x human" d="M260.5,534v9.1l14.3-3.5v-3.4c-0.3-0.7-0.5-1.4-0.8-2.2H260.5z"/>
</g>
<g>
	<path id="Left_Lateral_Knee_12" class="st0_14x human" d="M276,539.2c-0.4-1-0.8-2-1.2-3.1v3.4L276,539.2z"/>
</g>
<g>
	<polygon id="Left_Lateral_Knee_11" class="st0_14x human" points="231.9,510.4 231.9,518.5 246.2,518.5 246.2,506.1 	"/>
</g>
<g>
	<polygon id="Left_Lateral_Knee_10" class="st0_14x human" points="246.2,506.1 246.2,518.5 260.5,518.5 260.5,503 256.6,503 	"/>
</g>
<g>
	<path id="Left_Lateral_Knee_09" class="st0_14x human" d="M218.3,518.5h13.6v-8.1l-13.9,4.1C218.2,515.9,218.3,517.2,218.3,518.5z"/>
</g>
<g>
	<rect id="Left_Lateral_Knee_08" x="231.9" y="518.5" class="st0_14x human" width="14.3" height="15.5"/>
</g>
<g>
	<rect id="Left_Lateral_Knee_07" x="246.2" y="518.5" class="st0_14x human" width="14.3" height="15.5"/>
</g>
<g>
	<polygon id="Left_Lateral_Knee_06" class="st0_14x human" points="231.9,549.5 234.6,549.5 246.2,546.6 246.2,534 231.9,534 	"/>
</g>
<g>
	<polygon id="Left_Lateral_Knee_05" class="st0_14x human" points="246.2,546.6 260.5,543.1 260.5,534 246.2,534 	"/>
</g>
<g>
	<path id="Left_Lateral_Knee_04" class="st0_14x human" d="M219.2,534h12.7v-15.5h-13.6C218.4,522.7,217.9,527.1,219.2,534z"/>
</g>
<g>
	<path id="Left_Lateral_Knee_03" class="st0_14x human" d="M228.2,549.5h3.8V534h-12.7C220.6,540.8,225.7,546.9,228.2,549.5z"/>
</g>
<g>
	<polygon id="Left_Lateral_Knee_02" class="st0_14x human" points="234.6,549.5 231.9,549.5 231.9,550.2 	"/>
</g>
<g>
	<path id="Left_Lateral_Knee_01" class="st0_14x human" d="M229.4,550.8l2.5-0.6v-0.7h-3.8C228.9,550.3,229.4,550.8,229.4,550.8z"/>
</g>
<g>
	<path id="Left_Lateral_Thigh_77" class="st0_14x human" d="M218,334.3c0.6-0.6,1.3-1.2,1.9-1.8h-2.3v2.1
		C217.7,334.5,217.9,334.4,218,334.3z"/>
</g>
<g>
	<path id="Left_Lateral_Thigh_76" class="st0_14x human" d="M260.5,332.5h14.3v-5.3c-4.1-4.1-9.1-6.8-14.3-8.5V332.5z"/>
</g>
<g>
	<path id="Left_Lateral_Thigh_75" class="st0_14x human" d="M274.8,327.2v5.3h4.2C277.8,330.6,276.4,328.8,274.8,327.2z"/>
</g>
<g>
	<rect id="Left_Lateral_Thigh_74" x="260.5" y="332.5" class="st0_14x human" width="14.3" height="15.5"/>
</g>
<g>
	<path id="Left_Lateral_Thigh_73" class="st0_14x human" d="M274.8,348h9.5c-0.2-1.2-0.4-2.4-0.6-3.7c-0.9-4.6-2.5-8.5-4.6-11.8h-4.2V348z
		"/>
</g>
<g>
	<rect id="Left_Lateral_Thigh_72" x="260.5" y="348" class="st0_14x human" width="14.3" height="15.5"/>
</g>
<g>
	<path id="Left_Lateral_Thigh_71" class="st0_14x human" d="M274.8,363.5h10.3c0.2-4.7,0-9.8-0.8-15.5h-9.5V363.5z"/>
</g>
<g>
	<rect id="Left_Lateral_Thigh_70" x="260.5" y="363.5" class="st0_14x human" width="14.3" height="15.5"/>
</g>
<g>
	<path id="Left_Lateral_Thigh_69" class="st0_14x human" d="M274.8,379h7.7c1.3-4.4,2.3-9.6,2.6-15.5h-10.3V379z"/>
</g>
<g>
	<path id="Left_Lateral_Thigh_68" class="st0_14x human" d="M193.5,368C193.5,368,193.5,368,193.5,368c0,0-0.4,4.7-0.9,11h10.7v-12.8
		C198.6,367.7,193.5,368,193.5,368C193.5,368,193.5,368,193.5,368z"/>
</g>
<g>
	<path id="Left_Lateral_Thigh_67" class="st0_14x human" d="M231.9,332.5h14.3v-12.8c-4.5,1.1-9.5,2.9-14.3,5.2V332.5z"/>
</g>
<g>
	<path id="Left_Lateral_Thigh_66" class="st0_14x human" d="M246.2,319.7v12.8h14.3v-13.8c-0.1,0-0.1,0-0.2-0.1
		C258.2,317.7,252.7,318.1,246.2,319.7z"/>
</g>
<g>
	<rect id="Left_Lateral_Thigh_65" x="231.9" y="332.5" class="st0_14x human" width="14.3" height="15.5"/>
</g>
<g>
	<rect id="Left_Lateral_Thigh_64" x="246.2" y="332.5" class="st0_14x human" width="14.3" height="15.5"/>
</g>
<g>
	<path id="Left_Lateral_Thigh_63" class="st0_14x human" d="M231.9,332.5v-7.6c-4.3,2.1-8.4,4.6-12,7.6H231.9z"/>
</g>
<g>
	<path id="Left_Lateral_Thigh_62" class="st0_14x human" d="M211.7,348h5.9v-13.4C214.1,338.3,212.5,343.3,211.7,348z"/>
</g>
<g>
	<path id="Left_Lateral_Thigh_61" class="st0_14x human" d="M218,334.3c-0.1,0.1-0.2,0.3-0.4,0.4V348h14.3v-15.5h-12
		C219.3,333.1,218.6,333.6,218,334.3z"/>
</g>
<g>
	<rect id="Left_Lateral_Thigh_60" x="231.9" y="348" class="st0_14x human" width="14.3" height="15.5"/>
</g>
<g>
	<rect id="Left_Lateral_Thigh_59" x="246.2" y="348" class="st0_14x human" width="14.3" height="15.5"/>
</g>
<g>
	<rect id="Left_Lateral_Thigh_58" x="231.9" y="363.5" class="st0_14x human" width="14.3" height="15.5"/>
</g>
<g>
	<rect id="Left_Lateral_Thigh_57" x="246.2" y="363.5" class="st0_14x human" width="14.3" height="15.5"/>
</g>
<g>
	<path id="Left_Lateral_Thigh_56" class="st0_14x human" d="M210.7,360.5c-0.4,1.2-1.2,2.2-2.2,3h9.1V348h-5.9
		C210.7,354,211.1,359.4,210.7,360.5z"/>
</g>
<g>
	<rect id="Left_Lateral_Thigh_55" x="217.6" y="348" class="st0_14x human" width="14.3" height="15.5"/>
</g>
<g>
	<path id="Left_Lateral_Thigh_54" class="st0_14x human" d="M203.3,366.2V379h14.3v-15.5h-9.1C207.1,364.7,205.3,365.5,203.3,366.2z"/>
</g>
<g>
	<rect id="Left_Lateral_Thigh_53" x="217.6" y="363.5" class="st0_14x human" width="14.3" height="15.5"/>
</g>
<g>
	<rect id="Left_Lateral_Thigh_52" x="260.5" y="379" class="st0_14x human" width="14.3" height="15.5"/>
</g>
<g>
	<path id="Left_Lateral_Thigh_51" class="st0_14x human" d="M274.8,394.5h1.5c1.6-3.6,4.2-8.6,6.2-15.5h-7.7V394.5z"/>
</g>
<g>
	<path id="Left_Lateral_Thigh_50" class="st0_14x human" d="M260.5,394.5V410h14.1c0-4.1,0-7.6,0.2-10v-5.5H260.5z"/>
</g>
<g>
	<path id="Left_Lateral_Thigh_49" class="st0_14x human" d="M274.8,400c0.1-1.3,0.3-2.3,0.5-3c0.2-0.7,0.6-1.5,1-2.5h-1.5V400z"/>
</g>
<g>
	<path id="Left_Lateral_Thigh_48" class="st0_14x human" d="M260.5,410v15.5h14.3v-3.2c-0.1-4.4-0.2-8.6-0.2-12.3H260.5z"/>
</g>
<g>
	<rect id="Left_Lateral_Thigh_47" x="260.5" y="425.5" class="st0_14x human" width="14.3" height="15.5"/>
</g>
<g>
	<rect id="Left_Lateral_Thigh_46" x="260.5" y="441" class="st0_14x human" width="14.3" height="15.5"/>
</g>
<g>
	<path id="Left_Lateral_Thigh_45" class="st0_14x human" d="M260.5,456.5V472h11.8c1-2.6,1.8-5.2,2.3-7.3c0.1-0.3,0.1-0.6,0.2-1v-7.3
		H260.5z"/>
</g>
<g>
	<path id="Left_Lateral_Thigh_44" class="st0_14x human" d="M266.5,487.5c0.5-2.8,1.4-5.7,2.8-8.4c1-2,2.1-4.6,3-7.1h-11.8v15.5H266.5z"/>
</g>
<g>
	<path id="Left_Lateral_Thigh_43" class="st0_14x human" d="M260.5,501.8l5.7-1.7c-0.6-3.3-0.6-7.9,0.2-12.6h-6V501.8z"/>
</g>
<g>
	<path id="Left_Lateral_Thigh_42" class="st0_14x human" d="M191.5,394.5h11.8V379h-10.7C192.3,383.8,191.9,389.4,191.5,394.5z"/>
</g>
<g>
	<path id="Left_Lateral_Thigh_41" class="st0_14x human" d="M191,403.9c0.1,2,0.3,4,0.5,6.1h11.8v-15.5h-11.8
		C191.3,398.1,191.1,401.4,191,403.9z"/>
</g>
<g>
	<path id="Left_Lateral_Thigh_40" class="st0_14x human" d="M193.5,425.5h9.8V410h-11.8C192,415.2,192.7,420.5,193.5,425.5z"/>
</g>
<g>
	<path id="Left_Lateral_Thigh_39" class="st0_14x human" d="M196.4,441h6.9v-15.5h-9.8C194.5,431.2,195.5,436.5,196.4,441z"/>
</g>
<g>
	<rect id="Left_Lateral_Thigh_38" x="231.9" y="379" class="st0_14x human" width="14.3" height="15.5"/>
</g>
<g>
	<rect id="Left_Lateral_Thigh_37" x="246.2" y="379" class="st0_14x human" width="14.3" height="15.5"/>
</g>
<g>
	<rect id="Left_Lateral_Thigh_36" x="231.9" y="394.5" class="st0_14x human" width="14.3" height="15.5"/>
</g>
<g>
	<rect id="Left_Lateral_Thigh_35" x="246.2" y="394.5" class="st0_14x human" width="14.3" height="15.5"/>
</g>
<g>
	<rect id="Left_Lateral_Thigh_34" x="203.3" y="379" class="st0_14x human" width="14.3" height="15.5"/>
</g>
<g>
	<rect id="Left_Lateral_Thigh_33" x="217.6" y="379" class="st0_14x human" width="14.3" height="15.5"/>
</g>
<g>
	<rect id="Left_Lateral_Thigh_32" x="203.3" y="394.5" class="st0_14x human" width="14.3" height="15.5"/>
</g>
<g>
	<rect id="Left_Lateral_Thigh_31" x="217.6" y="394.5" class="st0_14x human" width="14.3" height="15.5"/>
</g>
<g>
	<rect id="Left_Lateral_Thigh_30" x="231.9" y="410" class="st0_14x human" width="14.3" height="15.5"/>
</g>
<g>
	<rect id="Left_Lateral_Thigh_29" x="246.2" y="410" class="st0_14x human" width="14.3" height="15.5"/>
</g>
<g>
	<rect id="Left_Lateral_Thigh_28" x="231.9" y="425.5" class="st0_14x human" width="14.3" height="15.5"/>
</g>
<g>
	<rect id="Left_Lateral_Thigh_27" x="246.2" y="425.5" class="st0_14x human" width="14.3" height="15.5"/>
</g>
<g>
	<rect id="Left_Lateral_Thigh_26" x="203.3" y="410" class="st0_14x human" width="14.3" height="15.5"/>
</g>
<g>
	<rect id="Left_Lateral_Thigh_25" x="217.6" y="410" class="st0_14x human" width="14.3" height="15.5"/>
</g>
<g>
	<rect id="Left_Lateral_Thigh_24" x="203.3" y="425.5" class="st0_14x human" width="14.3" height="15.5"/>
</g>
<g>
	<rect id="Left_Lateral_Thigh_23" x="217.6" y="425.5" class="st0_14x human" width="14.3" height="15.5"/>
</g>
<g>
	<path id="Left_Lateral_Thigh_22" class="st0_14x human" d="M197.3,445.2c0.8,3.8,2.5,10.9,2.6,11.3h3.4V441h-6.9
		C196.7,442.5,197,443.9,197.3,445.2z"/>
</g>
<g>
	<path id="Left_Lateral_Thigh_21" class="st0_14x human" d="M203.3,468.2v-11.7h-3.4C200.5,458.4,202.3,464.6,203.3,468.2z"/>
</g>
<g>
	<rect id="Left_Lateral_Thigh_20" x="231.9" y="441" class="st0_14x human" width="14.3" height="15.5"/>
</g>
<g>
	<rect id="Left_Lateral_Thigh_19" x="246.2" y="441" class="st0_14x human" width="14.3" height="15.5"/>
</g>
<g>
	<rect id="Left_Lateral_Thigh_18" x="231.9" y="456.5" class="st0_14x human" width="14.3" height="15.5"/>
</g>
<g>
	<rect id="Left_Lateral_Thigh_17" x="246.2" y="456.5" class="st0_14x human" width="14.3" height="15.5"/>
</g>
<g>
	<rect id="Left_Lateral_Thigh_16" x="203.3" y="441" class="st0_14x human" width="14.3" height="15.5"/>
</g>
<g>
	<rect id="Left_Lateral_Thigh_15" x="217.6" y="441" class="st0_14x human" width="14.3" height="15.5"/>
</g>
<g>
	<path id="Left_Lateral_Thigh_14" class="st0_14x human" d="M203.3,468.2c0.6,2.2,0.6,1.6,1.2,3.8h13.1v-15.5h-14.3V468.2z"/>
</g>
<g>
	<rect id="Left_Lateral_Thigh_13" x="217.6" y="456.5" class="st0_14x human" width="14.3" height="15.5"/>
</g>
<g>
	<rect id="Left_Lateral_Thigh_12" x="231.9" y="472" class="st0_14x human" width="14.3" height="15.5"/>
</g>
<g>
	<rect id="Left_Lateral_Thigh_11" x="246.2" y="472" class="st0_14x human" width="14.3" height="15.5"/>
</g>
<g>
	<rect id="Left_Lateral_Thigh_10" x="231.9" y="487.5" class="st0_14x human" width="14.3" height="15.5"/>
</g>
<g>
	<polygon id="Left_Lateral_Thigh_09" class="st0_14x human" points="256.6,503 260.5,501.8 260.5,487.5 246.2,487.5 246.2,503 	"/>
</g>
<g>
	<path id="Left_Lateral_Thigh_08" class="st0_14x human" d="M208.3,484.1c0.4,1.1,0.7,2.3,1.1,3.4h8.2V472h-13.1
		C206.4,478.3,208.3,484.1,208.3,484.1z"/>
</g>
<g>
	<rect id="Left_Lateral_Thigh_07" x="217.6" y="472" class="st0_14x human" width="14.3" height="15.5"/>
</g>
<g>
	<path id="Left_Lateral_Thigh_06" class="st0_14x human" d="M214.3,503h3.3v-15.5h-8.2C211.2,493.1,212.9,498.5,214.3,503z"/>
</g>
<g>
	<rect id="Left_Lateral_Thigh_05" x="217.6" y="487.5" class="st0_14x human" width="14.3" height="15.5"/>
</g>
<g>
	<polygon id="Left_Lateral_Thigh_04" class="st0_14x human" points="246.2,506.1 246.2,503 231.9,503 231.9,510.4 	"/>
</g>
<g>
	<polygon id="Left_Lateral_Thigh_03" class="st0_14x human" points="256.6,503 246.2,503 246.2,506.1 	"/>
</g>
<g>
	<path id="Left_Lateral_Thigh_02" class="st0_14x human" d="M217.6,513.3V503h-3.3C215.8,507.8,217,511.5,217.6,513.3z"/>
</g>
<g>
	<path id="Left_Lateral_Thigh_01" class="st0_14x human" d="M217.6,513.3c0.2,0.7,0.4,1.2,0.4,1.2l13.9-4.1V503h-14.3V513.3z"/>
</g>
<g>
	<path id="Left_lateral_Wrist_06" class="st0_14x human" d="M315.7,360c-0.1,1.3-0.1,2.5-0.1,3.5h2.2v-2.2
		C317,360.9,316.3,360.5,315.7,360z"/>
</g>
<g>
	<path id="Left_lateral_Wrist_05" class="st0_14x human" d="M315.2,366.8c-0.5,2-1.4,3.1-3.2,5.3c0.7,1.8,2.8,3.2,5.7,4.2v-12.7h-2.2
		C315.5,364.8,315.4,366,315.2,366.8z"/>
</g>
<g>
	<path id="Left_lateral_Wrist_04" class="st0_14x human" d="M323.2,363c-0.7-0.1-1.4-0.3-2.1-0.5c-1.2-0.3-2.3-0.8-3.4-1.3v2.2h9.6
		c-0.3,0-0.5,0-0.8,0C325.4,363.4,324.3,363.2,323.2,363z"/>
</g>
<g>
	<path id="Left_lateral_Wrist_03" class="st0_14x human" d="M336.2,362.8c-0.6,0.1-1.3,0.3-2,0.4c-0.7,0.1-1.4,0.2-2.1,0.3
		c0,0-0.1,0-0.1,0v0.1h11c0-1.4,0-2.9-0.1-4.8C342.8,360.4,340,361.9,336.2,362.8z"/>
</g>
<g>
	<path id="Left_lateral_Wrist_02" class="st0_14x human" d="M330.5,363.5c-0.2,0-0.4,0-0.6,0c-0.4,0-0.7,0-1.1,0c-0.5,0-1,0-1.5,0h-9.6
		v12.7c4,1.4,9.5,2.1,14.3,1.9v-14.6H330.5z"/>
</g>
<g>
	<path id="Left_lateral_Wrist_01" class="st0_14x human" d="M332,378.1c5.7-0.2,10.6-1.4,11.2-3.8c-0.2-3.8-0.2-5.7-0.2-10.8h-11V378.1z"
		/>
</g>
<g>
	<path id="Left_lateral_Forearrm_20" class="st0_14x human" d="M302.5,280c0-0.4-0.3,2-0.3,6h1.3v-5.4C302.8,280.4,302.5,280.2,302.5,280z
		"/>
</g>
<g>
	<path id="Left_lateral_Forearrm_19" class="st0_14x human" d="M303.4,286h14.3v-3.2c-6.4-0.6-12.1-1.5-14.3-2.2V286z"/>
</g>
<g>
	<path id="Left_lateral_Forearrm_18" class="st0_14x human" d="M303.3,301.5L303.3,301.5l0.1-15.5h-1.3
		C302.1,289.9,302.3,295.4,303.3,301.5z"/>
</g>
<g>
	<rect id="Left_lateral_Forearrm_17" x="303.4" y="286" class="st0_14x human" width="14.3" height="15.5"/>
</g>
<g>
	<path id="Left_lateral_Forearrm_16" class="st0_14x human" d="M303.4,302c0.8,4.8,2.1,10,4.2,15h10.1v-15.5h-14.3V302z"/>
</g>
<g>
	<path id="Left_lateral_Forearrm_15" class="st0_14x human" d="M317.7,286H332v-2.4c-4.4,0-9.5-0.3-14.3-0.8V286z"/>
</g>
<g>
	<path id="Left_lateral_Forearrm_14" class="st0_14x human" d="M332,283.6v2.4h11.1c0-3.6-0.1-5.4-0.2-4.5
		C342.8,283,338.1,283.6,332,283.6z"/>
</g>
<g>
	<rect id="Left_lateral_Forearrm_13" x="317.7" y="286" class="st0_14x human" width="14.3" height="15.5"/>
</g>
<g>
	<path id="Left_lateral_Forearrm_12" class="st0_14x human" d="M332,301.5h11.1c0-6.4,0-11.9,0-15.5H332V301.5z"/>
</g>
<g>
	<rect id="Left_lateral_Forearrm_11" x="317.7" y="301.5" class="st0_14x human" width="14.3" height="15.5"/>
</g>
<g>
	<path id="Left_lateral_Forearrm_10" class="st0_14x human" d="M332,317h11.1c0-5.4,0.1-10.7,0.1-15.5H332V317z"/>
</g>
<g>
	<path id="Left_lateral_Forearrm_09" class="st0_14x human" d="M307.7,317.3c2.5,5.9,4.3,10.8,5.7,15.3h4.3V317h-10.1
		C307.7,317.1,307.7,317.2,307.7,317.3z"/>
</g>
<g>
	<path id="Left_lateral_Forearrm_08" class="st0_14x human" d="M315.9,348h1.8v-15.5h-4.3C314.9,337.7,315.7,342.5,315.9,348z"/>
</g>
<g>
	<path id="Left_lateral_Forearrm_07" class="st0_14x human" d="M315.7,360L315.7,360L315.7,360c0.6,0.5,1.3,0.9,2.1,1.3V348h-1.8
		C316.1,351.6,316,355.5,315.7,360z"/>
</g>
<g>
	<rect id="Left_lateral_Forearrm_06" x="317.7" y="317" class="st0_14x human" width="14.3" height="15.5"/>
</g>
<g>
	<path id="Left_lateral_Forearrm_041" class="st0_14x human" d="M332,332.5h11c0-5,0-10.3,0.1-15.5H332V332.5z"/>
</g>
<g>
	<rect id="Left_lateral_Forearrm_04" x="317.7" y="332.5" class="st0_14x human" width="14.3" height="15.5"/>
</g>
<g>
	<path id="Left_lateral_Forearrm_03" class="st0_14x human" d="M332,348H343c0-4.5,0-9.9,0.1-15.5h-11V348z"/>
</g>
<g>
	<path id="Left_lateral_Forearrm_02" class="st0_14x human" d="M317.7,361.3c1,0.5,2.2,1,3.4,1.3c0.7,0.2,1.4,0.4,2.1,0.5
		c1.1,0.2,2.2,0.3,3.3,0.4c0.3,0,0.5,0,0.8,0h3.2c0.5,0,1-0.1,1.5-0.1V348h-14.3V361.3z"/>
</g>
<g>
	<path id="Left_lateral_Forearrm_01" class="st0_14x human" d="M332,363.4c0,0,0.1,0,0.1,0c0.7-0.1,1.4-0.2,2.1-0.3c0.7-0.1,1.3-0.2,2-0.4
		c3.8-0.9,6.6-2.3,6.8-4.1c0-2.5,0-6.2,0-10.7H332V363.4z"/>
</g>
<g>
	<path id="Left_lateral_Elbow_06" class="st0_14x human" d="M303.4,264.4v6.1h14.3v-3.9C312,266.7,306.6,266.1,303.4,264.4z"/>
</g>
<g>
	<path id="Left_lateral_Elbow_05" class="st0_14x human" d="M303.4,280.6c2.2,0.7,7.9,1.6,14.3,2.2v-12.3h-14.3V280.6z"/>
</g>
<g>
	<path id="Left_lateral_Elbow_04" class="st0_14x human" d="M328,265.6c-0.4,0.1-0.8,0.1-1.2,0.2c-0.2,0-0.4,0.1-0.6,0.1
		c-0.2,0-0.5,0.1-0.7,0.1c-0.3,0-0.7,0.1-1,0.1c-0.1,0-0.3,0-0.5,0.1c-0.4,0-0.8,0.1-1.2,0.1c-0.2,0-0.4,0-0.5,0
		c-0.3,0-0.6,0.1-1,0.1c-1.2,0.1-2.5,0.2-3.7,0.2v3.9H332v-5.7C330.8,265.1,329.5,265.3,328,265.6
		C328.1,265.6,328.1,265.6,328,265.6z"/>
</g>
<g>
	<path id="Left_lateral_Elbow_03" class="st0_14x human" d="M332,264.8v5.7h10.9c-0.2-4.7-0.6-9.3-0.9-10.5c0,0.1,0,0.2,0,0.2
		C341.1,262,337.1,263.6,332,264.8z"/>
</g>
<g>
	<path id="Left_lateral_Elbow_02" class="st0_14x human" d="M317.7,282.8c4.8,0.4,9.9,0.7,14.3,0.8v-13.1h-14.3V282.8z"/>
</g>
<g>
	<path id="Left_lateral_Elbow_01" class="st0_14x human" d="M332,283.6c6.1,0,10.8-0.5,11-2.1c0.2-2.1,0.1-6.6-0.1-11H332V283.6z"/>
</g>
<g>
	<path id="Left_Lateral_acromial_27" class="st0_14x human" d="M260.5,154.9v7.1h14.3v-6.6c-2.7-0.7-5.5-1.1-8.2-1.1
		C264.7,154.3,262.6,154.5,260.5,154.9z"/>
</g>
<g>
	<path id="Left_Lateral_acromial_26" class="st0_14x human" d="M288.6,162c-4.2-3-9-5.3-13.8-6.6v6.6H288.6z"/>
</g>
<g>
	<path id="Left_Lateral_acromial_25" class="st0_14x human" d="M301.7,177.5c-2.7-5.9-7.2-11.1-12.6-15.1v15.1H301.7z"/>
</g>
<g>
	<path id="Left_Lateral_acromial_24" class="st0_14x human" d="M289.1,177.5V193h14.3v-10.8c-0.4-1.6-1-3.2-1.7-4.7H289.1z"/>
</g>
<g>
	<path id="Left_Lateral_acromial_23" class="st0_14x human" d="M303.7,193c0.2-0.5,0.3-1,0.4-1.4c0.1-0.9,0.2-1.7,0.2-2.6
		c0-2.3-0.3-4.6-0.9-6.8V193H303.7z"/>
</g>
<g>
	<rect id="Left_Lateral_acromial_22" x="260.5" y="162" class="st0_14x human" width="14.3" height="15.5"/>
</g>
<g>
	<path id="Left_Lateral_acromial_21" class="st0_14x human" d="M274.8,162v15.5h14.3v-15.1c-0.2-0.1-0.3-0.2-0.5-0.4H274.8z"/>
</g>
<g>
	<path id="Left_Lateral_acromial_20" class="st0_14x human" d="M260.5,184.7c1-0.1,2-0.2,3-0.2c4.2,0,8.1,1.1,11.3,2.8v-9.8h-14.3V184.7z"
		/>
</g>
<g>
	<path id="Left_Lateral_acromial_19" class="st0_14x human" d="M274.8,187.3c2.6,1.5,4.8,3.4,6.2,5.7h8.1v-15.5h-14.3V187.3z"/>
</g>
<g>
	<path id="Left_Lateral_acromial_18" class="st0_14x human" d="M291.3,208.5c5-3.5,9.1-7.5,10.7-11c0.6-1.3,1.1-2.5,1.4-3.5v-1h-14.3v15.5
		H291.3z"/>
</g>
<g>
	<path id="Left_Lateral_acromial_17" class="st0_14x human" d="M289.1,209.9c0.7-0.5,1.4-0.9,2.1-1.4h-2.1V209.9z"/>
</g>
<g>
	<path id="Left_Lateral_acromial_16" class="st0_14x human" d="M283.3,200.1c0,3.1-1.1,6-3.1,8.4h9V193h-8.1
		C282.5,195.1,283.3,197.6,283.3,200.1z"/>
</g>
<g>
	<path id="Left_Lateral_acromial_15" class="st0_14x human" d="M261.1,218.9c3.5,0.1,11.9-1.8,13.2-2.2c0.2,0,0.3-0.1,0.5-0.1v-3.7
		c-3,1.7-7.4,3.3-14.3,2.7C260.5,215.7,261.1,218.9,261.1,218.9z"/>
</g>
<g>
	<path id="Left_Lateral_acromial_14" class="st0_14x human" d="M274.8,212.9v3.7c0.6-0.2,1.1-0.3,1.7-0.5c4.1-1.4,8.6-3.6,12.6-6.2v-1.4
		h-9C278.8,210.2,276.9,211.7,274.8,212.9z"/>
</g>
<g>
	<path id="Left_Lateral_acromial_13" class="st0_14x human" d="M246.2,162v-2.4c-1.5,0.7-2.9,1.5-4.2,2.4H246.2z"/>
</g>
<g>
	<path id="Left_Lateral_acromial_12" class="st0_14x human" d="M246.2,162h14.3v-7.1c-4.8,0.8-9.7,2.4-14.3,4.7V162z"/>
</g>
<g>
	<path id="Left_Lateral_acromial_11" class="st0_14x human" d="M231.9,170.9v6.6h14.3V162H242C238.1,164.5,234.6,167.5,231.9,170.9z"/>
</g>
<g>
	<rect id="Left_Lateral_acromial_10" x="246.2" y="162" class="st0_14x human" width="14.3" height="15.5"/>
</g>
<g>
	<path id="Left_Lateral_acromial_09" class="st0_14x human" d="M231.9,193h14c0.1-0.1,0.2-0.3,0.3-0.4v-15.1h-14.3V193z"/>
</g>
<g>
	<path id="Left_Lateral_acromial_08" class="st0_14x human" d="M246.2,192.6c2.9-4.2,8.1-7.1,14.3-7.9v-7.2h-14.3V192.6z"/>
</g>
<g>
	<path id="Left_Lateral_acromial_07" class="st0_14x human" d="M231.9,177.5v-6.6c-1.7,2.1-3,4.3-4,6.6H231.9z"/>
</g>
<g>
	<path id="Left_Lateral_acromial_06" class="st0_14x human" d="M226,186.5c0,2.2,0.2,4.4,0.7,6.5h5.3v-15.5h-4
		C226.7,180.3,226,183.4,226,186.5z"/>
</g>
<g>
	<path id="Left_Lateral_acromial_05" class="st0_14x human" d="M245.9,193h-14v11.9c0.9,1.3,1.9,2.5,3,3.6h11.3v-0.8
		c-1.6-2.2-2.5-4.8-2.5-7.6C243.8,197.6,244.5,195.1,245.9,193z"/>
</g>
<g>
	<path id="Left_Lateral_acromial_04" class="st0_14x human" d="M234.9,208.5c3.2,3.3,7,6,11.3,7.8v-7.8H234.9z"/>
</g>
<g>
	<path id="Left_Lateral_acromial_03" class="st0_14x human" d="M246.2,216.3c4.1,1.7,8.5,2.7,13.1,2.7c0.4,0,1.4-0.1,1.8-0.1l-0.6-3.3
		c0,0-0.1,0-0.5-0.1c-5.5-0.8-10.3-3.4-13.2-7h-0.6V216.3z"/>
</g>
<g>
	<path id="Left_Lateral_acromial_02" class="st0_14x human" d="M231.9,204.9V193h-5.3C227.6,197.4,229.4,201.4,231.9,204.9z"/>
</g>
<g>
	<path id="Left_Lateral_acromial_01" class="st0_14x human" d="M246.8,208.5c-0.2-0.3-0.4-0.5-0.6-0.8v0.8H246.8z"/>
</g>
<g>
	<path id="Left_lateral_Upperarrm_23" class="st0_14x human" d="M335.2,239.5c-1-2.5-2.1-5-3.2-7.4v7.4H335.2z"/>
</g>
<g>
	<path id="Left_lateral_Upperarrm_22" class="st0_14x human" d="M307.7,193c-1.2-1.7-2.2-3.1-2.8-3.9c-0.2-0.3-0.3,0.6-0.7,2.5
		c-0.1,0.5-0.2,0.9-0.3,1.4H307.7z"/>
</g>
<g>
	<rect id="Left_lateral_Upperarrm_21" x="303.4" y="208.5" class="st0_14x human" width="14.3" height="15.5"/>
</g>
<g>
	<path id="Left_lateral_Upperarrm_20" class="st0_14x human" d="M262.3,218.9c1.1,1.7,2.3,3.4,3.4,5.1h9.2v-7.4c-0.2,0-0.3,0.1-0.5,0.1
		C270.4,217.7,266,218.5,262.3,218.9z"/>
</g>
<g>
	<rect id="Left_lateral_Upperarrm_19" x="289.1" y="224" class="st0_14x human" width="14.3" height="15.5"/>
</g>
<g>
	<rect id="Left_lateral_Upperarrm_18" x="303.4" y="224" class="st0_14x human" width="14.3" height="15.5"/>
</g>
<g>
	<path id="Left_lateral_Upperarrm_17" class="st0_14x human" d="M289.1,250.7c1.5,1.5,2.9,2.9,4.3,4.3h10v-15.5h-14.3V250.7z"/>
</g>
<g>
	<rect id="Left_lateral_Upperarrm_16" x="303.4" y="239.5" class="st0_14x human" width="14.3" height="15.5"/>
</g>
<g>
	<path id="Left_lateral_Upperarrm_15" class="st0_14x human" d="M269.3,229.7c0.6,1,2.7,3.3,5.5,6.4v-12h-9.2
		C267.2,226.3,268.5,228.4,269.3,229.7z"/>
</g>
<g>
	<path id="Left_lateral_Upperarrm_14" class="st0_14x human" d="M274.8,236c1,1.1,2.1,2.3,3.3,3.5h11V224h-14.3V236z"/>
</g>
<g>
	<path id="Left_lateral_Upperarrm_13" class="st0_14x human" d="M289.1,250.7v-11.2h-11C281.5,243,285.4,247,289.1,250.7z"/>
</g>
<g>
	<path id="Left_lateral_Upperarrm_12" class="st0_14x human" d="M317.7,224h10.4c-2.4-4.5-5.9-10.1-9.6-15.5h-0.8V224z"/>
</g>
<g>
	<path id="Left_lateral_Upperarrm_11" class="st0_14x human" d="M328.1,224h-10.4v15.5H332v-7.4c-1.1-2.4-2.1-4.6-3.2-6.6
		C328.6,225,328.4,224.5,328.1,224z"/>
</g>
<g>
	<rect id="Left_lateral_Upperarrm_10" x="317.7" y="239.5" class="st0_14x human" width="14.3" height="15.5"/>
</g>
<g>
	<path id="Left_lateral_Upperarrm_09" class="st0_14x human" d="M332,255h8.9c-1.2-4.2-3.3-9.9-5.7-15.5H332V255z"/>
</g>
<g>
	<path id="Left_lateral_Upperarrm_08" class="st0_14x human" d="M302.7,264c0.2,0.1,0.5,0.3,0.8,0.4V255h-10
		C298.4,259.9,302.2,263.7,302.7,264z"/>
</g>
<g>
	<path id="Left_lateral_Upperarrm_07" class="st0_14x human" d="M317.7,266.5V255h-14.3v9.4C307,266.1,312.3,266.7,317.7,266.5z"/>
</g>
<g>
	<path id="Left_lateral_Upperarrm_06" class="st0_14x human" d="M317.7,266.5c1.2,0,2.4-0.1,3.7-0.2c0.3,0,0.6-0.1,1-0.1
		c0.2,0,0.4,0,0.5,0c0.4,0,0.8-0.1,1.2-0.1c0.2,0,0.3,0,0.5-0.1c0.3,0,0.7-0.1,1-0.1c0.2,0,0.5-0.1,0.7-0.1c0.2,0,0.4-0.1,0.6-0.1
		c0.4-0.1,0.8-0.1,1.2-0.2c0,0,0,0,0.1,0c1.4-0.2,2.7-0.5,3.9-0.8V255h-14.3V266.5z"/>
</g>
<g>
	<path id="Left_lateral_Upperarrm_05" class="st0_14x human" d="M332,264.8c5.8-1.3,10-3.2,9.9-5c0,0,0,0.1,0.1,0.2
		c-0.1-1.2-0.5-2.9-1.1-5H332V264.8z"/>
</g>
<g>
	<path id="Left_lateral_Upperarrm_04" class="st0_14x human" d="M302,197.5c-1.7,3.5-5.7,7.5-10.7,11h0.9h11.3v-13.9V194
		C303.1,195,302.6,196.2,302,197.5z"/>
</g>
<g>
	<path id="Left_lateral_Upperarrm_03" class="st0_14x human" d="M307.7,193h-3.8h-0.1h-0.3v1v0.7v13.9h14.3v-1.2
		C314,201.8,310.3,196.6,307.7,193z"/>
</g>
<g>
	<path id="Left_lateral_Upperarrm_02" class="st0_14x human" d="M292.2,208.5h-0.9c-0.7,0.5-1.4,1-2.1,1.4v0.5V224h14.3v-15.5H292.2z"/>
</g>
<g>
	<path id="Left_lateral_Upperarrm_01" class="st0_14x human" d="M276.5,216.1c-0.6,0.2-1.1,0.4-1.7,0.5v7.4h14.3v-13.5v-0.5
		C285.1,212.5,280.6,214.7,276.5,216.1z"/>
</g>
<g>
	<path id="Left_armpit_11" class="st0_14x human" d="M260.5,184.7v8.3h14.3v-5.7c-3.2-1.8-7.1-2.8-11.3-2.8
		C262.5,184.5,261.5,184.6,260.5,184.7z"/>
</g>
<g>
	<path id="Left_armpit_10" class="st0_14x human" d="M281.1,193c-1.5-2.3-3.6-4.2-6.2-5.7v5.7H281.1z"/>
</g>
<g>
	<rect id="Left_armpit_09" x="260.5" y="193" class="st0_14x human" width="14.3" height="15.5"/>
</g>
<g>
	<path id="Left_armpit_08" class="st0_14x human" d="M274.8,208.5h5.3c2-2.4,3.1-5.3,3.1-8.4c0-2.6-0.8-5-2.2-7.1h-6.2V208.5z"/>
</g>
<g>
	<path id="Left_armpit_07" class="st0_14x human" d="M260.5,215.6c0,0,1.4,0.2,3.7,0.1c3.9-0.1,7.6-1.1,10.6-2.8v-4.4h-14.3V215.6z"/>
</g>
<g>
	<path id="Left_armpit_06" class="st0_14x human" d="M274.8,212.9c2.1-1.2,3.9-2.7,5.3-4.4h-5.3V212.9z"/>
</g>
<g>
	<path id="Left_armpit_05" class="st0_14x human" d="M246.2,192.6v0.4h14.3v-8.3C254.4,185.4,249.1,188.4,246.2,192.6z"/>
</g>
<g>
	<path id="Left_armpit_04" class="st0_14x human" d="M243.8,200.1c0,2.7,0.9,5.3,2.5,7.6V193h-0.3C244.5,195.1,243.8,197.6,243.8,200.1z"
		/>
</g>
<g>
	<path id="Left_armpit_03" class="st0_14x human" d="M246.2,207.7c0.2,0.3,0.4,0.5,0.6,0.8h13.7V193h-14.3V207.7z"/>
</g>
<g>
	<path id="Left_armpit_02" class="st0_14x human" d="M260,215.5l0.5,0.1v-7.1h-13.7C249.8,212.1,254.5,214.7,260,215.5z"/>
</g>
<g>
	<path id="Left_armpit_01" class="st0_14x human" d="M246.2,193v-0.4c-0.1,0.1-0.2,0.3-0.3,0.4H246.2z"/>
</g>
<g>
	<g>
		<path d="M194.9,92.6l0.1-1c2.2,0.1,5.8,0.3,6.2,0.3l0.1,0.5l0.1,0.5c0,0-0.1,0-0.4,0C200.4,92.9,198.9,92.8,194.9,92.6z"/>
	</g>
	<g>
		<path d="M195.8,95.9c1.6-0.9,4.2-2.8,4.8-3.5c-0.1,0-0.3-0.1-0.4-0.1c-0.5-0.1-1.1-0.2-2.1-0.6c-3.4-1.3-6.3-4.1-6.4-4.2l0.7-0.7
			c0,0,2.9,2.7,6.1,4c0.9,0.3,1.5,0.5,1.9,0.6c0.6,0.1,1.2,0.3,1.3,1c0.1,1.1-4.8,4.1-5.3,4.4L195.8,95.9z"/>
	</g>
	<g>
		<g>
			<g>
				<path d="M243.2,82.2c-1-0.7-2.1-2-2.1-4.6c0-2.9,0-3.7,0-3.9h0l0-0.6l0.5,0c0.3,0,0.4,0,0.4,0.6l0.1,0l-0.1,0
					c0.1,0.6,0,1.7,0,3.9c0,1.7,0.6,3,1.7,3.7c1.3,0.9,3,0.9,4.1,0.4c0.8-0.3,1.7-1.8,2.5-3.2c1-1.6,1.9-3.3,3.2-4.2
					c3.8-2.9,5.7-6.8,5.7-11.6c0-3.4-1-5.8-2.9-7.1c-2.2-1.5-5.2-1.3-7.1-0.6c-2.6,1-3.7,3.4-3.9,4c-0.3,1-1.6,1-1.8,1l0-1
					c0.3,0,0.8-0.1,0.8-0.3c0.2-0.9,1.5-3.5,4.5-4.7c1.7-0.6,5.2-1.2,8,0.7c2.2,1.5,3.4,4.2,3.4,7.9c0,5.1-2,9.3-6.1,12.4
					c-1.1,0.8-2,2.4-2.9,3.9c-1,1.7-1.9,3.2-3,3.6c-0.6,0.2-1.3,0.4-2,0.4C245.2,83.1,244.1,82.9,243.2,82.2z"/>
			</g>
			<g>
				<path d="M245.2,75c-0.5-0.3-1.1-1-0.1-2.8c0.4-0.8,0.8-1.2,1.1-1.5c0.5-0.6,0.7-0.8,0.5-2.7c-0.1-0.9,0.3-1.5,0.6-2
					c0.3-0.5,0.4-0.6,0.2-0.9c-0.1-0.3-0.3-0.5-0.4-0.7c0.1,0.7,0.2,1.3,0.3,1.3l-1,0.3c0-0.1-2-6.5,4.1-9c1.9-0.8,3.8-0.5,5.2,0.7
					c1.8,1.6,2.7,4.7,2,7.1c-0.6,2.2-2.3,7.3-5.7,7.8c-0.7,0.1-1.3,0.1-1.7,0c-0.8-0.1-1.1-0.1-1.8,1c-0.5,0.8-1.6,1.4-2.5,1.4
					C245.7,75.1,245.4,75.1,245.2,75z M250.3,71.8c0.4,0,0.9,0.1,1.5,0c2.8-0.4,4.4-5.5,4.8-7.1c0.6-2.1-0.2-4.8-1.7-6.1
					c-1.1-1-2.6-1.2-4.1-0.5c-2.9,1.1-3.7,3.3-3.8,5l0.2-0.1c0,0,0.4,0.5,1.1,1.7c0.5,0.9,0.1,1.5-0.2,2c-0.3,0.4-0.5,0.7-0.4,1.3
					c0.3,2.2-0.1,2.7-0.8,3.5c-0.3,0.3-0.6,0.7-0.9,1.3c-0.5,0.8-0.5,1.3-0.3,1.4c0.4,0.2,1.5-0.2,1.9-0.8c0.7-1.2,1.4-1.5,2.1-1.5
					C249.9,71.8,250.1,71.8,250.3,71.8z"/>
			</g>
			<g>
				<path d="M250.4,71.9c0.6-1.3,0.7-2.5,0.3-3.5c-0.7-1.7-2.5-2.5-2.5-2.6l0.4-0.9c0.1,0,2.2,1,3.1,3.1c0.5,1.3,0.4,2.7-0.3,4.3
					L250.4,71.9z"/>
			</g>
			<g>
				<path d="M245.6,81.1l0.4-0.9c0.5,0.2,1.1,0.1,1.6-0.1c0.5-0.2,0.7-0.5,0.7-0.6l1,0.3c-0.1,0.5-0.6,0.9-1.2,1.3
					c-0.5,0.2-1,0.4-1.4,0.4C246.3,81.3,245.9,81.2,245.6,81.1z"/>
			</g>
		</g>
		<g>
			<path d="M212.1,112.2c0.2,0,17-3.7,25-10.8c6.3-5.6,9.4-11.8,9.1-18.7l1,0c0.3,7.1-2.9,13.7-9.4,19.5c-8.3,7.3-24.8,10.9-25.5,11
				L212.1,112.2z"/>
		</g>
		<g>
			<path d="M193.1,79.7c-0.1-1.5,1.3-1.5,1.7-1c0.4,0.6-1.1,1.4-0.8,1.7c0.5,0.5,2.9-0.3,2.8-1.7c-0.1-1.9-4.5-2.5-4.8,0.5
				C192,79.2,193.1,80,193.1,79.7z"/>
			<g>
				<path d="M194.4,81c0.4-0.1,3.8-1.1,4.5-3.1c0.5-1.4-1.3-2.8-1.3-2.8l0.6-0.8c0.1,0.1,2.3,1.9,1.6,3.9c-0.9,2.7-5.1,3.8-5.4,3.8
					L194.4,81z"/>
			</g>
			<g>
				<path d="M209.9,49.8c-2.9-1.5-5.4-2.8-9.5-2c-0.5,0.1-0.8,0.3-1,0.6c-0.4,0.6-0.1,1.5-0.1,1.5l-0.5,0.1l0.5-0.1l-1,0.3
					c0-0.1-0.4-1.3,0.2-2.3c0.3-0.6,0.9-0.9,1.7-1.1c4.4-0.9,7.2,0.5,10.2,2.1c1.2,0.6,2.4,1.2,3.7,1.7l-0.3,0.9
					C212.3,51.1,211.1,50.4,209.9,49.8z"/>
			</g>
			<g>
				<path d="M202.4,54c-1.2-0.4-1.7,0.4-1.7,0.6l-0.9-0.4c0.3-0.7,1.3-1.8,3-1.2c1.8,0.6,8,2.9,8,2.9l-0.3,0.9
					C210.4,56.8,204.2,54.6,202.4,54z"/>
			</g>
			<g>
				<path d="M203.1,62.1l0-1c0,0,0,0,0,0c1.4,0,4.6-1.7,5.4-2.5c-1.6-1.6-5-2-6-1.7l-0.3-1c1.5-0.5,5.6,0.2,7.3,2.3
					c0.1,0.2,0.2,0.4,0.1,0.6C209.1,59.8,205,62.1,203.1,62.1C203.1,62.1,203.1,62.1,203.1,62.1z"/>
			</g>
			<g>
				<path d="M202.8,62.1c-0.5-0.1-1-0.6-1.4-1.2c-0.6-1.1-0.6-2.7-0.1-3.9c0.3-0.6,0.9-1,1.6-1c1.1,0,2.4,0.9,2.6,2.4
					c0.2,1.3-0.1,2.5-0.6,3.2c-0.4,0.4-0.9,0.6-1.4,0.6l0,0C203.2,62.2,203,62.1,202.8,62.1z M202.2,57.3c-0.5,1.1-0.3,2.4,0.1,3.1
					c0.2,0.4,0.5,0.6,0.7,0.7c0.1,0,0.2,0,0.4,0l0,0c0.3,0,0.5-0.1,0.7-0.3c0.4-0.4,0.5-1.4,0.4-2.4c-0.1-1-0.9-1.6-1.6-1.6
					C202.5,56.9,202.3,57.1,202.2,57.3z"/>
			</g>
			<ellipse cx="202.1" cy="58.6" rx="1.4" ry="1.5"/>
			<g>
				<g>
					<g>
						<path d="M51.5,732.4c-2.9-1.5-5.7-5.7-5.2-9.5c0.2-1.7,1.4-4.9,6.6-6.1c9-2.2,30.6-9,38.3-13.8c1.7-1.1,3.5-2.2,5.3-3.3
							c8.1-5,17.2-10.6,19.2-14.4c3.4-6.4,15.4-34.9,14.6-53c-0.7-18.2-0.6-34.4,0.6-54c0.3-5.8,0.7-10.9,1-15.2
							c0.7-10,1.1-16.6,0.6-18.4c-0.1-0.3-0.6-1-1.1-1.6c-3.5-4.8-11.7-16-1.4-39.6c8.2-18.8,12.5-31.8,16.3-43.3
							c1.7-5.1,3.3-10,5-14.7c8.5-23,27-63,42.7-79.1l1.4,1.4c-15.5,15.9-33.8,55.6-42.3,78.4c-1.7,4.7-3.3,9.5-5,14.6
							c-3.8,11.5-8.1,24.6-16.4,43.5c-9.8,22.5-2.1,33.1,1.2,37.6c0.7,1,1.2,1.7,1.4,2.3c0.6,2.1,0.2,8.1-0.5,19.1
							c-0.3,4.3-0.6,9.4-1,15.2c-1.1,19.5-1.3,35.6-0.6,53.8c0.8,18.6-11.4,47.5-14.9,54c-2.3,4.3-11.3,9.8-19.9,15.1
							c-1.8,1.1-3.6,2.2-5.3,3.3c-7.8,5-29.8,11.9-38.9,14.1c-3.1,0.7-4.8,2.2-5.1,4.4c-0.4,2.9,1.9,6.3,4.1,7.5
							c6.9,3.6,42.5-3.3,54.2-5.6l2.5-0.5c4.9-0.9,9,0.2,14.2,1.7c6.1,1.7,13.7,3.9,26.1,3.9c6.1,0,10.6-1.6,13.1-4.7
							c4.4-5.3,2.7-14,1.7-19.2c-0.2-1.1-0.4-2-0.5-2.8c-0.5-4.4-3.5-7.8-6.3-11.2c-1-1.1-1.9-2.2-2.7-3.3c-2.1-2.9,1.6-13.2,8.5-31
							c3.4-8.9,7.3-19,10-27.7c1.4-4.5,2.8-8.9,4.2-13.1c5.6-17.1,10.5-31.9,9-49.4c-0.4-5-2.9-13-5.4-20.8
							c-3.1-10-5.8-18.7-4.7-21.9c2-5.6,10.4-19.4,16.3-26.7c2.3-2.9,14.7-14.9,15.2-15.4l1.4,1.4c-0.1,0.1-12.8,12.5-15,15.2
							c-5.7,7.1-14,20.7-15.9,26.1c-0.9,2.6,2,12.2,4.7,20.7c2.5,7.9,5,16,5.4,21.2c1.6,18-3.4,32.9-9.1,50.2
							c-1.4,4.2-2.8,8.5-4.2,13c-2.7,8.8-6.6,18.9-10,27.9c-4.9,12.6-10.3,26.9-8.7,29.1c0.8,1,1.6,2.1,2.6,3.2
							c2.9,3.4,6.1,7.2,6.7,12.2c0.1,0.7,0.3,1.6,0.5,2.7c1.1,5.5,2.8,14.8-2.1,20.8c-3,3.6-7.9,5.4-14.6,5.4
							c-12.7,0-20.4-2.2-26.7-4c-5.2-1.5-8.9-2.5-13.3-1.7L107,727c-16.8,3.3-35.9,6.7-47.2,6.7C56.1,733.7,53.2,733.3,51.5,732.4z"
							/>
					</g>
					<g>
						<path d="M159.1,550.1c-2.8-1.7-10.1-8.3-7.8-15.8c2.7-8.6-1.5-12.9-1.7-13.1c-0.4-0.4-0.4-1,0-1.4c0.4-0.4,1-0.4,1.4,0
							c0.2,0.2,5.3,5.3,2.2,15.1c-1.8,5.8,3.9,11.6,6.9,13.5c0.5,0.3,0.6,0.9,0.3,1.4c-0.2,0.3-0.5,0.5-0.8,0.5
							C159.4,550.2,159.2,550.2,159.1,550.1z"/>
					</g>
					<g>
						<path d="M248,553.6c-0.9-3.1-2-13,4.7-17c7.7-4.6,7.4-10.6,7.4-10.9c0-0.5,0.4-1,0.9-1.1c0.6,0,1,0.4,1.1,0.9
							c0,0.3,0.4,7.4-8.4,12.7c-5.2,3.1-4.8,11.3-3.8,14.7c0.2,0.5-0.1,1.1-0.7,1.2c-0.1,0-0.2,0-0.3,0
							C248.5,554.3,248.1,554.1,248,553.6z"/>
					</g>
					<g>
						<path d="M265,723.1c-0.5-0.3-0.6-0.9-0.3-1.4c0.3-0.5,0.9-0.6,1.4-0.3c0.1,0,7.5,4.5,12.2,2.8c1.4-0.5,2.4-1.5,3-3.1
							c1.3-3.5-0.4-6.7-2.3-10.1c-0.8-1.5-1.7-3.1-2.2-4.7c-0.9-2.7-0.7-12.4-0.6-13.5c0-0.6,0.5-1,1-1c0.6,0,1,0.5,1,1
							c-0.1,2.9-0.2,10.8,0.5,12.8c0.5,1.4,1.3,2.9,2.1,4.4c2,3.7,4,7.4,2.4,11.8c-0.8,2.2-2.2,3.6-4.2,4.3c-0.9,0.3-1.9,0.5-3,0.5
							C270.9,726.6,265.3,723.3,265,723.1z"/>
					</g>
					<g>
						<path d="M139.9,699.9c-5.1-0.2-10.4-4.6-10.8-6.1c-0.1-0.5,0.2-1.1,0.7-1.3c0.5-0.1,1.1,0.2,1.2,0.7c0.4,0.8,5.1,5,9.8,4.7
							c3.6-0.2,6.3-3,8.1-8.2c0.2-0.5,0.8-0.8,1.3-0.6c0.5,0.2,0.8,0.8,0.6,1.3c-2.7,7.8-7.1,9.6-10.5,9.6
							C140.2,699.9,140.1,699.9,139.9,699.9z"/>
					</g>
					<g>
						<path d="M211.8,360.5c1-0.1,0.8-1,0.7-1.9c0-0.4-0.2-1-0.3-1.8c-1-5.1-0.9-18.2,11.3-24.1c0.9-0.4,1.2-1.2,0.7-2
							c-0.4-0.9-0.2-1.1-1-0.7c-14.6,7.1-15.5,19.8-14.5,25.1c0.1,0.6,1.1,3.5,1.2,3.9c0.1,0.9,0.9,1.6,1.7,1.6
							C211.7,360.5,211.7,360.5,211.8,360.5z"/>
					</g>
					<g>
						<path d="M81.3,315.7c-0.1-0.6,0.2-0.7-0.4-0.5c-0.3,0.1-0.6,0.2-1.1,0.3c-3.1,1-12.2,3.4-16.8-3.7c-0.3-0.5-1-0.2-1.5,0.2
							c-0.5,0.3-0.8,0.5-0.5,1c5.6,8.5,14,6.1,17.2,5.1c0.4-0.1,2.1-1,2.3-1c0.5-0.1,0.9-0.7,0.8-1.2
							C81.3,315.8,81.3,315.7,81.3,315.7z"/>
					</g>
					<g>
						<path d="M242.7,376.1c0.9-0.4,0.2-2.2-0.1-3.1c-0.1-0.3-0.7-0.5-1-1.1c-2-4.1-5.4-15.1,3.7-19.2c0.9-0.4,0.8-1.7,0.2-2.5
							c-0.6-0.7-1.7-0.8-2.5-0.2c-10.3,8.9-5,19.8-3.1,23.9c0.2,0.5,0.4,0.8,0.5,1.1c0.3,0.7,0.9,1.1,1.6,1.1
							C242.3,376.2,242.5,376.1,242.7,376.1z"/>
					</g>
					<g>
						<path d="M339,261c-0.4-0.6-1.3-1.1-1.9-0.7c-0.2,0.1-1.1,1.6-1.4,1.9c-3.8,3.5-8.1,2.9-13.8,1.5c-0.7-0.2-1.7-0.6-2.1,0
							c-0.4,0.6-0.3,0.7,0.3,1.1c7.9,4.4,15.1,0.6,17.7-1.4c0.3-0.2,0.5-0.4,0.7-0.5c0.5-0.3,0.7-0.8,0.6-1.3
							C339.2,261.3,339.1,261.1,339,261z"/>
					</g>
					<g>
						<path d="M333.5,274.5c-2-0.1-2.9-0.8-5.8-1.5c-0.3-0.1-2.1,0.5,0.2,2.2c3.4,2.5,8.8,1.7,10.1,0.7c0.1-0.1,0.2-2.2,0.1-2.4
							C338.1,273.4,334.6,274.6,333.5,274.5z"/>
					</g>
					<g>
						<path d="M177.2,263.2c0.3-0.4,0.3-2-0.1-2.5c-0.2-0.2-0.5-0.2-0.8-0.5c-2.2-2.3-4.7-7.6-5.3-13.1c-0.1-0.7-0.2-1.3-0.7-1.7
							c-0.5-0.3-1.1-0.1-1.2,0.4c-1.9,8.3,4,14.3,6.2,16.6c0.3,0.3,0.5,0.5,0.6,0.6c0.3,0.4,0.8,0.5,1.1,0.4
							C177,263.4,177.1,263.3,177.2,263.2z"/>
					</g>
					<g>
						<path d="M162.9,262.5c-0.1-0.1-1.3-2.9-1.8-5.6c-0.1-0.3-2.2-2.4-2.4-0.2c-0.3,3.2,1.9,8.2,2.9,9.4c0.1,0.1,2.3-0.3,2.5-0.4
							C164.1,265.7,163.1,262.8,162.9,262.5z"/>
					</g>
					<g>
						<path d="M312.6,444.7c-0.5-2.1-3-14.7-4.3-26.6c-0.5-4.9-0.6-9.6-0.7-13.4c-0.1-2.8-0.1-5.7-0.4-6.8c-0.8,0.6-2,3.4-2.9,5.3
							c-2,4.6-4.4,10.3-9,12.5c-2.3,1.1-3.6,0.6-4.3-0.1c-3.5-3.3,2-16.5,3.1-19.1c4-9.3,11.2-17.9,15.9-23.6
							c2.2-2.7,4.5-5.4,4.6-6.1c-0.1-2.6,0-5.9,0.1-9.5c0.2-7.3,0.4-15.7-0.9-20.2c-0.5-1.8-1.7-5-3.1-8.6c-4-10.5-10-26.3-9.7-35
							c0.1-4.5,0.4-9.6,0.6-14.1c0.3-6.5,0.6-13.2,0.3-14.5c-0.6-2.2-15.8-15.7-21.5-20.7C275.8,240,263.7,225,261,219
							c-2.6-5.7-15.4-19.6-16.4-20.6l1.4-1.4c1.1,1.1,14.1,15.2,16.8,21.2c2.5,5.7,14.6,20.5,19,24.4c13.2,11.8,21.6,19.5,22.1,21.7
							c0.4,1.5,0.2,6.4-0.3,15.1c-0.2,4.5-0.5,9.5-0.6,14c-0.2,8.4,5.7,24,9.6,34.3c1.5,3.8,2.6,6.9,3.2,8.8
							c1.4,4.9,1.2,13.4,1,20.9c-0.1,3.5-0.2,6.8-0.1,9.4c0,1.3-1.4,3.1-5.1,7.5c-4.7,5.6-11.7,14.1-15.6,23.1
							c-3.9,9-4.8,15.6-3.5,16.8c0.4,0.4,1.5,0,2.1-0.3c3.9-1.9,6.2-7.2,8-11.4c1.8-4,3-7,5.3-6.6c1.5,0.2,1.6,2.4,1.8,8.8
							c0.1,3.8,0.2,8.5,0.7,13.3c1.2,11.8,3.7,24.3,4.2,26.4c1.2,4.8,2.7,6.1,3.4,6.1c0,0,0,0,0,0c0.6,0,1.5-1.1,1.9-3
							c0.3-1.5-0.3-10-0.8-16.2c-0.8-11.1-0.7-11.2-0.3-11.7l0.3-0.3h0.4c1,0,1,0,2.4,6.7c1.3,6.1,4.6,22.2,6.7,23.2
							c1,0.4,1.7,0.5,2.2,0.1c0.6-0.4,1.8-2.1,1.1-8.8c0-0.2-2.3-23.6-0.5-25.3c0.3-0.2,0.6-0.3,1-0.3c1,0.2,1,0.7,1.6,6.7
							c0.7,6.7,2.2,22.4,5.5,23.6c1.3,0.5,2.3,0.5,2.8,0c1.2-1,1.3-4.1,0.5-8.5c-1.2-6.2-2.7-21.1-2.7-21.9l0-0.9l0.9-0.1
							c0.9-0.1,1,0.2,1.6,2.5c4.7,18.4,6.9,20.2,7.4,20.3c1.6-0.4,2.6-6.5,0.5-16.3c-0.9-4.4-1.6-10.5-2.3-16.4
							c-0.7-6.1-1.3-11.8-2.1-13.9l-3.3-8.7l0-0.1c-1.3-5.1-1-32.8-0.8-62.1c0.2-24,0.4-48.8-0.4-55.6c-1.4-11.5-8.1-24.8-13.5-35.5
							c-1.4-2.8-2.7-5.4-3.9-7.8c-2.1-4.4-6.5-10.7-11.7-18c-8.7-12.3-19.5-27.7-22.7-39.8l1.9-0.5c3.1,11.8,13.8,27,22.4,39.2
							c5.2,7.3,9.7,13.7,11.8,18.3c1.1,2.4,2.5,5,3.8,7.8c5.5,10.9,12.3,24.4,13.7,36.2c0.8,6.9,0.6,30.7,0.4,55.9
							c-0.2,27.8-0.5,56.5,0.7,61.5l3.3,8.7c0.8,2.3,1.5,7.9,2.2,14.4c0.7,5.9,1.4,12,2.3,16.2c1.9,8.6,2,17.7-1.9,18.7
							c-0.4,0.1-0.9,0.1-1.6-0.2c-1.6-1-3.3-4.4-5.4-11.2c0.4,3.5,0.9,6.9,1.4,9.3c1,5.5,0.6,8.9-1.2,10.4c-1.2,1-2.8,1.1-4.8,0.4
							c-2.8-1-4.4-6.7-5.5-14.2c0.2,2.7,0.4,5.3,0.6,7.3c0.6,5.8,0,9.3-1.9,10.7c-1.1,0.8-2.5,0.8-4.2,0.1c-2.2-1-4.2-7.5-6.7-19.2
							c0.6,8.4,1,14.5,0.7,16.1c-0.5,2.8-2,4.6-3.8,4.6c0,0,0,0-0.1,0C316.7,452.3,314.3,451.3,312.6,444.7z"/>
					</g>
					<g>
						<path d="M187.5,204c0,0.1-0.1,0.2-0.2,0.4c-5.6,11.1-14.8,25.6-19.6,29.4c-0.8,0.6-2.5,1.9-5,3.6c-3.8,2.7-9.1,6.5-14.7,10.7
							c-5.4,4-12.3,11.1-19.1,18c-6.3,6.4-12.8,13-17.9,17c-6.1,4.8-16,12.2-22.4,16.7c-1.1,0.8-3.4,0.4-8.5-0.4
							c-6-1-14.2-2.4-22.1-1.5c-7.2,0.8-13.2,3.4-13.9,6c-0.1,0.3-0.4,1.4,1.4,2.9c0.7,0.5,4.2-0.1,6.6-0.5c4.4-0.8,8.9-1.5,11,0.2
							c0.7,0.6,1.2,1.5,1.2,2.6c0,1.9-5.8,6.3-27,20.7c-4.9,3.3-9.1,6.1-10.1,7c-3.4,2.9-4,4.8-3.4,5.7c0.5,0.9,2.5,1.2,4.6,0.4
							c1.3-0.5,7.1-4.1,12.2-7.3c11.6-7.2,11.6-7.2,12.3-6.1c0.6,0.9,0.6,0.9-5.5,5.6c-5.9,4.5-21.6,16.6-21.5,19.2
							c0.5,1.4,1.1,2.3,1.8,2.4c1.5,0.4,4.1-1.6,7.3-4.2c0.2-0.1,18.6-14.8,21-14.1c0.4,0.1,0.6,0.3,0.8,0.7c0.3,0.9,0,1.2-4.8,5
							c-5.3,4.2-17.7,14-16.9,17.4c0.3,1.3,0.8,2.1,1.6,2.4c1.5,0.4,4.2-1.1,7.5-4.2c4.6-4.3,16.2-13.7,17-14.1l0.7-0.5l0.6,0.7
							c0.6,0.7,0.6,0.7-1.8,3.5C50,361,47.6,364.9,47.5,366c0.1,0,0.2,0.1,0.3,0.1c2.2,0.2,8.6-3.4,14.2-9
							c3.6-3.6,10.4-8.6,16.3-13.1c4.5-3.3,8.7-6.5,10-7.9c4.2-4.5,11.1-15.8,11.1-15.9l0.1-0.2c2.6-2.7,13.4-8,27.1-14.8
							c22.5-11,53.3-26.2,62.7-37.6c0,0,0.6,2.4,0,3c-11.1,11.5-40.3,25.8-61.8,36.4c-12.9,6.3-24,11.8-26.4,14.3
							c-0.7,1.2-7.2,11.7-11.3,16.2c-1.4,1.6-5.5,4.6-10.3,8.1c-5.9,4.4-12.6,9.3-16.1,12.9c-4.8,4.8-11.8,9.6-15.4,9.6
							c-0.1,0-0.3,0-0.4,0c-1-0.1-1.5-0.6-1.8-1c-0.8-1.3,0.3-4,8-13.2c-3.1,2.6-6.4,5.4-8.4,7.2c-4,3.8-7.1,5.3-9.4,4.6
							c-1.5-0.4-2.4-1.7-2.9-3.8c-0.7-2.9,3.2-7.3,8.9-12.3c-2.2,1.6-4.3,3.2-5.8,4.5c-4,3.2-6.7,5.3-9.1,4.6
							c-1.4-0.4-2.4-1.6-3.1-3.7c-0.8-2.3,3.2-6.5,15.7-16.4c-4.9,3-9.2,5.7-10.5,6.2c-2.9,1.2-6,0.6-7.1-1.2
							c-0.7-1.2-1.2-3.9,3.9-8.3c1.1-0.9,5.1-3.6,10.2-7.1c8.7-5.9,24.9-16.8,26.1-19.1c0-0.5-0.3-0.8-0.4-1
							c-1.4-1.2-5.9-0.4-9.4,0.2c-4.2,0.7-6.9,1.1-8.2,0c-2.3-1.9-2.4-3.8-2-5c1.2-4.1,8.7-6.7,15.6-7.5c8.2-0.9,16.6,0.5,22.7,1.5
							c3,0.5,6.4,1.1,7,0.7c6.3-4.4,16.2-11.8,22.3-16.6c5-3.9,11.4-10.5,17.7-16.8c6.8-6.9,13.8-14.1,19.3-18.2
							c5.6-4.2,10.9-8,14.8-10.8c2.4-1.7,4.2-3,4.9-3.6c4.1-3.3,13.1-16.7,19.1-28.8c0.3-0.6,0.8-1.3,1.6-1.5L187.5,204z"/>
					</g>
					<path d="M249.6,143.1c1.1-0.4,1.9-1.7,2.5-2.2c4.9-3.9,10.4-7,13.3-11.9c2-3.4,2.4-5.8,2.5-9.2c-1-0.2-0.8-0.2-1.7-0.3
						c-0.6,5-0.9,8.4-5.9,12.8c-3.7,3.2-9.3,6.1-12.8,9.8C247,142.7,248.5,143.7,249.6,143.1z"/>
					<path d="M213.9,145.2c4.8,0.4,22.5,0.8,27.6,0.7c2.1-0.4,1.5-2.4,0.7-2.5c-6.9,1.3-18.5,0.8-25.4,0.1
						C216,143.3,215.1,143.9,213.9,145.2z"/>
					<path d="M273.9,324.3c1.7,1.5,10.5,9.3,7.4,11.4c-7.8-8.9-14.2-14.8-20.6-15.4c-19.5-1.8-37.6,13-37.9,12.9
						c-0.6-0.3,0-2.7,0.4-3c15.9-11.8,29.5-11.8,33-12C259.6,318,268.6,319.5,273.9,324.3z"/>
				</g>
				<g>
					<path d="M259.9,747.5c-5.6-4-7.9-5.6-12.8-5.6c-5.3,0-19,2.3-26.4,5.4c-7.6,3.2-35.8,2.8-40.5,1.5c-3.4-0.9-8-5.8-8.3-9.9
						c-0.2-2.5,1.3-4.6,4.1-5.7c2.9-1.2,6.5-1.6,10.4-2.1c6.2-0.7,12.6-1.5,16.7-5.4c6.9-6.5,8.9-6.5,14.8-6.5l1,0
						c2.7,0,3.9-1.4,5.8-3.5c2.2-2.5,5-5.6,11.4-7.7c7.1-2.4,9.4-14.2,9.4-19.6c0-3.1-3.8-26.9-7.6-49.9
						c-3.1-19.4-6.1-37.7-6.8-43.9c-1-8.5-1.7-23.3-2.1-33.1c-0.2-4.9-0.4-9.6-0.6-10.5c-0.1-0.2-0.5-0.5-0.7-0.7
						c-3-2.8-12.1-11.4-10.2-29.5c-0.3-1.6-3.2-16.7-5.6-23.6c-0.2-0.6-20.3-60.7-21.6-80.9c-0.9-13.9,0.4-33.1,1.1-43.4
						c0.2-3.6,0.4-6.2,0.4-7.3c0-1.5-0.7-3.4-1.5-5.8c-1.3-3.7-3.1-8.7-3.7-16c-1-11.9,0.7-72,0.8-74.5c-0.1-3.1-2.1-76.5,0.2-83.9
						c2.1-6.5,14.3-33.6,28.2-42.3c2.1-1.5,4.4-24.3,4-28.2c-0.1-1.3-5.8-1.4-8.9-1.4c-1.8,0-3.5-0.1-4.9-0.2
						c-4.9-0.5-12.3-1.2-11.4-10.6c0.1-0.7,0.3-1.5,0.5-2.4c0.2-0.8,0.6-2.3,0.5-2.8c-1.3-0.6-2.1-1.3-2.4-2.2
						c-0.4-1.1,0.2-2.1,0.5-2.8c0-0.1,0.1-0.2,0.1-0.2c-1.7-1.3-4-4.2-2.2-7.2c0.2-0.3,0.4-0.6,0.5-0.9c0.6-1.1,1.2-2.1,1.1-2.5
						c-0.3-0.7-3.3-1.8-4.5-2.2c-1.8-0.6-2.4-1.8-2.7-2.6c-1.1-3.9,3.2-10.1,8.1-16.2c0.5-0.7,0.9-1.2,1.2-1.5
						c1.9-2.6,1.4-4.3,0.7-6.5c-0.3-1.2-0.7-2.5-0.8-4c-0.1-2.2,4.9-22.3,17.7-31.6c11.9-8.7,27.7-7.2,36.1-6.4
						c1.2,0.1,2.2,0.2,3,0.3c9.6,0.6,23.5,7.4,31.4,19.3c4.9,7.3,9.5,19.5,3.8,36.2c-1,2.9-2.5,6.2-4.1,9.6
						c-5.8,12.7-13.1,28.6-4.7,46.6c0.1,0.1,0.3,0.4,0.6,0.7c9.8,11.7,26.4,32.6,27.3,41c1.1,10.2,0.5,25,0,26.5l-1.9-0.6
						c0.3-1.1,1.1-15.3-0.1-25.7c-0.6-5.8-10.4-20.3-26.9-39.9c-0.8-0.9-0.8-0.9-0.8-1.1c-8.9-18.9-1.4-35.2,4.6-48.4
						c1.6-3.4,3-6.6,4-9.4c4.3-12.7,3.1-24.6-3.6-34.5c-7.6-11.3-20.8-17.8-29.9-18.4c-0.8-0.1-1.9-0.2-3.1-0.3
						c-8.2-0.8-23.5-2.3-34.8,6c-12.7,9.2-16.9,28.7-16.8,29.9c0.1,1.3,0.4,2.4,0.7,3.5c0.7,2.4,1.5,4.9-1,8.3
						c-0.3,0.4-0.7,0.9-1.2,1.6c-2.4,3-8.7,11-7.7,14.4c0.1,0.4,0.4,1,1.4,1.3c3.5,1.2,5.2,2,5.7,3.4c0.5,1.3-0.2,2.5-1.2,4.2
						c-0.2,0.3-0.3,0.6-0.5,0.9c-1.4,2.4,1.9,4.7,1.9,4.8c1.2,0.8,0.5,2.1,0.2,2.6c-0.2,0.4-0.5,0.9-0.4,1.2
						c0.1,0.2,0.3,0.6,1.4,1.1c1.6,0.7,1.1,2.9,0.6,5.1c-0.2,0.8-0.4,1.5-0.4,2.1c-0.6,7,3.6,7.9,9.6,8.5c1.4,0.1,3,0.2,4.8,0.2
						c5.4,0.1,10.5,0.2,10.8,3.2c0.2,2-1.2,27.8-4.9,30.1c-13.4,8.4-25.4,34.9-27.4,41.2c-1.8,5.7-0.9,57-0.1,83.3
						c0,0.6-1.7,62.5-0.8,74.4c0.6,7,2.3,11.9,3.6,15.5c0.9,2.6,1.6,4.6,1.6,6.5c0,1.1-0.2,3.8-0.4,7.4c-0.7,10.3-2,29.3-1.1,43.1
						c1.1,17.8,18.2,70.7,21.5,80.4c2.5,7.4,5.5,23.3,5.7,24l0,0.1l0,0.1c-1.9,17.2,6.7,25.3,9.6,28c0.8,0.7,1.1,1,1.3,1.5
						c0.2,0.5,0.3,2.7,0.7,11.1c0.4,9.8,1.1,24.5,2.1,33c0.7,6.1,3.6,24.4,6.8,43.8c3.9,24.2,7.6,47,7.6,50.2
						c0,4.6-2,18.6-10.8,21.5c-5.9,2-8.4,4.8-10.5,7.2c-2,2.2-3.7,4.1-7.3,4.1l-1,0c-5.6,0-7.1,0-13.4,5.9
						c-4.6,4.3-11.7,5.2-17.9,5.9c-3.7,0.4-7.2,0.9-9.9,1.9c-2,0.8-2.9,2-2.8,3.7c0.2,3.4,4.4,7.4,6.8,8.1
						c4.5,1.2,32.1,1.6,39.2-1.4c7.6-3.2,21.7-5.6,27.2-5.6c5.6,0,8.2,1.9,14,6c5.7,4.1,25.4,1.9,30.9-1.5
						c5.1-3.2,5.5-15.1,4.2-25.2c-0.8-5.9-2.3-7.7-4-9.5c-0.7-0.8-1.4-1.6-2-2.6c-1.6-2.8-2.6-12.2-3.7-22.2
						c-0.4-3.4-0.7-6.9-1.1-9.9l-0.5-3.7c-1.5-12-3.8-30.2-3-35.8c0.9-6.6,5.1-18.8,6.2-21.7c6.4-17.5-1.3-48-6.7-59.8
						c-3.3-7.3-12.3-33.4-14-40.3c-1.8-7.4-4.1-26.7,1.3-36.2c4.7-8.4,6.6-17,6-27.1c-0.5-8.1-0.4-39.7-0.3-50.1c0-1.6,0-2.7,0-3.2
						c0-1.3,0.6-2.3,1.4-3.7c1.6-2.6,4.5-7.6,7.6-21.2c3.9-17.4-1.9-32.9-4.7-40.3c-0.5-1.3-0.9-2.3-1.1-3.1
						c-1.6-5.1-1.5-25.8-1.5-34.6l0-2.4c0-5.4,2.3-7.1,5.3-9.4c0.7-0.6,1.5-1.1,2.3-1.8c3.4-2.9,3.3-18.6,3.3-27.9c0-1,0-2,0-3h2
						c0,0.9,0,1.9,0,3c0.1,14.2-0.2,26.3-4,29.5c-0.9,0.7-1.7,1.4-2.4,1.9c-2.8,2.1-4.5,3.4-4.5,7.8l0,2.4c0,8-0.1,29.1,1.4,34
						c0.2,0.8,0.6,1.8,1.1,3c2.9,7.6,8.8,23.4,4.8,41.5c-3.1,13.9-6.2,19-7.8,21.8c-0.8,1.4-1.2,2-1.2,2.7c0,0.4,0,1.5,0,3.2
						c-0.1,10.4-0.2,42,0.3,50c0.7,10.5-1.3,19.5-6.2,28.2c-4.8,8.5-3,26.8-1.1,34.8c1.7,6.9,10.6,32.7,13.9,40
						c5.5,12,13.3,43.3,6.7,61.3c-1.6,4.3-5.2,15.5-6.1,21.3c-0.8,5.4,1.5,23.4,3,35.3l0.5,3.7c0.4,3.1,0.8,6.6,1.1,10
						c0.9,8.9,2,19,3.4,21.4c0.5,0.9,1.1,1.6,1.8,2.3c1.7,1.9,3.6,4,4.4,10.6c0.7,5.2,2.4,22.5-5.1,27.2c-3.7,2.3-12.6,4-20.5,4
						C267.3,750.1,262.5,749.3,259.9,747.5z"/>
				</g>
			</g>
		</g>
	</g>
</g>
</svg>
