<?xml version="1.0" encoding="utf-8"?>
<!-- Generator: Adobe Illustrator 16.0.0, SVG Export Plug-In . SVG Version: 6.00 Build 0)  -->
<!DOCTYPE svg PUBLIC "-//W3C//DTD SVG 1.1//EN" "http://www.w3.org/Graphics/SVG/1.1/DTD/svg11.dtd">
<svg version="1.1" id="svg13" xmlns="http://www.w3.org/2000/svg" xmlns:xlink="http://www.w3.org/1999/xlink" x="0px" y="0px" class='disabled'
	width="100%" height="100%" viewBox="0 10 300 750" enable-background="new 0 0 300 150" xml:space="preserve">
<g id="bigCrayfish">
		
	<g>
		<path class="human" id="Left_Orbital" fill="#B5B5B5" stroke="#FFFFFF" stroke-width="0.5" stroke-miterlimit="10" d="M191.954,79.923
			c-4.067,0.163-11.388-9.841-13.502-18.165c-1.384-7.239-3.307-10.303-0.76-15.399c5.677-0.947,15.021-3.091,24.458-2.115
			C217.876,45.545,213.754,80.086,191.954,79.923z"/>
	</g>
</g>
<g>
	<g>
		<path class="human" id="Left_Parietal" fill="#B5B5B5" stroke="#FFFFFF" stroke-width="0.5" stroke-miterlimit="10" d="M265.39,86.88
			c7.425-13.036,9.896-27.352,1.765-35.803c-32.487-33.77-72.148-34.813-73.273-35.166c8.704-7.808,18.246-13.745,43.3-12.336
			c11.007,0.037,41.754,1.627,55.419,35.463c5.379,13.315,2.883,26.792-1.52,38.065C291.361,77.477,265.363,87.189,265.39,86.88z"/>
	</g>
</g>
<g id="Head_01_2_">
	<g>
		<path class="human" id="Left_Frontal" fill="#B5B5B5" stroke="#FFFFFF" stroke-width="0.5" stroke-miterlimit="10" d="M193.719,15.993
			c-9.326,9.761-16.432,27.817-16.27,29.932c-0.081,1.952,9.862-1.823,19.512-1.79c20.509-1.789,15.628,23.425,8.146,31.396
			c-0.774,0.063,5.206-8.296,24.239-8.947c-1.33-12.532,12.633-30.095,30.525-21.96C232.326,18.162,195.444,16.533,193.719,15.993z"
			/>
	</g>
</g>
<g>
	<g>
		<path class="human" id="Left_temporal" fill="#B5B5B5" stroke="#FFFFFF" stroke-width="0.5" stroke-miterlimit="10" d="M265.287,87.191
			c-1.223,0.486-18.846,7.209-21.232,8.132c1.52-1.248,3.488-4.824,4.881-6.916c2.668-4.003,8.051-5.284,10.248-16.754
			c1.125-5.881-2.014-11.168-6.506-12.39c-8.783-2.385-12.23,4.229-13.626,6.495c-0.729,1.18,0.853,3.046,1.017,4.269
			c-0.406,1.424-2.438,6.305-2.728,7.213c-2.149-0.12-5.073,1.781-9.006,6.443c-1.479-6.744-1.53-22.183,4.591-31.774
			c11.587-18.155,42.283-8.909,38.566,18.472C270.76,76.275,268.279,82.073,265.287,87.191z"/>
	</g>
</g>
<g>
	<g>
		<path class="human" id="Left_Auricular" fill="#B5B5B5" d="M238.838,65.718c-0.361,0.645,1.613,4.023,1.301,4.717
			c-3.289,7.316-7.673,21.458-2.439,24.401c3.254,1.833,6.884,2.491,9.816-3.957c1.736-3.82,7.195-7.207,9-10.412
			c4.176-7.422,3.244-18.364-2.875-20.768C249.086,57.909,243.017,58.296,238.838,65.718z"/>
		<path fill="#FFFFFF" d="M237.537,95.117c-5.59-3.146-0.937-17.608,2.304-24.814c0.083-0.25-0.382-1.401-0.659-2.088
			c-0.564-1.402-0.874-2.216-0.626-2.657c3.29-5.85,7.563-7.076,10.571-7.076c1.529,0,3.088,0.307,4.635,0.915
			c2.137,0.839,3.771,2.707,4.732,5.4c1.672,4.698,0.992,11.06-1.693,15.831c-0.842,1.495-2.412,2.989-4.08,4.57
			c-1.959,1.86-3.984,3.784-4.908,5.815c-1.652,3.635-3.673,5.403-6.176,5.403C240.414,96.417,239.111,96.005,237.537,95.117z
			 M239.124,65.866c-0.089,0.253,0.381,1.409,0.661,2.101c0.533,1.321,0.85,2.152,0.648,2.598c-3.527,7.85-7.347,21.3-2.576,23.986
			c1.471,0.828,2.672,1.213,3.772,1.213c2.224,0,4.047-1.643,5.587-5.021c0.977-2.146,3.048-4.115,5.055-6.02
			c1.627-1.546,3.166-3.008,3.959-4.418c2.598-4.616,3.26-10.762,1.649-15.291c-0.896-2.511-2.401-4.245-4.358-5.012
			c-1.468-0.577-2.947-0.87-4.396-0.87C246.295,59.132,242.26,60.302,239.124,65.866z"/>
	</g>
</g>
<g>
	<g>
		<path class="human" id="Left_nasal" fill="#B5B5B5" d="M178.32,61.813c2.603,9.653,8.541,14.885,9.354,16.431
			c0.147,4.89-9.519,19.52-14.234,15.697c-5.604-4.537-11.511-1.832-8.542-10.33C167.258,76.861,176.478,68.212,178.32,61.813z"/>
		<path fill="#FFFFFF" d="M173.239,94.195c-1.85-1.497-3.696-2.176-5.327-2.773c-3.128-1.148-5.395-1.98-3.318-7.917
			c1.169-3.345,4.012-7.165,6.759-10.858c2.815-3.79,5.729-7.707,6.657-10.922l0.323-1.121l0.299,1.126
			c1.995,7.389,5.929,12.127,8.044,14.672c0.628,0.762,1.088,1.311,1.286,1.689L188,78.234c0.09,2.996-3.384,9.498-7.146,13.373
			c-1.457,1.5-3.614,3.289-5.644,3.289l0,0C174.478,94.896,173.813,94.66,173.239,94.195z M186.176,76.816
			c-2.05-2.467-5.78-6.961-7.882-13.911c-1.2,3.107-3.851,6.672-6.425,10.13c-2.718,3.654-5.528,7.432-6.665,10.684
			c-1.862,5.331-0.262,5.922,2.928,7.092c1.596,0.586,3.582,1.314,5.512,2.877c0.462,0.377,0.977,0.559,1.567,0.559l0,0
			c1.424,0,3.214-1.07,5.176-3.091c3.63-3.742,6.988-9.935,6.966-12.825C187.158,78.003,186.721,77.475,186.176,76.816z"/>
	</g>
</g>
<g>
	<g>
		<path class="human" id="Left_cervical" fill="#B5B5B5" stroke="#FFFFFF" stroke-width="0.5" stroke-miterlimit="10" d="M242.607,95.813
			c0,0,0.457,12.281,33.426,26.813c-1.004,5.343,1.273,17.814,5.179,26.49c-0.338,0.066-73.854-0.133-73.854-0.133
			s1.916-10.199,0.108-12.286c-2.115-2.44-9.896-1.979-10.332-1.87c-0.435,0.107,17.63-4.471,23.486-7.943
			c5.856-3.47,12.526-6.345,18.546-17.244C243.009,102.68,241.959,95.161,242.607,95.813z"/>
	</g>
</g>
<g>
	<path class="human" id="Left_parotid" fill="#B5B5B5" stroke="#FFFFFF" stroke-width="0.5" stroke-miterlimit="10" d="M225.996,123.791
		c0,0,6.676-5.605,9.599-8.621c5.206-5.368,6.832-15.779,7.241-19.587c-13.26,3.401-5.452-18.478-5.777-18.478
		c-9.761,2.438-23.913,24.726-23.913,24.726C222.418,107.688,225.996,123.791,225.996,123.791z"/>
</g>
<g>
	<path class="human" id="Left_Buccal" fill="#B5B5B5" stroke="#FFFFFF" stroke-width="0.5" stroke-miterlimit="10" d="M192.105,104.652
		c1.085,5.965-2.632,8.158-2.672,8.445c0,0,4.678-0.449,9.722,6.303c6.587,10.738,0.732,14.434,2.494,14.424
		c4.988-0.027,24.631-8.555,24.591-10.766c-0.162-9.271-13.502-25.457-22.421-27.086c-9.869-1.799-19.739,2.172-19.739,2.172
		S191.314,100.298,192.105,104.652z"/>
</g>
<g>
	<path class="human" id="Left_Oral_region" fill="#B5B5B5" stroke="#FFFFFF" stroke-width="0.5" stroke-miterlimit="10" d="M171.471,99.77
		c-1.083,2.496-0.081,5.314,1.438,6.4c1.519,1.085,1.951,2.275,0.866,4.12c-1.085,1.842,1.192,3.795,2.387,4.013
		c1.193,0.217-1.181,5.531,0.229,5.313s16.741-4.609,16.038-14.207c-0.522-7.144-18.654-10.735-18.654-10.735
		S172.556,97.275,171.471,99.77z"/>
</g>
<g>
	<path class="human" id="Left_Mental" fill="#B5B5B5" stroke="#FFFFFF" stroke-width="0.5" stroke-miterlimit="10" d="M177.572,130.245
		c1.771,2.501,9.231,5.313,24.076,3.579c3.664-6.807-3.904-21.366-12.582-20.717c-4.456,0.334-11.378,3.955-13.081,7.24
		C174.813,122.611,175.729,127.643,177.572,130.245z"/>
</g>
<g>
	<path class="human" id="Left_Zygomatic" fill="#B5B5B5" stroke="#FFFFFF" stroke-width="0.5" stroke-miterlimit="10" d="M213.795,101.668
		c0.487-0.977,13.666-18.082,14.507-18.979c-0.813-1.465,0.026-16.321,0.026-16.321s-17.407,0.705-23.102,7.7
		c-5.693,6.995-3.145,22.395-3.145,22.395C209.972,97.355,212.006,100.773,213.795,101.668z"/>
</g>
<g>
	<path class="human" id="Left_infraorbital" fill="#B5B5B5" stroke="#FFFFFF" stroke-width="0.5" stroke-miterlimit="10" d="M185.056,98.361
		c7.049-3.471,13.015-2.389,17.027-1.898c-0.543-2.006-1.737-14.531,2.736-21.853c-0.325,0.109-10.439,5.641-12.986,5.585
		c-2.549-0.055-4.155-1.951-4.155-1.951s-4.247,9.516-6.093,12.255c-3.255,4.824-6.834,4.229-6.834,4.229
		C174.522,94.768,179.198,95.758,185.056,98.361z"/>
</g>
<g>
	<path class="human" id="Left_occipital" fill="#B5B5B5" stroke="#FFFFFF" stroke-width="0.5" stroke-miterlimit="10" d="M242.66,96.193
		c0,10.81,33.264,29.215,33.535,25.943c-0.568-12.525,15.373-45.386,15.373-45.386L244.38,95.107L242.66,96.193z"/>
</g>
<g>
	<g>
		<g>
			<path d="M243.551,95.938c1.385-0.578,2.553-1.828,3.865-4.041c1.175-1.979,1.969-3.492,3.385-4.584
				c6.33-4.795,8.961-10.957,8.938-17.563c-0.019-4.889-1.819-7.856-4.791-9.792c-2.162-1.406-6.491-2.571-10.944-0.834
				c-3.831,1.49-5.511,5.121-5.75,6.013c-0.063,0.232-0.681,0.397-1.097,0.41l0.039,1.176c0.193-0.006,1.912-0.088,2.234-1.289
				c0.193-0.724,1.701-3.924,5.027-5.219c2.408-0.938,7.385-1.104,10.156,0.701c2.619,1.705,3.836,4.818,3.854,9.293
				c0.021,6.225-3.384,11.958-8.313,15.75c-1.595,1.229-2.56,3.277-3.791,5.354c-1.105,1.857-2.642,3.225-3.652,3.646
				c-1.318,0.549-3.379,0.501-5.087-0.603c-1.503-0.969-1.945-2.504-1.919-4.76c0.039-3.007,0.299-5.08,0.299-5.08
				s-0.352-0.578-0.641-0.578c0,0-0.453,0.258-0.453,0.297c0,0-0.375,1.634-0.422,5.35c-0.043,3.373,1.158,4.914,2.457,5.75
				c1.166,0.753,2.377,1.188,3.627,1.188C241.557,96.521,242.838,96.232,243.551,95.938z"/>
		</g>
		<g>
			<path d="M240.283,86.191c-0.344,0-0.66-0.066-0.928-0.207c-0.593-0.313-1.396-1.189-0.132-3.533
				c0.521-0.975,0.992-1.506,1.37-1.936c0.665-0.758,0.943-1.072,0.665-3.552c-0.132-1.174,0.356-1.929,0.711-2.48
				c0.386-0.599,0.494-0.811,0.22-1.292c-0.221-0.388-0.416-0.721-0.584-1c0.096,1.069,0.329,1.816,0.358,1.909l-1.16,0.352
				c-0.026-0.083-2.612-8.341,5.259-11.517c3.086-1.245,5.229-0.25,6.484,0.805c2.395,2.009,3.592,6.097,2.73,9.308
				c-0.76,2.829-2.983,9.471-7.26,10.084c-0.945,0.137-1.671,0.065-2.248,0.014c-1.094-0.104-1.461-0.137-2.299,1.271
				C242.849,85.462,241.434,86.188,240.283,86.191z M241.426,69.813c0.02,0.028,0.945,1.268,1.828,2.813
				c0.635,1.109,0.143,1.87-0.25,2.482c-0.319,0.494-0.621,0.96-0.533,1.73c0.32,2.857-0.082,3.458-0.951,4.443
				c-0.354,0.4-0.756,0.857-1.217,1.712c-0.621,1.155-0.629,1.815-0.361,1.96c0.479,0.257,1.943-0.223,2.479-1.121
				c1.146-1.926,2.074-1.984,3.472-1.855c0.539,0.049,1.15,0.107,1.951-0.004c3.651-0.523,5.715-7.188,6.261-9.218
				c0.741-2.767-0.313-6.412-2.353-8.124c-1.431-1.2-3.234-1.411-5.222-0.608c-3.729,1.506-4.772,4.28-4.941,6.54L241.426,69.813z"
				/>
		</g>
		<g>
			<path d="M243.332,73.031l-0.232,1.16c0.223,0.097,5.407,2.415,2.963,7.915l1.116,0.465
				C250.104,75.992,243.398,73.061,243.332,73.031z"/>
		</g>
		<g>
			<path d="M242.902,93.72c0.855-0.405,1.465-1.009,1.629-1.618l-1.176-0.301c-0.061,0.225-0.418,0.59-0.988,0.858
				c-0.707,0.334-1.476,0.39-2.053,0.147l-0.48,1.08c0.396,0.165,0.831,0.249,1.279,0.249
				C241.699,94.137,242.316,93.994,242.902,93.72z"/>
		</g>
	</g>
	<g>
		<path d="M206.664,149.75l0.076-0.663c0.011-0.087,1.033-7.692,0.646-11.39c-0.241-2.252-6.825-2.373-12.121-2.473
			c-2.292-0.043-4.462-0.088-6.313-0.263c-6.391-0.61-15.142-1.448-14.104-13.014c0.077-0.872,0.33-1.912,0.604-3.017
			c0.373-1.537,1.003-4.104,0.333-4.412c-1.584-0.717-2.517-1.539-2.852-2.506c-0.404-1.179,0.188-2.265,0.622-3.056
			c0.159-0.292,0.424-0.778,0.394-0.92c-2.016-1.383-5.216-4.946-3.109-8.654c0.243-0.428,0.475-0.825,0.691-1.196
			c1.06-1.815,1.76-3.013,1.452-3.81c-0.405-1.044-2.68-2.004-6.216-3.218c-1.574-0.54-2.588-1.512-3.013-2.885
			c-1.626-5.301,6.424-15.489,10.296-20.387c0.677-0.857,1.219-1.544,1.546-1.999c2.645-3.679,1.926-6.075,1.013-9.107
			c-0.459-1.524-0.935-3.099-1.014-4.987c-0.119-2.791,6.219-28.41,22.468-40.301c8.215-6.015,18.766-8.937,32.245-8.937
			c5.379,0,10.291,0.476,13.875,0.821c1.512,0.146,2.822,0.272,3.893,0.339c11.809,0.733,29.099,9.1,39.301,23.669
			c6.595,9.423,12.9,25.266,5.477,47.22c-1.281,3.787-3.195,7.984-5.224,12.429c-7.699,16.885-17.279,37.896-5.547,61.896
			l0.17,0.346l-0.259,0.293c-0.25,0.273-0.396-0.559-74.646,0.174L206.664,149.75z M230.313,3.731
			c-13.207,0-23.514,2.845-31.511,8.698c-15.899,11.634-22.104,36.598-21.987,39.316c0.079,1.744,0.532,3.25,0.966,4.707
			c0.924,3.068,1.795,5.967-1.18,10.108c-0.336,0.464-0.891,1.165-1.581,2.041c-3.456,4.373-11.545,14.609-10.096,19.338
			c0.312,1.006,1.049,1.697,2.253,2.109c4.743,1.626,6.428,2.577,6.946,3.914c0.508,1.313-0.302,2.699-1.53,4.803
			c-0.211,0.367-0.443,0.76-0.685,1.187c-1.761,3.091,1.367,6.182,2.718,7.108c0.977,0.672,0.415,1.698,0.005,2.447
			c-0.384,0.702-0.778,1.432-0.54,2.135c0.22,0.638,0.964,1.246,2.215,1.816c1.563,0.711,0.962,3.156,0.328,5.744
			c-0.26,1.061-0.502,2.059-0.574,2.849c-0.864,9.642,5.11,10.983,13.011,11.74c1.805,0.173,3.95,0.215,6.218,0.255
			c6.662,0.127,12.955,0.241,13.305,3.535c0.344,3.251-0.335,8.857-0.57,10.982c23.562-0.233,66.093,0.306,72.587,0.088
			c-11.388-24.155-1.808-45.168,5.91-62.09c2.014-4.416,3.915-8.588,5.176-12.318c7.273-21.502,1.119-36.991-5.326-46.196
			c-9.98-14.257-26.855-22.441-38.37-23.155c-1.081-0.068-2.408-0.196-3.933-0.343C240.502,4.207,235.623,3.735,230.313,3.731z"/>
	</g>
	<path d="M172.101,92.119c-0.135-1.945,1.718-1.912,2.227-1.24c0.549,0.729-1.429,1.829-1.075,2.155
		c0.697,0.647,3.675-0.323,3.596-2.185c-0.106-2.453-5.839-3.234-6.146,0.647C170.7,91.498,172.128,92.561,172.101,92.119z"/>
	<g>
		<path d="M180.869,90.881c0.891-2.588-1.945-4.912-2.066-5.008l-0.777,0.902c0.021,0.021,2.321,1.9,1.69,3.733
			c-0.92,2.679-5.31,3.997-5.811,4.074v1.177C174.265,95.761,179.658,94.402,180.869,90.881z"/>
	</g>
	<g>
		<path d="M183.174,108.514c-0.09-0.883-0.817-1.037-1.599-1.207c-0.578-0.121-1.369-0.293-2.483-0.736
			c-4.156-1.646-7.817-5.104-7.854-5.133l-0.854,0.838c0.153,0.146,3.864,3.647,8.246,5.387c1.206,0.479,2.095,0.669,2.681,0.796
			c0.229,0.049,0.485,0.104,0.596,0.146c-0.577,0.804-4.06,3.258-6.227,4.569l0.644,0.997
			C176.609,113.995,183.313,109.936,183.174,108.514z"/>
	</g>
	<g>
		<path d="M182.72,109.141l-0.246-1.15c-0.438,0.041-5.099-0.182-7.93-0.328l-0.063,1.175c5.178,0.271,7.062,0.328,7.774,0.328
			C182.618,109.164,182.683,109.148,182.72,109.141z"/>
	</g>
	<g>
		<path d="M199.129,54.621c-1.723-0.638-3.269-1.442-4.763-2.22c-3.813-1.984-7.411-3.858-13.14-2.66
			c-0.964,0.203-1.672,0.662-2.104,1.366c-0.779,1.276-0.306,2.869-0.283,2.937l1.166-0.333c-0.004-0.011-0.345-1.18,0.167-2.009
			c0.256-0.413,0.686-0.678,1.312-0.809c5.291-1.108,8.539,0.584,12.305,2.545c1.53,0.794,3.108,1.618,4.905,2.282L199.129,54.621z"
			/>
	</g>
	<g>
		<path d="M194.938,61.418c0,0-8.058-2.913-10.312-3.723c-2.226-0.799-3.479,0.608-3.834,1.464l1.129,0.442
			c0.099-0.236,0.685-1.378,2.284-0.804c2.254,0.808,10.305,3.722,10.305,3.722L194.938,61.418z"/>
	</g>
	<g>
		<path d="M193.329,65.305c0.14-0.273,0.121-0.564-0.054-0.784c-2.126-2.647-7.521-3.521-9.413-2.951l0.361,1.122
			c1.35-0.406,5.862,0.214,7.846,2.272c-0.963,0.872-5.164,3.241-7.026,3.241c-0.01,0-0.017,0-0.024,0l-0.014,1.176
			c0.009,0,0.018,0,0.028,0C187.401,69.38,192.754,66.415,193.329,65.305z"/>
	</g>
	<g>
		<path d="M185.388,69.399c-0.232,0-0.479-0.029-0.733-0.086c-0.687-0.154-1.277-0.664-1.714-1.472
			c-0.787-1.458-0.873-3.507-0.216-5.099c0.338-0.817,1.084-1.307,1.996-1.307c1.411,0,3.033,1.164,3.307,3.112
			c0.235,1.706-0.075,3.227-0.835,4.069C186.729,69.128,186.105,69.399,185.388,69.399z M184.724,62.609
			c-0.423,0-0.713,0.191-0.867,0.568c-0.613,1.482-0.344,3.175,0.165,4.119c0.263,0.481,0.592,0.797,0.91,0.87
			c0.581,0.132,1.023,0.031,1.346-0.325c0.521-0.571,0.731-1.804,0.544-3.137C186.64,63.41,185.592,62.61,184.724,62.609z"/>
	</g>
	<ellipse cx="183.707" cy="64.878" rx="1.784" ry="1.997"/>
	<g>
		<path d="M230.586,120.866c8.678-7.593,12.875-16.208,12.484-25.615l-1.248,0.046c0.377,9.036-3.688,17.344-12.08,24.684
			c-10.676,9.349-32.944,14.215-33.165,14.262l0.273,1.174C197.777,135.216,219.661,130.432,230.586,120.866z"/>
	</g>
	<path fill="none" d="M176.512,112.973c-1.271-0.617-1.568-1.117-1.636-1.308c-0.13-0.396,0.19-0.979,0.498-1.546
		c0.124-0.225,0.292-0.546,0.426-0.907c2.915,0.147,4.627,0.22,5.64,0.249C180.328,110.415,178.186,111.919,176.512,112.973z"/>
	<path fill="none" d="M248.445,77.158c-1.084-2.765-3.879-3.98-3.998-4.031l-0.073,0.173c-0.048-0.204-0.124-0.417-0.255-0.647
		c-0.893-1.554-1.373-2.24-1.394-2.269l-0.278,0.193c0.18-2.245,1.242-4.987,4.961-6.479c2.057-0.824,3.918-0.582,5.377,0.712
		c1.981,1.763,2.963,5.271,2.229,7.989c-0.547,2.032-2.62,8.703-6.289,9.227c-0.146,0.021-0.26,0.014-0.395,0.022
		C248.969,80.298,249.033,78.652,248.445,77.158z"/>
	<path fill="none" d="M188.173,67.36c0.238-0.802,0.318-1.759,0.174-2.804c-0.092-0.656-0.344-1.215-0.68-1.683
		c1.678,0.32,3.54,0.993,4.658,2.112C191.677,65.551,189.887,66.615,188.173,67.36z"/>
	<path fill="none" d="M174.472,91.041c0.325,0.424-0.205,0.971-0.643,1.421c-0.399-0.341-0.897-0.666-1.504-0.983
		C172.697,90.383,174.045,90.479,174.472,91.041z"/>
	<path fill="none" d="M184.973,62.682c0.865,0,1.906,0.787,2.084,2.056c0.185,1.299-0.018,2.503-0.514,3.074
		c-0.088,0.102-0.195,0.166-0.303,0.226c-0.314,0.079-0.604,0.126-0.854,0.135c-0.068-0.01-0.131-0.007-0.2-0.024
		c-0.327-0.075-0.664-0.403-0.922-0.902c-0.057-0.108-0.108-0.228-0.157-0.354c0.92-0.092,1.644-0.941,1.644-1.989
		c0-0.955-0.603-1.752-1.404-1.955C184.506,62.792,184.699,62.682,184.973,62.682z"/>
	<path fill="none" d="M242.363,81.439c0.891-1.006,1.301-1.619,0.977-4.522c-0.086-0.746,0.197-1.185,0.525-1.691
		c0.139-0.213,0.293-0.456,0.406-0.73c0.688,0.375,2.279,1.395,2.965,3.148c0.51,1.306,0.406,2.785-0.279,4.398
		c-0.063-0.005-0.139-0.008-0.199-0.013c-0.264-0.022-0.51-0.041-0.748-0.041c-1.029,0-1.834,0.339-2.785,1.93
		c-0.525,0.882-2.006,1.367-2.475,1.103c-0.229-0.131-0.201-0.771,0.395-1.869C241.604,82.3,242.008,81.843,242.363,81.439z"/>
	<path fill="none" d="M179.074,108.063c-1.018-0.045-2.113-0.097-3.118-0.146c-0.074-0.431-0.294-0.851-0.806-1.197
		c-0.021-0.016-1.104-0.784-1.955-1.944c1.496,1.094,3.476,2.352,5.618,3.194C178.905,108.008,178.984,108.03,179.074,108.063z"/>
	<path d="M185.649,68.204c-0.081,0-0.175-0.02-0.262-0.031c0.25-0.009,0.538-0.056,0.854-0.135
		C186.07,68.138,185.881,68.204,185.649,68.204z"/>
	<path d="M185.292,69.487c-0.015,0-0.026,0-0.037-0.003l0.001-0.025c0.053,0.007,0.105,0.016,0.155,0.019
		C185.375,69.479,185.33,69.487,185.292,69.487z"/>
</g>
<g> 
	
	<g>
		<path class="human" id="Right_Orbital" fill="#B5B5B5" stroke="#FFFFFF" stroke-width="0.5" stroke-miterlimit="10" d="M96.575,44.491
			c9.435-0.977,18.779,1.168,24.456,2.115c2.547,5.097,0.624,8.16-0.76,15.399c-2.114,8.324-9.433,18.328-13.5,18.166
			C84.972,80.332,80.851,45.792,96.575,44.491z"/>
	</g>
</g>
<g>
	<g>
		<path class="human" id="Right_Parietal" fill="#B5B5B5" stroke="#FFFFFF" stroke-width="0.5" stroke-miterlimit="10" d="M7.651,77.35
			C3.25,66.077,0.754,52.6,6.132,39.285C19.797,5.449,50.542,3.858,61.549,3.822c25.051-1.41,34.592,4.527,43.295,12.336
			c-1.123,0.353-40.78,1.396-73.267,35.166c-8.13,8.451-5.661,22.767,1.765,35.803C33.367,87.436,7.371,77.723,7.651,77.35z"/>
	</g>
</g>
<g id="Head_01_1_">
	<g>
		<path class="human" id="Right_Frontal" fill="#B5B5B5" stroke="#FFFFFF" stroke-width="0.5" stroke-miterlimit="10" d="M38.858,44.871
			c17.893-8.134,31.855,9.429,30.525,21.96c19.03,0.65,25.013,9.011,24.236,8.947c-7.481-7.971-12.362-33.185,8.145-31.396
			c9.647-0.033,19.591,3.742,19.51,1.79c0.162-2.115-6.942-20.171-16.268-29.932C103.281,16.78,66.402,18.409,38.858,44.871z"/>
	</g>
</g>
<g>
	<g>
		<path class="human" id="Right_temporal" fill="#B5B5B5" stroke="#FFFFFF" stroke-width="0.5" stroke-miterlimit="10" d="M27.238,70.627
			C23.522,43.247,54.218,34,65.803,52.155c6.121,9.592,6.068,25.029,4.592,31.773c-3.934-4.66-6.855-6.563-9.005-6.441
			c-0.289-0.908-2.32-5.79-2.729-7.214c0.165-1.223,1.745-3.088,1.018-4.269c-1.396-2.265-4.841-8.88-13.626-6.495
			c-4.492,1.222-7.63,6.509-6.505,12.39c2.197,11.47,7.58,12.75,10.248,16.753c1.393,2.092,3.361,5.668,4.881,6.916
			c-2.387-0.922-20.009-7.645-21.23-8.131C30.451,82.32,27.971,76.521,27.238,70.627z"/>
	</g>
</g>
<g>
	<g>
		<path class="human" id="Right_Auricular" fill="#B5B5B5" d="M45.089,59.946c-6.119,2.404-7.05,13.346-2.875,20.767
			c1.805,3.205,7.263,6.592,9,10.412c2.935,6.449,6.563,5.791,9.816,3.957c5.232-2.943,0.85-17.084-2.439-24.4
			c-0.313-0.694,1.662-4.074,1.301-4.718C55.713,58.542,49.644,58.156,45.089,59.946z"/>
		<path fill="#FFFFFF" d="M57.092,96.664c-2.501,0-4.522-1.771-6.175-5.404c-0.923-2.031-2.949-3.955-4.908-5.814
			c-1.667-1.582-3.238-3.076-4.08-4.57c-2.687-4.771-3.365-11.132-1.692-15.832c0.961-2.693,2.596-4.561,4.731-5.4
			c1.546-0.607,3.104-0.915,4.634-0.915c3.008,0,7.281,1.226,10.572,7.076c0.248,0.441-0.063,1.255-0.627,2.657
			c-0.277,0.688-0.742,1.838-0.658,2.088c3.238,7.207,7.893,21.667,2.304,24.814C59.617,96.252,58.315,96.664,57.092,96.664z
			 M49.603,59.378c-1.447,0-2.928,0.292-4.396,0.87c-1.957,0.767-3.462,2.501-4.358,5.012c-1.609,4.529-0.948,10.675,1.649,15.29
			c0.792,1.41,2.332,2.873,3.958,4.418c2.007,1.904,4.077,3.873,5.054,6.02c1.541,3.381,3.364,5.021,5.587,5.021
			c1.102,0,2.303-0.385,3.772-1.213c4.77-2.686,0.95-16.137-2.577-23.986c-0.199-0.445,0.116-1.276,0.648-2.598
			c0.281-0.691,0.75-1.847,0.662-2.101C56.469,60.548,52.435,59.378,49.603,59.378z"/>
	</g>
</g>
<g>
	<g>
		<path class="human" id="Right_nasal" fill="#B5B5B5" d="M133.823,83.857c2.968,8.498-2.938,5.793-8.541,10.33
			c-4.716,3.822-14.382-10.809-14.233-15.697c0.813-1.545,6.751-6.778,9.354-16.431C122.247,68.458,131.466,77.107,133.823,83.857z"
			/>
		<path fill="#FFFFFF" d="M123.511,95.143L123.511,95.143c-2.028,0-4.187-1.789-5.644-3.289c-3.761-3.877-7.233-10.377-7.145-13.373
			l0.039-0.143c0.197-0.381,0.658-0.93,1.285-1.689c2.115-2.546,6.048-7.284,8.042-14.673l0.299-1.126l0.324,1.121
			c0.928,3.215,3.842,7.131,6.657,10.922c2.746,3.693,5.589,7.513,6.759,10.857c2.074,5.938-0.191,6.77-3.318,7.918
			c-1.631,0.598-3.479,1.275-5.327,2.771C124.912,94.906,124.247,95.143,123.511,95.143z M111.372,78.576
			c-0.022,2.893,3.337,9.084,6.965,12.826c1.961,2.02,3.752,3.09,5.176,3.09l0,0c0.592,0,1.105-0.182,1.567-0.559
			c1.929-1.563,3.915-2.291,5.511-2.877c3.188-1.17,4.791-1.76,2.929-7.092c-1.138-3.252-3.948-7.029-6.665-10.683
			c-2.574-3.458-5.224-7.023-6.425-10.13c-2.101,6.95-5.83,11.444-7.88,13.911C112.004,77.721,111.565,78.25,111.372,78.576z"/>
	</g>
</g>
<g>
	<g>
		<path class="human" id="Right_cervical" fill="#B5B5B5" stroke="#FFFFFF" stroke-width="0.5" stroke-miterlimit="10" d="M59.563,109.885
			c6.019,10.9,12.687,13.775,18.544,17.244c5.855,3.473,23.919,8.053,23.483,7.943c-0.435-0.109-8.214-0.57-10.33,1.869
			c-1.809,2.088,0.107,12.287,0.107,12.287s-73.512,0.199-73.85,0.133c3.904-8.676,6.183-21.146,5.179-26.49
			c32.967-14.531,33.424-26.813,33.424-26.813C56.77,95.408,55.719,102.926,59.563,109.885z"/>
	</g>
</g>
<g>
	<path class="human" id="Right_parotid" fill="#B5B5B5" stroke="#FFFFFF" stroke-width="0.5" stroke-miterlimit="10" d="M85.582,102.078
		c0,0-14.15-22.287-23.912-24.727c-0.324,0,7.482,21.879-5.777,18.479c0.41,3.807,2.035,14.219,7.242,19.586
		c2.921,3.016,9.597,8.621,9.597,8.621S76.31,107.934,85.582,102.078z"/>
</g>
<g>
	<path class="human" id="Right_Buccal" fill="#B5B5B5" stroke="#FFFFFF" stroke-width="0.5" stroke-miterlimit="10" d="M114.646,98.391
		c0,0-9.87-3.969-19.738-2.17c-8.918,1.627-22.257,17.813-22.419,27.086c-0.04,2.211,19.601,10.736,24.588,10.766
		c1.762,0.01-4.092-3.688,2.494-14.424c5.044-6.754,9.72-6.305,9.72-6.305c-0.039-0.285-3.756-2.479-2.671-8.445
		C107.411,100.545,114.646,98.391,114.646,98.391z"/>
</g>
<g>
	<path class="human" id="Right_Oral_region" fill="#B5B5B5" stroke="#FFFFFF" stroke-width="0.5" stroke-miterlimit="10" d="M124.948,94.92
		c0,0-18.13,3.594-18.653,10.736c-0.703,9.598,14.626,13.988,16.037,14.207c1.41,0.217-0.964-5.098,0.229-5.314
		c1.192-0.217,3.471-2.17,2.387-4.012c-1.085-1.846-0.651-3.035,0.866-4.121c1.52-1.086,2.521-3.904,1.438-6.4
		C126.167,97.521,124.948,94.92,124.948,94.92z"/>
</g>
<g>
	<path class="human" id="Right_Mental" fill="#B5B5B5" stroke="#FFFFFF" stroke-width="0.5" stroke-miterlimit="10" d="M122.738,120.594
		c-1.703-3.283-8.625-6.906-13.081-7.238c-8.676-0.65-16.244,13.908-12.581,20.717c14.843,1.732,22.302-1.078,24.074-3.58
		C122.996,127.889,123.912,122.857,122.738,120.594z"/>
</g>
<g>
	<path class="human" id="Right_Zygomatic" fill="#B5B5B5" stroke="#FFFFFF" stroke-width="0.5" stroke-miterlimit="10" d="M96.643,96.709
		c0,0,2.549-15.398-3.145-22.394c-5.692-6.995-23.1-7.7-23.1-7.7s0.84,14.856,0.027,16.321c0.84,0.896,14.018,18.002,14.505,18.979
		C86.72,101.02,88.755,97.602,96.643,96.709z"/>
</g>
<g>
	<path class="human" id="Right_infraorbital" fill="#B5B5B5" stroke="#FFFFFF" stroke-width="0.5" stroke-miterlimit="10" d="M123.972,94.975
		c0,0-3.58,0.596-6.834-4.229c-1.846-2.738-6.091-12.254-6.091-12.254s-1.607,1.896-4.156,1.949
		c-2.546,0.057-12.659-5.475-12.984-5.583c4.473,7.32,3.28,19.847,2.737,21.853c4.013-0.49,9.978-1.572,17.025,1.896
		C119.525,96.004,124.202,95.014,123.972,94.975z"/>
</g>
<g>
	<path class="human" id="Right_occipital" fill="#B5B5B5" stroke="#FFFFFF" stroke-width="0.5" stroke-miterlimit="10" d="M54.349,95.354
		L7.163,76.998c0,0,15.941,32.859,15.373,45.387c0.271,3.271,33.532-15.135,33.532-25.945L54.349,95.354z"/>
</g>
<g>
	<g>
		<g>
			<path d="M58.157,96.768c1.249,0,2.461-0.436,3.626-1.188c1.3-0.836,2.501-2.377,2.458-5.75c-0.047-3.717-0.422-5.35-0.422-5.35
				c0-0.039-0.453-0.297-0.453-0.297c-0.289,0-0.641,0.578-0.641,0.578s0.26,2.072,0.299,5.08c0.025,2.254-0.416,3.791-1.92,4.758
				c-1.707,1.105-3.768,1.152-5.086,0.604c-1.012-0.42-2.546-1.787-3.652-3.645c-1.232-2.076-2.197-4.127-3.791-5.354
				c-4.929-3.791-8.333-9.525-8.312-15.75c0.018-4.475,1.233-7.588,3.854-9.293c2.771-1.805,7.747-1.639,10.156-0.701
				c3.326,1.294,4.833,4.495,5.027,5.219c0.321,1.201,2.041,1.283,2.233,1.289l0.039-1.176c-0.416-0.013-1.033-0.178-1.097-0.41
				c-0.239-0.892-1.918-4.523-5.75-6.013c-4.452-1.736-8.781-0.572-10.943,0.834c-2.971,1.937-4.771,4.904-4.791,9.793
				c-0.023,6.603,2.607,12.767,8.937,17.562c1.416,1.092,2.211,2.605,3.386,4.584c1.313,2.213,2.479,3.463,3.864,4.041
				C55.891,96.479,57.172,96.768,58.157,96.768z"/>
		</g>
		<g>
			<path d="M55.256,84.664c-0.837-1.406-1.205-1.373-2.297-1.271c-0.577,0.053-1.303,0.123-2.249-0.014
				c-4.275-0.613-6.5-7.254-7.258-10.083c-0.86-3.21,0.337-7.299,2.729-9.308c1.258-1.055,3.399-2.05,6.485-0.805
				c7.87,3.176,5.285,11.434,5.258,11.517l-1.16-0.352c0.028-0.094,0.264-0.841,0.358-1.91c-0.168,0.279-0.364,0.613-0.584,1
				c-0.274,0.481-0.166,0.693,0.22,1.293c0.354,0.552,0.842,1.306,0.711,2.48c-0.279,2.479,0,2.793,0.664,3.551
				c0.379,0.43,0.85,0.961,1.371,1.936c1.264,2.344,0.461,3.223-0.133,3.533c-0.268,0.141-0.583,0.207-0.927,0.207
				C57.295,86.434,55.881,85.709,55.256,84.664z M57.141,70.809c-0.168-2.26-1.213-5.034-4.941-6.541
				c-1.986-0.802-3.791-0.592-5.221,0.608c-2.04,1.711-3.093,5.356-2.351,8.124c0.544,2.031,2.606,8.695,6.259,9.216
				c0.801,0.113,1.412,0.055,1.951,0.006c1.396-0.129,2.325-0.07,3.47,1.855c0.535,0.898,2,1.377,2.479,1.121
				c0.268-0.146,0.26-0.805-0.361-1.961c-0.461-0.854-0.86-1.311-1.217-1.711c-0.869-0.986-1.271-1.588-0.951-4.443
				c0.088-0.771-0.213-1.236-0.533-1.73c-0.393-0.613-0.884-1.375-0.25-2.482c0.884-1.544,1.811-2.785,1.828-2.813L57.141,70.809z"
				/>
		</g>
		<g>
			<path d="M51.552,82.816l1.115-0.465c-2.443-5.5,2.74-7.817,2.962-7.914l-0.231-1.16C55.331,73.307,48.626,76.238,51.552,82.816z"
				/>
		</g>
		<g>
			<path d="M57.616,94.383c0.449,0,0.885-0.084,1.279-0.248l-0.479-1.082c-0.577,0.242-1.347,0.188-2.054-0.146
				c-0.57-0.27-0.928-0.635-0.987-0.857l-1.176,0.301c0.164,0.609,0.773,1.211,1.628,1.617C56.413,94.24,57.03,94.383,57.616,94.383
				z"/>
		</g>
	</g>
	<g>
		<path d="M91.38,149.994c-74.245-0.732-74.393,0.1-74.643-0.174l-0.258-0.293l0.17-0.348c11.732-23.998,2.152-45.012-5.546-61.895
			C9.075,82.84,7.161,78.643,5.88,74.856c-7.427-21.955-1.12-37.797,5.475-47.22C21.557,13.065,38.845,4.7,50.653,3.966
			c1.07-0.067,2.381-0.194,3.893-0.339c3.583-0.346,8.496-0.821,13.874-0.821c13.479,0,24.028,2.922,32.243,8.937
			c16.247,11.892,22.585,37.51,22.466,40.301c-0.08,1.888-0.555,3.463-1.014,4.987c-0.913,3.033-1.632,5.429,1.012,9.107
			c0.328,0.455,0.87,1.142,1.547,1.999c3.871,4.897,11.921,15.087,10.294,20.388c-0.424,1.371-1.438,2.344-3.013,2.885
			c-3.536,1.213-5.81,2.174-6.215,3.217c-0.308,0.797,0.394,1.994,1.452,3.809c0.218,0.371,0.447,0.771,0.691,1.197
			c2.104,3.709-1.095,7.271-3.109,8.654c-0.03,0.141,0.232,0.629,0.392,0.92c0.436,0.791,1.027,1.877,0.623,3.057
			c-0.335,0.965-1.267,1.789-2.851,2.506c-0.67,0.309-0.04,2.875,0.333,4.412c0.272,1.104,0.526,2.145,0.604,3.016
			c1.036,11.564-7.715,12.402-14.104,13.014c-1.851,0.176-4.021,0.219-6.313,0.262c-5.295,0.102-11.878,0.223-12.119,2.475
			c-0.389,3.695,0.635,11.303,0.646,11.389L92.063,150L91.38,149.994z M54.665,4.796c-1.523,0.147-2.852,0.275-3.933,0.343
			c-11.514,0.714-28.388,8.898-38.369,23.155C5.919,37.5-0.237,52.989,7.037,74.491c1.261,3.73,3.163,7.902,5.177,12.318
			c7.716,16.922,17.296,37.936,5.91,62.09c6.493,0.219,49.023-0.32,72.582-0.088c-0.235-2.125-0.914-7.73-0.569-10.982
			c0.349-3.293,6.641-3.408,13.303-3.535c2.267-0.039,4.413-0.082,6.216-0.254c7.899-0.758,13.875-2.1,13.01-11.74
			c-0.072-0.791-0.314-1.789-0.574-2.85c-0.633-2.588-1.234-5.033,0.328-5.744c1.25-0.57,1.996-1.18,2.215-1.816
			c0.238-0.703-0.156-1.432-0.541-2.135c-0.41-0.748-0.971-1.775,0.006-2.447c1.35-0.928,4.477-4.018,2.717-7.107
			c-0.24-0.428-0.474-0.818-0.685-1.188c-1.229-2.104-2.039-3.49-1.53-4.803c0.519-1.336,2.202-2.287,6.946-3.914
			c1.203-0.412,1.94-1.104,2.252-2.109c1.449-4.729-6.639-14.964-10.093-19.337c-0.691-0.877-1.246-1.578-1.582-2.042
			c-2.975-4.142-2.104-7.041-1.18-10.108c0.434-1.456,0.887-2.962,0.966-4.707c0.116-2.718-6.089-27.682-21.986-39.315
			c-7.996-5.853-18.3-8.698-31.506-8.698C63.106,3.981,58.227,4.454,54.665,4.796z"/>
	</g>
	<path d="M128.021,91.744c-0.308-3.883-6.038-3.102-6.145-0.646c-0.08,1.859,2.897,2.83,3.595,2.184
		c0.354-0.326-1.625-1.428-1.075-2.154c0.509-0.672,2.36-0.705,2.227,1.24C126.595,92.807,128.021,91.744,128.021,91.744z"/>
	<g>
		<path d="M124.818,96.008V94.83c-0.501-0.076-4.891-1.396-5.811-4.074c-0.631-1.832,1.668-3.713,1.69-3.734l-0.778-0.9
			c-0.121,0.096-2.955,2.42-2.065,5.008C119.065,94.648,124.458,96.008,124.818,96.008z"/>
	</g>
	<g>
		<path d="M122.4,114.416l0.643-0.998c-2.166-1.313-5.646-3.766-6.226-4.568c0.11-0.041,0.366-0.098,0.596-0.146
			c0.587-0.127,1.474-0.316,2.681-0.795c4.381-1.738,8.092-5.242,8.246-5.387l-0.854-0.84c-0.036,0.031-3.697,3.488-7.853,5.135
			c-1.115,0.443-1.905,0.613-2.483,0.734c-0.78,0.172-1.509,0.326-1.599,1.207C115.411,110.182,122.115,114.242,122.4,114.416z"/>
	</g>
	<g>
		<path d="M116.468,109.41c0.715,0,2.598-0.059,7.774-0.328l-0.063-1.174c-2.832,0.146-7.492,0.369-7.93,0.328l-0.246,1.15
			C116.042,109.395,116.105,109.41,116.468,109.41z"/>
	</g>
	<g>
		<path d="M100.031,55.965c1.797-0.665,3.375-1.488,4.905-2.282c3.764-1.961,7.012-3.653,12.303-2.545
			c0.626,0.131,1.056,0.396,1.312,0.809c0.512,0.829,0.17,1.998,0.166,2.009l1.166,0.333c0.022-0.068,0.496-1.661-0.283-2.937
			c-0.432-0.704-1.139-1.163-2.103-1.366c-5.727-1.198-9.325,0.676-13.138,2.66c-1.494,0.778-3.04,1.582-4.763,2.22L100.031,55.965z
			"/>
	</g>
	<g>
		<path d="M104.215,62.767c0,0,8.05-2.914,10.304-3.722c1.599-0.574,2.185,0.568,2.283,0.804l1.129-0.442
			c-0.354-0.856-1.608-2.263-3.833-1.464c-2.254,0.81-10.31,3.723-10.31,3.723L104.215,62.767z"/>
	</g>
	<g>
		<path d="M113.69,69.626c0.012,0,0.021,0,0.028,0l-0.014-1.176c-0.009,0-0.016,0-0.023,0c-1.863,0-6.063-2.369-7.026-3.241
			c1.981-2.058,6.495-2.678,7.845-2.272l0.361-1.122c-1.893-0.569-7.286,0.304-9.412,2.951c-0.175,0.22-0.193,0.511-0.054,0.784
			C105.971,66.662,111.323,69.626,113.69,69.626z"/>
	</g>
	<g>
		<path d="M111.532,68.864c-0.76-0.844-1.069-2.363-0.835-4.069c0.273-1.949,1.896-3.112,3.307-3.112
			c0.912,0,1.658,0.489,1.996,1.307c0.657,1.592,0.571,3.641-0.216,5.099c-0.437,0.809-1.026,1.318-1.713,1.473
			c-0.255,0.058-0.501,0.086-0.732,0.086C112.619,69.645,111.995,69.375,111.532,68.864z M111.903,64.951
			c-0.188,1.333,0.024,2.565,0.544,3.137c0.322,0.356,0.766,0.457,1.346,0.325c0.318-0.073,0.647-0.389,0.91-0.87
			c0.509-0.944,0.778-2.637,0.165-4.119c-0.153-0.377-0.444-0.568-0.866-0.568C113.133,62.856,112.086,63.657,111.903,64.951z"/>
	</g>
	<ellipse cx="115.017" cy="65.125" rx="1.785" ry="1.996"/>
	<g>
		<path d="M101.875,135.662l0.272-1.174c-0.222-0.049-22.487-4.914-33.163-14.264c-8.391-7.34-12.456-15.645-12.079-24.682
			l-1.248-0.047c-0.391,9.408,3.807,18.021,12.484,25.615C79.066,130.678,100.948,135.463,101.875,135.662z"/>
	</g>
	<path fill="none" d="M122.212,113.219c1.271-0.617,1.568-1.117,1.635-1.307c0.131-0.396-0.189-0.98-0.498-1.547
		c-0.123-0.225-0.291-0.545-0.426-0.906c-2.914,0.146-4.627,0.219-5.639,0.248C118.395,110.662,120.539,112.166,122.212,113.219z"/>
	<path fill="none" d="M50.284,77.404c1.085-2.765,3.88-3.98,3.998-4.031l0.072,0.173c0.049-0.204,0.125-0.417,0.256-0.647
		c0.892-1.553,1.372-2.239,1.392-2.269l0.279,0.193c-0.18-2.245-1.243-4.987-4.96-6.479c-2.057-0.824-3.918-0.582-5.377,0.712
		c-1.982,1.763-2.962,5.271-2.23,7.989c0.547,2.032,2.62,8.703,6.289,9.226c0.146,0.021,0.26,0.014,0.396,0.023
		C49.761,80.545,49.696,78.898,50.284,77.404z"/>
	<path fill="none" d="M110.551,67.606c-0.238-0.801-0.318-1.758-0.174-2.803c0.092-0.656,0.344-1.215,0.68-1.683
		c-1.678,0.32-3.539,0.993-4.657,2.112C107.049,65.797,108.838,66.862,110.551,67.606z"/>
	<path fill="none" d="M124.251,91.287c-0.324,0.424,0.207,0.971,0.644,1.422c0.399-0.342,0.897-0.666,1.503-0.984
		C126.025,90.629,124.677,90.725,124.251,91.287z"/>
	<path fill="none" d="M113.752,62.929c-0.865,0-1.906,0.787-2.084,2.056c-0.185,1.299,0.019,2.503,0.514,3.075
		c0.089,0.102,0.195,0.166,0.303,0.226c0.314,0.079,0.604,0.126,0.854,0.135c0.068-0.01,0.131-0.007,0.2-0.024
		c0.327-0.074,0.664-0.402,0.923-0.901c0.057-0.108,0.107-0.228,0.156-0.354c-0.92-0.092-1.643-0.941-1.643-1.989
		c0-0.955,0.602-1.752,1.404-1.955C114.219,63.039,114.024,62.929,113.752,62.929z"/>
	<path fill="none" d="M56.366,81.686c-0.891-1.006-1.301-1.619-0.977-4.521c0.086-0.746-0.197-1.185-0.525-1.691
		c-0.139-0.213-0.293-0.457-0.406-0.73c-0.689,0.375-2.279,1.394-2.965,3.148c-0.51,1.307-0.406,2.785,0.279,4.398
		c0.063-0.004,0.138-0.008,0.199-0.012c0.264-0.023,0.51-0.041,0.748-0.041c1.028,0,1.834,0.338,2.785,1.93
		c0.524,0.881,2.006,1.367,2.475,1.102c0.229-0.131,0.201-0.77-0.395-1.869C57.125,82.547,56.721,82.09,56.366,81.686z"/>
	<path fill="none" d="M119.649,108.309c1.017-0.045,2.112-0.096,3.118-0.145c0.074-0.432,0.294-0.852,0.806-1.197
		c0.021-0.016,1.104-0.785,1.955-1.945c-1.496,1.094-3.475,2.352-5.618,3.195C119.818,108.254,119.74,108.277,119.649,108.309z"/>
	<path d="M113.075,68.451c0.081,0,0.175-0.021,0.263-0.031c-0.25-0.009-0.539-0.056-0.854-0.135
		C112.653,68.385,112.844,68.451,113.075,68.451z"/>
	<path d="M113.432,69.733c0.015,0,0.027,0,0.037-0.002v-0.025c-0.054,0.007-0.106,0.016-0.156,0.02
		C113.35,69.725,113.395,69.733,113.432,69.733z"/>
</g>
</svg>
