<?xml version="1.0" encoding="utf-8"?>
<!-- Generator: Adobe Illustrator 23.0.5, SVG Export Plug-In . SVG Version: 6.00 Build 0)  -->
<svg version="1.1" id="Layer_1" focusable="false" xmlns="http://www.w3.org/2000/svg" xmlns:xlink="http://www.w3.org/1999/xlink"
	 x="0px" y="0px" viewBox="0 0 576 512" style="enable-background:new 0 0 576 512;" xml:space="preserve">
<path d="M456,469h-98.6h-3.6l-1.1-3.4l-18.6-55.8c-0.9-2.9-3.6-4.8-6.7-4.8h-78.7c-3,0-5.7,1.9-6.6,4.8l-18.6,55.8l-1.1,3.4h-3.6
	H120c-10.5,0-19,8.5-19,19s8.5,19,19,19h336c10.5,0,19-8.5,19-19S466.5,469,456,469z"/>
<path d="M528,5H48C24.3,5,5,24.3,5,48v288c0,23.7,19.3,43,43,43h480c23.7,0,43-19.3,43-43V48C571,24.3,551.7,5,528,5z M533,330
	c0,6.1-4.9,11-11,11H54c-6.1,0-11-4.9-11-11V54c0-6.1,4.9-11,11-11h468c6.1,0,11,4.9,11,11V330z"/>
</svg>
