<svg xmlns="http://www.w3.org/2000/svg" viewBox="0 0 448 448"><title>emr-history</title><rect width="448" height="448" style="fill:#fff;fill-opacity:0;opacity:0"/><path d="M326.55,199.93H210.62a10.7,10.7,0,0,0-.61,21.4H326.55a10.7,10.7,0,0,0,0-21.4Z"/><path d="M326.73,264.84H210.81a10.7,10.7,0,0,0,0,21.4H326.74a10.7,10.7,0,0,0,0-21.4Z"/><path d="M326.73,332.43H210.81a10.71,10.71,0,0,0,0,21.41H326.74a10.71,10.71,0,0,0,0-21.41Z"/><path d="M196.8,122.17a10.71,10.71,0,0,0,.62-21.41H147v-42a10.7,10.7,0,0,0-21.4-.61c0,.2,0,.41,0,.61v52.71a10.71,10.71,0,0,0,10.7,10.71Z"/><path d="M363.67,79H262.05a119.84,119.84,0,0,1,2.46,18.11h99.17a17.74,17.74,0,0,1,17.69,17.7V403.67a17.75,17.75,0,0,1-17.68,17.7H168.36a17.76,17.76,0,0,1-17.71-17.69V224.28q-3.17.19-6.32.21h-.09q-5.85,0-11.68-.64V403.7a35.9,35.9,0,0,0,35.81,35.8H363.68a35.9,35.9,0,0,0,35.78-35.81V114.76A35.89,35.89,0,0,0,363.67,79Z"/><path d="M142.49,3.5a98.9,98.9,0,1,0,99,99A99.07,99.07,0,0,0,142.49,3.5Zm0,180.51h0a81.57,81.57,0,1,1,81.57-81.56A81.77,81.77,0,0,1,142.49,184Z"/></svg>