<svg xmlns="http://www.w3.org/2000/svg" viewBox="0 0 445 341.5"><title>queue</title><path d="M369.07,202.86c-7.32,0-13.06,1.82-19.12,3.74-1.62.52-3.28,1-5,1.56a82.63,82.63,0,0,0-43.58-12.39h-.15c-7.93,0-14.13,2-20.71,4-3.38,1.07-6.89,2.18-10.91,3.13a87.52,87.52,0,0,1-10.71,1.84l-.51-.34a89.89,89.89,0,0,0-49.46-14.79c-8.72,0-15.49,2.12-22.71,4.4-9.09,2.87-19.4,6.14-36.5,6.14s-27.36-3.25-36.44-6.13c-7.16-2.26-13.92-4.41-22.58-4.41A90.79,90.79,0,0,0,0,280.33v27.41A33.82,33.82,0,0,0,33.77,341.5h232a33.86,33.86,0,0,0,19.44-6.19h68.21a30.79,30.79,0,0,0,17.16-5.16h45.95A28.52,28.52,0,0,0,445,301.63V278.78A76,76,0,0,0,369.07,202.86Zm-4.37,22.38a28.78,28.78,0,0,1,4.36-.46,54.17,54.17,0,0,1,54.05,54.09V301.6a6.73,6.73,0,0,1-6.64,6.64H384.24a30.22,30.22,0,0,0,.27-4.06V279.06a82.7,82.7,0,0,0-19.81-53.85Zm-84.49-.68c2.53-.71,4.84-1.44,7-2.1,5.51-1.72,9.86-3.08,14-3.08A59.78,59.78,0,0,1,360.89,279v25.17a7.45,7.45,0,0,1-1.21,4.06H299.43V280.33a90.38,90.38,0,0,0-19.23-55.8ZM274,307.76a8.19,8.19,0,0,1-1.57,4.85,8.37,8.37,0,0,1-6.8,3.52H33.78a8.43,8.43,0,0,1-8.39-8.38V280.33A65.42,65.42,0,0,1,90.69,215c4.62,0,9.36,1.49,15.35,3.37a137.55,137.55,0,0,0,28.4,6.38,143.93,143.93,0,0,0,15.24.79,128.76,128.76,0,0,0,40.45-6.17l3.12-1c6-1.89,10.79-3.39,15.43-3.39h.1a65.42,65.42,0,0,1,39.46,13.34l.22.16A65.57,65.57,0,0,1,274,280.29Z"/><path d="M136.73,171.91a86.52,86.52,0,0,0,57.46-11.29,79.72,79.72,0,0,0,82.27,14.54A72.41,72.41,0,1,0,304.51,46.38a79.13,79.13,0,0,0-90.19-17.47,86.45,86.45,0,1,0-77.58,143ZM119.16,33.05a61.27,61.27,0,1,1-22.83,83.58h0a60.89,60.89,0,0,1,22.18-83.2Zm175,38.29A55.85,55.85,0,0,1,277.45,148l-1,.64h0a56,56,0,0,1-63.54-3.33,86.36,86.36,0,0,0,14.74-96.4,55.47,55.47,0,0,1,55,9.37A56.21,56.21,0,0,1,294.17,71.34Zm24.46-4.74h1.29a50.55,50.55,0,1,1,0,101.09h-2.15a50.28,50.28,0,0,1-20.08-5.16,79.49,79.49,0,0,0,21-95.93Z"/></svg>