<svg xmlns="http://www.w3.org/2000/svg" viewBox="0 0 384 512"><title>registration</title><path d="M336,64H247.4a52.87,52.87,0,0,0,.6-8,56,56,0,0,0-112,0,52.87,52.87,0,0,0,.6,8H48A48,48,0,0,0,0,112V464a48,48,0,0,0,48,48H336a48,48,0,0,0,48-48V112A48,48,0,0,0,336,64ZM192,32a24,24,0,1,1-24,24A23.94,23.94,0,0,1,192,32ZM352,464a16,16,0,0,1-16,16H48a16,16,0,0,1-16-16V112A16,16,0,0,1,48,96H96v20a12,12,0,0,0,12,12H276a12,12,0,0,0,12-12V96h48a16,16,0,0,1,16,16Z"/><path d="M306.46,196.29l-27.73-27.74a26.15,26.15,0,0,0-37,0L76,334.32l-6,54.06a15.06,15.06,0,0,0,15,16.75,14,14,0,0,0,1.7-.1l54.07-6L306.46,233.26a26.13,26.13,0,0,0,0-37ZM248.62,256,129.33,375.3,96.09,379l3.67-33.24,119.35-119.3Zm40.64-41.17a1.16,1.16,0,0,1-.34.82L266.2,238.33l-29.52-29.51,22.73-22.73a1.1,1.1,0,0,1,.81-.34,1.48,1.48,0,0,1,.93.37l27.74,27.74A1.3,1.3,0,0,1,289.26,214.78Z"/></svg>