<svg xmlns="http://www.w3.org/2000/svg" viewBox="0 0 512 512"><path d="M157.41,315.69l-.39-.09-.28-.07.09,0,.08,0,.1,0c.19.05.39.1.58.13ZM148.1,305v.11a1,1,0,0,1,0,.25.25.25,0,0,0,.07.16A2.32,2.32,0,0,1,148.1,305Zm16.29-65.27-16,61.15c0,.12-.07.25-.09.38s-.05.26-.08.39-.08.49-.11.73a12.42,12.42,0,0,0-.06,2.28v-.81a12.15,12.15,0,0,1,.38-3l16-61.15c.08-.25.16-.53.23-.78A5.92,5.92,0,0,0,164.39,239.75Z"  style="fill:none"/><path d="M441,9.28H71A61.74,61.74,0,0,0,9.31,71V348.52A61.73,61.73,0,0,0,71,410.2h92.52v80.95A11.54,11.54,0,0,0,175,502.72h.06a11.06,11.06,0,0,0,6.84-2.32l120.38-90.2H441a61.74,61.74,0,0,0,61.68-61.68V71A61.74,61.74,0,0,0,441,9.28Zm30.84,339.24A30.93,30.93,0,0,1,441,379.36H292l-8.19,6.17L194.31,452.6V379.36H71a30.93,30.93,0,0,1-30.84-30.84V71A30.93,30.93,0,0,1,71,40.12H441a30.26,30.26,0,0,1,6.22.64c.5.1,1,.22,1.49.35.25.06.49.12.74.2.48.14,1,.29,1.44.45s1,.34,1.42.52.92.38,1.38.59.9.42,1.34.65c.22.1.44.22.67.35A30.88,30.88,0,0,1,471.91,71Z" /><path d="M355.8,130.89v0l-22.6-22.57a27.84,27.84,0,0,0-19.81-8.2,27.54,27.54,0,0,0-19.72,8.19l-126.11,126a12.5,12.5,0,0,0-2.31,3.27c-.09.18-.18.36-.26.55a8.36,8.36,0,0,0-.32.83s0,0,0,0c-.1.28-.19.57-.27.86l-16,61.15-.09.33c0,.13-.05.26-.08.39s-.08.49-.11.73a12.42,12.42,0,0,0-.06,2.28v.47a.53.53,0,0,1,0,.13.49.49,0,0,1,0,.12v.13a4,4,0,0,0,.07.48,3.25,3.25,0,0,0,.14.69,4.94,4.94,0,0,0,.15.55,1.85,1.85,0,0,0,.16.52l.18.51c.06.17.15.39.24.58v.07c.1.21.2.42.31.63s.3.55.46.81a5,5,0,0,0,.31.46,10.25,10.25,0,0,0,1,1.28l.06.05a10.84,10.84,0,0,0,2.06,1.76l.66.41c.25.15.51.28.77.41l.53.24.55.22a5.27,5.27,0,0,0,.56.19l.48.14.09,0,.08,0,.11,0,.39.09.54.1h.1l.55.07.6.05h.62a13.78,13.78,0,0,0,3-.39l61.14-16a11.89,11.89,0,0,0,5.48-3.16L355.67,170.28a26.45,26.45,0,0,0,2-2.24l.61-.78c.26-.35.51-.71.76-1.07s.64-1,.93-1.47.48-.84.7-1.26a21.52,21.52,0,0,0,1-2.12,15,15,0,0,0,.61-1.57c.11-.31.22-.62.31-.94A28,28,0,0,0,355.8,130.89ZM215.09,277.2l-1.05.27-30.6,8-6.61,1.73,1.73-6.61,8-30.6.27-1.05,78.6-78.6,28.26,28.26Zm95.54-95.54L282.37,153.4l31.06-31.06,28.26,28.26Z" /></svg>