<svg xmlns="http://www.w3.org/2000/svg" viewBox="0 0 512 512"><path d="M286.55,371.75a23.25,23.25,0,0,0-22.83,23.66v.12a23.25,23.25,0,0,0,46.49,0q0-.48,0-1A23.23,23.23,0,0,0,286.55,371.75Z" /><path d="M502.16,248.24c-6.2-39.91-52.88-59.49-88.82-41.17a64.72,64.72,0,0,1-60.21-.33c16.67-18.89,41.5-47.21,65.8-75.7,24.67-28.95,44-52.43,57.45-69.79,8.09-10.44,14.15-18.79,18-24.89,4-6.26,9.5-14.86,3.94-21.12a9.28,9.28,0,0,0-6.5-3c-5.4-.28-13.41-.65-110.71,84.91-23,20.26-45.72,40.68-62.91,56.26-.14-1.74-.22-3.51-.22-5.3V70.85C318,36.18,289.28,8.09,254.75,8,118.32,8.48,8,119.38,8,256a264.08,264.08,0,0,0,4.83,50.1C31.62,402.38,109,480,205,499c169.6,33.51,299-107.72,299-227A147.69,147.69,0,0,0,502.16,248.24ZM292.32,204c.44-5.16,4.36-9.14,5.76-10.42l.51-.43.61-.51c.19-.18,9.13-8.41,23.05-21.06,16.95-15.42,41.33-37.41,66.38-59.5,40.86-36,65.79-56.62,80.94-68.38-11.65,15.48-32.17,41-68.23,83.19-23.07,27-46,53.15-61.47,70.62-11.36,12.86-18.64,21-18.79,21.19l-.43.52a16.44,16.44,0,0,1-1.4,1.49,13.15,13.15,0,0,1-8.1,3.87c-5.11.19-10.11-4.12-13.4-7.88C293.74,212.16,291.9,207.94,292.32,204ZM394,422.59c-51.92,42.58-116.81,59-182.78,45.91C127.29,452,59.92,384.23,43.45,300.06A227.92,227.92,0,0,1,39.09,256c0-119.24,96.77-216.57,215.61-217A32.16,32.16,0,0,1,287,70.9v77.26a96.37,96.37,0,0,0,4.49,29.63l-3,2.75c-2.16,1.73-11,9.53-12.24,21.77-.86,8.68,2.33,17.12,9.45,25.05,7.86,8.76,16.28,13.25,25.05,13.25H312c10.35-.48,17.41-7,20.25-10.21a96.56,96.56,0,0,0,95.19,4.27,34.08,34.08,0,0,1,30.31.1c4.46,2.32,12.21,7.64,13.85,18.11A118.86,118.86,0,0,1,473,272C473,324.89,442.71,382.51,394,422.59Z" /><path d="M179.52,342.33a23.2,23.2,0,0,0-24.25,22.1v.1a23.2,23.2,0,1,0,24.25-22.2Z" /><path d="M186.22,147.57v0q0-.48,0-1a23.25,23.25,0,1,0-46.49.86v.12q0,.48,0,1a23.25,23.25,0,1,0,46.49-1Z" /><path d="M116.53,248.27a23.25,23.25,0,0,0-23.3,23.2v.1a23.25,23.25,0,1,0,23.3-23.3Z" /><path d="M291.47,241.25c-8.09-16.62-40.28-19-55.85-7.77s-25.71,25.91-38.83,44.59-48.85,6.26-48.85,6.26,30.07,30.46,58.95,32.12,38.68-7.25,52.52-16.61S299.56,257.87,291.47,241.25Z" /></svg>