<svg xmlns="http://www.w3.org/2000/svg" viewBox="0 0 15.76 24.76"><title>switch-down</title><path d="M16.11,20.18,8.72,16.49a.49.49,0,0,0-.44,0L.89,20.18a.51.51,0,0,0,0,.9l7.39,3.69a.49.49,0,0,0,.44,0l7.39-3.69A.51.51,0,0,0,16.11,20.18Z" transform="translate(-0.62 -0.06)"/><path d="M6.84,5.81,4.62,4.7a.51.51,0,0,1,0-.9L8.28,2a.49.49,0,0,1,.44,0L12.38,3.8a.51.51,0,0,1,0,.9L10.16,5.81V7.67l5.95-3a.51.51,0,0,0,0-.9L8.72.11a.49.49,0,0,0-.44,0L.89,3.8a.51.51,0,0,0,0,.9l6,3Z" transform="translate(-0.62 -0.06)"/><path d="M11.91,11.07a.43.43,0,0,0-.39-.25H9.79V5.21a.43.43,0,0,0-.43-.43H7.64a.43.43,0,0,0-.43.43v5.61H5.48a.43.43,0,0,0-.39.25.42.42,0,0,0,.06.46l3,3.46a.44.44,0,0,0,.64,0l3-3.46A.42.42,0,0,0,11.91,11.07Z" transform="translate(-0.62 -0.06)"/></svg>