<svg xmlns="http://www.w3.org/2000/svg" viewBox="0 0 45 45"><title>1</title><rect width="45" height="45" style="fill:none;opacity:0"/><path d="M43.93,27.1V11.65a1,1,0,0,0,0-.14v0a1,1,0,0,0,0-.13h0l0-.09v-.06l-.05-.1h0l-.08-.1,0,0-.08-.08h0l-.1-.07h0l-.1-.05h0L20.45,1.15h0A1,1,0,0,0,20,1.08h0l-.19,0h0l-.08,0h0L13,4a1,1,0,0,0,0,1.79l6.12,2.57v8.55L1.67,24.18l0,0,0,0-.08,0h0l-.09.07h0l-.07.07,0,0-.05.06,0,0,0,.08h0l0,.1v0l0,.08v0l0,.08v0a1,1,0,0,0,0,.12v8.28a1,1,0,0,0,.59.89l22.87,9.6.19.06h.38l.19-.06,18-7.56a1,1,0,0,0,.59-.89V27.11ZM21,19l19.4,8.14L33.09,30.2m-2.51,1.05-5.66,2.38-10.5-4.41m-2.51-1.05L4.55,25.08,19.11,19m1-15.87,20.37,8.55-4.2,1.76L20.46,6.78h0L15.87,4.86ZM35.86,15.35a1,1,0,0,0,.76,0L42,13.1V25.65L21,16.87V9.13ZM3,26.54,24,35.32V41.5L3,32.71Zm39,8.21L25.89,41.5V35.32L42,28.57Z" style="fill:#4fc6e1"/><polygon points="19.11 18.97 4.55 25.08 24.92 33.63 40.45 27.11 21.05 18.97 19.11 18.97" style="fill:#3f51b5"/></svg>