<svg id="Layer_1" data-name="Layer 1" xmlns="http://www.w3.org/2000/svg" viewBox="0 0 34 34"><defs><style>.cls-1{fill:#fff;}.cls-2{fill:#f96aad;}.cls-3{fill:#e5e5e5;}.cls-4{fill:#826af9;}.cls-5{fill:#2cd9c5;}.cls-6{fill:#e23c5c;}</style></defs><title>ip</title><rect class="cls-1" width="34" height="34"/><g id="Group_195-2" data-name="Group 195-2"><path id="Path_161" data-name="Path 161" class="cls-2" d="M33.05,16.21c0-.15,0-.3,0-.45s-.05-.54-.09-.8,0-.33-.07-.49-.06-.42-.11-.62-.08-.4-.13-.6-.09-.37-.14-.55-.09-.33-.14-.49-.07-.2-.1-.29a5.17,5.17,0,0,0-.18-.51L32,11.09c-.1-.25-.2-.5-.31-.74s-.16-.34-.25-.51a15.27,15.27,0,0,0-1.65-2.63c-.08-.12-.18-.23-.27-.35a16,16,0,0,0-1.66-1.74,5,5,0,0,0-.42-.37L27,4.45a.39.39,0,0,0-.1-.08l-.36-.28L26.5,4l-.24-.18A2.68,2.68,0,0,0,26,3.68c-.16-.12-.33-.22-.5-.33L24.82,3c-.35-.2-.71-.38-1.08-.55a5.55,5.55,0,0,0-.56-.24L23,2.09l-.39-.15-.4-.14-.16-.06-.16-.05c-.2-.06-.41-.13-.62-.18l-.65-.17h0L20,1.21l-.13,0-.58-.09L18.47,1,17.83,1H16.26l-.35,0-.45,0-.3,0a15.94,15.94,0,0,0-2.17.4l-.39.1-.38.11c-.12.05-.25.08-.37.12l-.37.13L11.16,2l-.41.16-.36.16c-.15.06-.3.14-.44.21l-.44.22A16.26,16.26,0,0,0,6,5.28l-.46.45c-.15.15-.29.3-.43.46q-.5.54-.93,1.11c-.14.19-.27.37-.4.57l-.39.58a5.88,5.88,0,0,0-.35.6,12.12,12.12,0,0,0-.64,1.24c-.1.21-.2.43-.28.65s-.18.43-.26.66-.14.41-.2.62-.16.5-.22.76-.09.39-.14.58l-.15.8h0c0,.14,0,.28-.07.42h0A16.09,16.09,0,0,0,14.83,32.91a17.6,17.6,0,0,0,2.17.16,16.26,16.26,0,0,0,4.5-.64l.4-.13a11.15,11.15,0,0,0,1.26-.46l.48-.2.6-.29c.2-.1.38-.19.56-.3l.54-.31c.17-.12.35-.22.53-.34a16.33,16.33,0,0,0,3.55-3.19l.21-.27a15.62,15.62,0,0,0,1.9-3.06c.1-.19.18-.38.26-.57a15,15,0,0,0,.81-2.42l.15-.62c0-.19.07-.38.1-.56s0-.1,0-.15a13.4,13.4,0,0,0,.18-1.79c0-.07,0-.13,0-.19s0-.39,0-.58S33.07,16.47,33.05,16.21ZM23.39,20l-.19.37-.21.35-.21.31a6.33,6.33,0,0,1-.57.71L22,22l-.3.28-.32.26-.22.16a4,4,0,0,1-.34.23l-.35.22c-.14.07-.28.15-.43.21l-.32.14a4.81,4.81,0,0,1-.53.2l-.4.11a7.07,7.07,0,0,1-8.59-5.11A7.26,7.26,0,0,1,9.94,17c0-.25,0-.5,0-.74s0-.28.06-.42a4.56,4.56,0,0,1,.13-.62c.05-.2.12-.4.19-.6a2.33,2.33,0,0,1,.11-.28,1.48,1.48,0,0,1,.12-.29,1.38,1.38,0,0,1,.14-.27,2.44,2.44,0,0,1,.14-.28l.18-.3c.06-.1.13-.19.19-.28l0,0c.07-.09.13-.18.2-.26l.18-.22c.09-.1.18-.21.28-.31l.16-.16.15-.14c.16-.14.31-.28.47-.4l.19-.14.33-.23.06,0,.33-.2.06,0,.4-.2h0a3.25,3.25,0,0,1,.43-.18l.23-.08a2.15,2.15,0,0,1,.36-.11l.24-.07.11,0a6.15,6.15,0,0,1,1.13-.16h.83l.19,0c.12,0,.24,0,.35,0a6.24,6.24,0,0,1,1.12.25l.39.13.39.16a7,7,0,0,1,2.05,1.39h0l.19.19.18.19.15.19a1.63,1.63,0,0,1,.17.2,2.29,2.29,0,0,1,.17.23c.11.16.22.32.32.5l.14.24a2.1,2.1,0,0,1,.13.26c.1.2.19.42.28.64s.07.22.11.33A7,7,0,0,1,24,16.27c0,.11,0,.22,0,.33v0c0,.11,0,.23,0,.34s0,.24,0,.35v0a4.23,4.23,0,0,1-.05.5v0l0,.24a2.84,2.84,0,0,1-.09.42l-.1.41a5.52,5.52,0,0,1-.18.53A4.87,4.87,0,0,1,23.39,20Z"/><path id="Path_162" data-name="Path 162" class="cls-3" d="M24.48,16.68a1.48,1.48,0,0,0,0-.21v0l0-.25,0-.27a7,7,0,0,0-.16-.77c0-.1-.05-.19-.08-.29s-.09-.25-.13-.38a7.55,7.55,0,0,0-.93-1.78s0,0,0,0a7.32,7.32,0,0,0-.77-.9,6.1,6.1,0,0,0-.59-.54,3.92,3.92,0,0,0-.32-.25c-.22-.16-.45-.31-.68-.45l-.37-.2L20,10.15a2.27,2.27,0,0,0-.39-.16l-.38-.14h0l-.45-.12-.45-.1a3.25,3.25,0,0,0-.45-.06l-.45-.05h-.84l-.48.05-.24,0-.4.07-.33.08a5.68,5.68,0,0,0-.7.22l-.34.13-.49.23a7.77,7.77,0,0,0-1.36.89,6,6,0,0,0-.53.48l-.49.54-.22.29-.18.25,0,.06-.18.28c-.1.17-.2.34-.29.51a7.49,7.49,0,0,0-.61,1.74c0,.13-.06.26-.08.4a3,3,0,0,0-.06.42,7.34,7.34,0,0,0-.05.81A7.49,7.49,0,0,0,17,24.48a7.85,7.85,0,0,0,1.87-.23l.4-.12h0l.39-.14.27-.11.36-.16.26-.14a3.18,3.18,0,0,0,.3-.17l.1-.05.26-.18c.17-.11.34-.24.49-.36h0a7.74,7.74,0,0,0,1.94-2.39h0c.07-.15.15-.31.22-.47l.15-.38a2.25,2.25,0,0,0,.08-.24,3.94,3.94,0,0,0,.14-.49,1.14,1.14,0,0,0,.06-.25.75.75,0,0,0,0-.16c0-.1,0-.2.05-.3s0-.3.05-.45a1.94,1.94,0,0,0,0-.24v-.1c0-.12,0-.23,0-.35S24.49,16.78,24.48,16.68Zm-1,1.74c0,.08,0,.16-.05.24a7,7,0,0,1-.26.77,6.07,6.07,0,0,1-.34.73,6.59,6.59,0,0,1-2.68,2.68l-.29.15-.29.13a2.68,2.68,0,0,1-.3.12h0l-.25.09h0A6.66,6.66,0,0,1,10.67,19a6.79,6.79,0,0,1-.31-2,6.63,6.63,0,0,1,.08-1v0a6.23,6.23,0,0,1,.22-1c.06-.19.13-.38.2-.56l.12-.27.07-.15c0-.07.07-.15.1-.21s0,0,0,0,.1-.18.16-.27.11-.18.17-.27.25-.35.38-.51l.21-.24h0l.28-.29a6.83,6.83,0,0,1,2.36-1.48,5.26,5.26,0,0,1,.6-.19l.24-.05a1,1,0,0,1,.25-.05l.22,0,.29,0,.23,0h.75l.55.05.45.07.27.07a1.83,1.83,0,0,1,.25.06l.44.14.11,0a6.7,6.7,0,0,1,3.93,4.08c0,.13.08.25.11.38a2.17,2.17,0,0,0,.07.24c.05.25.1.5.13.75l0,.24c0,.07,0,.14,0,.22s0,.2,0,.31,0,.22,0,.33a2.45,2.45,0,0,1,0,.27,1.23,1.23,0,0,1,0,.2c0,.22-.06.43-.1.64Zm1-1.74a1.48,1.48,0,0,0,0-.21v0l0-.25,0-.27a7,7,0,0,0-.16-.77c0-.1-.05-.19-.08-.29s-.09-.25-.13-.38a7.55,7.55,0,0,0-.93-1.78s0,0,0,0a7.32,7.32,0,0,0-.77-.9,6.1,6.1,0,0,0-.59-.54,3.92,3.92,0,0,0-.32-.25c-.22-.16-.45-.31-.68-.45l-.37-.2L20,10.15a2.27,2.27,0,0,0-.39-.16l-.38-.14h0l-.45-.12-.45-.1a3.25,3.25,0,0,0-.45-.06l-.45-.05h-.84l-.48.05-.24,0-.4.07-.33.08a5.68,5.68,0,0,0-.7.22l-.34.13-.49.23a7.77,7.77,0,0,0-1.36.89,6,6,0,0,0-.53.48l-.49.54-.22.29-.18.25,0,.06-.18.28c-.1.17-.2.34-.29.51a7.49,7.49,0,0,0-.61,1.74c0,.13-.06.26-.08.4a3,3,0,0,0-.06.42,7.34,7.34,0,0,0-.05.81A7.49,7.49,0,0,0,17,24.48a7.85,7.85,0,0,0,1.87-.23l.4-.12h0l.39-.14.27-.11.36-.16.26-.14a3.18,3.18,0,0,0,.3-.17l.1-.05.26-.18c.17-.11.34-.24.49-.36h0a7.74,7.74,0,0,0,1.94-2.39h0c.07-.15.15-.31.22-.47l.15-.38a2.25,2.25,0,0,0,.08-.24,3.94,3.94,0,0,0,.14-.49,1.14,1.14,0,0,0,.06-.25.75.75,0,0,0,0-.16c0-.1,0-.2.05-.3s0-.3.05-.45a1.94,1.94,0,0,0,0-.24v-.1c0-.12,0-.23,0-.35S24.49,16.78,24.48,16.68Zm-1,1.74c0,.08,0,.16-.05.24a7,7,0,0,1-.26.77,6.07,6.07,0,0,1-.34.73,6.59,6.59,0,0,1-2.68,2.68l-.29.15-.29.13a2.68,2.68,0,0,1-.3.12h0l-.25.09h0A6.66,6.66,0,0,1,10.67,19a6.79,6.79,0,0,1-.31-2,6.63,6.63,0,0,1,.08-1v0a6.23,6.23,0,0,1,.22-1c.06-.19.13-.38.2-.56l.12-.27.07-.15c0-.07.07-.15.1-.21s0,0,0,0,.1-.18.16-.27.11-.18.17-.27.25-.35.38-.51l.21-.24h0l.28-.29a6.83,6.83,0,0,1,2.36-1.48,5.26,5.26,0,0,1,.6-.19l.24-.05a1,1,0,0,1,.25-.05l.22,0,.29,0,.23,0h.75l.55.05.45.07.27.07a1.83,1.83,0,0,1,.25.06l.44.14.11,0a6.7,6.7,0,0,1,3.93,4.08c0,.13.08.25.11.38a2.17,2.17,0,0,0,.07.24c.05.25.1.5.13.75l0,.24c0,.07,0,.14,0,.22s0,.2,0,.31,0,.22,0,.33a2.45,2.45,0,0,1,0,.27,1.23,1.23,0,0,1,0,.2c0,.22-.06.43-.1.64Zm10-2.06h0l0-.57a.28.28,0,0,0,0-.09q0-.3-.06-.6c0-.23-.06-.45-.09-.68a16.31,16.31,0,0,0-3.87-8.25L29,5.67s0,0,0,0l-.38-.39-.46-.44-.46-.4-.39-.32c-.15-.12-.3-.24-.46-.35l-.24-.17-.32-.23-.34-.22-.68-.41-.34-.2-.72-.37c-.36-.17-.72-.33-1.1-.48l-.22-.08-.11,0-.37-.14-.07,0-.76-.23L21.22,1,20.73.92l-.13,0-.49-.1L19.8.74a4.67,4.67,0,0,0-.52-.08.84.84,0,0,0-.18,0L18.49.56,17.75.51H17l-.92,0-.35,0c-.12,0-.23,0-.34,0l-.49.05-.3,0-.22,0-.71.13-.8.19A16.57,16.57,0,0,0,1.54,11.22c-.06.16-.12.32-.17.49s-.17.51-.24.77-.2.74-.28,1.12-.09.46-.13.7A16.5,16.5,0,0,0,22,32.74l.07,0,.07,0,.44-.14c.42-.15.84-.32,1.25-.51l.36-.17.82-.41A16.65,16.65,0,0,0,32.73,22h0c.08-.29.17-.58.24-.87a15.19,15.19,0,0,0,.32-1.49c0-.19.06-.37.08-.56s0-.09,0-.13a5.32,5.32,0,0,0,.06-.56,1.09,1.09,0,0,0,0-.18,4,4,0,0,0,0-.49v-.13c0-.2,0-.41,0-.61s0-.42,0-.63Zm-.83,1.22v.1c0,.17,0,.34,0,.52v0c0,.18,0,.36-.05.54s0,.4-.09.6a2.32,2.32,0,0,1-.06.38,6.57,6.57,0,0,1-.16.77,2.49,2.49,0,0,1-.09.37c0,.12-.06.25-.1.38s-.16.54-.25.81v0a15.77,15.77,0,0,1-8,9l-.4.19-.35.15a7.49,7.49,0,0,1-.71.28l-.21.07-.4.14c-.13,0-.26.09-.4.12a15.66,15.66,0,0,1-20-15,17.12,17.12,0,0,1,.14-2.15c0-.14.05-.28.07-.41s.05-.28.07-.41,0,0,0,0c0-.18.07-.35.11-.52h0a3.38,3.38,0,0,1,.08-.34l0-.07c.1-.36.2-.72.32-1.07A15.74,15.74,0,0,1,14,1.62l.65-.11.64-.08.54-.05.78,0h.84l.39,0,.4,0c.27,0,.54,0,.8.08l.33.05a7.56,7.56,0,0,1,.83.14l.36.08.65.16.84.26.06,0,.39.15.39.15h0l.23.1c.12,0,.23.1.35.15l.67.32c.23.12.46.24.68.37l.64.39.32.21.3.21c.28.2.55.41.82.62l.37.32.07.06.43.39c.14.13.28.26.41.4.3.31.59.63.86,1a15.54,15.54,0,0,1,3.46,7.58l.09.67c0,.18,0,.38,0,.57h0a5.88,5.88,0,0,1,0,.6c0,.2,0,.39,0,.59Zm-8.19-1.11v0l0-.25a2.51,2.51,0,0,1,0-.27,7,7,0,0,0-.16-.77c0-.1-.05-.19-.08-.29s-.09-.25-.13-.38a7.55,7.55,0,0,0-.93-1.78s0,0,0,0a7.32,7.32,0,0,0-.77-.9,6.1,6.1,0,0,0-.59-.54,3.92,3.92,0,0,0-.32-.25,8,8,0,0,0-.68-.45l-.37-.2L20,10.15a2.54,2.54,0,0,0-.38-.16l-.39-.14h0l-.45-.12-.45-.1a3.25,3.25,0,0,0-.45-.06l-.45-.05h-.84l-.48.05-.24,0-.4.07-.33.08a5.68,5.68,0,0,0-.7.22l-.34.13-.49.23a8.16,8.16,0,0,0-1.36.89,6,6,0,0,0-.53.48l-.49.54-.22.29-.18.25,0,.06-.18.28c-.1.17-.2.34-.28.51a7.08,7.08,0,0,0-.62,1.74c0,.13-.06.26-.08.4s-.05.28-.06.42a7.32,7.32,0,0,0,0,.81A7.48,7.48,0,0,0,17,24.48a7.85,7.85,0,0,0,1.87-.23l.4-.12h0l.39-.14a2.18,2.18,0,0,0,.27-.11l.37-.16.25-.14a3.18,3.18,0,0,0,.3-.17l.1-.05.26-.18c.17-.11.34-.24.5-.36h0a7.74,7.74,0,0,0,1.94-2.39h0c.07-.15.15-.31.22-.47l.15-.38a2.25,2.25,0,0,0,.08-.24c.06-.16.1-.32.15-.49a2.21,2.21,0,0,0,.05-.25.75.75,0,0,0,0-.16c0-.1,0-.2.05-.3s0-.3.05-.45a1.94,1.94,0,0,0,0-.24v-.1c0-.12,0-.23,0-.35s0-.22,0-.32a1.48,1.48,0,0,0,0-.21Zm-1,2c0,.08,0,.16-.05.24a7,7,0,0,1-.26.77,6.07,6.07,0,0,1-.34.73,6.59,6.59,0,0,1-2.68,2.68l-.29.15-.29.13a2.68,2.68,0,0,1-.3.12h0l-.25.09h0A6.66,6.66,0,0,1,10.67,19a6.79,6.79,0,0,1-.31-2,6.63,6.63,0,0,1,.08-1v0a6.23,6.23,0,0,1,.22-1c.06-.19.13-.38.2-.56l.12-.27.07-.15c0-.07.07-.15.1-.21s0,0,0,0,.1-.18.16-.27.11-.18.17-.27.25-.35.38-.51l.21-.24h0l.28-.29a6.83,6.83,0,0,1,2.36-1.48,5.26,5.26,0,0,1,.6-.19l.24-.05a1,1,0,0,1,.25-.05l.22,0,.29,0,.23,0h.75l.55.05.45.07.27.07a1.83,1.83,0,0,1,.25.06l.44.14.11,0a6.7,6.7,0,0,1,3.93,4.08c0,.13.08.25.11.38a2.17,2.17,0,0,0,.07.24c.05.25.1.5.13.75l0,.24c0,.07,0,.14,0,.22s0,.2,0,.31,0,.22,0,.33a2.45,2.45,0,0,1,0,.27,1.23,1.23,0,0,1,0,.2c0,.22-.06.43-.1.64Zm1-1.74a1.48,1.48,0,0,0,0-.21v0l0-.25,0-.27a7,7,0,0,0-.16-.77c0-.1-.05-.19-.08-.29s-.09-.25-.13-.38a7.55,7.55,0,0,0-.93-1.78s0,0,0,0a7.32,7.32,0,0,0-.77-.9,6.1,6.1,0,0,0-.59-.54,3.92,3.92,0,0,0-.32-.25c-.22-.16-.45-.31-.68-.45l-.37-.2L20,10.15a2.27,2.27,0,0,0-.39-.16l-.38-.14h0l-.45-.12-.45-.1a3.25,3.25,0,0,0-.45-.06l-.45-.05h-.84l-.48.05-.24,0-.4.07-.33.08a5.68,5.68,0,0,0-.7.22l-.34.13-.49.23a7.77,7.77,0,0,0-1.36.89,6,6,0,0,0-.53.48l-.49.54-.22.29-.18.25,0,.06-.18.28c-.1.17-.2.34-.29.51a7.49,7.49,0,0,0-.61,1.74c0,.13-.06.26-.08.4a3,3,0,0,0-.06.42,7.34,7.34,0,0,0-.05.81A7.49,7.49,0,0,0,17,24.48a7.85,7.85,0,0,0,1.87-.23l.4-.12h0l.39-.14.27-.11.36-.16.26-.14a3.18,3.18,0,0,0,.3-.17l.1-.05.26-.18c.17-.11.34-.24.49-.36h0a7.74,7.74,0,0,0,1.94-2.39h0c.07-.15.15-.31.22-.47l.15-.38a2.25,2.25,0,0,0,.08-.24,3.94,3.94,0,0,0,.14-.49,1.14,1.14,0,0,0,.06-.25.75.75,0,0,0,0-.16c0-.1,0-.2.05-.3s0-.3.05-.45a1.94,1.94,0,0,0,0-.24v-.1c0-.12,0-.23,0-.35S24.49,16.78,24.48,16.68Zm-1,1.74c0,.08,0,.16-.05.24a7,7,0,0,1-.26.77,6.07,6.07,0,0,1-.34.73,6.59,6.59,0,0,1-2.68,2.68l-.29.15-.29.13a2.68,2.68,0,0,1-.3.12h0l-.25.09h0A6.66,6.66,0,0,1,10.67,19a6.79,6.79,0,0,1-.31-2,6.63,6.63,0,0,1,.08-1v0a6.23,6.23,0,0,1,.22-1c.06-.19.13-.38.2-.56l.12-.27.07-.15c0-.07.07-.15.1-.21s0,0,0,0,.1-.18.16-.27.11-.18.17-.27.25-.35.38-.51l.21-.24h0l.28-.29a6.83,6.83,0,0,1,2.36-1.48,5.26,5.26,0,0,1,.6-.19l.24-.05a1,1,0,0,1,.25-.05l.22,0,.29,0,.23,0h.75l.55.05.45.07.27.07a1.83,1.83,0,0,1,.25.06l.44.14.11,0a6.7,6.7,0,0,1,3.93,4.08c0,.13.08.25.11.38a2.17,2.17,0,0,0,.07.24c.05.25.1.5.13.75l0,.24c0,.07,0,.14,0,.22s0,.2,0,.31,0,.22,0,.33a2.45,2.45,0,0,1,0,.27,1.23,1.23,0,0,1,0,.2c0,.22-.06.43-.1.64Zm1-1.74a1.48,1.48,0,0,0,0-.21v0l0-.25,0-.27a7,7,0,0,0-.16-.77c0-.1-.05-.19-.08-.29s-.09-.25-.13-.38a7.55,7.55,0,0,0-.93-1.78s0,0,0,0a7.32,7.32,0,0,0-.77-.9,6.1,6.1,0,0,0-.59-.54,3.92,3.92,0,0,0-.32-.25c-.22-.16-.45-.31-.68-.45l-.37-.2L20,10.15a2.27,2.27,0,0,0-.39-.16l-.38-.14h0l-.45-.12-.45-.1a3.25,3.25,0,0,0-.45-.06l-.45-.05h-.84l-.48.05-.24,0-.4.07-.33.08a5.68,5.68,0,0,0-.7.22l-.34.13-.49.23a7.77,7.77,0,0,0-1.36.89,6,6,0,0,0-.53.48l-.49.54-.22.29-.18.25,0,.06-.18.28c-.1.17-.2.34-.29.51a7.49,7.49,0,0,0-.61,1.74c0,.13-.06.26-.08.4a3,3,0,0,0-.06.42,7.34,7.34,0,0,0-.05.81A7.49,7.49,0,0,0,17,24.48a7.85,7.85,0,0,0,1.87-.23l.4-.12h0l.39-.14.27-.11.36-.16.26-.14a3.18,3.18,0,0,0,.3-.17l.1-.05.26-.18c.17-.11.34-.24.49-.36h0a7.74,7.74,0,0,0,1.94-2.39h0c.07-.15.15-.31.22-.47l.15-.38a2.25,2.25,0,0,0,.08-.24,3.94,3.94,0,0,0,.14-.49,1.14,1.14,0,0,0,.06-.25.75.75,0,0,0,0-.16c0-.1,0-.2.05-.3s0-.3.05-.45a1.94,1.94,0,0,0,0-.24v-.1c0-.12,0-.23,0-.35S24.49,16.78,24.48,16.68Zm-1,1.74c0,.08,0,.16-.05.24a7,7,0,0,1-.26.77,6.07,6.07,0,0,1-.34.73,6.59,6.59,0,0,1-2.68,2.68l-.29.15-.29.13a2.68,2.68,0,0,1-.3.12h0l-.25.09h0A6.66,6.66,0,0,1,10.67,19a6.79,6.79,0,0,1-.31-2,6.63,6.63,0,0,1,.08-1v0a6.23,6.23,0,0,1,.22-1c.06-.19.13-.38.2-.56l.12-.27.07-.15c0-.07.07-.15.1-.21s0,0,0,0,.1-.18.16-.27.11-.18.17-.27.25-.35.38-.51l.21-.24h0l.28-.29a6.83,6.83,0,0,1,2.36-1.48,5.26,5.26,0,0,1,.6-.19l.24-.05a1,1,0,0,1,.25-.05l.22,0,.29,0,.23,0h.75l.55.05.45.07.27.07a1.83,1.83,0,0,1,.25.06l.44.14.11,0a6.7,6.7,0,0,1,3.93,4.08c0,.13.08.25.11.38a2.17,2.17,0,0,0,.07.24c.05.25.1.5.13.75l0,.24c0,.07,0,.14,0,.22s0,.2,0,.31,0,.22,0,.33a2.45,2.45,0,0,1,0,.27,1.23,1.23,0,0,1,0,.2c0,.22-.06.43-.1.64Z"/></g><g id="Group_196" data-name="Group 196"><path id="Path_163" data-name="Path 163" class="cls-4" d="M33.07,17A16.06,16.06,0,0,0,22.34,2L19.11,10.4a7,7,0,0,1-.32,13.32l2.81,8.57A16.1,16.1,0,0,0,33.07,17Z"/><path id="Path_164" data-name="Path 164" class="cls-3" d="M21.42,22.81a7.23,7.23,0,0,0,2-2.38A7.57,7.57,0,0,1,21.42,22.81ZM27.09,4.09l-.47-.35-.25-.17L26,3.34l-.34-.21c-.23-.15-.47-.28-.7-.42l-.36-.2c-.24-.12-.48-.25-.73-.36a11.26,11.26,0,0,0-1.13-.48,2.52,2.52,0,0,0-.29-.12h0s0,0,0,0a.39.39,0,0,0-.28,0,.45.45,0,0,0-.22.23h0l-.15.39h0L19.2,9l-.34.9h0l-.15.38h0a.4.4,0,0,0,.2.49l.06,0h0a6.77,6.77,0,0,1,4.06,4.08l.12.37.06.24a6.54,6.54,0,0,1,.13.75l0,.24c0,.07,0,.14,0,.21s0,.2,0,.31,0,.22,0,.34a2.11,2.11,0,0,1,0,.26,1.23,1.23,0,0,1,0,.2,6.17,6.17,0,0,1-.11.62,2,2,0,0,1-.05.24,6.68,6.68,0,0,1-.61,1.5,6.67,6.67,0,0,1-2.75,2.67,2.1,2.1,0,0,1-.3.15,1.94,1.94,0,0,1-.3.13,1.66,1.66,0,0,1-.31.12h0l-.26.09h0a.37.37,0,0,0-.24.2.37.37,0,0,0,0,.31h0l.12.39L21.07,32l.13.4h0a.43.43,0,0,0,.41.29h.13l.08,0,.44-.15c.44-.15.87-.31,1.29-.5l.37-.17q.42-.2.84-.42a16.37,16.37,0,0,0,8-9.41h0c.09-.29.18-.58.26-.87a15.19,15.19,0,0,0,.32-1.49c0-.18.06-.37.08-.56a.51.51,0,0,0,0-.13c0-.18,0-.37,0-.55a1.11,1.11,0,0,0,0-.19l0-.49v-.12c0-.2,0-.41,0-.61s0-.39,0-.6h0l0-.58s0,0,0-.08c0-.2,0-.4-.06-.6s-.06-.45-.1-.68a16.35,16.35,0,0,0-4-8.24l-.45-.49,0-.05-.4-.39L28,4.81m4.68,12.77v.1a4.41,4.41,0,0,1,0,.52v.05c0,.18,0,.36-.05.54s0,.4-.09.6a2.38,2.38,0,0,1-.06.37,6.57,6.57,0,0,1-.16.77,2.49,2.49,0,0,1-.09.37c0,.13-.07.25-.1.38s-.17.54-.26.81v0a15.69,15.69,0,0,1-8.18,9l-.41.19-.35.15c-.24.1-.48.2-.73.28l-.22.07h0L19.33,24l.28-.1.37-.17.26-.14.3-.16.1-.06.27-.17c.18-.12.35-.24.51-.37h0a7.23,7.23,0,0,0,2-2.38h0a4.09,4.09,0,0,0,.23-.47c.06-.12.11-.25.16-.38a2.25,2.25,0,0,0,.08-.24c.06-.16.1-.32.15-.49l.06-.25,0-.16c0-.1,0-.2.05-.3a3.47,3.47,0,0,0,.06-.45,1.94,1.94,0,0,0,0-.24v-.1c0-.11,0-.23,0-.35s0-.21,0-.32a1.48,1.48,0,0,0,0-.21v0l0-.25a2.51,2.51,0,0,0,0-.27,6.57,6.57,0,0,0-.16-.77c0-.1-.05-.19-.08-.29s-.09-.25-.13-.38a7.66,7.66,0,0,0-1-1.78v0a8.39,8.39,0,0,0-.78-.9,7.84,7.84,0,0,0-.61-.54L21.11,11a7.42,7.42,0,0,0-.7-.44l-.38-.2a3.17,3.17,0,0,0-.38-.17h0l2.93-7.66h0l.24.1.36.15c.23.1.47.21.7.33s.46.23.69.36.44.26.66.39l.32.21.31.21c.29.2.57.41.84.62l.38.32.07.06.44.39a5.33,5.33,0,0,1,.42.4c.31.31.61.63.89,1a15.56,15.56,0,0,1,3.55,7.57l.09.66c0,.19,0,.39.05.57v0c0,.2,0,.39,0,.59s0,.39,0,.59,0,.38,0,.57ZM21.42,22.81a7.23,7.23,0,0,0,2-2.38A7.57,7.57,0,0,1,21.42,22.81Z"/></g><g id="Group_197" data-name="Group 197"><path id="Path_165" data-name="Path 165" class="cls-5" d="M1.16,14.73l9.13,1.51a7.24,7.24,0,0,1,7.14-6.06V.93A16.49,16.49,0,0,0,1.16,14.73Z"/><path id="Path_166" data-name="Path 166" class="cls-3" d="M14.79,10.22a6.67,6.67,0,0,1,.72-.23A6.67,6.67,0,0,0,14.79,10.22Zm-.85.37a7.24,7.24,0,0,0-1.39.91,8.12,8.12,0,0,1,1.39-.91ZM17.43.51c-.32,0-.63,0-.94,0l-.36,0-.35,0-.5.05-.3,0-.22,0L14,.85,13.21,1A16.77,16.77,0,0,0,1.58,11.5,5.17,5.17,0,0,0,1.4,12c-.09.26-.17.52-.25.79S1,13.56.87,14c-.05.23-.1.47-.13.71a.42.42,0,0,0,.35.49h0l.42.07L9.79,16.6l.42.07h.07a.44.44,0,0,0,.25-.08.4.4,0,0,0,.15-.19h0a.24.24,0,0,0,0-.08,6.91,6.91,0,0,1,.21-.9,5.71,5.71,0,0,1,.21-.58l.12-.27a.8.8,0,0,1,.08-.16,2.14,2.14,0,0,1,.1-.22h0a2.54,2.54,0,0,1,.16-.28l.18-.28a6.41,6.41,0,0,1,.39-.52,2.62,2.62,0,0,1,.22-.25h0a3.83,3.83,0,0,1,.28-.29A6.45,6.45,0,0,1,15.08,11a4.31,4.31,0,0,1,.61-.19,1.14,1.14,0,0,1,.25-.06l.25-.06.23,0,.3,0,.24,0,.46,0a.43.43,0,0,0,.43-.41V.93A.42.42,0,0,0,17.43.51ZM17,9.76l-.49,0-.25,0-.41.07-.34.08a6.67,6.67,0,0,0-.72.23l-.35.13c-.17.08-.34.15-.5.24a7.24,7.24,0,0,0-1.39.91A6.52,6.52,0,0,0,12,12c-.17.17-.34.36-.5.55s-.15.19-.23.29l-.19.26,0,.06-.18.29c-.1.17-.2.35-.29.53a7.94,7.94,0,0,0-.63,1.77h0L1.65,14.38s0,0,0,0l.12-.54s0,0,0,0,.05-.23.08-.35v-.06c.1-.37.21-.74.34-1.1A16,16,0,0,1,14.32,1.66L15,1.55c.21,0,.43-.07.65-.09l.55-.05.81,0Zm-3.06.83a7.24,7.24,0,0,0-1.39.91,8.12,8.12,0,0,1,1.39-.91Zm.85-.37c.24-.09.48-.16.72-.23a6.67,6.67,0,0,0-.72.23Z"/></g><g id="Group_198" data-name="Group 198"><path id="Path_167" data-name="Path 167" class="cls-6" d="M19.44,10.64,22.68,2a16.49,16.49,0,0,0-5.77-1v9.25A7.26,7.26,0,0,1,19.44,10.64Z"/><path id="Path_168" data-name="Path 168" class="cls-3" d="M22.89,1.6a.09.09,0,0,0-.06,0h0l-.41-.15-.08,0-.77-.23-.3-.09L20.73.94l-.13,0-.5-.1L19.78.75,19.26.67l-.19,0L18.44.58c-.26,0-.5,0-.76-.06h-.76a.42.42,0,0,0-.43.42h0v9.25a.44.44,0,0,0,.43.42h.3l.57,0,.46.08.28.06.26.07.51.18h.05l.1,0a.58.58,0,0,0,.18,0,.45.45,0,0,0,.22-.23h0L20,10.4h0l2.93-7.86h0l.15-.4h0A.43.43,0,0,0,22.89,1.6Zm-3.7,8.5h0L18.74,10l-.46-.1a3.65,3.65,0,0,0-.46-.07l-.47-.05V1.36l.39,0,.41,0c.28,0,.56.05.83.09l.34.05c.29,0,.57.09.85.15l.37.08c.22.05.44.1.66.17s.58.16.87.26l.06,0h0l-2.6,7Z"/></g></svg>