<svg data-name="Layer 1" xmlns="http://www.w3.org/2000/svg" viewBox="0 0 13.34 19.81"><defs><style>.cls-1{fill:#3f51b5;}</style></defs><path class="cls-1" d="M13.62,1A.58.58,0,0,0,13,.42H.86a.58.58,0,1,0,0,1.15H4.35A4.65,4.65,0,0,1,9,5.6H.86a.58.58,0,0,0,0,1.15H9a4.66,4.66,0,0,1-4.61,4.09H.86a.59.59,0,0,0-.54.36.6.6,0,0,0,.14.64l8.71,8.23a.58.58,0,1,0,.79-.85L2.31,12h2a5.81,5.81,0,0,0,5.77-5.24H13A.58.58,0,1,0,13,5.6H10.12a5.79,5.79,0,0,0-2.31-4H13A.58.58,0,0,0,13.62,1Z" transform="translate(-0.28 -0.42)"/></svg>