<svg id="Layer_2" data-name="Layer 2" xmlns="http://www.w3.org/2000/svg" viewBox="0 0 34 34"><defs><style>.cls-1{fill:#fff;opacity:0;}.cls-2{fill:#2cd9c5;}.cls-3{fill:#826af9;}.cls-4{fill:#e5e5e5;}</style></defs><title>op</title><rect class="cls-1" width="34" height="34"/><path id="Path_148" data-name="Path 148" class="cls-2" d="M33,16.61H24.45c0,.14,0,.28,0,.42h-.4c0,.14,0,.28,0,.41A7.06,7.06,0,1,1,10,16.62a7,7,0,0,1,1.77-4.28A4.11,4.11,0,0,1,12,12l-.3-.29c.17-.17.35-.33.53-.49l-.23.2L5.92,5.35l-.29.28-.29.3A16.07,16.07,0,1,0,33.05,17.42V17C33.05,16.87,33.05,16.74,33,16.61Z"/><path id="Path_153" data-name="Path 153" class="cls-3" d="M32.64,16.66H24.42c0-.11,0-.22,0-.32v0c0-.25-.06-.5-.11-.75s-.05-.24-.09-.36-.06-.23-.1-.36A3.4,3.4,0,0,0,24,14.5h0a3.42,3.42,0,0,0-.13-.34l-.15-.34a3.24,3.24,0,0,0-.17-.32c-.06-.11-.11-.21-.18-.32s-.13-.2-.19-.3-.28-.38-.42-.56l0,0-.1-.11-.1-.12h0c-.08-.1-.18-.2-.28-.31l-.3-.29h0l-.26-.22a6.83,6.83,0,0,0-1.1-.74,5.39,5.39,0,0,0-.8-.39,6.91,6.91,0,0,0-1.29-.4l-.42-.08-.31,0h-.3l-.18,0h-.7a.55.55,0,0,0-.18,0h-.3l-.31,0-.42.08a7.14,7.14,0,0,0-1.29.4,5.91,5.91,0,0,0-.8.39,6.74,6.74,0,0,0-1.09.74l0,0-.23.2L6.12,5.67l.24-.23.57-.5.38-.3.34-.26c.15-.11.3-.22.46-.32l.42-.28L9,3.47l.27-.15.26-.14L10,3l.24-.11c.18-.09.35-.17.53-.24l.29-.12.28-.11.1,0s0,0,0,0,0,0,0,0h0l.05,0h0l.07,0,.4-.14.1,0h.05l.1,0,.56-.16.41-.11.48-.1c.24-.06.49-.1.74-.14l.42-.05.34,0a8.12,8.12,0,0,1,.85-.07h.81a15.81,15.81,0,0,1,1.69.09l.31,0q.41,0,.78.12l.39.07c.36.07.72.16,1.08.26l.53.16.52.18c.26.09.51.19.77.3l.37.16.18.08.1.05.08,0h0l.48.25h0l.08.05.06,0,.23.12,0,0,.23.13s0,0,0,0l.06,0,.15.1.33.2.05,0h0l.06,0c.17.11.35.23.52.36l.41.3.06,0,.2.16.06,0,.36.31.08.07.47.42L28,6l.3.3a15.79,15.79,0,0,1,4,7.77c0,.2.08.4.1.6s.07.45.1.67l0,.35c0,.18,0,.37,0,.55S32.63,16.51,32.64,16.66Z"/><path class="cls-4" d="M33.5,17.07c0-.45,0-.9-.06-1.35s-.09-.88-.16-1.32h0c0-.22-.07-.44-.11-.65,0,0,0,0,0-.08-.06-.27-.12-.53-.19-.8s-.19-.71-.3-1.05h0c0-.15-.1-.3-.16-.45s-.22-.6-.35-.89a16.62,16.62,0,0,0-3.42-5.06l-.15-.15A16.61,16.61,0,0,0,23.41,1.8L23,1.64l-.42-.16-.46-.16-.49-.15c-.17-.06-.35-.1-.53-.15l-.4-.1-.4-.09-.7-.12A16.6,16.6,0,0,0,15.7.55h-.1c-.39,0-.79.08-1.19.14l-.73.13-.4.09-.08,0q-.69.17-1.35.39l-.42.14-1,.41L10,2c-.39.18-.76.38-1.13.59L8.25,3l-.45.3A16.49,16.49,0,1,0,33.48,17.19a.43.43,0,0,0,0-.11ZM10.35,17a6.67,6.67,0,0,1,1.85-4.6l.09-.06a6.29,6.29,0,0,1,.47-.43,4.91,4.91,0,0,1,.51-.39l.25-.16.3-.17a1.51,1.51,0,0,1,.28-.15,6,6,0,0,1,1.16-.43l.1,0,.32-.07a6.69,6.69,0,0,1,2.6,0l.32.07.1,0,.43.13a3.83,3.83,0,0,1,.43.17,4.3,4.3,0,0,1,.57.28,5.82,5.82,0,0,1,1.06.72,5.74,5.74,0,0,1,.45.41v0a4.91,4.91,0,0,1,.43.48,2.88,2.88,0,0,1,.22.27,5.74,5.74,0,0,1,.43.66,6.67,6.67,0,0,1,.35.71,6.83,6.83,0,0,1,.32.93c0,.11.05.22.07.33a6.7,6.7,0,0,1,.14,1.34.43.43,0,0,0,0,.11A6.64,6.64,0,0,1,10.35,17Zm14.12-.36c0-.1,0-.21,0-.32v0q0-.37-.12-.75c0-.12,0-.24-.08-.36s-.06-.24-.1-.36L24,14.49c-.05-.12-.09-.23-.14-.34a2.52,2.52,0,0,0-.15-.34c0-.11-.11-.22-.16-.32a3.37,3.37,0,0,0-.19-.32c-.06-.1-.12-.2-.19-.3s-.27-.38-.42-.56v0l-.1-.11-.1-.11c-.09-.11-.19-.21-.29-.31l-.3-.29-.26-.23a7.46,7.46,0,0,0-1.09-.74,7.33,7.33,0,0,0-.8-.38,6.63,6.63,0,0,0-1.29-.4l-.42-.08-.31,0h-.08l-.22,0H16.45l-.23,0h-.08l-.31,0-.42.08a6.63,6.63,0,0,0-1.29.4,8.34,8.34,0,0,0-.8.38,8,8,0,0,0-1.09.74l0,0-.2.19L6.24,5.66l.25-.23.56-.5.38-.3.33-.25a4.84,4.84,0,0,1,.46-.33,4.94,4.94,0,0,1,.42-.27c.17-.11.34-.22.51-.31l.26-.15a12,12,0,0,1,1.48-.73l.28-.12.05,0,.09,0,.13,0,.07,0h0s0,0,0,0h0l.05,0h0l.07,0a2.67,2.67,0,0,1,.4-.13h0l.06,0h.06l.1,0L13,1.89l.41-.1.48-.1c.24-.06.48-.1.74-.14L15,1.5l.34,0a8.12,8.12,0,0,1,.85-.07H17a15.76,15.76,0,0,1,1.68.09l.31,0c.26,0,.52.07.77.12l.38.07c.37.07.73.16,1.08.26l.53.16.52.17c.26.09.51.19.77.3a4,4,0,0,1,.37.17l.18.08.1,0,.08,0h0l.44.22h0l0,0,.08,0,0,0,.09,0,.14.08,0,0,.23.13,0,0,.06,0a14.19,14.19,0,0,1,2.74,2.09L28,6l.3.29h0a15.74,15.74,0,0,1,4,7.74c0,.2.07.4.1.6l.09.68,0,.35c0,.18,0,.36,0,.54s0,.3,0,.44v0Zm-7.89,16A15.66,15.66,0,0,1,5.63,6.24h0l5.76,5.8A7.45,7.45,0,0,0,9.52,16.7h0a7.48,7.48,0,0,0,14.94.78h8.18A15.66,15.66,0,0,1,16.58,32.67Z"/></svg>