<svg xmlns="http://www.w3.org/2000/svg" viewBox="0 0 512 512"><title>extend</title><rect width="512" height="512" style="fill:#fff;opacity:0"/><path d="M433.72,255.69H418.24a7.74,7.74,0,0,0-7.74,7.74V456.94A15.48,15.48,0,0,1,395,472.42H54.44A15.48,15.48,0,0,1,39,456.94V116.36a15.48,15.48,0,0,1,15.48-15.48H247.95a7.74,7.74,0,0,0,7.74-7.74V77.66a7.74,7.74,0,0,0-7.74-7.74H54.44A46.44,46.44,0,0,0,8,116.36V456.94a46.44,46.44,0,0,0,46.44,46.44H395a46.44,46.44,0,0,0,46.44-46.44h0V263.43A7.74,7.74,0,0,0,433.72,255.69ZM472.42,8h-.06l-93,.16C351.79,8.16,338,41.58,357.47,61l34.13,34.13-256.4,256.4a11.61,11.61,0,0,0,0,16.42l0,0,8.21,8.21a11.61,11.61,0,0,0,16.42,0l0,0L416.27,119.81l34.13,34.13c19.35,19.35,52.8,5.81,52.85-21.84L503.38,39A31,31,0,0,0,472.47,8Zm-.16,124L379.37,39.13l93-.16Z"/></svg>