<?xml version="1.0" encoding="utf-8"?>
<!-- Generator: Adobe Illustrator 23.0.5, SVG Export Plug-In . SVG Version: 6.00 Build 0)  -->
<svg version="1.1" id="Layer_1" xmlns="http://www.w3.org/2000/svg" xmlns:xlink="http://www.w3.org/1999/xlink" x="0px" y="0px"
	 viewBox="0 0 640 448" style="enable-background:new 0 0 640 448;" xml:space="preserve">
<title>patients</title>
<path d="M544,192c44.2,0,80-35.8,80-80s-35.8-80-80-80s-80,35.8-80,80S499.8,192,544,192z M544,64c26.5,0,48,21.5,48,48
	s-21.5,48-48,48s-48-21.5-48-48S517.5,64,544,64z M320,224c61.9,0,112-50.1,112-112S381.9,0,320,0S208,50.1,208,112
	c0,61.8,50.1,112,111.9,112C319.9,224,320,224,320,224z M320,32c44.2,0,80,35.8,80,80s-35.8,80-80,80s-80-35.8-80-80
	C240.1,67.8,275.8,32.1,320,32z M564,224h-40c-14.7,0-29,4.5-41.1,12.9c9.4,6.4,17.9,13.9,25.4,22.4c5-2.2,10.3-3.3,15.7-3.3h40
	c24.2,0,44,21.5,44,48c0,8.8,7.2,16,16,16s16-7.2,16-16C640,259.9,605.9,224,564,224z M96,192c44.2,0,80-35.8,80-80s-35.8-80-80-80
	s-80,35.8-80,80S51.8,192,96,192z M96,64c26.5,0,48,21.5,48,48s-21.5,48-48,48s-48-21.5-48-48S69.5,64,96,64z M400.1,244
	c-33.4,0-41.7,12-80.1,12s-46.7-12-80.1-12c-36.3,0-71.6,16.2-92.3,46.9c-12.8,19-19.6,41.4-19.6,64.3V400c0,26.5,21.5,48,48,48h288
	c26.5,0,48-21.5,48-48v-44.8c0-22.9-6.8-45.3-19.6-64.3C471.7,260.2,436.4,244,400.1,244L400.1,244z M480,400c0,8.8-7.2,16-16,16
	H176c-8.8,0-16-7.2-16-16v-44.8c0-16.5,4.9-32.7,14.1-46.4c13.8-20.5,38.4-32.8,65.7-32.8s37.2,12,80.2,12s52.8-12,80.1-12
	s51.9,12.3,65.7,32.8c9.2,13.7,14.1,29.9,14.1,46.4V400H480z M157.1,236.9c-12.1-8.3-26.4-12.8-41.1-12.9H76c-41.9,0-76,35.9-76,80
	c0,8.8,7.2,16,16,16s16-7.2,16-16c0-26.5,19.8-48,44-48h40c5.4,0,10.7,1.1,15.7,3.3C139.2,250.8,147.8,243.3,157.1,236.9
	L157.1,236.9z"/>
<path d="M443.1,336.7h-37.8v-37.8c0-0.5-0.4-0.8-0.8-0.8h-29c-0.5,0-0.8,0.4-0.8,0.8v37.8h-37.8c-0.5,0-0.8,0.4-0.8,0.8v29
	c0,0.5,0.4,0.8,0.8,0.8h37.8v37.8c0,0.5,0.4,0.8,0.8,0.8h29c0.5,0,0.8-0.4,0.8-0.8v-37.8h37.8c0.5,0,0.8-0.4,0.8-0.8v-29
	C444,337,443.6,336.7,443.1,336.7C443.1,336.7,443.1,336.7,443.1,336.7z"/>
<path d="M593,321.9h-22.5v-22.4c0-0.3-0.2-0.5-0.5-0.5c0,0,0,0,0,0h-17.1c-0.3,0-0.5,0.2-0.5,0.5v22.4h-22.4c-0.3,0-0.5,0.2-0.5,0.5
	v17.2c0,0.3,0.2,0.5,0.5,0.5c0,0,0,0,0,0h22.4v22.4c0,0.3,0.2,0.5,0.5,0.5H570c0.3,0,0.5-0.2,0.5-0.5v-22.4H593
	c0.3,0,0.5-0.2,0.5-0.5c0,0,0,0,0,0v-17.2C593.5,322.1,593.3,321.9,593,321.9L593,321.9z"/>
</svg>
