<svg xmlns="http://www.w3.org/2000/svg" viewBox="0 0 512 512"><title>rx</title><path d="M0,0V512H512V0ZM416.7,469.62a23.86,23.86,0,1,1-38.84,27.74L306.13,396.94,225,498.41a23.88,23.88,0,1,1-37.3-29.84l89.61-112L193,244.72H133.7V364.07a23.87,23.87,0,1,1-47.74,0V29.87A23.86,23.86,0,0,1,109.83,6h95.49A119.49,119.49,0,0,1,324.67,125.36c0,51.38-32.82,94.89-78.46,111.67l62,80.79,70.37-88a23.88,23.88,0,0,1,37.3,29.84l-78.81,98.51Z" style="fill:#fff;opacity:0"/><path d="M276.93,125.35a71.69,71.69,0,0,0-71.61-71.61H133.7V197h71.62A71.69,71.69,0,0,0,276.93,125.35Z" style="fill:#fff;opacity:0"/><path d="M412.2,226.13a24,24,0,0,0-33.57,3.73l-70.37,88-62-80.79c45.64-16.78,78.46-60.29,78.46-111.67A119.49,119.49,0,0,0,205.32,6H109.83A23.86,23.86,0,0,0,86,29.87v334.2a23.87,23.87,0,1,0,47.74,0V244.72H193l84.23,111.83-89.61,112A23.88,23.88,0,0,0,225,498.41l81.17-101.47,71.73,100.42a23.86,23.86,0,0,0,38.84-27.74L337.12,358.21l78.81-98.51A23.92,23.92,0,0,0,412.2,226.13ZM133.7,197V53.74h71.62a71.62,71.62,0,0,1,0,143.23Z"/></svg>