<svg xmlns="http://www.w3.org/2000/svg" viewBox="0 0 448 512"><title>templates-mapping</title><path d="M433.94,65.94,382.06,14.06A48,48,0,0,0,348.12,0H176a48,48,0,0,0-48,48V96H48A48,48,0,0,0,0,144V464a48,48,0,0,0,48,48H272a48,48,0,0,0,48-48h0V416h80a48,48,0,0,0,48-48V99.88A48,48,0,0,0,433.94,65.94ZM352,32.49a16,16,0,0,1,7.43,4.2l51.88,51.88a16,16,0,0,1,4.2,7.43H352ZM288,464a16,16,0,0,1-16,16H48a16,16,0,0,1-16-16V144a16,16,0,0,1,16-16h80V252H63.67c-7,0-12.72,5.4-12.72,12v8c0,6.6,5.72,12,12.72,12H128v18H63a12,12,0,0,0-11.58,8.87c-.13.43-.24.86-.33,1.31a11.6,11.6,0,0,0-.12,1.17v9.24a11.6,11.6,0,0,0,.12,1.17,1.91,1.91,0,0,0,.06.33A12,12,0,0,0,63,334h65v18H63.67c-7,0-12.72,5.4-12.72,12v8c0,6.6,5.72,12,12.72,12h67A48,48,0,0,0,176,416H288Zm128-96a16,16,0,0,1-16,16H176a16,16,0,0,1-16-16V48a16,16,0,0,1,16-16H320v72a24.07,24.07,0,0,0,24,24h72Z"/><path d="M293.8,216.73a11.2,11.2,0,0,0-15,6.9,33.31,33.31,0,0,0-1.52,8.15,11.22,11.22,0,0,0,6.65,10.93,35.19,35.19,0,0,1,10.47,56.75l-34.85,34.85a35.18,35.18,0,0,1-49.75-49.75l33-33a11.23,11.23,0,0,0,3.2-9.44c-.25-1.91-.41-3.85-.49-5.77a11.26,11.26,0,0,0-18.93-7.79q-.87.81-1.71,1.65l-34.69,34.69A63,63,0,0,0,234.66,372.4h0A62.53,62.53,0,0,0,279.17,354l34.7-34.7a63,63,0,0,0,0-89A62.28,62.28,0,0,0,293.8,216.73Z"/><path d="M389.55,154.55A62.53,62.53,0,0,0,345,136.1h0a62.49,62.49,0,0,0-44.5,18.45l-34.7,34.69A63,63,0,0,0,285.9,291.77a11.22,11.22,0,0,0,15-6.9,33.39,33.39,0,0,0,1.52-8.16,11.22,11.22,0,0,0-6.65-10.93,34.75,34.75,0,0,1-10.31-7.15,35.25,35.25,0,0,1-.16-49.6l34.85-34.84a35.18,35.18,0,1,1,49.75,49.75l-33,33a11.21,11.21,0,0,0-3.2,9.44c.25,1.9.41,3.85.49,5.77a11.27,11.27,0,0,0,18.93,7.79q.86-.81,1.71-1.65l34.69-34.7a62.91,62.91,0,0,0,0-89Z"/></svg>