<?xml version="1.0" encoding="utf-8"?>
<!-- Generator: Adobe Illustrator 21.0.0, SVG Export Plug-In . SVG Version: 6.00 Build 0)  -->
<svg version="1.1" id="Layer_1" xmlns="http://www.w3.org/2000/svg" xmlns:xlink="http://www.w3.org/1999/xlink" x="0px" y="0px" class='disabled' width="100%" height="100%" 
	 viewBox="0 -5 300 850" style="enable-background:new -5 250 250 700;" xml:space="preserve">
<style type="text/css">
	.st0{stroke: #000000;stroke-miterlimit: 10;stroke-miterlimit:10;}
	.st1_disable{fill:#B5B5B5;stroke:#000000;stroke-miterlimit:10;}
	.st2{enable-background:new    ;}
</style>
<g id="XMLID_138_">
	<path class="st0" fill="#ffffff"  d="M102.1,24.1c0,0,12.4,50.1,7.8,80.8c-3.4,23-28.2,94.1-33.2,108.3c-5.1,14.2-14,59.2-12.2,74.7
		c1.8,15.3,4.8,64.3,8.8,84s14.6,61.8,19.8,82.2c5.3,20.5,16.1,95.3,16.4,121.7s-2.6,59.5-3.3,64.3c-0.7,4.8-0.4,7.1-2.1,7.9
		c-1.6,0.8-11.1,3.3-17.5,2.1c-6.4-1.1-13.3-6.6-13.3-6.6s7.1-64.7,1.6-107.2C69.5,493.8,51.7,410,48.6,393.9
		c-3.1-16.1-10.4-78.5-9.3-109.3c1-30.8,11.8-75.2,20.1-97.8s21.9-45.1,28.2-59.9c6.3-14.6,11.9-38.2,11.4-57.6
		c-0.4-16-5.6-46.4-5.6-46.4L102.1,24.1z"/>
</g>
<g>
	<path id="C2" class="st0 myotome" fill="#ffffff" d="M115.1,30.6c-5.5,0-11.6-0.3-18.4-1l0.7-7c19.7,2.1,33.3,0.3,45.3-1.2c7.9-1,15.3-1.9,23-1.5l-0.4,7
		c-7.1-0.4-13.9,0.5-21.8,1.5C135.4,29.4,126.3,30.6,115.1,30.6z"/>
</g>
<g >
	<path id="C3" class="st0 myotome" fill="#ffffff" d="M144.8,54.7c-12.6,0-28.4-1.8-47.8-7.4l1.9-6.7c33.2,9.6,55.1,7.5,68.7,5l1.2,6.9
		C162.6,53.7,154.6,54.7,144.8,54.7z"/>
</g>
<g >
	<path id="C4" class="st0 myotome" fill="#ffffff" d="M170.3,73.6c-15.7,0-40.1-0.7-70.9-6.8l1.4-6.9c30.2,5.9,54.1,6.6,69.5,6.6V73.6z"/>
</g>
<g >
	<path id="C5" class="st0 myotome" fill="#ffffff" d="M170.1,95.4c-2.7-0.1-5.4-0.1-8.4-0.2C144,95,122.1,94.7,98.8,83.3l3.1-6.3c21.9,10.7,43,11,60,11.2
		c3,0,5.8,0.1,8.5,0.2L170.1,95.4z"/>
</g>
<g >
	<path id="C6" class="st0 myotome" fill="#ffffff" d="M144,115.6c-14.6,0-30.7-2.6-46.6-13.6l4-5.7c21.1,14.7,42.3,12.9,61,11.4c2.1-0.2,4.2-0.4,6.3-0.5l0.5,7
		c-2,0.1-4.1,0.3-6.2,0.5C157.1,115.1,150.7,115.6,144,115.6z"/>
</g>
<g>
	<path id="C7" class="st0 myotome" fill="#ffffff" d="M147.8,137.4c-16.7,0-34.6-3-53.5-14.1l3.5-6c23.8,14,46,14.2,66.4,12.3l0.6,7
		C159.3,137,153.7,137.4,147.8,137.4z"/>
</g>
<g>
	<path id="C8" class="st0 myotome" fill="#ffffff" d="M147.4,160.5c-26.9,0-46.6-6.5-59.8-19.6l4.9-5c14.2,14.1,37.3,19.7,70.5,16.9l0.6,7
		C158,160.3,152.6,160.5,147.4,160.5z"/>
</g>
<g >
	<path id="T1" class="st0 myotome" fill="#ffffff" d="M146.7,182.9c-28.8,0-50.6-6.6-64.8-19.8l4.8-5.1c15.3,14.2,40.9,20,76.1,17.3l0.5,7
		C157.5,182.6,152,182.9,146.7,182.9z"/>
</g>
<g >
	<path id="T2" class="st0 myotome" fill="#ffffff" d="M145.2,204.5c-33.9,0-58.6-6.6-75.2-20.1l4.4-5.4c17.7,14.4,47.4,20.4,88.1,18l0.4,7
		C156.8,204.4,150.9,204.5,145.2,204.5z"/>
</g>
<g >
	<path id="T3_1_" class="st0 myotome" fill="#ffffff" d="M143,225.6c-33.9,0-58.6-6.6-75.2-20.1l4.4-5.4c17.7,14.4,47.4,20.4,88.1,18l0.4,7
		C154.6,225.5,148.7,225.6,143,225.6z"/>
</g>
<g >
	<path id="T4_1_" class="st0 myotome" fill="#ffffff" d="M137.4,245.7c-33.9,0-58.6-6.6-75.2-20.1l4.4-5.4c17.7,14.4,47.4,20.4,88.1,18l0.4,7
		C149,245.6,143.1,245.7,137.4,245.7z"/>
</g>
<g>
	<path id="T5" class="st0 myotome" fill="#ffffff" d="M141.3,270.2c-25.5,0-57.7-5.1-81.9-19.6l3.6-6c26.3,15.8,64.1,19.8,88.5,18.3l0.4,7
		C148.5,270.1,145,270.2,141.3,270.2z"/>
</g>
<g >
	<path id="T6" class="st0 myotome" fill="#ffffff" d="M145.5,293.8c-25.4,0-63.2-6.4-90.6-19.6l3-6.3c29,14,70.2,20.1,94.3,18.8l0.4,7
		C150.4,293.7,148.1,293.8,145.5,293.8z"/>
</g>
<g >
	<path id="T7" class="st0 myotome" fill="#ffffff" d="M146.5,317.8c-21.7,0-52.5-6.5-91.9-19.4l2.2-6.7c41.3,13.5,74.1,20.1,94.7,18.9l0.4,7
		C150.2,317.8,148.4,317.8,146.5,317.8z"/>
</g>
<g >
	<path id="T8" class="st0 myotome" fill="#ffffff" d="M149.6,345c-12.7,0-26.8-4.2-41.7-8.6c-17-5-34.6-10.3-51.3-9.5l-0.3-7c17.8-0.8,36,4.6,53.6,9.8
		c15.4,4.6,29.9,8.8,42.2,8.2l0.4,7C151.5,344.9,150.6,345,149.6,345z"/>
</g>
<g >
	<path id="T9" class="st0 myotome" fill="#ffffff" d="M151.6,369.6c-12.7,0-26.8-4.2-41.7-8.6c-17-5-34.6-10.3-51.3-9.5l-0.3-7c17.8-0.8,36,4.6,53.6,9.8
		c15.4,4.6,29.9,8.9,42.2,8.2l0.4,7C153.5,369.5,152.6,369.6,151.6,369.6z"/>
</g>
<g >
	<path id="T10" class="st0 myotome" fill="#ffffff" d="M157.9,396.5c-11.6,0-24.4-3.6-37.9-7.3c-18.5-5.2-37.7-10.5-56.6-7.8l-1-6.9c20.3-2.9,41.1,2.9,59.4,8
		c14,3.9,27.2,7.6,38.4,7l0.4,7C159.8,396.4,158.8,396.5,157.9,396.5z"/>
</g>
<g >
	<path id="T11" class="st0 myotome" fill="#ffffff" d="M163.6,424.9c-11.6,0-24.4-3.6-37.9-7.3c-18.5-5.2-37.7-10.5-56.6-7.8l-1-6.9c20.3-2.9,41.1,2.9,59.4,8
		c14,3.9,27.2,7.6,38.4,7l0.4,7C165.5,424.8,164.5,424.9,163.6,424.9z"/>
</g>
<g >
	<path id="T12" class="st0 myotome" fill="#ffffff" d="M163,448.6c-9.4,0-19.7-1.6-30.4-3.3c-19-2.9-38.6-6-57-1.1l-1.8-6.8c19.8-5.3,41.1-2,59.9,0.9
		c14.4,2.2,28,4.3,39,2.4l1.2,6.9C170.3,448.3,166.7,448.6,163,448.6z"/>
</g>
<g >
	<path id="L1" class="st0 myotome" fill="#ffffff" d="M170.9,485.5c-9.4,0-19.7-1.6-30.4-3.3c-19-2.9-38.6-6-57-1.1l-1.8-6.8c19.8-5.3,41.1-2,59.9,0.9
		c14.4,2.2,28,4.3,39,2.4l1.2,6.9C178.2,485.2,174.6,485.5,170.9,485.5z"/>
</g>
<g >
	<path id="L2" class="st0 myotome" fill="#ffffff" d="M175.6,525.9c-9.4,0-19.7-1.6-30.4-3.3c-19-2.9-38.6-6-57-1.1l-1.8-6.8c19.8-5.3,41.1-2,59.9,0.9
		c14.4,2.2,28,4.3,39,2.4l1.2,6.9C182.9,525.6,179.3,525.9,175.6,525.9z"/>
</g>
<g >
	<path id="L3" class="st0 myotome" fill="#ffffff" d="M178.4,566.5c-9.4,0-19.7-1.6-30.4-3.3c-19-2.9-38.6-6-57-1.1l-1.8-6.8c19.8-5.3,41.1-2,59.9,0.9
		c14.4,2.2,28,4.3,39,2.4l1.2,6.9C185.7,566.2,182.1,566.5,178.4,566.5z"/>
</g>
<g >
	<path id="L4" class="st0 myotome" fill="#ffffff" d="M178.4,608c-9.4,0-19.7-1.6-30.4-3.3c-19-2.9-38.6-6-57-1.1l-1.8-6.8c19.8-5.3,41.1-2,59.9,0.9
		c14.4,2.2,28,4.3,39,2.4l1.2,6.9C185.7,607.7,182.1,608,178.4,608z"/>
</g>
<g >
	<path id="L5" class="st0 myotome" fill="#ffffff" d="M173.7,650.9c-9.4,0-19.7-1.6-30.4-3.3c-19-2.9-38.6-6-57-1.1l-1.8-6.8c19.8-5.3,41.1-2,59.9,0.9
		c14.4,2.2,28,4.3,39,2.4l1.2,6.9C181,650.6,177.4,650.9,173.7,650.9z"/>
</g>
<g >
	<path id="S1" class="st0 myotome" fill="#ffffff" d="M166.4,680.7c-9.4,0-19.7-1.6-30.4-3.3c-19-2.9-38.6-6-57-1.1l-1.8-6.8c19.8-5.3,41.1-2,59.9,0.9
		c14.4,2.2,28,4.3,39,2.4l1.2,6.9C173.7,680.4,170.1,680.7,166.4,680.7z"/>
</g>
<g >
	<path id="S2" class="st0 myotome" fill="#ffffff" d="M142.8,707.3c-9.4,0-19.7-1.6-30.4-3.3c-19-2.9-38.6-6-57-1.1l-1.8-6.8c19.8-5.3,41.1-2,59.9,0.9
		c14.4,2.2,28,4.3,39,2.4l1.2,6.9C150.1,707,146.5,707.3,142.8,707.3z"/>
</g>
<g >
	<path id="S3" class="st0 myotome" fill="#ffffff" d="M120,729.2c-9.4,0-19.7-1.6-30.4-3.3c-19-2.9-38.6-6-57-1.1l-1.8-6.8c19.8-5.3,41.1-2,59.9,0.9
		c14.4,2.2,28,4.3,39,2.4l1.2,6.9C127.3,728.9,123.7,729.2,120,729.2z"/>
</g>
<g >
	<path id="S4" class="st0 myotome" fill="#ffffff" d="M113.4,751.1c-9.4,0-19.7-1.6-30.4-3.3c-19-2.9-38.6-6-57-1.1l-1.8-6.8c19.8-5.3,41.1-2,59.9,0.9
		c14.4,2.2,28,4.3,39,2.4l1.2,6.9C120.7,750.8,117.1,751.1,113.4,751.1z"/>
</g>
<g >
	<path id="S5" class="st0 myotome" fill="#ffffff" d="M120,772.2c-9.4,0-19.7-1.6-30.4-3.3c-19-2.9-38.6-6-57-1.1l-1.8-6.8c19.8-5.3,41.1-2,59.9,0.9
		c14.4,2.2,28,4.3,39,2.4l1.2,6.9C127.3,771.9,123.7,772.2,120,772.2z"/>
</g>
<g id="Coccyx">
	<g id="XMLID_139_">
		<path class="st1_disable" d="M34.8,752.5c0,2.7-0.8,6.8,1.8,12.6c2.5,5.6,4.7,10.3,5.9,14.8s7,7.5,5.1,8.8c-2.1,1.1-7.4-4.5-10.7-8.2
			c-4.1-4.5-5.5-9-8.3-14.8c-2.6-4.9-3.8-9.4-5.5-12c-1.6-2.6-3.3-5.6-0.8-4.9s3.3,2.2,7,2.2C32.7,750.6,34.8,748.2,34.8,752.5z"/>
	</g>
</g>
<g id="Sacral">
	<g id="XMLID_137_">
		<path class="st1_disable" d="M105.6,645.1c-5.3,0.5-20.1,1.6-24.6-0.5c-4.5-2.2-5.7-6-11.1-7.9c-5.3-1.9-10.3-2.6-14-3.3s-3.7,0-4.1,2.7
			c-0.4,2.6-0.4,7.2-4.5,8.1c-4.1,0.8-5.7-1.9-8.6,1.6c-2.9,3.4-0.3,9.4-0.3,13.3s-2.9,6.2-7.4,7.2s-4.9,3.8-4.4,8.3
			c0.4,4.5,2.2,10.7-0.3,14.1c-2.5,3.4-4.5,2.3-4,8.8c0.4,6.4,2.2,8.3,1,10.3s0,3.4-1.2,6s-4.1,2.7-4.5,5.7s0.8,6,2.6,8.8
			c1.6,2.6,3.8,8.3,2.6,10.9c-1.2,2.7-4.9,3.1-1.6,6.2s11.9,5.2,13.1,1.8s0.8-4.9,1.9-11.4c1.2-6.4,4-17.1,9.3-21.3
			s7.8-3.8,11.1-7.2s3.7-5.7,6.2-7.7c2.5-1.9,9-2.7,13.5-5.1c4.5-2.3,14.9-8.1,15.9-13c2.3-11.8-3.8-12-3.4-16.3
			c0.4-3.8,10.5-12.6,15-14.2C108.1,649.4,109.3,644.7,105.6,645.1z"/>
	</g>
</g>
<g>
	<path class="st1_disable" d="M107.3,603.4c-5.7,0.7-8.2,0.8-14.8-0.3c-6.6-1.1-13.1-3.3-16-4.1c-2.9-0.7-1.2-0.7-4.1,1.2s-7,1.9-8.6-1.8
		c-1.6-3.8,0-4.5-3.3-4.5s-6.2-0.3-9-0.3c-2.9,0-2.1,0-3.7,3.4c-1.6,3.4-4.5,5.3-9,5.3s-8.2,2.3-10.1,7.7c-2.1,5.3-1.5,9.6-0.7,12.9
		c0.8,3.4,2.9,2.2,6.2,2.6c3.3,0.4,5.7-2.7,14-0.8c8.2,1.8,11.5,3.3,12.7,2.6c1.2-0.8,0.8-3.8,1.2-7.2s2.5-7.7,7-4.7
		s2.9,6.8,2.2,10.3c-0.8,3.4,0,7.5,5.7,6.4c5.7-1.2,8.2-1.9,16.4-0.1c8.2,1.8,7.8,2.6,11.5,3.7c3.7,1.1,4.9,0.3,4.5-4.7
		c-0.4-4.9-1.4-8.6,1.1-16C113.1,606.7,110.9,603,107.3,603.4z"/>
</g>
<g>
	<path class="st1_disable" d="M107.8,560c-4.1,1.2-7,1.9-13.1,2.1c-6.2,0.1-13.1-0.7-16.8-1c-3.7-0.4-2.5,0.8-5.3,1.9
		c-2.9,1.1-6.2,2.7-7.8,0c-1.6-2.6-1.6-5.3-2.9-5.3s-2.5,1.1-6.2,0.8s-6.6-1.5-7-0.3c-0.4,1.1,1.6,6.8-1.1,8.8
		c-2.9,1.9-8.2,0.8-11.1,0.8s-5.7,0.8-7,7.2s-1.1,10.3,3,13.7s8.2,1.1,15.6,1c7.4,0,11.1-0.1,13.1-0.1c2.1,0,2.5-0.4,2.5-3.8
		s-1-8.8,5.2-8.1s4.9,4.5,5.1,8.3c0,3.8-0.8,7.2,2.9,6.4c3.7-0.8,7.4-1.9,15.6-1.6c8.2,0.3,13.5-0.1,16.4,1s4.1,0.7,3.7-3
		c-0.4-3.8-0.8-6.8-1.4-13.3c-0.4-6.4,1.1-9.2,0.7-12.9C111.5,558.9,110.3,559.4,107.8,560z"/>
</g>
<g>
	<path class="st1_disable" d="M103.3,519.8c-4.8,1.5-7.4,3.1-15.6,3.1c-8.2,0.1-11.1,0.4-14.4,0.1c-3.3-0.4-0.8,1.1-4.1,3s-6.6,2.7-8.2,0.4
		c-1.6-2.3-0.8-4.5-3.3-4.5s-1.6,0.8-5.7,1.2s-7-0.3-7.4,0.4c-0.4,0.8,0.8,0.8,0.4,4.2c-0.4,3.4-0.8,5.3-7,5.7s-9,0.1-10.7,4.2
		c-1.6,4.2-3.3,6.8,0.1,12.9c3.3,6,8.2,5.6,14,4.4c5.7-1.2,11.9-1.6,15.2-1.2c3.3,0.4,6.2,0,5.3-3.1c-0.8-3.1-3.4-10.7,3.6-10.3
		c7,0.3,5.3,4.9,5.7,7.9c0.4,3,0.4,6,1.6,6.8c1.2,0.7,1.2,1.5,5.7,0s9-3.1,15.6-3.1s9.4,0.3,12.3,0.3s5.3-0.4,4.1-4.9
		c-1.2-4.5-1.2-7.5-2.2-14.4c-0.7-5.6,0.3-9.4-0.5-12.2C107.4,518.3,107,518.7,103.3,519.8z"/>
</g>
<g>
	<path class="st1_disable" d="M96.9,478.9c-5.9,1.1-8.6,3.6-16.4,4.7c-7.8,1.2-11.9,3.1-14,2.1s-2.1-0.4-3.7,1.5c-1.6,1.9-5.7,4.2-8.2,1.9
		c-2.5-2.2-0.8-4.1-2.9-3.8c-2.1,0.4-0.4,1.5-5.3,2.3s-6.2-0.7-7,2.3s1.6,6.4-4,8.3c-5.7,1.9-6.6-0.7-10.7,2.1
		c-4.1,2.7-4.1,6.8-3.1,11.4c0.8,4.5,1.4,9.2,8.3,9c7,0,9.4-1.9,14.8-2.5c5.3-0.4,10.3-1.6,12.3-2.7c2.1-1.1-0.8-3.8,0-7.2
		c0.8-3.4,2.1-5.3,4.5-5.3c2.5,0,5.3,0.3,5.3,6.4c0,6,0.4,7.5,2.9,7.9s10.7-5.5,17.6-5.9c7-0.4,11.5-1.2,14.4-0.8
		c2.9,0.4,4.5-2.3,3.7-4.9s-3.7-6-3.4-13.3c0.4-7.2,0.3-10.7-0.1-12.6C101.4,478.1,98.9,478.5,96.9,478.9z"/>
</g>
<g>
	<path class="st1_disable" d="M94.1,446.4c-0.4,6.8,1.8,13.3,3,17.1c1.2,3.8,1.2,7.5-2.9,7.7c-4.1,0-9,0.1-14.8,2.5
		c-5.7,2.3-10.3,5.1-13.1,5.7c-2.9,0.8-2.9-0.4-3.7-3.8s-1-10.3-6.6-8.3c-5.7,1.9-4.9,4.2-3.7,6.8s1.6,5.3-0.8,6.4
		c-2.5,1.1-6.6,1.2-12.7,3.1c-6.2,1.9-10.3,6.2-14,3.6s-5.7-5.6-5.5-12.2c0.3-6.6,2.5-7.2,8.1-8.8s7.8-3.1,7.8-5.7s-2.1-4.5,0-4.9
		s4.9-2.3,7.4-3.1c2.5-0.8,2.5-1.5,5.3,1.1s5.7,3,7.8,0.7s4.1-4.7,4.1-4.7s4.5-0.4,14-2.7c9.4-2.3,11.9-5.1,14.8-5.9
		C91.5,440.2,94.4,440.6,94.1,446.4z"/>
</g>
<g>
	<path class="st1_disable" d="M80.4,408.6c-2.5,1.6-5.2,3.6-12.9,5.9s-12.6,2.9-14.5,2.9s-0.5,1.2-2.2,3c-1.6,1.8-5.5,3.1-7.1,2.1
		s-2.7-3.3-3-4.8s-1.1-0.5-4.4-0.3c-3.3,0.3-4.4-0.3-5.7,0c-1.4,0.3-1.4,0.5-0.5,4.5c0.8,4.1,0.8,5.9-0.3,7.8
		c-1.1,2.1-4.7,3.6-7.9,3.6s-5.7,0.3-6.6,4.7c-0.8,4.2-1.2,8.3-0.1,12.7c1.1,4.2,1,8.9,5.5,7c4.7-1.8,8.2-6.7,13.5-8.2
		c5.5-1.5,10.4-2.9,12.3-3.7c1.9-0.8,1.1-2.5,0.5-4.8c-0.5-2.3-2.5-7.1,2.6-7.9c5.2-0.8,7.1,3,6.8,6.6s0.5,7.4,2.7,5.7
		c2.2-1.5,6-4.4,12.3-6.2c6.3-1.8,12.3-2.6,15-3.1s4.1-2.1,3-4.7c-1.1-2.5-3.8-5.1-4.2-10.4c-0.4-7.7-0.7-8.6-1-11.1
		C84.4,407.8,83,406.8,80.4,408.6z"/>
</g>
<g>
	<path class="st1_disable" d="M74.7,379.2c-3.4,1.1-6.3,3.6-11.8,4.7s-12.6,2.6-14.8,2.5c-2.2-0.3-3.3-0.5-3.8,1.1c-0.5,1.5-1.4,3.8-3.8,3.6
		c-2.5-0.3-4.7-1.8-5.5-3s-0.5-2.1-3.8-1.8c-3.3,0.3-5.7-0.3-7.1,0s-0.8,1.8,0,4.5s1.1,7.8-2.3,9.2c-3.6,1.2-5.5,0.8-8.5,2.3
		s-4.1,5.6-4.2,10.4c-0.3,4.8,0.4,9.2,1.5,10.8c1.1,1.8,1.6,1.8,2.5,2.2c0.8,0.5,4.4-3.8,6.3-6.8s3-4.1,6-4.9s6-1.4,9.3-1.1
		s5.5,0.7,5.5-1.5c0-2.3-2.9-8.9,2.6-9.8c5.5-1.1,5.5,2.7,5.7,5.1c0.3,2.3,0.5,3.8,1.4,5.3c0.8,1.5,2.2,0.7,6-1.1
		c3.8-1.8,5.2-3.8,11.5-4.7c6.3-0.8,9-0.8,11.2-1.4c2.2-0.5,3.3-0.5,2.7-3c-0.5-2.5-2.2-5.7-3.1-11.4c-0.8-5.6,0-7.4-0.1-9.8
		C78,378,77.2,378.5,74.7,379.2z"/>
</g>
<g>
	<path class="st1_disable" d="M69.8,349.9c-3.4,1.5-8.8,4.4-13.4,5.5s-10.4,1.1-12.9,1.1s-1.9,2.3-3.3,3.3c-1.4,1.1-3.8,2.9-5.7,1.1
		s-1.6-4.2-4.1-4c-2.5,0.3-3.8,0.3-6.3,0.3s-3.3,0-3,1.8s1.6,3.8-0.5,6.6c-2.2,2.7-7.1,3.1-9.8,6.4s-3.8,7.1-3.4,12.2
		c0.3,5.1,0.8,6.8,2.1,8.1c1.1,1.2,2.2,0.7,3-0.8s5.3-8.2,12.2-9s9.6-0.8,11.5-1.1c1.9-0.3,0.3-0.8,0.3-4.1s-0.5-7.1,4.1-6.8
		c4.7,0.3,4.4,3.7,4.4,6s-0.5,4.1,0.8,4.8s7.7-3.4,14-4.9s11.5-1.1,14.2-1.4s3.7-2.5,2.5-5.1c-1.1-2.3-1.9-4.5-2.6-8.3
		c-0.5-4,0.3-6.8-0.1-8.9C73.3,350.6,73.3,348.4,69.8,349.9z"/>
</g>
<g>
	<path class="st1_disable" d="M65.9,325.2c-4.4,1.9-6.8,2.9-12.9,4s-10.4,0.3-12.3,0.4c-1.9,0-1.6,1.2-3.3,2.9c-1.6,1.5-4.7,3.3-6,1.1
		c-1.4-2.3-0.8-5.6-2.2-5.7c-1.4-0.1-3,0.3-6,0s-3-1-4.4-0.7s0.3,4.1,0.3,6.8c0,2.7-1.1,5.9-5.2,7.4s-6.8,2.3-9.3,6.7
		S3.2,358.7,4,360.5s3,2.2,5.2-0.5s4.4-5.3,10.9-6.7s8.5,0.4,10.1,0.1s1.9-1.2,1.6-3.3c-0.3-2.1,0.3-6.8,3.8-7.1
		c3.6-0.3,4.4,2.1,4.9,4.8c0.5,2.7-0.3,4.5,2.2,5.6c2.5,1,3.6-2.9,12.6-4.1c9-1.4,9.6-2.3,12.6-2.2c3,0.3,4.1,0,3.6-3
		s-3-7.1-2.6-12.4C69.5,325.9,69,324,65.9,325.2z"/>
</g>
<g>
	<path class="st1_disable" d="M64.2,300.8c-3.4,1-6,1.8-11.8,2.2c-5.7,0.3-10.4-0.4-12.6-0.7c-2.2-0.3-2.2,0.3-3,1.8s-2.5,3-4.9,2.6
		c-2.5-0.5-3.6-1.2-3.8-4.2c-0.3-3,2.5-2.3-0.3-3c-2.7-0.7-4.9,0-7.1-0.4c-2.2-0.5-3.6-2.1-4.7-0.4c-1.1,1.5,0.5,4.1-0.5,5.9
		c-1.1,1.8-2.2,4.1-7.4,6.8c-5.2,2.9-7.1,5.3-7.8,10.9c-0.8,5.6,0.3,6.3,1.1,7.5s2.2,1.8,3.8,0s3.8-5.1,7.4-6.2s5.5-0.3,10.1-0.3
		s6,1,6.6-0.3c0.5-1.2-0.5-6.8,2.5-7.9s5.2,0,5.7,3.3s-0.3,4.5,0.5,5.6c0.8,1,1.9,2.3,3.6,1c1.6-1.2,5.5-2.6,12.9-3.1
		s10.4-0.3,12.3-0.5c1.9-0.3,1.6-0.5,1.4-2.7c-0.3-2.3-1.4-3.6-1.4-7.4s2.5-7.1,1.5-8.6C67.4,300.8,67.2,300.2,64.2,300.8z"/>
</g>
<g>
	<path class="st1_disable" d="M64.2,277.2c-4.1,0-8.5,1.1-14.2,0.8s-9.6-1.2-11.5-1.4c-1.9-0.1-0.5,2.1-3.8,2.6s-4.7-1-5.2-3
		s1.1-4.1-0.5-4.5c-1.6-0.5-4.4,0-6.3-0.7s-4.1-2.2-5.2-1.8c-1.1,0.5,0.3,2.7-1.6,4.1c-1.9,1.2-7.1,3.1-11.1,9.4
		c-4.1,6.3-4.2,10.1-4,12.7c0.3,2.6,0.8,4.2,3.6,3.6c2.7-0.8,4.7-4.4,9-5.3c4.4-1.1,8.2,0.7,10.4,1s4.7,0,5.7-0.5
		c1.1-0.5-1.1-2.7,0-4.5s2.2-3.8,4.9-2.3s3.6,2.2,3.6,4.8c0,2.6-0.3,4.2-0.5,5.1c-0.3,0.8,0.8,2.1,2.7,1.2c1.9-0.8,4.4-2.1,11.2-1.9
		s10.7-0.1,13.1,0.1c2.5,0.3,3.3,0.5,3.3-1.8s-1.1-4.2-1.1-7.5s1.9-6.3,1.5-8.1C67.7,277,66.6,277,64.2,277.2z"/>
</g>
<g>
	<path class="st1_disable" d="M67.3,253.2c-3.3,0.4-9.3,0.5-15,0.1s-7.4-0.7-9.3-1.6c-1.9-1-1.1-1.2-4.1-0.7s-6.8,1.6-7.1-0.4
		s1.4-4.1,0.5-5.3c-0.8-1.2-0.5-1.5-4.1-2.2s-6-2.7-7.7-1.2c-1.4,1.2-2.7,3-6,6.2c-3.3,3-8.1,7.9-10.3,11.8
		c-2.2,3.8-2.5,4.5-1.9,6.3c0.5,1.8,1.6,2.1,4.1,0.7s4.9-4.4,10.1-3.7s8.5,1.6,9.8,2.7c1.4,1,1.6,1.8,2.7-0.3s1.4-5.9,4.1-6.3
		c2.7-0.5,4.9,1.8,5.5,3.6c0.5,1.8-1.1,3.6-1.1,5.3c0,1.8-0.5,2.6,2.5,2.5c3,0,7.1,0,12.9,0.1c5.7,0.1,9.3,0.8,11.5,1.9
		c3,1.5,4.1-0.3,4.1-2.3s-0.8-4.2-0.3-7.8c0.5-3.6,1.9-5.1,2.2-7.4C70.6,252.8,69.8,253,67.3,253.2z"/>
</g>
<g>
	<path class="st1_disable" d="M72.2,230.1c-3.3,0-6.7,0.7-13.5-1.1s-9.3-1.8-10.3-3c-1.1-1.1-0.8-1.1-2.7-1c-1.8,0.3-4.5,2.3-6.2,0.4
		c-1.6-1.9-2.7-6-3-8.1s-2.3-1.9-4.5-2.9s-4.4-2.6-6.2-1.9c-1.8,0.8-8.6,6-12.9,9.8c-4.2,3.8-6.8,8.1-7.2,10.5
		c-0.4,2.5,0.7,4,1.1,4.8s2.1-0.3,4.2-1.9s5.5-5.2,7.8-4.4c2.3,0.7,1.2,2.6,1.9,3.6c0.7,1,2.3,1.9,5.3,2.7c3.1,1,4.8,2.1,6.4,1.2
		c1.6-0.8,1.8-3.8,2.9-4.9c1-1.1,2.6-1.9,4.9-0.5c2.3,1.4,1.5,2.1,1.5,3.6s-0.8,2.9-0.8,4.2c0,1.4,1.6,1.6,4.4,2.2s8.6,0.8,13.5,2.7
		s8.5,3.3,10.1,3.7s2.5-0.3,2.5-1.9c0-1.6-0.8-3.8-0.3-6.8s2.6-6.2,3-8.3C74.4,230.7,73.9,230.1,72.2,230.1z"/>
</g>
<g>
	<path class="st1_disable" d="M78.1,208.8c-3.7-0.5-7.4-1.2-12.7-3.1c-5.3-1.9-9.3-4.2-11.1-4.8c-1.9-0.5-2.1,0.3-4.2,0.3
		c-2.2,0-4.1-1.1-4.9-3.6c-0.8-2.5,0-3.8-1.5-4.8s-3.7-2.1-5.2-2.7c-1.5-0.7-2.3-0.5-4.7,1.2c-2.5,1.8-7.8,2.3-11.1,2.9
		c-3.3,0.5-7,3.8-8.3,6.8c-1.4,3-1.6,5.3-1.2,6.8c0.4,1.5,1.5,2.1,2.7,1.4c1.2-0.8,3.4-2.7,6.6-4.7c3.1-1.9,3.7-2.9,4.9-1.9
		s-0.4,2.9,0,4.4s0.7,1.5,1.6,2.5c1.1,1,2.9-0.3,5.6,0.7s3.1,2.2,4.4,1.9c1.2-0.4,1.6-1,2.2-2.5c0.5-1.5,3.4-3.8,5.7-1.9
		c2.3,1.9,2.7,3.8,1.9,6c-0.8,2.3-0.8,3.3-0.5,4c0.3,0.8,0.8,1.1,2.1,1.4c1.2,0.1,7,0.8,12.2,2.7s9.8,4.5,11.4,5.2
		c1.5,0.7,2.5,1.1,3-0.3c0.5-1.4-0.3-5.1,0.7-8.3c1-3.3,2.1-4.9,3-7.1C81.4,209.2,80.6,209.2,78.1,208.8z"/>
</g>
<g>
	<path class="st1_disable" d="M85.4,195.2c-1.1,3-1.8,4-2.9,6.7c-1,2.6,0,5.1-0.8,5.9c-0.8,0.8-1.6,1.1-3.3,0.5c-1.6-0.5-6.4-3.4-11.4-5.1
		c-4.9-1.6-8.2-3.7-9.8-4c-1.6-0.1-2.5-1-1.5-3.3s1.2-6.3-0.8-7.2c-2.1-1-4.4-0.5-5.9,1c-1.6,1.5-2.5,2.7-3.4,2.1
		c-1.1-0.5-5.2-1.5-6.4-2.5s-0.8-2.5-0.8-4.9c0-2.5-1.6-4.9-3.7-4.7c-2.1,0.3-7.1,3.3-9.6,5.1s-2.9,3.4-3.8,3.4
		c-1,0-2.5-5.6,0.3-10.3c2.9-4.5,4.9-7.2,9.2-8.2s11.1-1.6,12.4-2.2c1.4-0.5,2.1-0.4,3.3,0.7s4.8,3.7,5.7,5.1c1,1.4,0.3,2.6,0.8,4.9
		c0.7,2.3,2.7,4.1,4.9,4c2.2-0.3,2.1-1,4,0.1s6,4,11.5,5.7c5.6,1.9,9.3,3.1,10.7,3.6C85.5,192.5,86.2,193.2,85.4,195.2z"/>
</g>
<g>
	<path class="st1_disable" d="M91.5,169.8c-3.7-1.5-6.6-1.9-11.8-5.6c-5.2-3.6-7-6-7.7-6.3s-2.1,0.7-4-0.8c-1.9-1.4-3.1-3.8-3.7-7.7
		c-0.7-3.8-0.3-5.3-3.1-6.8c-2.9-1.6-4.1-4.4-5.7-4.4c-1.6,0-6.7,1.2-11.9,2.2c-5.1,0.8-6-0.5-8.3,3.1c-2.5,3.7-3.4,5.9-3.4,8.3
		c0,2.5-0.5,3,0.3,3.7c0.8,0.7,2.9-0.4,5.1-2.7c2.2-2.3,5.1-3.1,7.1-3.1c2.1,0,4.8,1.2,4.5,4.8c-0.1,3.7-1.8,5.7-1.4,7.4
		c0.4,1.6,2.1,2.9,3.6,4.1s2.7,2.5,5.2,0.1c2.5-2.3,3.4-4.9,6.3-3.1c2.9,1.8,3.7,4.1,2.1,6.2c-1.6,2.1-2.5,3.3-0.8,4.1
		c1.6,0.8,6,3.4,11.4,6.4c5.3,3,7.2,5.2,8.6,6.3c1.5,1,2.9,3.3,3.7,1.2c0.8-2.1,0.1-3.8,1.6-7.9c1.4-4.1,3.3-4.9,3.8-6.6
		C93.6,170.7,93,170.3,91.5,169.8z"/>
</g>
<g>
	<path class="st1_disable" d="M98.9,148.5c-2.1-1.1-7-2.7-10.3-5.1c-3.3-2.2-6.6-5.5-8.1-6.2s-2.6,0.3-4-0.7c-1.2-1-2.1-2.5-2.9-5.5
		s-1.6-7.8-4-9.3c-2.3-1.5-2.9-2.9-5.7-3.1c-2.9-0.4-12,0.7-15.7,0.7s-4.9,1.2-6.6,4.9c-1.6,3.8-2.2,8.8-1.9,9.6s1.2,1.4,2.7,0.1
		c1.4-1.1,5.3-4.8,8.8-6.2c3.4-1.4,5.3-2.2,7-1c1.6,1.1,2.1,4.4,1.2,6.4c-0.8,2.1-1.4,3-0.1,4.2c1.2,1.1,2.9,4.9,4.4,5.5
		c1.5,0.5,3.6,1,6,0.7s3.8-1,3.7,1.6c-0.1,2.6-1.2,2.1-1.8,3.4c-0.5,1.4-0.5,3,1.2,3.8c1.9,0.7,5.6,1.9,10.5,4.8
		c4.9,3,7.8,5.9,9,6.7c1.2,1,2.9,1.4,3-0.5s-0.3-2.2,1.4-6.4c1.4-3.8,2.6-4.5,3.3-6.2C100.5,149.4,100,149,98.9,148.5z"/>
</g>
<g>
	<path class="st1_disable" d="M103.3,143.4c1-1.8,2.6-6.8,3-10.3s0.8-4.5-2.3-5.9c-3.1-1.4-7.4-3-10.5-5.7c-3.1-2.9-3.7-4.5-5.6-5.5
		s-1.6,0.1-3.6-1c-1.9-1.1-1.9-5.5-2.7-9c-0.8-3.6-1.5-3.3-3.3-4.7c-1.9-1.5-2.5-2.6-4.5-3.4c-2.1-0.8-2.6,0.3-6.3,0.8
		c-3.7,0.5-6.8-0.3-11.1,0.8c-4.2,1.2-5.3,1.4-6.6,4.8s-2.2,4.8-2.5,7c-0.1,2.3,0.3,3.3,0.3,3.3s4.5-4.4,9.8-5.7
		c5.3-1.4,5.9-2.3,7.8-1.9s3.7,1.1,3.3,2.6c-0.4,1.5-1.8,5.3-0.5,6.7c1.2,1.4,2.5,4.1,4.5,4.9c2.1,0.7,3.7,0.4,5.2,0.5
		s2.5-0.3,3.6,1.9c1.1,2.1,0.3,2.5-0.5,4s-1,3.3,0.4,3.8c1.5,0.5,5.2,2.5,10.5,5.6s7.4,5.2,8.9,6.2
		C101.8,144.1,102.6,144.6,103.3,143.4z"/>
</g>
<g>
	<path class="st1_disable" d="M108.2,107.6c-2.3-1.6-4.8-2.5-7.8-4.9c-3.1-2.5-2.9-3.4-4.9-3.7c-2.1-0.4-3.4,0.4-4.4-1.5
		c-0.8-1.9-1.1-7.2-2.2-8.9C87.8,87,86.2,86,84.1,85c-2.1-1-2.1-2.5-6.4-1.6c-4.4,0.8-7.9,0-10.3-0.1s-4.1-0.1-6.3,2.5
		c-2.2,2.7-2.2,4.8-2.1,5.9c0.3,1.1,0.4,1.6,2.9,1.5c2.5-0.3,5.7-0.4,7.8-0.7c2.1-0.3,4.1-1.5,5.5-1.5s3.1,1.5,3.3,4
		c0.3,2.5,0.4,3.3,2.7,4.5c2.3,1.4,3.7,2.9,5.6,3.4s4.1,1.2,3.1,3.6c-1,2.3-2.5,3.3-1.8,4.2c0.7,1,3.7,2.1,8.6,4.5s6.8,5.5,8.5,6.4
		c1.6,1,2.7,2.6,3.3-0.3c0.5-2.9,1.2-6.4,1-8.8C109.6,110.2,109.3,108.3,108.2,107.6z"/>
</g>
<g>
	<path class="st1_disable" d="M109.3,87.2c-1.4-0.7-8.6-4.5-10.7-5.7c-2.1-1.4-2.3-0.5-3.6-2.6c-1.2-2.1-1.6-2.9-3.3-5.6
		c-1.6-2.9-2.1-5.9-4.1-6c-2.1-0.1-3.6-0.4-7.8,0.7c-4.2,1-6.3,0.8-8.8,1.9s-1.8,1.6-2.5,3.7c-1,3,0.3,5.3,0.3,5.3s6.6-1.4,8.3-2.3
		c1.8-1,3.8-1.8,5.1-1c1.2,0.7,0.7,2.5,1.1,3.6s1.5,2.5,3.6,3.6s3.3,2.5,4.8,2.5s2.9-0.4,3.3,1.9s-1,3.8,0.4,5.1
		c1.5,1.4,4.8,3,8.1,4.7s2.7,1.6,4,2.9c1.2,1.1,1.2,1.9,2.9,2.2c0.8,0.1,2.1-2.9,1.2-7.8C110.5,89,111.6,88.3,109.3,87.2z"/>
</g>
<g>
	<path class="st1_disable" d="M111.2,70.6c0.5,2.5,0.7,5.1,0.7,9.6c0,2.3-2.7-1.5-7.7-3c-4.9-1.5-7.1-1.5-8.8-6c-1.6-4.5-4.4-7.5-7.2-9
		c-2.7-1.5-4.5-2.5-9.3-1.5c-4.8,1.1-12.3,4.5-12.3,4.5s0.4-5.3,1.2-6.4c1.9-2.7,2.9-1.2,6.7-2.1c5.1-1.1,11.1-4.5,14.9-3
		s4.2,5.9,7,8.9C103,69.7,110.4,66.7,111.2,70.6z"/>
</g>
<g>
	<path class="st1_disable" d="M110.9,50.9c0,0,0.5,5.6,0.1,8.1c-0.5,2.6-2.2,2.6-4.9,1.5c-2.7-1-7.7-6.6-11.1-8.5c-3.3-2.1-7.1-4-14.2-1.9
		s-18.1,3.7-18.1,3.7s0.5-3,2.2-6.2c1.6-3,4.4-2.6,8.8-5.2c4.4-2.6,12.6-5.6,16.4-3.1s0.5,3.6,4.9,5.5c4.4,2.1,3.8,2.5,7.1,3
		C105.5,48.5,107.1,48.9,110.9,50.9z"/>
</g>
<g>
	<path class="st1_disable" d="M63.5,33.2c4.9-4.9,11.5-6.4,14.1-5.1c2.5,1.2,3.7,2.2,5.3,1.9c1.2-0.3,2.7-1.1,3-3c6.8,0,12.7,0.3,18.5,3.8
		c-0.4,4,2.2,4.1,3.4,7.4c1.2,3.4,0.8,6,0.8,6s-2.9-1.1-5.3-2.6c-2.5-1.5-4.5-1.1-4.5-1.1s-0.5-0.4-1.5-1.1
		c-0.5-1.8-0.1-7.4-3.7-6.7c-1.5,0.3-2.2,3.6-1,4.2c-1.1-0.5-4.2-1.4-5.3-1.5c-2.5-0.1-0.5,0.4-5.9,0.8c-12.4,1.1-13.5,4.9-18.9,4.1
		C61.6,40.3,61.2,36.6,63.5,33.2z"/>
</g>
<g>
	<path class="st1_disable" d="M60.7,20.7c1.4-3,2.5-3.8,3.7-3.8c1.2,0,3.7,0,8.8-0.7c3-0.4,4.9-0.5,7.4-1.8C83,13.3,82.2,10,81,7.7
		s-4.9-0.3-4.9-0.3L76.9,4c0,0,0,0,5.3-0.8s5.7,0.3,9.4,0.3c3.7,0,2.5-1.5,4.5-1.9c2.1-0.4,5.3-1.5,5.3-1.5s0.8,4.1-0.4,6.8
		s3.3,5.3,5.1,9.4c0.8,2.2-1.1,6.3-1.5,8.2c-3.7,0.4-11.5-1.8-18.3-1.8c-0.7-1.6-1.8-3-3.7-3c-1.9,0-2.2,0.5-4.7,2.2
		c-1.2,0.8-4.9,0.7-4.9,0.8c-4.4,0-7,2.2-9.8,2.7C59.9,26,60.3,21.7,60.7,20.7z"/>
</g>
<g class="st0 ">
	<path d="M183,23.9l1.2,0.3c-0.2,1-0.7,1.7-1.3,2.2c-0.6,0.5-1.4,0.8-2.3,0.8c-0.9,0-1.7-0.2-2.3-0.6c-0.6-0.4-1-0.9-1.4-1.7
		s-0.5-1.5-0.5-2.4c0-0.9,0.2-1.7,0.5-2.4c0.4-0.7,0.8-1.2,1.5-1.6c0.6-0.4,1.4-0.5,2.1-0.5c0.9,0,1.6,0.2,2.2,0.7
		c0.6,0.4,1,1.1,1.3,1.9l-1.1,0.3c-0.2-0.6-0.5-1.1-0.9-1.4s-0.9-0.4-1.5-0.4c-0.7,0-1.2,0.2-1.7,0.5c-0.5,0.3-0.8,0.8-1,1.3
		c-0.2,0.5-0.3,1.1-0.3,1.7c0,0.7,0.1,1.4,0.3,2c0.2,0.6,0.6,1,1,1.3c0.5,0.3,1,0.4,1.5,0.4c0.7,0,1.2-0.2,1.7-0.6
		C182.5,25.2,182.8,24.7,183,23.9z"/>
	<path d="M190.8,26v1H185c0-0.3,0-0.5,0.1-0.8c0.1-0.4,0.4-0.8,0.7-1.2c0.3-0.4,0.8-0.8,1.4-1.3c1-0.8,1.6-1.4,1.9-1.9
		c0.3-0.5,0.5-0.9,0.5-1.3c0-0.4-0.2-0.8-0.5-1.1c-0.3-0.3-0.7-0.4-1.2-0.4c-0.5,0-0.9,0.2-1.3,0.5c-0.3,0.3-0.5,0.7-0.5,1.3
		l-1.1-0.1c0.1-0.8,0.4-1.5,0.9-1.9c0.5-0.4,1.2-0.7,2-0.7c0.8,0,1.5,0.2,2,0.7s0.7,1,0.7,1.7c0,0.4-0.1,0.7-0.2,1
		c-0.1,0.3-0.4,0.7-0.7,1.1c-0.3,0.4-0.9,0.9-1.7,1.6c-0.6,0.5-1.1,0.9-1.3,1.1s-0.3,0.4-0.5,0.6H190.8z"/>
</g>
<g class="st0 ">
	<path d="M183,52.2l1.2,0.3c-0.2,1-0.7,1.7-1.3,2.2c-0.6,0.5-1.4,0.8-2.3,0.8c-0.9,0-1.7-0.2-2.3-0.6c-0.6-0.4-1-0.9-1.4-1.7
		s-0.5-1.5-0.5-2.4c0-0.9,0.2-1.7,0.5-2.4c0.4-0.7,0.8-1.2,1.5-1.6c0.6-0.4,1.4-0.5,2.1-0.5c0.9,0,1.6,0.2,2.2,0.7
		c0.6,0.4,1,1.1,1.3,1.9l-1.1,0.3c-0.2-0.6-0.5-1.1-0.9-1.4s-0.9-0.4-1.5-0.4c-0.7,0-1.2,0.2-1.7,0.5c-0.5,0.3-0.8,0.8-1,1.3
		c-0.2,0.5-0.3,1.1-0.3,1.7c0,0.7,0.1,1.4,0.3,2c0.2,0.6,0.6,1,1,1.3c0.5,0.3,1,0.4,1.5,0.4c0.7,0,1.2-0.2,1.7-0.6
		C182.5,53.5,182.8,52.9,183,52.2z"/>
	<path d="M185.1,53l1.1-0.1c0.1,0.6,0.3,1.1,0.6,1.3c0.3,0.3,0.7,0.4,1.1,0.4c0.5,0,0.9-0.2,1.3-0.5s0.5-0.8,0.5-1.3
		c0-0.5-0.2-0.9-0.5-1.2c-0.3-0.3-0.7-0.5-1.2-0.5c-0.2,0-0.5,0-0.8,0.1l0.1-0.9c0.1,0,0.1,0,0.2,0c0.5,0,0.9-0.1,1.2-0.4
		c0.4-0.2,0.6-0.6,0.6-1.1c0-0.4-0.1-0.7-0.4-1s-0.6-0.4-1-0.4c-0.4,0-0.8,0.1-1.1,0.4c-0.3,0.3-0.5,0.7-0.5,1.2l-1.1-0.2
		c0.1-0.7,0.4-1.3,0.9-1.7c0.5-0.4,1.1-0.6,1.7-0.6c0.5,0,0.9,0.1,1.3,0.3c0.4,0.2,0.7,0.5,0.9,0.8c0.2,0.4,0.3,0.7,0.3,1.1
		c0,0.4-0.1,0.7-0.3,1s-0.5,0.6-0.9,0.7c0.5,0.1,0.9,0.4,1.2,0.7c0.3,0.4,0.4,0.9,0.4,1.4c0,0.8-0.3,1.4-0.8,2
		c-0.6,0.5-1.3,0.8-2.1,0.8c-0.8,0-1.4-0.2-1.9-0.7C185.5,54.3,185.2,53.7,185.1,53z"/>
</g>
<g class="st0 ">
	<path d="M183,70l1.2,0.3c-0.2,1-0.7,1.7-1.3,2.2c-0.6,0.5-1.4,0.8-2.3,0.8c-0.9,0-1.7-0.2-2.3-0.6c-0.6-0.4-1-0.9-1.4-1.7
		s-0.5-1.5-0.5-2.4c0-0.9,0.2-1.7,0.5-2.4c0.4-0.7,0.8-1.2,1.5-1.6c0.6-0.4,1.4-0.5,2.1-0.5c0.9,0,1.6,0.2,2.2,0.7
		c0.6,0.4,1,1.1,1.3,1.9l-1.1,0.3c-0.2-0.6-0.5-1.1-0.9-1.4s-0.9-0.4-1.5-0.4c-0.7,0-1.2,0.2-1.7,0.5c-0.5,0.3-0.8,0.8-1,1.3
		c-0.2,0.5-0.3,1.1-0.3,1.7c0,0.7,0.1,1.4,0.3,2c0.2,0.6,0.6,1,1,1.3c0.5,0.3,1,0.4,1.5,0.4c0.7,0,1.2-0.2,1.7-0.6
		C182.5,71.3,182.8,70.7,183,70z"/>
	<path d="M188.6,73.1V71h-3.8v-1l4-5.7h0.9V70h1.2v1h-1.2v2.1H188.6z M188.6,70v-4l-2.8,4H188.6z"/>
</g>
<g class="st0 ">
	<path d="M183,92.2l1.2,0.3c-0.2,1-0.7,1.7-1.3,2.2c-0.6,0.5-1.4,0.8-2.3,0.8c-0.9,0-1.7-0.2-2.3-0.6c-0.6-0.4-1-0.9-1.4-1.7
		s-0.5-1.5-0.5-2.4c0-0.9,0.2-1.7,0.5-2.4c0.4-0.7,0.8-1.2,1.5-1.6c0.6-0.4,1.4-0.5,2.1-0.5c0.9,0,1.6,0.2,2.2,0.7
		c0.6,0.4,1,1.1,1.3,1.9l-1.1,0.3c-0.2-0.6-0.5-1.1-0.9-1.4s-0.9-0.4-1.5-0.4c-0.7,0-1.2,0.2-1.7,0.5c-0.5,0.3-0.8,0.8-1,1.3
		c-0.2,0.5-0.3,1.1-0.3,1.7c0,0.7,0.1,1.4,0.3,2c0.2,0.6,0.6,1,1,1.3c0.5,0.3,1,0.4,1.5,0.4c0.7,0,1.2-0.2,1.7-0.6
		C182.5,93.5,182.8,92.9,183,92.2z"/>
	<path d="M185.1,93l1.1-0.1c0.1,0.6,0.3,1,0.6,1.2s0.7,0.4,1.1,0.4c0.5,0,1-0.2,1.3-0.6s0.5-0.9,0.5-1.6c0-0.6-0.2-1.1-0.5-1.5
		c-0.3-0.4-0.8-0.5-1.4-0.5c-0.3,0-0.7,0.1-0.9,0.2s-0.5,0.4-0.7,0.6l-1-0.1l0.9-4.5h4.4v1H187l-0.5,2.4c0.5-0.4,1.1-0.6,1.7-0.6
		c0.8,0,1.4,0.3,1.9,0.8s0.8,1.2,0.8,2.1c0,0.8-0.2,1.5-0.7,2.1c-0.6,0.7-1.3,1.1-2.3,1.1c-0.8,0-1.5-0.2-2-0.7
		C185.5,94.3,185.2,93.7,185.1,93z"/>
</g>
<g class="st0 ">
	<path d="M181.6,109l1.2,0.3c-0.2,1-0.7,1.7-1.3,2.2c-0.6,0.5-1.4,0.8-2.3,0.8c-0.9,0-1.7-0.2-2.3-0.6c-0.6-0.4-1-0.9-1.4-1.7
		s-0.5-1.5-0.5-2.4c0-0.9,0.2-1.7,0.5-2.4c0.4-0.7,0.8-1.2,1.5-1.6c0.6-0.4,1.4-0.5,2.1-0.5c0.9,0,1.6,0.2,2.2,0.7
		c0.6,0.4,1,1.1,1.3,1.9l-1.1,0.3c-0.2-0.6-0.5-1.1-0.9-1.4s-0.9-0.4-1.5-0.4c-0.7,0-1.2,0.2-1.7,0.5c-0.5,0.3-0.8,0.8-1,1.3
		c-0.2,0.5-0.3,1.1-0.3,1.7c0,0.7,0.1,1.4,0.3,2c0.2,0.6,0.6,1,1,1.3c0.5,0.3,1,0.4,1.5,0.4c0.7,0,1.2-0.2,1.7-0.6
		C181.1,110.3,181.4,109.7,181.6,109z"/>
	<path d="M189.4,105.4l-1.1,0.1c-0.1-0.4-0.2-0.7-0.4-0.9c-0.3-0.3-0.7-0.5-1.1-0.5c-0.3,0-0.6,0.1-0.9,0.3
		c-0.3,0.2-0.6,0.6-0.8,1.1c-0.2,0.5-0.3,1.2-0.3,2c0.3-0.4,0.6-0.7,1-0.9s0.8-0.3,1.2-0.3c0.7,0,1.3,0.3,1.8,0.8s0.8,1.2,0.8,2.1
		c0,0.6-0.1,1.1-0.4,1.5c-0.2,0.5-0.6,0.8-1,1.1c-0.4,0.3-0.9,0.4-1.4,0.4c-0.9,0-1.6-0.3-2.2-1c-0.6-0.7-0.9-1.8-0.9-3.3
		c0-1.7,0.3-2.9,0.9-3.7c0.5-0.7,1.3-1,2.2-1c0.7,0,1.3,0.2,1.7,0.6C189,104.2,189.3,104.7,189.4,105.4z M185,109.2
		c0,0.4,0.1,0.7,0.2,1.1s0.4,0.6,0.7,0.8c0.3,0.2,0.6,0.3,0.9,0.3c0.5,0,0.8-0.2,1.2-0.6c0.3-0.4,0.5-0.9,0.5-1.5
		c0-0.6-0.2-1.1-0.5-1.4c-0.3-0.4-0.7-0.5-1.2-0.5c-0.5,0-0.9,0.2-1.2,0.5S185,108.7,185,109.2z"/>
</g>
<g class="st0 ">
	<path d="M178.9,130.8l1.2,0.3c-0.2,1-0.7,1.7-1.3,2.2c-0.6,0.5-1.4,0.8-2.3,0.8c-0.9,0-1.7-0.2-2.3-0.6c-0.6-0.4-1-0.9-1.4-1.7
		s-0.5-1.5-0.5-2.4c0-0.9,0.2-1.7,0.5-2.4c0.4-0.7,0.8-1.2,1.5-1.6c0.6-0.4,1.4-0.5,2.1-0.5c0.9,0,1.6,0.2,2.2,0.7
		c0.6,0.4,1,1.1,1.3,1.9l-1.1,0.3c-0.2-0.6-0.5-1.1-0.9-1.4s-0.9-0.4-1.5-0.4c-0.7,0-1.2,0.2-1.7,0.5c-0.5,0.3-0.8,0.8-1,1.3
		c-0.2,0.5-0.3,1.1-0.3,1.7c0,0.7,0.1,1.4,0.3,2c0.2,0.6,0.6,1,1,1.3c0.5,0.3,1,0.4,1.5,0.4c0.7,0,1.2-0.2,1.7-0.6
		C178.4,132.1,178.7,131.5,178.9,130.8z"/>
	<path d="M181.1,126.2v-1h5.7v0.8c-0.6,0.6-1.1,1.4-1.7,2.4c-0.6,1-1,2-1.3,3.1c-0.2,0.7-0.4,1.5-0.4,2.4h-1.1
		c0-0.7,0.1-1.5,0.4-2.5c0.3-1,0.6-1.9,1.1-2.8c0.5-0.9,1-1.7,1.6-2.3H181.1z"/>
</g>
<g class="st0 ">
	<path d="M177.5,153.9l1.2,0.3c-0.2,1-0.7,1.7-1.3,2.2c-0.6,0.5-1.4,0.8-2.3,0.8c-0.9,0-1.7-0.2-2.3-0.6c-0.6-0.4-1-0.9-1.4-1.7
		s-0.5-1.5-0.5-2.4c0-0.9,0.2-1.7,0.5-2.4c0.4-0.7,0.8-1.2,1.5-1.6c0.6-0.4,1.4-0.5,2.1-0.5c0.9,0,1.6,0.2,2.2,0.7
		c0.6,0.4,1,1.1,1.3,1.9l-1.1,0.3c-0.2-0.6-0.5-1.1-0.9-1.4s-0.9-0.4-1.5-0.4c-0.7,0-1.2,0.2-1.7,0.5c-0.5,0.3-0.8,0.8-1,1.3
		c-0.2,0.5-0.3,1.1-0.3,1.7c0,0.7,0.1,1.4,0.3,2c0.2,0.6,0.6,1,1,1.3c0.5,0.3,1,0.4,1.5,0.4c0.7,0,1.2-0.2,1.7-0.6
		C177,155.2,177.3,154.6,177.5,153.9z"/>
	<path d="M181.3,152.2c-0.4-0.2-0.8-0.4-1-0.7c-0.2-0.3-0.3-0.7-0.3-1.1c0-0.6,0.2-1.2,0.7-1.6c0.5-0.4,1.1-0.7,1.8-0.7
		c0.8,0,1.4,0.2,1.9,0.7c0.5,0.4,0.7,1,0.7,1.6c0,0.4-0.1,0.8-0.3,1.1c-0.2,0.3-0.5,0.5-1,0.7c0.5,0.2,1,0.5,1.2,0.9
		c0.3,0.4,0.4,0.9,0.4,1.4c0,0.8-0.3,1.4-0.8,1.9c-0.5,0.5-1.2,0.8-2.1,0.8c-0.9,0-1.6-0.3-2.1-0.8s-0.8-1.2-0.8-1.9
		c0-0.6,0.1-1.1,0.4-1.4C180.3,152.6,180.7,152.3,181.3,152.2z M180.7,154.4c0,0.3,0.1,0.6,0.2,0.9c0.1,0.3,0.4,0.5,0.7,0.7
		c0.3,0.2,0.6,0.2,0.9,0.2c0.5,0,0.9-0.2,1.3-0.5c0.3-0.3,0.5-0.8,0.5-1.3c0-0.5-0.2-1-0.5-1.3s-0.8-0.5-1.3-0.5
		c-0.5,0-0.9,0.2-1.3,0.5C180.9,153.5,180.7,153.9,180.7,154.4z M181.1,150.4c0,0.4,0.1,0.8,0.4,1s0.6,0.4,1,0.4
		c0.4,0,0.8-0.1,1-0.4s0.4-0.6,0.4-1c0-0.4-0.1-0.7-0.4-1s-0.6-0.4-1-0.4c-0.4,0-0.8,0.1-1,0.4S181.1,150,181.1,150.4z"/>
</g>
<g class="st0 ">
	<path d="M173.4,181.7V174h-2.9v-1h7v1h-2.9v7.8H173.4z"/>
	<path d="M182.3,181.7h-1.1v-6.9c-0.3,0.2-0.6,0.5-1,0.7c-0.4,0.2-0.8,0.4-1.1,0.6v-1c0.6-0.3,1.1-0.6,1.6-1c0.5-0.4,0.8-0.8,1-1.2
		h0.7V181.7z"/>
</g>
<g class="st0 ">
	<path d="M174.8,202.8V195h-2.9v-1h7v1H176v7.8H174.8z"/>
	<path d="M185.3,201.7v1h-5.8c0-0.3,0-0.5,0.1-0.8c0.1-0.4,0.4-0.8,0.7-1.2c0.3-0.4,0.8-0.8,1.4-1.3c1-0.8,1.6-1.4,1.9-1.9
		c0.3-0.5,0.5-0.9,0.5-1.3c0-0.4-0.2-0.8-0.5-1.1c-0.3-0.3-0.7-0.4-1.2-0.4c-0.5,0-0.9,0.2-1.3,0.5c-0.3,0.3-0.5,0.7-0.5,1.3
		l-1.1-0.1c0.1-0.8,0.4-1.5,0.9-1.9c0.5-0.4,1.2-0.7,2-0.7c0.8,0,1.5,0.2,2,0.7s0.7,1,0.7,1.7c0,0.4-0.1,0.7-0.2,1
		c-0.1,0.3-0.4,0.7-0.7,1.1c-0.3,0.4-0.9,0.9-1.7,1.6c-0.6,0.5-1.1,0.9-1.3,1.1s-0.3,0.4-0.5,0.6H185.3z"/>
</g>
<g class="st0 ">
	<path d="M173.4,222.9v-7.8h-2.9v-1h7v1h-2.9v7.8H173.4z"/>
	<path d="M178.3,220.6l1.1-0.1c0.1,0.6,0.3,1.1,0.6,1.3c0.3,0.3,0.7,0.4,1.1,0.4c0.5,0,0.9-0.2,1.3-0.5s0.5-0.8,0.5-1.3
		c0-0.5-0.2-0.9-0.5-1.2c-0.3-0.3-0.7-0.5-1.2-0.5c-0.2,0-0.5,0-0.8,0.1l0.1-0.9c0.1,0,0.1,0,0.2,0c0.5,0,0.9-0.1,1.2-0.4
		c0.4-0.2,0.6-0.6,0.6-1.1c0-0.4-0.1-0.7-0.4-1s-0.6-0.4-1-0.4c-0.4,0-0.8,0.1-1.1,0.4c-0.3,0.3-0.5,0.7-0.5,1.2l-1.1-0.2
		c0.1-0.7,0.4-1.3,0.9-1.7c0.5-0.4,1.1-0.6,1.7-0.6c0.5,0,0.9,0.1,1.3,0.3c0.4,0.2,0.7,0.5,0.9,0.8c0.2,0.4,0.3,0.7,0.3,1.1
		c0,0.4-0.1,0.7-0.3,1s-0.5,0.6-0.9,0.7c0.5,0.1,0.9,0.4,1.2,0.7c0.3,0.4,0.4,0.9,0.4,1.4c0,0.8-0.3,1.4-0.8,2
		c-0.6,0.5-1.3,0.8-2.1,0.8c-0.8,0-1.4-0.2-1.9-0.7C178.6,222,178.3,221.4,178.3,220.6z"/>
</g>
<g class="st0 ">
	<path d="M169.6,242.3v-7.8h-2.9v-1h7v1h-2.9v7.8H169.6z"/>
	<path d="M178,242.3v-2.1h-3.8v-1l4-5.7h0.9v5.7h1.2v1H179v2.1H178z M178,239.2v-4l-2.8,4H178z"/>
</g>
<g class="st0 ">
	<path d="M165.9,269.2v-7.8H163v-1h7v1h-2.9v7.8H165.9z"/>
	<path d="M170.7,266.9l1.1-0.1c0.1,0.6,0.3,1,0.6,1.2s0.7,0.4,1.1,0.4c0.5,0,1-0.2,1.3-0.6s0.5-0.9,0.5-1.6c0-0.6-0.2-1.1-0.5-1.5
		c-0.3-0.4-0.8-0.5-1.4-0.5c-0.3,0-0.7,0.1-0.9,0.2s-0.5,0.4-0.7,0.6l-1-0.1l0.9-4.5h4.4v1h-3.5l-0.5,2.4c0.5-0.4,1.1-0.6,1.7-0.6
		c0.8,0,1.4,0.3,1.9,0.8s0.8,1.2,0.8,2.1c0,0.8-0.2,1.5-0.7,2.1c-0.6,0.7-1.3,1.1-2.3,1.1c-0.8,0-1.5-0.2-2-0.7
		C171.1,268.2,170.8,267.6,170.7,266.9z"/>
</g>
<g class="st0 ">
	<path d="M163.7,292.8V285h-2.9v-1h7v1h-2.9v7.8H163.7z"/>
	<path d="M174.2,286.1l-1.1,0.1c-0.1-0.4-0.2-0.7-0.4-0.9c-0.3-0.3-0.7-0.5-1.1-0.5c-0.3,0-0.6,0.1-0.9,0.3
		c-0.3,0.2-0.6,0.6-0.8,1.1c-0.2,0.5-0.3,1.2-0.3,2c0.3-0.4,0.6-0.7,1-0.9s0.8-0.3,1.2-0.3c0.7,0,1.3,0.3,1.8,0.8s0.8,1.2,0.8,2.1
		c0,0.6-0.1,1.1-0.4,1.5c-0.2,0.5-0.6,0.8-1,1.1c-0.4,0.3-0.9,0.4-1.4,0.4c-0.9,0-1.6-0.3-2.2-1c-0.6-0.7-0.9-1.8-0.9-3.3
		c0-1.7,0.3-2.9,0.9-3.7c0.5-0.7,1.3-1,2.2-1c0.7,0,1.3,0.2,1.7,0.6C173.8,284.9,174.1,285.4,174.2,286.1z M169.8,289.9
		c0,0.4,0.1,0.7,0.2,1.1s0.4,0.6,0.7,0.8c0.3,0.2,0.6,0.3,0.9,0.3c0.5,0,0.8-0.2,1.2-0.6c0.3-0.4,0.5-0.9,0.5-1.5
		c0-0.6-0.2-1.1-0.5-1.4c-0.3-0.4-0.7-0.5-1.2-0.5c-0.5,0-0.9,0.2-1.2,0.5S169.8,289.3,169.8,289.9z"/>
</g>
<g class="st0 ">
	<path d="M163.7,318.4v-7.8h-2.9v-1h7v1h-2.9v7.8H163.7z"/>
	<path d="M168.6,310.8v-1h5.7v0.8c-0.6,0.6-1.1,1.4-1.7,2.4c-0.6,1-1,2-1.3,3.1c-0.2,0.7-0.4,1.5-0.4,2.4h-1.1
		c0-0.7,0.1-1.5,0.4-2.5c0.3-1,0.6-1.9,1.1-2.8c0.5-0.9,1-1.7,1.6-2.3H168.6z"/>
</g>
<g class="st0 ">
	<path d="M163.7,345.1v-7.8h-2.9v-1h7v1h-2.9v7.8H163.7z"/>
	<path d="M170.2,340.3c-0.4-0.2-0.8-0.4-1-0.7c-0.2-0.3-0.3-0.7-0.3-1.1c0-0.6,0.2-1.2,0.7-1.6c0.5-0.4,1.1-0.7,1.8-0.7
		c0.8,0,1.4,0.2,1.9,0.7c0.5,0.4,0.7,1,0.7,1.6c0,0.4-0.1,0.8-0.3,1.1c-0.2,0.3-0.5,0.5-1,0.7c0.5,0.2,1,0.5,1.2,0.9
		c0.3,0.4,0.4,0.9,0.4,1.4c0,0.8-0.3,1.4-0.8,1.9c-0.5,0.5-1.2,0.8-2.1,0.8c-0.9,0-1.6-0.3-2.1-0.8s-0.8-1.2-0.8-1.9
		c0-0.6,0.1-1.1,0.4-1.4C169.3,340.7,169.7,340.5,170.2,340.3z M169.7,342.5c0,0.3,0.1,0.6,0.2,0.9c0.1,0.3,0.4,0.5,0.7,0.7
		c0.3,0.2,0.6,0.2,0.9,0.2c0.5,0,0.9-0.2,1.3-0.5c0.3-0.3,0.5-0.8,0.5-1.3c0-0.5-0.2-1-0.5-1.3s-0.8-0.5-1.3-0.5
		c-0.5,0-0.9,0.2-1.3,0.5C169.8,341.6,169.7,342,169.7,342.5z M170,338.5c0,0.4,0.1,0.8,0.4,1s0.6,0.4,1,0.4c0.4,0,0.8-0.1,1-0.4
		s0.4-0.6,0.4-1c0-0.4-0.1-0.7-0.4-1s-0.6-0.4-1-0.4c-0.4,0-0.8,0.1-1,0.4S170,338.1,170,338.5z"/>
</g>
<g class="st0 ">
	<path d="M165.9,368.7v-7.8H163v-1h7v1h-2.9v7.8H165.9z"/>
	<path d="M170.9,366.6l1-0.1c0.1,0.5,0.3,0.8,0.5,1.1c0.2,0.2,0.6,0.3,1,0.3c0.3,0,0.6-0.1,0.9-0.2c0.3-0.2,0.5-0.4,0.6-0.6
		c0.2-0.3,0.3-0.6,0.4-1c0.1-0.4,0.2-0.9,0.2-1.3c0,0,0-0.1,0-0.2c-0.2,0.3-0.5,0.6-0.9,0.8c-0.4,0.2-0.8,0.3-1.2,0.3
		c-0.7,0-1.3-0.3-1.9-0.8c-0.5-0.5-0.8-1.2-0.8-2.1c0-0.9,0.3-1.6,0.8-2.2c0.5-0.5,1.2-0.8,2-0.8c0.6,0,1.1,0.2,1.6,0.5
		s0.8,0.7,1.1,1.3c0.2,0.6,0.4,1.4,0.4,2.5c0,1.1-0.1,2-0.4,2.7s-0.6,1.2-1.1,1.5c-0.5,0.3-1,0.5-1.7,0.5c-0.7,0-1.3-0.2-1.7-0.6
		C171.3,367.9,171,367.3,170.9,366.6z M175.3,362.8c0-0.6-0.2-1.1-0.5-1.5c-0.3-0.4-0.7-0.5-1.2-0.5c-0.5,0-0.9,0.2-1.3,0.6
		c-0.4,0.4-0.5,0.9-0.5,1.5c0,0.6,0.2,1,0.5,1.4c0.3,0.4,0.8,0.5,1.3,0.5c0.5,0,0.9-0.2,1.2-0.5S175.3,363.4,175.3,362.8z"/>
</g>
<g class="st0 ">
	<path d="M169.6,396.4v-7.8h-2.9v-1h7v1h-2.9v7.8H169.6z"/>
	<path d="M178.6,396.4h-1.1v-6.9c-0.3,0.2-0.6,0.5-1,0.7c-0.4,0.2-0.8,0.4-1.1,0.6v-1c0.6-0.3,1.1-0.6,1.6-1c0.5-0.4,0.8-0.8,1-1.2
		h0.7V396.4z"/>
	<path d="M181.3,392c0-1,0.1-1.9,0.3-2.5c0.2-0.6,0.5-1.1,1-1.5s1-0.5,1.6-0.5c0.5,0,0.9,0.1,1.2,0.3c0.4,0.2,0.7,0.5,0.9,0.8
		c0.2,0.4,0.4,0.8,0.5,1.3c0.1,0.5,0.2,1.2,0.2,2.1c0,1-0.1,1.9-0.3,2.5c-0.2,0.6-0.5,1.1-1,1.5c-0.4,0.3-1,0.5-1.6,0.5
		c-0.8,0-1.5-0.3-2-0.9C181.6,394.9,181.3,393.7,181.3,392z M182.4,392c0,1.4,0.2,2.4,0.5,2.9c0.3,0.5,0.8,0.7,1.3,0.7
		c0.5,0,0.9-0.2,1.3-0.7c0.3-0.5,0.5-1.4,0.5-2.9c0-1.5-0.2-2.4-0.5-2.9c-0.3-0.5-0.8-0.7-1.3-0.7c-0.5,0-0.9,0.2-1.2,0.6
		C182.6,389.6,182.4,390.6,182.4,392z"/>
</g>
<g class="st0 ">
	<path d="M174.8,423.7V416h-2.9v-1h7v1H176v7.8H174.8z"/>
	<path d="M183.7,423.7h-1.1v-6.9c-0.3,0.2-0.6,0.5-1,0.7c-0.4,0.2-0.8,0.4-1.1,0.6v-1c0.6-0.3,1.1-0.6,1.6-1c0.5-0.4,0.8-0.8,1-1.2
		h0.7V423.7z"/>
	<path d="M189.7,423.7h-1.1v-6.9c-0.3,0.2-0.6,0.5-1,0.7c-0.4,0.2-0.8,0.4-1.1,0.6v-1c0.6-0.3,1.1-0.6,1.6-1c0.5-0.4,0.8-0.8,1-1.2
		h0.7V423.7z"/>
</g>
<g class="st0 ">
	<path d="M182.7,447v-7.8h-2.9v-1h7v1h-2.9v7.8H182.7z"/>
	<path d="M191.6,447h-1.1v-6.9c-0.3,0.2-0.6,0.5-1,0.7c-0.4,0.2-0.8,0.4-1.1,0.6v-1c0.6-0.3,1.1-0.6,1.6-1c0.5-0.4,0.8-0.8,1-1.2
		h0.7V447z"/>
	<path d="M200.1,445.9v1h-5.8c0-0.3,0-0.5,0.1-0.8c0.1-0.4,0.4-0.8,0.7-1.2c0.3-0.4,0.8-0.8,1.4-1.3c1-0.8,1.6-1.4,1.9-1.9
		s0.5-0.9,0.5-1.3c0-0.4-0.2-0.8-0.5-1.1c-0.3-0.3-0.7-0.4-1.2-0.4c-0.5,0-0.9,0.2-1.3,0.5s-0.5,0.7-0.5,1.3l-1.1-0.1
		c0.1-0.8,0.4-1.5,0.9-1.9c0.5-0.4,1.2-0.7,2-0.7c0.8,0,1.5,0.2,2,0.7c0.5,0.5,0.7,1,0.7,1.7c0,0.4-0.1,0.7-0.2,1s-0.4,0.7-0.7,1.1
		c-0.3,0.4-0.9,0.9-1.7,1.6c-0.6,0.5-1.1,0.9-1.3,1.1c-0.2,0.2-0.3,0.4-0.5,0.6H200.1z"/>
</g>
<g class="st0 ">
	<path d="M190,482v-8.8h1.2v7.8h4.3v1H190z"/>
	<path d="M200.5,482h-1.1v-6.9c-0.3,0.2-0.6,0.5-1,0.7c-0.4,0.2-0.8,0.4-1.1,0.6v-1c0.6-0.3,1.1-0.6,1.6-1c0.5-0.4,0.8-0.8,1-1.2
		h0.7V482z"/>
</g>
<g class="st0 ">
	<path d="M197.1,522.4v-8.8h1.2v7.8h4.3v1H197.1z"/>
	<path d="M209.3,521.4v1h-5.8c0-0.3,0-0.5,0.1-0.8c0.1-0.4,0.4-0.8,0.7-1.2c0.3-0.4,0.8-0.8,1.4-1.3c1-0.8,1.6-1.4,1.9-1.9
		s0.5-0.9,0.5-1.3c0-0.4-0.2-0.8-0.5-1.1s-0.7-0.4-1.2-0.4c-0.5,0-0.9,0.2-1.3,0.5s-0.5,0.7-0.5,1.3l-1.1-0.1
		c0.1-0.8,0.4-1.5,0.9-1.9s1.2-0.7,2-0.7c0.8,0,1.5,0.2,2,0.7c0.5,0.5,0.7,1.1,0.7,1.7c0,0.4-0.1,0.7-0.2,1
		c-0.1,0.3-0.4,0.7-0.7,1.1c-0.3,0.4-0.9,0.9-1.7,1.6c-0.6,0.5-1.1,0.9-1.3,1.1c-0.2,0.2-0.3,0.4-0.5,0.6H209.3z"/>
</g>
<g class="st0 ">
	<path d="M197.1,565.2v-8.8h1.2v7.8h4.3v1H197.1z"/>
	<path d="M203.6,562.8l1.1-0.1c0.1,0.6,0.3,1.1,0.6,1.3c0.3,0.3,0.7,0.4,1.1,0.4c0.5,0,0.9-0.2,1.3-0.5c0.4-0.4,0.5-0.8,0.5-1.3
		c0-0.5-0.2-0.9-0.5-1.2c-0.3-0.3-0.7-0.5-1.2-0.5c-0.2,0-0.5,0-0.8,0.1l0.1-0.9c0.1,0,0.1,0,0.2,0c0.5,0,0.9-0.1,1.2-0.4
		c0.4-0.2,0.6-0.6,0.6-1.1c0-0.4-0.1-0.7-0.4-1c-0.3-0.3-0.6-0.4-1-0.4c-0.4,0-0.8,0.1-1.1,0.4c-0.3,0.3-0.5,0.7-0.5,1.2l-1.1-0.2
		c0.1-0.7,0.4-1.3,0.9-1.7s1.1-0.6,1.7-0.6c0.5,0,0.9,0.1,1.3,0.3c0.4,0.2,0.7,0.5,0.9,0.8c0.2,0.4,0.3,0.7,0.3,1.1
		c0,0.4-0.1,0.7-0.3,1c-0.2,0.3-0.5,0.6-0.9,0.7c0.5,0.1,0.9,0.4,1.2,0.7c0.3,0.4,0.4,0.9,0.4,1.4c0,0.8-0.3,1.4-0.8,2
		c-0.6,0.5-1.3,0.8-2.1,0.8c-0.8,0-1.4-0.2-1.9-0.7S203.7,563.6,203.6,562.8z"/>
</g>
<g class="st0 ">
	<path d="M197.1,606.2v-8.8h1.2v7.8h4.3v1H197.1z"/>
	<path d="M207.1,606.2v-2.1h-3.8v-1l4-5.7h0.9v5.7h1.2v1h-1.2v2.1H207.1z M207.1,603.1v-4l-2.8,4H207.1z"/>
</g>
<g class="st0 ">
	<path d="M194.8,647.4v-8.8h1.2v7.8h4.3v1H194.8z"/>
	<path d="M201.2,645.1l1.1-0.1c0.1,0.6,0.3,1,0.6,1.2s0.7,0.4,1.1,0.4c0.5,0,1-0.2,1.3-0.6c0.4-0.4,0.5-0.9,0.5-1.6
		c0-0.6-0.2-1.1-0.5-1.5s-0.8-0.5-1.4-0.5c-0.3,0-0.7,0.1-0.9,0.2c-0.3,0.2-0.5,0.4-0.7,0.6l-1-0.1l0.9-4.5h4.4v1h-3.5l-0.5,2.4
		c0.5-0.4,1.1-0.6,1.7-0.6c0.8,0,1.4,0.3,1.9,0.8c0.5,0.5,0.8,1.2,0.8,2.1c0,0.8-0.2,1.5-0.7,2.1c-0.6,0.7-1.3,1.1-2.3,1.1
		c-0.8,0-1.5-0.2-2-0.7C201.6,646.4,201.3,645.8,201.2,645.1z"/>
</g>
<g class="st0 ">
	<path d="M189.6,677l1.1-0.1c0.1,0.4,0.2,0.8,0.4,1.1s0.5,0.5,0.9,0.7c0.4,0.2,0.9,0.3,1.4,0.3c0.4,0,0.8-0.1,1.2-0.2
		s0.6-0.3,0.8-0.5c0.2-0.2,0.3-0.5,0.3-0.8c0-0.3-0.1-0.5-0.2-0.7c-0.2-0.2-0.4-0.4-0.8-0.5c-0.2-0.1-0.8-0.2-1.6-0.4
		c-0.8-0.2-1.4-0.4-1.7-0.5c-0.4-0.2-0.7-0.5-0.9-0.8c-0.2-0.3-0.3-0.7-0.3-1.1c0-0.4,0.1-0.9,0.4-1.2c0.3-0.4,0.6-0.7,1.1-0.9
		c0.5-0.2,1-0.3,1.6-0.3c0.7,0,1.2,0.1,1.7,0.3c0.5,0.2,0.9,0.5,1.2,0.9c0.3,0.4,0.4,0.9,0.4,1.4l-1.1,0.1c-0.1-0.6-0.3-1-0.6-1.3
		c-0.3-0.3-0.9-0.4-1.5-0.4c-0.7,0-1.2,0.1-1.5,0.4c-0.3,0.3-0.5,0.6-0.5,0.9c0,0.3,0.1,0.6,0.3,0.8c0.2,0.2,0.8,0.4,1.8,0.6
		c0.9,0.2,1.6,0.4,2,0.6c0.5,0.2,0.9,0.5,1.1,0.9c0.2,0.4,0.4,0.8,0.4,1.3c0,0.5-0.1,0.9-0.4,1.3c-0.3,0.4-0.7,0.7-1.2,1
		s-1.1,0.3-1.7,0.3c-0.8,0-1.5-0.1-2-0.3s-1-0.6-1.3-1C189.8,678.1,189.6,677.6,189.6,677z"/>
	<path d="M201.9,679.9h-1.1V673c-0.3,0.3-0.6,0.5-1,0.7s-0.8,0.4-1.1,0.6v-1c0.6-0.3,1.1-0.6,1.6-1c0.5-0.4,0.8-0.8,1-1.2h0.7V679.9
		z"/>
</g>
<g class="st0 ">
	<path d="M165,705.1l1.1-0.1c0.1,0.4,0.2,0.8,0.4,1.1c0.2,0.3,0.5,0.5,0.9,0.7c0.4,0.2,0.9,0.3,1.4,0.3c0.4,0,0.8-0.1,1.2-0.2
		c0.3-0.1,0.6-0.3,0.8-0.5c0.2-0.2,0.3-0.5,0.3-0.8c0-0.3-0.1-0.5-0.2-0.7c-0.2-0.2-0.4-0.4-0.8-0.5c-0.2-0.1-0.8-0.2-1.6-0.4
		s-1.4-0.4-1.7-0.5c-0.4-0.2-0.7-0.5-0.9-0.8c-0.2-0.3-0.3-0.7-0.3-1.1c0-0.4,0.1-0.9,0.4-1.2c0.3-0.4,0.6-0.7,1.1-0.9
		c0.5-0.2,1-0.3,1.6-0.3c0.7,0,1.2,0.1,1.7,0.3s0.9,0.5,1.2,0.9s0.4,0.9,0.4,1.4l-1.1,0.1c-0.1-0.6-0.3-1-0.6-1.3
		c-0.3-0.3-0.9-0.4-1.5-0.4c-0.7,0-1.2,0.1-1.5,0.4c-0.3,0.3-0.5,0.6-0.5,0.9c0,0.3,0.1,0.6,0.3,0.8c0.2,0.2,0.8,0.4,1.8,0.6
		c0.9,0.2,1.6,0.4,2,0.6c0.5,0.2,0.9,0.5,1.1,0.9c0.2,0.4,0.4,0.8,0.4,1.3c0,0.5-0.1,0.9-0.4,1.3c-0.3,0.4-0.7,0.7-1.2,1
		s-1.1,0.3-1.7,0.3c-0.8,0-1.5-0.1-2-0.3s-1-0.6-1.3-1C165.2,706.2,165,705.7,165,705.1z"/>
	<path d="M178.9,706.9v1H173c0-0.3,0-0.5,0.1-0.8c0.1-0.4,0.4-0.8,0.7-1.2c0.3-0.4,0.8-0.8,1.4-1.3c1-0.8,1.6-1.4,1.9-1.9
		s0.5-0.9,0.5-1.3c0-0.4-0.2-0.8-0.5-1.1c-0.3-0.3-0.7-0.4-1.2-0.4c-0.5,0-0.9,0.2-1.3,0.5s-0.5,0.7-0.5,1.3l-1.1-0.1
		c0.1-0.8,0.4-1.5,0.9-1.9c0.5-0.4,1.2-0.7,2-0.7c0.8,0,1.5,0.2,2,0.7c0.5,0.5,0.7,1,0.7,1.7c0,0.4-0.1,0.7-0.2,1s-0.4,0.7-0.7,1.1
		c-0.3,0.4-0.9,0.9-1.7,1.6c-0.6,0.5-1.1,0.9-1.3,1.1c-0.2,0.2-0.3,0.4-0.5,0.6H178.9z"/>
</g>
<g class="st0 ">
	<path d="M139.8,727.3l1.1-0.1c0.1,0.4,0.2,0.8,0.4,1.1c0.2,0.3,0.5,0.5,0.9,0.7c0.4,0.2,0.9,0.3,1.4,0.3c0.4,0,0.8-0.1,1.2-0.2
		c0.3-0.1,0.6-0.3,0.8-0.5c0.2-0.2,0.3-0.5,0.3-0.8c0-0.3-0.1-0.5-0.2-0.7s-0.4-0.4-0.8-0.5c-0.2-0.1-0.8-0.2-1.6-0.4
		c-0.8-0.2-1.4-0.4-1.7-0.6c-0.4-0.2-0.7-0.5-0.9-0.8c-0.2-0.3-0.3-0.7-0.3-1.1c0-0.4,0.1-0.9,0.4-1.2c0.3-0.4,0.6-0.7,1.1-0.9
		c0.5-0.2,1-0.3,1.6-0.3c0.7,0,1.2,0.1,1.7,0.3c0.5,0.2,0.9,0.5,1.2,0.9c0.3,0.4,0.4,0.9,0.4,1.4l-1.1,0.1c-0.1-0.6-0.3-1-0.6-1.3
		c-0.3-0.3-0.9-0.4-1.5-0.4c-0.7,0-1.2,0.1-1.5,0.4s-0.5,0.6-0.5,0.9c0,0.3,0.1,0.6,0.3,0.8c0.2,0.2,0.8,0.4,1.8,0.6
		c0.9,0.2,1.6,0.4,2,0.6c0.5,0.2,0.9,0.5,1.1,0.9c0.2,0.4,0.4,0.8,0.4,1.3c0,0.5-0.1,0.9-0.4,1.3c-0.3,0.4-0.7,0.7-1.2,1
		s-1.1,0.3-1.7,0.3c-0.8,0-1.5-0.1-2-0.3s-1-0.6-1.3-1C140,728.4,139.9,727.9,139.8,727.3z"/>
	<path d="M148,727.8l1.1-0.1c0.1,0.6,0.3,1.1,0.6,1.3c0.3,0.3,0.7,0.4,1.1,0.4c0.5,0,0.9-0.2,1.3-0.5c0.4-0.4,0.5-0.8,0.5-1.3
		c0-0.5-0.2-0.9-0.5-1.2c-0.3-0.3-0.7-0.5-1.2-0.5c-0.2,0-0.5,0-0.8,0.1l0.1-0.9c0.1,0,0.1,0,0.2,0c0.5,0,0.9-0.1,1.2-0.4
		c0.4-0.2,0.6-0.6,0.6-1.1c0-0.4-0.1-0.7-0.4-1c-0.3-0.3-0.6-0.4-1-0.4c-0.4,0-0.8,0.1-1.1,0.4c-0.3,0.3-0.5,0.7-0.5,1.2l-1.1-0.2
		c0.1-0.7,0.4-1.3,0.9-1.7s1.1-0.6,1.7-0.6c0.5,0,0.9,0.1,1.3,0.3c0.4,0.2,0.7,0.5,0.9,0.8c0.2,0.4,0.3,0.7,0.3,1.1
		c0,0.4-0.1,0.7-0.3,1c-0.2,0.3-0.5,0.6-0.9,0.7c0.5,0.1,0.9,0.4,1.2,0.7c0.3,0.4,0.4,0.9,0.4,1.4c0,0.8-0.3,1.4-0.8,2
		c-0.6,0.5-1.3,0.8-2.1,0.8c-0.8,0-1.4-0.2-1.9-0.7S148.1,728.5,148,727.8z"/>
</g>
<g class="st0 ">
	<path d="M135.1,746.1l1.1-0.1c0.1,0.4,0.2,0.8,0.4,1.1c0.2,0.3,0.5,0.5,0.9,0.7c0.4,0.2,0.9,0.3,1.4,0.3c0.4,0,0.8-0.1,1.2-0.2
		c0.3-0.1,0.6-0.3,0.8-0.5c0.2-0.2,0.3-0.5,0.3-0.8c0-0.3-0.1-0.5-0.2-0.7c-0.2-0.2-0.4-0.4-0.8-0.5c-0.2-0.1-0.8-0.2-1.6-0.4
		s-1.4-0.4-1.7-0.5c-0.4-0.2-0.7-0.5-0.9-0.8c-0.2-0.3-0.3-0.7-0.3-1.1c0-0.4,0.1-0.9,0.4-1.2c0.3-0.4,0.6-0.7,1.1-0.9
		c0.5-0.2,1-0.3,1.6-0.3c0.7,0,1.2,0.1,1.7,0.3s0.9,0.5,1.2,0.9s0.4,0.9,0.4,1.4l-1.1,0.1c-0.1-0.6-0.3-1-0.6-1.3
		c-0.3-0.3-0.9-0.4-1.5-0.4c-0.7,0-1.2,0.1-1.5,0.4c-0.3,0.3-0.5,0.6-0.5,0.9c0,0.3,0.1,0.6,0.3,0.8c0.2,0.2,0.8,0.4,1.8,0.6
		c0.9,0.2,1.6,0.4,2,0.6c0.5,0.2,0.9,0.5,1.1,0.9c0.2,0.4,0.4,0.8,0.4,1.3c0,0.5-0.1,0.9-0.4,1.3c-0.3,0.4-0.7,0.7-1.2,1
		s-1.1,0.3-1.7,0.3c-0.8,0-1.5-0.1-2-0.3s-1-0.6-1.3-1C135.3,747.2,135.2,746.6,135.1,746.1z"/>
	<path d="M146.8,748.9v-2.1H143v-1l4-5.7h0.9v5.7h1.2v1h-1.2v2.1H146.8z M146.8,745.8v-4l-2.8,4H146.8z"/>
</g>
<g class="st0 ">
	<path d="M137,767.9l1.1-0.1c0.1,0.4,0.2,0.8,0.4,1.1s0.5,0.5,0.9,0.7c0.4,0.2,0.9,0.3,1.4,0.3c0.4,0,0.8-0.1,1.2-0.2
		s0.6-0.3,0.8-0.5c0.2-0.2,0.3-0.5,0.3-0.8c0-0.3-0.1-0.5-0.2-0.7c-0.2-0.2-0.4-0.4-0.8-0.5c-0.2-0.1-0.8-0.2-1.6-0.4
		c-0.8-0.2-1.4-0.4-1.7-0.5c-0.4-0.2-0.7-0.5-0.9-0.8c-0.2-0.3-0.3-0.7-0.3-1.1c0-0.4,0.1-0.9,0.4-1.2c0.3-0.4,0.6-0.7,1.1-0.9
		c0.5-0.2,1-0.3,1.6-0.3c0.7,0,1.2,0.1,1.7,0.3c0.5,0.2,0.9,0.5,1.2,0.9c0.3,0.4,0.4,0.9,0.4,1.4l-1.1,0.1c-0.1-0.6-0.3-1-0.6-1.3
		c-0.3-0.3-0.9-0.4-1.5-0.4c-0.7,0-1.2,0.1-1.5,0.4c-0.3,0.3-0.5,0.6-0.5,0.9c0,0.3,0.1,0.6,0.3,0.8c0.2,0.2,0.8,0.4,1.8,0.6
		c0.9,0.2,1.6,0.4,2,0.6c0.5,0.2,0.9,0.5,1.1,0.9c0.2,0.4,0.4,0.8,0.4,1.3c0,0.5-0.1,0.9-0.4,1.3c-0.3,0.4-0.7,0.7-1.2,1
		s-1.1,0.3-1.7,0.3c-0.8,0-1.5-0.1-2-0.3s-1-0.6-1.3-1C137.2,769.1,137.1,768.5,137,767.9z"/>
	<path d="M145.2,768.5l1.1-0.1c0.1,0.6,0.3,1,0.6,1.2c0.3,0.3,0.7,0.4,1.1,0.4c0.5,0,1-0.2,1.3-0.6c0.4-0.4,0.5-0.9,0.5-1.6
		c0-0.6-0.2-1.1-0.5-1.5c-0.3-0.4-0.8-0.5-1.4-0.5c-0.3,0-0.7,0.1-0.9,0.2c-0.3,0.2-0.5,0.4-0.7,0.6l-1-0.1l0.9-4.5h4.4v1h-3.5
		l-0.5,2.4c0.5-0.4,1.1-0.6,1.7-0.6c0.8,0,1.4,0.3,1.9,0.8c0.5,0.5,0.8,1.2,0.8,2.1c0,0.8-0.2,1.5-0.7,2.1c-0.6,0.7-1.3,1.1-2.3,1.1
		c-0.8,0-1.5-0.2-2-0.7C145.6,769.8,145.3,769.2,145.2,768.5z"/>
</g>
</svg>
