<?xml version="1.0" encoding="utf-8"?>
<!-- Generator: Adobe Illustrator 16.0.0, SVG Export Plug-In . SVG Version: 6.00 Build 0)  -->
<!DOCTYPE svg PUBLIC "-//W3C//DTD SVG 1.1//EN" "http://www.w3.org/Graphics/SVG/1.1/DTD/svg11.dtd">
<svg version="1.1" id="Layer_1" xmlns="http://www.w3.org/2000/svg" xmlns:xlink="http://www.w3.org/1999/xlink" x="0px" y="0px" width="100%" height="100%" viewbox="-300 280 850 200" enable-background="new 0 0 370 760" xml:space="preserve">
<g id="bigCrayfish">
	<text x="25" y="25" fill="Black" font-size="25">Front Side</text>
<g>
<g>
	<path class="human" id="Left_hypochondrium" fill="#B5B5B5" d="M225.43,262.812c3.313-11.688-2.563-50.188-5.063-54.25
		c3.625,0,10.398-0.092,14.188-1.125c10.771-2.938,13.104-5.771,13.104-5.771s1.555,1.806,0.583,8
		c-1.875,11.958-5.127,35.572-7.417,58.167L225.43,262.812z"/>
	<path fill="#000000" d="M241.043,268.167l-15.919-5.192l0.065-0.231c3.289-11.61-2.604-50.097-5.035-54.051l-0.234-0.381h0.447
		c6.654,0,11.406-0.375,14.121-1.116c10.521-2.869,12.955-5.662,12.979-5.689l0.189-0.226l0.191,0.222
		c0.064,0.077,1.617,1.965,0.641,8.202c-1.598,10.192-4.957,33.909-7.414,58.154L241.043,268.167z M225.732,262.648l14.875,4.851
		c2.455-24.146,5.795-47.718,7.388-57.872c0.75-4.782-0.034-6.901-0.38-7.561c-0.814,0.756-3.943,3.143-12.995,5.611
		c-2.701,0.737-7.356,1.118-13.843,1.133C223.318,214.378,228.822,251,225.732,262.648z"/>
</g>
<g>
	<path class="human" id="Left_anterior_Lumbar" fill="#B5B5B5" stroke="#000000" stroke-width="0.5" stroke-miterlimit="10" d="M240.992,267.687
		c-0.526,5.496,1.104,26.917,1.934,34.496l-19.621,8.786c1.938-12.516,1.801-41.703,2.307-48.208L240.992,267.687z"/>
</g>
<g>
	<path class="human" id="Left_Iliac" fill="#B5B5B5" stroke="#000000" stroke-width="0.5" stroke-miterlimit="10" d="M242.909,302
		c1.104,9.655,3.966,26.625,3.966,26.625L224.75,333c0,0-2,1.5-1.591-22.041L242.909,302z"/>
</g>
<g>
	<path class="human" id="Right_Iliac" fill="#B5B5B5" stroke="#000000" stroke-width="0.5" stroke-miterlimit="10" d="M131.333,302.084
		c-1.104,9.655-3.917,27.416-3.917,27.416l20.833,3.25c0,0,4.25-12.75,3.583-22.333L131.333,302.084z"/>
</g>
<g>
	<path class="human" id="Right_hypochondrium" fill="#B5B5B5" d="M150.773,262.5c0.469-12.083,1.969-44.75,5.469-53
		c-3.625,0-11.149,0.283-14.938-0.75c-10.771-2.938-13.438-5.25-13.438-5.25s-0.188,2.063,0.5,8.375
		c1.311,12.033,4.112,32.697,6.402,55.292L150.773,262.5z"/>
	<path fill="#000000" d="M134.551,267.491l-0.03-0.299c-1.447-14.271-3.11-27.88-4.447-38.815
		c-0.79-6.461-1.472-12.042-1.955-16.475c-0.682-6.265-0.508-8.339-0.5-8.424l0.044-0.483l0.368,0.316
		c0.027,0.023,2.789,2.321,13.34,5.198c2.552,0.696,6.869,0.777,9.893,0.777c1.057,0,2.068-0.011,2.978-0.021
		c0.746-0.008,1.422-0.015,2-0.015h0.377l-0.147,0.348c-3.252,7.667-4.81,36.442-5.449,52.912l-0.007,0.18l-0.173,0.051
		L134.551,267.491z M128.098,203.978c-0.017,0.905,0.015,3.252,0.518,7.87c0.482,4.43,1.165,10.008,1.954,16.468
		c1.328,10.861,2.978,24.359,4.417,38.526l15.543-4.532c0.635-16.293,2.165-44.367,5.34-52.56c-0.488,0.002-1.034,0.008-1.624,0.014
		c-0.911,0.01-1.925,0.021-2.983,0.021c-3.053,0-7.415-0.083-10.025-0.794C132.603,206.635,129.163,204.691,128.098,203.978z"/>
</g>
<g>
	<path class="human" id="Right_anterior_Lumbar" fill="#B5B5B5" stroke="#000000" stroke-width="0.5" stroke-miterlimit="10" d="M134.602,267.021
		c0.526,5.496-2.103,27.917-2.934,35.496l20.116,7.984c-1.935-12.516-0.667-41.688-0.854-48.125L134.602,267.021z"/>
</g>
<g>
	<g>
		<path class="human" id="Epigastric" fill="#B5B5B5" d="M225.617,262.75c-29.625-9.875-61.292-4.833-74.792-0.333
			c0.75-17,1.167-38.917,5.667-54.25c7-2.167,32.583-9,63.646-0.313C223.805,211.188,228.284,256.416,225.617,262.75z"/>
		<path fill="#000000" d="M225.758,263.06l-0.22-0.073c-11.31-3.77-23.821-5.682-37.188-5.682c-15.779,0-29.688,2.763-37.446,5.349
			l-0.345,0.115l0.016-0.363c0.082-1.856,0.16-3.771,0.24-5.73c0.666-16.354,1.42-34.891,5.437-48.579l0.038-0.129l0.128-0.04
			c5.569-1.724,17.172-4.615,32.314-4.615c10.681,0,21.27,1.447,31.473,4.301l0.102,0.056c3.694,3.36,8.252,48.74,5.541,55.178
			L225.758,263.06z M188.352,256.805c13.33,0,25.817,1.895,37.119,5.632c2.5-7.082-1.855-50.785-5.459-54.359
			c-10.143-2.831-20.664-4.266-31.277-4.266c-14.96,0-26.447,2.834-32.041,4.553c-3.967,13.616-4.717,32.056-5.379,48.33
			c-0.074,1.832-0.147,3.626-0.224,5.37C158.948,259.501,172.743,256.805,188.352,256.805z"/>
	</g>
</g>
<g>
	<g>
		<path class="human" id="Right_Chest" fill="#B5B5B5" d="M169.763,205.854c-25,9.25-39.938-1.521-41.854-2.354
			c-4.25-27.75,4.75-59.833,21.5-66.083c6.667,1,5.812,1.417,25.979,4.25c1.667,2.167,10.563,29.125,7.563,46.125
			C181.713,194.802,175.414,201.808,169.763,205.854z"/>
		<path fill="#000000" d="M150.227,209.833c-11.516,0-18.824-4.105-21.575-5.65c-0.393-0.221-0.677-0.381-0.843-0.453l-0.126-0.055
			l-0.021-0.136c-4.498-29.365,5.624-60.373,21.66-66.356l0.061-0.022l0.064,0.01c2.295,0.344,3.723,0.624,5.375,0.947
			c3.11,0.609,7.369,1.443,20.601,3.302l0.101,0.014l0.063,0.081c1.542,2.005,10.652,29.082,7.61,46.321
			c-1.298,7.357-7.97,14.415-13.288,18.222l-0.059,0.031C163.135,208.573,156.533,209.833,150.227,209.833z M128.136,203.331
			c0.185,0.092,0.438,0.233,0.762,0.416c2.72,1.528,9.944,5.586,21.33,5.586c6.236,0,12.77-1.245,19.417-3.701
			c5.237-3.758,11.79-10.687,13.06-17.883c2.984-16.911-5.778-43.314-7.458-45.849c-13.163-1.851-17.415-2.683-20.521-3.292
			c-1.631-0.319-3.042-0.596-5.29-0.934C133.663,143.628,123.728,174.257,128.136,203.331z"/>
	</g>
</g>
<g>
	<g>
		<path class="human" id="Left_Chest" fill="#B5B5B5" d="M204.281,204.541c25.586,9.75,41.189-1.167,43.189-2.5
			c-0.104-11.25,0.662-24.838-1.438-34.083c-2.5-11-10.757-26.234-17.729-29.333c-1.168-0.833-13.604,1.917-28.604,2
			c-1.667,2.167-10.5,29.333-7.5,46.333C193.438,193.969,198.63,200.495,204.281,204.541z"/>
		<path fill="#000000" d="M224.699,208.803C224.698,208.803,224.698,208.803,224.699,208.803c-6.594,0-13.493-1.356-20.508-4.029
			l-0.059-0.03c-5.008-3.585-10.837-10.128-12.181-17.743c-3.063-17.378,6.008-44.528,7.548-46.529l0.074-0.097h0.123
			c8.517-0.047,16.313-0.969,21.476-1.579c2.847-0.336,4.897-0.579,6.104-0.579c0.611,0,0.974,0.063,1.171,0.204
			c6.95,3.083,15.307,18.389,17.827,29.481c1.621,7.137,1.541,16.75,1.466,26.048c-0.022,2.823-0.046,5.49-0.021,8.088l0.002,0.135
			l-0.226,0.149C241.27,206.502,233.171,208.803,224.699,208.803z M204.4,204.319c6.945,2.644,13.772,3.984,20.297,3.984h0.002
			c8.373,0,16.371-2.271,22.521-6.395c-0.023-2.56,0-5.185,0.021-7.962c0.075-9.269,0.155-18.853-1.453-25.933
			c-2.495-10.979-10.722-26.108-17.587-29.16c-0.08-0.051-0.251-0.136-0.924-0.136c-1.178,0-3.324,0.254-6.047,0.575
			c-5.146,0.608-12.906,1.525-21.4,1.581c-1.703,2.627-10.389,29.028-7.387,46.041C193.764,194.368,199.479,200.788,204.4,204.319z"
			/>
	</g>
</g>
<g>
	<g>
		<path class="human" id="Sternum" fill="#B5B5B5" d="M206.889,204.792c-10.414-2.25-25.438-1.625-37.854,0.375
			c17.583-11.917,16.646-43.729,5.479-64.563c0.292-1.292,25.563-2.354,25.479-0.813c-1.667,2.167-10.334,30.042-7.334,47.042
			C193.896,193.844,201.236,200.746,206.889,204.792z"/>
		<path fill="#000000" d="M167.959,205.593l0.935-0.633c17.217-11.668,16.665-43.219,5.399-64.237l-0.044-0.082l0.021-0.091
			c0.3-1.328,14.712-1.771,18.557-1.771c6.616,0,7.126,0.539,7.294,0.716c0.107,0.114,0.126,0.232,0.122,0.311l-0.005,0.077
			l-0.047,0.062c-1.469,1.908-10.336,29.567-7.287,46.846c1.441,8.161,11.18,15.687,14.13,17.799l0.981,0.702l-1.183-0.255
			c-4.368-0.943-9.7-1.422-15.851-1.422c-6.923,0-14.708,0.64-21.913,1.8L167.959,205.593z M174.816,140.643
			c11.094,20.845,11.734,51.865-4.77,64.112c6.932-1.06,14.325-1.641,20.94-1.641c5.67,0,10.652,0.406,14.836,1.207
			c-3.713-2.79-12.064-9.818-13.41-17.443c-2.909-16.484,5.175-43.784,7.277-47.086c-0.268-0.142-1.475-0.512-6.863-0.512
			C185.217,139.278,175.926,139.992,174.816,140.643z"/>
	</g>
</g>
<g>
	<g>
		<path class="human" id="Umbilical" fill="#B5B5B5" stroke="#000000" stroke-width="0.5" stroke-miterlimit="10" d="M223.45,311.167
			c-37.75,5.875-61.125,2.25-71.625-0.75c-1.875-13.25-0.854-40.583-1.042-47.958c8.583-2.667,41.479-10.854,74.708,0.292
			C225.659,264.333,224.889,304.667,223.45,311.167z"/>
	</g>
</g>
<g>
	<g>
		<path class="human" id="Hypogastric" fill="#B5B5B5" stroke="#000000" stroke-width="0.5" stroke-miterlimit="10" d="M224.75,333
			c-12.417,8.167-29.76,39.458-34.813,50.125c-1.5-0.75-1.75-0.875-5.063-0.375c-18-31.5-31.042-48.75-37.208-50.083
			c3.167-9.51,4.5-15.843,4.158-22.312c8.833,2.646,35.917,6.979,71.667,0.646C223.242,312.667,222,324.667,224.75,333z"/>
	</g>
</g>
<g>
	<g>
		<path class="human" id="Left_Anterior_Acromial" fill="#B5B5B5" d="M237.45,131.458c0,0,30.709,4.375,37.125,25.458c5.096,16.746,4.5,32,4.5,32
			s-31.583-21.083-32.917-21.75c-0.833-3-9.833-28.25-20.833-29.5C228.95,136.917,237.45,131.458,237.45,131.458z"/>
		<path fill="#000000" d="M279.309,189.372l-0.371-0.248c-0.313-0.211-31.586-21.082-32.891-21.734l-0.1-0.05l-0.03-0.107
			c-1.201-4.329-10.11-28.124-20.62-29.318l-1.553-0.177l1.529-0.316c3.539-0.732,11.957-6.12,12.041-6.174l0.078-0.05l0.092,0.013
			c0.31,0.044,30.938,4.64,37.33,25.633c5.05,16.594,4.517,31.93,4.511,32.083L279.309,189.372z M246.37,166.998
			c2.209,1.273,28.793,19.007,32.466,21.458c0.046-2.646,0.041-16.544-4.5-31.467c-6.125-20.128-34.982-24.98-36.83-25.271
			c-0.841,0.536-7.293,4.615-11.076,5.896C236.652,140.211,245.092,162.517,246.37,166.998z"/>
	</g>
</g>
<g>
	<g>
		<path class="human" id="Left_Anterior_UpperArm" fill="#B5B5B5" d="M291.992,247.167L261.2,262.292c0,0-7.375-30.75-14.125-43.75
			c2-16.25-0.916-51.542-0.916-51.542l32.729,21.604L291.992,247.167z"/>
		<path fill="#000000" d="M261.029,262.654l-0.072-0.304c-0.073-0.307-7.445-30.869-14.104-43.693l-0.037-0.069l0.011-0.077
			c1.974-16.039-0.888-51.138-0.917-51.49l-0.042-0.513l0.429,0.284l32.813,21.66l0.022,0.098l13.147,58.755L261.029,262.654z
			 M247.333,218.495c6.317,12.225,13.248,40.205,14.036,43.435l30.336-14.901l-13.039-58.272l-32.217-21.266
			C246.795,171.893,249.164,203.439,247.333,218.495z"/>
	</g>
</g>
<g>
	<g>
		<path class="human" id="Left_Cubital_Fossa" fill="#B5B5B5" d="M291.992,247.167L261.2,262.292c0,0,3.541,17.209,4.375,19.042
			c19.083,7.333,36.583-10.5,36.583-10.5L291.992,247.167z"/>
		<path fill="#000000" d="M275.122,283.353C275.121,283.353,275.122,283.353,275.122,283.353c-3.312,0-6.554-0.601-9.638-1.786
			l-0.096-0.037l-0.041-0.093c-0.836-1.837-4.248-18.391-4.396-19.095l-0.039-0.189l31.202-15.326l10.336,24.063l-0.117,0.12
			C302.216,271.132,290.05,283.353,275.122,283.353z M265.764,281.138c2.998,1.138,6.146,1.715,9.357,1.715
			c13.939,0,25.454-10.823,26.74-12.077l-9.995-23.269l-30.382,14.924C261.867,264.283,264.936,279.058,265.764,281.138z"/>
	</g>
</g>
<g>
	<g>
		<path class="human" id="Left_Anterior_ForeArm" fill="#B5B5B5" d="M319.658,349.833c-1.708,0.958-11.833,2.333-23.666,6.75
			c-2.166-12.083-25.917-54.667-30.417-75.25c19.083,7.333,32.25-7.5,36.583-10.5C307.992,282.667,310.325,328.333,319.658,349.833z
			"/>
		<path fill="#000000" d="M295.799,356.922l-0.053-0.295c-0.975-5.435-6.266-16.912-12.393-30.202
			c-7.289-15.815-15.556-33.74-18.022-45.038l-0.101-0.453l0.435,0.167c3.446,1.325,6.929,1.997,10.347,1.997
			c10.995,0,19.221-6.882,23.639-10.579c0.979-0.816,1.746-1.461,2.365-1.89l0.238-0.165l0.129,0.26
			c2.641,5.355,4.532,17.371,6.727,31.284c2.648,16.838,5.654,35.923,10.778,47.726l0.09,0.207l-0.194,0.11
			c-0.657,0.37-2.394,0.771-5.018,1.379c-4.464,1.034-11.209,2.597-18.686,5.388L295.799,356.922z M265.92,281.73
			c2.576,11.269,10.705,28.902,17.889,44.485c6.033,13.089,11.26,24.424,12.375,30.03c7.396-2.737,14.051-4.279,18.473-5.303
			c2.252-0.521,3.938-0.913,4.681-1.23c-5.091-11.876-8.081-30.863-10.722-47.627c-2.149-13.646-4.012-25.461-6.553-30.875
			c-0.565,0.417-1.278,1.014-2.09,1.691c-4.469,3.738-12.783,10.696-23.961,10.696C272.676,283.597,269.283,282.969,265.92,281.73z"
			/>
	</g>
</g>
<g>
	<g>
		<path class="human" id="Left_anterior_Little_Distal_phalanx" fill="#B5B5B5" d="M314.226,418.938c-3-0.188-4.875-0.688-6.563-1.25
			c0.604,2.96,1.838,7.648,3.813,7.46C313.065,424.995,314.413,422.69,314.226,418.938z"/>
	</g>
</g>
<g>
	<g>
		<path class="human" id="Left_anterior_Ring_Distal_phalanx" fill="#B5B5B5" d="M325.663,420.938c-3.69-0.204-6.25-0.04-8.375-0.25
			c0.744,3.255,3.166,13.125,6.5,12.875C327.282,433.302,326.413,425.188,325.663,420.938z"/>
	</g>
</g>
<g>
	<g>
		<path class="human" id="Left_anterior_Middle_Distal_phalanx" fill="#B5B5B5" stroke="#000000" stroke-width="0.5" stroke-miterlimit="10" d="
			M335.038,419.001c-3.459,0.836-5.396,1.313-7.563,1.896c0.744,3.254,2,12.668,6,12.668
			C336.98,433.565,335.788,423.251,335.038,419.001z"/>
	</g>
</g>
<g>
	<g>
		<path class="human" id="Left_anterior_Index_Distal_phalanx" fill="#B5B5B5" stroke="#000000" stroke-width="0.5" stroke-miterlimit="10" d="
			M344.726,413.438c-2.768,1.673-4.875,3.142-6.75,4.188c0.744,3.256,1.876,10.939,5.876,10.939
			C347.355,428.565,345.476,417.688,344.726,413.438z"/>
	</g>
</g>
<g>
	<g>
		<path class="human" id="Right_Anterior_Acromial" fill="#B5B5B5" d="M137.242,131.417c0,0-31.207,7.646-36.625,25.5c-5.083,16.75-4.5,32-4.5,32
			s31.583-21.083,32.917-21.75c0.833-3,9.458-29.25,20.458-30.5C145.867,135.917,137.242,131.417,137.242,131.417z"/>
		<path fill="#000000" d="M95.885,189.373l-0.017-0.446c-0.006-0.153-0.526-15.484,4.511-32.083
			c5.397-17.785,36.491-25.593,36.804-25.67l0.092-0.022l0.083,0.043c0.086,0.045,8.636,4.493,12.185,5.227l1.531,0.316
			l-1.553,0.177c-11.495,1.306-20.165,30.029-20.245,30.318l-0.03,0.107l-0.099,0.05c-1.305,0.652-32.574,21.523-32.89,21.734
			L95.885,189.373z M137.211,131.682c-1.861,0.477-31.183,8.266-36.354,25.307c-4.531,14.93-4.543,28.82-4.5,31.467
			c3.677-2.454,30.274-20.196,32.468-21.459c0.562-1.848,8.632-27.523,19.53-30.371
			C144.563,135.468,138.076,132.131,137.211,131.682z"/>
	</g>
</g>
<g>
	<g>
		<path class="human" id="Right_Anterior_UpperArm" fill="#B5B5B5" d="M83.201,247.167l30.792,15.125c0,0,8.666-31.208,15.416-44.208
			c-3.75-17.417-0.167-51-0.167-51l-32.937,21.521L83.201,247.167z"/>
		<path fill="#000000" d="M114.153,262.649l-31.239-15.345l13.17-58.854l0.085-0.056l33.378-21.809l-0.056,0.524
			c-0.036,0.335-3.536,33.743,0.163,50.921l0.019,0.088l-0.042,0.08c-6.661,12.829-15.31,43.848-15.397,44.16L114.153,262.649z
			 M83.488,247.029l30.345,14.906c0.897-3.19,8.98-31.636,15.313-43.886c-3.431-16.094-0.635-46.141-0.206-50.47l-32.413,21.179
			L83.488,247.029z"/>
	</g>
</g>
<g>
	<g>
		<path class="human" id="Right_Cubital_Fossa" fill="#B5B5B5" d="M83.201,247.167l30.792,15.125c0,0-3.541,17.209-4.375,19.042
			c-21.035,6.5-36.583-10.5-36.583-10.5L83.201,247.167z"/>
		<path fill="#000000" d="M100.072,283.353c-14.929,0-27.094-12.221-27.215-12.344l-0.118-0.12l0.066-0.154l10.27-23.909
			l0.236,0.116l30.965,15.21l-0.039,0.189c-0.145,0.704-3.556,17.258-4.392,19.095l-0.042,0.093l-0.095,0.037
			C106.624,282.752,103.382,283.353,100.072,283.353z M73.332,270.775c1.287,1.254,12.806,12.077,26.74,12.077
			c3.213,0,6.36-0.577,9.357-1.715c0.829-2.08,3.896-16.855,4.279-18.707l-30.382-14.924L73.332,270.775z"/>
	</g>
</g>
<g>
	<g>
		<path class="human" id="Right_Anterior_ForeArm" fill="#B5B5B5" d="M54.535,349.833c1.708,0.958,11.833,2.333,23.666,6.75
			c2.166-12.083,25.917-54.667,30.417-75.25c-19.083,7.333-32.25-7.5-36.583-10.5C66.201,282.667,63.868,328.333,54.535,349.833z"/>
		<path fill="#000000" d="M78.394,356.922l-0.281-0.104c-7.476-2.791-14.222-4.354-18.686-5.388
			c-2.624-0.608-4.357-1.009-5.015-1.379l-0.197-0.11l0.09-0.207c5.124-11.803,8.129-30.888,10.781-47.726
			c2.191-13.913,4.084-25.929,6.724-31.284l0.128-0.26l0.238,0.165c0.62,0.429,1.39,1.074,2.366,1.89
			c4.418,3.697,12.643,10.579,23.636,10.579c0.001,0,0.001,0,0.003,0c3.418,0,6.9-0.672,10.347-1.997l0.433-0.167l-0.099,0.453
			c-2.47,11.298-10.733,29.223-18.023,45.038c-6.126,13.29-11.417,24.768-12.392,30.202L78.394,356.922z M54.859,349.712
			c0.742,0.317,2.429,0.708,4.681,1.23c4.421,1.024,11.075,2.566,18.47,5.303c1.115-5.606,6.34-16.941,12.374-30.03
			c7.184-15.583,15.313-33.216,17.889-44.485c-3.363,1.238-6.755,1.866-10.092,1.866c-0.001,0-0.002,0-0.003,0
			c-11.175,0-19.49-6.958-23.957-10.695c-0.81-0.677-1.523-1.274-2.09-1.691c-2.541,5.415-4.402,17.23-6.551,30.875
			C62.94,318.849,59.95,337.836,54.859,349.712z"/>
	</g>
</g>
<g>
	<path class="human" id="Left_Anterior_Thigh" fill="#B5B5B5" stroke="#000000" stroke-width="0.5" stroke-miterlimit="10" d="M252.659,509.834
		c-13.084-1.668-29.5,5-42,12.334c-19.334-90.502-13.534-126.293-19.284-137.543c7.125-10.292,13.745-21.775,23.292-35.125
		c4.487-6.275,7.536-10.876,12-13.667c4.692-2.934,10.924-3.905,20.834-4.375c1.625,13.75,10.635,44.034,12.749,77.292
		C262.662,446.682,257.5,488.5,252.659,509.834z"/>
</g>
<g>
	<g>
		<path class="human" id="Left_Knee_Cap" fill="#B5B5B5" d="M252.659,509.834c-13.084-1.668-29.5,5-42,12.334
			c2.333,13.666,2.333,16.25,1.833,22.75c13.083,7.75,21.166,16.75,37.5,2.582C251.075,535.291,251.992,526.166,252.659,509.834z"/>
		<path fill="#000000" d="M234.107,555.205C234.105,555.205,234.107,555.205,234.107,555.205c-5.834,0-10.864-3.21-16.688-6.928
			c-1.618-1.032-3.29-2.103-5.054-3.146l-0.135-0.079l0.013-0.152c0.491-6.404,0.528-8.865-1.83-22.688l-0.029-0.17l0.147-0.088
			c8.039-4.716,23.65-12.627,37.898-12.627c1.471,0,2.901,0.088,4.26,0.261l0.229,0.029l-0.009,0.229
			c-0.595,14.545-1.394,23.446-2.317,33.754l-0.359,4.025l-0.074,0.065C244.244,552.816,239.145,555.205,234.107,555.205z
			 M212.753,544.782c1.722,1.021,3.354,2.063,4.935,3.073c5.762,3.676,10.731,6.85,16.42,6.85c4.891,0,9.861-2.329,15.646-7.328
			l0.344-3.824c0.918-10.246,1.713-19.104,2.307-33.499c-1.271-0.148-2.604-0.229-3.971-0.229c-14.043,0-29.459,7.771-37.496,12.471
			C213.256,535.917,213.236,538.471,212.753,544.782z"/>
	</g>
</g>
<g>
	<g>
		<path class="human" id="Left_Shin" fill="#B5B5B5" d="M245.493,677.5c-1.666,1.5-20.417-2.916-22.917-3.75
			c-1.083-17.584-5.751-39.834-12.917-73.584c-3.793-17.863,2.166-51.25,2.833-55.248c13.083,7.75,21.166,16.75,37.5,2.582
			c1.833,9.291,5.232,35.865,2.833,59.416C248.825,646.166,246.409,660.498,245.493,677.5z"/>
		<path fill="#000000" d="M243.823,678.059c-5.23,0-19.366-3.418-21.326-4.068l-0.16-0.057l-0.011-0.168
			c-1.104-17.938-6.057-41.265-12.911-73.548c-3.177-14.954,0.344-40.7,2.726-54.716l0.166-0.985l0.313,0.188
			c1.771,1.049,3.446,2.118,5.067,3.153c5.758,3.675,10.729,6.849,16.418,6.849c4.91,0,9.906-2.35,15.724-7.394l0.325-0.283
			l0.082,0.423c1.635,8.271,5.324,35.089,2.839,59.49c-1.675,16.42-3.071,28.491-4.195,38.193
			c-1.565,13.545-2.604,22.493-3.136,32.376l-0.008,0.104l-0.075,0.066C245.378,677.94,244.794,678.059,243.823,678.059z
			 M222.814,673.564c2.726,0.853,16.24,3.991,21.009,3.991c0.899,0,1.272-0.109,1.427-0.19c0.535-9.853,1.57-18.786,3.133-32.285
			c1.123-9.7,2.521-21.773,4.193-38.189c2.439-23.938-1.082-50.211-2.747-58.92c-5.772,4.937-10.778,7.234-15.724,7.234
			c-5.832,0-10.862-3.21-16.688-6.928c-1.521-0.974-3.092-1.976-4.741-2.958l-0.045,0.267c-2.375,13.98-5.887,39.655-2.729,54.528
			C216.741,632.315,221.688,655.611,222.814,673.564z"/>
	</g>
</g>
<g>
	<g>
		<path class="human" id="Left_anterior_Ankle" fill="#B5B5B5" d="M245.493,677.5c-1.666,1.5-20.417-2.916-22.917-3.75
			c0.249,5.75-3.334,28.959-3.501,33.291c11.063-10.938,27.313-10.438,29.084-5.707C247.889,700.104,244.992,693.168,245.493,677.5z
			"/>
		<path fill="#000000" d="M218.801,707.664l0.024-0.633c0.065-1.684,0.639-6.166,1.302-11.359
			c1.048-8.196,2.352-18.396,2.199-21.911l-0.016-0.36l0.344,0.112c2.304,0.771,16.298,4.046,21.168,4.046h0.001
			c1.11,0,1.421-0.171,1.503-0.241l0.436-0.396l-0.019,0.586c-0.438,13.676,1.729,20.71,2.442,23.021
			c0.104,0.346,0.183,0.594,0.217,0.751l-0.479,0.142c-0.688-1.839-3.827-3.023-7.999-3.023c-2.756,0-12.396,0.636-20.675,8.82
			L218.801,707.664z M222.836,674.093c0.063,3.84-1.195,13.688-2.213,21.646c-0.59,4.619-1.107,8.677-1.26,10.679
			c8.31-7.896,17.81-8.519,20.563-8.519c3.432,0,6.146,0.764,7.563,2.062c-0.853-2.867-2.608-9.75-2.259-22.048
			c-0.326,0.101-0.789,0.146-1.407,0.146h-0.001C238.829,678.059,225.721,674.943,222.836,674.093z"/>
	</g>
</g>
<g>
	<g>
		<path class="human" id="Left_anterior_tarsal_1_" fill="#B5B5B5" d="M255.909,720.738c-6.625,0.813-20.771,2.612-26.146,8.678
			c-2.104-2.332-4.394-0.271-7.438-2.582c-3.396-2.576-6.347-8.658-3.25-19.793c11.063-10.938,27.313-10.438,29.084-5.707
			C250.075,712.041,252.223,716.676,255.909,720.738z"/>
		<path fill="#000000" d="M229.766,729.791l-0.188-0.207c-0.992-1.1-2.026-1.155-3.225-1.219c-1.224-0.065-2.606-0.143-4.182-1.332
			c-2.214-1.682-6.972-6.999-3.34-20.063l0.02-0.063l0.047-0.047c8.416-8.321,18.224-8.969,21.025-8.969
			c4.449,0,7.693,1.282,8.469,3.352c2.025,11.305,4.355,15.641,7.7,19.324l0.324,0.354l-0.479,0.062
			c-6.168,0.757-20.609,2.524-25.988,8.596L229.766,729.791z M219.298,707.172c-3.519,12.72,1.05,17.847,3.179,19.463
			c1.449,1.103,2.697,1.166,3.904,1.23c1.184,0.063,2.305,0.124,3.377,1.185c5.498-5.896,19.258-7.715,25.646-8.502
			c-3.762-4.296-5.742-9.396-7.491-19.17c-0.677-1.795-3.815-2.981-7.987-2.981C237.175,698.396,227.568,699.029,219.298,707.172z"
			/>
	</g>
</g>
<g>
	<g>
		<path class="human" id="Left_anterior_Toe" fill="#B5B5B5" d="M232.639,744.793c0.521,0.615,2.688,2.123,4.813,4.229
			c1.503,1.485,3.593,2.905,5.416,3.5c3.146,1.02,7.646,0.145,9.083-1.73c3.039-3.963-6.221-11.688-7.438-12.594
			C239.605,738.385,232.906,743.807,232.639,744.793z"/>
		<path fill="#000000" d="M245.824,753.202c-1.092,0-2.141-0.153-3.034-0.442c-1.763-0.572-3.875-1.937-5.515-3.561
			c-1.229-1.217-2.485-2.244-3.402-2.994c-0.693-0.566-1.193-0.977-1.426-1.251l-0.086-0.1l0.035-0.128
			c0.293-1.079,7.052-6.589,12.104-6.779l0.088-0.003l0.071,0.053c0.071,0.055,7.472,5.81,8.104,10.347
			c0.142,1.008-0.066,1.883-0.619,2.603C251.111,752.294,248.57,753.202,245.824,753.202z M232.934,744.744
			c0.246,0.247,0.7,0.619,1.256,1.073c0.928,0.757,2.192,1.793,3.438,3.023c1.588,1.573,3.626,2.894,5.317,3.439
			c0.845,0.271,1.841,0.419,2.88,0.419c2.559,0,4.995-0.852,5.928-2.063c0.466-0.604,0.642-1.354,0.521-2.226
			c-0.521-3.733-6.28-8.783-7.838-9.962C239.703,738.689,233.598,743.641,232.934,744.744z"/>
	</g>
</g>
<g>
	<g>
		<path class="human" id="Left_anterior_2nd_Phalange" fill="#B5B5B5" d="M251.742,736.375c0.917,0.834,2.592,2.328,4.25,4.959
			c1.209,1.916,1.938,7.086,2.042,8.666c0.167,2.5-6.519,1.508-5.958,0.084c1.833-4.666-6.25-10.416-7.688-12.074
			C246.784,737.293,250.159,736.168,251.742,736.375z"/>
		<path fill="#000000" d="M255.434,751.782c-1.332,0-3.013-0.386-3.5-1.104c-0.147-0.219-0.181-0.456-0.09-0.688
			c1.414-3.603-3.513-8.029-6.158-10.409c-0.67-0.604-1.197-1.076-1.483-1.409l-0.257-0.293l1.291-0.39
			c2.373-0.726,5.111-1.556,6.539-1.364l0.078,0.011l0.125,0.114c0.904,0.822,2.59,2.353,4.229,4.949
			c1.259,1.995,1.977,7.21,2.079,8.779c0.024,0.405-0.097,0.759-0.362,1.042C257.305,751.685,256.098,751.782,255.434,751.782z
			 M244.848,738.132c0.289,0.285,0.693,0.649,1.172,1.079c2.736,2.461,7.83,7.041,6.289,10.965c-0.021,0.053-0.031,0.12,0.037,0.226
			c0.327,0.479,1.74,0.884,3.088,0.884c0.993,0,1.77-0.218,2.123-0.602c0.172-0.184,0.246-0.398,0.229-0.667
			c-0.118-1.769-0.862-6.737-2.004-8.549c-1.601-2.539-3.189-3.98-4.14-4.847l-0.011-0.007c-1.364-0.137-4.093,0.694-6.251,1.354
			L244.848,738.132z"/>
	</g>
</g>
<g>
	<g>
		<path class="human" id="Left_anterior_3rd_Phalange" fill="#B5B5B5" d="M251.742,736.375c0.917,0.834,2.592,2.328,4.25,4.959
			c1.209,1.916,1.885,7.09,2.042,8.666c0.166,1.666,5.139,0.521,5.291-1c0.231-2.328-0.417-5.416-1.542-7.75
			c-1.338-2.775-3.705-4.797-4.708-5.666C256.169,735.572,253.639,735.916,251.742,736.375z"/>
		<path fill="#000000" d="M259.557,751.07L259.557,751.07c-1.06,0-1.705-0.381-1.771-1.046c-0.222-2.21-0.923-6.846-2.005-8.56
			c-1.6-2.539-3.188-3.98-4.139-4.847l-0.416-0.378l0.457-0.111c1.887-0.457,4.379-0.798,5.346-0.798h0.094l0.171,0.106
			c1.011,0.877,3.379,2.928,4.716,5.698c1.184,2.456,1.799,5.554,1.565,7.884C263.451,750.255,261.074,751.07,259.557,751.07z
			 M252.264,736.512c0.945,0.869,2.463,2.348,3.94,4.688c1.413,2.241,2.053,8.509,2.079,8.772c0.054,0.537,0.908,0.598,1.273,0.598
			l0,0c1.567,0,3.442-0.853,3.52-1.599c0.222-2.213-0.389-5.271-1.52-7.613c-1.283-2.664-3.576-4.66-4.574-5.523
			C256.05,735.854,253.967,736.135,252.264,736.512z"/>
	</g>
</g>
<g>
	<g>
		<path class="human" id="Left_anterior_4th_Phalange" fill="#B5B5B5" d="M262.575,735.354c0.875,0.813,1.958,1.39,3.583,3.98
			c1.203,1.92,1.802,5.422,1.959,7c0.166,1.666-4.944,4.188-4.792,2.666c0.231-2.328-0.417-5.416-1.542-7.75
			c-1.338-2.775-3.705-4.797-4.708-5.666C257.825,735.354,261.741,734.926,262.575,735.354z"/>
		<path fill="#000000" d="M263.859,749.72c-0.283,0-0.498-0.077-0.635-0.229c-0.082-0.091-0.178-0.255-0.148-0.52
			c0.222-2.213-0.389-5.271-1.52-7.614c-1.291-2.683-3.604-4.686-4.595-5.538l-0.396-0.345l0.434-0.133
			c0.545-0.167,2.602-0.424,4.104-0.424c0.789,0,1.31,0.068,1.582,0.21l0.059,0.039c0.179,0.166,0.363,0.321,0.563,0.486
			c0.779,0.646,1.752,1.456,3.063,3.545c1.209,1.929,1.82,5.376,1.996,7.105c0.041,0.414-0.16,0.869-0.602,1.354
			C266.828,748.701,264.893,749.72,263.859,749.72z M257.614,735.722c1.129,0.991,3.184,2.909,4.395,5.42
			c1.185,2.456,1.798,5.554,1.565,7.886c-0.006,0.044-0.004,0.103,0.021,0.131c0.014,0.016,0.07,0.063,0.264,0.063
			c0.805,0,2.631-0.891,3.537-1.892c0.334-0.37,0.498-0.705,0.472-0.972c-0.156-1.57-0.761-5.035-1.923-6.893
			c-1.266-2.021-2.202-2.8-2.955-3.426c-0.195-0.162-0.381-0.316-0.557-0.479c-0.138-0.059-0.479-0.143-1.328-0.143
			C259.956,735.421,258.436,735.579,257.614,735.722z"/>
	</g>
</g>
<g>
	<g>
		<path class="human" id="Left_anterior_5th_Phalange" fill="#B5B5B5" d="M262.419,735.135c0.875,0.813,2.114,1.605,3.739,4.199
			c1.203,1.92,1.822,5.256,1.979,6.832c0.166,1.666,2.438-1.139,2.521-2.666c0.229-4.084-2.239-8.053-2.989-9.209
			C266.764,734.479,264.355,735.104,262.419,735.135z"/>
		<path fill="#000000" d="M268.498,746.928c-0.167-0.003-0.542-0.064-0.609-0.734c-0.146-1.49-0.746-4.814-1.941-6.727
			c-1.305-2.083-2.34-2.971-3.17-3.684c-0.188-0.162-0.362-0.313-0.525-0.465l-0.456-0.427l0.622-0.01
			c1.584-0.022,3.482-0.454,4.62-0.71c0.229-0.052,0.429-0.097,0.583-0.129l0.168-0.034l0.093,0.146
			c1.224,1.884,3.24,5.604,3.029,9.355C270.84,744.72,269.412,746.928,268.498,746.928z M263.048,735.356
			c0.019,0.016,0.037,0.028,0.056,0.048c0.813,0.693,1.922,1.646,3.27,3.797c1.245,1.988,1.861,5.409,2.02,6.938
			c0.014,0.146,0.053,0.286,0.108,0.286c0.492,0,1.849-1.805,1.91-2.938c0.196-3.521-1.661-7.041-2.854-8.915
			c-0.119,0.023-0.258,0.058-0.406,0.091C266.135,734.891,264.529,735.252,263.048,735.356z"/>
	</g>
</g>
<g>
	<g>
		<path class="human" id="Right_anterior_tarsal" fill="#B5B5B5" d="M126.86,701.382c1.771-4.729,18.021-5.229,29.084,5.707
			c3.097,11.135,0.146,17.217-3.25,19.793c-3.046,2.312-5.334,0.25-7.438,2.582c-5.375-6.063-19.521-7.865-26.146-8.678
			C122.797,716.724,124.944,712.089,126.86,701.382z"/>
		<path fill="#000000" d="M145.069,729.629c-5.379-6.07-19.821-7.839-25.989-8.596l-0.479-0.062l0.324-0.354
			c3.345-3.685,5.675-8.021,7.701-19.324c0.774-2.068,4.019-3.351,8.468-3.351c2.803,0,12.61,0.646,21.026,8.968l0.047,0.047
			l0.019,0.063c3.632,13.063-1.126,18.38-3.34,20.062c-1.574,1.19-2.958,1.268-4.181,1.332c-1.198,0.063-2.232,0.119-3.225,1.219
			l-0.188,0.207L145.069,729.629z M135.094,698.444c-4.172,0-7.311,1.187-7.987,2.98c-1.749,9.774-3.729,14.874-7.491,19.17
			c6.389,0.787,20.148,2.606,25.646,8.502c1.072-1.061,2.193-1.122,3.377-1.185c1.207-0.064,2.455-0.129,3.904-1.23
			c2.129-1.615,6.697-6.742,3.179-19.463C147.451,699.077,137.845,698.444,135.094,698.444z"/>
	</g>
</g>
<g>
	<g>
		<path class="human" id="Right_anterior_Toe" fill="#B5B5B5" d="M130.506,738.246c-1.217,0.906-10.477,8.631-7.438,12.594
			c1.438,1.875,5.938,2.75,9.083,1.73c1.823-0.595,3.913-2.015,5.416-3.5c2.125-2.106,4.292-3.614,4.813-4.229
			C142.113,743.854,135.414,738.433,130.506,738.246z"/>
		<path fill="#000000" d="M122.875,750.993c-0.553-0.719-0.761-1.594-0.619-2.603c0.632-4.537,8.031-10.292,8.104-10.347
			l0.071-0.053l0.088,0.003c5.053,0.19,11.812,5.7,12.104,6.779l0.035,0.128l-0.086,0.1c-0.232,0.274-0.732,0.685-1.426,1.251
			c-0.917,0.75-2.173,1.777-3.402,2.994c-1.64,1.624-3.752,2.988-5.515,3.561c-0.894,0.289-1.942,0.442-3.034,0.442
			C126.449,753.25,123.908,752.342,122.875,750.993z M130.584,738.497c-1.557,1.179-7.317,6.229-7.838,9.962
			c-0.121,0.871,0.055,1.62,0.521,2.226c0.933,1.214,3.369,2.063,5.928,2.063c1.039,0,2.035-0.146,2.88-0.419
			c1.691-0.547,3.729-1.866,5.317-3.439c1.246-1.23,2.512-2.268,3.438-3.023c0.556-0.454,1.01-0.826,1.256-1.073
			C141.422,743.688,135.316,738.737,130.584,738.497z"/>
	</g>
</g>
<g>
	<g>
		<path class="human" id="Right_anterior_2nd_Phalange" fill="#B5B5B5" d="M130.631,738.058c-1.438,1.658-9.521,7.408-7.688,12.074
			c0.561,1.424-6.125,2.416-5.958-0.084c0.104-1.58,0.833-6.75,2.042-8.666c1.658-2.631,3.333-4.125,4.25-4.959
			C124.86,736.216,128.235,737.341,130.631,738.058z"/>
		<path fill="#000000" d="M117.097,751.069c-0.267-0.284-0.388-0.638-0.362-1.042c0.104-1.57,0.82-6.785,2.079-8.78
			c1.638-2.597,3.323-4.127,4.228-4.949l0.125-0.114l0.078-0.011c1.428-0.189,4.166,0.64,6.539,1.364l1.291,0.39l-0.256,0.293
			c-0.287,0.333-0.814,0.808-1.484,1.409c-2.646,2.38-7.572,6.809-6.158,10.409c0.091,0.231,0.059,0.469-0.09,0.688
			c-0.487,0.72-2.168,1.104-3.5,1.104C118.922,751.83,117.715,751.732,117.097,751.069z M129.638,738.016
			c-2.158-0.657-4.886-1.488-6.251-1.354l-0.01,0.007c-0.95,0.865-2.539,2.308-4.14,4.847c-1.142,1.812-1.886,6.78-2.004,8.55
			c-0.017,0.268,0.058,0.482,0.229,0.667c0.354,0.383,1.13,0.601,2.123,0.601c1.348,0,2.761-0.405,3.088-0.884
			c0.068-0.104,0.058-0.172,0.037-0.226c-1.541-3.924,3.553-8.504,6.289-10.965c0.479-0.43,0.883-0.794,1.172-1.079L129.638,738.016
			z"/>
	</g>
</g>
<g>
	<g>
		<path class="human" id="Right_anterior_3rd_Phalange" fill="#B5B5B5" d="M117.944,735.632c-1.003,0.869-3.37,2.892-4.708,5.666
			c-1.125,2.334-1.773,5.422-1.542,7.75c0.152,1.521,5.125,2.666,5.291,1c0.157-1.576,0.833-6.75,2.042-8.666
			c1.658-2.631,3.333-4.125,4.25-4.959C121.381,735.964,118.851,735.62,117.944,735.632z"/>
		<path fill="#000000" d="M111.444,749.069c-0.233-2.331,0.382-5.429,1.565-7.885c1.337-2.771,3.705-4.821,4.716-5.697l0.171-0.107
			h0.094c0.967,0,3.459,0.341,5.346,0.798l0.457,0.111l-0.416,0.378c-0.95,0.865-2.539,2.308-4.139,4.847
			c-1.082,1.714-1.783,6.35-2.005,8.56c-0.065,0.665-0.711,1.046-1.771,1.046l0,0C113.945,751.118,111.568,750.303,111.444,749.069z
			 M118.037,735.883c-0.998,0.863-3.291,2.859-4.574,5.523c-1.131,2.343-1.741,5.4-1.52,7.613c0.076,0.746,1.951,1.599,3.52,1.599
			l0,0c0.365,0,1.22-0.061,1.273-0.597c0.026-0.266,0.666-6.532,2.079-8.773c1.478-2.342,2.995-3.819,3.94-4.688
			C121.053,736.183,118.97,735.901,118.037,735.883z"/>
	</g>
</g>
<g>
	<g>
		<path class="human" id="Right_anterior_4th_Phalange" fill="#B5B5B5" d="M117.944,735.632c-1.003,0.869-3.37,2.892-4.708,5.666
			c-1.125,2.334-1.773,5.422-1.542,7.75c0.152,1.521-4.958-1-4.792-2.666c0.157-1.578,0.756-5.08,1.959-7
			c1.625-2.592,2.708-3.167,3.583-3.979C113.278,734.974,117.194,735.401,117.944,735.632z"/>
		<path fill="#000000" d="M107.256,747.708c-0.44-0.485-0.642-0.94-0.601-1.354c0.175-1.729,0.787-5.178,1.996-7.105
			c1.31-2.089,2.282-2.898,3.062-3.545c0.199-0.165,0.385-0.32,0.563-0.486l0.058-0.039c0.273-0.142,0.793-0.21,1.582-0.21
			c1.502,0,3.559,0.257,4.104,0.424l0.434,0.134l-0.396,0.344c-0.989,0.854-3.303,2.855-4.594,5.538
			c-1.131,2.344-1.741,5.401-1.52,7.614c0.028,0.265-0.066,0.429-0.148,0.52c-0.137,0.151-0.352,0.229-0.635,0.229
			C110.127,749.768,108.191,748.749,107.256,747.708z M113.914,735.465c-0.85,0-1.191,0.084-1.328,0.144
			c-0.176,0.163-0.361,0.316-0.557,0.479c-0.753,0.626-1.689,1.405-2.955,3.426c-1.162,1.856-1.767,5.321-1.923,6.894
			c-0.026,0.266,0.138,0.601,0.472,0.971c0.906,1.001,2.732,1.893,3.537,1.893c0.192,0,0.25-0.048,0.264-0.063
			c0.025-0.028,0.027-0.087,0.021-0.131c-0.232-2.332,0.381-5.429,1.565-7.885c1.211-2.512,3.266-4.43,4.395-5.42
			C116.584,735.627,115.063,735.469,113.914,735.465z"/>
	</g>
</g>
<g>
	<g>
		<path class="human" id="Right_anterior_5th_Phalange" fill="#B5B5B5" d="M107.088,734.339c-0.689,1.156-2.958,5.125-2.748,9.209
			c0.078,1.527,2.166,4.332,2.318,2.666c0.144-1.576,0.713-4.912,1.819-6.832c1.494-2.594,2.633-3.386,3.438-4.199
			C110.134,735.151,107.92,734.526,107.088,734.339z"/>
		<path fill="#000000" d="M104.108,743.56c-0.194-3.753,1.661-7.473,2.785-9.355l0.085-0.146l0.154,0.034
			c0.142,0.032,0.324,0.077,0.536,0.129c1.045,0.256,2.791,0.688,4.248,0.71l0.572,0.011l-0.419,0.426
			c-0.15,0.15-0.312,0.303-0.484,0.465c-0.763,0.713-1.715,1.602-2.914,3.684c-1.099,1.911-1.65,5.235-1.785,6.727
			c-0.062,0.67-0.406,0.732-0.56,0.735C105.485,746.976,104.173,744.768,104.108,743.56z M107.566,734.71
			c-0.137-0.033-0.264-0.065-0.374-0.091c-1.098,1.874-2.807,5.394-2.625,8.915c0.058,1.135,1.304,2.938,1.756,2.938
			c0.052,0,0.088-0.142,0.101-0.285c0.144-1.529,0.711-4.95,1.856-6.938c1.238-2.149,2.258-3.103,3.005-3.797
			c0.017-0.02,0.034-0.032,0.051-0.048C109.975,735.3,108.499,734.938,107.566,734.71z"/>
	</g>
</g>
<g>
	<g>
		<path class="human" id="Right_anterior_Ankle" fill="#B5B5B5" d="M129.43,677.539c1.666,1.5,20.417-2.916,22.917-3.748
			c-0.249,5.75,3.334,28.957,3.501,33.291c-11.063-10.938-27.313-10.438-29.084-5.709
			C127.036,700.145,129.931,693.207,129.43,677.539z"/>
		<path fill="#000000" d="M156.123,707.705l-0.45-0.445c-8.281-8.188-17.92-8.824-20.677-8.824c-4.17,0-7.309,1.188-7.998,3.025
			l-0.478-0.142c0.035-0.157,0.11-0.404,0.216-0.748c0.713-2.313,2.881-9.345,2.444-23.024l-0.019-0.586l0.436,0.396
			c0.082,0.07,0.391,0.241,1.502,0.241c4.857,0,18.861-3.273,21.168-4.044l0.345-0.111l-0.016,0.359
			c-0.152,3.516,1.151,13.712,2.199,21.907c0.664,5.195,1.237,9.682,1.302,11.363L156.123,707.705z M134.996,697.936
			c2.754,0,12.255,0.624,20.564,8.521c-0.151-2.003-0.67-6.063-1.26-10.683c-1.017-7.957-2.275-17.802-2.212-21.643
			c-2.885,0.854-16.006,3.965-20.987,3.965c-0.619,0-1.081-0.049-1.407-0.146c0.349,12.299-1.407,19.18-2.259,22.048
			C128.851,698.699,131.565,697.936,134.996,697.936z"/>
	</g>
</g>
<g>
	<g>
		<path class="human" id="Right_Knee_Cap" fill="#B5B5B5" d="M122.276,509.791c13.084-1.666,29.5,5,42,12.334
			c-2.333,13.666-2.333,16.25-1.833,22.75c-13.083,7.75-21.166,16.75-37.5,2.582C123.86,535.25,122.943,526.125,122.276,509.791z"/>
		<path fill="#000000" d="M140.829,555.162c-5.037,0-10.137-2.388-16.049-7.52l-0.077-0.063l-0.359-4.021
			c-0.925-10.309-1.724-19.211-2.318-33.76l-0.009-0.229l0.228-0.029c1.355-0.173,2.788-0.26,4.257-0.26
			c14.252,0,29.864,7.908,37.901,12.626l0.149,0.088l-0.029,0.17c-2.36,13.823-2.323,16.284-1.831,22.688l0.012,0.155l-0.134,0.079
			c-1.764,1.045-3.437,2.112-5.054,3.146C151.692,551.952,146.662,555.162,140.829,555.162z M125.184,547.334
			c5.783,4.999,10.757,7.328,15.645,7.328c5.688,0,10.661-3.174,16.419-6.85c1.581-1.011,3.213-2.053,4.935-3.073
			c-0.483-6.313-0.503-8.865,1.819-22.486c-8.036-4.699-23.452-12.47-37.499-12.47c-1.366,0-2.7,0.076-3.966,0.228
			c0.593,14.4,1.387,23.258,2.307,33.505L125.184,547.334z"/>
	</g>
</g>
<g>
	<g>
		<path class="human" id="Right_Shin" fill="#B5B5B5" d="M129.442,677.457c1.666,1.5,20.417-2.916,22.917-3.748
			c1.083-17.584,5.751-39.834,12.917-73.584c3.793-17.865-2.166-51.25-2.833-55.25c-13.083,7.75-21.166,16.75-37.5,2.582
			c-1.833,9.293-5.233,35.867-2.833,59.418C126.11,646.125,128.526,660.457,129.442,677.457z"/>
		<path fill="#000000" d="M131.112,678.016L131.112,678.016c-0.971,0-1.555-0.115-1.837-0.373l-0.077-0.066l-0.005-0.104
			c-0.533-9.881-1.568-18.828-3.136-32.371c-1.124-9.7-2.521-21.775-4.195-38.196c-2.487-24.399,1.204-51.22,2.836-59.492
			l0.083-0.423l0.325,0.283c5.816,5.044,10.812,7.394,15.722,7.394c5.688,0,10.661-3.174,16.419-6.849
			c1.621-1.035,3.297-2.104,5.068-3.153l0.314-0.188l0.167,0.99c2.38,14.019,5.899,39.761,2.725,54.713
			c-6.854,32.283-11.807,55.608-12.912,73.548l-0.01,0.168l-0.16,0.057C150.475,674.6,136.33,678.016,131.112,678.016z
			 M129.686,677.322c0.153,0.081,0.528,0.19,1.427,0.19c4.756,0,18.279-3.141,21.008-3.989c1.128-17.953,6.074-41.249,12.911-73.45
			c3.157-14.871-0.354-40.545-2.728-54.525l-0.046-0.271c-1.649,0.982-3.219,1.984-4.741,2.958
			c-5.825,3.718-10.854,6.928-16.688,6.928c-4.944,0-9.948-2.301-15.722-7.234c-1.666,8.71-5.188,34.983-2.748,58.922
			c1.673,16.418,3.071,28.491,4.194,38.192C128.116,658.539,129.15,667.474,129.686,677.322z"/>
	</g>
</g>
<g>
	<g>
		<path class="human" id="Left_supraclavicular_fossa" fill="#B5B5B5" d="M213.367,139.708c13.5,0.792,30.626-6.208,30.626-6.208
			c-10.084-3.5-12.001-3.669-17.334-6.083c-7.917-3.583-12.584-2.583-13.292-8.667C213.201,122.416,213.617,127.875,213.367,139.708
			z"/>
		<path fill="#000000" d="M215.564,140.021c-0.002,0-0.002,0-0.002,0c-0.756,0-1.5-0.021-2.211-0.063l-0.24-0.014l0.006-0.241
			c0.146-6.912,0.064-11.658,0.005-15.123c-0.043-2.502-0.074-4.311-0.005-5.842l0.498-0.018c0.479,4.109,2.768,4.839,6.923,6.165
			c1.805,0.576,3.851,1.229,6.226,2.303c3.27,1.479,5.287,2.125,8.635,3.195c2.139,0.683,4.795,1.532,8.68,2.879l0.625,0.217
			l-0.612,0.25C243.934,133.794,228.552,140.021,215.564,140.021z M213.622,139.472c0.628,0.032,1.278,0.049,1.94,0.049
			c11.402,0,24.692-4.848,27.709-6.006c-3.533-1.218-6.014-2.011-8.025-2.654c-3.364-1.075-5.396-1.724-8.689-3.216
			c-2.349-1.063-4.379-1.71-6.17-2.282c-3.471-1.107-5.807-1.853-6.81-4.561c-0.001,1.072,0.021,2.301,0.045,3.771
			C213.682,128,213.762,132.68,213.622,139.472z"/>
	</g>
</g>
<g>
	<g>
		<path class="human" id="Right_supraclavicular_fossa" fill="#B5B5B5" d="M162.867,138.687c-15.75-0.5-27.292-6.854-27.292-6.854
			c10.083-3.5,10.917-4.5,15.583-6.667c7.022-3.26,10.083-4.979,11.455-10.75C162.78,118.083,163.034,126.687,162.867,138.687z"/>
		<path fill="#000000" d="M163.114,138.945l-0.254-0.008c-15.629-0.496-27.288-6.821-27.404-6.885l-0.492-0.271l0.531-0.185
			c7.424-2.577,9.859-3.814,12.437-5.124c0.932-0.474,1.896-0.963,3.123-1.533c6.86-3.185,9.951-4.835,11.317-10.582l0.412-1.735
			l0.081,1.781c0.106,2.344,0.438,11.024,0.254,24.286L163.114,138.945z M136.207,131.878c2.384,1.196,12.87,6.064,26.414,6.551
			c0.149-11.042-0.061-18.865-0.193-22.446c-1.616,4.783-4.946,6.524-11.163,9.41c-1.219,0.566-2.179,1.054-3.107,1.525
			C145.628,128.204,143.236,129.419,136.207,131.878z"/>
	</g>
</g>
<g>
	<g>
		<g>
			<path class="human" id="Anterior_cervical" fill="#B5B5B5" d="M213.992,139.5c0,0-43.825,4-51.825-0.333c-0.583-3.583,1.271-37.979,1.271-37.979
				s13.438,13.021,25.625,12.688c11.382-0.312,24.305-14.501,24.305-14.501L213.992,139.5z"/>
			<path fill="#000000" d="M180.413,141.558c-9.7,0-15.899-0.694-18.425-2.062l-0.162-0.087l-0.03-0.182
				c-0.583-3.582,1.19-36.653,1.266-38.059l0.044-0.822l0.591,0.572c0.132,0.128,13.492,12.907,25.354,12.582
				c11.095-0.304,23.91-14.238,24.038-14.378l0.638-0.7l0.645,41.42l-0.346,0.032C213.842,139.89,195.396,141.558,180.413,141.558z
				 M162.513,138.923c2.52,1.25,8.54,1.885,17.9,1.885c13.817,0,30.592-1.422,33.198-1.651l-0.604-38.854
				c-2.769,2.874-13.83,13.67-23.934,13.947c-10.909,0.329-22.544-9.713-25.304-12.238
				C163.5,107.125,162.065,134.947,162.513,138.923z"/>
		</g>
	</g>
</g>
<g>
	<path class="human" id="Left_anterior_1st_metatarsal" fill="#B5B5B5" stroke="#000000" stroke-width="0.5" stroke-miterlimit="10" d="
		M229.625,729.001c0,0,1.219,1.218,0.609,7.312c-0.127,1.258-0.328,5.906,2.483,8.095c1.531-1.406,4.845-4.375,10.845-6.281
		c-0.324-0.618-3.074-4.998-4.156-6.531c-1.125-1.595-3.133-6.241-3.646-6.209C235.249,725.418,229.625,729.001,229.625,729.001z"/>
</g>
<g>
	<path class="human" id="Left_anterior_2nd_metatarsal" fill="#B5B5B5" stroke="#000000" stroke-width="0.5" stroke-miterlimit="10" d="
		M240.95,723.479c0,0,3.628,6.201,4.042,6.689s4.758,6.238,4.633,6.332s-5.938,1.719-6.063,1.625s-4.281-6.281-4.531-6.813
		c-0.25-0.532-3.352-5.699-3.271-5.929C235.843,725.155,240.95,723.479,240.95,723.479z"/>
</g>
<g>
	<path class="human" id="Left_anterior_3rd_metatarsal" fill="#B5B5B5" stroke="#000000" stroke-width="0.5" stroke-miterlimit="10" d="
		M246.95,722.063c0,0,3.628,6.2,4.042,6.688s4.977,6.749,4.852,6.843c-0.125,0.095-5.927,1.167-6.052,1.073s-4.667-6.26-4.917-6.791
		s-4.02-6.21-3.938-6.438C241.02,723.21,246.95,722.063,246.95,722.063z"/>
</g>
<g>
	<path class="human" id="Left_anterior_4th_metatarsal" fill="#B5B5B5" stroke="#000000" stroke-width="0.5" stroke-miterlimit="10" d="
		M252.375,721.188c0,0,3.42,6.616,3.834,7.104s5.916,6.614,5.791,6.708s-6,0.75-6.125,0.656s-4.594-6.124-4.844-6.655
		s-4.082-6.835-4-7.063C247.113,721.71,252.375,721.188,252.375,721.188z"/>
</g>
<g>
	<path class="human" id="Left_anterior_5th_metatarsal" fill="#B5B5B5" stroke="#000000" stroke-width="0.5" stroke-miterlimit="10" d="
		M255.667,720.834c0,0,5.795,6.512,6.209,7s5.666,6.552,5.541,6.646c-0.125,0.094-5.208,0.655-5.333,0.563s-5.583-6.26-5.833-6.791
		s-3.707-6.771-3.625-7S255.667,720.834,255.667,720.834z"/>
</g>
<g>
	<path class="human" id="Right_anterior_1st_metatarsal" fill="#B5B5B5" stroke="#000000" stroke-width="0.5" stroke-miterlimit="10" d="
		M145.044,728.876c0,0-1.219,1.218-0.609,7.312c0.126,1.258,0.328,5.906-2.484,8.095c-1.531-1.406-4.844-4.375-10.844-6.281
		c0.324-0.618,3.074-4.998,4.156-6.531c1.125-1.595,3.133-6.241,3.645-6.209C139.42,725.293,145.044,728.876,145.044,728.876z"/>
</g>
<g>
	<path class="human" id="Right_anterior_2nd_metatarsal" fill="#B5B5B5" stroke="#000000" stroke-width="0.5" stroke-miterlimit="10" d="
		M133.719,723.354c0,0-3.628,6.201-4.042,6.689c-0.414,0.488-4.758,6.238-4.633,6.332s5.938,1.719,6.063,1.625
		s4.281-6.281,4.531-6.813c0.25-0.532,3.352-5.699,3.27-5.929C138.826,725.03,133.719,723.354,133.719,723.354z"/>
</g>
<g>
	<path class="human" id="Right_anterior_3rd_metatarsal" fill="#B5B5B5" stroke="#000000" stroke-width="0.5" stroke-miterlimit="10" d="
		M127.719,721.938c0,0-3.628,6.2-4.042,6.688c-0.414,0.488-4.977,6.749-4.852,6.843c0.125,0.095,5.927,1.167,6.052,1.073
		s4.667-6.26,4.917-6.791s4.02-6.21,3.938-6.438C133.65,723.085,127.719,721.938,127.719,721.938z"/>
</g>
<g>
	<path class="human" id="Right_anterior_4th_metatarsal" fill="#B5B5B5" stroke="#000000" stroke-width="0.5" stroke-miterlimit="10" d="
		M122.294,721.063c0,0-3.42,6.616-3.834,7.104s-5.916,6.614-5.791,6.708s6,0.75,6.125,0.656s4.594-6.124,4.844-6.655
		s4.082-6.835,4-7.063C127.556,721.585,122.294,721.063,122.294,721.063z"/>
</g>
<g>
	<path class="human" id="Left_groin" fill="#B5B5B5" stroke="#000000" stroke-width="0.5" stroke-miterlimit="10" d="M189.875,382.875l1.917,1.792
		c0,0,12.281-20.111,21.875-33.667c5.44-7.688,8.697-12.532,12.667-15.083c4.938-3.173,10.787-3.133,21.042-4.542
		c0.375-0.375-0.043-2.875-0.751-2.625c-1.75,0.75-19.438,1.438-23.438,5.25C215.271,340.417,201,361.75,189.875,382.875z"/>
</g>
<g>
	<path class="human" id="Right_Anterior_Thigh" fill="#B5B5B5" stroke="#000000" stroke-width="0.5" stroke-miterlimit="10" d="M121.87,510.334
		c13.084-1.668,29.5,5,42,12.334c19.334-90.502,13.534-126.293,19.284-137.543c-7.125-10.292-13.745-21.775-23.292-35.125
		c-4.488-6.275-7.536-10.876-12-13.667c-4.693-2.934-10.924-3.905-20.834-4.375c-1.625,13.75-10.635,44.034-12.749,77.292
		C111.867,447.182,117.029,489,121.87,510.334z"/>
</g>
<g>
	<path class="human" id="Right_groin" fill="#B5B5B5" stroke="#000000" stroke-width="0.5" stroke-miterlimit="10" d="M184.654,383.375
		l-1.917,1.792c0,0-12.281-20.111-21.875-33.667c-5.44-7.688-8.697-12.532-12.667-15.083c-4.938-3.173-10.787-3.133-21.042-4.542
		c-0.375-0.375,0.043-2.875,0.751-2.625c1.75,0.75,19.438,1.438,23.438,5.25C159.257,340.917,173.529,362.25,184.654,383.375z"/>
</g>
<g>
	<path class="human" id="Right_anterior_5th_metatarsal" fill="#B5B5B5" stroke="#000000" stroke-width="0.5" stroke-miterlimit="10" d="
		M119.002,720.709c0,0-5.795,6.512-6.209,7s-5.666,6.552-5.541,6.646c0.125,0.094,5.208,0.655,5.333,0.563s5.583-6.26,5.833-6.791
		s3.707-6.771,3.625-7S119.002,720.709,119.002,720.709z"/>
</g>
<g>
	<g>
		<path class="human" id="Left_anterior_Proximal_Thumb" fill="#B5B5B5" d="M342.315,381.834c0,0,3.342-8.518,2.852-9.749
			c-0.572-1.457-4.787-4.417-8.128-6.069c-2.216,1.808-2.104,7.057,0.329,11.472C339.387,378.108,342.315,381.834,342.315,381.834z"
			/>
		<path fill="#000000" d="M342.408,382.341l-0.291-0.327c-0.03-0.033-2.902-3.677-4.83-4.268l-0.108-0.031l-0.053-0.098
			c-2.478-4.495-2.594-9.902-0.256-11.811l0.134-0.111l0.155,0.077c2.857,1.413,7.597,4.53,8.258,6.213
			c0.507,1.265-2.298,8.521-2.848,9.945L342.408,382.341z M337.549,377.265c1.708,0.587,3.859,3.216,4.669,4.067
			c1.238-3.247,3.009-8.355,2.694-9.147c-0.505-1.287-4.406-4.132-7.834-5.847C335.121,368.152,335.326,373.162,337.549,377.265z"/>
	</g>
</g>
<g>
	<g>
		<path class="human" id="Left_anterior_Distal_Thumb_1_" fill="#B5B5B5" d="M342.405,381.834l2.854-9.749c0,0,13.313,14.843,8.483,17.257
			C350.026,391.199,342.405,381.834,342.405,381.834z"/>
		<path fill="#000000" d="M353.631,389.891c-4.2,0-11.115-7.539-11.424-7.875l-0.104-0.111l3.02-10.34l0.324,0.333
			c0.479,0.49,11.22,11.806,10.469,16.264c-0.111,0.668-0.476,1.162-1.082,1.465C354.484,389.799,354.079,389.891,353.631,389.891z
			 M342.708,381.761c0.911,0.966,7.215,7.589,10.923,7.589c0.364,0,0.689-0.07,0.965-0.209c0.449-0.224,0.705-0.572,0.788-1.072
			c0.639-3.785-8.134-13.499-9.997-15.457L342.708,381.761z"/>
	</g>
</g>
<g>
	<g>
		<path class="human" id="Left_anterior_UpperPalm" fill="#B5B5B5" stroke="#000000" stroke-width="0.5" stroke-miterlimit="10" d="
			M340.047,389.205c-16.256,6.118-20.644,6.508-37.453,6.326c0.172,0.545,2.252,7.85,2.469,8.405
			c7.864,2.263,26.313,0.125,36.375-5.938C340.445,393.297,340.274,390.896,340.047,389.205z"/>
	</g>
</g>
<g>
	<path class="human" id="Left_anterior_Thenar" fill="#B5B5B5" stroke="#000000" stroke-width="0.5" stroke-miterlimit="10" d="M313.563,366.188
		c0,0,13.659-4.264,14.188-4.781c0.529-0.517,9.903,4.484,9.903,5.205c0,0.72-0.899,9-0.182,13.861
		c0.722,4.861,2.479,7.235,2.565,8.675c-0.945,1.418-17.89,5.638-17.89,5.638L313.563,366.188z"/>
</g>
<g>
	<path class="human" id="Left_anterior_Hypothenar" fill="#B5B5B5" stroke="#000000" stroke-width="0.5" stroke-miterlimit="10" d="M313.563,366.5
		c0,0-13.396,4.61-13.938,4.813c-0.691,0.26,0.482,10.41,1.208,15.271c0.669,4.489,1.183,7.841,1.75,9.167
		c1.288,0.562,19.565-0.966,19.565-0.966L313.563,366.5z"/>
</g>
<g>
	<path class="human" id="Left_anterior_Middle_Palm" fill="#B5B5B5" stroke="#000000" stroke-width="0.5" stroke-miterlimit="10" d="
		M326.043,378.214c1.947,6.652-0.244,13.147-4.896,14.511c-4.653,1.359-10.004-2.929-11.949-9.584
		c-1.947-6.648,0.246-13.145,4.899-14.507C318.748,367.273,324.096,371.563,326.043,378.214z"/>
</g>
<g>
	<path class="human" id="Left_anterior_Wrist" fill="#B5B5B5" stroke="#000000" stroke-width="0.5" stroke-miterlimit="10" d="M319.688,349.75
		c-2.121,0.498-11.742,2.538-23.5,6.5c0.85,2.622,1.625,6.5,2.125,10.5c2.813-5.813,19.188-11.688,25.069-8.545
		C322,356.125,320.508,351.872,319.688,349.75z"/>
</g>
<g>
	<path class="human" id="Left_anterior_Lower_Palm" fill="#B5B5B5" stroke="#000000" stroke-width="0.5" stroke-miterlimit="10" d="
		M323.334,357.917c-5.996-2.365-21.452,2.438-24.5,8.167c-0.788,1.481,0.527,4.271,0.479,5.792
		c1.375-1.188,28.563-10.375,28.938-10.583C326.867,360.803,325.369,358.72,323.334,357.917z"/>
</g>
<g>
	<path class="human" id="Left_anterior_Little_Middle_phalanx" fill="#B5B5B5" stroke="#000000" stroke-width="0.5" stroke-miterlimit="10" d="
		M306.414,411.906c0.383,2.456,0.827,4.791,1.248,5.782c1.688,0.562,3.563,1.062,6.563,1.25c-0.067-1.495-0.398-4.082-0.81-6.696
		L306.414,411.906z"/>
</g>
<g>
	<path class="human" id="Left_anterior_Little_proximal_phalanx" fill="#B5B5B5" stroke="#000000" stroke-width="0.5" stroke-miterlimit="10" d="
		M311.975,404.751c-3.757-0.115-6.582-0.604-6.582-0.604s0.439,4.021,1.021,7.759l7.002,0.336
		C312.947,409.249,312.376,406.219,311.975,404.751z"/>
</g>
<g>
	<path class="human" id="Left_anterior_Ring_proximal_phalanx" fill="#B5B5B5" stroke="#000000" stroke-width="0.5" stroke-miterlimit="10" d="
		M322.809,404.231c-4.521,0.563-8.833,0.706-8.833,0.706s0.816,3.877,1.65,7.837l8.903,0.177
		C323.899,409.395,323.175,405.805,322.809,404.231z"/>
</g>
<g>
	<path class="human" id="Left_anterior_Ring_Middle_phalanx" fill="#B5B5B5" stroke="#000000" stroke-width="0.5" stroke-miterlimit="10" d="
		M315.626,412.774c0.7,3.329,1.413,6.719,1.662,7.913c2.077,0.619,4.685,0.046,8.375,0.25c-0.085-1.663-0.572-4.813-1.134-7.986
		L315.626,412.774z"/>
</g>
<g>
	<path class="human" id="Left_anterior_Middle_proximal_phalanx" fill="#B5B5B5" stroke="#000000" stroke-width="0.5" stroke-miterlimit="10" d="
		M332.663,401.688c-4.5,1.438-8.5,2.188-8.5,2.188s0.887,4.616,1.756,9.098l8.119-1.055
		C333.554,407.846,333.067,403.43,332.663,401.688z"/>
</g>
<g>
	<path class="human" id="Left_anterior_Middle_Middle_phalanx" fill="#B5B5B5" stroke="#000000" stroke-width="0.5" stroke-miterlimit="10" d="
		M335.038,419.001c-0.313-1.456-0.655-4.183-1-7.082l-8.119,1.055c0.666,3.435,1.321,6.787,1.558,7.925
		C329.727,420.314,331.413,419.897,335.038,419.001z"/>
</g>
<g>
	<path class="human" id="Left_anterior_Index_Middle_phalanx" fill="#B5B5B5" stroke="#000000" stroke-width="0.5" stroke-miterlimit="10" d="
		M336.314,410.753c0.753,3.016,1.443,5.833,1.66,6.873c1.828-0.875,4-2.609,6.75-4.188c-0.069-1.379-0.478-3.701-0.986-6.196
		L336.314,410.753z"/>
</g>
<g>
	<path class="human" id="Left_anterior_Index_proximal_phalanx" fill="#B5B5B5" stroke="#000000" stroke-width="0.5" stroke-miterlimit="10" d="
		M341.477,397.231c-4.167,2.334-7.955,4.352-7.955,4.352s1.653,4.604,2.794,9.17l7.424-3.512
		C342.943,403.353,341.898,399.046,341.477,397.231z"/>
</g>
<g>
	<g>
		<path class="human" id="Right_anterior_Little_Distal_phalanx" fill="#B5B5B5" d="M60.456,418.939c3-0.188,4.875-0.688,6.563-1.25
			c-0.604,2.959-1.838,7.647-3.813,7.459C61.616,424.996,60.269,422.691,60.456,418.939z"/>
	</g>
</g>
<g>
	<g>
		<path class="human" id="Right_anterior_Ring_Distal_phalanx" fill="#B5B5B5" d="M49.019,420.939c3.69-0.205,6.25-0.041,8.375-0.25
			c-0.744,3.254-3.166,13.125-6.5,12.875C47.399,433.303,48.269,425.189,49.019,420.939z"/>
	</g>
</g>
<g>
	<g>
		<path class="human" id="Right_anterior_Middle_Distal_phalanx" fill="#B5B5B5" stroke="#000000" stroke-width="0.5" stroke-miterlimit="10" d="
			M39.644,419.002c3.459,0.836,5.396,1.313,7.562,1.896c-0.744,3.254-2,12.668-6,12.668
			C37.701,433.566,38.894,423.252,39.644,419.002z"/>
	</g>
</g>
<g>
	<g>
		<path class="human" id="Right_anterior_Proximal_Thumb_1_" fill="#B5B5B5" d="M32.366,381.835c0,0-3.342-8.518-2.852-9.749
			c0.572-1.457,4.787-4.416,8.128-6.068c2.216,1.809,2.104,7.057-0.329,11.473C35.295,378.109,32.366,381.835,32.366,381.835z"/>
		<path fill="#000000" d="M32.112,381.932c-0.55-1.425-3.354-8.681-2.848-9.945c0.661-1.683,5.399-4.8,8.258-6.213l0.155-0.077
			l0.134,0.11c2.338,1.909,2.222,7.316-0.256,11.812l-0.053,0.098l-0.108,0.03c-1.928,0.592-4.8,4.233-4.83,4.269l-0.291,0.327
			L32.112,381.932z M37.604,366.34c-3.428,1.714-7.329,4.559-7.834,5.846c-0.314,0.792,1.456,5.9,2.694,9.147
			c0.81-0.852,2.961-3.48,4.669-4.067C39.355,373.163,39.561,368.152,37.604,366.34z"/>
	</g>
</g>
<g>
	<g>
		<path class="human" id="Right_anterior_Distal_Thumb" fill="#B5B5B5" d="M32.276,381.835l-2.854-9.749c0,0-13.923,14.773-9.094,17.188
			C24.045,391.131,32.276,381.835,32.276,381.835z"/>
		<path fill="#000000" d="M19.237,389.557c-0.606-0.303-0.971-0.797-1.082-1.465c-0.751-4.458,10.601-15.705,11.079-16.195
			l0.324-0.332l3.019,10.339l-0.103,0.113c-0.309,0.336-7.834,7.805-12.034,7.805C19.992,389.82,19.587,389.73,19.237,389.557z
			 M29.295,372.613C27.432,374.57,18.05,384.214,18.688,388c0.083,0.5,0.339,0.85,0.788,1.072c0.275,0.138,0.601,0.209,0.965,0.209
			c3.708,0,10.622-6.555,11.533-7.52L29.295,372.613z"/>
	</g>
</g>
<g>
	<g>
		<path class="human" id="Right_anterior_UpperPalm" fill="#B5B5B5" stroke="#000000" stroke-width="0.5" stroke-miterlimit="10" d="
			M34.635,389.206c16.256,6.118,20.644,6.508,37.453,6.326c-0.172,0.545-2.251,7.85-2.469,8.405
			c-7.864,2.263-26.313,0.125-36.375-5.938C34.236,393.298,34.407,390.898,34.635,389.206z"/>
	</g>
</g>
<g>
	<path class="human" id="Right_anterior_Thenar" fill="#B5B5B5" stroke="#000000" stroke-width="0.5" stroke-miterlimit="10" d="M61.119,366.188
		c0,0-13.659-4.264-14.188-4.781c-0.529-0.517-9.903,4.484-9.903,5.204c0,0.721,0.899,9.001,0.181,13.861
		c-0.721,4.861-2.478,7.235-2.565,8.674c0.945,1.418,17.89,5.639,17.89,5.639L61.119,366.188z"/>
</g>
<g>
	<path class="human" id="Right_anterior_Hypothenar" fill="#B5B5B5" stroke="#000000" stroke-width="0.5" stroke-miterlimit="10" d="
		M61.119,366.501c0,0,13.397,4.61,13.938,4.813c0.692,0.26-0.483,10.411-1.208,15.271c-0.669,4.489-1.182,7.841-1.75,9.167
		c-1.288,0.563-19.565-0.966-19.565-0.966L61.119,366.501z"/>
</g>
<g>
	<path class="human" id="Right_anterior_Middle_Palm" fill="#B5B5B5" stroke="#000000" stroke-width="0.5" stroke-miterlimit="10" d="
		M48.639,378.215c-1.947,6.652,0.244,13.146,4.897,14.512c4.653,1.359,10.003-2.929,11.949-9.584
		c1.947-6.647-0.246-13.145-4.9-14.507C55.934,367.274,50.586,371.563,48.639,378.215z"/>
</g>
<g>
	<path class="human" id="Right_anterior_Wrist" fill="#B5B5B5" stroke="#000000" stroke-width="0.5" stroke-miterlimit="10" d="M54.994,349.751
		c2.122,0.497,11.743,2.538,23.5,6.5c-0.849,2.622-1.625,6.5-2.125,10.5c-2.813-5.813-19.188-11.688-25.069-8.545
		C52.682,356.126,54.174,351.873,54.994,349.751z"/>
</g>
<g>
	<path class="human" id="Right_anterior_Lower_Palm" fill="#B5B5B5" stroke="#000000" stroke-width="0.5" stroke-miterlimit="10" d="
		M51.348,357.918c5.996-2.365,21.452,2.438,24.5,8.166c0.788,1.482-0.528,4.271-0.479,5.792
		c-1.375-1.188-28.563-10.375-28.938-10.583C47.814,360.804,49.313,358.721,51.348,357.918z"/>
</g>
<g>
	<g>
		<path class="human" id="Right_anterior_Index_Distal_phalanx" fill="#B5B5B5" stroke="#000000" stroke-width="0.5" stroke-miterlimit="10" d="
			M29.956,413.439c2.768,1.672,4.875,3.141,6.75,4.188c-0.744,3.256-1.876,10.939-5.876,10.939
			C27.326,428.566,29.206,417.689,29.956,413.439z"/>
	</g>
</g>
<g>
	<path class="human" id="Right_anterior_Little_Middle_phalanx" fill="#B5B5B5" stroke="#000000" stroke-width="0.5" stroke-miterlimit="10" d="
		M68.268,411.907c-0.383,2.456-0.827,4.791-1.248,5.782c-1.688,0.562-3.563,1.062-6.563,1.25c0.068-1.495,0.399-4.082,0.81-6.696
		L68.268,411.907z"/>
</g>
<g>
	<path class="human" id="Right_anterior_Little_proximal_phalanx" fill="#B5B5B5" stroke="#000000" stroke-width="0.5" stroke-miterlimit="10" d="
		M62.707,404.752c3.757-0.115,6.583-0.604,6.583-0.604s-0.44,4.021-1.022,7.759l-7.002,0.336
		C61.734,409.25,62.306,406.22,62.707,404.752z"/>
</g>
<g>
	<path class="human" id="Right_anterior_Ring_proximal_phalanx" fill="#B5B5B5" stroke="#000000" stroke-width="0.5" stroke-miterlimit="10" d="
		M51.873,404.232c4.521,0.563,8.833,0.707,8.833,0.707s-0.816,3.876-1.65,7.836l-8.903,0.177
		C50.782,409.396,51.507,405.806,51.873,404.232z"/>
</g>
<g>
	<path class="human" id="Right_anterior_Ring_Middle_phalanx" fill="#B5B5B5" stroke="#000000" stroke-width="0.5" stroke-miterlimit="10" d="
		M59.056,412.775c-0.7,3.33-1.413,6.719-1.662,7.914c-2.077,0.618-4.685,0.045-8.375,0.25c0.085-1.664,0.572-4.813,1.134-7.987
		L59.056,412.775z"/>
</g>
<g>
	<path class="human" id="Right_anterior_Middle_proximal_phalanx" fill="#B5B5B5" stroke="#000000" stroke-width="0.5" stroke-miterlimit="10" d="
		M42.019,401.689c4.5,1.438,8.5,2.188,8.5,2.188s-0.887,4.616-1.756,9.098l-8.119-1.055
		C41.128,407.847,41.614,403.431,42.019,401.689z"/>
</g>
<g>
	<path class="human" id="Right_anterior_Middle_Middle_phalanx" fill="#B5B5B5" stroke="#000000" stroke-width="0.5" stroke-miterlimit="10" d="
		M39.644,419.002c0.312-1.456,0.655-4.183,1-7.082l8.119,1.055c-0.666,3.435-1.321,6.787-1.558,7.925
		C44.955,420.315,43.269,419.898,39.644,419.002z"/>
</g>
<g>
	<path class="human" id="Right_anterior_Index_Middle_phalanx" fill="#B5B5B5" stroke="#000000" stroke-width="0.5" stroke-miterlimit="10" d="
		M38.367,410.754c-0.753,3.016-1.444,5.833-1.661,6.873c-1.828-0.875-4-2.609-6.75-4.188c0.07-1.38,0.478-3.702,0.987-6.197
		L38.367,410.754z"/>
</g>
<g>
	<path class="human" id="Right_anterior_Index_proximal_phalanx" fill="#B5B5B5" stroke="#000000" stroke-width="0.5" stroke-miterlimit="10" d="
		M33.205,397.232c4.167,2.334,7.956,4.352,7.956,4.352s-1.654,4.605-2.794,9.17l-7.424-3.512
		C31.738,403.354,32.783,399.047,33.205,397.232z"/>
</g>
<g>
	<g>
		<path d="M229.896,207.497c-0.658,0.167-1.076,0.34-1.506,0.37c-4.252,0.298-8.459-0.17-12.638-0.88
			c-7.065-1.201-14.093-2.712-21.194-3.627c-3.988-0.514-8.093-0.524-12.146,0.341c-5.2,1.11-10.476,1.869-15.685,2.943
			c-3.604,0.743-7.207,1.348-10.888,1.38c-1.405,0.012-2.811-0.092-4.288-0.605c0.364-0.149,0.737-0.449,1.089-0.425
			c7.535,0.512,14.724-1.471,21.952-3.077c6.821-1.517,13.705-2.335,20.654-1.599c4.505,0.477,8.951,1.505,13.422,2.297
			c6.587,1.167,13.137,2.683,19.905,2.157c0.233-0.018,0.485-0.012,0.71,0.051C229.407,206.856,229.488,207.034,229.896,207.497z"/>
		<path d="M129.227,532.379c0.29,0.846,0.633,1.4,0.647,1.965c0.057,2.283,0.852,4.416,1.868,6.322
			c1.703,3.193,4.543,5.139,8.202,3.396c1.706-0.813,3.132-1.81,3.954-3.603c0.248-0.541,0.961-0.867,1.462-1.293
			c0.18,0.119,0.36,0.238,0.54,0.359c-0.3,0.758-0.417,1.684-0.933,2.244c-1.881,2.043-3.892,3.987-6.801,4.475
			c-1.452,0.242-2.832,0.059-4.065-0.918c-1.892-1.498-3.448-3.145-4.315-5.521c-0.786-2.149-1.378-4.229-0.944-6.508
			C128.88,533.094,129.003,532.904,129.227,532.379z"/>
		<path d="M248.032,533.045c-0.29,0.846-0.634,1.4-0.646,1.965c-0.061,2.283-0.854,4.416-1.869,6.322
			c-1.703,3.193-4.543,5.139-8.201,3.395c-1.705-0.813-3.131-1.807-3.953-3.6c-0.248-0.541-0.963-0.867-1.463-1.293
			c-0.18,0.119-0.359,0.238-0.539,0.359c0.301,0.758,0.418,1.684,0.934,2.244c1.881,2.043,3.893,3.987,6.801,4.475
			c1.451,0.242,2.831,0.059,4.064-0.918c1.893-1.498,3.447-3.146,4.316-5.521c0.783-2.149,1.377-4.229,0.94-6.508
			C248.38,533.76,248.256,533.57,248.032,533.045z"/>
		<path d="M294.261,267.604c0.155,0.314,0.438,0.625,0.445,0.943c0.053,2.05-0.427,3.965-1.711,5.606
			c-0.949,1.215-1.813,1.501-3.099,0.612c-1.357-0.939-2.806-2.012-3.649-3.375c-1.759-2.831-3.253-5.843-4.647-8.877
			c-0.828-1.798-1.271-3.774-1.855-5.68c-0.104-0.345-0.077-0.732-0.128-1.291c1.094,0.471,1.056,1.349,1.334,2.05
			c1.47,3.702,2.862,7.438,4.479,11.076c0.84,1.889,2.055,3.623,3.873,4.791c1.965,1.264,3.01,0.934,3.813-1.274
			c0.27-0.742,0.381-1.548,0.497-2.335c0.104-0.694,0.114-1.403,0.169-2.105C293.939,267.698,294.1,267.651,294.261,267.604z"/>
		<path d="M98.998,255.141c0.057,0.801,0.157,1.102,0.085,1.354c-1.212,4.228-2.672,8.364-4.787,12.234
			c-1.157,2.116-2.592,4.041-4.547,5.504c-2.073,1.551-3.444,1.281-4.629-0.973c-0.889-1.689-1.521-3.462-0.609-5.955
			c0.265,0.866,0.402,1.237,0.492,1.62c0.308,1.311,0.451,2.682,0.934,3.922c0.586,1.506,1.439,1.794,2.83,0.913
			c1.118-0.708,2.2-1.63,2.978-2.692c2.527-3.448,4.012-7.415,5.383-11.432C97.592,258.275,97.712,256.732,98.998,255.141z"/>
		<path d="M189.381,283.587c1.444,0.163,1.559,3.202,1.732,4.89c0.103,0.997-0.898,1.945-1.729,1.981
			c-0.854,0.037-1.745-0.807-1.751-1.912C187.627,286.756,188.496,283.487,189.381,283.587z M189.563,286.552
			c-0.164-0.152-0.521-0.113-0.67,0.056c-0.539,0.618-0.565,3.1,0.67,2.813C190.193,289.274,190.176,287.114,189.563,286.552z"/>
		<path d="M314.7,372.167c1.188,2.313,7.938,7.688,9.458,8.833C321.408,380.25,315.575,376.292,314.7,372.167z"/>
		<path d="M59.658,372.167C58.47,374.48,51.72,379.855,50.2,381C52.95,380.25,58.783,376.292,59.658,372.167z"/>
		<g>
			<path d="M194.01,140.132c3.489-3.269,7.598-2.949,11.77-2.297c0.021,0.172,0.039,0.344,0.06,0.517
				c-1.989,0.061-4.012-0.056-5.971,0.234C197.939,138.87,196.075,139.568,194.01,140.132z"/>
			<path d="M180.726,139.331c-3.11-0.412-6.219-0.822-9.324-1.233C174.042,136.778,178.353,137.371,180.726,139.331z"/>
			<path d="M175.785,93.474c2.575-1.161,5.078-1.797,7.635-2.157c0.814-0.115,1.738,0.146,2.541,0.434
				c1.65,0.593,3.244,0.497,4.917,0.096c1.286-0.308,2.692-0.655,3.947-0.432c1.989,0.354,3.897,1.17,6.087,1.87
				c-0.4,0.606-0.555,1.129-0.889,1.298c-2.692,1.368-5.416,2.676-8.137,3.989c-2.221,1.071-4.425,1.101-6.669-0.006
				c-2.846-1.403-5.737-2.716-8.591-4.105C176.333,94.317,176.157,93.921,175.785,93.474z M195.167,94.032l0.062,0.049
				c0.104-0.783,0.063-1.524-0.979-1.48c-0.938,0.04-1.935,0.051-2.793,0.369c-1.876,0.693-3.688,0.601-5.562,0.067
				c-1.207-0.345-2.525-1.27-3.414,0.606c-0.11,0.233-0.863,0.167-1.319,0.232c-0.484,0.069-0.971,0.128-1.456,0.192
				c1.82,1.354,3.729,2.25,5.614,3.188c2.2,1.095,4.372,1.109,6.571,0.005c1.873-0.939,3.768-1.836,5.649-2.753
				c-0.052-0.199-0.103-0.398-0.153-0.597C196.646,93.951,195.907,93.991,195.167,94.032z"/>
			<path d="M193.617,78.583c0.084-0.75,4.292,1.083,2.792,4.708c-0.343,0.827-3.134,1.817-4.625,0.667
				c-1.545,0.714-1.899,1.451-3.854,1.667c-1.848,0.204-3.698-0.706-4.979-1.667c-1,0.542-1.811,0.844-2.958-0.552
				c-1.131-1.376-0.688-3.781,2.125-5.75c-0.182,1.385-2.626,4.27-1.125,5.219c2.332,1.475,1.795-1.593,2.958-0.125
				c2.542,3.208,4.959,1.655,6.75,0.208c0.246-0.2,0.814-0.702,1.056-0.911c2.444,1.494,3.868,0.919,3.735-0.256
				C195.242,79.583,193.639,79.396,193.617,78.583z"/>
			<path d="M183.781,68.125c0.088-1.95,0.177-3.9,0.266-5.85c0.036-0.792-0.006-1.634,1.114-1.729l-0.016-0.033
				c-0.946,1.307-0.205,2.766-0.38,4.141c-0.151,1.188,0.42,2.603-1.006,3.419L183.781,68.125z"/>
			<path d="M191.074,67.625c-0.088-1.95-0.176-3.9-0.266-5.85c-0.035-0.792,0.006-1.634-1.113-1.729l0.016-0.033
				c0.947,1.307,0.205,2.766,0.381,4.141c0.15,1.188-0.421,2.603,1.006,3.419L191.074,67.625z"/>
			<path d="M189.947,95.625c-0.78,0-1.563,0-2.344,0c0.76-0.9,1.563-0.802,2.385-0.482
				C189.975,95.303,189.961,95.464,189.947,95.625z"/>
			<path d="M195.167,94.032c-0.974,0.944-2.065,1.041-3.228,0.635c-0.02-0.168-0.033-0.337-0.049-0.505
				c1.106-0.029,2.219-0.058,3.332-0.083C195.229,94.081,195.167,94.032,195.167,94.032z"/>
			<path d="M184.077,94.298c0.533,0,1.066,0,1.599,0c0.023,0.114,0.047,0.227,0.069,0.34c-0.236,0.068-0.473,0.196-0.708,0.191
				c-0.332-0.007-0.662-0.111-0.993-0.173C184.056,94.537,184.066,94.418,184.077,94.298z"/>
			<g>
				<path d="M193.613,55.658c3.129-2.471,8.479-3.949,12.879-3.325c1.26,0.179,6.5,1.667,8.574,5.211
					c0.051,0.084-0.096,0.276-0.151,0.417c-0.146,0.037-0.386,0.149-0.423,0.101c-1.639-2.085-4.499-3.309-7.036-3.659
					c-1.991-0.275-3.851,0.788-5.714,1.097s-3.73-0.135-5.701,0.345C195.341,56.015,194.673,56.772,193.613,55.658z"/>
				<path d="M196.898,64.375c1.438-2.313,3.271-4.883,6.406-4.438c0.896,0.127,5.146,0.625,7.541,3.583
					c0.401,0.498-0.763-0.011-0.697-0.052c-1.656-1.188-4.535-1.969-6.344-2.219c-2.842-0.393-4.656,0.625-6.281,3.625
					C197.277,65.326,196.555,65.062,196.898,64.375z"/>
				<path d="M197.576,65.708c0,0,0.833-2.458,3.333-3.625c1.604-0.749,5.292-0.542,6.917,0.458s2.416,2,2.583,2.25
					s-1.021,0.619-1.354,0.833c-0.625,0.402-1.136,0.865-2.594,1.406c-1.458,0.541-4.521,0.281-4.688,0.156
					c-0.168-0.125,0.137-0.146,1.553-0.271s2.787-0.527,3.479-0.979c0.813-0.531,1.969-1.125,1.969-1.125s-1.178-1.114-1.688-1.375
					c-1.027-0.526-3.777-0.823-4.802-0.438C199.076,64.208,198.368,66.625,197.576,65.708z"/>
				<path d="M207.146,63.428c0,1.479-1.26,2.676-2.813,2.676c-1.552,0-2.813-1.198-2.813-2.676c-0.096-0.22,0.803-0.574,0.862-0.47
					c-0.208,1.813,0.886,2.322,1.854,2.322c0.951,0,2.041-0.552,2.271-2.177C206.534,62.937,207.159,63.271,207.146,63.428z"/>
			</g>
			<g>
				<path d="M179.786,55.783c-3.129-2.471-8.48-3.949-12.879-3.325c-1.26,0.179-6.5,1.667-8.575,5.211
					c-0.05,0.084,0.097,0.276,0.152,0.417c0.145,0.037,0.386,0.149,0.423,0.101c1.639-2.085,4.499-3.309,7.036-3.659
					c1.991-0.275,3.851,0.788,5.714,1.097c1.863,0.309,3.73-0.135,5.701,0.345C178.059,56.14,178.727,56.897,179.786,55.783z"/>
				<path d="M176.501,64.5c-1.438-2.313-3.271-4.883-6.406-4.438c-0.898,0.127-5.146,0.625-7.542,3.583
					c-0.403,0.498,0.761-0.011,0.698-0.052c1.656-1.188,4.534-1.969,6.344-2.219c2.839-0.393,4.656,0.625,6.281,3.625
					C176.121,65.451,176.845,65.187,176.501,64.5z"/>
				<path d="M175.823,65.833c0,0-0.833-2.458-3.333-3.625c-1.604-0.749-5.292-0.542-6.917,0.458s-2.416,2-2.583,2.25
					s1.021,0.619,1.354,0.833c0.626,0.402,1.136,0.865,2.594,1.406c1.458,0.541,4.521,0.281,4.688,0.156s-0.137-0.146-1.553-0.271
					s-2.787-0.527-3.479-0.979c-0.813-0.531-1.969-1.125-1.969-1.125s1.178-1.114,1.688-1.375c1.027-0.526,3.778-0.823,4.802-0.438
					C174.323,64.333,175.031,66.75,175.823,65.833z"/>
				<path d="M166.253,63.553c0,1.479,1.259,2.676,2.811,2.676c1.552,0,2.811-1.198,2.811-2.676c0.096-0.22-0.8-0.574-0.862-0.47
					c0.208,1.813-0.885,2.322-1.855,2.322c-0.951,0-2.041-0.552-2.27-2.177C166.865,63.062,166.24,63.396,166.253,63.553z"/>
			</g>
			<g>
				<path id="head_el" fill="none" stroke="#000000" stroke-width="1.5" stroke-miterlimit="10" d="M38.742,410.707
					c-0.931,4.033-2.625,13.584-4.531,16.074c-0.906,1.813-5.156,4.906-5.552-1.865c-0.487-3.076,1.251-13.793,1.646-15.666
					c1.063-5.043,4.009-17.17,4.688-20.438c0.145-0.697,2.643-10.958,2.469-11.063c-0.781,0.438-2.747,2.061-3.156,2.438
					c-2.5,2.625-4.906,5-7.594,7c-1.5,1.094-4.594,3.153-6.688,2.469c-0.964-0.316-1.515-1.688-1.281-2.656
					c0.406-1.688,0.922-2.734,1.75-4.031c2.135-3.343,5.292-7.6,8.167-10.344c2.288-2.186,4.104-3.802,6.755-5.516
					c2.078-1.344,4.524-2.524,6.703-3.859c2.993-1.833,5.583-3.292,8.75-5.792c1.234-0.975,2.057-1.955,2.438-3.521
					c0.613-2.524,1.79-4.842,2.625-7.313c2.469-5.219,6.495-25.249,6.604-25.875c0.494-2.824,0.928-5.633,1.417-8.458
					c0.897-5.186,1.678-10.343,2.5-15.542c0.634-4.007,1.25-8.083,2.083-12.083c0.111-0.777,1.787-8.841,2.792-11.667
					c1.542-4.333,6.351-15.082,7.104-16.906c0.779-1.887,3.454-7.535,4.271-10.01c0.05-0.152,0.735-3.367,0.771-3.521
					c0.606-2.62,1.146-5.188,1.769-7.931c0.493-2.171,0.918-4.405,1.44-6.569c1.646-6.824,3.086-13.689,4.656-20.531
					c0.875-3.814,1.703-7.594,2.531-11.313c0.26-1.553,0.969-4.219,1.688-7.656c-0.25-4.896,0.37-11.727,1.188-17.646
					c0.97-7.021,2.867-13.402,3.438-15.229c1.25-4,3.617-6.894,6.458-9.75c2.963-2.978,6.104-5.104,9.896-7.271
					c2.657-1.519,5.189-2.705,7.667-3.875c1.7-0.803,3.562-1.139,5.292-1.875c1.367-0.582,24.867-9.253,26.417-9.792
					c8.94-3.105,6.833-17.375,7.472-22.137c-2.305-1.808-4.389-9.113-4.889-17.738c-1.938,3.125-5.713,0.666-6.333-0.083
					c-0.93-1.124-2.916-2.897-3.167-4.333c-3.083-5.75-4.023-20.297-0.25-20.667c4.667-0.458,5.917,7.708,5.917,7.708
					s-1.397-6.793-1.5-9c-0.162-3.457-0.278-6.028-0.125-10.583c0.055-1.654,0.696-7.05,1.396-9.292
					c1.714-5.49,6.275-12.797,12.563-17.333c2.644-1.907,11.032-4.233,14.917-4.583c4.357-0.393,14.046,0.492,17.417,1.75
					c5.989,2.235,12.302,7.164,15.416,10.667c1.655,1.862,3.646,5.561,4.5,9c1.353,5.451,2.179,11.833,2.247,17.337
					c0.018,1.416-0.723,7.806-0.622,9.538c0.416-1.167,2.292-5.375,5.625-4.875c3.252,0.488,2.801,9.321,2.306,12.489
					c-0.593,3.789-2.832,7.042-4.707,10.708c-0.896,1.754-3.979,5.896-7.146,2.188c-1.313,4.875-0.979,10.604-3.313,15.271
					c0,1.417,0.077,4.132,0.084,5.5c0.016,3.839-1.676,16.765,2.776,18.595c0.164,0.067,18.5,6.75,34.5,12.083
					c16.786,5.595,20.896,14.776,22.833,19.333c4.586,10.778,4.652,26.24,5.667,34.083c2.271,17.583,7.5,37.25,12.25,56.5
					c3.353,13.585,11.054,24.449,12.5,31.125c4.25,19.625,7.017,40.228,8.084,46.292c3.167,18,9.588,32.771,9.604,33.083
					c0.813,3.063,9.998,7.329,12.771,8.792c3.676,1.939,6.708,3.968,9.833,6.791c3.339,3.016,6.875,7.709,8.833,10.667
					c1.075,1.623,2.918,6.516,1.5,7.313c-1.174,0.66-2.507,0.371-4.563-0.438c-2.436-0.959-6.702-5.465-8.438-7.125
					c-0.322-0.309-4.563-5-4.938-3.938c0.438,2,3.787,16.186,4.313,19.313c0.168,1,3.21,15.453,3.938,19.563
					c1.063,6,1.438,10.75-0.563,11.813c-3.194,1.697-5.461-3.822-5.833-5.334c-1.416-5.75-5.085-21.262-5.916-21.207
					c-0.851,0.055,1.294,13.676,1.937,16.291c1.129,4.584,2.105,14.854-1.125,15.688c-2.903,0.75-4.794-4.947-5.271-6.605
					c-1.61-5.596-4.327-22.592-4.813-22.916c-0.134-0.088-0.636-0.006-0.729,0.125c-0.324,0.457,2.99,18.23,3.438,24.365
					c0.104,1.383-0.05,4.61-2.469,4.969c-2.344,0.344-4.252-3.568-4.594-4.375c-1.599-3.77-5.522-23.158-5.729-23.979
					c-0.157-0.011-1.131,0.006-1.29,0c-0.155,0.459,3.104,12.645,1.207,18.229c-0.896,1.762-2.277,2.742-3.375,1.125
					c-1.101-1.625-1.715-2.809-2.25-4.688c-1.149-4.056-2.371-10.156-2.479-13.438c-0.167-5.084-2.063-7.189-2.908-11.196
					c-1.001-4.744-3.391-21.873-3.334-24.613c0.094-4.462-5.021-20.374-6.494-24.049c-2.063-5.157-4.271-10.271-6.715-15.259
					c-4.001-8.167-16.732-38.271-18.188-42.88c-2.012-6.367-6.186-24.424-6.522-25.898c-0.802-3.487-9.839-35.021-12.515-41.407
					c-0.374-0.893-0.827-1.764-1.248-2.644c-0.203,0.033-0.405,0.066-0.607,0.099c-0.027,0.197-1.89,11.467-3.303,25.597
					c-1.167,11.667-3.701,21.408-2.667,33.25c3.334,38.167,10.886,78.583,11.001,78.917c3.667,10.667,9.391,43.729,9.166,67.5
					c-0.193,20.594-2.059,42.391-2.833,52.834c-1.347,18.178-5.651,31.979-5.667,32.75c-0.107,5.512-2.967,31.859-2.875,37.125
					c0.033,1.91,3.25,21.25,3.625,33.375c0.648,20.979-5.436,70.045-6.125,76.5c-0.605,5.664-1.991,16.537-1.875,25.25
					c0.098,7.172,1.333,12,1.833,15.084c1.438,8.873,4.817,17.139,5.921,19.295c0.821,1.604,2.064,3.037,3.309,4.371
					c3.705,3.969,7.92,7.994,10.938,12.563c1.856,2.813,2.938,4.453,3.188,7.938c0.215,3.016-0.453,4.969-3.021,6.457
					c-4.598,2.66-7.813,3.543-13.25,3.543c-1.166-0.096-2.383-0.49-3.416,0.041c-3.918,2.012-6.938,1.584-10.938-0.666
					c-2.5-1.563-4.441-3.18-6.627-5.166c-2.273-2.07-3.674-4.539-3.465-7.797c0.154-2.457,0.187-4.779-0.189-7.412
					c-0.223-1.553-1.563-1.996-2.406-2.063c-2.037-0.159-4.621-1.33-5.875-2.375c-3-2.5-4.563-8.53-4.083-12.146
					c0.75-5.666,2.532-15.234,3.208-20.041c1.125-8,1.945-20.193,1.596-26.666c-0.638-11.793-11.304-58.457-13.304-72.959
					c-1.858-13.477,0.33-30.303,1.417-35.584c1.046-5.078,1.998-12.162,2.219-16.047c0.227-3.998-0.25-12.502-1.023-15.982
					c-0.771-3.479-1.774-7.832-2.284-10.459c-1.834-9.455-6.386-37.274-6.567-37.961c-0.875-3.258-5.467-45.082-5.736-47.688
					c-0.332-3.181-1.41-19.438-1.735-24.381c-0.257-3.896-2.2-20.896-4.116-22.396c-2-1.668-6-1.25-7.5,0.582
					c-0.96,1.646-2.237,5.31-2.333,7.334c-0.833,4.168-6.196,67.746-6.5,69.959c-1,21.291-13.333,66.625-12.25,76.041
					c-0.068,5.439,1.015,12.982,1.833,17.75c1.917,11.166,2.375,29.836,1.667,40.084c-0.528,7.635-4.591,22.277-6.25,29.75
					c-2.12,9.545-5.783,34.322-6.625,38c-1,6.938-0.356,12.455-0.208,18.916c0.042,1.811,2.281,18.639,2.958,24.418
					c0.213,1.818,0.939,3.635,1.125,5.457c0.226,2.213,1.833,16.375-10,16.115c-0.951-0.021-2.171,1.557-2.125,3.125
					c0.281,2.278,0.097,4.188,0.313,6.403c0.202,2.078-0.509,4.888-1.771,6.146c-2.898,2.896-4.201,4.176-7.354,6.791
					c-1.685,1.396-3.536,1.813-5.875,2.25c-1.374,0.256-6.75-1.063-7.375-1.938c-2.375,1.166-3.22,1.332-6.063,0
					c-2.75,0.75-4.188-0.5-5.25-1.438c-1.513,0.326-4.125-1.793-4.875-2.875c-0.979-0.25-2.016-2.045-2.292-2.875
					c-0.689-2.074,1.015-6.642,1.729-8.375c1.521-2.791,4.767-4.955,6.771-7.375c0.759-0.916,10.583-10.125,12.75-19.834
					c1-4.479,2.727-11.642,3.5-20.582c0.664-7.68-0.011-15.264-0.197-18.195c-0.969-15.26-6.403-52.842-7.096-60.746
					c-0.614-7.012-0.916-24.721-0.707-28.143c0.267-4.381,2.107-23.5,2.583-26.584c0.555-3.601,1.07-6.543,0.98-10.199
					c-0.27-11.018-2.731-21.635-2.585-33.027c0.012-0.932-2.261-9.942-2.396-10.521c-4.75-20.416-5.525-54.33-5.553-59.121
					c-0.045-7.516,0.326-33.793,0.636-39.295c0.239-4.229,3.083-29.584,5.75-37.875c1.756-5.46,2.428-11.716,3.588-17.337
					c0.87-4.216,9.662-52.955,10.162-63.163c0.257-5.243,0.953-13.731,0.75-19c-0.211-5.5-2.616-23.063-2.715-23.773
					c-0.467-3.325-2.603-21.616-2.847-22.581c-0.423,0.685-2.353,5.136-2.479,5.479c-4.5,11.375-9.792,27.375-12.833,38.5
					c-0.692,2.936-2.71,13.764-3.688,16.781c-0.382,1.182-2.229,10.135-7.063,21.094c-4.097,9.29-8.294,19.062-9.708,22.375
					c-3.145,7.369-9.96,21.131-12.917,29.75c-1.108,3.231-4.588,16.168-4.625,16.875c-0.059,1.146-0.708,11.709-3.219,24.375
					c-0.851,4.293-1.897,5.865-2.531,8.791c-0.227,1.049-0.355,1.609-0.469,2.49c-0.814,6.313-1.13,9.213-1.906,12.344
					c-0.422,1.703-1.703,6.625-2.719,7.984c-1.266,1.797-3.217,0.989-4.078-0.984c-0.578-1.328-0.767-2.656-0.703-4.668
					c0.094-2.973,1.875-11.957,2.156-13.582c-0.17-0.021-1.236,0.041-1.406,0.016c-0.188,0.563-3.406,16.519-4.281,19.453
					c-0.758,2.545-1.969,6.332-3.563,8.063c-2.139,2.318-4.198,1.135-4.823-2.22c-0.41-1.503-0.017-7.456,0.729-12.063
					c0.938-5.791,2.209-12.494,2.609-14.234c0.052-0.229-0.781-0.2-0.828-0.063c-0.236,0.961-4.311,21.658-4.469,22.274
					c-1.156,4.521-2.646,6.189-2.938,6.46c-1.917,1.79-3.833,1.01-4.458-1.646c-0.625-2.652-0.229-8.521,0.552-12.479
					c0.637-3.279,0.83-6.798,1.281-10.125c0.229-1.688,1-6.813,1-6.813s-0.5-0.234-0.75-0.297
					C40.586,403.375,38.963,409.75,38.742,410.707z"/>
			</g>
			<!-- <path fill="none" stroke="#000000" stroke-miterlimit="10" d="M220.805,67.75c0,0,0.938-2.25,2.188-4s3.563-2.688,4.25-2.625"/>
			<path fill="none" stroke="#000000" stroke-miterlimit="10" d="M224.764,66.309c0,0,0.674,1.728,0.913,3.347
				c0.239,1.619,0.017,2.826-0.394,3.155"/>
			<path fill="none" stroke="#000000" stroke-miterlimit="10" d="M225.617,74.125c0,0-2.544,1.005-3.614,2.243
				c-1.069,1.238-1.844,1.673-2.428,2.048"/>
			<path fill="none" stroke="#000000" stroke-miterlimit="10" d="M220.2,69.958c0,0,2.625,3.042,0.459,4.958
				c-1.226,1.084-1.5,2.667-2.084,3.042"/>
			<path fill="none" stroke="#000000" stroke-miterlimit="10" d="M153.137,68.025c0,0-0.6-2.363-1.583-4.276
				c-0.982-1.913-2.145-3.031-2.833-3.069"/>
			<path fill="none" stroke="#000000" stroke-miterlimit="10" d="M149.534,65.542c0,0-0.032,2.24-0.504,3.807
				c-0.472,1.567,0.588,3.901,1.838,4.693"/>
			<path fill="none" stroke="#000000" stroke-miterlimit="10" d="M152.826,69.5c0,0-0.417,3.042,0.167,3.792
				s1.792,2.125,1.792,3.542s-0.292,2.25-0.292,2.25s-1.792-3.083-2.792-3.167"/>
			<path fill="none" stroke="#000000" stroke-miterlimit="10" d="M162.742,100.5c0,0,7.333,7,12.833,10
				c4.563,2.489,15.024,5.032,21.75,1.583c6.5-3.333,9.666-6.75,12.291-8.958c2.682-2.256,4.438-4.625,5.188-7.375"/>
			<path fill="none" stroke="#000000" stroke-miterlimit="10" d="M184.534,104.167c0,0,5.333-1.333,7.667-0.083"/> -->
		</g>
	</g>
</g>
</svg>
