<?xml version="1.0" encoding="utf-8"?>
<!-- Generator: Adobe Illustrator 21.0.0, SVG Export Plug-In . SVG Version: 6.00 Build 0)  -->
<svg version="1.1" id="Layer_1" xmlns="http://www.w3.org/2000/svg" xmlns:xlink="http://www.w3.org/1999/xlink" class='disabled' x="0px" y="0px" width="100%" height="100%" viewbox="-10 0 280 700" xml:space="preserve">
<style type="text/css">
	.st0{stroke:#000000;stroke-miterlimit:10;}
	<!-- .st0{fill:#B5B5B5;stroke:#000000;stroke-miterlimit:10;} -->
	.st0_head{ fill:#B5B5B5;stroke:#000000;stroke-miterlimit:10; }
	.st1p{opacity:0.26;fill:#020202;enable-background:new    ;}
	.st2t{opacity:0.5;fill:#494949;enable-background:new    ;}
	.st3t{fill:none;stroke:#000000;stroke-miterlimit:10;}
	.st4t{fill:none;stroke:#000000;stroke-width:0.5;stroke-miterlimit:10;}
	.st5{font-family:'MyriadPro-Bold';}
	.st6{font-size:7px;}
	.st7q{opacity:0.5;}
	.st8o{fill:#494949;}
	.st9o{fill:#666666;}
</style>
<text x="-15" y="20" fill="Black" font-size="23">Light Touch</text>
<g>
	<path id="Right_S1" class="st0 dermatome " fill="#B5B5B5"  d="M102.9,542.2c2.1-4.3,3.9-6.2,5.2-12s0-26.5-1.2-38s-4.3-17.8-5.1-20.7
		c-0.3-1.1-1.5-2.1-2.8-2.8c2.5,10.5,4.9,21,5.7,31.6c1,15,1,30.6-6.7,44.7c-0.8,1.4-1.2,3.1-1.7,4.7c-1.5,4.9,0,8.7,2.4,10.9
		c0-0.5,0.1-1,0.1-1.4C99,554.6,100.8,546.6,102.9,542.2z"/>
</g>
<g>
	<path id="Right_L5" class="st0 dermatome " fill="#B5B5B5"  d="M118.9,540.6c-1.5-3.4-1.3-13.4-1.3-20.9c0.1-7.5,0.3-23.7,0-28.7s-3.4-19-5.3-25.3
		c-1.8-6.3-11.8-30.7-13.3-35.7s-3.4-15.5-3.6-17.2s0.3-19.6,0.2-20.7s0.6-3.8,1.3-5.2c0.8-1.3,1.1-5.6,0-7.8
		c-1.5-2.9-6.4-9.8-7.3-11c-0.4-0.5-2-2.4-3.7-4.4c0.4,1.7,0.7,3.3,1.1,5c2.9,13,5.5,26,3.6,39.5c-0.8,5.7-2.2,11.8-1.2,17.3
		c1.8,11.3,5.3,22.3,7.7,33.4c0.7,3.3,1.5,6.6,2.2,9.9c1.3,0.8,2.5,1.7,2.8,2.8c0.8,2.8,4,9.2,5.1,20.7c1.2,11.5,2.5,32.2,1.2,38
		s-3,7.7-5.2,12c-2.1,4.3-4,12.3-4.1,17c0,0.4,0,0.9-0.1,1.4c2.8,2.6,6.9,3,8.8,0.6c1.7,3.1,5,2.8,7.7,0.3c0.4,1.8,1.3,2.9,2.5,3.4
		c0.1-2.5,0.8-4.6,2-8C121.5,552.9,120.7,544.6,118.9,540.6z"/>
</g>
<g>
	<path id="Right_L4" class="st0 dermatome " fill="#B5B5B5"  d="M123.7,444.7c-0.7-4.5-5.7-13.2-6.7-16.5s-1.3-18.2-0.5-25.5c0.8-7.4,2.5-14.8,0.8-22.6
		c-1.7-7.8-4.5-13.3-6.5-19s-11.5-21.3-17.7-30.8s-14.8-26.3-16.5-29c1,20.8,4.9,42.3,9.4,62.7c1.7,2,3.3,3.9,3.7,4.4
		c0.8,1.2,5.7,8.1,7.3,11c1.1,2.1,0.8,6.4,0,7.8c-0.8,1.3-1.4,4.1-1.3,5.2s-0.3,19-0.2,20.7c0.2,1.7,2.1,12.2,3.6,17.2
		s11.4,29.3,13.3,35.7c1.8,6.3,5,20.3,5.3,25.3s0.1,21.2,0,28.7s-0.2,17.6,1.3,20.9c1.8,4,2.7,12.3,1.2,16.6c-1.2,3.4-1.8,5.5-2,8
		c3.2,1.4,8.1-1.7,8.7-5.7c0.7-4.6-0.7-9.5-0.7-14.2c0-2.3-0.9-4.8-0.3-6.8c2.7-8.5,1.8-17.2,0.3-25.5c-2.3-13.6-3.3-27.2-1.6-40.7
		c-0.4-1.2-0.7-2.8-0.8-4.8C123.1,460.6,124.4,449.2,123.7,444.7z"/>
</g>
<g>
	<path id="Right_L3" class="st0 dermatome " fill="#B5B5B5"  d="M91,291.5c-4.3-4.3-8.8-8.3-14.2-14.8c-0.1,1.9,0.2,4.3,0.1,6.2c-0.2,6.5-0.5,11.9-0.1,18.3
		c1.7,2.7,10.3,19.5,16.5,29S109,355.4,111,361c2,5.7,4.8,11.2,6.5,19s0,15.3-0.8,22.6c-0.8,7.4-0.5,22.2,0.5,25.5s6,12,6.7,16.5
		s-0.6,15.8,0,22.8c0.2,2,0.5,3.5,0.8,4.8c0.3-2.7,0.8-5.3,1.3-7.9c2.9-14.4,3.4-28.1-2.2-42.1c-3.7-9.2-3.8-19-1.3-29
		c2-7.9,2.9-16.1,3.3-24.2c0.9-18,2.2-35.5,2.7-53.2c-4.2-1.8-6-7.8-20.9-12.1C103.5,302.7,95.3,295.9,91,291.5z"/>
</g>
<g>
	<path id="Right_L2" class="st0 dermatome " fill="#B5B5B5"  d="M94.7,270.5c-5.1-3.8-8.8-7.7-15-13.2c-0.5-0.4-1-0.8-1.5-1.2c-0.8,7-1.1,13.5-1.5,20.6
		c5.4,6.5,9.9,10.4,14.2,14.8c4.4,4.4,12.5,11.2,16.5,12.4c14.9,4.4,16.7,10.3,20.9,12.1c0.2-6.7,0.3-13.4,0.2-20.1
		c0-0.6,0.1-1.5,0.2-2.3c-4.5-1.6-9-5.9-19.2-14.9C106.4,275.9,98.9,273.7,94.7,270.5z"/>
</g>
<g>
	<path id="Right_L1" class="st0 dermatome " fill="#B5B5B5"  d="M109.4,261.6c-3.4-2.4-7.8-8.8-12-10.8c-5.8-2.7-8-0.7-14.5-3.9c-1.2-0.6-2.2-1.2-3.2-1.9
		c-0.6,3.7-1,7.4-1.5,11.1c0.5,0.4,1,0.8,1.5,1.2c6.2,5.5,9.9,9.3,15,13.2c4.2,3.1,11.7,5.4,14.8,8.1c10.2,8.9,14.7,13.3,19.2,14.9
		c0.1-0.6,0.2-1.3,0.2-1.7c0.3,0,0.7-0.1,1-0.1c0.3,0.1,0.3-1.4,0.3-1.4v-25.5C125.4,264.9,113.6,264.7,109.4,261.6z"/>
</g>
<g>
	<path id="Right_T12" class="st0 dermatome " fill="#B5B5B5"  d="M122.4,246.4c-4.1-0.9-8.5-8.2-13-9.4c-5.4-1.4-16.2,3.4-21.8-6.5c-0.8-1.5-3-3.5-4.5-4.6
		c-1.3,6.1-2.5,12.9-3.4,19.1c1,0.7,2,1.3,3.2,1.9c6.5,3.2,8.7,1.2,14.5,3.9c4.2,2,8.6,8.3,12,10.8c4.3,3.1,16.1,3.3,20.9,3.2v-18
		C127.8,246.9,124.6,246.9,122.4,246.4z"/>
</g>
<g>
	<path id="Right_T11" class="st0 dermatome " fill="#B5B5B5"  d="M108.5,225.3c-5.4-1.4-11-1.3-15-2.7c-2.4-0.8-6.6-3.7-9.3-5.5c0,1,0,2-0.1,3
		c0,0.7-0.1,1.4-0.2,2c-0.3,1.3-0.6,2.6-0.8,3.9c1.6,1.1,3.7,3.1,4.5,4.6c5.6,9.9,16.3,5.1,21.8,6.5c4.5,1.2,8.9,8.5,13,9.4
		c2.3,0.5,5.4,0.6,7.9,0.5v-17c-2.6-0.1-6-0.3-9.6-0.8C116.6,228.6,113,226.4,108.5,225.3z"/>
</g>
<g>
	<path id="Right_T10" class="st0 dermatome " fill="#B5B5B5"  d="M92.4,210.9c-1.8,0-5.3-1.1-8-1.6c-0.1,2.6-0.1,5.3-0.2,7.9c2.7,1.8,6.9,4.7,9.3,5.5
		c3.9,1.4,9.6,1.2,15,2.7c4.5,1.2,8.1,3.3,12.2,3.9c3.6,0.4,6.9,0.7,9.6,0.8v-18.6C122.9,211.2,101.3,210.8,92.4,210.9z"/>
</g>
<g>
	<path id="Right_T9" class="st0 dermatome " fill="#B5B5B5"  d="M93.5,198c-1.9,0.1-6.2-0.5-9.3-0.2c-0.1,3.8,0.3,7.7,0.2,11.4c2.7,0.5,6.2,1.7,8,1.6
		c8.9-0.1,30.6,0.3,37.9,0.4v-13.1C121.8,198,101.2,197.6,93.5,198z"/>
</g>
<g>
	<path id="Right_T8" class="st0 dermatome " fill="#B5B5B5"  d="M93.5,183.8c-2.2,0.1-6,1-8.6,2.1c0,4.2-0.5,7.7-0.6,11.8c3.1-0.3,7.4,0.2,9.3,0.2
		c7.7-0.3,28.3,0,36.8,0.2v-13.9C118.8,183.9,100.1,183.5,93.5,183.8z"/>
</g>
<g>
	<path id="Right_T7" class="st0 dermatome " fill="#B5B5B5"  d="M130.3,184.2v-12.9c-11.7-0.3-30.6-0.5-36.9,0.3c-2.2,0.3-6,1.2-8.6,2.1
		c0.1,4.1,0.1,8.2,0.1,12.3c2.7-1.1,6.5-2.1,8.6-2.1C100.1,183.5,118.8,183.9,130.3,184.2z"/>
</g>
<g>
	<path id="Right_T6" class="st0 dermatome " fill="#B5B5B5"  d="M130.3,171.3v-12.2c-11.4-0.2-30.7-0.5-37.8,0.2c-1.6,0.2-6.5,2.1-9.4,3.2
		c1,2.9,1.3,5.4,1.6,8.5c0.1,0.9,0,2,0,3c2.6-0.9,6.5-2.1,8.7-2.4C99.6,170.8,118.5,171,130.3,171.3z"/>
</g>
<g>
	<path id="Right_T5" class="st0 dermatome " fill="#B5B5B5"  d="M130.3,159.1v-11.5c-8.7-0.2-35.7-0.7-44.4,0.2c-1.4,0.1-4.3,1.5-6.6,2.6
		c-0.4,0.2-0.6,1.5-0.1,3c0.5,0.9,2.9,5.9,3.8,8.8c2.9-1.1,7.8-2.8,9.5-2.9C99.6,158.6,118.9,158.8,130.3,159.1z"/>
</g>
<g>
	<path id="Right_T4" class="st0 dermatome " fill="#B5B5B5"  d="M130.3,147.6v-9.4c-9.6-0.2-36.3-0.6-43.6,0.2c-1.7,0.2-5.3,1.6-7.5,2.6c0.1,0.9,0.2,1.7,0.1,2
		c-0.2,1.5,0,4.5,0,7.4c2.3-1.2,5.2-2.5,6.6-2.6C94.6,146.9,121.5,147.4,130.3,147.6z"/>
</g>
<g>
	<path id="Right_T3" class="st0 dermatome " fill="#B5B5B5"  d="M130.3,138.2V129c-6.7-0.1-38.3-0.7-46.3,0.1c-1.5,0.1-4.3,1.3-6.5,2.2c0.6,3.2,1.4,7.2,1.7,9.7
		c2.3-1,5.8-2.5,7.5-2.6C93.9,137.6,120.6,138,130.3,138.2z"/>
</g>
<g>
	<path id="Right_T2" class="st0 dermatome " fill="#B5B5B5"  d="M130.3,128.9v-8.3c-0.6,0-1.1,0-1.4,0c-3.5-0.2-40.2-1.3-42.3-1c-2.2,0.3-11.2,1.2-10,7.2
		c0.1,0.5,0.5,2.3,0.9,4.4c2.2-0.9,5.1-2,6.5-2.2C92,128.3,123.6,128.8,130.3,128.9z"/>
</g>
<g>
	<path id="Right_T1" class="st0 dermatome " fill="#B5B5B5"  d="M80.2,108.5c-11.1-4.8-19,0-22.3,6c-3.3,6-0.5,15.7,0.8,21.5s-1.8,10.8-4.2,20.7
		c-2.3,9.8-3,30.3-4.2,39.5s-7.8,26.3-12.2,35.6s-4.3,20-4.3,20c0.1-0.1,0.3-0.3,0.6-0.6c0-0.3-0.1-0.5-0.1-0.7
		c0.9-0.6,1.8-1.1,2.5-1.7c1.9-1.7,4.3-3.8,6.8-5.2c0.4-0.2,0.7-0.4,1.1-0.7c1.1-0.9,2.2-1.7,3.3-2.6c2.2-2,4.2-4.6,6.2-7.6
		c1.9-3.3,3.4-6.9,4.3-10.2c0.3-1.3,0.5-2.7,0.7-4.1c0.2-2.1,0.5-6.1,1.1-10.4c0.1-1.7,0.2-3.1,0.3-3.9c0.1-1.6,1-4.5,2.1-7.9l0,0
		c0.9-3,2.9-9.2,5.2-15.7v-0.1c0.4-1.6,1.1-3.4,1.9-5.4c2.3-6.6,4.6-12.7,6-15.4c0.8-1.5,1.4-2.7,1.8-3.5c0.2-0.5,0.3-0.9,0.4-1.2
		c0.9-3.9,0.1-10,0.4-12.5s-1.5-10.2-2.7-16.2c-1.2-6,7.8-6.8,10-7.2c2.2-0.3,42.1,1,42.7,1v-10.7
		C107.1,109.7,84.5,110.4,80.2,108.5z"/>
</g>
<g>
	<path id="Right_C8" class="st0 dermatome " fill="#B5B5B5"  d="M69.9,175c-0.6,1.8-1.3,3.7-1.9,5.5c-1.3,4.5-3.5,10.7-5.2,15.8c-1,3.4-1.8,7.8-2.4,11.9
		c-0.2,2.9-0.5,6.6-1.1,10.4l0,0c-0.1,1.2-0.3,2.6-0.7,4.1c-0.7,3.1-1.5,5.9-2.7,7.8c-0.5,0.8-1,1.6-1.5,2.4
		c-1.8,3.1-3.9,5.8-6.2,7.6c0,0-0.1,0-0.1,0.1c-1.1,1-2.2,1.9-3.3,2.6c-2.2,1.8-4.6,3.6-7.9,5.8c-1,1-1.9,1.8-2.4,2.4
		c0.6,3.2,1.5,9.4-0.6,16c-1.8,5.9-6.4,8.2-8.6,13.9c-0.3,0.8-0.6,1.6-0.9,2.4c1.1,0.5-3.2,14.1-1.7,17.9c0.9,1.4,3.4,0.9,4.5-2
		c2.2-5.4,3.7-13,5-15.5c1-1.5-1.4,11.1,0.3,12.2c2.1,1.4,3.4-3.9,3.8-5.3c2.8-10.4,5.1-19.3,6.8-29.9c1.1-6.7,2-12.2,6-17.4
		c17.8-22.8,19.2-37.3,22.6-58c1.6-10,3.9-19.6,6.3-29.4c0-0.2-0.2-0.1-0.3,0C74.8,160.8,72.5,168.3,69.9,175z"/>
</g>
<g>
	<path id="Right_C7" class="st0 dermatome " fill="#B5B5B5"  d="M33.5,252.5c-0.7,5.4,0.1,10.1-1.4,13.9c-2.7,6.8-13.5,10.6-20.6,12.4c-0.8,3.3-1.6,6.5-2.1,8.4
		c-0.6,2.9-1.5,7-1.7,9.9c0,2.2,3.3,2.7,4.5,0c1.8-5,4.2-15.7,4.9-15.2c0.3,0.7-2.8,14.4-1.2,19.2c0.5,1.6,2.6,2,3.8-0.5
		c0.6-0.9,1.4-4.4,2.2-8c0.2-1,0.4-2.1,0.7-3.2c0.6-2.9,1.1-5.3,1.3-5.6c0.2-0.1,0.3-0.1,0.4-0.1c0.3-0.8,0.6-1.6,0.9-2.4
		c2.2-5.6,6.8-8,8.6-13.9c2.1-6.6,1.1-12.7,0.6-16C34.4,250.9,33.6,252.1,33.5,252.5z"/>
</g>
<g>
	<path id="Right_C6" class="st0 dermatome " fill="#B5B5B5"  d="M32.2,266.3c4.3-10.7-2.8-29.9,3.3-43.8c5.4-12.3,7.8-24.4,8.8-34.7c-0.4,1.5-0.8,3-1.4,4.5
		c-4.9,13.3-9.2,31.3-12.4,45.3c-2.2,9.8-3.3,12.6-6.5,15.8c-1,1-7.6,3.6-13.1,7.4c-6.6,4.5-12,10.8-9.9,13.3
		c1.8,2.1,8.7-4.9,12.8-6.6c0.6-0.1-0.8,5.7-2.2,11.2C18.6,276.9,29.5,273.1,32.2,266.3z"/>
</g>
<g><path id="Right_C6" class="st0 dermatome " fill="#B5B5B5"  d="M53.2,136.5c0.3-5.7-0.7-12.2-0.8-20.8c-0.2-8.7,2.3-11.8,3.7-15c0.5-1.3,1.3-3.2,2-5
		c-6.9,7-9.6,16.2-8.9,28c0.6,10.1,1.2,16.5-1.1,27.8c-0.3,1.6-0.6,3.2-0.8,4.8c0.1-0.1,0.2-0.2,0.3-0.2
		C52.2,152.3,52.9,142.2,53.2,136.5z"/>
</g>
<g>
	<path id="Right_C5" class="st0 dermatome " fill="#B5B5B5"  d="M33.9,251.9c0,0,0-10.7,4.3-20s11-26.5,12.2-35.6c1.2-9.2,1.8-29.7,4.2-39.5
		c2.3-9.8,5.5-14.8,4.2-20.7c-1.3-5.8-4.2-15.5-0.8-21.5c3.3-6,11.1-10.8,22.3-6c2.9,1.2,21.1,0.3,49.4,0.8v-9.9
		c-0.2,0-0.3,0.1-0.5,0.1c-4,0.2-5.9-4.3-10.6-6.3c-3.3-1.4-9.9-1.5-15.6-1.3c-5.7,0.2-15.3,2.1-20.8,0c-2.8-1-3.9-4.4-4.3-7.5
		c-1,0.4-1.9,0.8-2.9,1.1c-7.2,2.6-12.7,6-16.8,10.1c-0.7,1.8-1.5,3.7-2,5c-1.3,3.2-3.9,6.3-3.7,15s1.2,15.2,0.8,20.8
		c-0.3,5.7-1,15.8-5.6,19.5c-0.1,0.1-0.2,0.2-0.3,0.2c-1.3,10.7-0.2,20.8-3,31.5c-1.1,10.3-3.5,22.4-8.8,34.7
		c-3.8,8.7-2.4,19.5-2,29L33.9,251.9z"/>
</g>
<g>
	<path id="Right_C4" class="st0 dermatome " fill="#B5B5B5"  d="M82,92c5.5,2.1,15.2,0.2,20.8,0s12.3-0.1,15.6,1.3c4.8,2,6.7,6.4,10.6,6.3c0.2,0,0.3,0,0.5-0.1
		V83.8c-0.3,0.1-0.6,0.1-0.9,0.1c-4.3,0.1-6.1-2-8.8-3.8s-4.2-2.6-7.2-2.5s-7.9-2.4-9.8-3.7c-0.5-0.4-1.3-1.1-2.2-1.9
		c-7.4,4.7-15,9.2-23,12.5C78.2,87.6,79.3,90.9,82,92z"/>
</g>
<g>
	<path id="Right_C3" class="st0 dermatome " fill="#B5B5B5"  d="M112.7,77.6c3-0.1,4.5,0.8,7.2,2.5s4.5,3.9,8.8,3.8c0.3,0,0.6,0,0.9-0.1V66.9
		c-8.2,0.3-14.9-6.6-18.6-11.7c-0.1,5-1.8,11.3-7.1,14.7c-1,0.7-2.1,1.4-3.1,2c0.9,0.8,1.7,1.5,2.2,1.9
		C104.8,75.3,109.8,77.8,112.7,77.6z"/>
</g>
<g>
	<path id="Right_C2" class="st0 dermatome " fill="#B5B5B5"  d="M129.6,66.9v-2.7c-8.3,0-15-6.5-18.9-11.4c0.2,1.5,0.3,1,0.3,2.4
		C114.7,60.4,121.4,67.2,129.6,66.9z"/>
</g>
<path class="st0_head" d="M148.2,52.8c0.3-2.2,0.7-4.5,1.2-6.8c7.3-0.8,5.9-17.5,3-17.4c-0.3,0-0.5-0.1-0.5-0.4c0.1-1,0.1-3.1,0.1-4.3
	c-0.5-14.1-7.9-22.3-20.2-22.8c-0.8,0-1.6,0-2.4,0l-0.1,63.1C137.6,64.3,144.3,57.7,148.2,52.8z"/>
<g>
	<path id="Left_S1" class="st0 dermatome " fill="#B5B5B5"  d="M159.7,559.2c0,0.4,0.1,0.9,0.1,1.4c2.4-2.2,3.9-6,2.4-10.9c-0.5-1.6-0.9-3.3-1.7-4.7
		c-7.7-14.1-7.7-29.7-6.7-44.7c0.8-10.6,3.2-21.1,5.7-31.6c-1.3,0.7-2.5,1.7-2.8,2.8c-0.8,2.9-3.9,9.2-5.1,20.7
		c-1.2,11.5-2.5,32.2-1.2,38s3.1,7.7,5.2,12C157.7,546.6,159.5,554.6,159.7,559.2z"/>
</g>
<g>
	<path id="Left_L5" class="st0 dermatome " fill="#B5B5B5"  d="M138.9,556.7c1.2,3.4,1.9,5.5,2,8c1.2-0.5,2.1-1.6,2.5-3.4c2.7,2.5,6,2.8,7.7-0.3
		c1.9,2.4,6,2,8.8-0.6c-0.1-0.5-0.1-1-0.1-1.4c-0.1-4.7-2-12.7-4.1-17c-2.2-4.3-3.9-6.2-5.2-12s0-26.5,1.2-38
		c1.1-11.5,4.3-17.9,5.1-20.7c0.3-1.1,1.5-2,2.8-2.8c0.7-3.3,1.5-6.6,2.2-9.9c2.4-11.1,5.9-22.1,7.7-33.4c1-5.5-0.4-11.6-1.2-17.3
		c-1.9-13.5,0.7-26.5,3.6-39.5c0.4-1.7,0.7-3.3,1.1-5c-1.7,2-3.3,3.9-3.7,4.4c-0.9,1.2-5.8,8.1-7.3,11c-1.1,2.2-0.8,6.5,0,7.8
		c0.7,1.4,1.4,4.1,1.3,5.2s0.4,19,0.2,20.7s-2.1,12.2-3.6,17.2s-11.5,29.4-13.3,35.7c-1.9,6.3-5,20.3-5.3,25.3s-0.1,21.2,0,28.7
		c0,7.5,0.2,17.5-1.3,20.9C138.2,544.3,137.4,552.6,138.9,556.7z"/>
</g>
<g>
	<path id="Left_L4" class="st0 dermatome " fill="#B5B5B5"  d="M135.1,467.5c-0.1,2-0.4,3.6-0.8,4.8c1.7,13.5,0.7,27.1-1.6,40.7c-1.5,8.3-2.4,17,0.3,25.5
		c0.6,2-0.3,4.5-0.3,6.8c0,4.7-1.4,9.6-0.7,14.2c0.6,4,5.5,7.1,8.7,5.7c-0.2-2.5-0.8-4.6-2-8c-1.5-4.3-0.6-12.6,1.2-16.6
		c1.5-3.3,1.4-13.4,1.3-20.9s-0.3-23.7,0-28.7s3.5-19,5.3-25.3c1.9-6.4,11.8-30.7,13.3-35.7s3.4-15.5,3.6-17.2
		c0.1-1.7-0.3-19.6-0.2-20.7s-0.5-3.9-1.3-5.2c-0.8-1.4-1.1-5.7,0-7.8c1.6-2.9,6.5-9.8,7.3-11c0.4-0.5,2-2.4,3.7-4.4
		c4.5-20.4,8.4-41.9,9.4-62.7c-1.7,2.7-10.3,19.5-16.5,29s-15.7,25.1-17.7,30.8s-4.8,11.2-6.5,19s0,15.2,0.8,22.6
		c0.8,7.3,0.5,22.2-0.5,25.5s-6,12-6.7,16.5S135.8,460.3,135.1,467.5z"/>
</g>
<g>
	<path id="Left_L3" class="st0 dermatome " fill="#B5B5B5"  d="M151.3,303.4c-14.9,4.3-16.7,10.3-20.9,12.1c0.5,17.7,1.8,35.2,2.7,53.2
		c0.4,8.1,1.3,16.3,3.3,24.2c2.5,10,2.4,19.8-1.3,29c-5.6,14-5.1,27.7-2.2,42.1c0.5,2.6,1,5.2,1.3,7.9c0.3-1.3,0.6-2.8,0.8-4.8
		c0.6-7-0.7-18.3,0-22.8s5.7-13.2,6.7-16.5s1.3-18.1,0.5-25.5c-0.8-7.3-2.5-14.8-0.8-22.6s4.5-13.3,6.5-19
		c2-5.6,11.5-21.3,17.7-30.8s14.8-26.3,16.5-29c0.4-6.4,0.1-11.8-0.1-18.3c-0.1-1.9,0.2-4.3,0.1-6.2c-5.4,6.5-9.9,10.5-14.2,14.8
		C163.6,295.6,155.4,302.4,151.3,303.4z"/>
</g>
<g>
	<path id="Left_L2" class="st0 dermatome " fill="#B5B5B5"  d="M149.4,278.4c-10.2,9-14.7,13.3-19.2,14.9c0.1,0.8,0.2,1.7,0.2,2.3c-0.1,6.7,0,13.4,0.2,20.1
		c4.2-1.8,6-7.7,20.9-12.1c4-1.2,12.1-8,16.5-12.4c4.3-4.4,8.8-8.3,14.2-14.8c-0.4-7.1-0.7-13.6-1.5-20.6c-0.5,0.4-1,0.8-1.5,1.2
		c-6.2,5.5-9.9,9.4-15,13.2C160,273.4,152.5,275.6,149.4,278.4z"/>
</g>
<g>
	<path id="Left_L1" class="st0 dermatome " fill="#B5B5B5"  d="M128.7,264.5V290c0,0,0,1.5,0.3,1.4c0.3,0,0.7,0.1,1,0.1c0,0.4,0.1,1.1,0.2,1.7
		c4.5-1.6,9-6,19.2-14.9c3.1-2.7,10.6-5,14.8-8.1c5.1-3.9,8.8-7.7,15-13.2c0.5-0.4,1-0.8,1.5-1.2c-0.5-3.7-0.9-7.4-1.5-11.1
		c-1,0.7-2,1.3-3.2,1.9c-6.5,3.2-8.7,1.2-14.5,3.9c-4.2,2-8.6,8.4-12,10.8C145.3,264.4,133.5,264.6,128.7,264.5z"/>
</g>
<g>
	<path id="Left_T12" class="st0 dermatome " fill="#B5B5B5"  d="M128.6,246.5v18c4.8,0.1,16.6-0.1,20.9-3.2c3.4-2.5,7.8-8.8,12-10.8c5.8-2.7,8-0.7,14.5-3.9
		c1.2-0.6,2.2-1.2,3.2-1.9c-0.9-6.2-2.1-13-3.4-19.1c-1.5,1.1-3.7,3.1-4.5,4.6c-5.6,9.9-16.4,5.1-21.8,6.5c-4.5,1.2-8.9,8.5-13,9.4
		C134.3,246.6,131.1,246.6,128.6,246.5z"/>
</g>
<g>
	<path id="Left_T11" class="st0 dermatome " fill="#B5B5B5"  d="M138.2,228.9c-3.6,0.5-7,0.7-9.6,0.8v17c2.5,0.1,5.6,0,7.9-0.5c4.1-0.9,8.5-8.2,13-9.4
		c5.5-1.4,16.2,3.4,21.8-6.5c0.8-1.5,2.9-3.5,4.5-4.6c-0.2-1.3-0.5-2.6-0.8-3.9c-0.1-0.6-0.2-1.3-0.2-2c-0.1-1-0.1-2-0.1-3
		c-2.7,1.8-6.9,4.7-9.3,5.5c-4,1.4-9.6,1.3-15,2.7C145.9,226.1,142.3,228.3,138.2,228.9z"/>
</g>
<g>
	<path id="Left_T10" class="st0 dermatome " fill="#B5B5B5"  d="M128.6,211.2v18.6c2.7-0.1,6-0.4,9.6-0.8c4.1-0.6,7.7-2.7,12.2-3.9c5.4-1.5,11.1-1.3,15-2.7
		c2.4-0.8,6.6-3.7,9.3-5.5c-0.1-2.6-0.1-5.3-0.2-7.9c-2.7,0.5-6.2,1.6-8,1.6C157.6,210.5,136,210.9,128.6,211.2z"/>
</g>
<g>
	<path id="Left_T9" class="st0 dermatome " fill="#B5B5B5"  d="M128.6,197.8v13.1c7.3-0.1,29-0.5,37.9-0.4c1.8,0.1,5.3-1.1,8-1.6c-0.1-3.7,0.3-7.6,0.2-11.4
		c-3.1-0.3-7.4,0.3-9.3,0.2C157.7,197.3,137.1,197.7,128.6,197.8z"/>
</g>
<g>
	<path id="Left_T8" class="st0 dermatome " fill="#B5B5B5"  d="M128.5,183.9v13.9c8.5-0.2,29.1-0.5,36.8-0.2c1.9,0,6.2-0.5,9.3-0.2c-0.1-4.1-0.6-7.6-0.6-11.8
		c-2.6-1.1-6.4-2-8.6-2.1C158.8,183.2,140.1,183.6,128.5,183.9z"/>
</g>
<g>
	<path id="Left_T7" class="st0 dermatome " fill="#B5B5B5"  d="M165.4,183.6c2.1,0,5.9,1,8.6,2.1c0-4.1,0-8.2,0.1-12.3c-2.6-0.9-6.4-1.8-8.6-2.1
		c-6.3-0.8-25.2-0.6-36.9-0.3v12.9C140.1,183.6,158.8,183.2,165.4,183.6z"/>
</g>
<g>
	<path id="Left_T6" class="st0 dermatome " fill="#B5B5B5"  d="M165.5,171.3c2.2,0.3,6.1,1.5,8.7,2.4c0-1-0.1-2.1,0-3c0.3-3.1,0.6-5.6,1.6-8.5
		c-2.9-1.1-7.8-3-9.4-3.2c-7.1-0.7-26.4-0.4-37.8-0.2V171C140.4,170.7,159.3,170.5,165.5,171.3z"/>
</g>
<g>
	<path id="Left_T5" class="st0 dermatome " fill="#B5B5B5"  d="M166.4,159c1.7,0.1,6.6,1.8,9.5,2.9c0.9-2.9,3.3-7.9,3.8-8.8c0.5-1.5,0.3-2.8-0.1-3
		c-2.3-1.1-5.2-2.5-6.6-2.6c-8.7-0.9-35.7-0.4-44.4-0.2v11.5C140,158.5,159.3,158.3,166.4,159z"/>
</g>
<g>
	<path id="Left_T4" class="st0 dermatome " fill="#B5B5B5"  d="M173,147.5c1.4,0.1,4.3,1.4,6.6,2.6c0-2.9,0.2-5.9,0-7.4c-0.1-0.3,0-1.1,0.1-2
		c-2.2-1-5.8-2.4-7.5-2.6c-7.3-0.8-34-0.4-43.6-0.2v9.4C137.4,147.1,164.3,146.6,173,147.5z"/>
</g>
<g>
	<path id="Left_T3" class="st0 dermatome " fill="#B5B5B5"  d="M172.2,138.1c1.7,0.1,5.2,1.6,7.5,2.6c0.3-2.5,1.1-6.5,1.7-9.7c-2.2-0.9-5-2.1-6.5-2.2
		c-8-0.8-39.6-0.2-46.3-0.1v9.2C138.3,137.7,165,137.3,172.2,138.1z"/>
</g>
<g>
	<path id="Left_T2" class="st0 dermatome " fill="#B5B5B5"  d="M174.9,128.7c1.4,0.2,4.3,1.3,6.5,2.2c0.4-2.1,0.8-3.9,0.9-4.4c1.2-6-7.8-6.9-10-7.2
		c-2.1-0.3-38.8,0.8-42.3,1c-0.3,0-0.8,0-1.4,0v8.3C135.3,128.5,166.9,128,174.9,128.7z"/>
</g>
<g>
	<path id="Left_T1" class="st0 dermatome " fill="#B5B5B5"  d="M128.6,109v10.7c0.6,0,2,0,2.3,0c3.5-0.2,40.1-1.3,42.3-1c2.2,0.4,11.2,1.2,10,7.2
		c-1.2,6-3,13.7-2.7,16.2s-0.5,8.6,0.4,12.5c0.1,0.3,0.2,0.7,0.4,1.2c0.4,0.8,1,2,1.8,3.5c1.4,2.7,3.7,8.8,6,15.4
		c0.8,2,1.5,3.8,1.9,5.4v0.1c2.3,6.5,4.3,12.7,5.2,15.7l0,0c1.1,3.4,2,6.3,2.1,7.9c0.1,0.8,0.2,2.2,0.3,3.9
		c0.6,4.3,0.9,8.3,1.1,10.4c0.2,1.4,0.4,2.8,0.7,4.1c0.9,3.3,2.4,6.9,4.3,10.2c2,3,4,5.6,6.2,7.6c1.1,0.9,2.2,1.7,3.3,2.6
		c0.4,0.3,0.7,0.5,1.1,0.7c2.5,1.4,4.9,3.5,6.8,5.2c0.7,0.6,1.6,1.1,2.5,1.7c0,0.2-0.1,0.4-0.1,0.7c0.3,0.3,0.5,0.5,0.6,0.6
		c0,0,0.1-10.7-4.3-20s-11-26.4-12.2-35.6c-1.2-9.2-1.9-29.7-4.2-39.5c-2.4-9.9-5.5-14.9-4.2-20.7s4.1-15.5,0.8-21.5
		s-11.2-10.8-22.3-6C174.4,110.1,149.9,109.4,128.6,109z"/>
</g>
<g>
	<path id="Left_C8" class="st0 dermatome " fill="#B5B5B5"  d="M181.2,156c-0.1-0.1-0.3-0.2-0.3,0c2.4,9.8,4.7,19.4,6.3,29.4c3.4,20.7,4.8,35.2,22.6,58
		c4,5.2,4.9,10.7,6,17.4c1.7,10.6,4,19.5,6.8,29.9c0.4,1.4,1.7,6.7,3.8,5.3c1.7-1.1-0.7-13.7,0.3-12.2c1.3,2.5,2.8,10.1,5,15.5
		c1.1,2.9,3.6,3.4,4.5,2c1.5-3.8-2.8-17.4-1.7-17.9c-0.3-0.8-0.6-1.6-0.9-2.4c-2.2-5.7-6.8-8-8.6-13.9c-2.1-6.6-1.2-12.8-0.6-16
		c-0.5-0.6-1.4-1.4-2.4-2.4c-3.3-2.2-5.7-4-7.9-5.8c-1.1-0.7-2.2-1.6-3.3-2.6c0-0.1-0.1-0.1-0.1-0.1c-2.3-1.8-4.4-4.5-6.2-7.6
		c-0.5-0.8-1-1.6-1.5-2.4c-1.2-1.9-2-4.7-2.7-7.8c-0.4-1.5-0.6-2.9-0.7-4.1l0,0c-0.6-3.8-0.9-7.5-1.1-10.4
		c-0.6-4.1-1.4-8.5-2.4-11.9c-1.7-5.1-3.9-11.3-5.2-15.8c-0.6-1.8-1.3-3.7-1.9-5.5C186.4,168,184.1,160.5,181.2,156z"/>
</g>
<g>
	<path id="Left_C7" class="st0 dermatome " fill="#B5B5B5"  d="M224.5,251.1c-0.5,3.3-1.5,9.4,0.6,16c1.8,5.9,6.4,8.3,8.6,13.9c0.3,0.8,0.6,1.6,0.9,2.4
		c0.1,0,0.2,0,0.4,0.1c0.2,0.3,0.7,2.7,1.3,5.6c0.3,1.1,0.5,2.2,0.7,3.2c0.8,3.6,1.6,7.1,2.2,8c1.2,2.5,3.3,2.1,3.8,0.5
		c1.6-4.8-1.5-18.5-1.2-19.2c0.7-0.5,3.1,10.2,4.9,15.2c1.2,2.7,4.5,2.2,4.5,0c-0.2-2.9-1.1-7-1.7-9.9c-0.5-1.9-1.3-5.1-2.1-8.4
		c-7.1-1.8-17.9-5.6-20.6-12.4c-1.5-3.8-0.7-8.5-1.4-13.9C225.3,251.8,224.5,250.6,224.5,251.1z"/>
</g>
<g>
	<path id="Left_C6" class="st0 dermatome " fill="#B5B5B5"  d="M247.3,278.4c-1.4-5.5-2.8-11.3-2.2-11.2c4.1,1.7,11,8.7,12.8,6.6c2.1-2.5-3.3-8.8-9.9-13.3
		c-5.5-3.8-12.1-6.4-13.1-7.4c-3.2-3.2-4.3-6-6.5-15.8c-3.2-14-7.5-32-12.4-45.3c-0.6-1.5-1-3-1.4-4.5c1,10.3,3.4,22.4,8.8,34.7
		c6.1,13.9-1,33.1,3.3,43.8C229.4,272.8,240.3,276.6,247.3,278.4z"/>
</g>
<g>
	<path id="Left_C6" class="st0 dermatome " fill="#B5B5B5"  d="M211.3,155.8c0.1,0,0.2,0.1,0.3,0.2c-0.2-1.6-0.5-3.2-0.8-4.8c-2.3-11.3-1.7-17.7-1.1-27.8
		c0.7-11.8-2-21-8.9-28c0.7,1.8,1.5,3.7,2,5c1.4,3.2,3.9,6.3,3.7,15c-0.1,8.6-1.1,15.1-0.8,20.8C206,141.9,206.7,152,211.3,155.8z"
		/>
</g>
<g>
	<path id="Left_C5" class="st0 dermatome " fill="#B5B5B5"  d="M225.3,251.1c0.4-9.5,1.8-20.3-2-29c-5.3-12.3-7.7-24.4-8.8-34.7c-2.8-10.7-1.7-20.8-3-31.5
		c-0.1,0-0.2-0.1-0.3-0.2c-4.6-3.7-5.3-13.8-5.6-19.5c-0.4-5.6,0.6-12.1,0.8-20.8s-2.4-11.8-3.7-15c-0.5-1.3-1.3-3.2-2-5
		c-4.1-4.1-9.6-7.5-16.8-10.1c-1-0.3-1.9-0.7-2.9-1.1c-0.4,3.1-1.5,6.5-4.3,7.5c-5.5,2.1-15.1,0.2-20.8,0s-12.3-0.1-15.6,1.3
		c-4.7,2-6.6,6.5-10.6,6.3c-0.2,0-0.3-0.1-0.5-0.1v9.9c28.3-0.5,46.5,0.4,49.4-0.8c11.2-4.8,19,0,22.3,6c3.4,6,0.5,15.7-0.8,21.5
		c-1.3,5.9,1.9,10.9,4.2,20.7c2.4,9.8,3,30.3,4.2,39.5c1.2,9.1,7.9,26.3,12.2,35.6s4.3,20,4.3,20L225.3,251.1z"/>
</g>
<g>
	<path id="Left_C4" class="st0 dermatome " fill="#B5B5B5"  d="M181.3,84.2c-8-3.3-15.6-7.8-23-12.5c-0.9,0.8-1.7,1.5-2.2,1.9c-1.9,1.3-6.8,3.8-9.8,3.7
		s-4.5,0.7-7.2,2.5s-4.5,3.9-8.8,3.8c-0.3,0-0.6,0-0.9-0.1v15.7c0.2,0.1,0.3,0.1,0.5,0.1c3.9,0.1,5.8-4.3,10.6-6.3
		c3.3-1.4,10-1.5,15.6-1.3s15.3,2.1,20.8,0C179.6,90.6,180.7,87.3,181.3,84.2z"/>
</g>
<g>
	<path id="Left_C3" class="st0 dermatome " fill="#B5B5B5"  d="M155.9,73.5c0.5-0.4,1.3-1.1,2.2-1.9c-1-0.6-2.1-1.3-3.1-2c-5.3-3.4-7-9.7-7.1-14.7
		c-3.7,5.1-10.4,12-18.6,11.7v16.9c0.3,0.1,0.6,0.1,0.9,0.1c4.3,0.1,6.1-2.1,8.8-3.8s4.2-2.6,7.2-2.5
		C149.1,77.5,154.1,75,155.9,73.5z"/>
</g>
<g>
	<path id="Left_C2" class="st0 dermatome " fill="#B5B5B5"  d="M147.9,54.9c0-1.4,0.1-0.9,0.3-2.4c-3.9,4.9-10.6,11.6-18.9,11.6v2.5
		C137.5,66.9,144.2,60.1,147.9,54.9z"/>
</g>
<path class="st0_head" d="M129.6,64.2V0.5c-0.8,0-1.6,0-2.4,0c-12.3,0.5-19.8,9.3-20.3,23.4c0,1.2,0,3.3,0.1,4.3c0,0.3-0.2,0.4-0.5,0.4
	c-2.9-0.1-4.3,16.6,3,17.4c0.5,2.3,0.9,4.6,1.2,6.8C114.6,57.7,121.3,64.3,129.6,64.2z"/>
<path class="st1p" d="M91.2,148.7c0.2,0,0.5,0,0.7,0c6.5,0.5,12.7-1,19-2.1c4.3-0.8,8.5-1.7,12.8-2.2c6.6-0.7,13.2,0,19.7,1.5
	c6.9,1.6,13.8,3.5,21,3c0.3,0,0.7,0.3,1,0.4c-1.4,0.5-2.8,0.6-4.1,0.6c-3.5,0-7-0.6-10.4-1.3c-5-1-10-1.7-15-2.8
	c-3.9-0.8-7.8-0.8-11.6-0.3c-6.7,0.9-13.5,2.3-20.2,3.5c-4,0.6-8,1.1-12.1,0.8c-0.4-0.1-0.8-0.2-1.4-0.4C91,149,91,148.8,91.2,148.7
	z"/>
<path d="M95.6,395.7c0.2,0.7,0.5,1.2,0.5,1.6c0,1.9,0.7,3.7,1.6,5.3c1.4,2.7,3.8,4.3,6.8,2.8c1.4-0.7,2.6-1.5,3.3-3
	c0.2-0.5,0.8-0.7,1.2-1.1c0.1,0.1,0.3,0.2,0.4,0.3c-0.2,0.6-0.3,1.4-0.8,1.9c-1.6,1.7-3.2,3.3-5.7,3.8c-1.2,0.2-2.4,0-3.4-0.8
	c-1.6-1.3-2.9-2.6-3.6-4.6c-0.7-1.8-1.1-3.5-0.8-5.5C95.3,396.3,95.4,396.2,95.6,395.7z"/>
<path d="M160.6,395.7c-0.3,0.8-0.6,1.3-0.6,1.9c-0.1,2.2-0.8,4.2-1.8,6c-1.6,3-4.3,4.9-7.8,3.2c-1.6-0.8-3-1.7-3.7-3.4
	c-0.2-0.5-0.9-0.8-1.4-1.2c-0.2,0.1-0.3,0.2-0.5,0.3c0.3,0.7,0.4,1.6,0.9,2.1c1.8,1.9,3.7,3.8,6.4,4.3c1.4,0.2,2.7,0.1,3.8-0.9
	c1.8-1.4,3.3-3,4.1-5.3c0.7-2,1.3-4,0.9-6.2C160.9,396.4,160.8,396.2,160.6,395.7z"/>
<path d="M203.8,184.2c0.2,0.3,0.5,0.7,0.5,1c0.1,2.1-0.4,4.1-1.8,5.8c-1,1.3-1.9,1.6-3.2,0.6c-1.4-1-2.9-2.1-3.8-3.5
	c-1.8-3-3.4-6.1-4.8-9.3c-0.9-1.9-1.3-3.9-1.9-5.9c-0.1-0.4-0.1-0.8-0.1-1.3c1.1,0.5,1.1,1.4,1.4,2.1c1.5,3.9,3,7.8,4.6,11.5
	c0.9,2,2.1,3.8,4,5c2,1.3,3.1,1,4-1.3c0.3-0.8,0.4-1.6,0.5-2.4c0.1-0.7,0.1-1.5,0.2-2.2C203.5,184.3,203.6,184.2,203.8,184.2z"/>
<path d="M67.3,175.3c0.1,0.8,0.2,1.1,0.1,1.4c-1.2,4.3-2.7,8.6-4.9,12.5c-1.2,2.2-2.6,4.1-4.6,5.6c-2.1,1.6-3.5,1.3-4.7-1
	c-0.9-1.7-1.6-3.6-0.6-6.1c0.3,0.9,0.4,1.3,0.5,1.7c0.3,1.3,0.5,2.8,1,4c0.6,1.5,1.5,1.8,2.9,0.9c1.1-0.7,2.2-1.7,3-2.8
	c2.6-3.5,4.1-7.6,5.5-11.7C65.9,178.6,66,177,67.3,175.3z"/>
<path class="st2t" d="M128.8,199.2c2.5,0.2,2.8,3.6,3.1,5.5c0.2,1.1-1.6,2.2-3.1,2.2s-3.1-0.9-3.1-2.2
	C125.7,202.8,127.2,199.1,128.8,199.2z M129.1,202.5c-0.3-0.2-0.9-0.1-1.2,0.1c-1,0.7-1,3.5,1.2,3.2
	C130.2,205.6,130.2,203.2,129.1,202.5z"/>
<path d="M121.3,50c1.6-0.7,3.2-1.2,4.9-1.4c0.5-0.1,1.1,0.1,1.6,0.3c1.1,0.4,2.1,0.3,3.1,0.1c0.8-0.2,1.7-0.4,2.5-0.3
	c1.3,0.2,2.5,0.8,3.9,1.2c-0.3,0.4-0.4,0.7-0.6,0.8c-1.7,0.9-3.5,1.7-5.2,2.6c-1.4,0.7-2.8,0.7-4.3,0c-1.8-0.9-3.7-1.7-5.5-2.6
	C121.7,50.6,121.6,50.3,121.3,50z M133.7,50.4L133.7,50.4c0.1-0.5,0.1-0.9-0.6-0.9c-0.6,0-1.2,0-1.8,0.2c-1.2,0.4-2.4,0.4-3.6,0
	c-0.8-0.2-1.6-0.8-2.2,0.4c-0.1,0.1-0.6,0.1-0.8,0.1c-0.3,0-0.6,0.1-0.9,0.1c1.2,0.9,2.4,1.4,3.6,2c1.4,0.7,2.8,0.7,4.2,0
	c1.2-0.6,2.4-1.2,3.6-1.8c0-0.1-0.1-0.3-0.1-0.4C134.7,50.4,134.2,50.4,133.7,50.4z"/>
<path d="M132.7,40.5c0.1-0.5,2.7,0.7,1.8,3c-0.2,0.5-2,1.2-3,0.4c-1,0.5-1.2,0.9-2.5,1.1c-1.2,0.1-2.4-0.5-3.2-1.1
	c-0.6,0.3-1.2,0.5-1.9-0.4s-0.4-2.4,1.4-3.7c-0.1,0.9-1.7,2.7-0.7,3.4c1.5,0.9,1.1-1,1.9-0.1c1.6,2.1,3.2,1.1,4.3,0.1
	c0.2-0.1,0.5-0.5,0.7-0.6c1.6,1,2.5,0.6,2.4-0.2C133.8,41.1,132.7,41,132.7,40.5z"/>
<path d="M126.4,33.8c0.1-1.3,0.1-2.5,0.2-3.8c0-0.5,0-1,0.7-1.1l0,0c-0.6,0.8-0.1,1.8-0.2,2.7C127,32.3,127.3,33.2,126.4,33.8
	L126.4,33.8z"/>
<path d="M131.1,33.4c-0.1-1.3-0.1-2.5-0.2-3.8c0-0.5,0-1-0.7-1.1l0,0c0.6,0.8,0.1,1.8,0.2,2.7C130.6,32,130.2,32.9,131.1,33.4
	L131.1,33.4z"/>
<path d="M130.4,51.4c-0.5,0-1,0-1.5,0c0.5-0.6,1-0.5,1.5-0.3C130.4,51.2,130.4,51.3,130.4,51.4z"/>
<path d="M133.7,50.4c-0.6,0.6-1.3,0.7-2.1,0.4c0-0.1,0-0.2,0-0.3C132.3,50.5,133,50.5,133.7,50.4L133.7,50.4z"/>
<path d="M126.6,50.6c0.3,0,0.7,0,1,0c0,0.1,0,0.1,0,0.2c-0.2,0-0.3,0.1-0.5,0.1s-0.4-0.1-0.6-0.1C126.6,50.7,126.6,50.7,126.6,50.6z
	"/>
<path d="M132.7,25.8c2-1.6,5.4-2.5,8.2-2.1c0.8,0.1,4.1,1.1,5.5,3.3c0,0.1-0.1,0.2-0.1,0.3c-0.1,0-0.2,0.1-0.3,0.1
	c-1-1.3-2.9-2.1-4.5-2.3c-1.3-0.2-2.5,0.5-3.6,0.7c-1.2,0.2-2.4-0.1-3.6,0.2C133.8,26,133.4,26.5,132.7,25.8z"/>
<path d="M134.8,31.4c0.9-1.5,2.1-3.1,4.1-2.8c0.6,0.1,3.3,0.4,4.8,2.3c0.3,0.3-0.5,0-0.4,0c-1.1-0.8-2.9-1.3-4-1.4
	c-1.8-0.3-3,0.4-4,2.3C135.1,32,134.6,31.8,134.8,31.4z"/>
<path d="M135.2,32.2c0,0,0.5-1.6,2.1-2.3c1-0.5,3.4-0.3,4.4,0.3s1.5,1.3,1.6,1.4c0.1,0.2-0.7,0.4-0.9,0.5c-0.4,0.3-0.7,0.6-1.7,0.9
	s-2.9,0.2-3,0.1c-0.1-0.1,0.1-0.1,1-0.2c0.9-0.1,1.8-0.3,2.2-0.6c0.5-0.3,1.3-0.7,1.3-0.7s-0.8-0.7-1.1-0.9
	c-0.7-0.3-2.4-0.5-3.1-0.3C136.2,31.3,135.8,32.8,135.2,32.2z"/>
<path d="M141.4,30.8c0,0.9-0.8,1.7-1.8,1.7s-1.8-0.8-1.8-1.7c-0.1-0.1,0.5-0.4,0.6-0.3c-0.1,1.2,0.6,1.5,1.2,1.5s1.3-0.4,1.4-1.4
	C141,30.4,141.4,30.7,141.4,30.8z"/>
<path d="M123.9,25.8c-2-1.6-5.4-2.5-8.2-2.1c-0.8,0.1-4.1,1.1-5.5,3.3c0,0.1,0.1,0.2,0.1,0.3c0.1,0,0.2,0.1,0.3,0.1
	c1-1.3,2.9-2.1,4.5-2.3c1.3-0.2,2.5,0.5,3.6,0.7c1.2,0.2,2.4-0.1,3.6,0.2C122.8,26.1,123.2,26.6,123.9,25.8z"/>
<path d="M121.8,31.4c-0.9-1.5-2.1-3.1-4.1-2.8c-0.6,0.1-3.3,0.4-4.8,2.3c-0.3,0.3,0.5,0,0.4,0c1.1-0.8,2.9-1.3,4-1.4
	c1.8-0.3,3,0.4,4,2.3C121.6,32.1,122,31.9,121.8,31.4z"/>
<path d="M121.4,32.3c0,0-0.5-1.6-2.1-2.3c-1-0.5-3.4-0.3-4.4,0.3s-1.5,1.3-1.6,1.4c-0.1,0.2,0.7,0.4,0.9,0.5
	c0.4,0.3,0.7,0.6,1.7,0.9c0.9,0.3,2.9,0.2,3,0.1s-0.1-0.1-1-0.2c-0.9-0.1-1.8-0.3-2.2-0.6c-0.5-0.3-1.3-0.7-1.3-0.7s0.8-0.7,1.1-0.9
	c0.7-0.3,2.4-0.5,3.1-0.3C120.4,31.3,120.9,32.9,121.4,32.3z"/>
<path d="M115.3,30.8c0,0.9,0.8,1.7,1.8,1.7s1.8-0.8,1.8-1.7c0.1-0.1-0.5-0.4-0.6-0.3c0.1,1.2-0.6,1.5-1.2,1.5s-1.3-0.4-1.4-1.4
	C115.6,30.5,115.2,30.7,115.3,30.8z"/>
<path class="st3t" d="M150.1,35.8c0,0,0.4-1.4,0.9-2.6c0.5-1.1,1.5-1.7,1.8-1.7"/>
<path class="st3t" d="M151.8,34.9c0,0,0.3,1.1,0.4,2.1s0,1.8-0.2,2"/>
<path class="st3t" d="M152.2,39.9c0,0-1.1,0.6-1.5,1.4c-0.5,0.8-0.8,1.1-1,1.3"/>
<path class="st3t" d="M149.9,37.2c0,0,1.1,2,0.2,3.2c-0.5,0.7-0.6,1.7-0.9,2"/>
<path class="st3t" d="M108.1,35.2c0,0-0.3-1.5-0.8-2.7c-0.5-1.2-1-1.9-1.3-2"/>
<path class="st3t" d="M106.4,33.6c0,0,0,1.4-0.2,2.4s0.3,2.5,0.9,3"/>
<path class="st3t" d="M108,36.2c0,0-0.2,2,0.1,2.4c0.3,0.5,0.9,1.4,0.9,2.3s-0.1,1.4-0.1,1.4s-0.9-2-1.3-2"/>
<path class="st3t" d="M126.9,56.9c0,0,3.4-0.9,4.9-0.1"/>
<path class="st4t" d="M129.7,294.3c-1.1-0.1-1.7-0.1-1.7,0.9c0.3,24.7-1.7,48.5-2.9,73.3c-0.4,8.1-1.3,16.3-3.3,24.2
	c-2.5,10-2.3,19.7,1.3,29c5.5,14,5.1,27.7,2.2,42.1c-3.3,16.1-2.5,32.4,0.3,48.7c1.4,8.4,2.4,17-0.3,25.5c-0.6,2,0.2,4.5,0.3,6.8
	c0,4.7,1.5,9.6,0.7,14.2c-0.9,5.4-9.6,9.2-11.2,2.3c-2.7,2.4-6,2.7-7.7-0.3c-3.6,4.5-14.5-0.8-11.2-11.4c0.5-1.6,0.9-3.2,1.7-4.7
	c7.6-14.1,7.7-29.6,6.7-44.7c-0.9-14-4.9-27.7-7.9-41.5c-2.4-11.2-5.8-22.2-7.7-33.4c-0.9-5.6,0.4-11.6,1.2-17.3
	c1.9-13.5-0.7-26.5-3.6-39.5c-6.4-28.3-11.3-56.6-10.3-86c0.7-20.4,3.1-40.4,7.7-60.1c0.2-0.7,0.2-1.3,0.2-2
	c0.3-16.6,1-33.2,0.5-49.8c-0.2-5.9-3.1-11.7-4.8-17.5c-0.7,0-0.6,0-1.3,0c-2.7,10.9-5.1,21.6-6.8,32.6c-3.3,20.6-4.8,35.1-22.6,58
	c-4,5.2-5,10.8-6,17.4c-1.7,10.6-4.1,19.4-6.8,29.9c-0.4,1.4-1.7,6.7-3.8,5.3c-1.7-1.1,0.7-13.7-0.3-12.2c-1.2,2.5-2.8,10.1-5,15.5
	c-1.1,3-3.6,3.5-4.5,2c-1.6-4.1,3.6-19.5,1.4-17.8c-0.6,0.9-2.9,14.9-4.2,16.8c-1.3,2.5-3.4,2.1-3.8,0.5c-1.5-4.8,1.5-18.5,1.2-19.2
	c-0.7-0.6-3.1,10.2-4.9,15.2c-1.3,2.8-4.5,2.3-4.5,0c0.1-2.9,1-7.1,1.7-9.9c1.1-5.1,5.2-19.7,4.2-19.5c-4.1,1.7-11,8.7-12.8,6.6
	c-2.1-2.5,3.3-8.8,9.9-13.3c5.5-3.8,12.2-6.5,13.1-7.4c3.3-3.3,4.3-6,6.5-15.8c3.1-13.9,7.5-31.9,12.4-45.3
	c5.1-14,2.4-26.9,5.2-40.8c2.3-11.3,1.7-17.7,1.1-27.8c-1.1-18.8,6.6-31.1,25.7-38.1c10.2-3.7,19.8-9.6,29-15.6
	c8.9-5.8,7.6-14.1,5.6-23.9c-7.3-0.8-5.9-17.4-3-17.4c0.3,0,0.5-0.2,0.5-0.4c0-1-0.1-3.2-0.1-4.3c0.5-14.1,8-22.9,20.3-23.4
	c0.8,0,1.6,0,2.3,0"/>
<path class="st4t" d="M129.6,0.8c0.8,0,1.5,0,2.3,0c12.3,0.5,19.8,8.9,20.3,23c0,1.1-0.1,3.3-0.1,4.3c0,0.2,0.2,0.4,0.5,0.4
	c2.9,0,4.3,16.6-3,17.4c-2,9.8-3.3,18.1,5.6,23.9c9.2,6,18.8,11.9,29,15.6c19.1,7,26.8,19.3,25.7,38.1c-0.6,10.1-1.2,16.5,1.1,27.8
	c2.8,13.9,0.1,26.8,5.2,40.8c4.9,13.4,9.3,31.4,12.4,45.3c2.2,9.8,3.2,12.5,6.5,15.8c0.9,0.9,7.6,3.6,13.1,7.4
	c6.6,4.5,12,10.8,9.9,13.3c-1.8,2.1-8.7-4.9-12.8-6.6c-1-0.2,3.1,14.4,4.2,19.5c0.7,2.8,1.6,7,1.7,9.9c0,2.3-3.2,2.8-4.5,0
	c-1.8-5-4.2-15.8-4.9-15.2c-0.3,0.7,2.7,14.4,1.2,19.2c-0.4,1.6-2.5,2-3.8-0.5c-1.3-1.9-3.6-15.9-4.2-16.8c-2.2-1.7,3,13.7,1.4,17.8
	c-0.9,1.5-3.4,1-4.5-2c-2.2-5.4-3.8-13-5-15.5c-1-1.5,1.4,11.1-0.3,12.2c-2.1,1.4-3.4-3.9-3.8-5.3c-2.7-10.5-5.1-19.3-6.8-29.9
	c-1-6.6-2-12.2-6-17.4c-17.8-22.9-19.3-37.4-22.6-58c-1.7-11-4.1-21.7-6.8-32.6c-0.7,0-0.6,0-1.3,0c-1.7,5.8-4.6,11.6-4.8,17.5
	c-0.5,16.6,0.2,33.2,0.5,49.8c0,0.7,0,1.3,0.2,2c4.6,19.7,7,39.7,7.7,60.1c1,29.4-3.9,57.7-10.3,86c-2.9,13-5.5,26-3.6,39.5
	c0.8,5.7,2.1,11.7,1.2,17.3c-1.9,11.2-5.3,22.2-7.7,33.4c-3,13.8-7,27.5-7.9,41.5c-1,15.1-0.9,30.6,6.7,44.7
	c0.8,1.5,1.2,3.1,1.7,4.7c3.3,10.6-7.6,15.9-11.2,11.4c-1.7,3-5,2.7-7.7,0.3c-1.6,6.9-10.3,3.1-11.2-2.3c-0.8-4.6,0.7-9.5,0.7-14.2
	c0.1-2.3,0.9-4.8,0.3-6.8c-2.7-8.5-1.7-17.1-0.3-25.5c2.8-16.3,3.6-32.6,0.3-48.7c-2.9-14.4-3.3-28.1,2.2-42.1
	c3.6-9.3,3.8-19,1.3-29c-2-7.9-2.9-16.1-3.3-24.2c-1.2-24.8-4-48.6-3.7-73.3c0-0.8-1.5-0.9-1.7-0.9"/>
<text transform="matrix(1 0 0 1 156.4586 52.5106)" class="st5 st6">C2</text>
<text transform="matrix(1 0 0 1 135.7918 73.3877)" class="st5 st6">C3</text>
<text transform="matrix(1 0 0 1 139.205 88.5544)" class="st5 st6">C4</text>
<text transform="matrix(1 0 0 1 143.7117 104.3044)" class="st5 st6">C5</text>
<text transform="matrix(1 0 0 1 143.6444 116.5544)" class="st5 st6">T1</text>
<text transform="matrix(1 0 0 1 193.5758 164.8878)" class="st5 st6">T1</text>
<text transform="matrix(1 0 0 1 143.712 126.5556)" class="st5 st6">T2</text>
<text transform="matrix(1 0 0 1 143.6441 135.7223)" class="st5 st6">T3</text>
<text transform="matrix(1 0 0 1 143.6441 144.889)" class="st5 st6">T4</text>
<text transform="matrix(1 0 0 1 143.6441 154.7924)" class="st5 st6">T5</text>
<text transform="matrix(1 0 0 1 143.6441 166.4414)" class="st5 st6">T6</text>
<text transform="matrix(1 0 0 1 143.7119 179.9414)" class="st5 st6">T7</text>
<text transform="matrix(1 0 0 1 143.6442 193.6081)" class="st5 st6">T8</text>
<text transform="matrix(1 0 0 1 143.6441 205.9414)" class="st5 st6">T9</text>
<text transform="matrix(1 0 0 1 143.7119 219.411)" class="st5 st6">T10</text>
<text transform="matrix(1 0 0 1 143.6442 234.911)" class="st5 st6">T11</text>
<text transform="matrix(1 0 0 1 144.4775 251.5108)" class="st5 st6">T12</text>
<text transform="matrix(1 0 0 1 144.744 270.4703)" class="st5 st6">L1</text>
<text transform="matrix(1 0 0 1 152.8587 288.2105)" class="st5 st6">L2</text>
<text transform="matrix(1 0 0 1 156.7277 316.017)" class="st5 st6">L3</text>
<text transform="matrix(1 0 0 1 158.0611 360.1714)" class="st5 st6">L4</text>
<text transform="matrix(1 0 0 1 133.1345 531.0886)" class="st5 st6">L4</text>
<text transform="matrix(1 0 0 1 167.1343 523.7553)" class="st5 st6">S1</text>
<text transform="matrix(1 0 0 1 152.8582 461.8382)" class="st5 st6">L5</text>
<line class="st3t" x1="149.3" y1="54.5" x2="155.9" y2="51.2"/>
<text transform="matrix(1 0 0 1 218.708 126.7169)" class="st5 st6">C6</text>
<line class="st3t" x1="211.6" y1="128.7" x2="218.1" y2="125.4"/>
<text transform="matrix(1 0 0 1 222.2897 173.6545)" class="st5 st6">C5</text>
<line class="st3t" x1="215.2" y1="175.7" x2="221.7" y2="172.3"/>
<text transform="matrix(1 0 0 1 243.2806 247.4806)" class="st5 st6">C6</text>
<line class="st3t" x1="236.1" y1="249.5" x2="242.7" y2="246.2"/>
<line class="st3t" x1="208.2" y1="284.4" x2="217.6" y2="279.6"/>
<line class="st3t" x1="156.8" y1="527.7" x2="166.1" y2="522.9"/>
<text transform="matrix(1 0 0 1 248.4505 315.647)" class="st5 st6">C7</text>
<text transform="matrix(1 0 0 1 198.0634 287.147)" class="st5 st6">C8</text>
<line class="st3t" x1="249" y1="307.9" x2="245.7" y2="300.1"/>
<g class="st7q">
	<ellipse class="st8o" cx="92.2" cy="138.3" rx="3.3" ry="2.7"/>
	<ellipse class="st9o" cx="92.2" cy="138.3" rx="0.7" ry="0.6"/>
	<ellipse class="st8o" cx="168.7" cy="138.3" rx="3.3" ry="2.7"/>
	<ellipse class="st9o" cx="168.7" cy="138.3" rx="0.7" ry="0.6"/>
</g>
<g>
	<path id="Right_S3" class="st0 dermatome " fill="#B5B5B5"  d="M121.6,274.1c0.2,5.6-3.3,11.3-3.1,15.2c0.1,1.5,1.9,6,5.6,5.2c3.6-0.8,2.2-1.2,4.5-1.2
		v-21.6C125,271.7,121.5,272.5,121.6,274.1z"/>
</g>
<g>
	<path id="Left_S3" class="st0 dermatome " fill="#B5B5B5"  d="M136.5,278.8c-0.7-1.9-0.7-2.7-0.8-4.4c0-1.7-3.6-2.6-7.1-2.7v21.6h0.1c2.5,0,5.3,2.6,8-0.5
		C138.9,290.3,138.4,284.3,136.5,278.8z"/>
</g>
<g>
	<path id="Right_S2" class="st0 dermatome " fill="#B5B5B5"  d="M124,264.5c0,0,0,13.9,0,18.7c-1.4,4.4,1.7,7,4.6,7v-25.7H124z"/>
</g>
<g>
	<path id="Left_S2" class="st0 dermatome " fill="#B5B5B5"  d="M133.1,283.2c0-5.9,0-18.7,0-18.7h-4.5v25.7C131.3,290.2,134,288.1,133.1,283.2z"/>
</g>
<text transform="matrix(1 0 0 1 124.8257 279.4015)" class="st1p0 st6">S2</text>
<text transform="matrix(1 0 0 1 130.0759 292.7828)" class="st1p0 st6">S3</text>
</svg>
