<?xml version="1.0" encoding="utf-8"?>
<!-- Generator: Adobe Illustrator 21.0.0, SVG Export Plug-In . SVG Version: 6.00 Build 0)  -->
<svg version="1.1" id="Layer_1" xmlns="http://www.w3.org/2000/svg" xmlns:xlink="http://www.w3.org/1999/xlink" x="0px" y="0px"
	 viewBox="0 0 280 300" style="enable-background:new 0 0 241.5 301.3;" xml:space="preserve">
<style type="text/css">
	.st0_right{fill:#D3B6A8;stroke:#705C4F;stroke-width:1.5;stroke-miterlimit:10;}
	.st1_right{fill:#AF8C7E;}
	.st2_right{fill:#705C4F;}
	.st3_right{opacity:0.7;fill:#FFFFFF;}
	.st4_right{fill:#D3B6A8;}
	.st5_right{font-family:'ArialRoundedMTBold';}
	.st6_right{font-size:12px;}
</style>
<path class="st0_right" d="M140.8,68.8c-4.2,0.3-10.2,7.8-11.2,15.5c-1,7.8,0.7,12.3,0.5,19.3s-1.6,7.5-1.2,31c0.4,23.5,0.4,32.8,1.4,39.5
	s3,12.5,4.5,21c1.5,8.5,3.7,30.5,4.5,33s4,20.5,8.8,30.3c4.8,9.8,17.3,14.5,24.3,14.5s17-1.2,25-10.2c8-9,9.3-12.7,9.6-19.5
	c0.4-6.8-1.6-14.9-1.4-20.9c0.1-3.6,3-13.5,2.3-23.3c0,0-2.2-24.3-0.7-31.3s4.2-11.7,4.9-16.9s7.4-18.3,9.4-21.5
	c3.1-5.1,7.4-15.5,6.6-21.7s-3.3-27.5-2.3-33.3s4.3-7.4,5.5-10c1.6-3.5,3-20,0.5-25.8s-3.7-9.2-13-12.7c-11-4.2-16,4.5-18.5,6.2
	c-1.2,0-1.1-5.6-6.9-8.2c-5.9-2.6-11.6-1.6-14.3,1s-4,9.9-3.3,11.6s-6.2-6.1-14.2,1.4c-6.8,6.3-2.6,12.1-2.6,12.1s-7.6-2.2-13,5.6
	c-4,5.8-4.1,10.7-3.5,12.9C142.8,69.3,142.3,68.7,140.8,68.8z"/>
<path class="st1_right" d="M207,165.3c-8.1,4.8-11.6,13.9-20.1,17c-0.8,0.3-0.7,0.6,0.1,0.4c8.7-1.6,12.3-9.3,19.5-14.5
	C207.2,167.8,207.7,164.9,207,165.3z"/>
<path class="st1_right" d="M205.8,172.5c-0.8,0.9-1.7,1.8-2.7,2.4c-0.8,0.5-0.9,1.1-0.8,2.1c0.1,0.8,0.7,0.8,0.8,0.3
	c0.2-0.8,1.6-0.8,2.1-1.2c0.7-0.5,0.9-0.6,1.5-1.2C207.3,174.4,206.3,171.9,205.8,172.5z"/>
<path class="st1_right" d="M198,224.2c-3.1-5.9-4.7-9.7-7.9-14.9c-3.6-5.9-6.6-12-7.3-18.8c-0.1-0.8-0.4-0.9-0.4,0
	c0.7,6.7,2.3,12.9,5.7,18.8c3.3,5.7,5.6,10.2,10.1,16C198.7,225.8,198.4,224.9,198,224.2z"/>
<g>
	<path class="st1_right" d="M204.6,155c0.5-2.3,0.9-4.6,1.2-6.9c0.4-2.3,0.7-4.6,0.8-6.9c0-2.4,0.7-4.7,1.3-7c0.6-2.3,1.4-4.5,2.2-6.7
		c1.6-4.4,3-8.8,5.4-13c0.3-0.5,0.7-1,1.1-1.5c0.2-0.2,0.4-0.5,0.7-0.7c0.2-0.1,0.2-0.2,0.3-0.3c0.1-0.1,0.1-0.1,0.2-0.2
		c0.6-0.7,0.9-1.8,1.2-2.9c0.5-2.1,0.3-4.4-0.3-6.4c-0.7-2.1-1.9-3.8-3.7-5.2c-1.7-1.4-3.7-2.5-5.8-2.8c-2.1-0.3-4.3,0.2-6.4,1.1
		c-1.9,0.9-3.6,2.5-5,4.2c-0.7,0.9-1.4,1.8-1.9,2.8c-0.3,0.5-0.5,1-0.6,1.5c-0.1,0.5-0.2,1-0.1,1.5c0.2,2.1,1.7,4,2.9,6.1
		c0.5,1.1,1.1,2.1,1.3,3.4c0.2,1.2,0.1,2.4,0.1,3.6c-0.1,2.3-0.4,4.7-0.8,7l-0.1,0c0.3-2.3,0.5-4.6,0.5-7c0-1.2,0-2.3-0.2-3.5
		c-0.2-1.1-0.7-2.2-1.3-3.2c-0.6-1-1.2-2-1.8-3c-0.6-1-1.1-2.1-1.2-3.3c-0.1-0.6,0-1.2,0.1-1.8c0.2-0.6,0.4-1.1,0.7-1.6
		c0.5-1,1.2-2,1.9-2.9c1.4-1.8,3.2-3.5,5.3-4.5c2.1-1,4.5-1.5,6.8-1.2c2.3,0.3,4.5,1.5,6.3,3c1.8,1.5,3.3,3.4,4,5.6
		c0.7,2.2,0.8,4.7,0.3,6.9c-0.3,1.1-0.7,2.3-1.4,3.2c-0.4,0.5-0.9,0.8-1.2,1.2c-0.4,0.4-0.7,0.9-1,1.4c-2.4,4-3.8,8.5-5.4,12.8
		c-0.8,2.2-1.6,4.4-2.3,6.6c-0.7,2.2-1.3,4.5-1.4,6.8c-0.2,2.3-0.6,4.6-1,6.9C205.7,150.4,205.2,152.7,204.6,155L204.6,155z"/>
</g>
<g>
	<path class="st1_right" d="M217,81.7c0.3,1.4,0.6,2.8,1,4.1c0.4,1.2,1.3,2.2,2,3.7c0.3,0.7,0.6,1.6,0.5,2.5c-0.1,0.9-0.4,1.7-0.9,2.4
		c-0.5,0.7-1.1,1.2-1.7,1.6c-0.7,0.4-1.4,0.7-2.1,0.9l0-0.1c1.3-0.6,2.5-1.6,3.2-2.8c0.4-0.6,0.6-1.3,0.6-2c0-0.7-0.2-1.4-0.5-2
		c-0.6-1.3-1.5-2.5-1.8-3.9C217,84.6,216.9,83.2,217,81.7L217,81.7z"/>
</g>
<g>
	<path class="st1_right" d="M202.5,82.3c-0.1,1.5-0.4,2.9-1.1,4.3c-0.3,0.7-0.9,1.4-1.4,1.9c-0.5,0.5-1.1,1-1.5,1.5
		c-0.9,0.9-1.2,1.9-1.1,3.2c0.1,0.6,0.3,1.3,0.6,1.9c0.2,0.7,0.6,1.3,1,1.9l-0.1,0.1c-1.1-1-1.9-2.2-2.3-3.7c-0.2-0.7-0.2-1.5,0-2.2
		c0.2-0.7,0.6-1.3,1.1-1.9c1-1.1,2.2-1.9,2.9-3.1C201.4,85,202,83.7,202.5,82.3L202.5,82.3z"/>
</g>
<g>
	<path class="st1_right" d="M181.9,126.5c0.3-1.8,0.6-3.6,0.9-5.4c0.1-0.9,0.2-1.8,0.3-2.7c0-0.5,0-0.9,0.1-1.4c0-0.5,0.1-1,0.2-1.4
		c0.4-1.8,0.9-3.6,1.5-5.4l0.9-2.6l0.5-1.3c0.1-0.2,0.2-0.5,0.3-0.7c0.1-0.2,0.2-0.5,0.4-0.7c1-1.7,2.2-3.1,3.1-4.5
		c0.8-1.4,1.2-3.1,1.2-4.8c0-0.9-0.1-1.7-0.2-2.5c-0.2-0.8-0.5-1.6-0.9-2c-0.2-0.2-0.5-0.3-0.7-0.4c-0.1,0-0.3,0-0.4,0l-0.7,0.1
		c-1,0.1-1.9,0.1-2.9,0c-2-0.2-3.8-1-5.4-1.3c-0.6-0.1-1.2,0.3-1.7,0.9c-0.5,0.6-1,1.4-1.3,2.1c-0.2,0.4-0.3,0.8-0.5,1.2
		c-0.1,0.4-0.2,0.8-0.2,1.2c-0.1,0.8,0,1.7,0.1,2.6c0.1,0.9,0.3,1.8,0.5,2.7l0.3,1.3l0.2,0.7c0.1,0.2,0.1,0.5,0.1,0.7
		c0.2,3.7,0,7.4,0,11.1c-0.1,3.7-0.2,7.3-0.4,11l-0.1,0c0.1-3.7,0.2-7.3,0.2-11c0-3.7,0.1-7.3-0.1-11c0-0.4-0.2-0.9-0.3-1.3
		l-0.4-1.3c-0.2-0.9-0.4-1.8-0.6-2.7c-0.1-0.9-0.2-1.8-0.2-2.8c0-0.9,0.4-1.8,0.7-2.7c0.4-0.8,0.8-1.7,1.4-2.4
		c0.6-0.7,1.5-1.3,2.4-1.2c1.8,0.3,3.5,1.1,5.3,1.3c0.9,0.1,1.8,0.1,2.7,0c0.4,0,0.9-0.1,1.4-0.1c0.5,0.1,0.9,0.3,1.3,0.6
		c0.7,0.7,1,1.6,1.2,2.5c0.2,0.9,0.3,1.8,0.2,2.8c-0.1,1.8-0.4,3.7-1.4,5.3c-1,1.5-2.2,2.9-3.2,4.5c-0.5,0.8-0.7,1.7-1.1,2.5l-1,2.6
		c-0.6,1.7-1.2,3.5-1.6,5.3c-0.2,0.9-0.3,1.8-0.4,2.7c-0.1,0.9-0.3,1.8-0.4,2.7C182.8,122.9,182.4,124.7,181.9,126.5L181.9,126.5z"
		/>
</g>
<g>
	<path class="st1_right" d="M189.5,80c0.3,0.9,0.6,1.8,0.9,2.6c0.3,0.7,0.8,1.3,1.3,2.3c0.2,0.5,0.4,1.1,0.3,1.7c-0.1,0.6-0.3,1.2-0.7,1.6
		c-0.7,0.9-1.7,1.4-2.7,1.5l0-0.1c0.8-0.4,1.6-1,2-1.8c0.2-0.4,0.4-0.8,0.4-1.3c0-0.4-0.1-0.9-0.3-1.3c-0.4-0.8-1-1.6-1.2-2.5
		C189.4,81.9,189.4,81,189.5,80L189.5,80z"/>
</g>
<g>
	<path class="st1_right" d="M180.6,80.1c0.1,1-0.1,2-0.5,2.9c-0.2,0.5-0.6,1-0.9,1.3c-0.3,0.4-0.7,0.7-0.9,0.9c-0.5,0.6-0.7,1-0.7,1.8
		c0,0.7,0.3,1.6,0.8,2.5l-0.1,0.1c-0.7-0.6-1.2-1.4-1.5-2.4c-0.1-0.5-0.1-0.9,0-1.4c0.1-0.5,0.4-0.9,0.7-1.2c0.6-0.7,1.4-1.2,1.9-2
		C179.9,81.8,180.3,80.9,180.6,80.1L180.6,80.1z"/>
</g>
<g>
	<path class="st1_right" d="M169.5,130.6c0.7-3.4,1.3-6.8,1.8-10.2c0.1-0.8,0.2-1.7,0.2-2.5c0-0.2,0-0.4,0-0.6c0-0.2,0-0.5,0-0.7
		c0-0.4,0-0.9,0-1.3c0.1-1.7,0.2-3.5,0.4-5.2l0.1-1.3c0-0.2,0.1-0.4,0.1-0.7l0.1-0.6c0.1-0.8,0.2-1.7,0.4-2.6
		c0.1-0.4,0.2-0.9,0.3-1.3c0-0.2,0.1-0.5,0.2-0.7c0.1-0.2,0.1-0.4,0.1-0.5c0.2-0.8,0.2-1.6,0.2-2.4c0-0.8-0.1-1.6-0.4-2.3
		c-0.2-0.7-0.5-1.5-0.9-1.7c-0.1-0.1-0.1-0.1-0.2-0.1c-0.1,0-0.1,0-0.3,0c-0.4,0.1-0.9,0.2-1.4,0.3c-0.9,0.1-2,0.1-2.9-0.1l-1.3-0.3
		c-0.2,0-0.4-0.1-0.6-0.1c-0.1,0-0.2,0-0.3,0c-0.4,0.1-0.8,0.8-1.1,1.5c-0.3,0.7-0.5,1.6-0.6,2.3c-0.1,0.8,0,1.6,0.2,2.4
		c0.2,0.8,0.4,1.6,0.6,2.5l0.4,1.2l0.1,0.3c0,0.1,0.1,0.3,0.1,0.4c0,0.2,0,0.5,0,0.7c0,1.7-0.1,3.5-0.2,5.2
		c-0.4,6.9-0.9,13.8-1.4,20.7l-0.1,0c0.4-6.9,0.9-13.8,1.2-20.7c0.1-1.7,0.1-3.4,0.1-5.2c0.1-0.9-0.4-1.6-0.6-2.5
		c-0.3-0.8-0.5-1.6-0.7-2.5c-0.2-0.8-0.3-1.7-0.3-2.6c0.1-0.9,0.3-1.7,0.6-2.5c0.3-0.8,0.7-1.7,1.5-2.1c0.4-0.2,0.9-0.1,1.3,0
		l1.3,0.2c0.8,0.2,1.7,0.2,2.5,0.1c0.4-0.1,0.8-0.2,1.3-0.3c0.4-0.1,0.9-0.1,1.3,0.1c0.8,0.5,1.1,1.4,1.3,2.2
		c0.2,0.8,0.3,1.7,0.4,2.6c0,0.9,0,1.7-0.2,2.6c-0.1,0.4-0.2,0.8-0.4,1.2c-0.1,0.4-0.2,0.8-0.3,1.3c-0.2,0.8-0.3,1.7-0.4,2.6
		c-0.2,0.9-0.3,1.7-0.4,2.6c-0.2,1.7-0.4,3.4-0.5,5.1c-0.1,0.9,0,1.7,0,2.6c-0.1,0.9-0.2,1.7-0.3,2.6
		C171.1,123.9,170.4,127.2,169.5,130.6L169.5,130.6z"/>
</g>
<g>
	<path class="st1_right" d="M171.2,87.3c0.4,0.7,0.7,1.3,1,1.9c0.2,0.3,0.3,0.5,0.5,0.7c0.2,0.3,0.4,0.6,0.6,0.9c0.2,0.4,0.4,0.9,0.4,1.4
		c0,0.5-0.1,1-0.3,1.4c-0.4,0.8-1.1,1.3-1.9,1.5l-0.1-0.1c0.6-0.4,1-1,1.2-1.7c0.2-0.7,0.1-1.4-0.2-2c-0.3-0.6-0.8-1.2-1-1.9
		C171.3,88.7,171.2,88,171.2,87.3L171.2,87.3z"/>
</g>
<g>
	<path class="st1_right" d="M165.2,88.2c0.2,0.8,0.3,1.5,0.1,2.3c0,0.4-0.3,0.9-0.5,1.2c-0.2,0.3-0.4,0.6-0.5,0.9
		c-0.3,0.5-0.4,0.8-0.4,1.4c0,0.6,0.2,1.2,0.5,1.9l-0.1,0.1c-0.6-0.5-1-1.1-1.2-1.8c-0.2-0.7-0.1-1.5,0.3-2.1
		c0.4-0.6,0.9-1.1,1.1-1.8C164.8,89.6,165,88.9,165.2,88.2L165.2,88.2z"/>
</g>
<g>
	<path class="st1_right" d="M159.6,138.1c-0.5-6.3-1.2-12.5-1.4-18.9c0-1.6-0.1-3.2,0-4.8c0-0.4,0-0.8,0.1-1.2c0-0.2,0.1-0.6,0.2-0.7
		c0-0.2,0.1-0.3,0.1-0.5c0.2-0.7,0.2-1.4,0.2-2.2c0-0.7-0.1-1.5-0.2-2.2c-0.2-0.7-0.4-1.4-0.7-1.8c-0.1-0.1-0.2-0.2-0.2-0.3
		c-0.1,0-0.1-0.1-0.2-0.1c0,0-0.1,0-0.1,0c0,0-0.1,0-0.1,0l-0.1,0l-0.1,0l-0.3,0.1c-0.8,0.2-1.7,0.4-2.6,0.3c-0.9,0-1.7-0.3-2.4-0.4
		c-0.9-0.1-0.9-0.2-1.3,0.2c-0.7,0.9-1.1,2.6-1.2,3.9c0.1,1.3,0.7,2.8,1.4,4.1c0.3,0.7,0.7,1.3,1.1,2c0.1,0.1,0.1,0.3,0.2,0.4
		l0.1,0.2l0,0.2l0.1,0.6l0.1,1.2c0.2,3.2,0.4,6.3,0.5,9.5c0,3.2,0.1,6.3,0.1,9.4l-0.1,0c-0.3-6.3-0.6-12.6-1.2-18.8
		c-0.1-0.8-0.2-1.6-0.4-2.3c-0.4-0.7-0.8-1.4-1.2-2.1c-0.7-1.4-1.4-2.9-1.5-4.5c0-0.8,0.1-1.6,0.3-2.4c0.2-0.8,0.5-1.5,1-2.2
		c0.3-0.3,0.6-0.6,1-0.7c0.4-0.1,0.8,0,1.2,0.1c0.8,0.1,1.5,0.3,2.3,0.4c0.8,0,1.6-0.1,2.3-0.3c0.2,0,0.4-0.1,0.6-0.1l0.3,0
		c0.1,0,0.2,0,0.3,0.1c0.2,0,0.4,0.2,0.6,0.3c0.1,0.2,0.3,0.3,0.4,0.5c0.9,1.4,1.1,3,1.1,4.6c0,0.8-0.1,1.6-0.2,2.4
		c-0.1,0.4-0.2,0.8-0.3,1.1c-0.1,0.4-0.1,0.8-0.1,1.2c-0.1,1.6-0.1,3.1-0.1,4.7c0,3.1,0.2,6.3,0.3,9.4L159.6,138.1L159.6,138.1z"/>
</g>
<g>
	<path class="st1_right" d="M156.7,96.9c0.4,0.7,0.7,1.3,1,1.9c0.3,0.6,0.8,1.1,0.9,2.2c0.1,1-0.3,1.8-0.8,2.5c-0.5,0.6-1.1,1.1-1.9,1.4
		l-0.1-0.1c0.5-0.5,0.9-1.1,1.3-1.7c0.3-0.6,0.5-1.3,0.5-2c-0.1-0.7-0.5-1.3-0.7-2C156.7,98.3,156.6,97.6,156.7,96.9L156.7,96.9z"/>
</g>
<g>
	<path class="st1_right" d="M150.7,97.8c0.2,0.8,0.3,1.5,0.1,2.3c0,0.4-0.3,0.9-0.5,1.2c-0.2,0.3-0.4,0.6-0.5,0.9
		c-0.3,0.5-0.4,0.8-0.4,1.4c0,0.6,0.2,1.2,0.5,1.9l-0.1,0.1c-0.6-0.5-1-1.1-1.2-1.8c-0.2-0.7-0.1-1.5,0.3-2.1
		c0.4-0.6,0.9-1.1,1.1-1.8C150.3,99.2,150.5,98.5,150.7,97.8L150.7,97.8z"/>
</g>
<g>
	<path class="st1_right" d="M136.1,109.1c-0.1,0.6-0.2,1.2-0.2,1.8c-0.1,0.6-0.1,1.2-0.1,1.8c0,0.3,0.1,0.6,0.2,0.7c0,0,0,0.1,0.1,0.1
		c0,0,0,0.1,0.1,0.1c0.1,0.1,0.2,0.2,0.3,0.4c0.4,0.5,0.5,1,1.1,1.2v0.1c-0.3,0.1-0.7,0.1-1.1-0.1c-0.3-0.2-0.6-0.4-0.8-0.6
		c-0.1-0.1-0.2-0.2-0.3-0.3c-0.1-0.1-0.3-0.4-0.3-0.6c-0.1-0.4-0.1-0.8-0.1-1.1C135.1,111.4,135.6,110.2,136.1,109.1L136.1,109.1z"
		/>
</g>
<g>
	<path class="st1_right" d="M143.2,104.9c0.2,0.7,0.5,1.4,0.8,2c0.3,0.6,1,1,1.5,1.6c0.3,0.3,0.5,0.7,0.7,1.1c0.2,0.4,0.2,0.9,0,1.4
		c-0.2,0.5-0.4,0.8-0.7,1.1c-0.1,0.2-0.3,0.3-0.5,0.4c-0.1,0.1-0.3,0.1-0.4,0c-0.2-0.1-0.2-0.2-0.2-0.3l0.1,0
		c0.1,0.1,0.1,0.1,0.2,0.1l0.1-0.1c0.1-0.1,0.1-0.3,0.2-0.4c0.1-0.3,0.3-0.7,0.3-1c0.1-0.5,0-1.1-0.4-1.7c-0.2-0.3-0.4-0.6-0.7-0.9
		c-0.2-0.3-0.5-0.6-0.6-1C143.3,106.4,143.2,105.7,143.2,104.9L143.2,104.9z"/>
</g>
<g>
	<path class="st1_right" d="M141.2,148.1l-0.8-9.5c-0.1-1.6-0.3-3.2-0.3-4.7c-0.2-1.5-0.7-3.1-1.2-4.5c-0.5-1.5-1.2-2.9-1.9-4.4
		c-0.6-1.5-1.1-3-1.2-4.7c-0.1-1.6,0.2-3.4,1.3-4.7c1-1.3,2.5-2.2,4.1-2.7c1.6-0.5,3.3-0.6,4.9,0c0.4,0.1,0.8,0.3,1.2,0.6
		c0.5,0.4,0.6,0.8,0.8,1.2c0.3,0.8,0.5,1.6,0.6,2.4c0.2,1.6,0.2,3.3,0.1,4.9c-0.1,0.8-0.2,1.6-0.4,2.4c-0.2,0.8-0.5,1.6-0.7,2.3
		c-0.7,3-0.8,6.2-0.8,9.3c0,1.6,0,3.2,0.1,4.7c0.1,1.6,0.2,3.2,0.5,4.7l-0.1,0c-0.8-3.1-1.1-6.3-1.2-9.5c-0.1-1.6-0.1-3.2,0-4.8
		c0.1-1.6,0.2-3.2,0.5-4.8c0.2-0.8,0.5-1.5,0.6-2.3c0.2-0.8,0.3-1.5,0.4-2.3c0.2-1.5,0.2-3.1,0-4.6c-0.1-0.8-0.2-1.5-0.5-2.2
		c-0.1-0.3-0.3-0.7-0.5-0.8c-0.3-0.2-0.6-0.4-0.9-0.5c-1.4-0.5-3-0.5-4.4,0c-1.4,0.4-2.8,1.2-3.7,2.4c-0.9,1.2-1.3,2.7-1.2,4.2
		c0.1,1.5,0.5,3.1,1.1,4.5c0.6,1.4,1.3,2.9,1.8,4.4c0.5,1.5,1,3,1.2,4.7c0,1.6,0.1,3.2,0.2,4.8L141.2,148.1L141.2,148.1z"/>
</g>
<g>
	<path class="st2_right" d="M169.5,71.2c-1.3,0.9-2.5,1.8-3.8,2.8c0-0.1,0-0.1-0.1-0.2c0.5-0.7,0.8-1.5,1-2.3c0-0.1,0-0.1,0-0.2
		c1-1.5,1.7-3.1,1.9-4.8c0.6-3.4-0.6-7.2-2.3-10.2c-0.8-1.4-1.8-2.7-3.1-3.7c-1.5-1.1-3.2-1.7-4.4-3.2c-0.4-0.5-1.2,0-0.9,0.5
		c1.4,1.9,3.7,2.6,5.4,4.2c2.5,2.3,3.9,6.4,4.2,9.7c0.6,6.6-5.5,12.1-11.3,13.9c-0.5,0.1-0.4,0.7-0.1,0.9c0.1,0.2,0.2,0.3,0.5,0.3
		c0.9,0,1.6-0.3,2.4-0.6c0.1,0.1,0.2,0.1,0.4,0c0.5-0.2,1.1-0.4,1.6-0.7c-1.7,1.5-3.3,3.1-4.7,4.9c-0.5,0.7,0.5,1.5,1,0.8
		c3.6-4.5,8.2-7.9,12.9-11.2C170.9,71.8,170.1,70.7,169.5,71.2z"/>
	<path class="st2_right" d="M142.6,68.4c-0.6-0.2-0.9,0.8-0.3,1c2.7,0.9,5.4,4.3,6.2,6.9c1.1,3.3,2.1,7.6,1.3,11c-0.5,2.4-2.4,4.7-4.1,6.8
		c-2.8,1.5-7,0.3-9.7-1.1c-0.6-0.3-1.1,0.6-0.5,0.9c2.5,1.3,6,2.4,8.9,1.7c-2,2.5-4,4.8-6.2,7.1c-0.4,0.5,0.3,1.2,0.7,0.7
		c2.6-2.7,5.1-5.5,7.3-8.5c0.1-0.1,0.2-0.1,0.3-0.2c0.2-0.1,0.2-0.3,0.2-0.5c2.2-3,4.4-5.5,4.3-9.4c-0.1-3.5-0.7-7.5-2.2-10.7
		C147.7,72,144.9,69.3,142.6,68.4z"/>
	<path class="st2_right" d="M205.7,65c2.8-0.4,5.6-1.4,8.4-0.5c2.1,0.7,3.9,2.2,5.9,3c4.1,1.7,7.4-0.2,10.7-2.7c0.5-0.4,0-1.2-0.5-0.9
		c-1.6,1.2-3.3,2.5-5.3,3c-2.4,0.6-4.4-0.2-6.4-1.4c-2.6-1.4-4.9-2.8-7.9-2.5c-3.8,0.3-8.5,2.5-11.4-0.9c0,0-0.2-0.3-0.3-0.4
		c-0.1-0.1-0.1-0.2-0.2-0.3c-2.1-3.3-2.7-8.2-1.7-12c0.2-0.4,0.4-0.8,0.6-1.1c0.8-1.4,3-6.3,3.3-9.1c0.4-3.4-0.4-7.5-0.5-7.7l-1,0.2
		c0,0,0.8,4.1,0.5,7.4c-0.3,2.5-2.4,7.2-3.2,8.7c-0.3,0.6-0.6,1.1-0.8,1.7c-0.2,0.2-0.4,0.4-0.6,0.5c-0.2,0.1-0.4,0.2-0.5,0.3
		c-3.5,2.2-8,0.9-11.1-1.4c-0.1-0.1-0.2-0.1-0.3-0.1c0,0,0,0,0-0.1c-0.3-2.3-1.1-4.4-2.5-6.2c-1.7-2.2-4.3-3.6-4.8-6.5
		c-0.1-0.6-1.1-0.4-1,0.3c0.4,2.3,1.9,3.7,3.5,5.3c2.3,2.3,3.7,5.1,3.8,8.4c0.1,2.8-1,5-2.2,7.3c-0.1,0-0.1,0.1-0.2,0.1
		c-1.3,1.4-2.8,2.9-4.8,3.1c-0.6,0.1-0.6,1.1,0,1c1.5-0.1,2.7-0.8,3.8-1.7c-0.6,1.4-0.8,2.8-0.6,4.3c-0.6,0.3-1,0.7-1.1,1.3
		c-0.5,0.5,0.2,1.4,0.9,1c0.3-0.2,0.6-0.3,0.9-0.5c0.3,0.1,0.7,0,0.7-0.3c1.1-0.4,2.4-0.7,3.3-0.1c0.7,0.4,1.1-0.5,0.7-1
		c0-0.3-0.1-0.6-0.5-0.6c-0.9-0.1-2.6-0.2-4,0c-0.4-3.2,2-5.9,3.2-8.9c0.6-1.6,0.9-3.2,0.8-4.9c3.3,2.3,8,3.4,11.7,1.3
		c-0.3,3.2,0.6,6.6,2,9.5c0.3,0.5,0.5,1,0.9,1.5c0.1,0.1,0.1,0.2,0.1,0.4c0.3,1.2-0.1,2.4-0.5,3.5c-0.2,0.7-0.3,1-0.7,1.8
		c-0.2,0.3-0.7,0.8-0.8,1.1c-1.4,1.6-3.6,3-5.3,4.5c0.9-0.7,2.2-1,3.2-1.6c1-0.6,1.8-1.2,2.6-2c0.2,0,0.5-0.1,0.7-0.3
		c0.1-0.1,0.5-0.6,0.6-0.8c0,0,0.1,0.1,0.1,0.1c1.3,1.6,3.2,3,4.3,3.1c1,0.2,2.1,0.2,3,0.3c1.9,0.1,3.8,0.2,6,1.1
		c1.9,0.8,5.3,2.9,7.5,4.2c0.5,0.3,1,0.6,1.4,0.9c2.2,1.3,4.3,1.8,5.4,2l0.1-0.5h0.5l-0.1-0.4l-0.4-0.1c-1-0.2-3-0.7-5-1.9
		c-0.4-0.2-0.9-0.5-1.4-0.9c-2.4-1.5-5.6-3.5-7.6-4.3c-2.3-0.9-4.3-1.1-6.3-1.2c-0.6,0-1.2-0.1-1.8-0.1c-2-0.9-3.7-2.3-5.1-3.9
		c0.6-1.2,0.9-2.4,0.9-3.6C201,65,203.1,65.3,205.7,65z"/>
</g>
<circle id="Right_1st Toe Pulp" class="st3_right footExamine" cx="213.5" cy="43.1" r="9"/>
<circle id="Right_3rd Toe Pulp" class="st3_right footExamine" cx="172" cy="45.6" r="9"/>
<circle id="Right_5th Toe Pulp" class="st3_right footExamine" cx="140.6" cy="80" r="9"/>
<circle id="Right_1st Plantar MPJ" class="st3_right footExamine" cx="207.3" cy="105.5" r="9"/>
<circle id="Right_3rd Plantar MPJ" class="st3_right footExamine" cx="169.1" cy="101.4" r="9"/>
<circle id="Right_5th Plantar MPJ" class="st3_right footExamine" cx="143.1" cy="121.3" r="9"/>
<circle id="Right_Plantar Medial Arch" class="st3_right footExamine" cx="171.1" cy="182.8" r="9"/>
<circle id="Right_Plantar Lateral Midfoot" class="st3_right footExamine" cx="140.6" cy="182.8" r="9"/>
<circle id="Right_Plantar Central Heel" class="st3_right footExamine" cx="172.9" cy="248" r="9"/>
<path class="st4_right" d="M107.9,150.7c0,0,2.7-21.2,0.2-33.8c-2.1-10.7-3.6-14.9-2.7-19.4s1.8-5.4,1.9-10.7s-1-14.2-3.9-17.3
	s-7.5-2.2-8.4-1.1c0.1-2.1,0.6-10.4-0.9-14.6c-1.7-4.9-4.7-7.3-7.3-7.3c-6.3,0-7.4,2.9-9.3,5.5c0.2-2.1,1.8-7.4-0.7-12.8
	s-9-4.2-10.7-3.2s-4.1,3.7-6.1,6.9c0,0,2-9.2-1-13.1s-6.9-5.2-11.3-2.4c-3.1,2-4.5,4.7-5.6,8.1c-0.3,0.8-2.1,21.8-2.2,22.4
	c-0.5,3-2.1,14.5-5.1,12s6.2-16,5.4-33c-0.1-1.3-0.8-3.1-1.8-5c-2.2-4.2-5.5-5.8-10.6-6.7c-3.6-0.6-9.5,1.3-13.1,5.1
	s-7.4,8-8.3,19.5s3.9,16.5,3.7,24.2C10,79.2,6.9,90.3,6,96.1s-1.5,8.3,0.8,17.8c2.6,11.1,4.9,18,6.6,25.9c1.2,5.5,1.6,12.5,1.6,12.5
	L107.9,150.7z"/>
<path class="st2_right" d="M4.9,108.6c3.5,16.3,8.1,28.7,9.4,43.6c0.1,0.8,1.4,0.6,1.3-0.2c-1.4-15.7-6.5-28.2-9.4-45
	c-0.5-2.8,1.2-17.9,3.3-26.2c1-4.1,1.6-8.1,0.6-12.2c-1.1-4.7-3.1-9.1-3.3-14c-0.4-10.2,3.9-23.2,14-27.3c5.2-2.1,11.5-1.4,15.4,2.9
	c3.7,4.1,3.6,10.6,3.1,15.7c-0.5,5.1-1.8,10-3.7,14.8c-1.3,3.3-2.9,6.8-0.9,10.1c0.2,0.3,0.5,0.5,0.9,0.3c3.6-2.2,3.9-7,4.5-10.8
	c1-5.9,1.1-11.8,1.5-17.7c0.4-5.3,1.9-12,7-14.6c-1.3,4-2,10.1,2.9,11.1c2.4,0.5,4.8-0.8,6.2-2.7c1.3-1.7,1.3-3.7,1.1-5.7
	c0.5,0.8,0.9,1.7,1.1,2.6c0.9,3.6-0.2,7.3-1.3,10.6c-0.1,0.3-1.1,4.1-1.3,6c-0.9,6.7-0.8,13.7-0.6,20.4c0,0.8,1.3,0.6,1.3-0.2
	C57.8,65,57.9,60,58.2,54.9c0.3-4.7,0.7-8.9,3.6-12.9c1.1-1.6,2.5-3.5,4-4.7c0.2-0.1,0.4-0.2,0.5-0.3c-0.7,3.4,0,8.1,3.3,9.5
	c3.5,1.5,5.8-2.2,7.4-5.1c0.7,3.1,0.2,7,0,9.8c0,0,0,0,0,0c-4.1,7.1-2.5,19.2-2.4,25.8c0,0.8,1.3,1,1.3,0.1
	c-0.1-4.8-0.3-9.6-0.1-14.3c0.2-4.8,1.1-10.7,5.1-14c0.1-0.1,0.3-0.2,0.5-0.3c-0.7,1.7-1.1,3.5-0.5,5.3c0.7,2.1,2.4,3.6,4.4,4.4
	c1.9,0.7,4.7,1.1,6.3-0.4c1.1-0.9,1.6-2.3,1.8-3.7c0,0.1,0,0.1,0.1,0.2c0.9,2.8,1.4,5.3,1.2,8.2c-0.1,1.9-0.4,3.7-0.2,5.6
	c0,0.1,0,0.2,0.1,0.3c-0.4,0.6-0.6,1.3-0.6,2.2c-0.1,2.8-0.3,5.5-1.3,8.2c-0.9,2.5-2.1,3.2-2.8,5.8c-0.6,2.1-0.3,4.5-0.1,6.7
	c0.3,3.3,1,6.5,1.3,9.7c0.1,0.8,1.4,0.6,1.3-0.2c-0.3-2.9-0.2-4.2-0.5-7c-0.3-2.9-1-8.2,0.5-10.9c1.8-3.3,2-4.1,2.6-7.8
	c0.4-2.7-0.7-6.1,2.9-6.6c1-0.2,1.9-0.1,2.7,0.2c-0.6,3-1.2,6.6,0.3,9.5c1.1,2.1,3.1,2.4,5.2,2.3c0.6,2.8,1.1,6.5,0.5,9.4
	c-1.1,5.1-2.2,8.9-1.5,13.9c0.8,5,2,10,2.7,15c1.4,10.5,1.2,21.1-0.4,31.5c-0.1,0.8,1.2,1,1.3,0.1c1.9-12.4,1.8-25-0.4-37.3
	c-1.2-6.8-2.5-12.9-1.1-19.8c1.6-7.9,0.8-11.9-0.3-17.9c-0.6-3.4-2-6.9-5.5-8c-2-0.6-4-0.8-5.4-0.1c-0.1-3.1,0.6-6.1,0.1-9.2
	c-0.4-2.6-1.3-5.5-2.5-7.9c-1.7-3.6-5.5-5.2-9.3-4.4c-0.1-0.5-0.8-0.9-1.1-0.3c-0.2,0.3-0.3,0.5-0.5,0.8c-1.6,0.6-2.9,1.6-4,2.8
	c0.4-4.3,0.8-9.8-2.6-12.5c-3-2.4-8-3.1-11-0.3c-1.5,1.4-2.9,3-4.1,4.7c1.2-4.7,1.3-9.8-2.4-13.3c-2.4-2.2-5.6-2.6-8.5-1.7
	c-0.3,0.1-0.4,0.1-0.7,0.2c-1.4,0.5-2.8,1.4-3.8,2.4c-2.7,2.7-4,6.1-4.6,9.8c-0.1-1.4-0.4-2.8-0.8-4.1c-2.5-8.2-11.5-11.5-19.2-8.5
	c-9.3,3.6-13.7,13.7-15,23c-0.6,4.9-0.1,9.6,1.4,14.3c0.9,2.9,2,5.8,2.2,8.8c0.2,3.6-0.8,7.2-1.7,10.6C4.9,94,3.1,101.6,4.9,108.6z
	 M101.8,69.3c1.7,1.1,2.8,3,3.4,5.1c0.4,1.6,0.7,3.2,0.8,4.8c-1.5,0.1-3,0.1-3.9-1.5c-0.4-0.8-0.6-1.9-0.7-2.7
	C101.1,73.1,101.5,71.1,101.8,69.3z M83.3,47.7c2.3-0.8,5.1-0.8,7,0.7c0.8,0.6,1.4,1.5,1.8,2.4c0,0.1-0.1,0.2,0,0.3
	c0.4,2.2,0.2,4.8-2,6c-1.7,0.9-4.1,0.5-5.7-0.6C81.1,54.2,81.8,50.7,83.3,47.7z M67.8,36.4C67.8,36.4,67.8,36.3,67.8,36.4
	c2-0.7,4.3-0.4,6.2,0.7c1.2,0.6,1.9,1.6,2.5,2.7c-1.2,2.3-3.4,6.9-6.5,5.4C67.1,43.8,67,39,67.8,36.4z M50.2,27.3
	c0.3-0.1,0.5-0.2,0.8-0.2c2.6-0.5,4.8,0.2,6.5,1.7c0.1,2,0.5,4.4-0.5,6.2c-1.2,2-3.9,3.6-6.2,2.3C47.7,35.7,49.1,30.2,50.2,27.3z
	 M39.9,51.1c-0.2,2.2-0.4,4.5-0.7,6.7c-0.5,3.4-0.6,9.3-3.6,11.7c-1.5-3.5,0.9-7.3,2.1-10.6C38.6,56.4,39.4,53.7,39.9,51.1z"/>
<path class="st2_right" d="M15.4,43c0.6,2.4,2.6,4.1,5,4.9c3.1,1,7.6,1.2,10.9,0.7c5.4-0.8,6-8.9,5.9-13.6c0.3-0.2,0.5-0.6,0.2-1
	c-1.8-2.7-3.7-4.9-7-5.2c-3.3-0.3-7.1-0.4-10.4,0.1c-2.1,0.3-3.5,1.2-4.1,3.3c-0.5,1.7-0.4,3.9-0.5,5.7C15.2,39.6,14.9,41.3,15.4,43
	z M16.5,39.8c0.1-1.9,0-4.5,0.5-6.4c1.1-3.8,4-3.2,7.1-3.2c1.8,0,3.7-0.2,5.5,0c2.9,0.3,4.6,1.8,6.1,4c0.1,2.9-0.2,5.7-1,8.5
	c-1,3.4-2.7,4.8-6.4,4.7C22.8,47.3,16.1,47.1,16.5,39.8z"/>
<circle id="Right_1st Dorsal Webspace" class="st3_right footExamine" cx="37.5" cy="74.2" r="9"/>
<text transform="matrix(1 0 0 1 92.0001 13)" class="st5_right st6_right">Right Foot</text>
</svg>
