<?xml version="1.0" encoding="utf-8"?>
<!-- Generator: Adobe Illustrator 21.0.0, SVG Export Plug-In . SVG Version: 6.00 Build 0)  -->
<svg version="1.1" id="Layer_1" xmlns="http://www.w3.org/2000/svg" xmlns:xlink="http://www.w3.org/1999/xlink" x="0px" y="0px"
	 width="100%" height="100%" viewbox="15 18 270 580" xml:space="preserve">
<style type="text/css">
	.st0{stroke:#000000;stroke-miterlimit:10;}
	<!-- .st0{fill:#B5B5B5;stroke:#000000;stroke-miterlimit:10;} -->
	<!-- .st1{fill:#B5B5B5;} -->
	.st2{fill:none;stroke:#000000;stroke-miterlimit:10;}
	.st3{font-family:'MyriadPro-Regular';}
	.st4{font-size:7px;}
</style>
<g>
	<path id="Right_S4_S5" class="st0 dermatome " d="M164.1,281c-0.3-4.8-4.1-7.3-7.9-8.4c0,0.1,0,2.8,0,6v5.6c0,2.3,0,4,0,4
		C160.2,288,164.4,286.3,164.1,281z"/>
</g>
<g>
	<path id="Right_S3" class="st0 dermatome " d="M156.2,265.9v6.7c4.4,0.6,7.9,5.3,7.9,8.4c0,7.5-7.9,7.2-7.9,7.2v2.7
		c0,0,15.6,3.1,16.5-10.1C173.3,272.3,160.1,266.8,156.2,265.9z"/>
</g>
<g>
	<path id="Right_S2" class="st0 dermatome " d="M167.4,580.1c0.2-2.3,4.2-6.3,4.8-8.2c0.7-1.8,2.2-9,0-12.7s-5-6.7-4.8-9.8
		c0.2-3.2,0-10.2,0.7-13s1.8-5.2,1.8-5.2s0,0,0,0.1c-0.1-0.4-0.1-0.9-0.1-1.3c0.1-2.1,2-16.8,2.3-20c0.3-3.3,1.1-31.1,1.9-38.9
		s2.4-12.1,3.8-17.5s0.5-7.6,0.7-11.8s-1.2-29.1-1.7-37S175.3,346,175,338s-1.3-38.3-1.3-40.8s2.6-5.9,4.7-10.3
		c2.3-4.9,2.7-7,1.3-15s-13.1-11.5-15-11.8c-1.2-0.2-5.6-0.1-8.4-0.1v5.6c0,0,16.9,5.5,16.5,14.5c-0.6,13.3-16.5,10.5-16.5,10.5v3.2
		c0.3,0,0.6,0.1,0.8,0.2c0.9,0.4,3.8,3.6,4.1,9.5s2.1,44.3,2.1,47.8s0.6,41.4,1,45.3s1.8,19,1.8,24s-1,25.6-1.5,32.5
		s-1.9,22.8-1.9,32.9s0.8,34,0.6,37.3s0.4,13-2.1,17.6s-1.8,8.9-1.3,11.8s2.6,4,3.1,8.3c0.4,3.7,1.3,15.4,1.6,22.7
		c1.1,0.3,2.2,0.3,3.3-0.1C167.5,582.2,167.3,580.9,167.4,580.1z"/>
</g>
<g>
	<path id="Right_S1" class="st0 dermatome " d="M189.6,406.5c0.3-10.3,2.8-24.8,3.8-32.3s3-29.5,3.3-38.3s-0.5-41.9-1.1-47
		s-1.4-11.9-7.5-23.8c-6.1-12-20.8-13.4-23.6-13.8c-2-0.3-5.9-0.2-8.2-0.1v9c2.9-0.1,7.2-0.1,8.4,0.1c1.9,0.3,13.6,3.8,15,11.8
		s1.1,10.1-1.3,15c-2.1,4.4-4.7,7.8-4.7,10.3s1,32.8,1.3,40.8s1.3,58.9,1.8,66.8s1.9,32.9,1.7,37s0.7,6.4-0.7,11.8s-3,9.8-3.8,17.5
		s-1.6,35.6-1.9,38.9c-0.3,3.3-2.1,17.9-2.3,20s1.4,4.8,1.6,6.3s1.6,9.1,3.1,11.9s6,6.6,7,9.3s4.1,6.6,4.1,10.4s-0.2,8.5,0.9,10.1
		l0,0c3.3-2.6,3-7.1,1.3-12.3c-0.2-0.6-0.4-1.3-0.7-1.9c-4.3-8.6-7-12.9-5.8-22.8c0.2-1.9-1.1-6.4-1.2-7.2
		c-0.1-8.3-1.1-14.6,0.3-22.8c2.9-15.9,6.3-31.1,11.5-46.3c2.5-7.1,3.9-14.6,4.2-22.2c-1.1-2.8-2-5.2-2.3-6.5
		C192.6,431.7,189.4,416.7,189.6,406.5z"/>
</g>
<g>
	<path id="Right_L5" class="st0 dermatome " d="M170.5,580.9c2.8,0.6,4.7,1.4,6.4-0.6c4.5,0,7.4-0.8,9.4-2.2c-0.9-2.5-0.6-7.1-0.6-10.3
		c0-0.2,0-0.5,0-0.7c0-0.1,0-0.2,0-0.3c0-0.2,0-0.3-0.1-0.5v-0.1c-0.6-3.3-3.1-6.6-4-8.9c-0.5-1-1.5-2.3-2.5-3.7
		c-1.4-1.6-3-3.3-4-4.8c-0.1-0.1-0.1-0.2-0.2-0.3c0,0,0-0.1-0.1-0.1c-0.1-0.1-0.2-0.2-0.2-0.4c-1.3-2.3-2.4-8-2.9-10.7l0,0
		c-0.2-0.9-0.4-1.7-0.6-2.4c-0.4-1.1-0.9-2.4-1.2-3.7v-0.1c0,0-1.1,2.3-1.8,5.2c-0.7,2.8-0.5,9.8-0.7,13s2.7,6.2,4.8,9.8
		c2.2,3.7,0.7,10.8,0,12.7c-0.7,1.8-4.7,5.8-4.8,8.2c-0.1,0.8,0.1,2.2,0.4,3.5C168.8,583.2,169.8,582.3,170.5,580.9z"/>
</g>
<g>
	<path id="Right_L5" class="st0 dermatome " d="M202.1,369.8c6.3-29.1,8.9-57.9,6.3-87.2c-4.8-8.6-14.6-24.9-18.3-28.5
		c-3.3-3.2-9.5-6.4-14.3-7.6c-2.5-0.6-7.8-1.1-12.8-1.3c-3.5-0.1-5.4-0.7-6.7-1.1v7.1c2.2-0.1,6.2-0.2,8.2,0.1
		c2.9,0.4,17.5,1.8,23.6,13.8s6.9,18.7,7.5,23.8s1.4,38.3,1.1,47s-2.3,30.8-3.3,38.3s-3.5,22-3.8,32.3s3,25.3,4.3,29.5
		c0.4,1.3,1.3,3.7,2.3,6.5c0.2-5.4-0.2-10.8-1.2-16.1c-1.1-5.8-1.9-11.3-1-17.1C196,396,199.2,382.9,202.1,369.8z"/>
</g>
<g>
	<path id="Right_L4" class="st0 dermatome " d="M159.8,552.7c-0.5-2.9-1.2-7.1,1.3-11.8s2-14.4,2.1-17.6c0-1.2,0-5.2-0.1-10.3
		c-0.7-0.2-1.3-0.4-1.8-0.6c-0.3,6.1-1,12.3-2.3,18.8c-1.2,6.2-0.5,18.6,1.2,24.5c1,3.4-0.9,4.5-1.6,8.2c-0.8,4.6-0.8,10.2,0.2,14.2
		c0.3,2.3,2.8,4.8,5.6,5.6c-0.2-7.3-1.1-19.1-1.6-22.7C162.4,556.7,160.3,555.6,159.8,552.7z"/>
</g>
<g>
	<path id="Right_L4" class="st0 dermatome " d="M175.7,246.5c4.8,1.1,11,4.4,14.3,7.6c3.7,3.5,13.6,19.9,18.3,28.5c-0.5-6-1.3-12-2.3-18.1
		c-4.1-6.2-10.5-14.4-14-17.7c-3.3-3.2-9.5-6.4-14.3-7.6c-2.5-0.6-7.8-1.1-12.8-1.3c-5.1-0.2-6.4-0.3-8.1-0.3c-0.2,0-0.4,0-0.7,0
		v6.6c1.4,0.4,3.2,0.9,6.7,1.1C168,245.5,173.3,245.9,175.7,246.5z"/>
</g>
<g>
	<path id="Right_L3" class="st0 dermatome " d="M162.6,486.1c0-10.1,1.4-26,1.9-32.9s1.5-27.5,1.5-32.5s-1.4-20.1-1.8-24
		c-0.2-1.7-0.4-9.9-0.6-18.9c-1.5-0.2-2.8-0.6-3.9-1c0,1.1,0,2.2,0,3.4c0.5,9.6,1,21.6,3.3,30.9c3,12.2,1.2,22.5-3,34
		c-3.5,9.6-3.8,17.9-2,28.1c2.4,13.5,3.8,26.1,3.2,39.3c0.6,0.2,1.2,0.4,1.8,0.6C162.9,504.3,162.6,492.5,162.6,486.1z"/>
</g>
<g>
	<path id="Right_L3" class="st0 dermatome " d="M165,238c5,0.2,10.3,0.7,12.8,1.3c4.8,1.1,11,4.4,14.3,7.6c3.4,3.3,9.9,11.5,14,17.7
		c-0.6-3.6-1.3-7.2-2-10.8c-3.7-4.1-8.9-9.6-11.9-12.5c-3.3-3.2-10.5-7.4-15.3-8.5c-2.5-0.6-6.5-1-11.5-1.2
		c-5.1-0.2-6.7,0.1-8.4,0.1c-0.2,0-0.4,0-0.7,0v6.1c0.2,0,0.4,0,0.7,0C158.6,237.7,159.9,237.8,165,238z"/>
</g>
<g>
	<path id="Right_L2" class="st0 dermatome " d="M163.3,351.5c0-1.7-0.4-11.1-0.8-21.2c-2.6-1.2-4.5-2.7-5.8-3.9c0.8,17,3.1,33,3.1,50.4
		c1.1,0.4,2.4,0.8,3.9,1C163.5,366.2,163.3,353.4,163.3,351.5z"/>
</g>
<g>
	<path id="Right_L2" class="st0 dermatome " d="M156.9,231.5c1.7,0,3.3-0.3,8.4-0.1c5,0.2,9,0.7,11.5,1.2c4.8,1.1,11.9,5.4,15.3,8.5
		c3.1,2.9,8.2,8.4,11.9,12.5c-0.4-1.7-0.7-3.5-1.1-5.2c-0.1-0.7-0.3-1.5-0.5-2.2c-3.2-3.4-7.3-7.8-10.3-10.6
		c-3.3-3.2-10.9-8.2-15.6-9.4c-2.5-0.6-6.3-1.1-11.3-1.3c-5.1-0.2-7-0.8-8.6-1.1c-0.1,0-0.2,0-0.3,0v7.6
		C156.4,231.5,156.7,231.5,156.9,231.5z"/>
</g>
<g>
	<path id="Right_L1" class="st0 dermatome " d="M161.1,303.7c-0.4-5.9-3.3-9.1-4.1-9.5c-0.2-0.1-0.5-0.1-0.8-0.2v14c0,0,0.1,5.4,0.1,6.3
		c0,4.1,0.1,8.1,0.3,12c1.2,1.2,3.2,2.7,5.8,3.9C161.9,319,161.3,306.8,161.1,303.7z"/>
</g>
<g>
	<path id="Right_L1" class="st0 dermatome " d="M165.1,225c5,0.2,8.9,0.7,11.3,1.3c4.8,1.1,12.3,6.2,15.6,9.4c3,2.9,7.1,7.2,10.3,10.6
		c-0.8-3.5-1.7-7.1-1.6-10.6v-0.1c-2-2.4-4.1-4.8-7.9-8c-3.5-3-7.7-5.1-12.4-6.3c-2.5-0.6-10.4-2.7-15.3-3.9c-5-1.2-7-1.9-8.6-2.1
		c-0.1,0-0.2,0-0.3,0v8.7c0.1,0,0.2,0,0.3,0C158.2,224.1,160,224.8,165.1,225z"/>
</g>
<g>
	<path id="Right_T12" class="st0 dermatome " d="M165.2,217.4c4.9,1.2,12.8,3.3,15.3,3.9c4.8,1.1,9,3.3,12.4,6.3c3.8,3.3,5.9,5.7,7.9,8
		c0.1-2.6,0-5.1-0.1-7.7c-1.8-2.4-3.8-5.2-6.5-7.8c-3.3-3.2-7.2-4.5-11.9-5.7c-2.5-0.6-11.3-2.6-16.3-3.8s-6.5-1.7-8.2-2.6
		c-0.5-0.3-1.1-0.4-1.6-0.5v7.7c0.1,0,0.2,0,0.3,0C158.2,215.5,160.2,216.2,165.2,217.4z"/>
</g>
<g>
	<path id="Right_T11" class="st0 dermatome " d="M166.1,210.6c4.9,1.2,13.8,3.2,16.3,3.8c4.8,1.1,8.6,2.5,11.9,5.7c2.7,2.6,4.7,5.4,6.5,7.8
		c-0.1-2.9-0.3-5.8-0.4-8.7c-1.3-1.7-2.9-3.4-5.2-5.7c-3.3-3.2-9-5-13.7-6.1c-2.5-0.6-10.8-2.4-15.6-4.2c-4.9-1.8-6.3-2.7-8-3.5
		c-0.5-0.3-1.1-0.4-1.6-0.5v8.4c0.5,0.1,1.1,0.3,1.6,0.5C159.5,208.9,161.1,209.5,166.1,210.6z"/>
</g>
<g>
	<path id="Right_T10" class="st0 dermatome " d="M165.9,203.2c4.8,1.8,13.1,3.6,15.6,4.2c4.8,1.1,10.4,3,13.7,6.1c2.3,2.2,3.8,4,5.2,5.7
		c-0.1-1.5-0.2-3-0.2-4.6c-1.5-2.1-3.4-4.3-5.6-7.6c-2.3-3.3-8.9-6.6-12.9-7.8c-2.4-0.7-10.8-2.5-15.2-4.2c-4.9-1.9-6.5-3-8.2-3.9
		c-0.6-0.3-1.3-0.5-1.9-0.6v8.5c0.5,0.1,1.1,0.3,1.6,0.5C159.5,200.5,160.9,201.4,165.9,203.2z"/>
</g>
<g>
	<path id="Right_T9" class="st0 dermatome " d="M166.3,195c4.4,1.8,12.8,3.5,15.2,4.2c4.1,1.2,10.7,4.4,12.9,7.8c2.2,3.3,4.1,5.5,5.6,7.6
		c-0.1-2.6-0.2-5.3-0.3-7.9c-1.4-2.3-3-4.8-5.6-8.6c-1.8-2.7-8.6-7.2-12.7-8.4c-2.4-0.7-10.8-2.9-15.2-4.7c-4.9-1.9-6.5-3-8.2-3.9
		c-0.6-0.3-1.3-0.5-1.9-0.6v10c0.6,0.1,1.3,0.3,1.9,0.6C159.8,192,161.4,193.1,166.3,195z"/>
</g>
<g>
	<path id="Right_T8" class="st0 dermatome " d="M166.3,185c4.4,1.8,12.8,4,15.2,4.7c4.1,1.2,10.9,5.7,12.7,8.4c2.6,3.8,4.2,6.3,5.6,8.6
		c0-0.2,0-0.3,0-0.5c0-1.9,0-3.7,0-5.5c-1.7-3-3.8-6.1-7.1-11c-1.8-2.7-7.7-7.6-11.8-8.8c-2.4-0.7-10.8-3.3-15.3-5.1
		c-4.9-1.9-6.5-2.6-8.2-3.4c-0.4-0.2-0.9-0.4-1.3-0.5v8.6c0.6,0.1,1.3,0.3,1.9,0.6C159.8,182,161.4,183,166.3,185z"/>
</g>
<g>
	<path id="Right_T7" class="st0 dermatome " d="M165.7,175.8c4.4,1.8,12.8,4.4,15.3,5.1c4.1,1.2,10,6.1,11.8,8.8c3.3,4.9,5.3,7.9,7.1,11
		c0-1.5,0.1-3,0.1-4.5l0,0c-1.9-3.5-4.4-8.5-8.1-14.1c-1.8-2.7-6.6-7.1-10.7-8.3c-2.4-0.7-11.4-4-15.5-6c-4.8-2.3-6-2.5-7.5-3.6
		c-0.6-0.4-1.3-0.6-1.9-0.7v8.4c0.4,0.1,0.9,0.3,1.3,0.5C159.2,173.2,160.8,173.9,165.7,175.8z"/>
</g>
<g>
	<path id="Right_T6" class="st0 dermatome " d="M165.6,167.8c4.1,2,13.1,5.3,15.5,6c4.1,1.2,8.9,5.6,10.7,8.3c3.7,5.6,6.2,10.6,8.1,14.1
		l0,0c0.2-3.5,0.5-6.9,1.1-10.4c-0.3-0.6-0.6-1.2-0.8-1.6c-1.9-3.5-3.7-7.5-7.6-11.9c-2.2-2.4-6.1-6-10.2-7.1
		c-2.4-0.7-14.6-5.2-18.7-7.1c-4.8-2.3-5.7-3.5-7.2-4.6c-0.1-0.1-0.2-0.1-0.3-0.2v10.3c0.6,0.1,1.3,0.3,1.9,0.7
		C159.6,165.3,160.8,165.5,165.6,167.8z"/>
</g>
<g>
	<path id="Right_T5" class="st0 dermatome " d="M163.7,158.1c4.1,2,16.3,6.4,18.7,7.1c4.1,1.2,8,4.7,10.2,7.1c4,4.4,5.8,8.4,7.6,11.9
		c0.2,0.4,0.5,0.9,0.8,1.6c0.4-2.5,1-5,1.8-7.5c-0.2-0.3-0.3-0.6-0.4-0.9c-1.9-3.5-3.7-7.5-7.6-11.9c-2.2-2.4-6.1-6-10.2-7.1
		c-2.4-0.7-14.6-5.1-18.7-7.1c-6.1-2.9-7.6-5.5-9.1-6.1c-0.2-0.1-0.4-0.1-0.5-0.2v8.4c0.1,0.1,0.2,0.1,0.3,0.2
		C158,154.5,159,155.8,163.7,158.1z"/>
</g>
<g>
	<path id="Right_T4" class="st0 dermatome " d="M165.9,151.2c4.1,2,16.3,6.4,18.7,7.1c4.1,1.2,8,4.7,10.2,7.1c4,4.4,5.8,8.4,7.6,11.9
		c0.1,0.2,0.3,0.5,0.4,0.9c0.7-2.3,1.6-4.5,2.7-6.8c-0.7-1.6-1.4-2.9-1.8-3.7c-1.9-3.5-3.7-8.2-8-11.7c-2.5-2-6-4.3-10.1-5.4
		c-2.4-0.7-15.5-5.7-19.5-7.9c-5.7-3.1-7.3-6.6-8.8-7.3c-0.4-0.2-0.8-0.2-1.1-0.2v9.8c0.2,0,0.4,0.1,0.5,0.2
		C158.3,145.7,159.8,148.3,165.9,151.2z"/>
</g>
<g>
	<path id="Right_T3" class="st0 dermatome " d="M157.3,135.4c1.5,0.6,3.2,4.2,8.8,7.3c4,2.2,17.1,7.2,19.5,7.9c4.1,1.2,7.6,3.4,10.1,5.4
		c4.3,3.5,6.1,8.2,8,11.7c0.4,0.8,1.1,2.1,1.8,3.7c0.1-0.2,0.2-0.4,0.3-0.5c0,0.1,0,0.3,0.1,0.4c0.5-2.5,1.1-5.2,1.6-7.9
		c-1.1-2.3-2.3-4.5-2.9-5.6c-1.9-3.5-4.4-7.5-8.8-11c-2.5-2-6.1-3.3-10.2-4.5c-2.4-0.7-15.5-6.1-19.5-8.3c-5.7-3.1-7.2-7.2-8.7-7.8
		c-0.4-0.2-0.8-0.2-1.1-0.2v9.3C156.5,135.2,156.9,135.2,157.3,135.4z"/>
</g>
<g>
	<path id="Right_T2" class="st0 dermatome " d="M157.3,126.1c1.5,0.6,3.1,4.7,8.7,7.8c4,2.2,17,7.6,19.5,8.3c4.1,1.2,7.7,2.5,10.2,4.5
		c4.3,3.5,6.9,7.5,8.8,11c0.6,1.2,1.9,3.3,2.9,5.6c0.5-2.3,0.9-4.6,1.2-6.6c-1.1-3.5-3.3-7.1-4.2-8.8c-1.9-3.5-4.4-7.5-8.8-11
		c-2.5-2-6.1-3.3-10.2-4.5c-2.4-0.7-15.5-6.1-19.5-8.3c-5.7-3.1-7.2-7.2-8.7-7.8c-0.4-0.2-0.8-0.2-1.1-0.2v9.8
		C156.5,125.8,156.9,125.9,157.3,126.1z"/>
</g>
<g>
	<path id="Right_T1" class="st0 dermatome " d="M157.3,116.3c1.5,0.6,3.1,4.7,8.7,7.8c4,2.2,17,7.6,19.5,8.3c4.1,1.2,7.7,2.5,10.2,4.5
		c4.3,3.5,6.9,7.5,8.8,11c0.9,1.7,3.1,5.3,4.2,8.8c0.6-3.6,1.4-7.1,1.2-8.5c-0.4-4.1-3.2-8.1-4.4-10.3c-1.9-3.5-7.8-9.1-9.6-9.6
		c-3.1-0.9-9.6-3.8-12-4.7s-10.7-3.6-14.4-6.3s-10.6-7.3-12.1-7.9c-0.3-0.1-0.7-0.2-1-0.2l-0.2,6.8
		C156.5,116,156.9,116.1,157.3,116.3z"/>
</g>
<g>
	<path id="Right_C8" class="st0 dermatome " d="M255.8,288.6c-2.4-4.8-8.1-10.9-9.3-13.3s-2.3-8.3-2.8-11.4s-2.9-11.4-6.4-15.5
		s-10.1-16-11.8-20.1s-2.8-17.3-3-22s-3.1-14.5-4-18.1s-4.9-19.1-5.1-26.4s2.9-22.6,2.5-26.8s-5.6-7.5-7.5-9s-9.8-7-11.1-8.3
		s-10.3-2.5-12.6-3.4s-10.8-4.9-14.4-7.6s-10.6-6-12.1-6.6c-0.6-0.2-1.2-0.3-1.8-0.3v9.2c0.3,0,0.6,0.1,0.9,0.2
		c1.5,0.6,7.9,4.7,11.5,7.4s12.6,5.9,15,6.8s8.9,3.8,12,4.7c1.8,0.5,7.8,5.8,9.6,9.3c1.1,2.1,3.9,6.1,4.3,10.3c0.3,3-2,14-3.7,22.5
		c0.5,3.3-0.2,5.9,0.7,8.5c5.6,15.8,7.9,30.4,10.5,44.6c1.1,4.5,2.4,9.4,4.1,13.6c4.1,9.9,10.1,16.7,14.9,25.1
		c2.3,4,5.1,8.2,5.3,12.8c0.5,14,3.5,16.9,5.8,24.7c1.3,7.5,2.7,15,4.9,14.8c3.7-0.3-0.6-11.2,0.9-14.8c0.7-1.7,1.8,21.4,7.6,19.9
		c3.2-0.8,1-11.9,0.8-13.9c-0.1-1-0.9-4.6-1-5C259.3,295.1,258.1,293.4,255.8,288.6z"/>
</g>
<g>
	<path id="Right_C7" class="st0 dermatome " d="M262.3,283.2c-1.9-1.8-5.9-7-7.1-11.6c-1.3-4.6-1.9-11.3-2.5-14.6c-0.6-3.4-4.1-9.2-5-11.9
		s-4.9-10.3-5-19.9s-3-14.4-4.3-16.6s-3.9-9.3-4.4-13s-0.6-25.6-0.9-28.8s-3.6-11.8-4.3-15.3s-0.4-7.8-0.1-12.1s-1.1-10.6-2.3-16.3
		c-1.1-5.6-7.5-10.4-10.4-11.1s-18.4-2.3-20.5-2.6s-14.9-6-17.4-7s-20.3-9.3-20.9-9.3c-0.2,0-0.5,0-0.8,0v6.9c0.6,0,1.3,0,1.8,0.3
		c1.5,0.6,8.5,3.9,12.1,6.6s12,6.8,14.4,7.6s11.3,2.1,12.6,3.4s9.3,6.8,11.1,8.3s7.1,4.9,7.5,9s-2.7,19.5-2.5,26.8
		s4.3,22.8,5.1,26.4s3.8,13.4,4,18.1s1.4,17.9,3,22s8.3,16,11.8,20.1s5.9,12.4,6.4,15.5s1.6,9,2.8,11.4s6.9,8.5,9.3,13.3
		c2.4,4.8,3.9,9.1,4.7,12.3c1.2,4.9,2.9,20.8,7,18.8c5.1-2.4,0.1-17.5,0.7-18.8c0.5-0.8,1.8,2.6,2.8,6.5c0.6,2.4,1.1,11.1,4.7,9.1
		c3.5-2-1.6-15.3-4.2-24.1c-0.6-0.9-1-1.6-1.3-2.1C268.9,288.1,264.1,285,262.3,283.2z"/>
</g>
<g>
	<path id="Right_C6" class="st0 dermatome " d="M274.4,281.4c-4.3-3-8.7-4.8-9.6-5.3c-8.2-4.3-8.3-9.7-10.2-18.4
		c-3.3-14.6-8.2-37.8-13-51.1c-3.4-8.8-2.7-17.5-3.3-30.1c-0.3-5.6-2.7-11-3.3-16.6c-0.4-3.9-0.8-8-0.3-11.9
		c4.4-20-3.4-37.1-26.8-45c-1.1-0.5-2.2-1-3.3-1.5c-2.9-0.5-5.9-0.9-6.8-1.1c-1.9-0.4-14.1-4.1-18.3-6.4s-13.1-5.9-18.4-6.8
		c-0.9-0.1-3-0.1-4.6-0.1v6.1c0.3,0,0.7,0,0.8,0c0.6,0,18.4,8.3,20.9,9.3s15.3,6.6,17.4,7s17.6,1.9,20.5,2.6s9.3,5.5,10.4,11.1
		c1.1,5.6,2.6,11.9,2.3,16.3s-0.6,8.6,0.1,12.1s4.1,12.1,4.3,15.3s0.4,25,0.9,28.8s3.1,10.8,4.4,13s4.1,7,4.3,16.6s4.1,17.3,5,19.9
		s4.4,8.5,5,11.9s1.3,10,2.5,14.6c1.2,4.6,5.2,9.9,7.1,11.6s6.6,4.9,8,7.3c0.3,0.5,0.7,1.2,1.3,2.1c-0.7-2.5-1.2-4.7-1.2-6.1
		c2.3,1.5,10.7,8.3,12.9,7C286.3,291.7,280,285.3,274.4,281.4z"/>
</g>
<g>
	<path id="Right_C5" class="st0 dermatome " d="M161.1,87.2c5.3,0.9,14.3,4.5,18.4,6.8s16.4,6,18.3,6.4c0.9,0.2,3.8,0.7,6.8,1.1
		c-10.1-4.7-19.6-10-27.2-16.6c-0.9-0.9-1.6-2.2-2-3.7c-3.1-0.6-5.3-2-8.3-3.3c-3.2-1.4-7.2-3.6-9.6-4c-0.2,0-0.5,0-0.8-0.1v13.3
		C158.1,87.1,160.2,87.1,161.1,87.2z"/>
</g>
<g>
	<path id="Right_C4" class="st0 dermatome " d="M167,77.9c3,1.4,5.1,2.7,8.3,3.3c-0.5-1.8-0.8-4-0.9-6.1c-3.3-1-5.8-3.5-8-5.6
		c-2.9-2.7-7.8-3.2-9.8-3.4v7.6c0.3,0,0.6,0,0.8,0.1C159.8,74.2,163.8,76.4,167,77.9z"/>
</g>
<g>
	<g>
		<path id="Right_C3" class="st1 dermatome" d="M174.4,75.1c-0.1-2.5,0.1-5,0.3-7c-3.2-3.5-8-6.2-10-7.6c-3.6-2.6-7.2-8.8-7.8-9.3
			c-0.1-0.1-0.2-0.2-0.4-0.2v15.2c2.1,0.1,6.9,0.6,9.8,3.4C168.6,71.6,171.2,74.1,174.4,75.1z"/>
	</g>
	<g>
		<path id="Right_C3" class="st0 dermatome " d="M174.4,75.1c-0.1-2.5,0.1-5,0.3-7c-3.2-3.5-8-6.2-10-7.6c-3.6-2.6-7.2-8.8-7.8-9.3
			c-0.1-0.1-0.2-0.2-0.4-0.2v15.2c2.1,0.1,6.9,0.6,9.8,3.4C168.6,71.6,171.2,74.1,174.4,75.1z"/>
	</g>
	<g>
		<path id="Right_C3" class="st2 dermatome" d="M174.4,75.1c-0.1-2.5,0.1-5,0.3-7c-3.2-3.5-8-6.2-10-7.6c-3.6-2.6-7.2-8.8-7.8-9.3
			c-0.1-0.1-0.2-0.2-0.4-0.2v15.2c2.1,0.1,6.9,0.6,9.8,3.4C168.6,71.6,171.2,74.1,174.4,75.1z"/>
	</g>
</g>
<g>
	<path id="Right_C2" class="st0 dermatome" d="M164.7,60.5c2,1.4,6.8,4.1,10,7.6c0.2-1.6,0.4-2.9,0.6-3.6c5.7,1.4,8.1-20,2.6-17.7
		c-0.3-1.4,0.3-4,0.2-6.1c-0.6-14.1-8.2-21.5-21.6-22.2V51c0.1,0.1,0.3,0.1,0.4,0.2C157.5,51.7,161.1,57.9,164.7,60.5z"/>
</g>
<g>
	<path id="Left_S4_S5" class="st0 dermatome " d="M156.5,288.3c0,0,0-1.7,0-4v-5.6c0-3.2,0-5.9,0-6c-3.8,1.1-7.6,3.6-7.9,8.4
		C148.3,286.3,152.5,288,156.5,288.3z"/>
</g>
<g>
	<path id="Left_S3" class="st0 dermatome" d="M140,280.8c0.9,13.2,16.5,10.1,16.5,10.1v-2.7c0,0-7.9,0.3-7.9-7.2c0-3.1,3.5-7.8,7.9-8.4
		v-6.7C152.6,266.8,139.5,272.3,140,280.8z"/>
</g>
<g>
	<path id="Left_S2" class="st0 dermatome" d="M144.8,583.6c1.1,0.4,2.2,0.4,3.3,0.1c0.3-7.3,1.2-19,1.6-22.7c0.5-4.3,2.6-5.4,3.1-8.3
		s1.2-7.2-1.3-11.8s-1.9-14.3-2.1-17.6s0.6-27.2,0.6-37.3s-1.4-26-1.9-32.9s-1.5-27.5-1.5-32.5s1.4-20.1,1.8-24s1-41.8,1-45.3
		s1.8-41.9,2.1-47.8s3.2-9.1,4.1-9.5c0.2-0.1,0.5-0.2,0.8-0.2v-3.2c0,0-15.9,2.8-16.5-10.5c-0.4-9,16.5-14.5,16.5-14.5V260
		c-2.8,0-7.2-0.1-8.4,0.1c-1.9,0.3-13.6,3.8-15,11.8s-1,10.1,1.3,15c2.1,4.4,4.7,7.8,4.7,10.3s-1,32.8-1.3,40.8s-1.3,58.9-1.8,66.8
		s-1.9,32.8-1.7,37s-0.7,6.4,0.7,11.8s3,9.7,3.8,17.5s1.6,35.7,1.9,38.9s2.2,17.9,2.3,20c0,0.4,0,0.9-0.1,1.3c0-0.1,0-0.1,0-0.1
		s1.1,2.4,1.8,5.2s0.5,9.8,0.7,13c0.2,3.1-2.6,6.1-4.8,9.8s-0.7,10.9,0,12.7c0.6,1.9,4.6,5.9,4.8,8.2
		C145.4,580.9,145.2,582.3,144.8,583.6z"/>
</g>
<g>
	<path id="Left_S1" class="st0 dermatome" d="M118.9,436.2c-0.3,1.3-1.2,3.7-2.3,6.5c0.3,7.6,1.7,15.1,4.2,22.2
		c5.2,15.2,8.6,30.4,11.5,46.3c1.4,8.2,0.4,14.5,0.3,22.8c-0.1,0.8-1.4,5.3-1.2,7.2c1.2,9.9-1.5,14.2-5.8,22.8
		c-0.3,0.6-0.5,1.3-0.7,1.9c-1.7,5.2-2,9.7,1.3,12.3l0,0c1.1-1.6,0.9-6.3,0.9-10.1s3.1-7.7,4.1-10.4s5.5-6.5,7-9.3
		s2.9-10.4,3.1-11.9s1.8-4.2,1.6-6.3s-2-16.7-2.3-20s-1.1-31.2-1.9-38.9s-2.4-12.1-3.8-17.5s-0.5-7.7-0.7-11.8s1.2-29.1,1.7-37
		s1.5-58.8,1.8-66.8s1.3-38.3,1.3-40.8s-2.6-5.9-4.7-10.3c-2.4-4.9-2.7-7-1.3-15s13.1-11.5,15-11.8c1.2-0.2,5.5-0.2,8.4-0.1v-9
		c-2.3-0.1-6.2-0.2-8.2,0.1c-2.8,0.4-17.5,1.8-23.6,13.8c-6.1,11.9-6.9,18.7-7.5,23.8s-1.4,38.2-1.1,47s2.3,30.8,3.3,38.3
		s3.5,22,3.8,32.3C123.3,416.8,120.1,431.8,118.9,436.2z"/>
</g>
<g>
	<path id="Left_L5" class="st0 dermatome " d="M144.9,583.5c0.3-1.3,0.5-2.7,0.4-3.5c-0.1-2.4-4.1-6.4-4.8-8.2c-0.7-1.9-2.2-9,0-12.7
		c2.1-3.6,5-6.6,4.8-9.8s0-10.2-0.7-13c-0.7-2.9-1.8-5.2-1.8-5.2v0.1c-0.3,1.3-0.8,2.6-1.2,3.7c-0.2,0.7-0.4,1.5-0.6,2.4l0,0
		c-0.5,2.7-1.6,8.4-2.9,10.7c0,0.2-0.1,0.3-0.2,0.4c-0.1,0-0.1,0.1-0.1,0.1c-0.1,0.1-0.1,0.2-0.2,0.3c-1,1.5-2.6,3.2-4,4.8
		c-1,1.4-2,2.7-2.5,3.7c-0.9,2.3-3.4,5.6-4,8.9v0.1c-0.1,0.2-0.1,0.3-0.1,0.5c0,0.1,0,0.2,0,0.3c0,0.2,0,0.5,0,0.7
		c0,3.2,0.3,7.8-0.6,10.3c2,1.4,4.9,2.2,9.4,2.2c1.7,2,3.6,1.2,6.4,0.6C143,582.4,143.9,583.2,144.9,583.5z"/>
</g>
<g>
	<path id="Left_L5" class="st0 dermatome " d="M118.8,409.3c0.9,5.8,0.1,11.3-1,17.1c-1,5.3-1.4,10.7-1.2,16.1c1-2.8,1.9-5.2,2.3-6.5
		c1.3-4.2,4.6-19.2,4.3-29.5s-2.8-24.8-3.8-32.3s-3-29.6-3.3-38.3s0.5-41.9,1.1-47s1.4-11.8,7.5-23.8s20.7-13.4,23.6-13.8
		c2-0.3,6-0.2,8.2-0.1v-7.1c-1.3,0.4-3.2,1-6.7,1.1c-5,0.2-10.3,0.7-12.8,1.3c-4.8,1.2-11,4.4-14.3,7.6
		c-3.7,3.6-13.5,19.9-18.3,28.5c-2.6,29.3,0,58.1,6.3,87.2C113.5,383,116.7,396,118.8,409.3z"/>
</g>
<g>
	<path id="Left_L4" class="st0 dermatome " d="M149.9,561.1c-0.5,3.6-1.4,15.4-1.6,22.7c2.8-0.8,5.3-3.3,5.6-5.6c1-4,1-9.6,0.2-14.2
		c-0.7-3.7-2.6-4.8-1.6-8.2c1.7-5.9,2.4-18.3,1.2-24.5c-1.3-6.5-2-12.7-2.3-18.8c-0.5,0.2-1.1,0.4-1.8,0.6
		c-0.1,5.1-0.1,9.1-0.1,10.3c0.1,3.2-0.4,12.9,2.1,17.6s1.8,8.9,1.3,11.8C152.5,555.6,150.3,556.8,149.9,561.1z"/>
</g>
<g>
	<path id="Left_L4" class="st0 dermatome " d="M149.9,245.3c3.5-0.2,5.3-0.7,6.7-1.1v-6.6c-0.3,0-0.5,0-0.7,0c-1.7,0-3,0.1-8.1,0.3
		c-5,0.2-10.3,0.7-12.8,1.3c-4.8,1.2-11,4.4-14.3,7.6c-3.5,3.3-9.9,11.5-14,17.7c-1,6.1-1.8,12.1-2.3,18.1
		c4.7-8.6,14.6-25,18.3-28.5c3.3-3.2,9.5-6.5,14.3-7.6C139.5,246,144.8,245.5,149.9,245.3z"/>
</g>
<g>
	<path id="Left_L3" class="st0 dermatome " d="M149.7,513.1c0.6-0.2,1.2-0.4,1.8-0.6c-0.6-13.2,0.8-25.8,3.2-39.3
		c1.8-10.2,1.5-18.5-2-28.1c-4.2-11.5-6-21.8-3-34c2.3-9.3,2.8-21.3,3.3-30.9c0-1.2,0-2.3,0-3.4c-1.1,0.4-2.4,0.8-3.9,1
		c-0.2,9-0.4,17.2-0.6,18.9c-0.4,3.9-1.8,19-1.8,24s1,25.6,1.5,32.5s1.9,22.8,1.9,32.9C150.1,492.5,149.8,504.4,149.7,513.1z"/>
</g>
<g>
	<path id="Left_L3" class="st0 dermatome " d="M155.7,237.8c0.3,0,0.5,0,0.7,0v-6.1c-0.3,0-0.5,0-0.7,0c-1.7,0-3.3-0.3-8.4-0.1
		c-5,0.2-9,0.6-11.5,1.2c-4.8,1.1-12,5.3-15.3,8.5c-3,2.9-8.2,8.4-11.9,12.5c-0.7,3.6-1.4,7.2-2,10.8c4.1-6.2,10.6-14.4,14-17.7
		c3.3-3.2,9.5-6.5,14.3-7.6c2.5-0.6,7.8-1.1,12.8-1.3C152.8,237.8,154.1,237.8,155.7,237.8z"/>
</g>
<g>
	<path id="Left_L2" class="st0 dermatome " d="M149.1,377.8c1.5-0.2,2.8-0.6,3.9-1c0-17.4,2.3-33.4,3.1-50.4c-1.3,1.2-3.2,2.7-5.8,3.9
		c-0.4,10.1-0.8,19.5-0.8,21.2C149.5,353.5,149.3,366.3,149.1,377.8z"/>
</g>
<g>
	<path id="Left_L2" class="st0 dermatome " d="M156.4,231.4v-7.6c-0.1,0-0.2,0-0.3,0c-1.6,0.3-3.5,0.9-8.6,1.1c-5,0.2-8.8,0.7-11.3,1.3
		c-4.7,1.2-12.3,6.2-15.6,9.4c-3,2.8-7.1,7.2-10.3,10.6c-0.2,0.7-0.4,1.5-0.5,2.2c-0.4,1.7-0.7,3.5-1.1,5.2
		c3.7-4.1,8.8-9.6,11.9-12.5c3.4-3.1,10.5-7.4,15.3-8.5c2.5-0.5,6.5-1,11.5-1.2c5.1-0.2,6.7,0.1,8.4,0.1
		C156.1,231.5,156.3,231.5,156.4,231.4z"/>
</g>
<g>
	<path id="Left_L1" class="st0 dermatome " d="M150.3,330.2c2.6-1.2,4.6-2.7,5.8-3.9c0.2-3.9,0.3-7.9,0.3-12c0-0.8,0.1-6.3,0.1-6.3
		v-13.9c-0.3,0.1-0.6,0.1-0.8,0.2c-0.8,0.4-3.7,3.6-4.1,9.5C151.4,306.9,150.8,319,150.3,330.2z"/>
</g>
<g>
	<path id="Left_L1" class="st0 dermatome " d="M156.2,224c0.1,0,0.2,0,0.3,0v-8.7c-0.1,0-0.2,0-0.3,0c-1.6,0.2-3.6,0.9-8.6,2.1
		c-4.9,1.2-12.8,3.3-15.3,3.9c-4.7,1.2-8.9,3.3-12.4,6.3c-3.8,3.2-5.9,5.6-7.9,8v0.1c0.1,3.5-0.8,7.1-1.6,10.6
		c3.2-3.4,7.3-7.7,10.3-10.6c3.3-3.2,10.8-8.3,15.6-9.4c2.4-0.6,6.3-1.1,11.3-1.3C152.7,224.8,154.5,224.2,156.2,224z"/>
</g>
<g>
	<path id="Left_T12" class="st0 dermatome " d="M156.2,215.2c0.1,0,0.2,0,0.3,0v-7.7c-0.5,0.1-1.1,0.2-1.6,0.5c-1.7,0.9-3.2,1.4-8.2,2.6
		s-13.8,3.2-16.3,3.8c-4.7,1.2-8.6,2.5-11.9,5.7c-2.7,2.6-4.7,5.4-6.5,7.8c-0.1,2.6-0.2,5.1-0.1,7.7c2-2.3,4.1-4.7,7.9-8
		c3.4-3,7.6-5.2,12.4-6.3c2.5-0.6,10.4-2.7,15.3-3.9C152.5,216.2,154.5,215.5,156.2,215.2z"/>
</g>
<g>
	<path id="Left_T11" class="st0 dermatome " d="M154.9,208.2c0.5-0.2,1.1-0.4,1.6-0.5v-8.4c-0.5,0.1-1.1,0.2-1.6,0.5
		c-1.7,0.8-3.1,1.7-8,3.5c-4.8,1.8-13.1,3.6-15.6,4.2c-4.7,1.1-10.4,2.9-13.7,6.1c-2.3,2.3-3.9,4-5.2,5.7c-0.1,2.9-0.3,5.8-0.4,8.7
		c1.8-2.4,3.8-5.2,6.5-7.8c3.3-3.2,7.1-4.6,11.9-5.7c2.5-0.6,11.4-2.6,16.3-3.8C151.7,209.5,153.2,209,154.9,208.2z"/>
</g>
<g>
	<path id="Left_T10" class="st0 dermatome " d="M154.8,199.5c0.5-0.2,1.1-0.4,1.6-0.5v-8.5c-0.6,0.1-1.3,0.3-1.9,0.6
		c-1.7,0.9-3.3,2-8.2,3.9c-4.4,1.7-12.8,3.5-15.2,4.2c-4,1.2-10.6,4.5-12.9,7.8c-2.2,3.3-4.1,5.5-5.6,7.6c0,1.6-0.1,3.1-0.2,4.6
		c1.4-1.7,2.9-3.5,5.2-5.7c3.3-3.1,8.9-5,13.7-6.1c2.5-0.6,10.8-2.4,15.6-4.2C151.8,201.4,153.2,200.5,154.8,199.5z"/>
</g>
<g>
	<path id="Left_T9" class="st0 dermatome " d="M154.7,191.1c0.6-0.3,1.3-0.5,1.9-0.6v-10c-0.6,0.1-1.3,0.3-1.9,0.6c-1.7,0.9-3.3,2-8.2,3.9
		c-4.4,1.8-12.8,4-15.2,4.7c-4.1,1.2-10.9,5.7-12.7,8.4c-2.6,3.8-4.2,6.3-5.6,8.6c-0.1,2.6-0.2,5.3-0.3,7.9c1.5-2.1,3.4-4.3,5.6-7.6
		c2.2-3.4,8.8-6.6,12.9-7.8c2.4-0.7,10.8-2.4,15.2-4.2C151.3,193.1,152.9,192,154.7,191.1z"/>
</g>
<g>
	<path id="Left_T8" class="st0 dermatome " d="M154.7,181.1c0.6-0.3,1.3-0.5,1.9-0.6v-8.6c-0.4,0.1-0.9,0.3-1.3,0.5
		c-1.7,0.8-3.3,1.5-8.2,3.4c-4.5,1.8-12.9,4.4-15.3,5.1c-4.1,1.2-10,6.1-11.8,8.8c-3.3,4.9-5.4,8-7.1,11c0,1.8,0,3.6,0,5.5
		c0,0.2,0,0.3,0,0.5c1.4-2.3,3-4.8,5.6-8.6c1.8-2.7,8.6-7.2,12.7-8.4c2.4-0.7,10.8-2.9,15.2-4.7C151.3,183.1,152.9,182,154.7,181.1z
		"/>
</g>
<g>
	<path id="Left_T7" class="st0 dermatome " d="M155.1,172.4c0.4-0.2,0.9-0.4,1.3-0.5v-8.4c-0.6,0.1-1.3,0.3-1.9,0.7
		c-1.5,1.1-2.7,1.3-7.5,3.6c-4.1,2-13.1,5.3-15.5,6c-4.1,1.2-8.9,5.6-10.7,8.3c-3.7,5.6-6.2,10.6-8.1,14.1l0,0c0,1.5,0.1,3,0.1,4.5
		c1.8-3.1,3.8-6.1,7.1-11c1.8-2.7,7.7-7.6,11.8-8.8c2.5-0.7,10.9-3.3,15.3-5.1C151.9,173.9,153.5,173.3,155.1,172.4z"/>
</g>
<g>
	<path id="Left_T6" class="st0 dermatome " d="M154.6,164.4c0.6-0.4,1.3-0.6,1.9-0.7v-10.3c-0.1,0.1-0.2,0.1-0.3,0.2
		c-1.5,1.1-2.4,2.3-7.2,4.6c-4.1,1.9-16.3,6.4-18.7,7.1c-4.1,1.1-8,4.7-10.2,7.1c-3.9,4.4-5.7,8.4-7.6,11.9c-0.2,0.4-0.5,1-0.8,1.6
		c0.6,3.5,0.9,6.9,1.1,10.4l0,0c1.9-3.5,4.4-8.5,8.1-14.1c1.8-2.7,6.6-7.1,10.7-8.3c2.4-0.7,11.4-4,15.5-6
		C151.9,165.6,153.2,165.3,154.6,164.4z"/>
</g>
<g>
	<path id="Left_T5" class="st0 dermatome " d="M156.1,153.6c0.1-0.1,0.2-0.1,0.3-0.2V145c-0.1,0.1-0.3,0.1-0.5,0.2c-1.5,0.6-3,3.2-9.1,6.1
		c-4.1,2-16.3,6.4-18.7,7.1c-4.1,1.1-8,4.7-10.2,7.1c-3.9,4.4-5.7,8.4-7.6,11.9c-0.1,0.3-0.2,0.6-0.4,0.9c0.8,2.5,1.4,5,1.8,7.5
		c0.3-0.7,0.6-1.2,0.8-1.6c1.8-3.5,3.6-7.5,7.6-11.9c2.2-2.4,6.1-5.9,10.2-7.1c2.4-0.7,14.6-5.1,18.7-7.1
		C153.8,155.8,154.7,154.6,156.1,153.6z"/>
</g>
<g>
	<path id="Left_T4" class="st0 dermatome " d="M156,145.3c0.1-0.1,0.3-0.2,0.5-0.2v-9.8c-0.3,0-0.7,0-1.1,0.2c-1.5,0.7-3.1,4.2-8.8,7.3
		c-4,2.2-17.1,7.2-19.5,7.9c-4.1,1.1-7.6,3.4-10.1,5.4c-4.3,3.5-6.1,8.2-8,11.7c-0.4,0.8-1.1,2.1-1.8,3.7c1.1,2.3,2,4.5,2.7,6.8
		c0.1-0.4,0.3-0.7,0.4-0.9c1.8-3.5,3.6-7.5,7.6-11.9c2.2-2.4,6.1-5.9,10.2-7.1c2.4-0.7,14.6-5.1,18.7-7.1
		C152.9,148.3,154.5,145.7,156,145.3z"/>
</g>
<g>
	<path id="Left_T3" class="st0 dermatome " d="M156.4,135.3V126c-0.3,0-0.7,0-1.1,0.2c-1.5,0.6-3,4.7-8.7,7.8c-4,2.2-17.1,7.6-19.5,8.3
		c-4.1,1.2-7.7,2.5-10.2,4.5c-4.4,3.5-6.9,7.5-8.8,11c-0.6,1.1-1.8,3.3-2.9,5.6c0.5,2.7,1.1,5.4,1.6,7.9c0.1-0.1,0.1-0.3,0.1-0.4
		c0.1,0.1,0.2,0.3,0.3,0.5c0.7-1.6,1.4-2.9,1.8-3.7c1.9-3.5,3.7-8.2,8-11.7c2.5-2,6-4.2,10.1-5.4c2.4-0.7,15.5-5.7,19.5-7.9
		c5.6-3.1,7.3-6.7,8.8-7.3C155.8,135.2,156.2,135.2,156.4,135.3z"/>
</g>
<g>
	<path id="Left_T2" class="st0 dermatome " d="M156.6,125.9v-9.8c-0.3,0-0.7,0-1.1,0.2c-1.5,0.6-3,4.7-8.7,7.8c-4,2.2-17.1,7.6-19.5,8.3
		c-4.1,1.2-7.7,2.5-10.2,4.5c-4.4,3.5-6.9,7.5-8.8,11c-0.9,1.7-3.1,5.3-4.2,8.8c0.3,2,0.7,4.3,1.2,6.6c1-2.3,2.3-4.4,2.9-5.6
		c1.9-3.5,4.5-7.5,8.8-11c2.5-2,6.1-3.3,10.2-4.5c2.5-0.7,15.5-6.1,19.5-8.3c5.6-3.1,7.2-7.2,8.7-7.8
		C155.8,125.9,156.2,125.9,156.6,125.9z"/>
</g>
<g>
	<path id="Left_T1" class="st0 dermatome " d="M156.5,116l-0.1-6.8c-0.3,0-0.8,0.1-1.1,0.2c-1.5,0.6-8.4,5.2-12.1,7.9s-12,5.4-14.4,6.3
		c-2.4,0.9-8.9,3.8-12,4.7c-1.8,0.5-7.7,6.1-9.6,9.6c-1.2,2.2-4,6.2-4.4,10.3c-0.2,1.4,0.6,4.9,1.2,8.5c1.1-3.5,3.3-7.1,4.2-8.8
		c1.9-3.5,4.5-7.5,8.8-11c2.5-2,6.1-3.3,10.2-4.5c2.5-0.7,15.5-6.1,19.5-8.3c5.6-3.1,7.2-7.2,8.7-7.8
		C155.8,116.1,156.2,116.1,156.5,116z"/>
</g>
<g>
	<path id="Left_C8" class="st0 dermatome " d="M51.8,300.5c-0.1,0.4-0.2,0.9-0.3,1.4c0,1-0.2,2.5-0.3,3.5c-0.1,2-2.8,13.2,0.4,14
		c5.8,1.5,6.9-21.6,7.6-19.9c1.5,3.6-2.8,14.5,0.9,14.8c2.2,0.2,3.6-7.3,4.9-14.8c2.3-7.8,5.3-10.7,5.8-24.7c0.2-4.6,3-8.8,5.3-12.8
		c4.8-8.4,10.8-15.2,14.9-25.1c1.7-4.2,3-9.1,4.1-13.6c2.6-14.2,4.9-28.8,10.5-44.6c0.9-2.6,0.2-5.2,0.7-8.5
		c-1.7-8.5-4-19.5-3.7-22.5c0.4-4.2,3.2-8.2,4.3-10.3c1.8-3.5,7.8-8.7,9.6-9.2c3.1-0.9,9.6-3.8,12-4.7c2.4-0.9,11.4-4.1,15-6.8
		s10-6.8,11.5-7.4c0.3-0.1,1.1-0.2,1.4-0.2v-9.2c-0.6,0-1.7,0.1-2.3,0.3c-1.5,0.6-8.5,3.9-12.1,6.6s-12.1,6.7-14.4,7.6
		c-2.3,0.9-11.3,2.1-12.6,3.4s-9.2,6.8-11.1,8.3s-7.1,4.8-7.5,9s2.7,19.5,2.5,26.8s-4.2,22.8-5.1,26.4s-3.8,13.4-4,18.1
		s-1.3,17.9-3,22s-8.3,16-11.8,20.1s-5.9,12.4-6.4,15.5s-1.7,9-2.8,11.4s-6.8,8.5-9.2,13.3C54.3,293.4,53.1,295.1,51.8,300.5z"/>
</g>
<g>
	<path id="Left_C7" class="st0 dermatome " d="M42.7,290.7c-3,3.8-9,24.2-5.5,26.2c3.6,2,4.1-6.7,4.7-9.1c1-3.9,2.3-7.3,2.8-6.5
		c0.6,1.3-4.4,16.4,0.7,18.8c4.1,1.9,4.9-14.2,6.2-19c0.8-3.2,3.2-7.3,5.5-12.1s8-10.9,9.2-13.3s2.3-8.3,2.8-11.4s2.9-11.4,6.4-15.5
		s10.2-16,11.8-20.1s2.8-17.3,3-22s3.2-14.5,4-18.1s4.9-19.1,5.1-26.4s-2.9-22.7-2.5-26.8s5.7-7.5,7.5-9s9.8-7,11.1-8.3
		s10.2-2.6,12.6-3.4c2.4-0.8,10.8-4.9,14.4-7.6s10.6-6,12.1-6.6c0.5-0.3,1.2-0.3,1.8-0.3v-6.9c-0.3,0-0.6,0-0.8,0
		c-0.6,0-18.4,8.3-20.9,9.3s-15.3,6.7-17.4,7s-17.6,1.9-20.5,2.6s-9.2,5.5-10.4,11.1c-1.2,5.6-2.6,11.9-2.3,16.2s0.6,8.6-0.1,12.1
		s-4,12.1-4.3,15.3s-0.4,25.1-0.9,28.8s-3.1,10.8-4.4,13s-4.2,7-4.3,16.6s-4.1,17.3-5,19.9s-4.4,8.6-5,11.9s-1.3,10-2.5,14.6
		s-5.2,9.8-7.1,11.6C48.6,285,43.8,288.2,42.7,290.7z"/>
</g>
<g>
	<path id="Left_C6" class="st0 dermatome " d="M29.3,293.5c2.2,1.3,10.6-5.5,12.9-7c0,1.4-0.2,5.4,0.1,4.9c1.9-2.7,6.2-6.5,8-8.2
		s5.9-7,7.1-11.6s1.9-11.2,2.5-14.6s4.1-9.3,5-11.9s4.8-10.3,5-19.9s3-14.4,4.3-16.6s3.9-9.2,4.4-13s0.7-25.6,0.9-28.8
		s3.6-11.8,4.3-15.3s0.4-7.8,0.1-12.1s1.2-10.6,2.3-16.2c1.1-5.6,7.5-10.4,10.4-11.1s18.4-2.2,20.5-2.6s14.9-6,17.4-7
		s20.3-9.2,20.9-9.3c0.4-0.1,0.9,0,1.2,0v-6.1c-1.6,0-4.1,0-5,0.1c-5.3,0.9-14.2,4.5-18.4,6.8s-16.4,6-18.3,6.4
		c-0.9,0.2-3.9,0.6-6.8,1.1c-1.1,0.5-2.2,1-3.3,1.5c-23.4,7.9-31.2,25-26.8,45c0.5,3.9,0.1,8-0.3,11.9c-0.6,5.6-3,11-3.3,16.6
		c-0.6,12.6,0.1,21.3-3.3,30.1c-4.8,13.3-9.7,36.5-13,51.1c-1.9,8.7-2,14.1-10.2,18.4c-0.9,0.5-5.3,2.3-9.6,5.3
		C32.7,285.3,26.5,291.8,29.3,293.5z"/>
</g>
<g>
	<path id="Left_C5" class="st0 dermatome " d="M156.6,87.1V73.9c-0.3-0.1-1.1,0-1.4,0.1c-2.4,0.4-6.4,2.6-9.6,4c-3,1.3-5.2,2.7-8.3,3.3
		c-0.4,1.5-1.1,2.8-2,3.7c-7.6,6.6-17.1,11.9-27.2,16.6c3-0.4,5.9-0.9,6.8-1.1c1.9-0.4,14.2-4.1,18.3-6.4s13.1-5.9,18.4-6.8
		C152.5,87.1,155.2,87,156.6,87.1z"/>
</g>
<g>
	<path id="Left_C4" class="st0 dermatome " d="M155.2,74c0.2-0.1,1.1-0.2,1.4-0.2l-0.1-7.7c-2,0.2-7.3,0.7-10.2,3.4c-2.2,2.1-4.7,4.6-8,5.6
		c-0.1,2.1-0.4,4.3-0.9,6.1c3.2-0.6,5.3-1.9,8.3-3.3C148.9,76.4,152.8,74.5,155.2,74z"/>
</g>
<g>
	<path id="Left_C3" class="st0 dermatome " d="M146.4,69.6c2.9-2.8,8.1-3.4,10.2-3.5V50.9c-0.2,0-0.4,0.2-0.5,0.3c-0.6,0.5-4.5,6.7-8.1,9.3
		c-2,1.4-6.8,4.1-10,7.6c0.2,2,0.4,4.5,0.3,7C141.6,74.1,144.1,71.6,146.4,69.6z"/>
</g>
<g>
	<path id="Left_C2" class="st0 dermatome " d="M156.1,51.2c0.1-0.1,0.4-0.2,0.5-0.3V18.4c-13.4,0.7-21.4,8.1-22,22.2
		c-0.1,2.1,0.5,4.7,0.2,6.1c-5.5-2.2-3.1,19.2,2.6,17.8c0.2,0.7,0.4,2,0.6,3.6c3.2-3.5,8-6.2,10-7.6C151.7,58,155.5,51.8,156.1,51.2
		z"/>
</g>
<text transform="matrix(1 0 0 1 145.6418 42.2289)" class="st3 st4">C2</text>
<text transform="matrix(1 0 0 1 147.6418 65.3355)" class="st3 st4">C3</text>
<text transform="matrix(1 0 0 1 147.0586 73.3774)" class="st3 st4">C4</text>
<text transform="matrix(1 0 0 1 145.0793 84.1589)" class="st3 st4">C5</text>
<text transform="matrix(1 0 0 1 107.6418 107.2524)" class="st3 st4">C6</text>
<text transform="matrix(1 0 0 1 49.9751 176.2524)" class="st3 st4">C6</text>
<text transform="matrix(1 0 0 1 97.6421 227.8678)" class="st3 st4">C8</text>
<text transform="matrix(1 0 0 1 81.3088 293.6847)" class="st3 st4">C8</text>
<text transform="matrix(1 0 0 1 122.5587 274.3375)" class="st3 st4">S1</text>
<text transform="matrix(1 0 0 1 141.5587 304.3376)" class="st3 st4">S2</text>
<text transform="matrix(1 0 0 1 137.8084 451.8376)" class="st3 st4">S2</text>
<text transform="matrix(1 0 0 1 122.5584 451.8379)" class="st3 st4">S1</text>
<text transform="matrix(1 0 0 1 100.2251 520.5879)" class="st3 st4">S1</text>
<text transform="matrix(1 0 0 1 81.3087 319.6723)" class="st3 st4">S3</text>
<text transform="matrix(1 0 0 1 67.2334 330.2006)" class="st3 st4">S4 &amp; S5</text>
<text transform="matrix(1 0 0 1 43.5587 296.7877)" class="st3 st4">C7</text>
<text transform="matrix(1 0 0 1 75.4463 222.3077)" class="st3 st4">C7</text>
<text transform="matrix(1 0 0 1 97.6418 120.7524)" class="st3 st4">C7</text>
<text transform="matrix(1 0 0 1 113.8918 125.8493)" class="st3 st4">C8</text>
<text transform="matrix(1 0 0 1 125.6418 130.0993)" class="st3 st4">T1</text>
<text transform="matrix(1 0 0 1 126.6418 138.9326)" class="st3 st4">T2</text>
<text transform="matrix(1 0 0 1 127.6418 147.266)" class="st3 st4">T3</text>
<text transform="matrix(1 0 0 1 128.9751 155.5993)" class="st3 st4">T4</text>
<text transform="matrix(1 0 0 1 130.3084 162.4326)" class="st3 st4">T5</text>
<text transform="matrix(1 0 0 1 130.9751 171.3878)" class="st3 st4">T6</text>
<text transform="matrix(1 0 0 1 131.8084 179.7211)" class="st3 st4">T7</text>
<text transform="matrix(1 0 0 1 132.6418 186.7211)" class="st3 st4">T8</text>
<text transform="matrix(1 0 0 1 133.8084 194.8878)" class="st3 st4">T9</text>
<text transform="matrix(1 0 0 1 135.4751 203.7211)" class="st3 st4">T10</text>
<text transform="matrix(1 0 0 1 137.8084 210.8878)" class="st3 st4">T11</text>
<text transform="matrix(1 0 0 1 138.4751 217.2211)" class="st3 st4">T12</text>
<text transform="matrix(1 0 0 1 140.1418 223.8641)" class="st3 st4">L1</text>
<text transform="matrix(1 0 0 1 140.1418 230.7196)" class="st3 st4">L2</text>
<text transform="matrix(1 0 0 1 139.1418 237.6351)" class="st3 st4">L3</text>
<text transform="matrix(1 0 0 1 135.4751 244.1957)" class="st3 st4">L4</text>
<text transform="matrix(1 0 0 1 88.2251 366.4457)" class="st3 st4">L5</text>
<text transform="matrix(1 0 0 1 96.8924 548.9006)" class="st3 st4">L5</text>
<text transform="matrix(1 0 0 1 88.2255 382.4457)" class="st3 st4">L1</text>
<text transform="matrix(1 0 0 1 91.7255 397.4457)" class="st3 st4">L2</text>
<text transform="matrix(1 0 0 1 86.9755 454.4457)" class="st3 st4">L3</text>
<text transform="matrix(1 0 0 1 95.8994 532.6084)" class="st3 st4">L4</text>
<text transform="matrix(1 0 0 1 100.2252 572.4222)" class="st3 st4">L4</text>
<text transform="matrix(1 0 0 1 106.7251 284.236)" class="st3 st4">L5</text>
<line class="st2" x1="59.6" y1="176.3" x2="74.9" y2="190.4"/>
<text transform="matrix(1 0 0 1 19.122 274.3378)" class="st3 st4">C6</text>
<line class="st2" x1="29.8" y1="272.6" x2="44.1" y2="282.6"/>
<line class="st2" x1="91.9" y1="215.2" x2="96.2" y2="221.5"/>
<line class="st2" x1="90.9" y1="316.4" x2="145.1" y2="282"/>
<line class="st2" x1="92.4" y1="325.9" x2="152.5" y2="278.7"/>
<line class="st2" x1="96.9" y1="377.8" x2="154.1" y2="323.3"/>
<line class="st2" x1="101.7" y1="393.7" x2="151.1" y2="354.9"/>
<line class="st2" x1="97.6" y1="453.8" x2="151.4" y2="459.8"/>
<line class="st2" x1="105.3" y1="531.2" x2="152" y2="534"/>
<line class="st2" x1="109" y1="519" x2="136.1" y2="523.4"/>
<line class="st2" x1="106.7" y1="548.1" x2="140.1" y2="549.8"/>
<line class="st2" x1="109.5" y1="569.8" x2="151.4" y2="571.6"/>
<line class="st2" x1="98.1" y1="362.3" x2="111.7" y2="352.9"/>
<line class="st2" x1="63.7" y1="294.6" x2="80" y2="291.3"/>
</svg>
