<?xml version="1.0" encoding="utf-8"?>
<!-- Generator: Adobe Illustrator 21.0.0, SVG Export Plug-In . SVG Version: 6.00 Build 0)  -->
<svg version="1.1" id="Layer_1" xmlns="http://www.w3.org/2000/svg" xmlns:xlink="http://www.w3.org/1999/xlink" width="150px" height="130%" viewbox="-10 -10 350 400" >
<style type="text/css">
	.st0_13x{fill:#f5e6e6;stroke:#6d6d6d;}
	.st1_13x{fill:#B5B5B5;}
	.st2_13x{fill:none;stroke:#000000;}
</style>

<g>
	<g>
		<path id="left_occipital_15" class="st0_13x human" d="M266.4,76.5c-0.4,1-1,2.4-1.7,4.1s-1.5,3.6-2.3,5.8c-0.1,0.2-0.4,0.1-0.4-0.1
			l0-8.1C263.6,77.6,265.2,77,266.4,76.5z"/>
	</g>
	<g>
		<path id="left_occipital_14" class="st0_13x human" d="M252,90.6v-8.5c1.4-0.5,2.7-1,3.9-1.5l6.1-2.4v8.1v0.6
			c-0.4,1.1-1.3,2.8-1.7,3.9L252,90.6L252,90.6z"/>
	</g>
	<g>
		<path id="left_occipital_13" class="st0_13x human" d="M242,86c3.5-1.3,6.9-2.6,10-3.8v8.4h-10V86z"/>
	</g>
	<g>
		<path id="left_occipital_12" class="st0_13x human" d="M242.1,85.8v4.7h-10v-0.9"/>
	</g>
	<g>
		<path id="left_occipital_11" class="st0_13x human" d="M252,90.6l8.3,0.2c-1.1,3-3.1,6.4-4.1,9.8H252V90.6z"/>
	</g>
	<g>
		<polygon id="left_occipital_10" class="st0_13x human" points="252,90.6 252,100.6 251.8,100.6 242,100.6 242,90.6 		"/>
	</g>
	<g>
		<rect id="left_occipital_09" x="232" y="90.6" class="st0_13x human" width="10" height="10"/>
	</g>
	<g>
		<path id="left_occipital_08" class="st0_13x human" d="M232,90c0,2.7,0,10.6,0,10.6h-10c0,0,0-5.5,0-7.4"/>
	</g>
	<g>
		<path id="left_occipital_07" class="st0_13x human" d="M216.2,95.1c1.6-0.5,4.1-1.3,5.8-1.9v10.3l-2.2-2.9
			C218.5,98.7,217.8,96.7,216.2,95.1z"/>
	</g>
	<g>
		<path id="left_occipital_06" class="st0_13x human" d="M256.2,100.6c-0.8,3.2-2.4,6.2-3.1,9.6l-1.1,0.4v-10H256.2z"/>
	</g>
	<g>
		<path id="left_occipital_16" class="st0_13x human" d="M253.9,109.8c-0.8,3.2-1.1,7.3-1.8,10.7l-0.3,0.1l0.3-10L253.9,109.8z"/>
	</g>
	<g>
		<polygon id="left_occipital_05" class="st0_13x human" points="242,100.6 252,100.6 252,110.6 242,110.6 		"/>
	</g>
	<g>
		<rect id="left_occipital_04" x="232" y="100.6" class="st0_13x human" width="10" height="10"/>
	</g>
	<g>
		<path id="left_occipital_03" class="st0_13x human" d="M222,103.5v-2.9h10v11.5l-2.3-1.5"/>
	</g>
	<g>
		<polygon id="left_occipital_02" class="st0_13x human" points="242,120.6 242,110.6 252,110.6 251.5,120.6 		"/>
	</g>
	<g>
		<path id="left_occipital_01" class="st0_13x human" d="M232,112.3v-1.7h10v7.9"/>
	</g>
	<g>
		<path id="left_Oral_region_06" class="st0_13x human" d="M162,98.5v2.1h-10v-5.8"/>
	</g>
	<g>
		<path id="left_Oral_region_05" class="st0_13x human" d="M152,94.8v5.8l-5.7,0c0.1-0.4,0.2-0.7,0.4-1c2-3.1,2.3-5.1,2.3-5.1
			c0.4,0,0.8-0.1,1.2-0.1C150.8,94.5,151.4,94.6,152,94.8z"/>
	</g>
	<g>
		<path id="left_Oral_region_04" class="st0_13x human" d="M166.5,110.6h-4.4V98.5c0,0,2.3,1.5,3,2.1"/>
	</g>
	<g>
		<polygon id="left_Oral_region_03" class="st0_13x human" points="152,100.6 162,100.6 162,110.6 152,110.6 152,100.8 		"/>
	</g>
	<g>
		<path id="left_Oral_region_02" class="st0_13x human" d="M152,100.6l0.1,10l0,3.2c-4.1-1.2-3.2-3.9-3.1-4.1c1.2-2.1,1-2.3-0.6-3.4
			c-1.3-0.9-2.5-3.5-2.1-5.7l0,0L152,100.6z"/>
	</g>
	<g>
		<path id="left_Oral_region_01" class="st0_13x human" d="M151.3,119.2c0.2-1.2,0.6-2.9,0.7-3.6c0.1-1.2,0.1-5,0.1-5l14.2-0.2
			c0,0-2.8,1.8-4.3,2.7"/>
	</g>
	<g>
		<rect id="left_Zygomatic_09" x="192" y="70.6" class="st0_13x human" width="10.7" height="10"/>
	</g>
	<g>
		<polygon id="left_Zygomatic_08" class="st0_13x human" points="192,70.6 192,80.6 182,80.6 182,72.6 182,70.6 		"/>
	</g>
	<g>
		<path id="left_Zygomatic_07" class="st1_13x human" d="M172,80.6c0.8-3.1,7.8-7.4,10-9.6v9.6H172z"/>
	</g>
	<g>
		<polygon id="left_Zygomatic_06" class="st0_13x human" points="202.5,90.6 192,90.6 192,80.6 202.5,80.6 202.5,89.8 		"/>
	</g>
	<g>
		<polygon id="left_Zygomatic_04" class="st0_13x human" points="192,80.6 192,95.6 182,90.6 182,80.6 		"/>
	</g>
	<g>
		<path id="left_Zygomatic_03" class="st0_13x human" d="M177.6,80.6h4.4v10h-5.1"/>
	</g>
	<g>
		<path id="left_Zygomatic_02" class="st0_13x human" d="M182,100.4v-9.8l10,4.8v1.9v3.3"/>
	</g>
	<g>
		<path id="left_Zygomatic_01" class="st1_13x human" d="M177,90.6h5v7.2c-1.5-0.1-5.1-1-5.1-1"/>
	</g>
	<g>
		<path id="left_parotid_09" class="st0_13x human" d="M202.5,82.5l9.5-5.6v13.7h-9.5"/>
	</g>
	<g>
		<path id="left_parotid_08" class="st0_13x human" d="M217.3,100.6H212v-10c0,0,3.2,3.1,5.6,6.2C218.5,98,217.3,100.6,217.3,100.6z"/>
	</g>
	<g>
		<rect id="left_parotid_07" x="202" y="90.6" class="st0_13x human" width="10" height="10"/>
	</g>
	<g>
		<polyline id="left_parotid_06" class="st0_13x human" points="192,90.6 202,90.6 202,100.6 189.5,100.6 191.7,97.3 192,97.3 		"/>
	</g>
	<g>
		<rect id="left_parotid_05" x="202" y="100.6" class="st0_13x human" width="10" height="10"/>
	</g>
	<g>
		<path id="left_parotid_04" class="st0_13x human" d="M217.5,100.6c0,0-0.9,4.6-1.4,6c-0.7,1.7-4,6-4,6v-12H217.5z"/>
	</g>
	<g>
		<path id="left_parotid_03" class="st0_13x human" d="M212,110.6v2.2c0,0-3.3,4.1-4.2,4.9c-1.6,1.6-5.8,4.9-5.8,4.9v-12H212z"/>
	</g>
	<g>
		<path id="left_parotid_02" class="st0_13x human" d="M191.4,100.6h10.7v10h-10"/>
	</g>
	<g>
		<path id="left_parotid_01" class="st0_13x human" d="M197,110.6h5v10h-0.7"/>
	</g>
	<g>
		<path id="left_Buccal_14" class="st0_13x human" d="M187.2,100.6H182v-2.8"/>
	</g>
	<g>
		<path id="left_Buccal_13" class="st0_13x human" d="M182,97.8v2.8h-10v-5"/>
	</g>
	<g>
		<path id="left_Buccal_12" class="st0_13x human" d="M172,95.6v5h-7l-3-2.1"/>
	</g>
	<g>
		<path id="left_Buccal_11" class="st0_13x human" d="M197,110.6h-5v-6"/>
	</g>
	<g>
		<polyline id="left_Buccal_10" class="st0_13x human" points="192,104.6 192,110.6 182,110.6 182,100.6 192,100.6 		"/>
	</g>
	<g>
		<rect id="left_Buccal_09" x="172" y="100.6" class="st0_13x human" width="10" height="10"/>
	</g>
	<g>
		<path id="left_Buccal_08" class="st0_13x human" d="M165.1,100.6h7v10h-5.6"/>
	</g>
	<g>
		<path id="left_Buccal_07" class="st0_13x human" d="M201.3,120.6h-9.2v-10h5"/>
	</g>
	<g>
		<rect id="left_Buccal_06" x="182" y="110.6" class="st0_13x human" width="10" height="10"/>
	</g>
	<g>
		<path id="left_Buccal_05" class="st0_13x human" d="M172,115.6v-5h10v10h-6.2"/>
	</g>
	<g>
		<path id="left_Buccal_04" class="st0_13x human" d="M162,113.1l4.3-2.7c1.3-0.4,5.7,0.2,5.7,0.2v5"/>
	</g>
	<g>
		<polygon id="left_Buccal_03" class="st0_13x human" points="202,120.6 202,122.7 192,127.7 192,120.6 		"/>
	</g>
	<g>
		<polygon id="left_Buccal_02" class="st0_13x human" points="192,120.6 192,127.7 182,131.5 182,120.6 		"/>
	</g>
	<g>
		<path id="left_Buccal_01" class="st0_13x human" d="M175.6,120.6h6.5v10h-4.5"/>
	</g>
	<g>
		<path id="left_cervical_29" class="st0_13x human" d="M229.7,110.6H222v-7.1"/>
	</g>
	<g>
		<path id="left_cervical_28" class="st0_13x human" d="M218.1,97.8c0.9,2.2,3.1,4.9,3.9,5.7v7.1l-10,2.2c0,0,2.3-3.4,3.1-5
			c0.7-1.4,2-5.4,2.3-7.2c0.1-0.6,0.3-2,0.4-2.8C217.9,97.7,218.1,97.7,218.1,97.8z"/>
	</g>
	<g>
		<path id="left_cervical_27" class="st0_13x human" d="M242,118.5v2.1h-10v-8.3"/>
	</g>
	<g>
		<path id="left_cervical_26" class="st0_13x human" d="M222,110.6h7.7c0.8,0.6,1.5,1.2,2.3,1.7v8.3h-10V110.6z"/>
	</g>
	<g>
		<polygon id="left_cervical_25" class="st0_13x human" points="222,120.6 212,120.6 212,112.3 222,110.6 		"/>
	</g>
	<g>
		<polygon id="left_cervical_24" class="st0_13x human" points="212,112.8 212,120.6 202,122.7 207,118.7 		"/>
	</g>
	<g>
		<path id="left_cervical_23" class="st0_13x human" d="M242,120.6c0,0,8.4,0,9.4,0v10h-9.5L242,120.6L242,120.6z"/>
	</g>
	<g>
		<rect id="left_cervical_22" x="232" y="120.6" class="st0_13x human" width="10" height="10"/>
	</g>
	<g>
		<rect id="left_cervical_21" x="222" y="120.6" class="st0_13x human" width="10" height="10"/>
	</g>
	<g>
		<rect id="left_cervical_20" x="212" y="120.6" class="st0_13x human" width="10" height="10"/>
	</g>
	<g>
		<polygon id="left_cervical_19" class="st0_13x human" points="212,130.6 202,130.6 202,122.7 212,120.6 		"/>
	</g>
	<g>
		<polygon id="left_cervical_18" class="st0_13x human" points="242,140.6 242,130.6 251.5,130.6 253.3,140.6 252,140.6 		"/>
	</g>
	<g>
		<rect id="left_cervical_17" x="232" y="130.6" class="st0_13x human" width="10" height="10"/>
	</g>
	<g>
		<rect id="left_cervical_16" x="222" y="130.6" class="st0_13x human" width="10" height="10"/>
	</g>
	<g>
		<rect id="left_cervical_15" x="212" y="130.6" class="st0_13x human" width="10" height="10"/>
	</g>
	<g>
		<rect id="left_cervical_14" x="202" y="130.6" class="st0_13x human" width="10" height="10"/>
	</g>
	<g>
		<path id="left_cervical_13" class="st0_13x human" d="M253.3,140.6h0.5c1,3.7,2.1,6.6,2.7,8.1c0,0-1.7,0-4.5,0v-8.1H253.3z"/>
	</g>
	<g>
		<path id="left_cervical_12" class="st0_13x human" d="M252,140.6v8.1c-2.5,0-6,0-10,0v-8.1H252z"/>
	</g>
	<g>
		<path id="left_cervical_11" class="st0_13x human" d="M242,140.6v8.1c-3.1,0-6.4,0-10,0v-8.1H242z"/>
	</g>
	<g>
		<path id="left_cervical_10" class="st0_13x human" d="M232,140.6v8.1c-3.2,0-6.6,0-10,0v-8.1H232z"/>
	</g>
	<g>
		<path id="left_cervical_09" class="st0_13x human" d="M222,140.6v8.1c-3.3,0-6.7,0-10,0v-8.1H222z"/>
	</g>
	<g>
		<polygon id="left_cervical_08" class="st0_13x human" points="202,121.9 202,130.6 192,130.6 192,127.7 		"/>
	</g>
	<g>
		<polygon id="left_cervical_07" class="st0_13x human" points="192,127.7 192,130.6 182,131.5 		"/>
	</g>
	<g>
		<rect id="left_cervical_06" x="192" y="130.6" class="st0_13x human" width="10" height="10"/>
	</g>
	<g>
		<path id="left_cervical_05" class="st0_13x human" d="M192,130.6v10h-8.5c0-1.9-0.1-3.6-0.8-4.3c-0.2-0.3-0.5-0.5-0.7-0.7v-4.1
			L192,130.6z"/>
	</g>
	<g>
		<path id="left_cervical_04" class="st0_13x human" d="M177.7,130.6h4.4l-0.1,5c-1.5-1.3-3.2-1.7-4.7-1.9L177.7,130.6z"/>
	</g>
	<g>
		<path id="left_cervical_03" class="st0_13x human" d="M202,140.6v8c-3.7,0-7.1,0-10,0v-8H202z"/>
	</g>
	<g>
		<path id="left_cervical_02" class="st0_13x human" d="M192,148.6c-5.7,0-9.4,0-9.4,0s0.8-4.4,0.9-8h8.5V148.6z"/>
	</g>
	<g>
		<path id="left_cervical_01" class="st0_13x human" d="M212,140.6v8.1c-3.5,0-6.8,0-10,0v-8h10V140.6z"/>
	</g>
	<g>
		<path id="left_Mental_09" class="st0_13x human" d="M175.9,120.6h-3.8v-5"/>
	</g>
	<g>
		<path id="left_Mental_08" class="st0_13x human" d="M172,115.6v5h-10v-7.5"/>
	</g>
	<g>
		<path id="left_Mental_07" class="st0_13x human" d="M162,113.1v7.5h-11c0,0,0.1-0.6,0.3-1.4"/>
	</g>
	<g>
		<path id="left_Mental_06" class="st0_13x human" d="M177.7,130.6H172v-10h3.8"/>
	</g>
	<g>
		<rect id="left_Mental_05" x="162" y="120.6" class="st0_13x human" width="10" height="10"/>
	</g>
	<g>
		<path id="left_Mental_04" class="st0_13x human" d="M162,130.6h-8.5c-0.3-0.2-0.5-0.5-0.7-0.8c-0.3-0.4-0.9-1.1-1.2-1.6
			c-1.2-2.4-0.6-7.6-0.6-7.6h11V130.6z"/>
	</g>
	<g>
		<path id="left_Mental_03" class="st0_13x human" d="M172,130.6v3.1c-4,0.1-7.3,0-10-0.3v-2.8H172z"/>
	</g>
	<g>
		<path id="left_Mental_02" class="st0_13x human" d="M162,133.4c-4.4-0.5-7.1-1.6-8.5-2.8h8.5V133.4z"/>
	</g>
	<g>
		<path id="left_Mental_01" class="st0_13x human" d="M177.4,133.5c-0.5,0-1.2,0-1.7,0.1c-1.3,0.1-2.5,0.1-3.7,0.2v-3.2h5.7
			L177.4,133.5z"/>
	</g>
	<g>
		<path id="left_infraorbital_07" class="st0_13x human" d="M167,79.8c1.3,0,3.1-0.5,5-1.3v2.1h-10v-0.7c0.3-0.7,0.6-1.4,0.9-2.2
			C164.3,79,165.8,79.8,167,79.8z"/>
	</g>
	<g>
		<path id="left_infraorbital_06" class="st0_13x human" d="M176.9,90.6H172v-10h5.6"/>
	</g>
	<g>
		<rect id="left_infraorbital_05" x="162" y="80.6" class="st0_13x human" width="10" height="10"/>
	</g>
	<g>
		<path id="left_infraorbital_04" class="st0_13x human" d="M161.7,80.6h0.3v10h-5.8"/>
	</g>
	<g>
		<path id="left_infraorbital_03" class="st1_13x human" d="M177.2,96.8c-1.7-0.4-3.5-0.8-5.1-0.9v-5.3h5"/>
	</g>
	<g>
		<path id="left_infraorbital_02" class="st0_13x human" d="M162,98.5v-7.9h10v5"/>
	</g>
	<g>
		<path id="left_infraorbital_01" class="st0_13x human" d="M152,95.8v-2c1.5-0.6,2.9-1.7,4.2-3.2h5.8v6.8c0,0.1,0,1.1,0,1.1"/>
	</g>
	<g>
		<path id="left_nasal_09" class="st0_13x human" d="M157.4,70.6H152V65c0.6-1,1-2.8,1.3-3.7l0.3-0.6"/>
	</g>
	<g>
		<path id="left_nasal_08" class="st0_13x human" d="M147.9,70.6c1.6-2.2,3.1-3.7,4.2-5.8V65v5.6L147.9,70.6z"/>
	</g>
	<g>
		<path id="left_nasal_07" class="st0_13x human" d="M162,76.8v3c-0.1,0.3-0.2,0.5-0.3,0.7H152v-9.9h5.4"/>
	</g>
	<g>
		<path id="left_nasal_06" class="st0_13x human" d="M146.6,72.2c0.4-0.5,0.8-1.1,1.2-1.6h4.2v10h-0.9H143h-0.9h-0.8
			C142.6,78.4,145,74.4,146.6,72.2z"/>
	</g>
	<g>
		<path id="left_nasal_05" class="st0_13x human" d="M156.2,90.6H152v-1v-8.1v-0.9h9.7"/>
	</g>
	<g>
		<path id="left_nasal_04" class="st0_13x human" d="M152,81.5v8.1c0,0.5-0.4,1-1,0.9h-8c-0.5,0-0.9-0.6-0.9-1.1c0-1.8-0.1-6.1-0.1-7.9
			c0-0.5,0.4-0.9,0.9-0.9h8.1C151.6,80.6,152,81,152,81.5z"/>
	</g>
	<g>
		<path id="left_nasal_03" class="st0_13x human" d="M140,83.1c0.4-1.1,0.7-1.7,1.2-2.5h0.8l0.1,9.3C139.6,88.9,138.6,87.1,140,83.1z"
			/>
	</g>
	<g>
		<path id="left_nasal_02" class="st0_13x human" d="M156.2,90.6c-1.3,1.6-2.7,2.6-4.2,3.2v-3.1v-0.1H156.2z"/>
	</g>
	<g>
		<path id="left_nasal_01" class="st0_13x human" d="M152,90.6v3.3c-0.6,0.2-1.2,0.4-1.8,0.5c-0.4-0.1-0.8-0.2-1.2-0.3
			c0-0.3-0.2-0.6-0.5-0.9c-2-1.6-2.7-1.7-4.3-2.3c-0.3-0.1-1-0.3-0.6-0.3h2.8L152,90.6z"/>
	</g>
	<g>
		<path id="left_Orbital_15" class="st0_13x human" d="M185.8,50.6H182v-4.9"/>
	</g>
	<g>
		<path id="left_Orbital_14" class="st0_13x human" d="M182,45.7v4.9h-10v-7"/>
	</g>
	<g>
		<path id="left_Orbital_13" class="st0_13x human" d="M172,43.6v7h-10v-5.9"/>
	</g>
	<g>
		<path id="left_Orbital_12" class="st0_13x human" d="M162,44.7v5.9l-10.3,0.1c0-1.7,0.7-3.4,0.9-4.8"/>
	</g>
	<g>
		<path id="left_Orbital_11" class="st0_13x human" d="M186.6,60.6H182v-10h3.8"/>
	</g>
	<g>
		<rect id="left_Orbital_10" x="172" y="50.6" class="st0_13x human" width="10" height="10"/>
	</g>
	<g>
		<rect id="left_Orbital_09" x="162" y="50.6" class="st0_13x human" width="10" height="10"/>
	</g>
	<g>
		<path id="left_Orbital_08" class="st0_13x human" d="M162,60.6h-8.4l0,0c0-0.1,0-0.1,0-0.2c-0.8-3.9-2.2-6.5-1.9-9.7l10.4-0.1
			L162,60.6L162,60.6z"/>
	</g>
	<g>
		<path id="left_Orbital_07" class="st1_13x human" d="M183.1,70.6H182v-10h4.6c-0.3,1.7-0.7,3.4-1.2,5
			C184.8,67.6,183.9,69.3,183.1,70.6z"/>
	</g>
	<g>
		<rect id="left_Orbital_06" x="172" y="60.6" class="st0_13x human" width="10" height="10"/>
	</g>
	<g>
		<rect id="left_Orbital_05" x="162" y="60.6" class="st0_13x human" width="10" height="10"/>
	</g>
	<g>
		<polyline id="left_Orbital_04" class="st0_13x human" points="153.6,60.6 162,60.6 162,70.6 156.4,70.6 		"/>
	</g>
	<g>
		<path id="left_Orbital_03" class="st0_13x human" d="M172,80.6v-10h10v1.3"/>
	</g>
	<g>
		<rect id="left_Orbital_02" x="162" y="70.6" class="st0_13x human" width="10" height="10"/>
	</g>
	<g>
		<path id="left_Orbital_01" class="st0_13x human" d="M157.4,70.6h4.6v6.2"/>
	</g>
	<g>
		<polyline id="left_temporal_23" class="st0_13x human" points="242,50.6 232,50.6 232,41.1 		"/>
	</g>
	<g>
		<rect id="left_temporal_22" x="222" y="40.6" class="st0_13x human" width="10" height="10"/>
	</g>
	<g>
		<path id="left_temporal_21" class="st0_13x human" d="M222,40.6v10h-12.8"/>
	</g>
	<g>
		<polyline id="left_temporal_20" class="st0_13x human" points="246.7,60.6 242,60.6 242,50.6 		"/>
	</g>
	<g>
		<path id="left_temporal_19" class="st0_13x human" d="M232,60.6v-10h10l0,0v10H232z"/>
	</g>
	<g>
		<rect id="left_temporal_18" x="222" y="50.6" class="st0_13x human" width="10" height="10"/>
	</g>
	<g>
		<rect id="left_temporal_17" x="212" y="50.6" class="st0_13x human" width="10" height="10"/>
	</g>
	<g>
		<path id="left_temporal_16" class="st0_13x human" d="M209.2,50.6h2.9v10h-7.4"/>
	</g>
	<g>
		<polyline id="left_temporal_15" class="st0_13x human" points="247.1,70.6 242,70.6 242,60.6 246.7,60.6 		"/>
	</g>
	<g>
		<rect id="left_temporal_14" x="232" y="60.6" class="st0_13x human" width="10" height="10"/>
	</g>
	<g>
		<rect id="left_temporal_13" x="222" y="60.6" class="st0_13x human" width="10" height="10"/>
	</g>
	<g>
		<rect id="left_temporal_12" x="212" y="60.6" class="st0_13x human" width="10" height="10"/>
	</g>
	<g>
		<rect id="left_temporal_11" x="202" y="60.6" class="st0_13x human" width="10.1" height="10"/>
	</g>
	<g>
		<polyline id="left_temporal_10" class="st0_13x human" points="244.4,80.6 242,80.6 242,70.6 247.1,70.6 		"/>
	</g>
	<g>
		<rect id="left_temporal_09" x="232" y="70.6" class="st0_13x human" width="10" height="10"/>
	</g>
	<g>
		<rect id="left_temporal_08" x="222" y="70.6" class="st0_13x human" width="10" height="10"/>
	</g>
	<g>
		<path id="left_temporal_07" class="st0_13x human" d="M212,78.8c0.2-0.6-0.5-6.9,0.2-8.2h9.8v10h-10V78.8z"/>
	</g>
	<g>
		<path id="left_temporal_06" class="st0_13x human" d="M212,70.6v6.3l-9.3,5.3v-1.7v-10L212,70.6z"/>
	</g>
	<g>
		<polyline id="left_temporal_05" class="st0_13x human" points="242,85.7 242,80.6 252,80.6 		"/>
	</g>
	<g>
		<path id="left_temporal_04" class="st0_13x human" d="M232,89.7v-9.1h10l0.1,5.4"/>
	</g>
	<g>
		<polyline id="left_temporal_03" class="st0_13x human" points="222,93.2 222,80.6 232,80.6 232,90.7 		"/>
	</g>
	<g>
		<rect id="left_temporal_02" x="212" y="80.6" class="st0_13x human" width="10" height="10"/>
	</g>
	<g>
		<path id="left_temporal_01" class="st0_13x human" d="M222,90.6v2.6c0,0-4.6,1.5-5.8,1.9l-4.2-4.5L222,90.6z"/>
	</g>
	<g>
		<polyline id="left_Frontal_30" class="st0_13x human" points="192,20.3 192,20.6 182,20.6 182,17.7 		"/>
	</g>
	<g>
		<polyline id="left_Frontal_29" class="st0_13x human" points="182,17.7 182,20.6 172,20.6 172,15.9 		"/>
	</g>
	<g>
		<path id="left_Frontal_28" class="st0_13x human" d="M172,20.6h-7.9c1.5-1.8,3.1-3.4,4.9-5c1-0.9,2-1.7,3-2.5V20.6z"/>
	</g>
	<g>
		<polyline id="left_Frontal_27" class="st0_13x human" points="212,28.2 212,30.6 202,30.6 202,23.7 		"/>
	</g>
	<g>
		<polyline id="left_Frontal_26" class="st0_13x human" points="202,23.7 202,30.6 192,30.6 192,20.6 193.2,20.6 		"/>
	</g>
	<g>
		<rect id="left_Frontal_25" x="182" y="20.6" class="st0_13x human" width="10" height="10"/>
	</g>
	<g>
		<rect id="left_Frontal_24" x="172" y="20.6" class="st0_13x human" width="10" height="10"/>
	</g>
	<g>
		<path id="left_Frontal_23" class="st0_13x human" d="M172,30.6h-10v-7.2c0.7-0.9,1.4-1.9,2.1-2.8h7.9V30.6z"/>
	</g>
	<g>
		<path id="left_Frontal_22" class="st0_13x human" d="M157.8,30.6c1.2-2.4,2.6-4.9,4.3-7.2v7.2H157.8z"/>
	</g>
	<g>
		<polyline id="left_Frontal_21" class="st0_13x human" points="232,40.9 222,40.6 222,33.9 		"/>
	</g>
	<g>
		<polygon id="left_Frontal_20" class="st0_13x human" points="222,30.9 222,40.6 212,40.6 212,28.9 		"/>
	</g>
	<g>
		<rect id="left_Frontal_19" x="202" y="30.6" class="st0_13x human" width="10" height="10"/>
	</g>
	<g>
		<rect id="left_Frontal_18" x="192" y="30.6" class="st0_13x human" width="10" height="10"/>
	</g>
	<g>
		<rect id="left_Frontal_17" x="182" y="30.6" class="st0_13x human" width="10" height="10"/>
	</g>
	<g>
		<rect id="left_Frontal_16" x="172" y="30.6" class="st0_13x human" width="10" height="10"/>
	</g>
	<g>
		<rect id="left_Frontal_15" x="162" y="30.6" class="st0_13x human" width="10" height="10"/>
	</g>
	<g>
		<path id="left_Frontal_14" class="st0_13x human" d="M162,40.6h-8.1c0.9-3.1,2.1-6.6,3.8-10h4.3V40.6z"/>
	</g>
	<g>
		<path id="left_Frontal_13" class="st0_13x human" d="M212,49.3v-8.7h10"/>
	</g>
	<g>
		<rect id="left_Frontal_12" x="202" y="40.6" class="st0_13x human" width="10" height="10"/>
	</g>
	<g>
		<rect id="left_Frontal_11" x="192" y="40.6" class="st0_13x human" width="10" height="10"/>
	</g>
	<g>
		<path id="left_Frontal_10" class="st0_13x human" d="M182,45.7v-5.1h10v10h-6.2"/>
	</g>
	<g>
		<path id="left_Frontal_09" class="st0_13x human" d="M172,43.6v-3h10v5.1"/>
	</g>
	<g>
		<path id="left_Frontal_08" class="st0_13x human" d="M162,44.7v-4.1h10v3"/>
	</g>
	<g>
		<path id="left_Frontal_07" class="st0_13x human" d="M152.7,45.9c0-0.1,0-0.3,0.1-0.4c0.3-1.5,0.7-3.2,1.2-4.9h8.1v4.1"/>
	</g>
	<g>
		<path id="left_Frontal_06" class="st0_13x human" d="M205.6,60.6H202v-10h7.1"/>
	</g>
	<g>
		<rect id="left_Frontal_05" x="192" y="50.6" class="st0_13x human" width="10" height="10"/>
	</g>
	<g>
		<path id="left_Frontal_04" class="st0_13x human" d="M185.8,50.6h6.2v10h-5.4"/>
	</g>
	<g>
		<path id="left_Frontal_03" class="st0_13x human" d="M202,65.6v5h-10v-3.1"/>
	</g>
	<g>
		<path id="left_Frontal_02" class="st0_13x human" d="M192,67.5v-6.9h10v5"/>
	</g>
	<g>
		<path id="left_Frontal_01" class="st0_13x human" d="M185.5,70.6h-2.4c1.5-2.3,2.9-6,3.5-10h5.4v10H185.5z"/>
	</g>
	<g>
		<rect id="left_Parietal_43" x="222" y="20.6" class="st0_13x human" width="10" height="10"/>
	</g>
	<g>
		<path id="left_Parietal_42" class="st0_13x human" d="M242,9.7c0.6,0.3,1.2,0.6,1.8,0.9H242V9.7z"/>
	</g>
	<g>
		<path id="left_Parietal_41" class="st0_13x human" d="M232,10.6V5.8c3.2,0.9,6.6,2.1,10,3.8v1H232z"/>
	</g>
	<g>
		<path id="left_Parietal_40" class="st0_13x human" d="M222,10.6V3.8c3,0.4,6.4,1,10,2v4.8L222,10.6z"/>
	</g>
	<g>
		<path id="left_Parietal_39" class="st0_13x human" d="M212,10.6V3.2c0.1,0,0.3,0,0.4,0c2.4,0.1,5.7,0.2,9.6,0.7v6.7H212z"/>
	</g>
	<g>
		<path id="left_Parietal_38" class="st0_13x human" d="M202,10.6V3.3c3-0.2,6.4-0.2,10-0.1v7.4L202,10.6z"/>
	</g>
	<g>
		<path id="left_Parietal_37" class="st0_13x human" d="M192,10.6V4.4c3-0.5,6.3-0.9,10-1.1v7.3L192,10.6z"/>
	</g>
	<g>
		<path id="left_Parietal_36" class="st0_13x human" d="M182,10.6V7.3c2.9-1.2,6.1-2.2,10-2.9v6.2H182z"/>
	</g>
	<g>
		<path id="left_Parietal_35" class="st0_13x human" d="M175.6,10.6c1.9-1.2,4-2.4,6.4-3.3v3.3H175.6z"/>
	</g>
	<g>
		<path id="left_Parietal_34" class="st0_13x human" d="M252,16.2c1.6,1.3,3.2,2.8,4.7,4.4H252V16.2z"/>
	</g>
	<g>
		<path id="left_Parietal_33" class="st0_13x human" d="M242,20.6v-10h1.8c2.8,1.5,5.5,3.4,8.2,5.6v4.4H242z"/>
	</g>
	<g>
		<rect id="left_Parietal_32" x="232" y="10.6" class="st0_13x human" width="10" height="10"/>
	</g>
	<g>
		<rect id="left_Parietal_31" x="222" y="10.6" class="st0_13x human" width="10" height="10"/>
	</g>
	<g>
		<rect id="left_Parietal_30" x="212" y="10.6" class="st0_13x human" width="10" height="10"/>
	</g>
	<g>
		<rect id="left_Parietal_29" x="202" y="10.6" class="st0_13x human" width="10" height="10"/>
	</g>
	<g>
		<path id="left_Parietal_28" class="st0_13x human" d="M193.2,20.6c-0.4-0.1-0.7-0.2-1.1-0.3v-9.7h10v10H193.2z"/>
	</g>
	<g>
		<polyline id="left_Parietal_27" class="st0_13x human" points="182,17.7 182,10.6 192,10.6 192,20.3 		"/>
	</g>
	<g>
		<path id="left_Parietal_26" class="st0_13x human" d="M172,15.9v-2.8c1.1-0.9,2.3-1.7,3.6-2.5h6.4v7.1"/>
	</g>
	<g>
		<path id="left_Parietal_25" class="st0_13x human" d="M252,30.6v-10h4.7c1.9,2,5.9,7.5,7.5,10H262H252z"/>
	</g>
	<g>
		<rect id="left_Parietal_24" x="242" y="20.6" class="st0_13x human" width="10" height="10"/>
	</g>
	<g>
		<rect id="left_Parietal_23" x="232" y="20.6" class="st0_13x human" width="10" height="10"/>
	</g>
	<g>
		<polygon id="left_Parietal_22" class="st0_13x human" points="212,29 212,20.6 222,20.6 222,30.9 		"/>
	</g>
	<g>
		<polyline id="left_Parietal_21" class="st0_13x human" points="202,23.7 202,20.6 212,20.6 212,28.2 		"/>
	</g>
	<g>
		<polyline id="left_Parietal_20" class="st0_13x human" points="193.2,20.6 202,20.6 202,23.7 		"/>
	</g>
	<g>
		<path id="left_Parietal_19" class="st0_13x human" d="M262,30.6h2c1.4,2.5,2.7,5.1,3.9,8c0.3,0.7,0.5,1.3,0.7,2H262V30.6L262,30.6z"
			/>
	</g>
	<g>
		<rect id="left_Parietal_18" x="252" y="30.6" class="st0_13x human" width="10" height="10"/>
	</g>
	<g>
		<rect id="left_Parietal_17" x="242" y="30.6" class="st0_13x human" width="10" height="10"/>
	</g>
	<g>
		<rect id="left_Parietal_16" x="232" y="30.6" class="st0_13x human" width="10" height="10"/>
	</g>
	<g>
		<polyline id="left_Parietal_15" class="st0_13x human" points="222,33.9 222,30.6 232,30.6 232,40.6 231.2,40.6 		"/>
	</g>
	<g>
		<path id="left_Parietal_14" class="st0_13x human" d="M262,40.6h6.6c1.2,3.3,1.9,6.7,2.2,10H262L262,40.6L262,40.6z"/>
	</g>
	<g>
		<rect id="left_Parietal_13" x="252" y="40.6" class="st0_13x human" width="10" height="10"/>
	</g>
	<g>
		<rect id="left_Parietal_12" x="242" y="40.6" class="st0_13x human" width="10" height="10"/>
	</g>
	<g>
		<polyline id="left_Parietal_11" class="st0_13x human" points="232,41.2 232,40.6 242,40.6 242,50.6 242,50.6 		"/>
	</g>
	<g>
		<path id="left_Parietal_10" class="st0_13x human" d="M262,50.6h8.8c0.3,3.4,0.3,6.7-0.1,10H262L262,50.6L262,50.6z"/>
	</g>
	<g>
		<rect id="left_Parietal_09" x="252" y="50.6" class="st0_13x human" width="10" height="10"/>
	</g>
	<g>
		<polyline id="left_Parietal_08" class="st0_13x human" points="242,50.6 242,50.6 252,50.6 252,60.6 246.7,60.6 		"/>
	</g>
	<g>
		<path id="left_Parietal_07" class="st0_13x human" d="M262,60.6h8.7c-0.4,3.4-1.1,6.8-2.1,10H262V60.6L262,60.6z"/>
	</g>
	<g>
		<rect id="left_Parietal_06" x="252" y="60.6" class="st0_13x human" width="10" height="10"/>
	</g>
	<g>
		<polyline id="left_Parietal_05" class="st0_13x human" points="246.7,60.6 252,60.6 252,70.6 247.1,70.6 		"/>
	</g>
	<g>
		<path id="left_Parietal_04" class="st0_13x human" d="M262,70.6h6.6c-0.6,2-1.4,4-2.2,5.9c-1.2,0.5-2.7,1.1-4.4,1.7V70.6L262,70.6z"
			/>
	</g>
	<g>
		<path id="left_Parietal_03" class="st0_13x human" d="M252,70.6h10v7.6c-1.8,0.7-3.9,1.5-6.1,2.4l-3.9,1.5L252,70.6L252,70.6z"/>
	</g>
	<g>
		<polyline id="left_Parietal_02" class="st0_13x human" points="247.1,70.6 252,70.6 252,80.6 244.4,80.6 		"/>
	</g>
	<g>
		<path id="left_Parietal_01" class="st0_13x human" d="M244.4,80.6h7.6v1.5c-3.1,1.2-9.9,3.9-9.9,3.9"/>
	</g>
	<g>
		<g>
			<path d="M230.3,59.5c-2.1-1.4-6.4-2.5-10.9-0.8c-3.9,1.5-5.6,5.1-5.8,6c-0.1,0.2-0.7,0.4-1.1,0.4v1.2c0.2,0,1.9-0.1,2.2-1.3
				c0.2-0.7,1.7-3.9,5-5.2c2.5-0.9,7.4-1.1,10.2,0.7c2.7,1.7,3.9,4.8,3.9,9.3c0,6.3-3.4,12-8.3,15.8c-1.6,1.3-2.6,3.3-3.8,5.4
				c-1.2,1.8-2.7,3.2-3.7,3.6c-1.3,0.6-3.4,0.5-5.1-0.6c-1.5-1-1.9-2.5-1.9-4.8c0-3,0.3-5.1,0.3-5.1s-0.3-0.6-0.6-0.6l-0.5,0.3
				c0,0-0.4,1.6-0.4,5.3c0,3.4,1.2,5,2.5,5.8c1.1,0.8,2.4,1.2,3.6,1.2c0.9,0,2.2-0.3,3-0.6c1.4-0.5,2.6-1.8,3.9-4
				c1.2-2,2-3.5,3.4-4.6c6.3-4.8,8.9-11,8.9-17.6C235.1,64.4,233.3,61.4,230.3,59.5z"/>
			<path d="M214.6,82.1c-1.3,2.3-0.5,3.2,0.1,3.5c0.2,0.1,0.6,0.2,0.9,0.2c1.1,0,2.5-0.7,3.3-1.7c0.8-1.4,1.2-1.4,2.3-1.3
				c0.5,0.1,1.3,0.1,2.2,0c4.3-0.6,6.5-7.3,7.3-10.1c0.9-3.2-0.3-7.3-2.7-9.3c-1.3-1.1-3.4-2-6.5-0.8c-7.9,3.2-5.3,11.4-5.3,11.5
				l1.2-0.4c-0.1-0.1-0.3-0.8-0.4-1.9c0.2,0.3,0.4,0.6,0.6,1c0.3,0.5,0.2,0.7-0.2,1.3c-0.3,0.6-0.8,1.3-0.7,2.5
				c0.2,2.5,0,2.8-0.7,3.6C215.6,80.6,215.1,81.1,214.6,82.1z M217,69.7c0.2-2.1,1.4-4.7,4.9-6.1c2-0.8,3.8-0.6,5.2,0.6
				c2.1,1.7,3.1,5.3,2.4,8.1c-0.6,2-2.6,8.7-6.3,9.2c-0.1,0-0.2,0-0.4,0c2-5.7-3.3-8.5-4.1-8.9c0-0.1-0.1-0.3-0.2-0.4
				C217.9,71.1,217.3,70.2,217,69.7z M217.7,76.4c-0.1-0.7,0.2-1.2,0.5-1.7c0.2-0.2,0.3-0.5,0.4-0.8c1,0.5,4.8,2.8,2.8,7.6
				c-0.1,0-0.3,0-0.4,0c-1.4-0.1-2.4,0-3.5,1.9c-0.6,0.9-2,1.4-2.5,1.1c-0.2-0.2-0.2-0.8,0.4-2c0.4-0.8,0.8-1.3,1.2-1.7
				C217.6,79.9,218,79.3,217.7,76.4z"/>
			<path d="M217.7,92.3c-0.8,0.3-1.5,0.3-2.1,0.1l-0.5,1.1c0.4,0.1,0.9,0.2,1.3,0.2c0.6,0,1.2-0.1,1.9-0.4c0.8-0.4,1.4-1,1.6-1.6
				l-1.2-0.3C218.6,91.7,218.3,92,217.7,92.3z"/>
		</g>
		<g>
			<path class="st2_13x" d="M182.3,148.6c0,0,1-8.1,0.6-11.7c-0.2-2.3-6.8-2.4-12-2.5c-2.3,0-4.5-0.1-6.3-0.3c-6.4-0.6-15-1.5-14-12.9
				c0.1-0.9,0.3-1.9,0.6-3c0.4-1.5,1-4.1,0.3-4.4c-1.6-0.7-2.5-1.5-2.9-2.5c-0.4-1.2,0.2-2.3,0.6-3.1c0.2-0.3,0.4-0.8,0.4-0.9
				c-2-1.4-5.2-4.9-3.1-8.6c0.2-0.4,0.5-0.8,0.7-1.2c1.1-1.8,1.8-3,1.5-3.8c-0.4-1-2.7-2-6.2-3.2c-1.6-0.5-2.6-1.5-3-2.9
				c-1.7-5.2,6.4-15.3,10.1-20.2c0.7-0.9,1.2-1.5,1.5-2c2.6-3.7,1.9-6.1,1-9c-0.5-1.5-0.9-3.1-1-5c-0.1-1.7,1.7-12.5,7.5-23.1
				c3.5-6.4,8.8-12.5,14.9-17c8.1-6,18.7-8.8,32-8.8c5.4,0,10.2,0.5,13.8,0.8c1.5,0.1,2.8,0.3,3.9,0.3c11.7,0.7,28.9,9,39.1,23.5
				c6.6,9.3,12.8,25.1,5.5,46.9c-1.3,3.8-3.2,7.9-5.2,12.3c-7.7,16.8-16.5,38.2-5.5,61.5l0.2,0.3l-0.3,0.3
				c-0.3,0.3-74.1,0.2-74.1,0.2H182.3z"/>
		</g>
		<g>
			<path d="M152.1,90.5c-0.1-2.5-5.8-3.3-6.1,0.6c0,0,1.4,1.1,1.4,0.6c-0.2-1.9,1.7-1.9,2.2-1.2c0.5,0.8-1.5,1.9-1.1,2.2
				C149.2,93.3,152.2,92.4,152.1,90.5z"/>
			<path d="M154.1,85.5l-0.8,0.9c0,0,2.3,1.9,1.7,3.7c-0.9,2.7-5.3,4-5.8,4.1v1.2c0.4,0,5.8-1.4,7-4.9
				C157.1,87.9,154.2,85.6,154.1,85.5z"/>
		</g>
		<path d="M157,106.9c-0.6-0.1-1.4-0.3-2.5-0.7c-4.2-1.6-7.9-5.1-7.9-5.1l-0.9,0.8c0.1,0.2,3.8,3.7,8.2,5.4c0.2,0.1,0.4,0.1,0.6,0.2
			c-1.5-0.1-3.3-0.2-4.7-0.2l-0.1,1.2c3.8,0.1,5.8,0.2,6.9,0.3c-1.2,1.1-3.8,3-5.6,4l0.6,1c0.3-0.2,7-4.3,7-5.7
			C158.5,107.2,157.8,107.1,157,106.9z"/>
		<g>
			<path d="M169.6,52c-3.8-2-7.4-3.9-13.1-2.7c-1,0.2-1.7,0.7-2.1,1.4c-0.8,1.2-0.3,2.8-0.3,2.9l1.2-0.3c0,0-0.3-1.2,0.2-2
				c0.2-0.4,0.7-0.7,1.3-0.8c5.3-1.2,8.5,0.5,12.3,2.5c1.5,0.8,3.1,1.6,4.9,2.3l0.4-1.1C172.6,53.6,171.1,52.8,169.6,52z"/>
			<path d="M156.1,58.8l1.1,0.4c0.1-0.2,0.7-1.4,2.3-0.8c2.2,0.8,10.3,3.7,10.3,3.7l0.4-1.1c0,0-8-2.9-10.3-3.7
				C157.7,56.5,156.5,57.9,156.1,58.8z"/>
			<path d="M160.4,61c-0.1,0-0.2,0-0.3,0c-0.3,0-0.5,0.1-0.8,0.1c-0.1,0-0.2,0-0.2,0.1l0,0c-0.5,0.2-0.8,0.6-1,1.1
				c-0.1,0.2-0.2,0.4-0.2,0.7c-0.4,0.4-0.7,0.9-0.7,1.5c0,0.6,0.2,1.1,0.6,1.5c0.1,0.5,0.3,1,0.5,1.4c0.4,0.8,1,1.3,1.7,1.5
				c0.1,0,0.2,0.1,0.3,0.1l0,0h0.1c0.1,0,0.2,0,0.3,0c0.4,0,0.7-0.1,1-0.2c2.6-0.7,6.4-2.9,6.9-3.8c0.1-0.3,0.1-0.6-0.1-0.8
				C166.8,61.9,162.8,60.9,160.4,61z M160.2,67.8c-0.3-0.1-0.6-0.4-0.9-0.9c-0.1-0.1-0.1-0.3-0.2-0.4c0.9-0.1,1.7-0.9,1.7-2
				c0-1-0.7-1.8-1.5-2c0.1-0.1,0.2-0.2,0.4-0.3c0.1,0,0.2,0,0.4-0.1c0.9,0,1.8,0.8,1.9,2.2c0.2,1.3,0,2.5-0.5,3.1
				c-0.1,0.1-0.1,0.1-0.2,0.1C161,67.7,160.6,67.8,160.2,67.8L160.2,67.8C160.3,67.8,160.3,67.8,160.2,67.8z M163.2,66.9
				c0.2-0.8,0.3-1.8,0.2-2.9c-0.1-0.7-0.4-1.2-0.7-1.7c1.7,0.3,3.5,1,4.6,2.2C166.8,65.1,165,66.2,163.2,66.9z"/>
		</g>
	</g>
</g>
<g>
	<g>
		<path id="Right_occipital_15" class="st0_13x human" d="M10.4,78.1v2.4v5.7c0,0.2-0.2,0.3-0.3,0.1c-0.8-2.2-1.6-4.1-2.3-5.8
			s-1.3-3.1-1.7-4.1C7.3,76.9,8.8,77.5,10.4,78.1z"/>
	</g>
	<g>
		<path id="Right_occipital_14" class="st0_13x human" d="M20.5,90.5l-8.4-0.1c0.1,0.1,0.1,0.1,0.1,0.2H12c-0.4-1.1-1.1-2.7-1.5-3.8
			v-0.6v-8.1l6.1,2.4c1.2,0.5,2.5,1,3.9,1.5V90.5L20.5,90.5z"/>
	</g>
	<g>
		<path id="Right_occipital_13" class="st0_13x human" d="M30.5,90.5h-10v-8.4c3.1,1.2,6.5,2.5,10,3.8V90.5z"/>
	</g>
	<g>
		<path id="Right_occipital_122" class="st0_13x human" d="M40.5,89.6v0.9l-10.1,0v-4.7"/>
	</g>
	<g>
		<path id="Right_occipital_11" class="st0_13x human" d="M20.5,100.5h-4.2c-1-3.4-2.9-6.8-4-9.8l8.2-0.2V100.5z"/>
	</g>
	<g>
		<polygon id="Right_occipital_10" class="st0_13x human" points="30.5,90.5 30.5,100.5 20.7,100.5 20.5,100.5 20.5,90.5 		"/>
	</g>
	<g>
		<rect id="Right_occipital_09" x="30.5" y="90.5" class="st0_13x human" width="10" height="10"/>
	</g>
	<g>
		<path id="Right_occipital_08" class="st0_13x human" d="M50.5,93.1c0,1.9,0,7.4,0,7.4h-10c0,0,0-7.9,0-10.6"/>
	</g>
	<g>
		<path id="Right_occipital_07" class="st0_13x human" d="M52.7,100.5l-2.2,2.9V93.1c1.7,0.6,3.4,1.4,5,1.9
			C54.5,96.7,54,98.6,52.7,100.5z"/>
	</g>
	<g>
		<path id="Right_occipital_06" class="st0_13x human" d="M20.5,100.5v10l0.4,7.9c-0.7-3.4-3.8-14.7-4.6-17.9H20.5z"/>
	</g>
	<g>
		<polygon id="Right_occipital_05" class="st0_13x human" points="30.5,110.5 20.5,110.5 20.7,100.5 30.5,100.5 		"/>
	</g>
	<g>
		<rect id="Right_occipital_04" x="30.5" y="100.5" class="st0_13x human" width="10" height="10"/>
	</g>
	<g>
		<path id="Right_occipital_03" class="st0_13x human" d="M42.8,110.5l-2.3,1.7v-11.7h10v2.9"/>
	</g>
	<g>
		<polygon id="Right_occipital_02" class="st0_13x human" points="21,120.5 20.5,110.5 30.5,110.5 30.5,120.5 		"/>
	</g>
	<g>
		<path id="Right_occipital_01" class="st0_13x human" d="M30.5,118.4v-7.9h10v1.7"/>
	</g>
	<g>
		<path id="Right_Oral_region_06" class="st0_13x human" d="M120.5,94.7v5.8h-10v-2.1"/>
	</g>
	<g>
		<path id="Right_Oral_region_05" class="st0_13x human" d="M122.3,94.3c0.4,0,0.8,0.1,1.2,0.1c0,0,0.3,2,2.3,5.1
			c0.2,0.3,0.2,0.6,0.3,1h-5.6v-5.8C121.1,94.5,121.7,94.4,122.3,94.3z"/>
	</g>
	<g>
		<path id="Right_Oral_region_04" class="st0_13x human" d="M107.4,100.5c0.7-0.6,3-2.1,3-2.1v12.1H106"/>
	</g>
	<g>
		<polygon id="Right_Oral_region_03" class="st0_13x human" points="120.5,100.7 120.5,110.5 110.5,110.5 110.5,100.5 120.5,100.5 		
			"/>
	</g>
	<g>
		<path id="Right_Oral_region_02" class="st0_13x human" d="M126.2,100.7c0-0.1,0-0.1,0-0.2l0,0c0.4,2.2-0.8,4.8-2.1,5.7
			c-1.6,1.1-1.8,1.3-0.6,3.4c0.1,0.2,1.2,2.9-2.9,4.1l-0.1-3.2v-9.8H126.2z"/>
	</g>
	<g>
		<path id="Right_Oral_region_01" class="st0_13x human" d="M110.5,113l-4.3-2.7l14.2,0.2c0,0,0,3.8,0.1,5c0.1,0.7,0.5,2.4,0.7,3.6"/>
	</g>
	<g>
		<rect id="Right_Zygomatic_09" x="69.8" y="70.5" class="st0_13x human" width="10.7" height="10"/>
	</g>
	<g>
		<polygon id="Right_Zygomatic_08" class="st0_13x human" points="90.5,70.5 90.5,72.5 90.5,80.5 80.5,80.5 80.5,70.5 		"/>
	</g>
	<g>
		<path id="Right_Zygomatic_07" class="st1_13x human" d="M90.5,80.5v-9.6c2.2,2.2,9.2,6.5,10,9.6H90.5z"/>
	</g>
	<g>
		<polygon id="Right_Zygomatic_06" class="st0_13x human" points="70,89.7 70,80.5 80.5,80.5 80.5,90.5 70,90.5 		"/>
	</g>
	<g>
		<polygon id="Right_Zygomatic_04" class="st0_13x human" points="90.5,80.5 90.5,90.5 80.5,95.5 80.5,80.5 		"/>
	</g>
	<g>
		<path id="Right_Zygomatic_03" class="st0_13x human" d="M95.6,90.5h-5.1v-10h4.4"/>
	</g>
	<g>
		<path id="Right_Zygomatic_02" class="st0_13x human" d="M80.5,100.5v-3.3v-1.9l10-4.8v9.8"/>
	</g>
	<g>
		<path id="Right_Zygomatic_01" class="st1_13x human" d="M95.6,96.7c0,0-3.6,0.9-5.1,1v-7.2h5"/>
	</g>
	<g>
		<path id="Right_parotid_09" class="st0_13x human" d="M70,90.5h-9.5V76.8l9.5,5.6"/>
	</g>
	<g>
		<path id="Right_parotid_08" class="st0_13x human" d="M54.9,96.7c2.4-3.1,5.6-6.2,5.6-6.2v10h-5.3C55.2,100.5,54,97.9,54.9,96.7z"/>
	</g>
	<g>
		<rect id="Right_parotid_07" x="60.5" y="90.5" class="st0_13x human" width="10" height="10"/>
	</g>
	<g>
		<polyline id="Right_parotid_06" class="st0_13x human" points="80.5,97.2 80.8,97.2 83,100.5 70.5,100.5 70.5,90.5 80.5,90.5 		"/>
	</g>
	<g>
		<rect id="Right_parotid_05" x="60.5" y="100.5" class="st0_13x human" width="10" height="10"/>
	</g>
	<g>
		<path id="Right_parotid_04" class="st0_13x human" d="M60.4,100.5v12c0,0-3.3-4.3-4-6c-0.5-1.4-1.4-6-1.4-6H60.4z"/>
	</g>
	<g>
		<path id="Right_parotid_03" class="st0_13x human" d="M70.5,110.5v12c0,0-4.2-3.3-5.8-4.9c-0.9-0.8-4.2-4.9-4.2-4.9v-2.2H70.5z"/>
	</g>
	<g>
		<path id="Right_parotid_02" class="st0_13x human" d="M80.4,110.5h-10v-10h10.7"/>
	</g>
	<g>
		<path id="Right_parotid_01" class="st0_13x human" d="M71.2,120.5h-0.7v-10h5"/>
	</g>
	<g>
		<path id="Right_Buccal_14" class="st0_13x human" d="M90.5,97.7v2.8h-5.2"/>
	</g>
	<g>
		<path id="Right_Buccal_13" class="st0_13x human" d="M100.5,95.5v5h-10v-2.8"/>
	</g>
	<g>
		<path id="Right_Buccal_12" class="st0_13x human" d="M110.5,98.4l-3,2.1h-7v-5"/>
	</g>
	<g>
		<path id="Right_Buccal_11" class="st0_13x human" d="M80.5,104.5v6h-5"/>
	</g>
	<g>
		<polyline id="Right_Buccal_10" class="st0_13x human" points="80.5,100.5 90.5,100.5 90.5,110.5 80.5,110.5 80.5,104.5 		"/>
	</g>
	<g>
		<rect id="Right_Buccal_09" x="90.5" y="100.5" class="st0_13x human" width="10" height="10"/>
	</g>
	<g>
		<path id="Right_Buccal_08" class="st0_13x human" d="M106,110.5h-5.6v-10h7"/>
	</g>
	<g>
		<path id="Right_Buccal_07" class="st0_13x human" d="M75.4,110.5h5v10h-9.2"/>
	</g>
	<g>
		<rect id="Right_Buccal_06" x="80.5" y="110.5" class="st0_13x human" width="10" height="10"/>
	</g>
	<g>
		<path id="Right_Buccal_05" class="st0_13x human" d="M96.7,120.5h-6.2v-10h10v5"/>
	</g>
	<g>
		<path id="Right_Buccal_04" class="st0_13x human" d="M100.5,115.5v-5c0,0,4.6-0.2,5.7-0.2l4.3,2.7"/>
	</g>
	<g>
		<polygon id="Right_Buccal_03" class="st0_13x human" points="80.5,120.5 80.5,127.6 70.5,122.6 70.5,120.5 		"/>
	</g>
	<g>
		<polygon id="Right_Buccal_02" class="st0_13x human" points="90.5,120.5 90.5,131.4 80.5,127.6 80.5,120.5 		"/>
	</g>
	<g>
		<path id="Right_Buccal_01" class="st0_13x human" d="M94.7,130.5h-4.3v-10h6.2"/>
	</g>
	<g>
		<path id="Right_cervical_29" class="st0_13x human" d="M50.5,103.4v7.1h-7.7"/>
	</g>
	<g>
		<path id="Right_cervical_28" class="st0_13x human" d="M55.1,100.5c0.3,1.8,1.6,5.8,2.3,7.2c0.8,1.6,3.1,5,3.1,5l-10-2.2v-7.1
			c0.9-0.9,3.3-3.9,4.1-6.2C54.6,97.2,54.9,99.7,55.1,100.5z"/>
	</g>
	<g>
		<path id="Right_cervical_27" class="st0_13x human" d="M40.5,112.2v8.3h-10v-2.1"/>
	</g>
	<g>
		<path id="Right_cervical_26" class="st0_13x human" d="M50.5,120.5h-10v-8.3c0.8-0.5,1.5-1.1,2.3-1.7h7.7V120.5z"/>
	</g>
	<g>
		<polygon id="Right_cervical_25" class="st0_13x human" points="50.5,110.5 60.5,112.2 60.5,120.5 50.5,120.5 		"/>
	</g>
	<g>
		<polygon id="Right_cervical_24" class="st0_13x human" points="65.5,118.6 70.5,122.6 60.5,120.5 60.5,112.7 		"/>
	</g>
	<g>
		<path id="Right_cervical_23" class="st0_13x human" d="M30.5,120.5l0.1,10h-9.5v-10C22.1,120.5,30.5,120.5,30.5,120.5L30.5,120.5z"/>
	</g>
	<g>
		<rect id="Right_cervical_22" x="30.5" y="120.5" class="st0_13x human" width="10" height="10"/>
	</g>
	<g>
		<rect id="Right_cervical_21" x="40.5" y="120.5" class="st0_13x human" width="10" height="10"/>
	</g>
	<g>
		<rect id="Right_cervical_20" x="50.5" y="120.5" class="st0_13x human" width="10" height="10"/>
	</g>
	<g>
		<polygon id="Right_cervical_19" class="st0_13x human" points="60.5,120.5 70.5,122.6 70.5,130.5 60.5,130.5 		"/>
	</g>
	<g>
		<polygon id="Right_cervical_18" class="st0_13x human" points="20.5,140.5 19.2,140.5 21,130.5 30.5,130.5 30.5,140.5 		"/>
	</g>
	<g>
		<rect id="Right_cervical_17" x="30.5" y="130.5" class="st0_13x human" width="10" height="10"/>
	</g>
	<g>
		<rect id="Right_cervical_16" x="40.5" y="130.5" class="st0_13x human" width="10" height="10"/>
	</g>
	<g>
		<rect id="Right_cervical_15" x="50.5" y="130.5" class="st0_13x human" width="10" height="10"/>
	</g>
	<g>
		<rect id="Right_cervical_14" x="60.5" y="130.5" class="st0_13x human" width="10" height="10"/>
	</g>
	<g>
		<path id="Right_cervical_13" class="st0_13x human" d="M20.5,140.5v8.1c-2.8,0-4.5,0-4.5,0c0.6-1.5,1.7-4.4,2.7-8.1h0.5H20.5z"/>
	</g>
	<g>
		<path id="Right_cervical_12" class="st0_13x human" d="M30.5,140.5v8.1c-4,0-7.5,0-10,0v-8.1H30.5z"/>
	</g>
	<g>
		<path id="Right_cervical_11" class="st0_13x human" d="M40.5,140.5v8.1c-3.6,0-6.9,0-10,0v-8.1H40.5z"/>
	</g>
	<g>
		<path id="Right_cervical_10" class="st0_13x human" d="M50.5,140.5v8.1c-3.4,0-6.8,0-10,0v-8.1H50.5z"/>
	</g>
	<g>
		<path id="Right_cervical_09" class="st0_13x human" d="M60.5,140.5v8.1c-3.3,0-6.7,0-10,0v-8.1H60.5z"/>
	</g>
	<g>
		<polygon id="Right_cervical_08" class="st0_13x human" points="80.5,127.6 80.5,130.5 70.5,130.5 70.5,121.8 		"/>
	</g>
	<g>
		<polygon id="Right_cervical_07" class="st0_13x human" points="90.5,131.4 80.5,130.5 80.5,127.6 		"/>
	</g>
	<g>
		<rect id="Right_cervical_06" x="70.5" y="130.5" class="st0_13x human" width="10" height="10"/>
	</g>
	<g>
		<path id="Right_cervical_05" class="st0_13x human" d="M90.5,131.4v4.1c-0.2,0.2-0.5,0.4-0.7,0.7c-0.7,0.7-0.8,2.4-0.8,4.3h-8.5v-10
			L90.5,131.4z"/>
	</g>
	<g>
		<path id="Right_cervical_04" class="st0_13x human" d="M95.3,134.3c-1.5,0.2-3.3-0.1-4.8,1.2l-0.1-5h4.4L95.3,134.3z"/>
	</g>
	<g>
		<path id="Right_cervical_03" class="st0_13x human" d="M80.5,140.5v8c-2.9,0-6.3,0-10,0v-8H80.5z"/>
	</g>
	<g>
		<path id="Right_cervical_02" class="st0_13x human" d="M80.5,140.5H89c0.1,3.6,0.9,8,0.9,8s-3.7,0-9.4,0V140.5z"/>
	</g>
	<g>
		<path id="Right_cervical_01" class="st0_13x human" d="M60.5,140.6h10v8c-3.2,0-6.5,0-10,0v-8.1L60.5,140.6z"/>
	</g>
	<g>
		<path id="Right_Mental_09" class="st0_13x human" d="M100.4,115.5v5h-3.8"/>
	</g>
	<g>
		<path id="Right_Mental_08" class="st0_13x human" d="M110.5,113v7.5h-10v-5"/>
	</g>
	<g>
		<path id="Right_Mental_07" class="st0_13x human" d="M121.2,119.1c0.2,0.8,0.3,1.4,0.3,1.4h-11l0-7.6"/>
	</g>
	<g>
		<path id="Right_Mental_06" class="st0_13x human" d="M96.6,120.5h3.9v10h-5.8"/>
	</g>
	<g>
		<rect id="Right_Mental_05" x="100.5" y="120.5" class="st0_13x human" width="10" height="10"/>
	</g>
	<g>
		<path id="Right_Mental_04" class="st0_13x human" d="M110.5,120.5h11c0,0,0.6,5.2-0.6,7.6c-0.3,0.5-0.9,1.2-1.2,1.6
			c-0.2,0.3-0.4,0.6-0.7,0.8h-8.5L110.5,120.5z"/>
	</g>
	<g>
		<path id="Right_Mental_03" class="st0_13x human" d="M110.5,130.5v2.8c-2.7,0.3-6,0.4-10,0.3v-3.1H110.5z"/>
	</g>
	<g>
		<path id="Right_Mental_02" class="st0_13x human" d="M110.5,130.5h8.5c-1.4,1.2-4.1,2.3-8.5,2.8V130.5z"/>
	</g>
	<g>
		<path id="Right_Mental_01" class="st0_13x human" d="M94.8,130.5h5.7v3.2c-1.1,0.2-4.7,0.8-5.2,0.8L94.8,130.5z"/>
	</g>
	<g>
		<path id="Right_infraorbital_07" class="st0_13x human" d="M109.6,77.6c0.3,0.8,0.6,1.5,0.9,2.2v0.7h-10v-2.1c1.9,0.8,3.7,1.3,5,1.3
			C106.7,79.7,108.2,78.9,109.6,77.6z"/>
	</g>
	<g>
		<path id="Right_infraorbital_06" class="st0_13x human" d="M94.9,80.5h5.6v10h-4.9"/>
	</g>
	<g>
		<rect id="Right_infraorbital_05" x="100.5" y="80.5" class="st0_13x human" width="10" height="10"/>
	</g>
	<g>
		<path id="Right_infraorbital_04" class="st0_13x human" d="M116.3,90.5h-5.8v-10h0.3"/>
	</g>
	<g>
		<path id="Right_infraorbital_03" class="st1_13x human" d="M95.4,90.5h5v5.3c-1.6,0.1-3.4,0.5-5.1,0.9"/>
	</g>
	<g>
		<path id="Right_infraorbital_02" class="st0_13x human" d="M100.5,95.5v-5h10v7.9"/>
	</g>
	<g>
		<path id="Right_infraorbital_01" class="st0_13x human" d="M110.5,98.4c0,0,0-1,0-1.1v-6.8h5.8c1.3,1.5,2.7,2.6,4.2,3.2v2"/>
	</g>
	<g>
		<path id="Right_nasal_09" class="st0_13x human" d="M118.9,60.6l0.3,0.6c0.3,0.9,0.7,2.7,1.3,3.7v5.6h-5.4"/>
	</g>
	<g>
		<path id="Right_nasal_08" class="st0_13x human" d="M120.4,70.5v-5.6v-0.2c1.1,2.1,2.6,3.6,4.2,5.8L120.4,70.5z"/>
	</g>
	<g>
		<path id="Right_nasal_07" class="st0_13x human" d="M115.1,70.5h5.4v9.9h-9.7c-0.1-0.2-0.2-0.4-0.3-0.7v-3"/>
	</g>
	<g>
		<path id="Right_nasal_06" class="st0_13x human" d="M131.2,80.5h-0.8h-0.9h-8.1h-0.9v-10h4.2c0.4,0.5,0.8,1.1,1.2,1.6
			C127.5,74.3,129.9,78.3,131.2,80.5z"/>
	</g>
	<g>
		<path id="Right_nasal_05" class="st0_13x human" d="M110.8,80.5h9.7v0.9v8.1v1h-4.2"/>
	</g>
	<g>
		<path id="Right_nasal_04" class="st0_13x human" d="M121.5,80.5h8.1c0.5,0,0.9,0.4,0.9,0.9c0,1.8-0.1,6.1-0.1,7.9
			c0,0.5-0.4,1.1-0.9,1.1h-8c-0.6,0.1-1-0.4-1-0.9v-8.1C120.5,80.9,120.9,80.5,121.5,80.5z"/>
	</g>
	<g>
		<path id="Right_nasal_03" class="st0_13x human" d="M130.4,89.8l0.1-9.3h0.8c0.5,0.8,0.8,1.4,1.2,2.5C133.9,87,132.9,88.8,130.4,89.8
			z"/>
	</g>
	<g>
		<path id="Right_nasal_02" class="st0_13x human" d="M120.5,90.5L120.5,90.5v3.2c-1.5-0.6-2.9-1.6-4.2-3.2H120.5z"/>
	</g>
	<g>
		<path id="Right_nasal_01" class="st0_13x human" d="M126.1,90.5h2.8c0.4,0-0.3,0.2-0.6,0.3c-1.6,0.6-2.3,0.7-4.3,2.3
			c-0.3,0.3-0.5,0.6-0.5,0.9c-0.4,0.1-0.8,0.2-1.2,0.3c-0.6-0.1-1.2-0.3-1.8-0.5v-3.3L126.1,90.5z"/>
	</g>
	<g>
		<path id="Right_Orbital_15" class="st0_13x human" d="M90.5,45.6v4.9h-3.8"/>
	</g>
	<g>
		<path id="Right_Orbital_14" class="st0_13x human" d="M100.5,43.5v7h-10v-4.9"/>
	</g>
	<g>
		<path id="Right_Orbital_13" class="st0_13x human" d="M110.5,44.6v5.9h-10v-7"/>
	</g>
	<g>
		<path id="Right_Orbital_12" class="st0_13x human" d="M119.9,45.8c0.2,1.4,0.9,3.1,0.9,4.8l-10.3-0.1v-5.9"/>
	</g>
	<g>
		<path id="Right_Orbital_11" class="st0_13x human" d="M86.7,50.5h3.8v10h-4.6"/>
	</g>
	<g>
		<rect id="Right_Orbital_10" x="90.5" y="50.5" class="st0_13x human" width="10" height="10"/>
	</g>
	<g>
		<rect id="Right_Orbital_09" x="100.5" y="50.5" class="st0_13x human" width="10" height="10"/>
	</g>
	<g>
		<path id="Right_Orbital_08" class="st0_13x human" d="M110.5,60.5l-0.1-10l10.4,0.1c0.3,3.2-1.1,5.8-1.9,9.7c0,0.1,0,0.1,0,0.2l0,0
			H110.5L110.5,60.5z"/>
	</g>
	<g>
		<path id="Right_Orbital_07" class="st1_13x human" d="M87.1,65.5c-0.5-1.6-0.9-3.3-1.2-5h4.6v10h-1.1C88.6,69.2,87.7,67.5,87.1,65.5z
			"/>
	</g>
	<g>
		<rect id="Right_Orbital_06" x="90.5" y="60.5" class="st0_13x human" width="10" height="10"/>
	</g>
	<g>
		<rect id="Right_Orbital_05" x="100.5" y="60.5" class="st0_13x human" width="10" height="10"/>
	</g>
	<g>
		<polyline id="Right_Orbital_04" class="st0_13x human" points="116.1,70.5 110.5,70.5 110.5,60.5 118.9,60.5 		"/>
	</g>
	<g>
		<path id="Right_Orbital_03" class="st0_13x human" d="M90.5,71.8v-1.3h10v10"/>
	</g>
	<g>
		<rect id="Right_Orbital_02" x="100.5" y="70.5" class="st0_13x human" width="10" height="10"/>
	</g>
	<g>
		<path id="Right_Orbital_01" class="st0_13x human" d="M110.5,76.7v-6.2h4.6"/>
	</g>
	<g>
		<polyline id="Right_temporal_23" class="st0_13x human" points="40.5,41 40.5,50.5 30.5,50.5 		"/>
	</g>
	<g>
		<rect id="Right_temporal_22" x="40.5" y="40.5" class="st0_13x human" width="10" height="10"/>
	</g>
	<g>
		<path id="Right_temporal_21" class="st0_13x human" d="M63.3,50.5H50.5v-10"/>
	</g>
	<g>
		<polyline id="Right_temporal_20" class="st0_13x human" points="30.5,50.5 30.5,60.5 25.8,60.5 		"/>
	</g>
	<g>
		<path id="Right_temporal_19" class="st0_13x human" d="M30.5,60.5v-10l0,0h10v10H30.5z"/>
	</g>
	<g>
		<rect id="Right_temporal_18" x="40.5" y="50.5" class="st0_13x human" width="10" height="10"/>
	</g>
	<g>
		<rect id="Right_temporal_17" x="50.5" y="50.5" class="st0_13x human" width="10" height="10"/>
	</g>
	<g>
		<path id="Right_temporal_16" class="st0_13x human" d="M67.8,60.5h-7.4v-10h2.9"/>
	</g>
	<g>
		<polyline id="Right_temporal_15" class="st0_13x human" points="25.8,60.5 30.5,60.5 30.5,70.5 25.4,70.5 		"/>
	</g>
	<g>
		<rect id="Right_temporal_14" x="30.5" y="60.5" class="st0_13x human" width="10" height="10"/>
	</g>
	<g>
		<rect id="Right_temporal_13" x="40.5" y="60.5" class="st0_13x human" width="10" height="10"/>
	</g>
	<g>
		<rect id="Right_temporal_12" x="50.5" y="60.5" class="st0_13x human" width="10" height="10"/>
	</g>
	<g>
		<rect id="Right_temporal_11" x="60.4" y="60.5" class="st0_13x human" width="10.1" height="10"/>
	</g>
	<g>
		<polyline id="Right_temporal_10" class="st0_13x human" points="25.4,70.5 30.5,70.5 30.5,80.5 28.1,80.5 		"/>
	</g>
	<g>
		<rect id="Right_temporal_09" x="30.5" y="70.5" class="st0_13x human" width="10" height="10"/>
	</g>
	<g>
		<rect id="Right_temporal_08" x="40.5" y="70.5" class="st0_13x human" width="10" height="10"/>
	</g>
	<g>
		<path id="Right_temporal_07" class="st0_13x human" d="M60.5,80.5h-10v-10h9.8c0.7,1.3,0,7.6,0.2,8.2V80.5z"/>
	</g>
	<g>
		<path id="Right_temporal_06" class="st0_13x human" d="M69.8,70.4v10v1.7l-9.3-5.3v-6.3L69.8,70.4z"/>
	</g>
	<g>
		<polyline id="Right_temporal_05" class="st0_13x human" points="20.5,80.5 30.5,80.5 30.5,85.6 		"/>
	</g>
	<g>
		<path id="Right_temporal_042" class="st0_13x human" d="M30.5,86v-5.5h10v9.1"/>
	</g>
	<g>
		<polyline id="Right_temporal_03" class="st0_13x human" points="40.5,90.6 40.5,80.5 50.5,80.5 50.5,93.1 		"/>
	</g>
	<g>
		<rect id="Right_temporal_02" x="50.5" y="80.5" class="st0_13x human" width="10" height="10"/>
	</g>
	<g>
		<path id="Right_temporal_01" class="st0_13x human" d="M60.5,90.5l-3.8,4.8c-1.2-0.4-6.2-2.2-6.2-2.2v-2.6L60.5,90.5z"/>
	</g>
	<g>
		<polyline id="Right_Frontal_30" class="st0_13x human" points="90.5,17.6 90.5,20.5 80.5,20.5 80.5,20.2 		"/>
	</g>
	<g>
		<polyline id="Right_Frontal_29" class="st0_13x human" points="100.5,15.8 100.5,20.5 90.5,20.5 90.5,17.6 		"/>
	</g>
	<g>
		<path id="Right_Frontal_28" class="st0_13x human" d="M100.5,13c1,0.8,2,1.6,3,2.5c1.8,1.6,3.4,3.2,4.9,5h-7.9V13z"/>
	</g>
	<g>
		<polyline id="Right_Frontal_27" class="st0_13x human" points="70.5,23.6 70.5,30.5 60.5,30.5 60.5,28.1 		"/>
	</g>
	<g>
		<polyline id="Right_Frontal_26" class="st0_13x human" points="79.3,20.5 80.5,20.5 80.5,30.5 70.5,30.5 70.5,23.6 		"/>
	</g>
	<g>
		<rect id="Right_Frontal_25" x="80.5" y="20.5" class="st0_13x human" width="10" height="10"/>
	</g>
	<g>
		<rect id="Right_Frontal_24" x="90.5" y="20.5" class="st0_13x human" width="10" height="10"/>
	</g>
	<g>
		<path id="Right_Frontal_23" class="st0_13x human" d="M100.5,20.5h7.9c0.7,0.9,1.4,1.9,2.1,2.8v7.2h-10V20.5z"/>
	</g>
	<g>
		<path id="Right_Frontal_22" class="st0_13x human" d="M110.4,30.5v-7.2c1.7,2.3,3.1,4.8,4.3,7.2H110.4z"/>
	</g>
	<g>
		<polyline id="Right_Frontal_21" class="st0_13x human" points="50.5,33.8 50.5,40.5 40.5,40.8 		"/>
	</g>
	<g>
		<polygon id="Right_Frontal_20" class="st0_13x human" points="60.5,28.8 60.5,40.5 50.5,40.5 50.5,30.8 		"/>
	</g>
	<g>
		<rect id="Right_Frontal_19" x="60.5" y="30.5" class="st0_13x human" width="10" height="10"/>
	</g>
	<g>
		<rect id="Right_Frontal_18" x="70.5" y="30.5" class="st0_13x human" width="10" height="10"/>
	</g>
	<g>
		<rect id="Right_Frontal_17" x="80.5" y="30.5" class="st0_13x human" width="10" height="10"/>
	</g>
	<g>
		<rect id="Right_Frontal_16" x="90.5" y="30.5" class="st0_13x human" width="10" height="10"/>
	</g>
	<g>
		<rect id="Right_Frontal_15" x="100.5" y="30.5" class="st0_13x human" width="10" height="10"/>
	</g>
	<g>
		<path id="Right_Frontal_14" class="st0_13x human" d="M110.5,30.5h4.3c1.7,3.4,2.9,6.9,3.8,10h-8.1L110.5,30.5z"/>
	</g>
	<g>
		<path id="Right_Frontal_13" class="st0_13x human" d="M50.5,40.5h10v8.7"/>
	</g>
	<g>
		<rect id="Right_Frontal_12" x="60.5" y="40.5" class="st0_13x human" width="10" height="10"/>
	</g>
	<g>
		<rect id="Right_Frontal_11" x="70.5" y="40.5" class="st0_13x human" width="10" height="10"/>
	</g>
	<g>
		<path id="Right_Frontal_10" class="st0_13x human" d="M86.7,50.5h-6.2v-10h10v5.1"/>
	</g>
	<g>
		<path id="Right_Frontal_09" class="st0_13x human" d="M90.5,45.6v-5.1h10v3"/>
	</g>
	<g>
		<path id="Right_Frontal_08" class="st0_13x human" d="M100.5,43.5v-3h10v4.1"/>
	</g>
	<g>
		<path id="Right_Frontal_07" class="st0_13x human" d="M110.4,44.6v-4.1h8.1c0.5,1.7,0.9,3.4,1.2,4.9c0.1,0.1,0.1,0.3,0.1,0.4"/>
	</g>
	<g>
		<path id="Right_Frontal_06" class="st0_13x human" d="M63.4,50.5h7.1v10h-3.6"/>
	</g>
	<g>
		<rect id="Right_Frontal_05" x="70.5" y="50.5" class="st0_13x human" width="10" height="10"/>
	</g>
	<g>
		<path id="Right_Frontal_04" class="st0_13x human" d="M85.9,60.5h-5.4v-10h6.2"/>
	</g>
	<g>
		<path id="Right_Frontal_03" class="st0_13x human" d="M80.5,67.4v3.1h-10v-5"/>
	</g>
	<g>
		<path id="Right_Frontal_02" class="st0_13x human" d="M70.5,65.5v-5h10v6.9"/>
	</g>
	<g>
		<path id="Right_Frontal_01" class="st0_13x human" d="M80.5,70.5v-10h5.4c0.6,4,2,7.7,3.5,10H87H80.5z"/>
	</g>
	<g>
		<rect id="Right_Parietal_43" x="40.5" y="20.5" class="st0_13x human" width="10" height="10"/>
	</g>
	<g>
		<path id="Right_Parietal_42" class="st0_13x human" d="M30.5,10.5h-1.8c0.6-0.3,1.2-0.6,1.8-0.9V10.5z"/>
	</g>
	<g>
		<path id="Right_Parietal_41" class="st0_13x human" d="M30.5,10.5v-1c3.4-1.7,6.8-2.9,10-3.8v4.8H30.5z"/>
	</g>
	<g>
		<path id="Right_Parietal_40" class="st0_13x human" d="M40.5,10.5V5.7c3.6-1,7-1.6,10-2v6.8L40.5,10.5z"/>
	</g>
	<g>
		<path id="Right_Parietal_39" class="st0_13x human" d="M50.5,10.5V3.8c3.9-0.5,7.2-0.6,9.6-0.7c0.1,0,0.3,0,0.4,0v7.4H50.5z"/>
	</g>
	<g>
		<path id="Right_Parietal_38" class="st0_13x human" d="M60.5,10.5V3.1c3.6-0.1,7-0.1,10,0.1v7.3H60.5z"/>
	</g>
	<g>
		<path id="Right_Parietal_37" class="st0_13x human" d="M70.5,10.5V3.2c3.7,0.2,7,0.6,10,1.1v6.2H70.5z"/>
	</g>
	<g>
		<path id="Right_Parietal_36" class="st0_13x human" d="M80.5,10.5V4.3c3.9,0.7,7.1,1.7,10,2.9v3.3H80.5z"/>
	</g>
	<g>
		<path id="Right_Parietal_35" class="st0_13x human" d="M90.5,10.5V7.2c2.4,0.9,4.5,2.1,6.4,3.3H90.5z"/>
	</g>
	<g>
		<path id="Right_Parietal_34" class="st0_13x human" d="M20.5,20.5h-4.7c1.5-1.6,3.1-3.1,4.7-4.4V20.5z"/>
	</g>
	<g>
		<path id="Right_Parietal_33" class="st0_13x human" d="M20.5,20.5v-4.4c2.7-2.2,5.4-4.1,8.2-5.6h1.8v10H20.5z"/>
	</g>
	<g>
		<rect id="Right_Parietal_32" x="30.5" y="10.5" class="st0_13x human" width="10" height="10"/>
	</g>
	<g>
		<rect id="Right_Parietal_31" x="40.5" y="10.5" class="st0_13x human" width="10" height="10"/>
	</g>
	<g>
		<rect id="Right_Parietal_30" x="50.5" y="10.5" class="st0_13x human" width="10" height="10"/>
	</g>
	<g>
		<rect id="Right_Parietal_29" x="60.5" y="10.5" class="st0_13x human" width="10" height="10"/>
	</g>
	<g>
		<path id="Right_Parietal_28" class="st0_13x human" d="M70.4,20.5v-10h10v9.7c-0.4,0.1-0.7,0.2-1.1,0.3H70.4z"/>
	</g>
	<g>
		<polyline id="Right_Parietal_27" class="st0_13x human" points="80.5,20.2 80.5,10.5 90.5,10.5 90.5,17.6 		"/>
	</g>
	<g>
		<path id="Right_Parietal_26" class="st0_13x human" d="M90.5,17.6v-7.1h6.4c1.3,0.8,2.5,1.6,3.6,2.5v2.8"/>
	</g>
	<g>
		<path id="Right_Parietal_25" class="st0_13x human" d="M10.5,30.5H8.3c1.6-2.5,5.6-8,7.5-10h4.7v10H10.5z"/>
	</g>
	<g>
		<rect id="Right_Parietal_24" x="20.5" y="20.5" class="st0_13x human" width="10" height="10"/>
	</g>
	<g>
		<rect id="Right_Parietal_23" x="30.5" y="20.5" class="st0_13x human" width="10" height="10"/>
	</g>
	<g>
		<polygon id="Right_Parietal_22" class="st0_13x human" points="50.5,30.8 50.5,20.5 60.5,20.5 60.5,28.9 		"/>
	</g>
	<g>
		<polyline id="Right_Parietal_21" class="st0_13x human" points="60.5,28.1 60.5,20.5 70.5,20.5 70.5,23.6 		"/>
	</g>
	<g>
		<polyline id="Right_Parietal_20" class="st0_13x human" points="70.5,23.6 70.5,20.5 79.3,20.5 		"/>
	</g>
	<g>
		<path id="Right_Parietal_19" class="st0_13x human" d="M10.5,30.5v10H3.9c0.2-0.7,0.4-1.3,0.7-2c1.2-2.9,2.5-5.5,3.9-8H10.5
			L10.5,30.5z"/>
	</g>
	<g>
		<rect id="Right_Parietal_18" x="10.5" y="30.5" class="st0_13x human" width="10" height="10"/>
	</g>
	<g>
		<rect id="Right_Parietal_17" x="20.5" y="30.5" class="st0_13x human" width="10" height="10"/>
	</g>
	<g>
		<rect id="Right_Parietal_16" x="30.5" y="30.5" class="st0_13x human" width="10" height="10"/>
	</g>
	<g>
		<polyline id="Right_Parietal_15" class="st0_13x human" points="41.3,40.5 40.5,40.5 40.5,30.5 50.5,30.5 50.5,33.8 		"/>
	</g>
	<g>
		<path id="Right_Parietal_14" class="st0_13x human" d="M10.5,40.5v10H1.7c0.3-3.3,1-6.7,2.2-10H10.5L10.5,40.5z"/>
	</g>
	<g>
		<rect id="Right_Parietal_13" x="10.5" y="40.5" class="st0_13x human" width="10" height="10"/>
	</g>
	<g>
		<rect id="Right_Parietal_12" x="20.5" y="40.5" class="st0_13x human" width="10" height="10"/>
	</g>
	<g>
		<polyline id="Right_Parietal_11" class="st0_13x human" points="30.5,50.5 30.5,50.5 30.5,40.5 40.5,40.5 40.5,41.1 		"/>
	</g>
	<g>
		<path id="Right_Parietal_10" class="st0_13x human" d="M10.5,50.5v10H1.8c-0.4-3.3-0.4-6.6-0.1-10H10.5L10.5,50.5z"/>
	</g>
	<g>
		<rect id="Right_Parietal_09" x="10.5" y="50.5" class="st0_13x human" width="10" height="10"/>
	</g>
	<g>
		<polyline id="Right_Parietal_08" class="st0_13x human" points="25.8,60.5 20.5,60.5 20.5,50.5 30.5,50.5 30.5,50.5 		"/>
	</g>
	<g>
		<path id="Right_Parietal_07" class="st0_13x human" d="M10.5,60.5v10H3.9c-1-3.2-1.7-6.6-2.1-10L10.5,60.5L10.5,60.5z"/>
	</g>
	<g>
		<rect id="Right_Parietal_06" x="10.5" y="60.5" class="st0_13x human" width="10" height="10"/>
	</g>
	<g>
		<polyline id="Right_Parietal_05" class="st0_13x human" points="25.4,70.5 20.5,70.5 20.5,60.5 25.8,60.5 		"/>
	</g>
	<g>
		<path id="Right_Parietal_04" class="st0_13x human" d="M10.5,70.5v7.6c-1.7-0.6-3.2-1.2-4.4-1.7c-0.8-1.9-1.6-3.9-2.2-5.9H10.5
			L10.5,70.5z"/>
	</g>
	<g>
		<path id="Right_Parietal_03" class="st0_13x human" d="M20.5,70.5V82l-3.9-1.5c-2.2-0.9-4.3-1.7-6.1-2.4v-7.6H20.5L20.5,70.5z"/>
	</g>
	<g>
		<polyline id="Right_Parietal_02" class="st0_13x human" points="28.1,80.5 20.5,80.5 20.5,70.5 25.4,70.5 		"/>
	</g>
	<g>
		<path id="Right_Parietal_01" class="st0_13x human" d="M30.5,85.9c0,0-6.9-2.7-10-3.9v-1.5h7.6"/>
	</g>
	<g>
		<g>
			<path d="M37.4,69.2c0,6.6,2.6,12.8,8.9,17.6c1.4,1.1,2.2,2.6,3.4,4.6c1.3,2.2,2.5,3.5,3.9,4c0.8,0.3,2.1,0.6,3,0.6
				c1.2,0,2.5-0.4,3.6-1.2c1.3-0.8,2.5-2.4,2.5-5.8c0-3.7-0.4-5.3-0.4-5.3l-0.5-0.3c-0.3,0-0.6,0.6-0.6,0.6s0.3,2.1,0.3,5.1
				c0,2.3-0.4,3.8-1.9,4.8c-1.7,1.1-3.8,1.2-5.1,0.6c-1-0.4-2.5-1.8-3.7-3.6c-1.2-2.1-2.2-4.1-3.8-5.4c-4.9-3.8-8.3-9.5-8.3-15.8
				c0-4.5,1.2-7.6,3.9-9.3c2.8-1.8,7.7-1.6,10.2-0.7c3.3,1.3,4.8,4.5,5,5.2c0.3,1.2,2,1.3,2.2,1.3V65c-0.4,0-1-0.2-1.1-0.4
				c-0.2-0.9-1.9-4.5-5.8-6c-4.5-1.7-8.8-0.6-10.9,0.8C39.2,61.3,37.4,64.3,37.4,69.2z"/>
			<path d="M56.5,80.1c-0.7-0.8-0.9-1.1-0.7-3.6c0.1-1.2-0.4-1.9-0.7-2.5c-0.4-0.6-0.5-0.8-0.2-1.3c0.2-0.4,0.4-0.7,0.6-1
				c-0.1,1.1-0.3,1.8-0.4,1.9l1.2,0.4c0-0.1,2.6-8.3-5.3-11.5c-3.1-1.2-5.2-0.3-6.5,0.8c-2.4,2-3.6,6.1-2.7,9.3
				c0.8,2.8,3,9.5,7.3,10.1c0.9,0.1,1.7,0.1,2.2,0c1.1-0.1,1.5-0.1,2.3,1.3c0.8,1,2.2,1.7,3.3,1.7c0.3,0,0.7-0.1,0.9-0.2
				c0.6-0.3,1.4-1.2,0.1-3.5C57.4,81,56.9,80.5,56.5,80.1z M54,72.1c-0.1,0.1-0.2,0.3-0.2,0.4c-0.8,0.4-6.1,3.2-4.1,8.9
				c-0.2,0-0.3,0-0.4,0c-3.7-0.5-5.7-7.2-6.3-9.2c-0.7-2.8,0.3-6.4,2.4-8.1c1.4-1.2,3.2-1.4,5.2-0.6c3.5,1.4,4.7,4,4.9,6.1
				C55.2,70.1,54.6,71,54,72.1z M55.9,80.7c0.4,0.4,0.8,0.9,1.2,1.7c0.6,1.2,0.6,1.8,0.4,2c-0.5,0.3-1.9-0.2-2.5-1.1
				c-1.1-1.9-2.1-2-3.5-1.9c-0.1,0-0.3,0-0.4,0c-2-4.8,1.8-7.1,2.8-7.6c0.1,0.3,0.2,0.6,0.4,0.8c0.3,0.5,0.6,1,0.5,1.7
				C54.5,79.2,54.9,79.8,55.9,80.7z"/>
			<path d="M53.8,91.3l-1.2,0.3c0.2,0.6,0.8,1.2,1.6,1.6c0.7,0.3,1.3,0.4,1.9,0.4c0.4,0,0.9-0.1,1.3-0.2l-0.5-1.1
				c-0.6,0.2-1.3,0.2-2.1-0.1C54.2,91.9,53.9,91.6,53.8,91.3z"/>
		</g>
		<g>
			<path class="st2_13x" d="M89.6,148.5c0,0-73.8,0.1-74.1-0.2l-0.3-0.3l0.2-0.3c11-23.3,2.2-44.7-5.5-61.5c-2-4.4-3.9-8.5-5.2-12.3
				C-2.6,52.1,3.6,36.3,10.2,27C20.4,12.5,37.6,4.2,49.3,3.5c1.1,0,2.4-0.2,3.9-0.3c3.6-0.3,8.4-0.8,13.8-0.8
				c13.3,0,23.9,2.8,32,8.8c6.1,4.5,11.4,10.6,14.9,17c5.8,10.6,7.6,21.4,7.5,23.1c-0.1,1.9-0.5,3.5-1,5c-0.9,2.9-1.6,5.3,1,9
				c0.3,0.5,0.8,1.1,1.5,2c3.7,4.9,11.8,15,10.1,20.2c-0.4,1.4-1.4,2.4-3,2.9c-3.5,1.2-5.8,2.2-6.2,3.2c-0.3,0.8,0.4,2,1.5,3.8
				c0.2,0.4,0.5,0.8,0.7,1.2c2.1,3.7-1.1,7.2-3.1,8.6c0,0.1,0.2,0.6,0.4,0.9c0.4,0.8,1,1.9,0.6,3.1c-0.4,1-1.3,1.8-2.9,2.5
				c-0.7,0.3-0.1,2.9,0.3,4.4c0.3,1.1,0.5,2.1,0.6,3c1,11.4-7.6,12.3-14,12.9c-1.8,0.2-4,0.3-6.3,0.3c-5.2,0.1-11.8,0.2-12,2.5
				c-0.4,3.6,0.6,11.7,0.6,11.7H89.6z"/>
		</g>
		<g>
			<path d="M124,92.6c0.4-0.3-1.6-1.4-1.1-2.2c0.5-0.7,2.4-0.7,2.2,1.2c0,0.5,1.4-0.6,1.4-0.6c-0.3-3.9-6-3.1-6.1-0.6
				C120.3,92.3,123.3,93.2,124,92.6z"/>
			<path d="M116.3,90.4c1.2,3.5,6.6,4.9,7,4.9v-1.2c-0.5-0.1-4.9-1.4-5.8-4.1c-0.6-1.8,1.7-3.7,1.7-3.7l-0.8-0.9
				C118.3,85.5,115.4,87.8,116.3,90.4z"/>
		</g>
		<path d="M113.9,108c0,1.4,6.7,5.5,7,5.7l0.6-1c-1.8-1-4.4-2.9-5.6-4c1.1-0.1,3.1-0.2,6.9-0.3l-0.1-1.2c-1.4,0-3.2,0.1-4.7,0.2
			c0.2-0.1,0.4-0.1,0.6-0.2c4.4-1.7,8.1-5.2,8.2-5.4l-0.9-0.8c0,0-3.7,3.5-7.9,5.1c-1.1,0.4-1.9,0.6-2.5,0.7
			C114.7,107,114,107.1,113.9,108z"/>
		<g>
			<path d="M98.1,54.1l0.4,1.1c1.8-0.7,3.4-1.5,4.9-2.3c3.8-2,7-3.7,12.3-2.5c0.6,0.1,1.1,0.4,1.3,0.8c0.5,0.8,0.2,2,0.2,2l1.2,0.3
				c0-0.1,0.5-1.7-0.3-2.9c-0.4-0.7-1.1-1.2-2.1-1.4c-5.7-1.2-9.3,0.7-13.1,2.7C101.4,52.7,99.9,53.5,98.1,54.1z"/>
			<path d="M112.6,57.2c-2.3,0.8-10.3,3.7-10.3,3.7l0.4,1.1c0,0,8.1-2.9,10.3-3.7c1.6-0.6,2.2,0.6,2.3,0.8l1.1-0.4
				C116,57.8,114.8,56.4,112.6,57.2z"/>
			<path d="M104,64.1c-0.2,0.2-0.2,0.5-0.1,0.8c0.5,0.9,4.3,3.1,6.9,3.8c0.3,0.1,0.6,0.2,1,0.2c0.1,0,0.2,0,0.3,0h0.1l0,0
				c0.1,0,0.2-0.1,0.3-0.1c0.7-0.2,1.3-0.7,1.7-1.5c0.2-0.4,0.4-0.9,0.5-1.4c0.4-0.4,0.6-0.9,0.6-1.5s-0.3-1.1-0.7-1.5
				c0-0.3-0.1-0.5-0.2-0.7c-0.2-0.5-0.5-0.9-1-1.1l0,0c0-0.1-0.1-0.1-0.2-0.1c-0.3,0-0.5-0.1-0.8-0.1c-0.1,0-0.2,0-0.3,0
				C109.7,60.8,105.7,61.8,104,64.1z M112.3,67.7L112.3,67.7c-0.4,0-0.8-0.1-1.1-0.3c-0.1,0-0.1,0-0.2-0.1c-0.5-0.6-0.7-1.8-0.5-3.1
				c0.1-1.4,1-2.2,1.9-2.2c0.2,0.1,0.3,0.1,0.4,0.1c0.2,0.1,0.3,0.2,0.4,0.3c-0.8,0.2-1.5,1-1.5,2c0,1.1,0.8,1.9,1.7,2
				c-0.1,0.1-0.1,0.3-0.2,0.4C112.9,67.3,112.6,67.6,112.3,67.7C112.2,67.7,112.2,67.7,112.3,67.7z M105.2,64.4
				c1.1-1.2,2.9-1.9,4.6-2.2c-0.3,0.5-0.6,1-0.7,1.7c-0.1,1.1,0,2.1,0.2,2.9C107.5,66.1,105.7,65,105.2,64.4z"/>
		</g>
	</g>
</g>
</svg>
