<svg xmlns="http://www.w3.org/2000/svg" viewBox="0 0 512 512"><path d="M425.71,70.86H379.43V20.71A11.57,11.57,0,0,0,367.86,9.14h-7.72a11.57,11.57,0,0,0-11.57,11.57V70.86H163.43V20.71A11.57,11.57,0,0,0,151.86,9.14h-7.72a11.57,11.57,0,0,0-11.57,11.57V70.86H86.29A46.28,46.28,0,0,0,40,117.14V456.57a46.29,46.29,0,0,0,46.29,46.29H425.71A46.29,46.29,0,0,0,472,456.57V117.14A46.28,46.28,0,0,0,425.71,70.86Zm15.43,385.71A15.43,15.43,0,0,1,425.71,472H86.29a15.43,15.43,0,0,1-15.43-15.43V194.29H441.14Zm0-293.14H70.86V117.14a15.43,15.43,0,0,1,15.43-15.43H425.71a15.43,15.43,0,0,1,15.43,15.43Z" /><path d="M256,215.5A117.65,117.65,0,1,0,373.64,333.14,117.64,117.64,0,0,0,256,215.5Zm66,183.69a93.4,93.4,0,1,1,27.4-66.05A93.22,93.22,0,0,1,322,399.19Z" /><path d="M301.8,369.79,298,375a10.33,10.33,0,0,1-14.36,2.26l-37-26.84a10.4,10.4,0,0,1-4.21-8.31V269.44a10.29,10.29,0,0,1,10.36-10.22h6.36A10.3,10.3,0,0,1,269.5,269.5v64.06l30.06,21.89a10.14,10.14,0,0,1,4.1,6.71A10.33,10.33,0,0,1,301.8,369.79Z" /></svg>