<svg aria-hidden="true" focusable="false" data-prefix="fal" data-icon="pause-notify" role="img" xmlns="http://www.w3.org/2000/svg" viewBox="0 0 490 260"><path d="M86.35,2H27.85a25,25,0,0,0-25,25V233a25,25,0,0,0,25,25h58.5a25,25,0,0,0,25-25V27A25,25,0,0,0,86.35,2Zm5,231a5,5,0,0,1-5,5H27.85a5,5,0,0,1-5-5V27a5,5,0,0,1,5-5h58.5a5,5,0,0,1,5,5Z" transform="translate(-2.85 -2)"/><path d="M233.85,2h-58.5a25,25,0,0,0-25,25V233a25,25,0,0,0,25,25h58.5a25,25,0,0,0,25-25V27A25,25,0,0,0,233.85,2Zm5,231a5,5,0,0,1-5,5h-58.5a5,5,0,0,1-5-5V27a5,5,0,0,1,5-5h58.5a5,5,0,0,1,5,5Z" transform="translate(-2.85 -2)"/><path d="M485.81,205.07l-24.05-37.4v-48c0-2.56-.12-5.08-.34-7.58a53.79,53.79,0,0,0-55.73-91.68,32.72,32.72,0,0,0-62.14,14.34V39.9a86.47,86.47,0,0,0-52.76,79.75v48l-24.05,37.4a8.46,8.46,0,0,0,7.12,13h63.59A39.86,39.86,0,0,0,376,248h.57a39.86,39.86,0,0,0,38.54-29.91h63.59a8.46,8.46,0,0,0,7.12-13ZM399.34,54.3a34,34,0,0,1,11.37-13.65A33.8,33.8,0,0,1,456.4,89.58a33.81,33.81,0,0,1-60.12-21.24A33.62,33.62,0,0,1,399.34,54.3ZM360.48,34.73a15.79,15.79,0,0,1,31.09-3.92q-1.6,1.64-3.06,3.4a84.81,84.81,0,0,0-28,.59Zm16.08,196.36H376a22.88,22.88,0,0,1-20.6-13h41.77A22.88,22.88,0,0,1,376.56,231.09Zm-87.2-29.9,17-26.46a8.48,8.48,0,0,0,1.35-4.58v-50.5c0-38.27,30.75-69.41,68.56-69.41,1,0,2.07,0,3.11.08a53.81,53.81,0,0,0,65.44,69.78v50.05a8.48,8.48,0,0,0,1.35,4.58l17,26.46Z" transform="translate(-2.85 -2)"/></svg>