<svg xmlns="http://www.w3.org/2000/svg" viewBox="0 0 426.22 512"><title>refer</title><path d="M224,0A128,128,0,1,0,352,128,128,128,0,0,0,224,0Zm0,224a96,96,0,1,1,96-96A96.15,96.15,0,0,1,224,224Zm89.6,64c-28.7,0-42.5,16-89.6,16s-60.8-16-89.6-16A134.43,134.43,0,0,0,0,422.4V464a48,48,0,0,0,48,48H194.85V480H48a16,16,0,0,1-16-16V422.4A102.47,102.47,0,0,1,134.4,320c19.6,0,39.1,16,89.6,16s70-16,89.6-16a102.36,102.36,0,0,1,20.86,2.13l18-28.42A134.53,134.53,0,0,0,313.6,288Z"/><line x1="352.48" y1="293.71" x2="334.46" y2="322.13" style="fill:none"/><line x1="194.85" y1="512" x2="194.85" y2="480" style="fill:none"/><path d="M412.7,346l-34.88-34.48a17.52,17.52,0,1,0-24.64,24.92L377,360H269.24a74.49,74.49,0,0,0-52.85,126.81,73.14,73.14,0,0,0,52.39,21.84,17.53,17.53,0,1,0,0-35.05c-21.4,0-38.81-17.62-38.81-39.27A39.32,39.32,0,0,1,269.24,395H378.71l-25.57,25.43a17.53,17.53,0,0,0,24.72,24.85l34.93-34.74A45.43,45.43,0,0,0,412.7,346Z"/></svg>