<svg xmlns="http://www.w3.org/2000/svg" viewBox="0 0 461.65 462.21"><title>room</title><path d="M153.35,145.93V194.1h25.78V173.71H288.89V209.9H270v27.77h44V145.93Z" style="fill:#231f20"/><path d="M253.55,41.06V89.23h25.78V68.84H389.09V105H370.2V132.8h44V41.06Z" style="fill:#231f20"/><path d="M218.31,0,0,218.33V461.86l251.75.35V209.9l-204.5,0,77-77H329.13V329.14H265.25V357h90.92V105.06H152.06L229.82,27.3H434.31V224.14H369.55v27.68h92.1V0Zm5.36,237.67V435.19H27.11V237.67Z" style="fill:#231f20"/><path d="M50.68,248.6v91.74H211.33V248.6Zm135.55,64H76.47V276.38H186.23Z" style="fill:#231f20"/></svg>