<svg id="Capa_1" enable-background="new 0 0 510 510" height="512" viewBox="0 0 510 510" width="512" xmlns="http://www.w3.org/2000/svg"><g><path d="m495 160h-170.786c56.566-60.197 14.075-160-69.214-160-83.273 0-125.788 99.795-69.214 160h-170.786c-8.284 0-15 6.716-15 15v320c0 8.284 6.716 15 15 15h480c8.284 0 15-6.716 15-15v-320c0-8.284-6.716-15-15-15zm-240-130c35.841 0 65 29.159 65 65s-29.159 65-65 65-65-29.159-65-65 29.159-65 65-65zm225 450h-450v-290h107.155c-10.523 12.233-17.918 27.354-21.183 43.675-24.843 124.191-15.562 73.624-35.768 194.859-1.362 8.171 4.158 15.9 12.33 17.262 8.171 1.361 15.9-4.158 17.262-12.33 20.096-120.575 12.031-76.117 35.593-193.906 6.084-30.417 30.921-49.56 54.101-49.56h40.51v66h-11.754c-5.665 0-10.808-2.532-13.104-6.45-4.188-7.147-13.378-9.548-20.525-5.358-7.147 4.188-9.546 13.377-5.358 20.525 7.692 13.128 22.631 21.283 38.987 21.283h11.754v50h-23.645c-9.515 0-18.802-7.989-23.661-20.353-3.03-7.711-11.738-11.506-19.447-8.474-7.71 3.03-11.504 11.736-8.474 19.447 9.545 24.291 29.311 39.38 51.582 39.38h23.645v50h-29.59c-12.905 0-24.482-6.589-30.213-17.195-3.938-7.288-13.04-10.005-20.327-6.066-7.289 3.938-10.004 13.039-6.066 20.327 10.976 20.314 32.666 32.934 56.606 32.934h89.181c23.939 0 45.629-12.62 56.606-32.934 3.938-7.288 1.222-16.389-6.066-20.327s-16.39-1.222-20.327 6.066c-5.732 10.606-17.308 17.195-30.213 17.195h-29.591v-50h23.646c22.271 0 42.036-15.089 51.582-39.38 3.03-7.71-.764-16.417-8.474-19.447-7.708-3.031-16.417.763-19.447 8.474-4.86 12.364-14.147 20.353-23.661 20.353h-23.646v-50h11.754c16.355 0 31.294-8.155 38.987-21.283 4.188-7.147 1.79-16.337-5.357-20.525-7.148-4.189-16.337-1.79-20.525 5.357-2.296 3.918-7.44 6.451-13.104 6.451h-11.755v-66h40.51c23.171 0 48.017 19.14 54.102 49.56 23.56 117.78 15.495 73.323 35.593 193.906 1.223 7.337 7.578 12.537 14.778 12.537 9.311 0 16.333-8.352 14.814-17.468-20.197-121.183-10.91-70.597-35.768-194.858-3.265-16.322-10.66-31.443-21.183-43.676h107.154z"/></g></svg>