<svg xmlns="http://www.w3.org/2000/svg" viewBox="0 0 42.8 48.52"><title>logo</title><path d="M30.9,7.11l-1.77,10.8H28.7a12.63,12.63,0,0,0-2.16.12L28.4,6.71a3.88,3.88,0,0,0-2.8-4.2c-.4-.1-3.1-.4-4,3-.9,4.2-1.9,10.3-1.9,10.4-.2,1.7-1.4,5.1-4.7,5-2.9-.1-7.9.1-8,.1H6.8c-.4,0-3.9-.1-4.5,3.4.1,3,3.6,3.5,4.1,3.6h8.09a20,20,0,0,0-.59,2.1l-.09.5H6.4c-2.2-.2-6.4-1.8-6.4-6.1v-.2c.6-4.8,4.9-5.8,7-5.7.6,0,5.2-.1,8.1-.1,1.8.1,2.1-2.8,2.2-2.9,0-.3,1-6.4,1.9-10.7,1.3-4.7,5.2-5.2,7-4.8A6.4,6.4,0,0,1,30.9,7.11Z" transform="translate(0 0)" style="fill:#b9d86f"/><path d="M36.4,17.91H28.7a12.63,12.63,0,0,0-2.16.12,14.18,14.18,0,0,0-12,10,20,20,0,0,0-.59,2.1l-.09.5L11.9,41.41a6.4,6.4,0,0,0,4.7,7,3.07,3.07,0,0,0,1,.1,6.12,6.12,0,0,0,6-4.9c.9-4.3,1.9-10.4,1.9-10.7,0-.1.4-3,2.2-2.9,2.9,0,7.5-.1,8-.1,2.3.1,6.5-.9,7.1-5.7V24C42.9,19.71,38.6,18.11,36.4,17.91Zm-.5,9.6h-.2s-4.9.1-8,.1c-3.3-.1-4.5,3.3-4.7,5,0,.1-1,6.2-1.9,10.4-.9,3.4-3.6,3.1-4,3a3.88,3.88,0,0,1-2.8-4.2l2-11.1c2.5-10.8,11.8-10.3,12.4-10.2h7.6c.5.1,4,.6,4.1,3.6C39.8,27.61,36.3,27.51,35.9,27.51Z" transform="translate(0 0)" style="fill:#fff"/></svg>