<svg xmlns="http://www.w3.org/2000/svg" viewBox="0 0 448 448"><title>emr-orders</title><rect width="448" height="448" style="fill:#fff;fill-opacity:0;opacity:0"/><circle cx="154.47" cy="233.9" r="16.86"/><rect x="200.19" y="223.99" width="103.25" height="19.81" rx="2.95"/><circle cx="154.47" cy="182.44" r="16.86"/><rect x="200.19" y="172.53" width="103.25" height="19.81" rx="2.95"/><circle cx="154.47" cy="336.81" r="16.86"/><rect x="200.19" y="326.9" width="103.25" height="19.81" rx="2.95"/><circle cx="154.47" cy="285.36" r="16.86"/><rect x="200.19" y="275.45" width="103.25" height="19.81" rx="2.95"/><path d="M351.45,57.14H268.28l.73-4.69a43.69,43.69,0,0,0,.48-6.46,45.5,45.5,0,0,0-91,0,43.69,43.69,0,0,0,.48,6.46l.73,4.69H96.55A38.45,38.45,0,0,0,58.14,95.55V407.09A38.45,38.45,0,0,0,96.55,445.5h254.9a38.45,38.45,0,0,0,38.41-38.41V95.55A38.45,38.45,0,0,0,351.45,57.14ZM224,20.68A25.31,25.31,0,1,1,198.69,46,25.31,25.31,0,0,1,224,20.68ZM369.68,407.09a18.25,18.25,0,0,1-18.23,18.23H96.55a18.25,18.25,0,0,1-18.23-18.23V95.55A18.25,18.25,0,0,1,96.55,77.32h46.56V99.09a6.56,6.56,0,0,0,6.55,6.55H298.34a6.56,6.56,0,0,0,6.55-6.55V77.32h46.56a18.25,18.25,0,0,1,18.23,18.23Z"/></svg>