<svg xmlns="http://www.w3.org/2000/svg" viewBox="0 0 50 50"><title>front-desk-dashboard</title><path d="M25,0a6,6,0,1,0,6,6A6,6,0,0,0,25,0Zm0,2a4,4,0,1,1-4,4A4,4,0,0,1,25,2ZM22,13a7,7,0,0,0-7,7v3h2V20a5,5,0,0,1,5-5h6a5,5,0,0,1,5,5v3h2V20a7,7,0,0,0-7-7Zm20,6v1h2V19Zm1,1a5,5,0,0,0-4.91,4H.91A1,1,0,0,0,0,25v4a1,1,0,0,0,1,1H2V49a1,1,0,0,0,1,1H47a1,1,0,0,0,1-1V30h1a1,1,0,0,0,1-1V25a1,1,0,0,0-1-1H47.91A5,5,0,0,0,43,20Zm0,2a3,3,0,0,1,2.81,2H40.19A3,3,0,0,1,43,22ZM2,26H48v2H3.19a.94.94,0,0,0-.41,0H2Zm2,4H46V48H4Z" transform="translate(0)"/><path d="M19.59,37.43a1.1,1.1,0,0,0,.76-.31l.13-.12.15.08,1.34.67.16.07,0,.18c0,.07,0,.1,0,.13a1.11,1.11,0,1,0,2.21,0,1.15,1.15,0,0,0-.11-.47l-.08-.16.13-.12,1.81-1.82.12-.12.16.08a1.19,1.19,0,0,0,.47.11,1.11,1.11,0,0,0,1.11-1.11,1,1,0,0,0-.06-.32L27.8,34l.14-.11,1.57-1.18.15-.1.14.09a1.07,1.07,0,0,0,.61.19,1.11,1.11,0,1,0-1.1-1.1,1,1,0,0,0,.06.32l.05.17-.14.11L27.7,33.6l-.14.1-.15-.09a1,1,0,0,0-.61-.19,1.11,1.11,0,0,0-1.1,1.1,1.2,1.2,0,0,0,.11.48l.08.16-.13.12L24,37.09l-.12.13-.16-.08A1.19,1.19,0,0,0,23.2,37a1.11,1.11,0,0,0-.77.31l-.13.12-.15-.08-1.34-.66-.16-.08,0-.18c0-.07,0-.1,0-.13a1.11,1.11,0,1,0-1.1,1.1Z" transform="translate(0)"/><path d="M32.25,45.21h-.73V35.43a.21.21,0,0,0-.2-.21H29.51a.21.21,0,0,0-.2.21v9.78h-1.4V38.13a.2.2,0,0,0-.2-.2H25.9a.2.2,0,0,0-.2.2v7.08H24.3V41.74a.2.2,0,0,0-.2-.2H22.29a.2.2,0,0,0-.2.2v3.47h-1.4V39.94a.2.2,0,0,0-.2-.2H18.68a.2.2,0,0,0-.2.2v5.27h-.73a.2.2,0,1,0,0,.4h14.5a.2.2,0,1,0,0-.4Z" transform="translate(0)"/></svg>