<svg xmlns="http://www.w3.org/2000/svg" viewBox="0 0 448 512"><title>holiday</title><path d="M213.84,105.15C189.07,81,174.76,85.44,173.12,86.06l-.49.19h0c-19.17,7-28.23,55.06-18.73,98.44l93.55-31.33C239.26,135.53,227.11,118.06,213.84,105.15Z" style="fill:none"/><path d="M276.05,143.76l54.32-18.18C305.92,94,269.65,76.87,227.5,76.87h0C246.91,93.41,264.76,117.93,276.05,143.76Z" style="fill:none"/><polygon points="135 401.65 119.48 449.88 278.72 449.88 262.59 401.65 135 401.65" style="fill:none"/><polygon points="294.3 401.65 310.43 449.88 382.2 449.88 358.12 401.65 294.3 401.65" style="fill:none"/><path d="M123.87,111.55c-33.69,25.39-52.38,61-53,100.91l54.33-18.2C118.74,166.81,118.27,136.46,123.87,111.55Z" style="fill:none"/><path d="M0,0V512H448V0ZM432.47,480H15.53a15.06,15.06,0,0,1,0-30.12H87.89l18.49-57.48L6.62,320.46A15.05,15.05,0,0,1,24.19,296l104.7,75.51H252.51L195.92,202.35,61.79,247.26a15,15,0,0,1-19.68-12.4c-9.3-74,32.74-141.32,107.23-172l-3.66-11a15,15,0,1,1,28.51-9.55l3.66,11c78-20.31,152,8.16,189,72.87a15.06,15.06,0,0,1-8.28,21.77L224.43,192.8l59.79,178.73h83.19a15,15,0,0,1,13.45,8.32l34.95,70h16.66a15.06,15.06,0,0,1,0,30.12Z" style="fill:#fff;opacity:0"/><path d="M432.47,449.88H415.81l-34.95-70a15,15,0,0,0-13.45-8.32H284.22L224.43,192.8l134.11-44.9a15.06,15.06,0,0,0,8.28-21.77c-37-64.71-111-93.18-189-72.87l-3.66-11a15,15,0,1,0-28.51,9.55l3.66,11C74.85,93.54,32.81,160.88,42.11,234.86a15,15,0,0,0,19.68,12.4l134.13-44.91,56.59,169.18H128.89L24.19,296A15.05,15.05,0,0,0,6.62,320.46l99.76,71.94L87.89,449.88H15.53a15.06,15.06,0,0,0,0,30.12H432.47a15.06,15.06,0,0,0,0-30.12ZM70.9,212.46c.59-40,19.28-75.52,53-100.91-5.6,24.91-5.13,55.26,1.36,82.71ZM227.5,76.87c42.15,0,78.42,17.15,102.87,48.71l-54.32,18.18c-11.29-25.83-29.14-50.35-48.58-66.89ZM153.86,184.68c-9.5-43.38-.44-91.44,18.73-98.44h0l.49-.19c1.64-.62,15.95-5,40.72,19.09,13.27,12.91,25.42,30.38,33.57,48.2Zm-34.38,265.2L135,401.65H262.59l16.13,48.23Zm191,0L294.3,401.65h63.82l24.08,48.23Z"/></svg>