<svg xmlns="http://www.w3.org/2000/svg" viewBox="0 0 448 512"><title>manage-calender</title><path d="M400,64H352V12A12,12,0,0,0,340,0h-8a12,12,0,0,0-12,12V64H128V12A12,12,0,0,0,116,0h-8A12,12,0,0,0,96,12V64H48A48,48,0,0,0,0,112V464a48,48,0,0,0,48,48H400a48,48,0,0,0,48-48h0V112A48,48,0,0,0,400,64Zm16,400a16,16,0,0,1-16,16H48a16,16,0,0,1-16-16V192H416Zm0-304H32V112A16,16,0,0,1,48,96H400a16,16,0,0,1,16,16Z"/><path d="M230,287.47A48.48,48.48,0,1,0,278.47,336h0A48.55,48.55,0,0,0,230,287.47Zm0,72.9a24.43,24.43,0,1,1,24.42-24.44h0A24.48,24.48,0,0,1,230,360.37Z"/><path d="M341.43,352.7,329,345.56a103.05,103.05,0,0,0,0-19.24l12.48-7.14a17.29,17.29,0,0,0,7.89-20.29,124.51,124.51,0,0,0-27.58-47.72,17.39,17.39,0,0,0-21.65-3.31L287.77,255a96.7,96.7,0,0,0-16.68-9.62V231.1A17.42,17.42,0,0,0,257.41,214a126.41,126.41,0,0,0-55.09,0,17.45,17.45,0,0,0-13.68,17.06v14.28A93.93,93.93,0,0,0,172,255l-12.4-7.14a17.29,17.29,0,0,0-21.6,3.31,125.37,125.37,0,0,0-27.58,47.65,17.56,17.56,0,0,0,8,20.44l12.4,7.14a103.05,103.05,0,0,0,0,19.24l-12.47,7.14a17.6,17.6,0,0,0-7.89,20.36A125.33,125.33,0,0,0,138,420.87a17.56,17.56,0,0,0,21.64,3.3L172,417a97.44,97.44,0,0,0,16.69,9.62V440.9A17.37,17.37,0,0,0,202.4,458a127.23,127.23,0,0,0,55,0,17.45,17.45,0,0,0,13.68-17.06V426.65A96.93,96.93,0,0,0,287.77,417l12.4,7.14a17.49,17.49,0,0,0,21.57-3.3,125.7,125.7,0,0,0,27.58-47.65A17.52,17.52,0,0,0,341.43,352.7Zm-38.78,5.41,22.1,12.78a101.13,101.13,0,0,1-17.14,29.69L285.52,387.8c-16.09,13.75-18.42,15.11-38.41,22.17v25.55a100.6,100.6,0,0,1-34.27,0V410c-20.21-7.14-22.69-8.79-38.4-22.17l-22.1,12.78a100.53,100.53,0,0,1-17.13-29.69l22.09-12.78c-3.68-20.14-3.9-23,0-44.34L135.21,301a100.53,100.53,0,0,1,17.13-29.69l22.1,12.78c16.08-13.76,18.41-15.11,38.4-22.17V236.36a105.37,105.37,0,0,1,34.27,0v25.56c20.14,7.14,22.7,8.71,38.41,22.17l22.09-12.78A100.22,100.22,0,0,1,324.75,301l-22.1,12.77c3.68,20.14,3.91,23,0,44.34Z"/></svg>