<svg xmlns="http://www.w3.org/2000/svg" viewBox="0 0 384 512.1"><title>pdf</title><path d="M369.9,97.9,286,14A48,48,0,0,0,252.1-.1H48A48.16,48.16,0,0,0,0,48V464a48,48,0,0,0,48,48H336a48,48,0,0,0,48-48V131.9A48.23,48.23,0,0,0,369.9,97.9Zm-22.6,22.7a15.73,15.73,0,0,1,4.2,7.4H256V32.5a15.73,15.73,0,0,1,7.4,4.2ZM336,480H48a16,16,0,0,1-16-16V48A16,16,0,0,1,48,32H224V136a23.94,23.94,0,0,0,24,24H352V464A16,16,0,0,1,336,480ZM314,308.8c-13.5-13.3-55-9.2-73.7-6.7-21.2-12.8-35.2-30.4-45.1-56.6,4.3-18,12-47.2,6.4-64.9-4.4-28.1-39.7-24.7-44.6-6.8-5,18.3-.3,44.4,8.4,77.8-11.9,28.4-29.7,66.9-42.1,88.6-20.8,10.7-54.1,29.3-58.8,52.4C61,409.4,87.4,432,117.6,399c9.1-9.9,19.3-24.8,31.3-45.5,26.7-8.8,56.1-19.8,82-24,21.9,12,47.6,19.9,64.6,19.9,27.7.1,28.9-30.2,18.5-40.6Zm-229.2,89c5.9-15.9,28.6-34.4,35.5-40.8C98.2,392.3,84.8,398.5,84.8,397.8ZM180,175.5c8.7,0,7.8,37.5,2.1,47.6C176.9,206.8,177.1,175.5,180,175.5ZM151.6,334.8c11.3-19.8,21-43.2,28.8-63.7,9.7,17.7,22.1,31.7,35.1,41.5C191.2,317.3,170.1,327.7,151.6,334.8ZM305,328.9s-5.8,7-43.5-9.1C302.5,316.8,309.2,326.2,305,328.9Z" transform="translate(0 0.1)"/></svg>