<svg xmlns="http://www.w3.org/2000/svg" viewBox="0 0 448 512"><path d="M433.94,65.94,382.06,14.06A48,48,0,0,0,348.12,0H176a48,48,0,0,0-48,48V96H48A48,48,0,0,0,0,144V464a48,48,0,0,0,48,48H272a48,48,0,0,0,48-48V416h80a48,48,0,0,0,48-48V99.88A48,48,0,0,0,433.94,65.94ZM352,32.49a16,16,0,0,1,7.43,4.2l51.88,51.88a16,16,0,0,1,4.2,7.43H352ZM288,464a16,16,0,0,1-16,16H48a16,16,0,0,1-16-16V144a16,16,0,0,1,16-16h80V252H63.67c-7,0-12.72,5.4-12.72,12v8c0,6.6,5.72,12,12.72,12H128v18H63a12,12,0,0,0-11.58,8.87c-.13.43-.24.86-.33,1.31a11.6,11.6,0,0,0-.12,1.17v9.24a11.6,11.6,0,0,0,.12,1.17,1.9,1.9,0,0,0,.06.33A12,12,0,0,0,63,334h65v18H63.67c-7,0-12.72,5.4-12.72,12v8c0,6.6,5.72,12,12.72,12h67A48,48,0,0,0,176,416H288Zm128-96a16,16,0,0,1-16,16H176a16,16,0,0,1-16-16V48a16,16,0,0,1,16-16H320v72a24.07,24.07,0,0,0,24,24h72Z"/><rect x="179" y="156" width="192" height="32" rx="12" ry="12"/><rect x="179" y="206" width="192" height="32" rx="12" ry="12"/><rect x="179" y="256" width="192" height="32" rx="12" ry="12"/></svg>