<svg xmlns="http://www.w3.org/2000/svg" viewBox="0 0 448 512"><title>appointment-status</title><path d="M400,64H352V8a8,8,0,0,0-8-8H328a8,8,0,0,0-8,8V64H128V8a8,8,0,0,0-8-8H104a8,8,0,0,0-8,8V64H48A48,48,0,0,0,0,112V464a48,48,0,0,0,48,48H400a48,48,0,0,0,48-48V112A48,48,0,0,0,400,64Zm16,400a16,16,0,0,1-16,16H48a16,16,0,0,1-16-16V192H416Zm0-304H32V112A16,16,0,0,1,48,96H400a16,16,0,0,1,16,16Z"/><path d="M270.05,413.13l-3.11,12.72q-14,5.53-22.35,8.42a58.8,58.8,0,0,1-19.38,2.9q-17,0-26.37-8.27a26.77,26.77,0,0,1-9.41-21,73.19,73.19,0,0,1,.71-10.11c.47-3.45,1.23-7.33,2.27-11.67l11.67-41.3q1.56-5.94,2.63-11.25a49.34,49.34,0,0,0,1.06-9.68c0-5.27-1.09-9-3.27-11s-6.32-3.12-12.48-3.12a32.86,32.86,0,0,0-9.28,1.42c-3.17.94-5.89,1.85-8.16,2.69l3.12-12.73q11.46-4.68,21.94-8a65.55,65.55,0,0,1,19.84-3.33q16.85,0,26,8.14t9.12,21.14c0,1.8-.19,5-.62,9.48A63.16,63.16,0,0,1,251.61,341L240,382.13a109,109,0,0,0-2.55,11.33,58.36,58.36,0,0,0-1.14,9.62q0,8.19,3.66,11.17t12.71,3a36.44,36.44,0,0,0,9.61-1.49A54.2,54.2,0,0,0,270.05,413.13ZM273,240.42a24.06,24.06,0,0,1-8.13,18.32,27.63,27.63,0,0,1-19.57,7.58,27.92,27.92,0,0,1-19.67-7.58,24,24,0,0,1-8.21-18.32A24.26,24.26,0,0,1,225.63,222a29,29,0,0,1,39.24,0A24.32,24.32,0,0,1,273,240.42Z"/></svg>