<svg xmlns="http://www.w3.org/2000/svg" viewBox="0 0 493.37 493.44"><title>event-communication</title><path d="M455.7,43.87c-.23-.13-.45-.25-.67-.35-.44-.23-.88-.44-1.34-.65s-1-.41-1.38-.59-1-.36-1.42-.52-1-.31-1.44-.45c-.25-.08-.49-.14-.74-.2-.49-.13-1-.25-1.49-.35a30.26,30.26,0,0,0-6.22-.64H71A30.93,30.93,0,0,0,40.16,71V348.52A30.93,30.93,0,0,0,71,379.36H194.31V452.6l89.5-67.07,8.19-6.17H441a30.93,30.93,0,0,0,30.84-30.84L471.91,71A30.89,30.89,0,0,0,455.7,43.87ZM367,148.93,232.87,283.11a17,17,0,0,1-24,0L145,219.23a17,17,0,1,1,24-24l51.85,51.85,2.12-2.12,120-120a17,17,0,1,1,24,24Z" transform="translate(-9.31 -9.28)" style="fill:none"/><path d="M441,9.28H71A61.74,61.74,0,0,0,9.31,71V348.52A61.73,61.73,0,0,0,71,410.2h92.52v80.95A11.54,11.54,0,0,0,175,502.72h.06a11.06,11.06,0,0,0,6.84-2.32l120.38-90.2H441a61.74,61.74,0,0,0,61.68-61.68V71A61.73,61.73,0,0,0,441,9.28Zm30.84,339.24A30.93,30.93,0,0,1,441,379.36H292l-8.19,6.17-89.5,67.07V379.36H71a30.93,30.93,0,0,1-30.84-30.84V71A30.93,30.93,0,0,1,71,40.12H441a30.26,30.26,0,0,1,6.22.64c.5.1,1,.22,1.49.35.25.06.49.12.74.2.48.14,1,.29,1.44.45s1,.34,1.42.52.92.38,1.38.59.9.42,1.34.65c.22.1.44.22.67.35A30.89,30.89,0,0,1,471.91,71Z" transform="translate(-9.31 -9.28)"/><path d="M355,119.91a16.89,16.89,0,0,0-12,5l-120,120-2.12,2.12L169,195.2a17,17,0,1,0-24,24l63.87,63.88a17,17,0,0,0,24,0L367,148.93a17,17,0,0,0-12-29Z" transform="translate(-9.31 -9.28)"/></svg>