<svg xmlns="http://www.w3.org/2000/svg" viewBox="0 0 512 512"><title>expand</title><path d="M335.08,207.09,469.33,72.84V128A21.34,21.34,0,0,0,512,128V21.33c0-.7,0-1.4-.11-2.1,0-.32-.09-.62-.13-.94s-.1-.75-.17-1.13-.17-.7-.26-1.05-.15-.65-.25-1-.23-.68-.35-1-.22-.65-.35-1-.29-.62-.43-.92-.3-.65-.47-1-.34-.58-.51-.86-.36-.63-.56-.93-.45-.62-.68-.92-.36-.51-.57-.76a18.65,18.65,0,0,0-1.4-1.55h0a20.73,20.73,0,0,0-1.55-1.41c-.25-.2-.51-.37-.76-.56s-.6-.47-.92-.68-.62-.38-.93-.56-.56-.35-.86-.51-.64-.31-1-.47-.61-.3-.92-.43-.64-.23-1-.35-.67-.25-1-.35-.65-.17-1-.25-.7-.19-1.05-.26-.76-.12-1.13-.17L492.77.1c-.7-.06-1.4-.1-2.1-.1H384a21.34,21.34,0,0,0,0,42.67h55.16L304.92,176.91a21.33,21.33,0,0,0,30.16,30.18Z"/><path d="M176.91,304.92,42.67,439.16V384A21.34,21.34,0,0,0,0,384V490.67c0,.7,0,1.4.11,2.1,0,.32.09.62.13.94s.1.75.17,1.13.17.7.26,1.05.15.65.25,1,.23.68.35,1,.23.64.36,1,.28.62.42.92.3.65.47,1,.34.57.51.86.36.63.56.93.45.61.68.92.36.51.57.76a20.6,20.6,0,0,0,1.4,1.55h0a20.6,20.6,0,0,0,1.55,1.4c.25.21.51.38.76.57s.6.46.92.68.62.37.93.56.56.35.86.51.64.31,1,.47.61.29.92.42.64.24,1,.35.67.25,1,.36.65.17,1,.25.7.19,1.06.26.75.11,1.13.17.61.1.93.13c.7.07,1.4.11,2.1.11H128a21.34,21.34,0,0,0,0-42.67H72.84L207.08,335.08a21.33,21.33,0,1,0-30.17-30.16Z"/><path d="M507.74,503.42c.22-.3.46-.59.67-.91s.38-.62.56-.93.35-.56.51-.86.31-.64.47-1,.29-.61.43-.92.23-.64.35-1,.25-.67.35-1,.17-.65.25-1,.19-.7.26-1.05.11-.76.17-1.13.1-.62.13-.94c.07-.7.11-1.4.11-2.1V384a21.34,21.34,0,0,0-42.67,0v55.16L335.08,304.92a21.33,21.33,0,0,0-30.17,30.17L439.16,469.33H384A21.34,21.34,0,0,0,384,512H490.67c.7,0,1.4,0,2.1-.11.32,0,.62-.09.94-.13s.75-.1,1.13-.17l1.05-.26c.32-.08.65-.15,1-.25s.68-.23,1-.35.64-.22,1-.35l.92-.43c.33-.16.65-.3,1-.47s.57-.34.86-.51.63-.36.93-.56.61-.45.91-.67.52-.37.77-.58a20.12,20.12,0,0,0,1.54-1.39l0,0,0,0c.49-.49,1-1,1.39-1.54C507.37,503.94,507.55,503.68,507.74,503.42Z"/><path d="M72.84,42.67H128A21.34,21.34,0,0,0,128,0H21.33c-.7,0-1.4,0-2.1.11-.32,0-.62.09-.93.13s-.76.1-1.13.17-.71.17-1.06.26-.65.15-1,.25-.68.23-1,.35-.64.23-1,.36-.62.28-.93.43-.64.29-1,.46-.58.34-.86.51-.63.36-.93.56-.62.45-.92.68-.51.36-.76.57a20.84,20.84,0,0,0-3,3c-.21.25-.38.51-.57.76s-.46.6-.68.92-.38.62-.56.93-.35.56-.51.86-.31.64-.47,1-.3.61-.43.92-.23.64-.35,1-.25.67-.35,1-.17.65-.25,1-.19.7-.26,1.06-.12.75-.17,1.13-.1.61-.14.93c-.06.7-.1,1.4-.1,2.1V128a21.34,21.34,0,0,0,42.67,0V72.84L176.91,207.08a21.33,21.33,0,0,0,30.17-30.17Z"/></svg>