<svg xmlns="http://www.w3.org/2000/svg" viewBox="0 0 50 50"><path d="M 25 0 C 21.699219 0 19 2.699219 19 6 C 19 9.300781 21.699219 12 25 12 C 28.300781 12 31 9.300781 31 6 C 31 2.699219 28.300781 0 25 0 Z M 25 2 C 27.222656 2 29 3.777344 29 6 C 29 8.222656 27.222656 10 25 10 C 22.777344 10 21 8.222656 21 6 C 21 3.777344 22.777344 2 25 2 Z M 22 13 C 18.15625 13 15 16.15625 15 20 L 15 23 L 17 23 L 17 20 C 17 17.246094 19.246094 15 22 15 L 28 15 C 30.753906 15 33 17.246094 33 20 L 33 23 L 35 23 L 35 20 C 35 16.15625 31.84375 13 28 13 Z M 42 19 L 42 20 L 44 20 L 44 19 Z M 43 20 C 40.597656 20 38.5625 21.730469 38.09375 24 L 1 24 C 0.96875 24 0.9375 24 0.90625 24 C 0.390625 24.046875 -0.00390625 24.480469 0 25 L 0 29 C 0 29.550781 0.449219 30 1 30 L 2 30 L 2 49 C 2 49.550781 2.449219 50 3 50 L 47 50 C 47.550781 50 48 49.550781 48 49 L 48 30 L 49 30 C 49.550781 30 50 29.550781 50 29 L 50 25 C 50 24.449219 49.550781 24 49 24 L 47.90625 24 C 47.4375 21.730469 45.402344 20 43 20 Z M 43 22 C 44.300781 22 45.394531 22.84375 45.8125 24 L 40.1875 24 C 40.605469 22.84375 41.699219 22 43 22 Z M 2 26 L 48 26 L 48 28 L 3.1875 28 C 3.054688 27.972656 2.914063 27.972656 2.78125 28 L 2 28 Z M 4 30 L 46 30 L 46 48 L 4 48 Z"></path></svg>