<svg xmlns="http://www.w3.org/2000/svg" viewBox="0 0 461.65 462.21"><title>room-section-map</title><g style="isolation:isolate"><path d="M317.76,114.18H329q8.06,0,11.94-4t3.88-10.7q0-6.43-3.84-10t-10.58-3.59a15.65,15.65,0,0,0-10.19,3.33,10.67,10.67,0,0,0-4.1,8.68H295a26.07,26.07,0,0,1,4.5-15,30,30,0,0,1,12.6-10.36,42,42,0,0,1,17.83-3.74q16.92,0,26.52,8.1T366,99.17a22.47,22.47,0,0,1-4.47,13.48,28.93,28.93,0,0,1-11.72,9.44q9,3.22,13.44,9.67A26.21,26.21,0,0,1,367.72,147q0,14.2-10.37,22.78t-27.43,8.56q-16,0-26.11-8.42t-10.14-22.26h21.16a12.27,12.27,0,0,0,4.51,9.81,16.59,16.59,0,0,0,11.1,3.81c5,0,9-1.33,11.82-4a13.78,13.78,0,0,0,4.29-10.59q0-16-17.58-16H317.76Z" style="fill:#231f20"/></g><g style="isolation:isolate"><path d="M264.58,281.88h-73.1v-14.5L226,230.61a85.07,85.07,0,0,0,10.51-13.55,21.77,21.77,0,0,0,3.4-11c0-4.73-1.19-8.46-3.59-11.16s-5.81-4.07-10.25-4.07c-4.78,0-8.56,1.65-11.31,4.94s-4.14,7.63-4.14,13H189.36A35,35,0,0,1,194,191a32.79,32.79,0,0,1,13.14-12.64,40,40,0,0,1,19.27-4.58q16.47,0,25.6,7.91T261.13,204a35.79,35.79,0,0,1-4.1,16.12q-4.09,8.21-14.06,19.11l-24.24,25.56h45.85Z" style="fill:#231f20"/></g><g style="isolation:isolate"><path d="M141,386.88H119.86V305.29l-25.27,7.84V295.91l44.17-15.82H141Z" style="fill:#231f20"/></g><path d="M218.31,0,0,218.33V461.86l251.75.35V209.9H47.25l77-77H329.13V329.14H265.25V357h90.92V105.06H152.06L229.82,27.3H434.31V224.14H369.55v27.68h92.1V0Zm5.36,237.67V435.19H27.11V237.67Z" style="fill:#231f20"/></svg>