<svg xmlns="http://www.w3.org/2000/svg" viewBox="0 0 512 512"><path d="M466.53,57.86H45.47A37.16,37.16,0,0,0,8.32,95V342.69a37.15,37.15,0,0,0,37.15,37.15H243.62v49.54h-130a6.19,6.19,0,0,0-6.19,6.19V448a6.19,6.19,0,0,0,6.19,6.19h284.8a6.19,6.19,0,0,0,6.19-6.19V435.57a6.19,6.19,0,0,0-6.19-6.19h-130V379.84H466.53a37.15,37.15,0,0,0,37.15-37.15V95A37.16,37.16,0,0,0,466.53,57.86Zm12.38,284.83a12.38,12.38,0,0,1-12.38,12.38H45.47a12.38,12.38,0,0,1-12.38-12.38V95A12.4,12.4,0,0,1,45.47,82.62H466.53A12.4,12.4,0,0,1,478.91,95Z" /></svg>