<svg xmlns="http://www.w3.org/2000/svg" viewBox="0 0 45 45"><title>4</title><rect width="45" height="45" style="fill:none;opacity:0"/><path d="M37.62,6H33.5V1.19A.69.69,0,0,0,32.81.5H31.44a.69.69,0,0,0-.69.69V6H14.25V1.19A.69.69,0,0,0,13.56.5H12.19a.69.69,0,0,0-.69.69V6H7.37a4.13,4.13,0,0,0-4.12,4.12V40.38A4.13,4.13,0,0,0,7.37,44.5H37.62a4.13,4.13,0,0,0,4.13-4.12V10.12A4.13,4.13,0,0,0,37.62,6ZM39,40.38a1.38,1.38,0,0,1-1.38,1.38H7.37A1.38,1.38,0,0,1,6,40.38V17H39Zm0-26.13H6V10.12A1.38,1.38,0,0,1,7.37,8.75H37.62A1.38,1.38,0,0,1,39,10.12Z" style="fill:#4fc6e1"/><path d="M12.87,33.5h8.25a1.38,1.38,0,0,0,1.38-1.38V23.87a1.38,1.38,0,0,0-1.38-1.37H12.87a1.38,1.38,0,0,0-1.38,1.37v8.25A1.38,1.38,0,0,0,12.87,33.5Zm1.37-8.25h5.5v5.5h-5.5Z" style="fill:#3f51b5"/></svg>