<?xml version="1.0" encoding="utf-8"?>
<!-- Generator: Adobe Illustrator 16.0.0, SVG Export Plug-In . SVG Version: 6.00 Build 0)  -->
<!DOCTYPE svg PUBLIC "-//W3C//DTD SVG 1.1//EN" "http://www.w3.org/Graphics/SVG/1.1/DTD/svg11.dtd">
<svg version="1.1" id="Layer_1" xmlns="http://www.w3.org/2000/svg" xmlns:xlink="http://www.w3.org/1999/xlink" x="0px" y="0px"
	 width="300px" height="300px" viewBox="0 0 512 512" enable-background="new 0 0 512 512" xml:space="preserve">
<g id="Coccyx">
	<g id="XMLID_139_">
		<path class="human" fill="#0F5B8A" d="M210.408,321.206c0.035,4.247-1.208,10.825,2.765,19.808c3.971,8.979,7.278,16.16,9.285,23.353
			s11.138,11.923,7.908,13.752c-3.23,1.832-11.652-7.245-16.991-13.074c-6.553-7.153-8.56-14.351-13.18-23.321
			c-4.066-7.895-5.969-14.973-8.604-19.154c-2.633-4.187-5.269-8.969-1.365-7.801c3.904,1.172,5.225,3.563,11.065,3.512
			C207.133,318.223,210.352,314.598,210.408,321.206z"/>
	</g>
	<g opacity="0.7" enable-background="new  ">
		<path d="M119.641,349.203c0,0.195-0.006,0.361-0.018,0.498c-0.012,0.137-0.029,0.254-0.053,0.352
			c-0.024,0.098-0.055,0.182-0.094,0.252s-0.102,0.15-0.188,0.24s-0.252,0.205-0.498,0.346c-0.246,0.142-0.547,0.275-0.902,0.404
			s-0.762,0.236-1.219,0.322s-0.951,0.129-1.482,0.129c-1.039,0-1.977-0.16-2.813-0.48s-1.547-0.799-2.133-1.436
			c-0.586-0.637-1.035-1.432-1.348-2.385s-0.469-2.063-0.469-3.328c0-1.289,0.172-2.434,0.516-3.434
			c0.344-1,0.824-1.841,1.441-2.521c0.617-0.681,1.357-1.195,2.221-1.547c0.864-0.353,1.814-0.527,2.854-0.527
			c0.422,0,0.828,0.035,1.219,0.104c0.391,0.07,0.752,0.162,1.084,0.275s0.631,0.244,0.896,0.393
			c0.265,0.149,0.451,0.275,0.557,0.382s0.178,0.192,0.217,0.264c0.039,0.071,0.07,0.16,0.094,0.271
			c0.024,0.109,0.041,0.238,0.053,0.387c0.012,0.148,0.018,0.332,0.018,0.551c0,0.234-0.008,0.434-0.023,0.598
			c-0.015,0.164-0.043,0.297-0.082,0.398c-0.039,0.102-0.086,0.176-0.141,0.223c-0.055,0.047-0.117,0.07-0.188,0.07
			c-0.117,0-0.266-0.068-0.445-0.205c-0.179-0.137-0.412-0.289-0.697-0.457c-0.285-0.168-0.625-0.32-1.02-0.457
			s-0.865-0.205-1.412-0.205c-0.602,0-1.139,0.123-1.611,0.369c-0.472,0.246-0.875,0.598-1.207,1.055s-0.584,1.01-0.756,1.658
			c-0.172,0.648-0.258,1.379-0.258,2.191c0,0.891,0.092,1.662,0.275,2.314c0.183,0.651,0.445,1.188,0.785,1.61
			s0.75,0.735,1.23,0.942s1.021,0.312,1.623,0.312c0.547,0,1.02-0.063,1.418-0.192s0.74-0.271,1.025-0.429
			c0.285-0.157,0.52-0.297,0.703-0.422s0.326-0.188,0.428-0.188c0.078,0,0.141,0.017,0.188,0.047
			c0.047,0.031,0.086,0.095,0.117,0.188c0.031,0.095,0.055,0.226,0.07,0.394C119.631,348.697,119.641,348.922,119.641,349.203z"/>
		<path d="M132.25,345.77c0,0.892-0.117,1.703-0.352,2.438s-0.59,1.367-1.066,1.897c-0.476,0.531-1.074,0.941-1.793,1.23
			c-0.719,0.289-1.559,0.434-2.52,0.434c-0.93,0-1.738-0.129-2.426-0.387c-0.688-0.258-1.258-0.633-1.711-1.125
			c-0.453-0.492-0.789-1.098-1.008-1.816c-0.219-0.717-0.328-1.539-0.328-2.461c0-0.891,0.119-1.705,0.357-2.442
			c0.238-0.738,0.596-1.371,1.072-1.897c0.476-0.527,1.072-0.937,1.787-1.226c0.715-0.289,1.553-0.435,2.514-0.435
			c0.938,0,1.75,0.127,2.438,0.381c0.688,0.255,1.256,0.628,1.705,1.119c0.449,0.492,0.783,1.099,1.002,1.816
			C132.14,344.016,132.25,344.84,132.25,345.77z M129.215,345.887c0-0.516-0.041-0.99-0.123-1.424s-0.221-0.811-0.416-1.131
			c-0.195-0.32-0.455-0.57-0.779-0.75c-0.324-0.18-0.732-0.27-1.225-0.27c-0.438,0-0.82,0.08-1.148,0.239
			c-0.328,0.16-0.598,0.396-0.809,0.703s-0.369,0.681-0.475,1.113c-0.106,0.433-0.158,0.928-0.158,1.481
			c0,0.517,0.043,0.99,0.129,1.424c0.086,0.435,0.225,0.812,0.416,1.131c0.191,0.32,0.451,0.568,0.779,0.744
			c0.328,0.177,0.734,0.265,1.219,0.265c0.445,0,0.832-0.08,1.16-0.24c0.328-0.159,0.598-0.394,0.809-0.696
			c0.211-0.305,0.367-0.675,0.469-1.107C129.165,346.936,129.215,346.441,129.215,345.887z"/>
		<path d="M142.492,349.438c0,0.203-0.006,0.373-0.018,0.511c-0.012,0.137-0.027,0.252-0.047,0.346
			c-0.02,0.095-0.043,0.17-0.07,0.229c-0.027,0.059-0.088,0.133-0.182,0.223c-0.094,0.09-0.254,0.199-0.48,0.328
			s-0.484,0.244-0.773,0.346s-0.604,0.184-0.943,0.246s-0.689,0.094-1.049,0.094c-0.805,0-1.518-0.125-2.139-0.375
			s-1.143-0.619-1.564-1.107c-0.421-0.487-0.74-1.084-0.955-1.786c-0.215-0.703-0.322-1.509-0.322-2.414
			c0-1.047,0.131-1.951,0.393-2.713c0.262-0.763,0.627-1.394,1.096-1.894c0.469-0.5,1.023-0.871,1.664-1.113
			c0.641-0.241,1.344-0.362,2.109-0.362c0.313,0,0.619,0.026,0.92,0.082c0.301,0.055,0.582,0.129,0.844,0.223
			c0.262,0.095,0.496,0.199,0.703,0.316c0.207,0.116,0.354,0.219,0.439,0.305s0.146,0.158,0.182,0.218
			c0.036,0.059,0.063,0.135,0.082,0.229s0.035,0.209,0.047,0.346c0.012,0.137,0.018,0.303,0.018,0.498
			c0,0.453-0.039,0.771-0.117,0.955s-0.18,0.275-0.305,0.275c-0.133,0-0.273-0.056-0.422-0.164c-0.149-0.109-0.324-0.23-0.527-0.363
			c-0.203-0.133-0.445-0.254-0.727-0.363c-0.282-0.109-0.617-0.164-1.008-0.164c-0.766,0-1.352,0.295-1.758,0.885
			c-0.406,0.59-0.609,1.455-0.609,2.597c0,0.563,0.051,1.059,0.152,1.487c0.101,0.43,0.252,0.789,0.451,1.078
			c0.199,0.289,0.449,0.506,0.75,0.65c0.301,0.145,0.65,0.217,1.049,0.217c0.406,0,0.756-0.061,1.049-0.182s0.549-0.256,0.768-0.404
			c0.219-0.148,0.402-0.283,0.551-0.404s0.273-0.182,0.375-0.182c0.07,0,0.129,0.02,0.176,0.059s0.084,0.111,0.111,0.217
			c0.027,0.107,0.049,0.24,0.064,0.404C142.485,348.973,142.492,349.18,142.492,349.438z"/>
		<path d="M152.535,349.438c0,0.203-0.006,0.373-0.018,0.511c-0.012,0.137-0.027,0.252-0.047,0.346
			c-0.02,0.095-0.043,0.17-0.07,0.229c-0.027,0.059-0.088,0.133-0.182,0.223c-0.094,0.09-0.254,0.199-0.48,0.328
			c-0.226,0.129-0.484,0.244-0.773,0.346s-0.604,0.184-0.943,0.246s-0.689,0.094-1.049,0.094c-0.805,0-1.518-0.125-2.139-0.375
			s-1.143-0.619-1.564-1.107c-0.421-0.487-0.74-1.084-0.955-1.786c-0.215-0.703-0.322-1.509-0.322-2.414
			c0-1.047,0.131-1.951,0.393-2.713c0.262-0.763,0.627-1.394,1.096-1.894c0.469-0.5,1.023-0.871,1.664-1.113
			c0.641-0.241,1.344-0.362,2.109-0.362c0.313,0,0.619,0.026,0.92,0.082c0.301,0.055,0.582,0.129,0.844,0.223
			c0.262,0.095,0.496,0.199,0.703,0.316c0.207,0.116,0.354,0.219,0.439,0.305s0.146,0.158,0.182,0.218
			c0.036,0.059,0.063,0.135,0.082,0.229c0.019,0.094,0.035,0.209,0.047,0.346c0.012,0.137,0.018,0.303,0.018,0.498
			c0,0.453-0.039,0.771-0.117,0.955s-0.18,0.275-0.305,0.275c-0.133,0-0.273-0.056-0.422-0.164c-0.149-0.109-0.324-0.23-0.527-0.363
			c-0.203-0.133-0.445-0.254-0.727-0.363c-0.282-0.109-0.617-0.164-1.008-0.164c-0.766,0-1.352,0.295-1.758,0.885
			c-0.406,0.59-0.609,1.455-0.609,2.597c0,0.563,0.051,1.059,0.152,1.487c0.101,0.43,0.252,0.789,0.451,1.078
			c0.199,0.289,0.449,0.506,0.75,0.65c0.301,0.145,0.65,0.217,1.049,0.217c0.406,0,0.756-0.061,1.049-0.182
			c0.293-0.121,0.549-0.256,0.768-0.404c0.219-0.148,0.402-0.283,0.551-0.404s0.273-0.182,0.375-0.182
			c0.07,0,0.129,0.02,0.176,0.059s0.084,0.111,0.111,0.217c0.027,0.107,0.049,0.24,0.064,0.404
			C152.528,348.973,152.535,349.18,152.535,349.438z"/>
		<path d="M160.727,351.5l-1.266,3.703c-0.07,0.195-0.262,0.336-0.574,0.422s-0.77,0.129-1.371,0.129
			c-0.313,0-0.563-0.014-0.75-0.041s-0.328-0.072-0.422-0.135c-0.094-0.063-0.145-0.141-0.152-0.234
			c-0.007-0.093,0.016-0.207,0.07-0.34l1.395-3.504c-0.102-0.047-0.193-0.119-0.275-0.217s-0.143-0.201-0.182-0.311l-3.598-9.609
			c-0.102-0.273-0.152-0.482-0.152-0.627c0-0.146,0.047-0.258,0.141-0.34c0.094-0.082,0.252-0.14,0.475-0.17
			c0.223-0.031,0.518-0.048,0.885-0.048c0.336,0,0.602,0.007,0.797,0.019s0.348,0.041,0.457,0.088s0.191,0.119,0.246,0.217
			c0.055,0.098,0.109,0.236,0.164,0.416l2.461,6.996h0.035l2.25-7.137c0.047-0.203,0.107-0.338,0.182-0.404s0.197-0.115,0.369-0.146
			s0.473-0.047,0.902-0.047c0.336,0,0.615,0.016,0.838,0.047c0.223,0.031,0.387,0.09,0.492,0.176s0.158,0.201,0.158,0.347
			s-0.031,0.313-0.094,0.51L160.727,351.5z"/>
		<path d="M175.117,350.891c0.063,0.133,0.092,0.242,0.088,0.328s-0.061,0.156-0.17,0.211c-0.109,0.055-0.277,0.092-0.504,0.111
			c-0.227,0.02-0.527,0.029-0.902,0.029c-0.352,0-0.635-0.006-0.85-0.019c-0.215-0.012-0.383-0.034-0.504-0.069
			s-0.211-0.078-0.27-0.129c-0.059-0.052-0.104-0.115-0.135-0.193l-1.934-3.715l-1.934,3.715c-0.031,0.078-0.074,0.143-0.129,0.193
			c-0.055,0.049-0.139,0.094-0.252,0.129c-0.113,0.035-0.271,0.059-0.475,0.069s-0.469,0.019-0.797,0.019
			c-0.344,0-0.617-0.01-0.82-0.029c-0.203-0.02-0.352-0.057-0.445-0.111c-0.093-0.054-0.143-0.125-0.146-0.211
			s0.029-0.195,0.1-0.328l2.895-5.145l-2.672-4.828c-0.07-0.141-0.107-0.26-0.111-0.357c-0.004-0.097,0.045-0.174,0.146-0.229
			s0.264-0.094,0.486-0.117c0.222-0.023,0.525-0.035,0.908-0.035c0.344,0,0.619,0.006,0.826,0.019
			c0.207,0.012,0.369,0.028,0.486,0.053s0.203,0.062,0.258,0.11c0.055,0.051,0.102,0.115,0.141,0.193l1.863,3.492l1.852-3.492
			c0.023-0.063,0.059-0.117,0.105-0.164c0.046-0.047,0.121-0.086,0.223-0.117c0.102-0.03,0.24-0.055,0.416-0.069
			c0.176-0.015,0.416-0.022,0.721-0.022c0.344,0,0.619,0.008,0.826,0.022s0.355,0.051,0.445,0.104
			c0.09,0.055,0.133,0.131,0.129,0.229c-0.004,0.098-0.049,0.226-0.135,0.381l-2.602,4.746L175.117,350.891z"/>
	</g>
</g>
<g id="Sacral">
	<g id="XMLID_137_">
		<path class="human" fill="#E02837" d="M322.586,151.421c-8.382,0.933-31.788,2.672-38.962-0.874c-7.17-3.544-9.17-9.535-17.634-12.468
			c-8.467-2.934-16.266-4.065-22.119-5.222c-5.854-1.151-5.842,0.051-6.457,4.261c-0.616,4.211-0.553,11.418-7.035,12.677
			c-6.481,1.256-9.112-2.928-13.612,2.52c-4.499,5.445-0.521,15.025-0.472,21.029c0.051,6.012-4.464,9.654-11.59,11.515
			c-7.125,1.864-7.739,6.074-7.029,13.277c0.709,7.207,3.387,16.798-0.463,22.236c-3.849,5.44-7.111,3.665-6.375,13.872
			c0.737,10.206,3.356,13.191,1.437,16.212c-1.923,3.02,0.047,5.406-1.866,9.629c-1.913,4.222-6.458,4.261-7.066,9.071
			c-0.609,4.813,1.378,9.602,4.011,13.785c2.632,4.185,5.954,13.168,4.043,17.389c-1.911,4.225-7.75,4.873-2.517,9.637
			c5.232,4.764,18.896,8.25,20.798,2.829c1.902-5.425,1.233-7.821,3.094-18.05s6.263-27.091,14.646-33.771
			c8.383-6.68,12.283-6.11,17.432-11.563c5.147-5.449,5.767-9.061,9.636-12.096c3.868-3.037,14.245-4.329,21.357-7.99
			c7.108-3.667,23.587-12.87,25.146-20.644c3.736-18.659-6.077-19.098-5.413-25.789c0.601-6.015,16.712-19.97,23.834-22.432
			C326.536,157.996,328.424,150.771,322.586,151.421z"/>
	</g>
	<g opacity="0.7" enable-background="new  ">
		<path d="M136.141,164.953c0,0.797-0.148,1.496-0.445,2.098c-0.297,0.602-0.699,1.104-1.207,1.506
			c-0.508,0.402-1.102,0.705-1.781,0.908c-0.679,0.203-1.406,0.305-2.18,0.305c-0.523,0-1.01-0.043-1.459-0.129
			c-0.449-0.086-0.846-0.189-1.189-0.311c-0.343-0.122-0.631-0.248-0.861-0.381c-0.23-0.133-0.396-0.25-0.498-0.352
			s-0.174-0.248-0.217-0.439c-0.043-0.191-0.064-0.467-0.064-0.826c0-0.242,0.008-0.445,0.023-0.609
			c0.015-0.164,0.041-0.297,0.076-0.398c0.035-0.101,0.082-0.174,0.141-0.217s0.127-0.064,0.205-0.064
			c0.109,0,0.264,0.064,0.463,0.193c0.199,0.129,0.455,0.271,0.768,0.428s0.686,0.299,1.119,0.428
			c0.433,0.129,0.936,0.193,1.506,0.193c0.375,0,0.711-0.045,1.008-0.135c0.297-0.09,0.549-0.217,0.756-0.381
			s0.365-0.367,0.475-0.609c0.11-0.242,0.164-0.512,0.164-0.809c0-0.344-0.094-0.639-0.281-0.885
			c-0.187-0.246-0.432-0.465-0.732-0.656c-0.3-0.191-0.643-0.371-1.025-0.539c-0.382-0.168-0.777-0.346-1.184-0.533
			c-0.407-0.188-0.801-0.4-1.184-0.639c-0.383-0.239-0.725-0.523-1.025-0.855c-0.3-0.332-0.545-0.725-0.732-1.178
			c-0.187-0.453-0.281-0.996-0.281-1.629c0-0.727,0.135-1.365,0.404-1.916c0.269-0.551,0.633-1.008,1.09-1.371
			c0.457-0.363,0.996-0.635,1.617-0.814c0.621-0.179,1.279-0.27,1.975-0.27c0.359,0,0.719,0.027,1.078,0.082
			s0.695,0.129,1.008,0.223c0.313,0.094,0.59,0.199,0.832,0.316c0.242,0.117,0.402,0.215,0.48,0.293s0.131,0.145,0.158,0.199
			c0.027,0.054,0.051,0.127,0.07,0.217s0.033,0.203,0.041,0.34c0.008,0.137,0.012,0.307,0.012,0.51c0,0.227-0.006,0.418-0.018,0.574
			c-0.012,0.156-0.031,0.285-0.059,0.387s-0.066,0.176-0.117,0.223c-0.051,0.047-0.119,0.07-0.205,0.07
			c-0.086,0-0.223-0.055-0.41-0.164s-0.418-0.229-0.691-0.357s-0.59-0.246-0.949-0.352s-0.754-0.158-1.184-0.158
			c-0.336,0-0.629,0.041-0.879,0.123s-0.459,0.195-0.627,0.34s-0.293,0.318-0.375,0.521s-0.123,0.418-0.123,0.645
			c0,0.336,0.092,0.627,0.275,0.873c0.183,0.246,0.43,0.465,0.738,0.656s0.658,0.371,1.049,0.539s0.789,0.346,1.195,0.533
			c0.406,0.187,0.805,0.4,1.195,0.639c0.39,0.239,0.738,0.523,1.043,0.855c0.305,0.332,0.551,0.723,0.738,1.172
			C136.048,163.815,136.141,164.344,136.141,164.953z"/>
		<path d="M147.227,169.137c0,0.109-0.039,0.195-0.117,0.258c-0.078,0.063-0.201,0.107-0.369,0.135
			c-0.168,0.028-0.416,0.041-0.744,0.041c-0.352,0-0.607-0.014-0.768-0.041c-0.161-0.027-0.273-0.072-0.34-0.135
			c-0.067-0.063-0.1-0.148-0.1-0.258v-0.832c-0.43,0.461-0.92,0.82-1.471,1.078c-0.551,0.258-1.162,0.387-1.834,0.387
			c-0.555,0-1.064-0.072-1.529-0.217c-0.465-0.145-0.867-0.359-1.207-0.645c-0.34-0.286-0.604-0.639-0.791-1.061
			c-0.187-0.422-0.281-0.914-0.281-1.477c0-0.609,0.119-1.139,0.357-1.588c0.238-0.449,0.594-0.82,1.066-1.113
			c0.472-0.293,1.061-0.51,1.764-0.65c0.703-0.14,1.52-0.211,2.449-0.211h1.02v-0.633c0-0.328-0.033-0.615-0.1-0.861
			s-0.176-0.451-0.328-0.615c-0.152-0.164-0.355-0.285-0.609-0.363s-0.568-0.117-0.943-0.117c-0.492,0-0.932,0.055-1.318,0.164
			c-0.386,0.109-0.729,0.23-1.025,0.363c-0.296,0.133-0.545,0.254-0.744,0.363c-0.199,0.109-0.361,0.164-0.486,0.164
			c-0.086,0-0.162-0.027-0.229-0.082c-0.067-0.055-0.121-0.133-0.164-0.234c-0.043-0.101-0.076-0.227-0.1-0.375
			s-0.035-0.313-0.035-0.492c0-0.242,0.02-0.434,0.059-0.574s0.113-0.268,0.223-0.381c0.11-0.113,0.301-0.238,0.574-0.375
			c0.273-0.137,0.594-0.264,0.961-0.381c0.367-0.117,0.768-0.213,1.201-0.287c0.433-0.074,0.881-0.111,1.342-0.111
			c0.82,0,1.521,0.08,2.104,0.24c0.583,0.16,1.061,0.406,1.436,0.738s0.648,0.76,0.82,1.283c0.172,0.523,0.258,1.145,0.258,1.863
			v7.032H147.227z M144.332,164.66h-1.125c-0.477,0-0.883,0.035-1.219,0.105c-0.336,0.07-0.609,0.176-0.82,0.316
			s-0.365,0.311-0.463,0.51c-0.098,0.199-0.146,0.428-0.146,0.686c0,0.438,0.139,0.781,0.416,1.031s0.662,0.375,1.154,0.375
			c0.414,0,0.795-0.105,1.143-0.316s0.701-0.52,1.061-0.926L144.332,164.66L144.332,164.66z"/>
		<path d="M158.078,167.438c0,0.203-0.006,0.373-0.018,0.51c-0.012,0.137-0.027,0.252-0.047,0.346
			c-0.02,0.094-0.043,0.17-0.07,0.229c-0.027,0.059-0.088,0.133-0.182,0.223c-0.094,0.09-0.254,0.199-0.48,0.328
			c-0.226,0.129-0.484,0.244-0.773,0.346s-0.604,0.184-0.943,0.246s-0.689,0.094-1.049,0.094c-0.805,0-1.518-0.125-2.139-0.375
			s-1.143-0.619-1.564-1.107c-0.421-0.488-0.74-1.084-0.955-1.787c-0.215-0.703-0.322-1.508-0.322-2.414
			c0-1.047,0.131-1.951,0.393-2.713c0.262-0.762,0.627-1.393,1.096-1.893c0.469-0.5,1.023-0.871,1.664-1.113
			c0.641-0.242,1.344-0.363,2.109-0.363c0.313,0,0.619,0.027,0.92,0.082c0.301,0.055,0.582,0.129,0.844,0.223
			c0.262,0.094,0.496,0.199,0.703,0.316c0.207,0.117,0.354,0.219,0.439,0.305s0.146,0.158,0.182,0.217
			c0.036,0.059,0.063,0.135,0.082,0.229c0.019,0.094,0.035,0.209,0.047,0.346c0.012,0.137,0.018,0.303,0.018,0.498
			c0,0.453-0.039,0.771-0.117,0.955s-0.18,0.275-0.305,0.275c-0.133,0-0.273-0.055-0.422-0.164s-0.324-0.23-0.527-0.363
			c-0.203-0.133-0.445-0.254-0.727-0.363c-0.282-0.109-0.617-0.164-1.008-0.164c-0.766,0-1.352,0.295-1.758,0.885
			c-0.406,0.59-0.609,1.455-0.609,2.596c0,0.563,0.051,1.059,0.152,1.488s0.252,0.789,0.451,1.078
			c0.199,0.289,0.449,0.506,0.75,0.65c0.301,0.144,0.65,0.217,1.049,0.217c0.406,0,0.756-0.061,1.049-0.182
			c0.293-0.121,0.549-0.256,0.768-0.404c0.219-0.148,0.402-0.283,0.551-0.404s0.273-0.182,0.375-0.182
			c0.07,0,0.129,0.02,0.176,0.059c0.047,0.039,0.084,0.111,0.111,0.217c0.027,0.106,0.049,0.24,0.064,0.404
			C158.071,166.973,158.078,167.18,158.078,167.438z"/>
		<path d="M166.926,159.621c0,0.281-0.008,0.512-0.023,0.691c-0.015,0.179-0.039,0.32-0.07,0.422
			c-0.031,0.102-0.072,0.172-0.123,0.211c-0.051,0.039-0.115,0.059-0.193,0.059c-0.063,0-0.133-0.014-0.211-0.041
			c-0.078-0.027-0.166-0.057-0.264-0.088s-0.205-0.061-0.322-0.088c-0.117-0.027-0.246-0.041-0.387-0.041
			c-0.164,0-0.328,0.033-0.492,0.1c-0.164,0.067-0.334,0.17-0.51,0.311c-0.176,0.141-0.359,0.328-0.551,0.563
			c-0.192,0.235-0.396,0.523-0.615,0.867v6.516c0,0.078-0.023,0.146-0.07,0.205c-0.047,0.059-0.127,0.107-0.24,0.146
			s-0.264,0.068-0.451,0.088s-0.426,0.029-0.715,0.029s-0.527-0.01-0.715-0.029s-0.338-0.049-0.451-0.088s-0.193-0.088-0.24-0.146
			c-0.047-0.058-0.07-0.127-0.07-0.205V158.65c0-0.078,0.02-0.146,0.059-0.205c0.039-0.059,0.109-0.107,0.211-0.146
			s0.232-0.068,0.393-0.088s0.361-0.029,0.604-0.029c0.25,0,0.457,0.01,0.621,0.029s0.291,0.049,0.381,0.088
			s0.154,0.088,0.193,0.146c0.039,0.058,0.059,0.127,0.059,0.205v1.301c0.273-0.391,0.531-0.713,0.773-0.967
			c0.242-0.254,0.473-0.455,0.691-0.604c0.218-0.149,0.438-0.252,0.656-0.311c0.218-0.059,0.438-0.088,0.656-0.088
			c0.102,0,0.211,0.006,0.328,0.018c0.117,0.012,0.238,0.031,0.363,0.059s0.234,0.059,0.328,0.094
			c0.094,0.035,0.162,0.072,0.205,0.111c0.043,0.039,0.074,0.082,0.094,0.129s0.037,0.111,0.053,0.193
			c0.016,0.082,0.027,0.205,0.035,0.369S166.926,159.34,166.926,159.621z"/>
		<path d="M177.121,169.137c0,0.109-0.039,0.195-0.117,0.258s-0.201,0.107-0.369,0.135c-0.168,0.028-0.416,0.041-0.744,0.041
			c-0.352,0-0.607-0.014-0.768-0.041c-0.161-0.027-0.273-0.072-0.34-0.135c-0.067-0.063-0.1-0.148-0.1-0.258v-0.832
			c-0.43,0.461-0.92,0.82-1.471,1.078c-0.551,0.258-1.162,0.387-1.834,0.387c-0.555,0-1.064-0.072-1.529-0.217
			c-0.465-0.145-0.867-0.359-1.207-0.645c-0.34-0.286-0.604-0.639-0.791-1.061c-0.187-0.422-0.281-0.914-0.281-1.477
			c0-0.609,0.119-1.139,0.357-1.588c0.238-0.449,0.594-0.82,1.066-1.113c0.472-0.293,1.061-0.51,1.764-0.65
			c0.703-0.14,1.52-0.211,2.449-0.211h1.02v-0.633c0-0.328-0.033-0.615-0.1-0.861s-0.176-0.451-0.328-0.615
			c-0.152-0.164-0.355-0.285-0.609-0.363s-0.568-0.117-0.943-0.117c-0.492,0-0.932,0.055-1.318,0.164
			c-0.386,0.109-0.729,0.23-1.025,0.363c-0.296,0.133-0.545,0.254-0.744,0.363c-0.199,0.109-0.361,0.164-0.486,0.164
			c-0.086,0-0.162-0.027-0.229-0.082c-0.067-0.055-0.121-0.133-0.164-0.234c-0.043-0.101-0.076-0.227-0.1-0.375
			c-0.024-0.148-0.035-0.313-0.035-0.492c0-0.242,0.02-0.434,0.059-0.574s0.113-0.268,0.223-0.381
			c0.11-0.113,0.301-0.238,0.574-0.375c0.273-0.137,0.594-0.264,0.961-0.381c0.367-0.117,0.768-0.213,1.201-0.287
			c0.433-0.074,0.881-0.111,1.342-0.111c0.82,0,1.521,0.08,2.104,0.24c0.583,0.16,1.061,0.406,1.436,0.738s0.648,0.76,0.82,1.283
			c0.172,0.523,0.258,1.145,0.258,1.863v7.032H177.121z M174.227,164.66h-1.125c-0.477,0-0.883,0.035-1.219,0.105
			c-0.336,0.07-0.609,0.176-0.82,0.316s-0.365,0.311-0.463,0.51c-0.098,0.199-0.146,0.428-0.146,0.686
			c0,0.438,0.139,0.781,0.416,1.031c0.277,0.25,0.662,0.375,1.154,0.375c0.414,0,0.795-0.105,1.143-0.316s0.701-0.52,1.061-0.926
			L174.227,164.66L174.227,164.66z"/>
		<path d="M183.016,169.102c0,0.078-0.023,0.146-0.07,0.205c-0.047,0.059-0.127,0.107-0.24,0.146
			c-0.113,0.039-0.264,0.068-0.451,0.088s-0.426,0.029-0.715,0.029s-0.527-0.01-0.715-0.029s-0.338-0.049-0.451-0.088
			c-0.113-0.039-0.193-0.088-0.24-0.146c-0.047-0.058-0.07-0.127-0.07-0.205v-15.41c0-0.078,0.023-0.148,0.07-0.211
			c0.047-0.063,0.127-0.115,0.24-0.158c0.113-0.043,0.264-0.076,0.451-0.1s0.426-0.035,0.715-0.035s0.527,0.012,0.715,0.035
			s0.338,0.057,0.451,0.1c0.113,0.043,0.193,0.096,0.24,0.158c0.047,0.062,0.07,0.133,0.07,0.211V169.102z"/>
	</g>
</g>
</svg>
