<?xml version="1.0" encoding="utf-8"?>
<!-- Generator: Adobe Illustrator 21.0.0, SVG Export Plug-In . SVG Version: 6.00 Build 0)  -->
<svg version="1.1" id="Layer_1" xmlns="http://www.w3.org/2000/svg" xmlns:xlink="http://www.w3.org/1999/xlink" x="0px" y="0px" width="80%" height="100%"
	 viewBox="-80 150 480 500" style="enable-background:new 0 0 370 760;" xml:space="preserve">
<style type="text/css">
	.st0_15x{fill:#f5e6e6;stroke:#6d6d6d;}
</style>
<g>
	<path id="Right_Lateral_Foot_33" class="st0_15x human" d="M86.1,704.4H85c0.4-1.4,0.8-3.2,1.1-5.2V704.4z"/>
</g>
<g>
	<polygon id="Right_Lateral_Foot_32" class="st0_15x human" points="114.7,687.4 114.7,688.9 100.4,688.9 100.4,686.5 	"/>
</g>
<g>
	<path id="Right_Lateral_Foot_31" class="st0_15x human" d="M100.4,686.5v2.5H87.2c0.2-1.5,0.3-2.7,0.4-3.3L100.4,686.5z"/>
</g>
<g>
	<rect id="Right_Lateral_Foot_30" x="100.4" y="688.9" class="st0_15x human" width="14.3" height="15.5"/>
</g>
<g>
	<path id="Right_Lateral_Foot_29" class="st0_15x human" d="M87.2,688.9h13.2v15.5H86.1v-5.2C86.6,695.7,86.9,691.8,87.2,688.9z"/>
</g>
<g>
	<path id="Right_Lateral_Foot_28" class="st0_15x human" d="M83.9,706.4c0.4-0.4,0.7-1.1,1-2H86v15.5h-8.4
		C78.6,714.4,80.6,709.4,83.9,706.4z"/>
</g>
<g>
	<path id="Right_Lateral_Foot_27" class="st0_15x human" d="M77.7,719.9h8.4v15.5H78C77,730.7,76.8,725.1,77.7,719.9z"/>
</g>
<g>
	<rect id="Right_Lateral_Foot_26" x="100.4" y="704.4" class="st0_15x human" width="14.3" height="15.5"/>
</g>
<g>
	<rect id="Right_Lateral_Foot_25" x="86.1" y="704.4" class="st0_15x human" width="14.3" height="15.5"/>
</g>
<g>
	<rect id="Right_Lateral_Foot_24" x="100.4" y="719.9" class="st0_15x human" width="14.3" height="15.5"/>
</g>
<g>
	<rect id="Right_Lateral_Foot_23" x="86.1" y="719.9" class="st0_15x human" width="14.3" height="15.5"/>
</g>
<g>
	<path id="Right_Lateral_Foot_22" class="st0_15x human" d="M86.1,746.4c-3-1.2-5.3-2.9-6.4-5.3c-0.7-1.7-1.3-3.6-1.8-5.8H86L86.1,746.4
		L86.1,746.4z"/>
</g>
<g>
	<path id="Right_Lateral_Foot_21" class="st0_15x human" d="M114.7,735.4v11.1c-0.6,0.4-1.1,0.9-1.7,1.4c-0.7,0.6-6.2,1.3-12.6,1.1v-13.6
		H114.7z"/>
</g>
<g>
	<path id="Right_Lateral_Foot_20" class="st0_15x human" d="M100.4,735.4V749c-4.8-0.2-10.2-0.9-14.3-2.6v-11H100.4z"/>
</g>
<g>
	<path id="Right_Lateral_Foot_19" class="st0_15x human" d="M200.2,734.2c0,0,0.1,0.1,0.3,0.3v0.9h-14.3v-3.5
		C192.7,733.1,200.2,734.2,200.2,734.2z"/>
</g>
<g>
	<path id="Right_Lateral_Foot_18" class="st0_15x human" d="M177.1,729.8c1.1,0.6,4.9,1.4,9.1,2.2v3.5h-14.3v-9.1
		C173.8,727.7,175.8,729,177.1,729.8z"/>
</g>
<g>
	<path id="Right_Lateral_Foot_17" class="st0_15x human" d="M128.7,688.4c0,0,0,0.2,0,0.5h-14.1v-1.5L128.7,688.4z"/>
</g>
<g>
	<path id="Right_Lateral_Foot_16" class="st0_15x human" d="M130.6,699c0.6,1.9,1.3,3.8,2.2,5.4H129V691
		C129.2,693.3,129.8,696.5,130.6,699z"/>
</g>
<g>
	<path id="Right_Lateral_Foot_15" class="st0_15x human" d="M129,691v13.4h-14.3v-15.5h14.1C128.8,689.4,128.8,690.1,129,691z"/>
</g>
<g>
	<path id="Right_Lateral_Foot_14" class="st0_15x human" d="M132.8,704.4c1.1,2.1,2.4,3.7,4.1,4c1.6,0.3,4.1,1.2,6.3,2.4v9.1h-14.3v-15.5
		H132.8z"/>
</g>
<g>
	<rect id="Right_Lateral_Foot_13" x="114.7" y="704.4" class="st0_15x human" width="14.3" height="15.5"/>
</g>
<g>
	<rect id="Right_Lateral_Foot_12" x="129" y="719.9" class="st0_15x human" width="14.3" height="15.5"/>
</g>
<g>
	<rect id="Right_Lateral_Foot_11" x="114.7" y="719.9" class="st0_15x human" width="14.3" height="15.5"/>
</g>
<g>
	<path id="Right_Lateral_Foot_10" class="st0_15x human" d="M147.4,713.9c1.2,1.8,4.3,4.8,6.4,6h-10.5v-9.1
		C145.1,711.8,146.7,712.9,147.4,713.9z"/>
</g>
<g>
	<path id="Right_Lateral_Foot_09" class="st0_15x human" d="M166.3,722.2c1.2,0.9,3.4,2.6,5.6,4.1v9.1h-14.3v-15
		C160.4,720.5,164.6,720.9,166.3,722.2z"/>
</g>
<g>
	<path id="Right_Lateral_Foot_08" class="st0_15x human" d="M153.8,719.9c0.5,0.3,1,0.5,1.4,0.5c0.5,0,1.3,0,2.4,0v15h-14.3v-15.5H153.8z"
		/>
</g>
<g>
	<path id="Right_Lateral_Foot_07" class="st0_15x human" d="M200.5,735.4v8.3c-3.9,4.6-8.6,4.3-14.3,4.8v-13.2h14.3V735.4z"/>
</g>
<g>
	<path id="Right_Lateral_Foot_06" class="st0_15x human" d="M186.2,735.4v13.2h-0.1c-3.5,0.3-8.9,0.4-14.2,0.2v-13.4H186.2z"/>
</g>
<g>
	<path id="Right_Lateral_Foot_05" class="st0_15x human" d="M201.1,735.4c0.9,1.5,2,4.4-0.2,7.8c-0.2,0.2-0.3,0.4-0.5,0.6v-8.3
		L201.1,735.4L201.1,735.4z"/>
</g>
<g>
	<path id="Right_Lateral_Foot_04" class="st0_15x human" d="M143.3,735.4v7.6c-5.1-1.4-9.6-2.6-10.8-2.6c-0.8,0-2,0-3.5,0.1v-5.1H143.3z"
		/>
</g>
<g>
	<path id="Right_Lateral_Foot_03" class="st0_15x human" d="M129,735.4v5.1c-3.4,0.3-8.4,1.5-14.3,6v-11.1H129z"/>
</g>
<g>
	<path id="Right_Lateral_Foot_02" class="st0_15x human" d="M171.9,735.4v13.4c-4.2-0.2-8.3-0.5-11.2-1.1c-0.9-0.2-1.9-0.4-3.1-0.7v-11.5
		h14.3V735.4z"/>
</g>
<g>
	<path id="Right_Lateral_Foot_01" class="st0_15x human" d="M157.6,735.4v11.5c-4-1-9.4-2.6-14.3-3.9v-7.6H157.6z"/>
</g>
<g>
	<polygon id="Right_Lateral_Lower_Limb_47" class="st0_15x human" points="114.7,549.4 100.4,549.4 100.4,539.5 114.7,543 	"/>
</g>
<g>
	<path id="Right_Lateral_Lower_Limb_46" class="st0_15x human" d="M100.4,539.5v10h-6.1c2.6-5.8,4.9-10.3,4.9-10.3l0,0l0,0L100.4,539.5z"
		/>
</g>
<g>
	<polygon id="Right_Lateral_Lower_Limb_45" class="st0_15x human" points="129,549.4 129,546.5 140.6,549.4 	"/>
</g>
<g>
	<polygon id="Right_Lateral_Lower_Limb_44" class="st0_15x human" points="129,546.5 129,549.4 114.7,549.4 114.7,543 	"/>
</g>
<g>
	<path id="Right_Lateral_Lower_Limb_43" class="st0_15x human" d="M85.4,580.4c0.2-1.2,0.4-2.4,0.6-3.6v3.6H85.4z"/>
</g>
<g>
	<rect id="Right_Lateral_Lower_Limb_42" x="100.4" y="549.4" class="st0_15x human" width="14.3" height="15.5"/>
</g>
<g>
	<path id="Right_Lateral_Lower_Limb_41" class="st0_15x human" d="M100.4,564.9H88.7c1.1-4.2,2.2-7.8,3.3-10.3c0.8-1.8,1.6-3.6,2.3-5.2
		h6.1L100.4,564.9L100.4,564.9z"/>
</g>
<g>
	<rect id="Right_Lateral_Lower_Limb_40" x="100.4" y="564.9" class="st0_15x human" width="14.3" height="15.5"/>
</g>
<g>
	<path id="Right_Lateral_Lower_Limb_39" class="st0_15x human" d="M100.4,564.9v15.5H86.1v-3.6c0.8-4.2,1.7-8.2,2.6-11.9H100.4z"/>
</g>
<g>
	<path id="Right_Lateral_Lower_Limb_38" class="st0_15x human" d="M86.1,595.9h-2.5c0.3-4.6,0.9-10.1,1.8-15.5H86L86.1,595.9L86.1,595.9z"
		/>
</g>
<g>
	<path id="Right_Lateral_Lower_Limb_37" class="st0_15x human" d="M86.1,611.4h-0.7c-0.7-2.5-1.3-4.7-1.5-6.2c-0.4-2.3-0.5-5.5-0.3-9.3
		h2.5V611.4z"/>
</g>
<g>
	<rect id="Right_Lateral_Lower_Limb_36" x="100.4" y="580.4" class="st0_15x human" width="14.3" height="15.5"/>
</g>
<g>
	<rect id="Right_Lateral_Lower_Limb_35" x="86.1" y="580.4" class="st0_15x human" width="14.3" height="15.5"/>
</g>
<g>
	<rect id="Right_Lateral_Lower_Limb_34" x="100.4" y="595.9" class="st0_15x human" width="14.3" height="15.5"/>
</g>
<g>
	<rect id="Right_Lateral_Lower_Limb_33" x="86.1" y="595.9" class="st0_15x human" width="14.3" height="15.5"/>
</g>
<g>
	<path id="Right_Lateral_Lower_Limb_32" class="st0_15x human" d="M86.1,613.8c-0.2-0.8-0.5-1.6-0.7-2.4h0.7V613.8z"/>
</g>
<g>
	<rect id="Right_Lateral_Lower_Limb_31" x="100.4" y="611.4" class="st0_15x human" width="14.3" height="15.5"/>
</g>
<g>
	<path id="Right_Lateral_Lower_Limb_30" class="st0_15x human" d="M100.4,611.4v15.5H90.1c-1.2-3.9-2.7-8.8-4-13.1v-2.4H100.4z"/>
</g>
<g>
	<rect id="Right_Lateral_Lower_Limb_29" x="100.4" y="626.9" class="st0_15x human" width="14.3" height="15.5"/>
</g>
<g>
	<path id="Right_Lateral_Lower_Limb_28" class="st0_15x human" d="M92.2,642.4c0.3-4.7,0.3-8.2-0.1-9.4c-0.4-1.2-1.2-3.4-2-6.1h10.3v15.5
		H92.2z"/>
</g>
<g>
	<rect id="Right_Lateral_Lower_Limb_27" x="100.4" y="642.4" class="st0_15x human" width="14.3" height="15.5"/>
</g>
<g>
	<path id="Right_Lateral_Lower_Limb_26" class="st0_15x human" d="M100.4,642.4v15.5h-9.6c0.6-5.6,1.1-11.1,1.4-15.5H100.4z"/>
</g>
<g>
	<rect id="Right_Lateral_Lower_Limb_25" x="100.4" y="657.9" class="st0_15x human" width="14.3" height="15.5"/>
</g>
<g>
	<path id="Right_Lateral_Lower_Limb_24" class="st0_15x human" d="M100.4,657.9v15.5H89.1c0.6-4.7,1.2-10.1,1.7-15.5H100.4z"/>
</g>
<g>
	<polygon id="Right_Lateral_Lower_Limb_23" class="st0_15x human" points="143.3,550.1 143.3,564.9 129,564.9 129,549.4 140.6,549.4 	"/>
</g>
<g>
	<rect id="Right_Lateral_Lower_Limb_22" x="114.7" y="549.4" class="st0_15x human" width="14.3" height="15.5"/>
</g>
<g>
	<rect id="Right_Lateral_Lower_Limb_21" x="129" y="564.9" class="st0_15x human" width="14.3" height="15.5"/>
</g>
<g>
	<rect id="Right_Lateral_Lower_Limb_20" x="114.7" y="564.9" class="st0_15x human" width="14.3" height="15.5"/>
</g>
<g>
	<path id="Right_Lateral_Lower_Limb_19" class="st0_15x human" d="M144.8,564.9h-1.6v-14.8l2.5,0.6C145.7,550.7,145.4,556.9,144.8,564.9z"
		/>
</g>
<g>
	<path id="Right_Lateral_Lower_Limb_18" class="st0_15x human" d="M143.8,580.4h-0.5v-15.5h1.6C144.5,569.7,144.1,575.2,143.8,580.4z"/>
</g>
<g>
	<path id="Right_Lateral_Lower_Limb_17" class="st0_15x human" d="M143.3,587.3c-0.3,3.3-0.5,6.3-0.7,8.6H129v-15.5h14.3V587.3z"/>
</g>
<g>
	<rect id="Right_Lateral_Lower_Limb_16" x="114.7" y="580.4" class="st0_15x human" width="14.3" height="15.5"/>
</g>
<g>
	<path id="Right_Lateral_Lower_Limb_15" class="st0_15x human" d="M141.9,600.7c-0.2,0.8-0.8,4.9-1.8,10.8h-11.2V596h13.6
		C142.3,598.3,142.1,600,141.9,600.7z"/>
</g>
<g>
	<rect id="Right_Lateral_Lower_Limb_14" x="114.7" y="595.9" class="st0_15x human" width="14.3" height="15.5"/>
</g>
<g>
	<path id="Right_Lateral_Lower_Limb_13" class="st0_15x human" d="M143.3,587.3v-6.9h0.5C143.6,582.8,143.4,585.1,143.3,587.3z"/>
</g>
<g>
	<path id="Right_Lateral_Lower_Limb_12" class="st0_15x human" d="M140.2,611.4c-0.7,4.3-1.5,9.7-2.3,15.5H129v-15.5H140.2z"/>
</g>
<g>
	<rect id="Right_Lateral_Lower_Limb_11" x="114.7" y="611.4" class="st0_15x human" width="14.3" height="15.5"/>
</g>
<g>
	<path id="Right_Lateral_Lower_Limb_10" class="st0_15x human" d="M129,626.9h8.9c-0.7,4.9-1.5,10.2-2.3,15.5H129L129,626.9L129,626.9z"/>
</g>
<g>
	<rect id="Right_Lateral_Lower_Limb_09" x="114.7" y="626.9" class="st0_15x human" width="14.3" height="15.5"/>
</g>
<g>
	<path id="Right_Lateral_Lower_Limb_08" class="st0_15x human" d="M135.5,642.4c-0.8,5.2-1.6,10.5-2.3,15.5h-4.3v-15.5H135.5z"/>
</g>
<g>
	<rect id="Right_Lateral_Lower_Limb_07" x="114.7" y="642.4" class="st0_15x human" width="14.3" height="15.5"/>
</g>
<g>
	<path id="Right_Lateral_Lower_Limb_06" class="st0_15x human" d="M133.2,657.9c-0.8,5.6-1.6,10.9-2.3,15.5h-2v-15.5H133.2z"/>
</g>
<g>
	<rect id="Right_Lateral_Lower_Limb_05" x="114.7" y="657.9" class="st0_15x human" width="14.3" height="15.5"/>
</g>
<g>
	<polygon id="Right_Lateral_Lower_Limb_04" class="st0_15x human" points="114.7,673.4 114.7,687.4 100.4,686.5 100.4,673.4 	"/>
</g>
<g>
	<path id="Right_Lateral_Lower_Limb_03" class="st0_15x human" d="M100.4,686.5l-12.8-0.9c0.2-2.2,0.8-6.7,1.5-12.2h11.3V686.5z"/>
</g>
<g>
	<path id="Right_Lateral_Lower_Limb_02" class="st0_15x human" d="M129,686.7v-13.3h2C130,679.5,129.3,684.3,129,686.7z"/>
</g>
<g>
	<path id="Right_Lateral_Lower_Limb_01" class="st0_15x human" d="M129,673.4v13.3c-0.2,1.1-0.3,1.7-0.3,1.7l-14-1v-14H129z"/>
</g>
<g>
	<path id="Right_Lateral_Knee_17" class="st0_15x human" d="M114.7,502.9h-6.1c0.3-1.8,0.4-2.9,0.4-2.9l5.7,1.7L114.7,502.9L114.7,502.9z"
		/>
</g>
<g>
	<polygon id="Right_Lateral_Knee_16" class="st0_15x human" points="114.7,502.9 114.7,501.7 118.6,502.9 	"/>
</g>
<g>
	<path id="Right_Lateral_Knee_15" class="st0_15x human" d="M114.7,518.4h-9.1c1.6-6.7,2.5-12.3,3-15.5h6.1V518.4z"/>
</g>
<g>
	<path id="Right_Lateral_Knee_14" class="st0_15x human" d="M114.7,533.9h-13.5c1.8-5.3,3.3-10.7,4.4-15.5h9.1V533.9z"/>
</g>
<g>
	<path id="Right_Lateral_Knee_13" class="st0_15x human" d="M114.7,533.9v9.1l-14.3-3.5v-3.4c0.3-0.7,0.5-1.4,0.8-2.2H114.7z"/>
</g>
<g>
	<path id="Right_Lateral_Knee_12" class="st0_15x human" d="M99.2,539.2c0.4-1,0.8-2,1.2-3.1v3.4L99.2,539.2z"/>
</g>
<g>
	<polygon id="Right_Lateral_Knee_11" class="st0_15x human" points="143.3,510.3 143.3,518.4 129,518.4 129,506 	"/>
</g>
<g>
	<polygon id="Right_Lateral_Knee_10" class="st0_15x human" points="129,506 129,518.4 114.7,518.4 114.7,502.9 118.6,502.9 	"/>
</g>
<g>
	<path id="Right_Lateral_Knee_09" class="st0_15x human" d="M156.9,518.4h-13.6v-8.1l13.9,4.1C157,515.8,156.9,517.1,156.9,518.4z"/>
</g>
<g>
	<rect id="Right_Lateral_Knee_08" x="129" y="518.4" class="st0_15x human" width="14.3" height="15.5"/>
</g>
<g>
	<rect id="Right_Lateral_Knee_07" x="114.7" y="518.4" class="st0_15x human" width="14.3" height="15.5"/>
</g>
<g>
	<polygon id="Right_Lateral_Knee_06" class="st0_15x human" points="143.3,549.4 140.6,549.4 129,546.5 129,533.9 143.3,533.9 	"/>
</g>
<g>
	<polygon id="Right_Lateral_Knee_05" class="st0_15x human" points="129,546.5 114.7,543 114.7,533.9 129,533.9 	"/>
</g>
<g>
	<path id="Right_Lateral_Knee_04" class="st0_15x human" d="M155.9,533.9h-12.7v-15.5h13.6C156.8,522.7,157.3,527.1,155.9,533.9z"/>
</g>
<g>
	<path id="Right_Lateral_Knee_03" class="st0_15x human" d="M147,549.4h-3.8v-15.5h12.7C154.6,540.8,149.4,546.9,147,549.4z"/>
</g>
<g>
	<polygon id="Right_Lateral_Knee_02" class="st0_15x human" points="140.6,549.4 143.3,549.4 143.3,550.1 	"/>
</g>
<g>
	<path id="Right_Lateral_Knee_01" class="st0_15x human" d="M145.7,550.7l-2.5-0.6v-0.7h3.8C146.2,550.2,145.7,550.7,145.7,550.7z"/>
</g>
<g>
	<path id="Right_Lateral_Thigh_77" class="st0_15x human" d="M157.2,334.2c-0.6-0.6-1.3-1.2-1.9-1.8h2.3v2.1
		C157.4,334.4,157.3,334.3,157.2,334.2z"/>
</g>
<g>
	<path id="Right_Lateral_Thigh_76" class="st0_15x human" d="M114.7,332.4h-14.3v-5.3c4.1-4.1,9.1-6.8,14.3-8.5V332.4z"/>
</g>
<g>
	<path id="Right_Lateral_Thigh_75" class="st0_15x human" d="M100.4,327.2v5.3h-4.2C97.4,330.5,98.8,328.7,100.4,327.2z"/>
</g>
<g>
	<rect id="Right_Lateral_Thigh_74" x="100.4" y="332.4" class="st0_15x human" width="14.3" height="15.5"/>
</g>
<g>
	<path id="Right_Lateral_Thigh_73" class="st0_15x human" d="M100.4,347.9h-9.5c0.2-1.2,0.4-2.4,0.6-3.7c0.9-4.6,2.5-8.5,4.6-11.8h4.2
		L100.4,347.9L100.4,347.9z"/>
</g>
<g>
	<rect id="Right_Lateral_Thigh_72" x="100.4" y="347.9" class="st0_15x human" width="14.3" height="15.5"/>
</g>
<g>
	<path id="Right_Lateral_Thigh_71" class="st0_15x human" d="M100.4,363.4H90.1c-0.2-4.7,0-9.8,0.8-15.5h9.5V363.4z"/>
</g>
<g>
	<rect id="Right_Lateral_Thigh_70" x="100.4" y="363.4" class="st0_15x human" width="14.3" height="15.5"/>
</g>
<g>
	<path id="Right_Lateral_Thigh_69" class="st0_15x human" d="M100.4,378.9h-7.7c-1.3-4.4-2.3-9.6-2.6-15.5h10.3V378.9z"/>
</g>
<g>
	<path id="Right_Lateral_Thigh_68" class="st0_15x human" d="M181.7,367.9L181.7,367.9c0,0,0.4,4.7,0.9,11h-10.7v-12.8
		C176.6,367.7,181.7,367.9,181.7,367.9L181.7,367.9z"/>
</g>
<g>
	<path id="Right_Lateral_Thigh_67" class="st0_15x human" d="M143.3,332.4H129v-12.8c4.5,1.1,9.5,2.9,14.3,5.2V332.4z"/>
</g>
<g>
	<path id="Right_Lateral_Thigh_66" class="st0_15x human" d="M129,319.6v12.8h-14.3v-13.8c0.1,0,0.1,0,0.2-0.1
		C117,317.6,122.4,318,129,319.6z"/>
</g>
<g>
	<rect id="Right_Lateral_Thigh_65" x="129" y="332.4" class="st0_15x human" width="14.3" height="15.5"/>
</g>
<g>
	<rect id="Right_Lateral_Thigh_64" x="114.7" y="332.4" class="st0_15x human" width="14.3" height="15.5"/>
</g>
<g>
	<path id="Right_Lateral_Thigh_63" class="st0_15x human" d="M143.3,332.4v-7.6c4.3,2.1,8.4,4.6,12,7.6H143.3z"/>
</g>
<g>
	<path id="Right_Lateral_Thigh_62" class="st0_15x human" d="M163.5,347.9h-5.9v-13.3C161.1,338.2,162.7,343.2,163.5,347.9z"/>
</g>
<g>
	<path id="Right_Lateral_Thigh_61" class="st0_15x human" d="M157.2,334.2c0.1,0.1,0.2,0.3,0.4,0.4V348h-14.3v-15.5h12
		C155.9,333,156.6,333.6,157.2,334.2z"/>
</g>
<g>
	<rect id="Right_Lateral_Thigh_60" x="129" y="347.9" class="st0_15x human" width="14.3" height="15.5"/>
</g>
<g>
	<rect id="Right_Lateral_Thigh_59" x="114.7" y="347.9" class="st0_15x human" width="14.3" height="15.5"/>
</g>
<g>
	<rect id="Right_Lateral_Thigh_58" x="129" y="363.4" class="st0_15x human" width="14.3" height="15.5"/>
</g>
<g>
	<rect id="Right_Lateral_Thigh_57" x="114.7" y="363.4" class="st0_15x human" width="14.3" height="15.5"/>
</g>
<g>
	<path id="Right_Lateral_Thigh_56" class="st0_15x human" d="M164.4,360.4c0.4,1.2,1.2,2.2,2.2,3h-9.1v-15.5h5.9
		C164.5,353.9,164.1,359.3,164.4,360.4z"/>
</g>
<g>
	<rect id="Right_Lateral_Thigh_55" x="143.3" y="347.9" class="st0_15x human" width="14.3" height="15.5"/>
</g>
<g>
	<path id="Right_Lateral_Thigh_54" class="st0_15x human" d="M171.9,366.1v12.8h-14.3v-15.5h9.1C168,364.6,169.9,365.5,171.9,366.1z"/>
</g>
<g>
	<rect id="Right_Lateral_Thigh_53" x="143.3" y="363.4" class="st0_15x human" width="14.3" height="15.5"/>
</g>
<g>
	<rect id="Right_Lateral_Thigh_52" x="100.4" y="378.9" class="st0_15x human" width="14.3" height="15.5"/>
</g>
<g>
	<path id="Right_Lateral_Thigh_51" class="st0_15x human" d="M100.4,394.4h-1.5c-1.6-3.6-4.2-8.6-6.2-15.5h7.7V394.4z"/>
</g>
<g>
	<path id="Right_Lateral_Thigh_50" class="st0_15x human" d="M114.7,394.4v15.5h-14.1c0-4.1,0-7.6-0.2-10v-5.5H114.7z"/>
</g>
<g>
	<path id="Right_Lateral_Thigh_49" class="st0_15x human" d="M100.4,399.9c-0.1-1.3-0.3-2.3-0.5-3s-0.6-1.5-1-2.5h1.5V399.9z"/>
</g>
<g>
	<path id="Right_Lateral_Thigh_48" class="st0_15x human" d="M114.7,409.9v15.5h-14.3v-3.2c0.1-4.4,0.2-8.6,0.2-12.3H114.7z"/>
</g>
<g>
	<rect id="Right_Lateral_Thigh_47" x="100.4" y="425.4" class="st0_15x human" width="14.3" height="15.5"/>
</g>
<g>
	<rect id="Right_Lateral_Thigh_46" x="100.4" y="440.9" class="st0_15x human" width="14.3" height="15.5"/>
</g>
<g>
	<path id="Right_Lateral_Thigh_45" class="st0_15x human" d="M114.7,456.4v15.5h-11.8c-1-2.6-1.8-5.2-2.3-7.3c-0.1-0.3-0.1-0.6-0.2-1v-7.3
		L114.7,456.4L114.7,456.4z"/>
</g>
<g>
	<path id="Right_Lateral_Thigh_44" class="st0_15x human" d="M108.7,487.4c-0.5-2.8-1.4-5.7-2.8-8.4c-1-2-2.1-4.6-3-7.1h11.8v15.5H108.7z"
		/>
</g>
<g>
	<path id="Right_Lateral_Thigh_43" class="st0_15x human" d="M114.7,501.7L109,500c0.6-3.3,0.6-7.9-0.2-12.6h6v14.3H114.7z"/>
</g>
<g>
	<path id="Right_Lateral_Thigh_42" class="st0_15x human" d="M183.6,394.4h-11.8v-15.5h10.7C182.9,383.7,183.3,389.3,183.6,394.4z"/>
</g>
<g>
	<path id="Right_Lateral_Thigh_41" class="st0_15x human" d="M184.1,403.8c-0.1,2-0.3,4-0.5,6.1h-11.8v-15.5h11.8
		C183.9,398,184,401.3,184.1,403.8z"/>
</g>
<g>
	<path id="Right_Lateral_Thigh_40" class="st0_15x human" d="M181.6,425.4h-9.8v-15.5h11.8C183.2,415.1,182.4,420.4,181.6,425.4z"/>
</g>
<g>
	<path id="Right_Lateral_Thigh_39" class="st0_15x human" d="M178.8,440.9h-6.9v-15.5h9.8C180.7,431.1,179.7,436.4,178.8,440.9z"/>
</g>
<g>
	<rect id="Right_Lateral_Thigh_38" x="129" y="378.9" class="st0_15x human" width="14.3" height="15.5"/>
</g>
<g>
	<rect id="Right_Lateral_Thigh_37" x="114.7" y="378.9" class="st0_15x human" width="14.3" height="15.5"/>
</g>
<g>
	<rect id="Right_Lateral_Thigh_36" x="129" y="394.4" class="st0_15x human" width="14.3" height="15.5"/>
</g>
<g>
	<rect id="Right_Lateral_Thigh_35" x="114.7" y="394.4" class="st0_15x human" width="14.3" height="15.5"/>
</g>
<g>
	<rect id="Right_Lateral_Thigh_34" x="157.6" y="378.9" class="st0_15x human" width="14.3" height="15.5"/>
</g>
<g>
	<rect id="Right_Lateral_Thigh_33" x="143.3" y="378.9" class="st0_15x human" width="14.3" height="15.5"/>
</g>
<g>
	<rect id="Right_Lateral_Thigh_32" x="157.6" y="394.4" class="st0_15x human" width="14.3" height="15.5"/>
</g>
<g>
	<rect id="Right_Lateral_Thigh_31" x="143.3" y="394.4" class="st0_15x human" width="14.3" height="15.5"/>
</g>
<g>
	<rect id="Right_Lateral_Thigh_30" x="129" y="409.9" class="st0_15x human" width="14.3" height="15.5"/>
</g>
<g>
	<rect id="Right_Lateral_Thigh_29" x="114.7" y="409.9" class="st0_15x human" width="14.3" height="15.5"/>
</g>
<g>
	<rect id="Right_Lateral_Thigh_28" x="129" y="425.4" class="st0_15x human" width="14.3" height="15.5"/>
</g>
<g>
	<rect id="Right_Lateral_Thigh_27" x="114.7" y="425.4" class="st0_15x human" width="14.3" height="15.5"/>
</g>
<g>
	<rect id="Right_Lateral_Thigh_26" x="157.6" y="409.9" class="st0_15x human" width="14.3" height="15.5"/>
</g>
<g>
	<rect id="Right_Lateral_Thigh_25" x="143.3" y="409.9" class="st0_15x human" width="14.3" height="15.5"/>
</g>
<g>
	<rect id="Right_Lateral_Thigh_24" x="157.6" y="425.4" class="st0_15x human" width="14.3" height="15.5"/>
</g>
<g>
	<rect id="Right_Lateral_Thigh_23" x="143.3" y="425.4" class="st0_15x human" width="14.3" height="15.5"/>
</g>
<g>
	<path id="Right_Lateral_Thigh_22" class="st0_15x human" d="M177.9,445.1c-0.8,3.8-2.5,10.9-2.6,11.3h-3.4v-15.5h6.9
		C178.5,442.4,178.2,443.8,177.9,445.1z"/>
</g>
<g>
	<path id="Right_Lateral_Thigh_21" class="st0_15x human" d="M171.9,468.1v-11.7h3.4C174.7,458.3,172.9,464.5,171.9,468.1z"/>
</g>
<g>
	<rect id="Right_Lateral_Thigh_20" x="129" y="440.9" class="st0_15x human" width="14.3" height="15.5"/>
</g>
<g>
	<rect id="Right_Lateral_Thigh_19" x="114.7" y="440.9" class="st0_15x human" width="14.3" height="15.5"/>
</g>
<g>
	<rect id="Right_Lateral_Thigh_18" x="129" y="456.4" class="st0_15x human" width="14.3" height="15.5"/>
</g>
<g>
	<rect id="Right_Lateral_Thigh_17" x="114.7" y="456.4" class="st0_15x human" width="14.3" height="15.5"/>
</g>
<g>
	<rect id="Right_Lateral_Thigh_16" x="157.6" y="440.9" class="st0_15x human" width="14.3" height="15.5"/>
</g>
<g>
	<rect id="Right_Lateral_Thigh_15" x="143.3" y="440.9" class="st0_15x human" width="14.3" height="15.5"/>
</g>
<g>
	<path id="Right_Lateral_Thigh_14" class="st0_15x human" d="M171.9,468.1c-0.6,2.2-0.6,1.6-1.2,3.8h-13.1v-15.5h14.3V468.1z"/>
</g>
<g>
	<rect id="Right_Lateral_Thigh_13" x="143.3" y="456.4" class="st0_15x human" width="14.3" height="15.5"/>
</g>
<g>
	<rect id="Right_Lateral_Thigh_12" x="129" y="471.9" class="st0_15x human" width="14.3" height="15.5"/>
</g>
<g>
	<rect id="Right_Lateral_Thigh_11" x="114.7" y="471.9" class="st0_15x human" width="14.3" height="15.5"/>
</g>
<g>
	<rect id="Right_Lateral_Thigh_10" x="129" y="487.4" class="st0_15x human" width="14.3" height="15.5"/>
</g>
<g>
	<polygon id="Right_Lateral_Thigh_09" class="st0_15x human" points="118.6,502.9 114.7,501.7 114.7,487.4 129,487.4 129,502.9 	"/>
</g>
<g>
	<path id="Right_Lateral_Thigh_08" class="st0_15x human" d="M166.8,484c-0.4,1.1-0.7,2.3-1.1,3.4h-8.2v-15.5h13.1
		C168.8,478.2,166.8,484,166.8,484z"/>
</g>
<g>
	<rect id="Right_Lateral_Thigh_07" x="143.3" y="471.9" class="st0_15x human" width="14.3" height="15.5"/>
</g>
<g>
	<path id="Right_Lateral_Thigh_06" class="st0_15x human" d="M160.9,502.9h-3.3v-15.5h8.2C164,493,162.3,498.4,160.9,502.9z"/>
</g>
<g>
	<rect id="Right_Lateral_Thigh_05" x="143.3" y="487.4" class="st0_15x human" width="14.3" height="15.5"/>
</g>
<g>
	<polygon id="Right_Lateral_Thigh_04" class="st0_15x human" points="129,506 129,502.9 143.3,502.9 143.3,510.3 	"/>
</g>
<g>
	<polygon id="Right_Lateral_Thigh_03" class="st0_15x human" points="118.6,502.9 129,502.9 129,506 	"/>
</g>
<g>
	<path id="Right_Lateral_Thigh_02" class="st0_15x human" d="M157.6,513.3V503h3.3C159.3,507.7,158.1,511.5,157.6,513.3z"/>
</g>
<g>
	<path id="Right_Lateral_Thigh_01" class="st0_15x human" d="M157.6,513.3c-0.2,0.7-0.4,1.2-0.4,1.2l-13.9-4.1V503h14.3L157.6,513.3
		L157.6,513.3z"/>
</g>
<g>
	<path id="Right_lateral_Wrist_06" class="st0_15x human" d="M59.5,359.9c0.1,1.3,0.1,2.5,0.1,3.5h-2.2v-2.2
		C58.2,360.8,58.9,360.4,59.5,359.9z"/>
</g>
<g>
	<path id="Right_lateral_Wrist_05" class="st0_15x human" d="M60,366.7c0.5,2,1.4,3.1,3.2,5.3c-0.7,1.8-2.8,3.2-5.7,4.2v-12.7h2.2
		C59.7,364.8,59.8,365.9,60,366.7z"/>
</g>
<g>
	<path id="Right_lateral_Wrist_04" class="st0_15x human" d="M51.9,363c0.7-0.1,1.4-0.3,2.1-0.5c1.2-0.3,2.3-0.8,3.4-1.3v2.2h-9.6
		c0.3,0,0.5,0,0.8,0C49.7,363.3,50.9,363.2,51.9,363z"/>
</g>
<g>
	<path id="Right_lateral_Wrist_03" class="st0_15x human" d="M38.9,362.7c0.6,0.1,1.3,0.3,2,0.4s1.4,0.2,2.1,0.3h0.1v0.1h-11
		c0-1.4,0-2.9,0.1-4.8C32.4,360.3,35.1,361.8,38.9,362.7z"/>
</g>
<g>
	<path id="Right_lateral_Wrist_02" class="st0_15x human" d="M44.6,363.4c0.2,0,0.4,0,0.6,0c0.4,0,0.7,0,1.1,0c0.5,0,1,0,1.5,0h9.6v12.7
		c-4,1.4-9.5,2.1-14.3,1.9v-14.6H44.6z"/>
</g>
<g>
	<path id="Right_lateral_Wrist_01" class="st0_15x human" d="M43.2,378c-5.7-0.2-10.6-1.4-11.2-3.8c0.2-3.8,0.2-5.7,0.2-10.8h11V378z"/>
</g>
<g>
	<path id="Right_lateral_Forearrm_20" class="st0_15x human" d="M72.7,279.9c0-0.4,0.3,2,0.3,6h-1.3v-5.4
		C72.4,280.3,72.7,280.1,72.7,279.9z"/>
</g>
<g>
	<path id="Right_lateral_Forearrm_19" class="st0_15x human" d="M71.8,285.9H57.5v-3.2c6.4-0.6,12.1-1.5,14.3-2.2V285.9z"/>
</g>
<g>
	<path id="Right_lateral_Forearrm_18" class="st0_15x human" d="M71.8,301.4L71.8,301.4l-0.1-15.5H73C73,289.8,72.8,295.3,71.8,301.4z"/>
</g>
<g>
	<rect id="Right_lateral_Forearrm_17" x="57.5" y="285.9" class="st0_15x human" width="14.3" height="15.5"/>
</g>
<g>
	<path id="Right_lateral_Forearrm_16" class="st0_15x human" d="M71.8,301.9c-0.8,4.8-2.1,10-4.2,15H57.5v-15.5h14.3V301.9z"/>
</g>
<g>
	<path id="Right_lateral_Forearrm_15" class="st0_15x human" d="M57.5,285.9H43.2v-2.4c4.4,0,9.5-0.3,14.3-0.8V285.9z"/>
</g>
<g>
	<path id="Right_lateral_Forearrm_14" class="st0_15x human" d="M43.2,283.5v2.4H32c0-3.6,0.1-5.4,0.2-4.5C32.4,282.9,37,283.5,43.2,283.5
		z"/>
</g>
<g>
	<rect id="Right_lateral_Forearrm_13" x="43.2" y="285.9" class="st0_15x human" width="14.3" height="15.5"/>
</g>
<g>
	<path id="Right_lateral_Forearrm_12" class="st0_15x human" d="M43.2,301.4H32c0-6.4,0-11.9,0-15.5h11.1v15.5H43.2z"/>
</g>
<g>
	<rect id="Right_lateral_Forearrm_11" x="43.2" y="301.4" class="st0_15x human" width="14.3" height="15.5"/>
</g>
<g>
	<path id="Right_lateral_Forearrm_10" class="st0_15x human" d="M43.2,316.9H32.1c0-5.4-0.1-10.7-0.1-15.5h11.1v15.5H43.2z"/>
</g>
<g>
	<path id="Right_lateral_Forearrm_09" class="st0_15x human" d="M67.4,317.2c-2.5,5.9-4.3,10.8-5.7,15.3h-4.3V317h10.1
		C67.5,317,67.5,317.1,67.4,317.2z"/>
</g>
<g>
	<path id="Right_lateral_Forearrm_08" class="st0_15x human" d="M59.3,347.9h-1.8v-15.5h4.3C60.3,337.6,59.5,342.4,59.3,347.9z"/>
</g>
<g>
	<path id="Right_lateral_Forearrm_07" class="st0_15x human" d="M59.5,359.9L59.5,359.9L59.5,359.9c-0.6,0.5-1.3,0.9-2.1,1.3v-13.3h1.8
		C59.1,351.5,59.2,355.4,59.5,359.9z"/>
</g>
<g>
	<rect id="Right_lateral_Forearrm_06" x="43.2" y="316.9" class="st0_15x human" width="14.3" height="15.5"/>
</g>
<g>
	<path id="Right_lateral_Forearrm_041" class="st0_15x human" d="M43.2,332.4h-11c0-5,0-10.3-0.1-15.5h11.1V332.4z"/>
</g>
<g>
	<rect id="Right_lateral_Forearrm_04" x="43.2" y="332.4" class="st0_15x human" width="14.3" height="15.5"/>
</g>
<g>
	<path id="Right_lateral_Forearrm_03" class="st0_15x human" d="M43.2,347.9h-11c0-4.5,0-9.9-0.1-15.5h11L43.2,347.9L43.2,347.9z"/>
</g>
<g>
	<path id="Right_lateral_Forearrm_02" class="st0_15x human" d="M57.5,361.2c-1,0.5-2.2,1-3.4,1.3c-0.7,0.2-1.4,0.4-2.1,0.5
		c-1.1,0.2-2.2,0.3-3.3,0.4c-0.3,0-0.5,0-0.8,0h-3.2c-0.5,0-1-0.1-1.5-0.1v-15.4h14.3V361.2z"/>
</g>
<g>
	<path id="Right_lateral_Forearrm_01" class="st0_15x human" d="M43.2,363.3L43.2,363.3c-0.8-0.1-1.5-0.2-2.2-0.3c-0.7-0.1-1.3-0.2-2-0.4
		c-3.8-0.9-6.6-2.3-6.8-4.1c0-2.5,0-6.2,0-10.7h10.9L43.2,363.3L43.2,363.3z"/>
</g>
<g>
	<path id="Right_lateral_Elbow_06" class="st0_15x human" d="M71.8,264.4v6.1H57.5v-3.9C63.2,266.6,68.6,266,71.8,264.4z"/>
</g>
<g>
	<path id="Right_lateral_Elbow_05" class="st0_15x human" d="M71.8,280.5c-2.2,0.7-7.9,1.6-14.3,2.2v-12.3h14.3V280.5z"/>
</g>
<g>
	<path id="Right_lateral_Elbow_04" class="st0_15x human" d="M47.1,265.5c0.4,0.1,0.8,0.1,1.2,0.2c0.2,0,0.4,0.1,0.6,0.1s0.5,0.1,0.7,0.1
		c0.3,0,0.7,0.1,1,0.1c0.1,0,0.3,0,0.5,0.1c0.4,0,0.8,0.1,1.2,0.1c0.2,0,0.4,0,0.5,0c0.3,0,0.6,0.1,1,0.1c1.2,0.1,2.5,0.2,3.7,0.2
		v3.9H43.2v-5.7C44.4,265,45.7,265.3,47.1,265.5L47.1,265.5z"/>
</g>
<g>
	<path id="Right_lateral_Elbow_03" class="st0_15x human" d="M43.2,264.7v5.7H32.3c0.2-4.7,0.6-9.3,0.9-10.5c0,0.1,0,0.2,0,0.2
		C34.1,261.9,38.1,263.5,43.2,264.7z"/>
</g>
<g>
	<path id="Right_lateral_Elbow_02" class="st0_15x human" d="M57.5,282.7c-4.8,0.4-9.9,0.7-14.3,0.8v-13.1h14.3V282.7z"/>
</g>
<g>
	<path id="Right_lateral_Elbow_01" class="st0_15x human" d="M43.2,283.5c-6.1,0-10.8-0.5-11-2.1c-0.2-2.1-0.1-6.6,0.1-11h10.9V283.5z"/>
</g>
<g>
	<path id="Right_Lateral_acromial_27" class="st0_15x human" d="M114.7,154.8v7.1h-14.3v-6.6c2.7-0.7,5.5-1.1,8.2-1.1
		C110.5,154.3,112.6,154.4,114.7,154.8z"/>
</g>
<g>
	<path id="Right_Lateral_acromial_26" class="st0_15x human" d="M86.6,161.9c4.2-3,9-5.3,13.8-6.6v6.6H86.6z"/>
</g>
<g>
	<path id="Right_Lateral_acromial_25" class="st0_15x human" d="M73.5,177.4c2.7-5.9,7.2-11.1,12.6-15.1v15.1H73.5z"/>
</g>
<g>
	<path id="Right_Lateral_acromial_24" class="st0_15x human" d="M86.1,177.4v15.5H71.8v-10.8c0.4-1.6,1-3.2,1.7-4.7H86.1z"/>
</g>
<g>
	<path id="Right_Lateral_acromial_23" class="st0_15x human" d="M71.4,192.9c-0.2-0.5-0.3-1-0.4-1.4c-0.1-0.9-0.2-1.7-0.2-2.6
		c0-2.3,0.3-4.6,0.9-6.8v10.8H71.4z"/>
</g>
<g>
	<rect id="Right_Lateral_acromial_22" x="100.4" y="161.9" class="st0_15x human" width="14.3" height="15.5"/>
</g>
<g>
	<path id="Right_Lateral_acromial_21" class="st0_15x human" d="M100.4,161.9v15.5H86.1v-15.1c0.2-0.1,0.3-0.2,0.5-0.4
		C86.6,161.9,100.4,161.9,100.4,161.9z"/>
</g>
<g>
	<path id="Right_Lateral_acromial_20" class="st0_15x human" d="M114.7,184.6c-1-0.1-2-0.2-3-0.2c-4.2,0-8.1,1.1-11.3,2.8v-9.8h14.3V184.6
		z"/>
</g>
<g>
	<path id="Right_Lateral_acromial_19" class="st0_15x human" d="M100.4,187.3c-2.6,1.5-4.8,3.4-6.2,5.7h-8.1v-15.5h14.3V187.3z"/>
</g>
<g>
	<path id="Right_Lateral_acromial_18" class="st0_15x human" d="M83.9,208.4c-5-3.5-9.1-7.5-10.7-11c-0.6-1.3-1.1-2.5-1.4-3.5v-1h14.3
		v15.5H83.9z"/>
</g>
<g>
	<path id="Right_Lateral_acromial_17" class="st0_15x human" d="M86.1,209.9c-0.7-0.5-1.4-0.9-2.1-1.4h2.1V209.9z"/>
</g>
<g>
	<path id="Right_Lateral_acromial_16" class="st0_15x human" d="M91.9,200c0,3.1,1.1,6,3.1,8.4h-9v-15.5h8.1
		C92.7,195.1,91.9,197.5,91.9,200z"/>
</g>
<g>
	<path id="Right_Lateral_acromial_15" class="st0_15x human" d="M114.1,218.8c-3.5,0.1-11.9-1.8-13.2-2.2c-0.2,0-0.3-0.1-0.5-0.1v-3.7
		c3,1.7,7.4,3.3,14.3,2.7C114.7,215.6,114.1,218.8,114.1,218.8z"/>
</g>
<g>
	<path id="Right_Lateral_acromial_14" class="st0_15x human" d="M100.4,212.8v3.7c-0.6-0.2-1.1-0.3-1.7-0.5c-4.1-1.4-8.6-3.6-12.6-6.2
		v-1.4h9C96.4,210.2,98.2,211.7,100.4,212.8z"/>
</g>
<g>
	<path id="Right_Lateral_acromial_13" class="st0_15x human" d="M129,161.9v-2.4c1.5,0.7,2.9,1.5,4.2,2.4H129z"/>
</g>
<g>
	<path id="Right_Lateral_acromial_12" class="st0_15x human" d="M129,161.9h-14.3v-7.1c4.8,0.8,9.7,2.4,14.3,4.7V161.9z"/>
</g>
<g>
	<path id="Right_Lateral_acromial_11" class="st0_15x human" d="M143.3,170.8v6.6H129v-15.5h4.2C137.1,164.4,140.5,167.4,143.3,170.8z"/>
</g>
<g>
	<rect id="Right_Lateral_acromial_10" x="114.7" y="161.9" class="st0_15x human" width="14.3" height="15.5"/>
</g>
<g>
	<path id="Right_Lateral_acromial_09" class="st0_15x human" d="M143.3,192.9h-14c-0.1-0.1-0.2-0.3-0.3-0.4v-15.1h14.3V192.9z"/>
</g>
<g>
	<path id="Right_Lateral_acromial_08" class="st0_15x human" d="M129,192.5c-2.9-4.2-8.1-7.1-14.3-7.9v-7.2H129V192.5z"/>
</g>
<g>
	<path id="Right_Lateral_acromial_07" class="st0_15x human" d="M143.3,177.4v-6.6c1.7,2.1,3,4.3,4,6.6H143.3z"/>
</g>
<g>
	<path id="Right_Lateral_acromial_06" class="st0_15x human" d="M149.2,186.4c0,2.2-0.2,4.4-0.7,6.5h-5.3v-15.5h4
		C148.5,180.3,149.2,183.3,149.2,186.4z"/>
</g>
<g>
	<path id="Right_Lateral_acromial_05" class="st0_15x human" d="M129.2,192.9h14v11.9c-0.9,1.3-1.9,2.5-3,3.6h-11.3v-0.8
		c1.6-2.2,2.5-4.8,2.5-7.6C131.4,197.5,130.6,195.1,129.2,192.9z"/>
</g>
<g>
	<path id="Right_Lateral_acromial_04" class="st0_15x human" d="M140.3,208.4c-3.2,3.3-7,6-11.3,7.8v-7.8H140.3z"/>
</g>
<g>
	<path id="Right_Lateral_acromial_03" class="st0_15x human" d="M129,216.2c-4.1,1.7-8.5,2.7-13.1,2.7c-0.4,0-1.4-0.1-1.8-0.1l0.6-3.3
		c0,0,0.1,0,0.5-0.1c5.5-0.8,10.3-3.4,13.2-7h0.6V216.2z"/>
</g>
<g>
	<path id="Right_Lateral_acromial_02" class="st0_15x human" d="M143.3,204.8v-11.9h5.3C147.6,197.3,145.8,201.3,143.3,204.8z"/>
</g>
<g>
	<path id="Right_Lateral_acromial_01" class="st0_15x human" d="M128.3,208.4c0.2-0.3,0.4-0.5,0.6-0.8v0.8H128.3z"/>
</g>
<g>
	<path id="Right_lateral_Upperarrm_23" class="st0_15x human" d="M40,239.4c1-2.5,2.1-5,3.2-7.4v7.4H40z"/>
</g>
<g>
	<path id="Right_lateral_Upperarrm_22" class="st0_15x human" d="M67.5,192.9c1.2-1.7,2.2-3.1,2.8-3.9c0.2-0.3,0.3,0.6,0.7,2.5
		c0.1,0.5,0.2,0.9,0.3,1.4H67.5z"/>
</g>
<g>
	<rect id="Right_lateral_Upperarrm_21" x="57.5" y="208.4" class="st0_15x human" width="14.3" height="15.5"/>
</g>
<g>
	<path id="Right_lateral_Upperarrm_20" class="st0_15x human" d="M112.9,218.8c-1.1,1.7-2.3,3.4-3.4,5.1h-9.1v-7.4c0.2,0,0.3,0.1,0.5,0.1
		C104.8,217.6,109.2,218.4,112.9,218.8z"/>
</g>
<g>
	<rect id="Right_lateral_Upperarrm_19" x="71.8" y="223.9" class="st0_15x human" width="14.3" height="15.5"/>
</g>
<g>
	<rect id="Right_lateral_Upperarrm_18" x="57.5" y="223.9" class="st0_15x human" width="14.3" height="15.5"/>
</g>
<g>
	<path id="Right_lateral_Upperarrm_17" class="st0_15x human" d="M86.1,250.6c-1.5,1.5-2.9,2.9-4.3,4.3h-10v-15.5h14.3V250.6z"/>
</g>
<g>
	<rect id="Right_lateral_Upperarrm_16" x="57.5" y="239.4" class="st0_15x human" width="14.3" height="15.5"/>
</g>
<g>
	<path id="Right_lateral_Upperarrm_15" class="st0_15x human" d="M105.9,229.6c-0.6,1-2.7,3.3-5.5,6.4v-12h9.2
		C108,226.2,106.6,228.3,105.9,229.6z"/>
</g>
<g>
	<path id="Right_lateral_Upperarrm_14" class="st0_15x human" d="M100.4,235.9c-1,1.1-2.1,2.3-3.3,3.5h-11v-15.5h14.3V235.9z"/>
</g>
<g>
	<path id="Right_lateral_Upperarrm_13" class="st0_15x human" d="M86.1,250.6v-11.2h11C93.7,242.9,89.8,246.9,86.1,250.6z"/>
</g>
<g>
	<path id="Right_lateral_Upperarrm_12" class="st0_15x human" d="M57.5,223.9H47.1c2.4-4.5,5.9-10.1,9.6-15.5h0.8V223.9z"/>
</g>
<g>
	<path id="Right_lateral_Upperarrm_11" class="st0_15x human" d="M47.1,223.9h10.4v15.5H43.2V232c1.1-2.4,2.1-4.6,3.2-6.6
		C46.6,224.9,46.8,224.4,47.1,223.9z"/>
</g>
<g>
	<rect id="Right_lateral_Upperarrm_10" x="43.2" y="239.4" class="st0_15x human" width="14.3" height="15.5"/>
</g>
<g>
	<path id="Right_lateral_Upperarrm_09" class="st0_15x human" d="M43.2,254.9h-8.9c1.2-4.2,3.3-9.9,5.7-15.5h3.2
		C43.2,239.4,43.2,254.9,43.2,254.9z"/>
</g>
<g>
	<path id="Right_lateral_Upperarrm_08" class="st0_15x human" d="M72.5,263.9c-0.2,0.1-0.5,0.3-0.8,0.4v-9.4h10
		C76.8,259.9,72.9,263.6,72.5,263.9z"/>
</g>
<g>
	<path id="Right_lateral_Upperarrm_07" class="st0_15x human" d="M57.5,266.5V255h14.3v9.4C68.1,266,62.9,266.6,57.5,266.5z"/>
</g>
<g>
	<path id="Right_lateral_Upperarrm_06" class="st0_15x human" d="M57.5,266.5c-1.2,0-2.4-0.1-3.7-0.2c-0.3,0-0.6-0.1-1-0.1
		c-0.2,0-0.4,0-0.5,0c-0.4,0-0.8-0.1-1.2-0.1c-0.2,0-0.3,0-0.5-0.1c-0.3,0-0.7-0.1-1-0.1c-0.2,0-0.5-0.1-0.7-0.1s-0.4-0.1-0.6-0.1
		c-0.4-0.1-0.8-0.1-1.2-0.2c0,0,0,0-0.1,0c-1.4-0.2-2.7-0.5-3.9-0.8v-9.8h14.3L57.5,266.5L57.5,266.5z"/>
</g>
<g>
	<path id="Right_lateral_Upperarrm_05" class="st0_15x human" d="M43.2,264.7c-5.8-1.3-10-3.2-9.9-5c0,0,0,0.1-0.1,0.2
		c0.1-1.2,0.5-2.9,1.1-5h8.9V264.7z"/>
</g>
<g>
	<path id="Right_lateral_Upperarrm_04" class="st0_15x human" d="M73.2,197.4c1.7,3.5,5.7,7.5,10.7,11H83H71.7v-13.9v-0.7
		C72.1,194.9,72.6,196.1,73.2,197.4z"/>
</g>
<g>
	<path id="Right_lateral_Upperarrm_03" class="st0_15x human" d="M67.5,192.9h3.8h0.1h0.3v1v0.7v13.9H57.4v-1.2
		C61.2,201.7,64.9,196.5,67.5,192.9z"/>
</g>
<g>
	<path id="Right_lateral_Upperarrm_02" class="st0_15x human" d="M83,208.4h0.9c0.7,0.5,1.4,1,2.1,1.4v0.5v13.5H71.7v-15.5H83V208.4z"/>
</g>
<g>
	<path id="Right_lateral_Upperarrm_01" class="st0_15x human" d="M98.7,216c0.6,0.2,1.1,0.4,1.7,0.5v7.4H86.1v-13.5v-0.5
		C90.1,212.4,94.6,214.6,98.7,216z"/>
</g>
<g>
	<path id="Right_armpit_11" class="st0_15x human" d="M114.7,184.6v8.3h-14.3v-5.7c3.2-1.8,7.1-2.8,11.3-2.8
		C112.7,184.4,113.7,184.5,114.7,184.6z"/>
</g>
<g>
	<path id="Right_armpit_10" class="st0_15x human" d="M94.1,192.9c1.5-2.3,3.6-4.2,6.2-5.7v5.7H94.1z"/>
</g>
<g>
	<rect id="Right_armpit_09" x="100.4" y="192.9" class="st0_15x human" width="14.3" height="15.5"/>
</g>
<g>
	<path id="Right_armpit_08" class="st0_15x human" d="M100.4,208.4h-5.3c-2-2.4-3.1-5.3-3.1-8.4c0-2.6,0.8-5,2.2-7.1h6.2L100.4,208.4
		L100.4,208.4z"/>
</g>
<g>
	<path id="Right_armpit_07" class="st0_15x human" d="M114.7,215.5c0,0-1.4,0.2-3.7,0.1c-3.9-0.1-7.6-1.1-10.6-2.8v-4.4h14.3V215.5z"/>
</g>
<g>
	<path id="Right_armpit_06" class="st0_15x human" d="M100.4,212.8c-2.1-1.2-3.9-2.7-5.3-4.4h5.3V212.8z"/>
</g>
<g>
	<path id="Right_armpit_05" class="st0_15x human" d="M129,192.5v0.4h-14.3v-8.3C120.8,185.4,126,188.3,129,192.5z"/>
</g>
<g>
	<path id="Right_armpit_04" class="st0_15x human" d="M131.4,200c0,2.7-0.9,5.3-2.5,7.6v-14.7h0.3C130.6,195.1,131.4,197.5,131.4,200z"/>
</g>
<g>
	<path id="Right_armpit_03" class="st0_15x human" d="M129,207.6c-0.2,0.3-0.4,0.5-0.6,0.8h-13.7v-15.5H129V207.6z"/>
</g>
<g>
	<path id="Right_armpit_02" class="st0_15x human" d="M115.2,215.4l-0.5,0.1v-7.1h13.7C125.4,212,120.7,214.6,115.2,215.4z"/>
</g>
<g>
	<path id="Right_armpit_01" class="st0_15x human" d="M129,192.9v-0.4c0.1,0.1,0.2,0.3,0.3,0.4H129z"/>
</g>
<g>
	<path id="Left_median_Wrist_07" class="st0_15x human" d="M286,298.5c0.3,0.1,0.5,0.3,0.8,0.4c1.9,0.8,1.6,0.7,4.4,0.5
		c0.4,0.6,0.6,1.4,0.7,2.2H286V298.5z"/>
</g>
<g>
	<path id="Left_median_Wrist_06" class="st0_15x human" d="M292,301.5c0.4,3.9-2.4,9.8-5.9,14.4v-14.4H292z"/>
</g>
<g>
	<path id="Left_median_Wrist_05" class="st0_15x human" d="M281.6,301.5c0.4-1.7,0.5-4.2,0.5-5.7c1.9,1.2,2.9,2.2,3.9,2.6v3.1H281.6
		L281.6,301.5z"/>
</g>
<g>
	<path id="Left_median_Wrist_04" class="st0_15x human" d="M271.7,317v-1.7c3.9-2.3,8.3-7.9,9.9-13.8h4.4v14.4c-0.3,0.4-0.6,0.7-0.8,1.1
		H271.7z"/>
</g>
<g>
	<path id="Left_median_Wrist_03" class="st0_15x human" d="M267.3,316.1c0.1,0,0.1,0,0.2,0.1c0.1,0.1,0.2,0.1,0.3,0.2c1,0.4,2.4-0.1,3.9-1
		v1.7h-2.9C268.4,316.8,267.9,316.5,267.3,316.1z"/>
</g>
<g>
	<path id="Left_median_Wrist_02" class="st0_15x human" d="M285.2,317c-3.3,4-7.1,6.8-9.5,5.9c-1-1.7-2.1-2.8-4-4.1V317H285.2z"/>
</g>
<g>
	<path id="Left_median_Wrist_01" class="st0_15x human" d="M271.7,317v1.8c-0.8-0.5-1.8-1.1-2.9-1.8H271.7z"/>
</g>
<g>
	<path id="Left_median_Forearm_21" class="st0_15x human" d="M223.8,244.9c0.7,0.5,2.5,2,5,4.1v6.1h-8.2
		C222.4,250.2,223.7,246.3,223.8,244.9z"/>
</g>
<g>
	<path id="Left_median_Forearm_20" class="st0_15x human" d="M236,255h-7.1v-6.1C230.8,250.6,233.3,252.6,236,255z"/>
</g>
<g>
	<path id="Left_median_Forearm_19" class="st0_15x human" d="M214.5,270.1c2.3-4.9,4.4-10.5,6.1-15h8.2v15.5h-14.3V270.1z"/>
</g>
<g>
	<rect id="Left_median_Forearm_18" x="214.5" y="270.5" class="st0_15x human" width="14.3" height="15.5"/>
</g>
<g>
	<path id="Left_median_Forearm_17" class="st0_15x human" d="M205.5,284.2c0.2,0,0.4,0,0.6-0.2c1.9-0.8,5.1-6.6,8.3-13.5h0.2V286h-6
		C206.9,285.1,205.8,284.5,205.5,284.2z"/>
</g>
<g>
	<path id="Left_median_Forearm_16" class="st0_15x human" d="M214.5,286h14.3v10.5c-5.3-2.7-10.3-5.2-14.3-7.3V286z"/>
</g>
<g>
	<path id="Left_median_Forearm_15" class="st0_15x human" d="M214.5,286v3.1c-2.4-1.2-4.4-2.3-6-3.1H214.5z"/>
</g>
<g>
	<path id="Left_median_Forearm_14" class="st0_15x human" d="M250.8,269.7c0.3,0.3,0.5,0.6,0.8,0.9h-8.5v-8.8
		C245.7,264.2,248.3,266.9,250.8,269.7z"/>
</g>
<g>
	<path id="Left_median_Forearm_13" class="st0_15x human" d="M228.8,255h7.1c2.3,2,4.7,4.2,7.2,6.7v8.8h-14.3V255z"/>
</g>
<g>
	<path id="Left_median_Forearm_12" class="st0_15x human" d="M243.1,270.5h8.5c2.2,2.4,4.1,4.4,5.8,6.1v9.4h-14.3V270.5z"/>
</g>
<g>
	<rect id="Left_median_Forearm_11" x="228.8" y="270.5" class="st0_15x human" width="14.3" height="15.5"/>
</g>
<g>
	<path id="Left_median_Forearm_10" class="st0_15x human" d="M268.3,286h-10.8v-9.4C261.4,280.6,264.6,283.3,268.3,286z"/>
</g>
<g>
	<rect id="Left_median_Forearm_09" x="243.1" y="286" class="st0_15x human" width="14.3" height="15.5"/>
</g>
<g>
	<path id="Left_median_Forearm_08" class="st0_15x human" d="M228.8,296.5V286h14.3v15.5h-4.4C235.4,299.8,232.1,298.1,228.8,296.5z"/>
</g>
<g>
	<path id="Left_median_Forearm_07" class="st0_15x human" d="M243.1,303.7v-2.2h14.3v9.5C253.1,308.8,248.2,306.3,243.1,303.7z"/>
</g>
<g>
	<path id="Left_median_Forearm_06" class="st0_15x human" d="M243.1,301.5v2.2c-1.4-0.7-2.9-1.5-4.4-2.2H243.1z"/>
</g>
<g>
	<path id="Left_median_Forearm_05" class="st0_15x human" d="M281.6,301.5h-9.9v-13c2.9,2,6.3,4.5,10.4,7.3
		C282.2,296,282.1,299.7,281.6,301.5z"/>
</g>
<g>
	<path id="Left_median_Forearm_04" class="st0_15x human" d="M257.4,301.5V286h10.8c1.1,0.8,2.3,1.6,3.5,2.5v13H257.4z"/>
</g>
<g>
	<path id="Left_median_Forearm_03" class="st0_15x human" d="M281.6,301.5c-1.6,5.9-6.2,11.5-9.9,13.8v-13.8H281.6z"/>
</g>
<g>
	<path id="Left_median_Forearm_02" class="st0_15x human" d="M257.4,301.5h14.3v13.8c-1.7,1-3.2,1.3-4.3,0.8c-2.6-1.4-6-3.2-10-5.2V301.5z
		"/>
</g>
<g>
	<path id="Left_median_Forearm_01" class="st0_15x human" d="M214.5,270.1v0.5h-0.2C214.4,270.4,214.5,270.2,214.5,270.1z"/>
</g>
<g>
	<path id="Left_median_Elbow_09" class="st0_15x human" d="M214.5,237.6c0.9,0.7,1.8,1.3,2.7,2h-2.7V237.6z"/>
</g>
<g>
	<path id="Left_median_Elbow_08" class="st0_15x human" d="M206.2,239.5c0.5-2.9,0.8-5.5,0.6-7.5c0,0,3.8,2.7,7.7,5.5v2H206.2z"/>
</g>
<g>
	<path id="Left_median_Elbow_07" class="st0_15x human" d="M223.6,244.6C223.5,244.6,223.5,244.6,223.6,244.6c0.4,0.8-0.8,5-2.9,10.4h-6.2
		v-15.5h2.7c3.1,2.2,5.8,4.2,6.4,4.8c0.1,0.1,0.1,0.3,0.1,0.6C223.7,244.8,223.7,244.8,223.6,244.6
		C223.6,244.7,223.6,244.6,223.6,244.6z"/>
</g>
<g>
	<path id="Left_median_Elbow_06" class="st0_15x human" d="M206.2,239.5h8.3V255h-13C203.6,249.8,205.3,244.3,206.2,239.5z"/>
</g>
<g>
	<path id="Left_median_Elbow_05" class="st0_15x human" d="M200.2,258.3v12.2h-6.7C195.7,267.8,198.2,263.3,200.2,258.3z"/>
</g>
<g>
	<path id="Left_median_Elbow_04" class="st0_15x human" d="M193.6,270.5h6.7v10.3c-4.6-3.1-10-6.9-11-7.6
		C190.5,273.7,192,272.6,193.6,270.5z"/>
</g>
<g>
	<path id="Left_median_Elbow_03" class="st0_15x human" d="M220.6,255c-1.7,4.4-3.9,10.3-6.1,15v-15H220.6z"/>
</g>
<g>
	<path id="Left_median_Elbow_02" class="st0_15x human" d="M200.2,258.3c0.3-0.7,0.6-1.5,0.9-2.2c0.1-0.4,0.3-0.7,0.4-1.1h13v15
		c-0.2,0.4,0,0-0.2,0.5h-14.1L200.2,258.3L200.2,258.3z"/>
</g>
<g>
	<path id="Left_median_Elbow_01" class="st0_15x human" d="M205.3,284c-1.3-0.7-3.1-1.9-5.1-3.2v-10.3h14.1c-3.2,6.7-6.6,12.4-8.3,13.5
		C205.8,284.2,205.5,284.2,205.3,284z"/>
</g>
<g>
	<path id="Left_median_Upperarm_09" class="st0_15x human" d="M191.5,208.5h-4.4c0-3.7,0.1-6,0.1-6.1C187.6,201.8,189.2,204.5,191.5,208.5
		z"/>
</g>
<g>
	<path id="Left_median_Upperarm_08" class="st0_15x human" d="M187,224c0-6.1,0.1-11.6,0.1-15.5h4.4c1.9,3.4,4.3,7.7,6.8,11.7
		c0.7,1.1,1.3,2.1,1.9,3v0.8H187z"/>
</g>
<g>
	<path id="Left_median_Upperarm_07" class="st0_15x human" d="M187,224h13.3v15.5H187C186.9,234.3,186.9,229,187,224z"/>
</g>
<g>
	<path id="Left_median_Upperarm_06" class="st0_15x human" d="M186.9,239.5h13.3V255h-13.4C186.9,250.4,186.9,245,186.9,239.5z"/>
</g>
<g>
	<path id="Left_median_Upperarm_05" class="st0_15x human" d="M200.2,224h0.5c2.4,3.8,3.6,5.5,5.2,7c1.1,1,1,4.2,0.1,8.5h-5.9L200.2,224
		L200.2,224z"/>
</g>
<g>
	<path id="Left_median_Upperarm_04" class="st0_15x human" d="M200.2,255v-15.5h5.9c-0.9,4.5-2.5,10.1-4.6,15.5H200.2z"/>
</g>
<g>
	<path id="Left_median_Upperarm_03" class="st0_15x human" d="M186.8,255h13.4v3.2c-2.2,5.1-4.5,9.6-6.7,12.3h-6.7
		c-0.1-0.2-0.1-0.3-0.1-0.3S186.8,263.9,186.8,255z"/>
</g>
<g>
	<path id="Left_median_Upperarm_02" class="st0_15x human" d="M189.2,273.2L189.2,273.2c-0.1,0-0.3-0.1-0.5-0.3c-1.2-1-1.6-1.9-1.8-2.3
		h6.7C191.9,272.6,190.3,273.7,189.2,273.2z"/>
</g>
<g>
	<path id="Left_median_Upperarm_01" class="st0_15x human" d="M200.2,255h1.3c-0.1,0.4-0.3,0.7-0.4,1.1c-0.3,0.7-0.6,1.4-0.9,2.1
		L200.2,255L200.2,255z"/>
</g>
<g>
	<path id="Left_median_Foot_31" class="st0_15x human" d="M228.8,669.9v3.7h-12.5c-0.4-1.3-0.8-2.1-0.8-2.1L228.8,669.9z"/>
</g>
<g>
	<path id="Left_median_Foot_30" class="st0_15x human" d="M216.4,673.5h12.5V689h-10.1c0.2-0.5,0.4-1,0.5-1.6
		C219.8,684.2,217.6,677.1,216.4,673.5z"/>
</g>
<g>
	<path id="Left_median_Foot_29" class="st0_15x human" d="M218.7,689h10.1v15.5h-14.3v-9.7C216.2,692.9,217.9,691.2,218.7,689z"/>
</g>
<g>
	<path id="Left_median_Foot_28" class="st0_15x human" d="M214.5,694.8v9.8h-4.7c0.5-2.5,1.1-4.6,1.8-5.7
		C212.4,697.3,213.4,696,214.5,694.8z"/>
</g>
<g>
	<rect id="Left_median_Foot_27" x="214.5" y="704.5" class="st0_15x human" width="14.3" height="15.5"/>
</g>
<g>
	<path id="Left_median_Foot_26" class="st0_15x human" d="M209.8,704.5h4.7V720h-5.1C208.5,715.1,208.9,709.1,209.8,704.5z"/>
</g>
<g>
	<path id="Left_median_Foot_25" class="st0_15x human" d="M228.8,720v11.2c-5.2,0-10.7-0.5-14.3-2.6V720L228.8,720L228.8,720z"/>
</g>
<g>
	<path id="Left_median_Foot_24" class="st0_15x human" d="M214.5,728.6c-0.8-0.5-1.6-1.1-2.2-1.7c-1.5-1.7-2.4-4.1-3-6.8h5.1L214.5,728.6
		L214.5,728.6z"/>
</g>
<g>
	<path id="Left_median_Foot_23" class="st0_15x human" d="M250.7,667.3c0,0,0.6,2.6,1.9,6.3h-9.5v-5.4L250.7,667.3z"/>
</g>
<g>
	<polygon id="Left_median_Foot_22" class="st0_15x human" points="243.1,668.2 243.1,673.5 228.8,673.5 228.8,669.9 	"/>
</g>
<g>
	<path id="Left_median_Foot_21" class="st0_15x human" d="M314.6,715.7v4.4h-14.3v-8.8C305.4,713.1,310.3,714.4,314.6,715.7z"/>
</g>
<g>
	<path id="Left_median_Foot_20" class="st0_15x human" d="M298.7,710.6c0.5,0.2,1.1,0.4,1.6,0.6v8.8H286v-15.1
		C290,706.9,294.3,708.9,298.7,710.6z"/>
	<path id="Left_median_Foot_19" class="st0_15x human" d="M314.6,720v13.2c-3.9,0-9.1-0.6-14.3-1.3V720H314.6z"/>
</g>
<g>
	<path id="Left_median_Foot_18" class="st0_15x human" d="M300.3,720v11.9c-5.1-0.7-10.2-1.7-14.3-2.5V720H300.3z"/>
</g>
<g>
	<path id="Left_median_Foot_17" class="st0_15x human" d="M314.6,715.7c4.5,1.3,8.3,2.6,10.7,4.4h-10.7V715.7z"/>
</g>
<g>
	<path id="Left_median_Foot_16" class="st0_15x human" d="M325.3,720c1.2,0.9,2.1,1.9,2.5,3.2c0.2,4.7-2.1,7.2-7.7,9.3
		c-1.2,0.5-3.1,0.7-5.5,0.7V720H325.3z"/>
</g>
<g>
	<path id="Left_median_Foot_15" class="st0_15x human" d="M257.4,683.8v5.2h-14.3v-15.5h9.5C253.7,676.6,255.3,680.3,257.4,683.8z"/>
</g>
<g>
	<rect id="Left_median_Foot_14" x="228.8" y="673.5" class="st0_15x human" width="14.3" height="15.5"/>
</g>
<g>
	<rect id="Left_median_Foot_13" x="243.1" y="689" class="st0_15x human" width="14.3" height="15.5"/>
</g>
<g>
	<rect id="Left_median_Foot_12" x="228.8" y="689" class="st0_15x human" width="14.3" height="15.5"/>
</g>
<g>
	<path id="Left_median_Foot_11" class="st0_15x human" d="M261.2,689h-3.8v-5.2C258.5,685.7,259.8,687.4,261.2,689z"/>
</g>
<g>
	<path id="Left_median_Foot_10" class="st0_15x human" d="M285.3,704.5h-13.6v-7.6C275.4,699.2,280.1,701.9,285.3,704.5z"/>
</g>
<g>
	<path id="Left_median_Foot_09" class="st0_15x human" d="M261.2,689c1.6,1.8,3.3,3.3,5.3,4.5c1.3,0.9,3.1,2.1,5.3,3.4v7.6h-14.3V689
		H261.2z"/>
</g>
<g>
	<rect id="Left_median_Foot_08" x="243.1" y="704.5" class="st0_15x human" width="14.3" height="15.5"/>
</g>
<g>
	<rect id="Left_median_Foot_07" x="228.8" y="704.5" class="st0_15x human" width="14.3" height="15.5"/>
</g>
<g>
	<path id="Left_median_Foot_06" class="st0_15x human" d="M257.4,720v5.7h-0.1c-3.5,1.7-10.6,3-14.2,3.7v-9.5L257.4,720L257.4,720z"/>
</g>
<g>
	<path id="Left_median_Foot_05" class="st0_15x human" d="M243.1,720v9.5c-0.8,0.2-1.4,0.3-1.8,0.4c-1.3,0.4-6.6,1.3-12.5,1.3V720H243.1z"
		/>
</g>
<g>
	<path id="Left_median_Foot_04" class="st0_15x human" d="M285.3,704.5c0.2,0.1,0.5,0.2,0.7,0.4V720h-14.3v-15.5H285.3z"/>
</g>
<g>
	<rect id="Left_median_Foot_03" x="257.4" y="704.5" class="st0_15x human" width="14.3" height="15.5"/>
</g>
<g>
	<path id="Left_median_Foot_02" class="st0_15x human" d="M286,720v9.4c-0.5-0.1-1.1-0.2-1.6-0.3c-4.2-0.8-8.6-1.7-12.7-2.5V720L286,720
		L286,720z"/>
</g>
<g>
	<path id="Left_median_Foot_01" class="st0_15x human" d="M271.7,720v6.6c-6.5-1.2-12.1-1.8-14.3-0.9V720L271.7,720L271.7,720z"/>
</g>
<g>
	<path id="Left_median_Knee_14" class="st0_15x human" d="M214.5,516.7c4.7-2,9.7-4.2,14.3-6.2v8h-14.3V516.7z"/>
</g>
<g>
	<path id="Left_median_Knee_13" class="st0_15x human" d="M214.5,516.7v1.8h-4.2C211.7,518,213.1,517.3,214.5,516.7z"/>
</g>
<g>
	<path id="Left_median_Knee_12" class="st0_15x human" d="M197,524.4L197,524.4c0.1,0,0.1-0.1,0.2-0.1l0,0c0.1,0,0.2-0.1,0.4-0.2l0.6-0.3
		c0.3-0.2,0.8-0.3,1.2-0.5l0.3-0.1c0.2-0.1,0.4-0.2,0.5-0.2v11.1H196c0,0,1-4.1,1.1-5.5C197.2,527.5,197,524.4,197,524.4z"/>
</g>
<g>
	<polygon id="Left_median_Knee_11" class="st0_15x human" points="196,534 200.2,534 200.2,538.4 195.6,537.7 	"/>
</g>
<g>
	<rect id="Left_median_Knee_10" x="214.5" y="518.5" class="st0_15x human" width="14.3" height="15.5"/>
</g>
<g>
	<path id="Left_median_Knee_09" class="st0_15x human" d="M200.2,523c0.1,0,0.1-0.1,0.2-0.1l1.5-0.7c2.3-1,5.2-2.3,8.4-3.7h4.2V534h-14.3
		L200.2,523L200.2,523z"/>
</g>
<g>
	<polygon id="Left_median_Knee_08" class="st0_15x human" points="214.5,534 228.8,534 228.8,542.5 214.5,540.4 	"/>
</g>
<g>
	<polygon id="Left_median_Knee_07" class="st0_15x human" points="200.2,534 214.5,534 214.5,540.4 200.2,538.4 	"/>
</g>
<g>
	<path id="Left_median_Knee_06" class="st0_15x human" d="M243.1,504.3c0.3-0.1,0.6-0.3,0.9-0.4c2.4,5.5,3.7,10.3,4.3,14.7h-5.2V504.3z"/>
</g>
<g>
	<path id="Left_median_Knee_05" class="st0_15x human" d="M228.8,518.5v-8c6.1-2.6,11.4-5,14.3-6.2v14.3L228.8,518.5L228.8,518.5z"/>
</g>
<g>
	<path id="Left_median_Knee_04" class="st0_15x human" d="M243.1,518.5h5.2c0.9,6.4,0.3,11.5-1,15.5H243v-15.5H243.1z"/>
</g>
<g>
	<rect id="Left_median_Knee_03" x="228.8" y="518.5" class="st0_15x human" width="14.3" height="15.5"/>
</g>
<g>
	<path id="Left_median_Knee_02" class="st0_15x human" d="M247.4,534c-1.2,4-3,6.9-4.3,8.6V534H247.4z"/>
</g>
<g>
	<path id="Left_median_Knee_01" class="st0_15x human" d="M241.5,544.4l-12.7-1.9V534h14.3v8.6C242.2,543.8,241.5,544.4,241.5,544.4z"/>
</g>
<g>
	<path id="Left_median_Thigh_44" class="st0_15x human" d="M185.9,379v-5.1c1.1,1.6,2.3,3.3,3.4,5.1H185.9z"/>
</g>
<g>
	<path id="Left_median_Thigh_43" class="st0_15x human" d="M183,379c-0.9-9.6-1.5-10.9-1.5-11c1.4,1.7,2.9,3.7,4.5,5.9v5.1H183z"/>
</g>
<g>
	<path id="Left_median_Thigh_42" class="st0_15x human" d="M189.3,379c3.2,4.9,6.4,10.3,9.3,15.5h-12.7V379H189.3z"/>
</g>
<g>
	<path id="Left_median_Thigh_41" class="st0_15x human" d="M184,391c-0.3-5-0.7-8.9-1-12h2.9v15.5h-1.8C184.1,393.3,184,392.2,184,391z"/>
</g>
<g>
	<path id="Left_median_Thigh_40" class="st0_15x human" d="M185.9,410v-15.5h12.7c0.5,1,1.1,1.9,1.6,2.9V410H185.9z"/>
</g>
<g>
	<path id="Left_median_Thigh_39" class="st0_15x human" d="M184.1,394.5h1.8V410h-2.1c0.1-0.8,0.1-1.5,0.2-2c0-0.8,0-2.2,0-4.1
		C184.1,400.7,184.2,397.5,184.1,394.5z"/>
</g>
<g>
	<path id="Left_median_Thigh_38" class="st0_15x human" d="M200.2,397.4c2.6,4.7,5,9.2,6.7,12.6h-6.7V397.4z"/>
</g>
<g>
	<rect id="Left_median_Thigh_37" x="185.9" y="410" class="st0_15x human" width="14.3" height="15.5"/>
</g>
<g>
	<path id="Left_median_Thigh_36" class="st0_15x human" d="M183.8,410h2.1v15.5h-4.1C182.9,418.9,183.5,413.3,183.8,410z"/>
</g>
<g>
	<rect id="Left_median_Thigh_35" x="185.9" y="425.5" class="st0_15x human" width="14.3" height="15.5"/>
</g>
<g>
	<path id="Left_median_Thigh_34" class="st0_15x human" d="M181.8,425.5h4.1V441h-7.2C180,435.6,181,430.3,181.8,425.5z"/>
</g>
<g>
	<path id="Left_median_Thigh_33" class="st0_15x human" d="M207,410c1.4,2.7,2.4,4.8,3,6c0.7,1.4,2.1,4.9,3.8,9.5h-13.6V410H207z"/>
</g>
<g>
	<path id="Left_median_Thigh_32" class="st0_15x human" d="M214.5,427.5c1.5,4,3.3,8.7,5.1,13.6h-5.1V427.5z"/>
</g>
<g>
	<path id="Left_median_Thigh_31" class="st0_15x human" d="M200.2,441v-15.5h13.6c0.2,0.6,0.5,1.3,0.7,1.9V441H200.2z"/>
</g>
<g>
	<rect id="Left_median_Thigh_30" x="185.9" y="441" class="st0_15x human" width="14.3" height="15.5"/>
</g>
<g>
	<path id="Left_median_Thigh_29" class="st0_15x human" d="M185.9,441v15.5H175c0.4-1.6,0.8-2.8,0.9-3.5c0.3-1.5,1-4.3,1.7-7.8
		c0.4-1.4,0.7-2.8,1-4.2H185.9z"/>
</g>
<g>
	<rect id="Left_median_Thigh_28" x="185.9" y="456.5" class="st0_15x human" width="14.3" height="15.5"/>
</g>
<g>
	<path id="Left_median_Thigh_27" class="st0_15x human" d="M185.9,472h-14.3v-4.1c1.4-4.6,2.6-8.6,3.4-11.4h10.9L185.9,472L185.9,472z"/>
</g>
<g>
	<path id="Left_median_Thigh_26" class="st0_15x human" d="M219.6,441c1.9,5.1,3.9,10.5,5.7,15.5h-10.8V441H219.6z"/>
</g>
<g>
	<rect id="Left_median_Thigh_25" x="200.2" y="441" class="st0_15x human" width="14.3" height="15.5"/>
</g>
<g>
	<path id="Left_median_Thigh_24" class="st0_15x human" d="M214.5,472v-15.5h10.8c1.2,3.3,2.4,6.6,3.5,9.5v6H214.5z"/>
</g>
<g>
	<rect id="Left_median_Thigh_23" x="200.2" y="456.5" class="st0_15x human" width="14.3" height="15.5"/>
</g>
<g>
	<rect id="Left_median_Thigh_22" x="185.9" y="472" class="st0_15x human" width="14.3" height="15.5"/>
</g>
<g>
	<rect id="Left_median_Thigh_21" x="171.6" y="472" class="st0_15x human" width="14.3" height="15.5"/>
</g>
<g>
	<rect id="Left_median_Thigh_20" x="185.9" y="487.5" class="st0_15x human" width="14.3" height="15.5"/>
</g>
<g>
	<path id="Left_median_Thigh_19" class="st0_15x human" d="M185.9,503H184c-4.6-6.1-9.1-10.9-12.4-14.2v-1.3h14.3L185.9,503L185.9,503z"/>
</g>
<g>
	<rect id="Left_median_Thigh_18" x="214.5" y="472" class="st0_15x human" width="14.3" height="15.5"/>
</g>
<g>
	<rect id="Left_median_Thigh_17" x="200.2" y="472" class="st0_15x human" width="14.3" height="15.5"/>
</g>
<g>
	<rect id="Left_median_Thigh_16" x="214.5" y="487.5" class="st0_15x human" width="14.3" height="15.5"/>
</g>
<g>
	<rect id="Left_median_Thigh_15" x="200.2" y="487.5" class="st0_15x human" width="14.3" height="15.5"/>
</g>
<g>
	<path id="Left_median_Thigh_14" class="st0_15x human" d="M170.4,472c0.4-1.4,0.8-2.7,1.2-4.1v4.1H170.4z"/>
</g>
<g>
	<path id="Left_median_Thigh_13" class="st0_15x human" d="M171.6,472v15.5h-1.3c-1.8-1.7-3.1-2.9-3.7-3.4c1.3-4.1,2.6-8.3,3.8-12.1H171.6
		z"/>
</g>
<g>
	<path id="Left_median_Thigh_12" class="st0_15x human" d="M170.3,487.5h1.3v1.3C171.2,488.4,170.7,487.9,170.3,487.5z"/>
</g>
<g>
	<path id="Left_median_Thigh_11" class="st0_15x human" d="M228.8,466c0.8,2.2,1.5,4.2,2.2,6h-2.2V466z"/>
</g>
<g>
	<path id="Left_median_Thigh_10" class="st0_15x human" d="M231,472c1,2.6,1.7,4.8,2.3,6.2c1.2,3.4,2.4,6.4,3.6,9.3h-8.1V472H231z"/>
</g>
<g>
	<path id="Left_median_Thigh_09" class="st0_15x human" d="M228.8,503v-15.5h8.1c2.1,5,4.1,9.5,6.2,14.3v1.2H228.8z"/>
</g>
<g>
	<path id="Left_median_Thigh_08" class="st0_15x human" d="M185.9,505.6v-2.5h14.3v15.5H194C191.5,513.8,188.7,509.5,185.9,505.6z"/>
</g>
<g>
	<polygon id="Left_median_Thigh_07" class="st0_15x human" points="214.5,503 228.8,503 228.8,510.5 214.5,516.7 	"/>
</g>
<g>
	<polygon id="Left_median_Thigh_06" class="st0_15x human" points="200.2,518.5 200.2,503 214.5,503 214.5,516.7 210.4,518.5 	"/>
</g>
<g>
	<path id="Left_median_Thigh_05" class="st0_15x human" d="M199.7,523.2c-0.1,0-0.2,0.1-0.3,0.1l-1.2,0.5c-0.2,0.1-0.4,0.2-0.6,0.3
		l-0.4,0.2l0,0l-0.2,0.1l0,0c-0.9-2-1.9-3.9-2.9-5.8h6.2v4.4L199.7,523.2z"/>
</g>
<g>
	<path id="Left_median_Thigh_04" class="st0_15x human" d="M200.2,518.5h10.1l-8.4,3.7c-0.5,0.2-1.1,0.5-1.5,0.7l-0.2,0.1L200.2,518.5
		L200.2,518.5z"/>
</g>
<g>
	<polygon id="Left_median_Thigh_03" class="st0_15x human" points="228.8,503 243.1,503 243.1,504.3 228.8,510.5 	"/>
</g>
<g>
	<path id="Left_median_Thigh_02" class="st0_15x human" d="M185.9,505.6c-0.6-0.9-1.3-1.7-1.9-2.5h1.9V505.6z"/>
</g>
<g>
	<path id="Left_median_Thigh_01" class="st0_15x human" d="M243.7,503c0.1,0.3,0.2,0.6,0.4,0.8l-0.9,0.4V503L243.7,503L243.7,503z"/>
</g>
<g>
	<path id="Left_median_Lower_Limb_35" class="st0_15x human" d="M195.6,537.7l4.6,0.7v11.2h-7.8C194,543.8,195.6,537.7,195.6,537.7z"/>
</g>
<g>
	<polygon id="Left_median_Lower_Limb_34" class="st0_15x human" points="214.5,549.5 214.5,540.4 228.8,542.5 228.8,549.5 	"/>
</g>
<g>
	<polygon id="Left_median_Lower_Limb_33" class="st0_15x human" points="200.2,538.4 214.5,540.4 214.5,549.5 200.2,549.5 	"/>
</g>
<g>
	<path id="Left_median_Lower_Limb_32" class="st0_15x human" d="M228.8,542.5l12.7,1.9c0,0,0.1,1.9,0.2,5.1h-12.9V542.5z"/>
</g>
<g>
	<path id="Left_median_Lower_Limb_31" class="st0_15x human" d="M192.4,549.5h7.8V565h-11.9c0.6-3.4,1.3-6.3,1.9-8.3
		C190.9,554.9,191.6,552.2,192.4,549.5z"/>
</g>
<g>
	<path id="Left_median_Lower_Limb_30" class="st0_15x human" d="M188.3,565h11.9v15.5h-12.8C187.2,574.7,187.6,569.4,188.3,565z"/>
</g>
<g>
	<rect id="Left_median_Lower_Limb_29" x="214.5" y="549.5" class="st0_15x human" width="14.3" height="15.5"/>
</g>
<g>
	<rect id="Left_median_Lower_Limb_28" x="200.2" y="549.5" class="st0_15x human" width="14.3" height="15.5"/>
</g>
<g>
	<rect id="Left_median_Lower_Limb_27" x="214.5" y="565" class="st0_15x human" width="14.3" height="15.5"/>
</g>
<g>
	<rect id="Left_median_Lower_Limb_26" x="200.2" y="565" class="st0_15x human" width="14.3" height="15.5"/>
</g>
<g>
	<path id="Left_median_Lower_Limb_25" class="st0_15x human" d="M187.4,580.5h12.8V596h-10.5c-0.4-1.7-0.8-3.1-1-4.3
		C188,587.9,187.5,584.1,187.4,580.5z"/>
</g>
<g>
	<path id="Left_median_Lower_Limb_24" class="st0_15x human" d="M200.2,596v15.5h-5.7c-2-6.1-3.7-11.5-4.7-15.5H200.2z"/>
</g>
<g>
	<rect id="Left_median_Lower_Limb_23" x="214.5" y="580.5" class="st0_15x human" width="14.3" height="15.5"/>
</g>
<g>
	<rect id="Left_median_Lower_Limb_22" x="200.2" y="580.5" class="st0_15x human" width="14.3" height="15.5"/>
</g>
<g>
	<rect id="Left_median_Lower_Limb_21" x="214.5" y="596" class="st0_15x human" width="14.3" height="15.5"/>
</g>
<g>
	<rect id="Left_median_Lower_Limb_20" x="200.2" y="596" class="st0_15x human" width="14.3" height="15.5"/>
</g>
<g>
	<path id="Left_median_Lower_Limb_19" class="st0_15x human" d="M200.2,611.5V627h-0.5c-1.8-5.4-3.6-10.6-5.2-15.5H200.2z"/>
</g>
<g>
	<rect id="Left_median_Lower_Limb_18" x="214.5" y="611.5" class="st0_15x human" width="14.3" height="15.5"/>
</g>
<g>
	<rect id="Left_median_Lower_Limb_17" x="200.2" y="611.5" class="st0_15x human" width="14.3" height="15.5"/>
</g>
<g>
	<rect id="Left_median_Lower_Limb_16" x="214.5" y="627" class="st0_15x human" width="14.3" height="15.5"/>
</g>
<g>
	<path id="Left_median_Lower_Limb_15" class="st0_15x human" d="M200.2,627h14.3v15.5h-9.4c-1.6-4.5-3.3-9.2-4.9-13.9L200.2,627L200.2,627
		z"/>
</g>
<g>
	<rect id="Left_median_Lower_Limb_14" x="214.5" y="642.5" class="st0_15x human" width="14.3" height="15.5"/>
</g>
<g>
	<path id="Left_median_Lower_Limb_13" class="st0_15x human" d="M214.5,642.5V658h-3.8c-1.6-4.5-3.6-9.8-5.6-15.5H214.5z"/>
</g>
<g>
	<path id="Left_median_Lower_Limb_12" class="st0_15x human" d="M228.8,658v11.8l-13.2,1.6c0,0-0.4-1-1.1-2.9V658L228.8,658L228.8,658z"/>
</g>
<g>
	<path id="Left_median_Lower_Limb_11" class="st0_15x human" d="M214.5,668.6c-0.9-2.3-2.2-6-3.8-10.5h3.8V668.6z"/>
</g>
<g>
	<path id="Left_median_Lower_Limb_10" class="st0_15x human" d="M228.8,549.5h12.9c0.1,3.8,0.4,9.4,0.6,15.5h-13.5V549.5z"/>
</g>
<g>
	<path id="Left_median_Lower_Limb_09" class="st0_15x human" d="M242.3,565c0.2,5,0.4,10.4,0.6,15.5h-14.1V565H242.3z"/>
</g>
<g>
	<path id="Left_median_Lower_Limb_08" class="st0_15x human" d="M242.9,580.5c0.1,2.1,0.2,4.2,0.2,6.2c0.1,3.4,0.2,6.6,0.3,9.3h-0.3h-14.3
		v-15.5H242.9z"/>
</g>
<g>
	<path id="Left_median_Lower_Limb_07" class="st0_15x human" d="M243.1,596h0.3c0.1,3.2,0.2,5.8,0.2,7.3c0.1,2.2,0.1,5.1,0.1,8.3H243
		h-14.3v-15.5L243.1,596L243.1,596z"/>
</g>
<g>
	<path id="Left_median_Lower_Limb_06" class="st0_15x human" d="M243.1,611.5h0.7c0,5,0,10.7,0,15.5h-0.6h-14.3v-15.5H243.1z"/>
</g>
<g>
	<path id="Left_median_Lower_Limb_05" class="st0_15x human" d="M243.1,627h0.6c0,4.7-0.1,8.6-0.1,10c0,0.9,0.4,2.9,0.9,5.5H243h-14.3V627
		H243.1z"/>
</g>
<g>
	<path id="Left_median_Lower_Limb_04" class="st0_15x human" d="M244.6,642.5c0.9,4.4,2.4,10.5,3.7,15.5h-5.2v-15.5H244.6z"/>
</g>
<g>
	<rect id="Left_median_Lower_Limb_03" x="228.8" y="642.5" class="st0_15x human" width="14.3" height="15.5"/>
</g>
<g>
	<path id="Left_median_Lower_Limb_02" class="st0_15x human" d="M248.3,658c1.3,5.2,2.4,9.3,2.4,9.3l-7.6,0.9v-10.1h5.2V658z"/>
</g>
<g>
	<polygon id="Left_median_Lower_Limb_01" class="st0_15x human" points="243.1,658 243.1,668.2 228.8,669.9 228.8,658 	"/>
</g>
<g>
	<g>
		<path d="M180.3,92.6l-0.1-1c-2.2,0.1-5.8,0.3-6.2,0.3l-0.1,0.5l-0.1,0.5c0,0,0.1,0,0.4,0C174.8,92.9,176.3,92.8,180.3,92.6z"/>
	</g>
	<g>
		<path d="M179.4,95.9c-1.6-0.9-4.2-2.8-4.8-3.5c0.1,0,0.3-0.1,0.4-0.1c0.5-0.1,1.1-0.2,2.1-0.6c3.4-1.3,6.3-4.1,6.4-4.2l-0.7-0.7
			c0,0-2.9,2.7-6.1,4c-0.9,0.3-1.5,0.5-1.9,0.6c-0.6,0.1-1.2,0.3-1.3,1c-0.1,1.1,4.8,4.1,5.3,4.4L179.4,95.9z"/>
	</g>
	<g>
		<g>
			<g>
				<path d="M132,82.2c1-0.7,2.1-2,2.1-4.6c0-2.9,0-3.7,0-3.9h0l0-0.6l-0.5,0c-0.3,0-0.4,0-0.4,0.6l-0.1,0l0.1,0
					c-0.1,0.6,0,1.7,0,3.9c0,1.7-0.6,3-1.7,3.7c-1.3,0.9-3,0.9-4.1,0.4c-0.8-0.3-1.7-1.8-2.5-3.2c-1-1.6-1.9-3.3-3.2-4.2
					c-3.8-2.9-5.7-6.8-5.7-11.6c0-3.4,1-5.8,2.9-7.1c2.2-1.5,5.2-1.3,7.1-0.6c2.6,1,3.7,3.4,3.9,4c0.3,1,1.6,1,1.8,1l0-1
					c-0.3,0-0.8-0.1-0.8-0.3c-0.2-0.9-1.5-3.5-4.5-4.7c-1.7-0.6-5.2-1.2-8,0.7c-2.2,1.5-3.4,4.2-3.4,7.9c0,5.1,2,9.3,6.1,12.4
					c1.1,0.8,2,2.4,2.9,3.9c1,1.7,1.9,3.2,3,3.6c0.6,0.2,1.3,0.4,2,0.4C130,83.1,131.1,82.9,132,82.2z"/>
			</g>
			<g>
				<path d="M129.2,75.1c-0.9,0-2-0.6-2.5-1.4c-0.6-1.1-0.9-1-1.8-1c-0.5,0-1,0.1-1.7,0c-3.3-0.5-5.1-5.6-5.7-7.8
					c-0.7-2.5,0.2-5.5,2-7.1c1.4-1.2,3.2-1.5,5.2-0.7c6.1,2.5,4.1,8.9,4.1,9l-1-0.3c0-0.1,0.2-0.6,0.3-1.3c-0.1,0.2-0.2,0.4-0.4,0.7
					c-0.2,0.3-0.1,0.5,0.2,0.9c0.3,0.4,0.7,1,0.6,2c-0.2,1.9,0,2.1,0.5,2.7c0.3,0.3,0.7,0.7,1.1,1.5c1,1.8,0.4,2.5-0.1,2.8
					C129.8,75.1,129.5,75.1,129.2,75.1z M125.5,71.8c0.8,0,1.4,0.3,2.1,1.5c0.4,0.7,1.5,1.1,1.9,0.8c0.2-0.1,0.2-0.6-0.3-1.4
					c-0.4-0.7-0.7-1-0.9-1.3c-0.7-0.8-1-1.2-0.7-3.5c0.1-0.6-0.2-0.9-0.4-1.3c-0.3-0.5-0.7-1.1-0.2-2c0.7-1.2,1.1-1.7,1.1-1.7
					l0.2,0.1c-0.1-1.7-1-3.8-3.8-5c-1.6-0.6-3-0.4-4.1,0.5c-1.5,1.4-2.3,4.1-1.7,6.1c0.4,1.6,2,6.7,4.8,7.1c0.6,0.1,1.1,0,1.5,0
					C125.1,71.8,125.3,71.8,125.5,71.8z"/>
			</g>
			<g>
				<path d="M124.8,71.9c-0.6-1.3-0.7-2.5-0.3-3.5c0.7-1.7,2.5-2.5,2.5-2.6l-0.4-0.9c-0.1,0-2.2,1-3.1,3.1c-0.5,1.3-0.4,2.7,0.3,4.3
					L124.8,71.9z"/>
			</g>
			<g>
				<path d="M129.6,81.1l-0.4-0.9c-0.5,0.2-1.1,0.1-1.6-0.1c-0.5-0.2-0.7-0.5-0.7-0.6l-1,0.3c0.1,0.5,0.6,0.9,1.2,1.3
					c0.5,0.2,1,0.4,1.4,0.4C129,81.3,129.3,81.2,129.6,81.1z"/>
			</g>
		</g>
		<g>
			<path d="M163.2,112.2c-0.2,0-17-3.7-25-10.8c-6.3-5.6-9.4-11.8-9.1-18.7l-1,0c-0.3,7.1,2.9,13.7,9.4,19.5
				c8.3,7.3,24.8,10.9,25.5,11L163.2,112.2z"/>
		</g>
		<g>
			<path d="M182.2,79.7c0.1-1.5-1.3-1.5-1.7-1c-0.4,0.6,1.1,1.4,0.8,1.7c-0.5,0.5-2.9-0.3-2.8-1.7c0.1-1.9,4.5-2.5,4.8,0.5
				C183.3,79.2,182.1,80,182.2,79.7z"/>
			<g>
				<path d="M180.9,81c-0.4-0.1-3.8-1.1-4.5-3.1c-0.5-1.4,1.3-2.8,1.3-2.8l-0.6-0.8c-0.1,0.1-2.3,1.9-1.6,3.9
					c0.9,2.7,5.1,3.8,5.4,3.8L180.9,81z"/>
			</g>
			<g>
				<path d="M165.3,49.8c2.9-1.5,5.4-2.8,9.5-2c0.5,0.1,0.8,0.3,1,0.6c0.4,0.6,0.1,1.5,0.1,1.5l0.5,0.1L176,50l1,0.3
					c0-0.1,0.4-1.3-0.2-2.3c-0.3-0.6-0.9-0.9-1.7-1.1c-4.4-0.9-7.2,0.5-10.2,2.1c-1.2,0.6-2.4,1.2-3.7,1.7l0.3,0.9
					C162.9,51.1,164.2,50.4,165.3,49.8z"/>
			</g>
			<g>
				<path d="M172.8,54c1.2-0.4,1.7,0.4,1.7,0.6l0.9-0.4c-0.3-0.7-1.3-1.8-3-1.2c-1.8,0.6-8,2.9-8,2.9l0.3,0.9
					C164.8,56.8,171,54.6,172.8,54z"/>
			</g>
			<g>
				<path d="M172.2,62.1l0-1c0,0,0,0,0,0c-1.4,0-4.6-1.7-5.4-2.5c1.6-1.6,5-2,6-1.7l0.3-1c-1.5-0.5-5.6,0.2-7.3,2.3
					c-0.1,0.2-0.2,0.4-0.1,0.6C166.1,59.8,170.2,62.1,172.2,62.1C172.1,62.1,172.1,62.1,172.2,62.1z"/>
			</g>
			<g>
				<path d="M171.9,62.2L171.9,62.2c-0.6,0-1.1-0.2-1.4-0.6c-0.6-0.7-0.8-1.8-0.6-3.2c0.2-1.5,1.5-2.4,2.6-2.4c0.7,0,1.3,0.4,1.6,1
					c0.5,1.2,0.4,2.8-0.1,3.9c-0.3,0.7-0.8,1.1-1.4,1.2C172.2,62.1,172,62.2,171.9,62.2z M172.4,56.9c-0.7,0-1.5,0.6-1.6,1.6
					c-0.1,1,0,1.9,0.4,2.4c0.2,0.2,0.4,0.3,0.7,0.3l0,0c0.1,0,0.2,0,0.4,0c0.3-0.1,0.5-0.3,0.7-0.7c0.4-0.7,0.6-2,0.1-3.1
					C172.9,57.1,172.7,56.9,172.4,56.9z"/>
			</g>
			<ellipse cx="173.2" cy="58.6" rx="1.4" ry="1.5"/>
			<g>
				<g>
					<g>
						<path d="M323.7,732.4c2.9-1.5,5.7-5.7,5.2-9.5c-0.2-1.7-1.4-4.9-6.6-6.1c-9-2.2-30.6-9-38.3-13.8c-1.7-1.1-3.5-2.2-5.3-3.3
							c-8.1-5-17.2-10.6-19.2-14.4c-3.4-6.4-15.4-34.9-14.6-53c0.7-18.2,0.6-34.4-0.6-54c-0.3-5.8-0.7-10.9-1-15.2
							c-0.7-10-1.1-16.6-0.6-18.4c0.1-0.3,0.6-1,1.1-1.6c3.5-4.8,11.7-16,1.4-39.6c-8.2-18.8-12.5-31.8-16.3-43.3
							c-1.7-5.1-3.3-10-5-14.7c-8.5-23-27-63-42.7-79.1l-1.4,1.4c15.5,15.9,33.8,55.6,42.3,78.4c1.7,4.7,3.3,9.5,5,14.6
							c3.8,11.5,8.1,24.6,16.4,43.5c9.8,22.5,2.1,33.1-1.2,37.6c-0.7,1-1.2,1.7-1.4,2.3c-0.6,2.1-0.2,8.1,0.5,19.1
							c0.3,4.3,0.6,9.4,1,15.2c1.1,19.5,1.3,35.6,0.6,53.8c-0.8,18.6,11.4,47.5,14.9,54c2.3,4.3,11.3,9.8,19.9,15.1
							c1.8,1.1,3.6,2.2,5.3,3.3c7.8,5,29.8,11.9,38.9,14.1c3.1,0.7,4.8,2.2,5.1,4.4c0.4,2.9-1.9,6.3-4.1,7.5
							c-6.9,3.6-42.5-3.3-54.2-5.6l-2.5-0.5c-4.9-0.9-9,0.2-14.2,1.7c-6.1,1.7-13.7,3.9-26.1,3.9c-6.1,0-10.6-1.6-13.1-4.7
							c-4.4-5.3-2.7-14-1.7-19.2c0.2-1.1,0.4-2,0.5-2.8c0.5-4.4,3.5-7.8,6.3-11.2c1-1.1,1.9-2.2,2.7-3.3c2.1-2.9-1.6-13.2-8.5-31
							c-3.4-8.9-7.3-19-10-27.7c-1.4-4.5-2.8-8.9-4.2-13.1c-5.6-17.1-10.5-31.9-9-49.4c0.4-5,2.9-13,5.4-20.8
							c3.1-10,5.8-18.7,4.7-21.9c-2-5.6-10.4-19.4-16.3-26.7c-2.3-2.9-14.7-14.9-15.2-15.4l-1.4,1.4c0.1,0.1,12.8,12.5,15,15.2
							c5.7,7.1,14,20.7,15.9,26.1c0.9,2.6-2,12.2-4.7,20.7c-2.5,7.9-5,16-5.4,21.2c-1.6,18,3.4,32.9,9.1,50.2
							c1.4,4.2,2.8,8.5,4.2,13c2.7,8.8,6.6,18.9,10,27.9c4.9,12.6,10.3,26.9,8.7,29.1c-0.8,1-1.6,2.1-2.6,3.2
							c-2.9,3.4-6.1,7.2-6.7,12.2c-0.1,0.7-0.3,1.6-0.5,2.7c-1.1,5.5-2.8,14.8,2.1,20.8c3,3.6,7.9,5.4,14.6,5.4
							c12.7,0,20.4-2.2,26.7-4c5.2-1.5,8.9-2.5,13.3-1.7l2.5,0.5c16.8,3.3,35.9,6.7,47.2,6.7C319.2,733.7,322.1,733.3,323.7,732.4z"
							/>
					</g>
					<g>
						<path d="M216.1,550.1c2.8-1.7,10.1-8.3,7.8-15.8c-2.7-8.6,1.5-12.9,1.7-13.1c0.4-0.4,0.4-1,0-1.4c-0.4-0.4-1-0.4-1.4,0
							c-0.2,0.2-5.3,5.3-2.2,15.1c1.8,5.8-3.9,11.6-6.9,13.5c-0.5,0.3-0.6,0.9-0.3,1.4c0.2,0.3,0.5,0.5,0.8,0.5
							C215.8,550.2,216,550.2,216.1,550.1z"/>
					</g>
					<g>
						<path d="M127.2,553.6c0.9-3.1,2-13-4.7-17c-7.7-4.6-7.4-10.6-7.4-10.9c0-0.5-0.4-1-0.9-1.1c-0.6,0-1,0.4-1.1,0.9
							c0,0.3-0.4,7.4,8.4,12.7c5.2,3.1,4.8,11.3,3.8,14.7c-0.2,0.5,0.1,1.1,0.7,1.2c0.1,0,0.2,0,0.3,0
							C126.7,554.3,127.1,554.1,127.2,553.6z"/>
					</g>
					<g>
						<path d="M110.2,723.1c0.5-0.3,0.6-0.9,0.3-1.4c-0.3-0.5-0.9-0.6-1.4-0.3c-0.1,0-7.5,4.5-12.2,2.8c-1.4-0.5-2.4-1.5-3-3.1
							c-1.3-3.5,0.4-6.7,2.3-10.1c0.8-1.5,1.7-3.1,2.2-4.7c0.9-2.7,0.7-12.4,0.6-13.5c0-0.6-0.5-1-1-1c-0.6,0-1,0.5-1,1
							c0.1,2.9,0.2,10.8-0.5,12.8c-0.5,1.4-1.3,2.9-2.1,4.4c-2,3.7-4,7.4-2.4,11.8c0.8,2.2,2.2,3.6,4.2,4.3c0.9,0.3,1.9,0.5,3,0.5
							C104.4,726.6,109.9,723.3,110.2,723.1z"/>
					</g>
					<g>
						<path d="M235.3,699.9c5.1-0.2,10.4-4.6,10.8-6.1c0.1-0.5-0.2-1.1-0.7-1.3c-0.5-0.1-1.1,0.2-1.2,0.7c-0.4,0.8-5.1,5-9.8,4.7
							c-3.6-0.2-6.3-3-8.1-8.2c-0.2-0.5-0.8-0.8-1.3-0.6c-0.5,0.2-0.8,0.8-0.6,1.3c2.7,7.8,7.1,9.6,10.5,9.6
							C235,699.9,235.2,699.9,235.3,699.9z"/>
					</g>
					<g>
						<path d="M163.4,360.5c-1-0.1-0.8-1-0.7-1.9c0-0.4,0.2-1,0.3-1.8c1-5.1,0.9-18.2-11.3-24.1c-0.9-0.4-1.2-1.2-0.7-2
							c0.4-0.9,0.2-1.1,1-0.7c14.6,7.1,15.5,19.8,14.5,25.1c-0.1,0.6-1.1,3.5-1.2,3.9c-0.1,0.9-0.9,1.6-1.7,1.6
							C163.6,360.5,163.5,360.5,163.4,360.5z"/>
					</g>
					<g>
						<path d="M293.9,315.7c0.1-0.6-0.2-0.7,0.4-0.5c0.3,0.1,0.6,0.2,1.1,0.3c3.1,1,12.2,3.4,16.8-3.7c0.3-0.5,1-0.2,1.5,0.2
							c0.5,0.3,0.8,0.5,0.5,1c-5.6,8.5-14,6.1-17.2,5.1c-0.4-0.1-2.1-1-2.3-1c-0.5-0.1-0.9-0.7-0.8-1.2
							C293.9,315.8,293.9,315.7,293.9,315.7z"/>
					</g>
					<g>
						<path d="M132.5,376.1c-0.9-0.4-0.2-2.2,0.1-3.1c0.1-0.3,0.7-0.5,1-1.1c2-4.1,5.4-15.1-3.7-19.2c-0.9-0.4-0.8-1.7-0.2-2.5
							c0.6-0.7,1.7-0.8,2.5-0.2c10.3,8.9,5,19.8,3.1,23.9c-0.2,0.5-0.4,0.8-0.5,1.1c-0.3,0.7-0.9,1.1-1.6,1.1
							C133,376.2,132.7,376.1,132.5,376.1z"/>
					</g>
					<g>
						<path d="M36.2,261c0.4-0.6,1.3-1.1,1.9-0.7c0.2,0.1,1.1,1.6,1.4,1.9c3.8,3.5,8.1,2.9,13.8,1.5c0.7-0.2,1.7-0.6,2.1,0
							c0.4,0.6,0.3,0.7-0.3,1.1c-7.9,4.4-15.1,0.6-17.7-1.4c-0.3-0.2-0.5-0.4-0.7-0.5c-0.5-0.3-0.7-0.8-0.6-1.3
							C36,261.3,36.1,261.1,36.2,261z"/>
					</g>
					<g>
						<path d="M41.8,274.5c2-0.1,2.9-0.8,5.8-1.5c0.3-0.1,2.1,0.5-0.2,2.2c-3.4,2.5-8.8,1.7-10.1,0.7c-0.1-0.1-0.2-2.2-0.1-2.4
							C37.1,273.4,40.6,274.6,41.8,274.5z"/>
					</g>
					<g>
						<path d="M198.1,263.2c-0.3-0.4-0.3-2,0.1-2.5c0.2-0.2,0.5-0.2,0.8-0.5c2.2-2.3,4.7-7.6,5.3-13.1c0.1-0.7,0.2-1.3,0.7-1.7
							c0.5-0.3,1.1-0.1,1.2,0.4c1.9,8.3-4,14.3-6.2,16.6c-0.3,0.3-0.5,0.5-0.6,0.6c-0.3,0.4-0.8,0.5-1.1,0.4
							C198.2,263.4,198.1,263.3,198.1,263.2z"/>
					</g>
					<g>
						<path d="M212.3,262.5c0.1-0.1,1.3-2.9,1.8-5.6c0.1-0.3,2.2-2.4,2.4-0.2c0.3,3.2-1.9,8.2-2.9,9.4c-0.1,0.1-2.3-0.3-2.5-0.4
							C211.1,265.7,212.1,262.8,212.3,262.5z"/>
					</g>
					<g>
						<path d="M62.6,444.7c0.5-2.1,3-14.7,4.3-26.6c0.5-4.9,0.6-9.6,0.7-13.4c0.1-2.8,0.1-5.7,0.4-6.8c0.8,0.6,2,3.4,2.9,5.3
							c2,4.6,4.4,10.3,9,12.5c2.3,1.1,3.6,0.6,4.3-0.1c3.5-3.3-2-16.5-3.1-19.1c-4-9.3-11.2-17.9-15.9-23.6
							c-2.2-2.7-4.5-5.4-4.6-6.1c0.1-2.6,0-5.9-0.1-9.5c-0.2-7.3-0.4-15.7,0.9-20.2c0.5-1.8,1.7-5,3.1-8.6c4-10.5,10-26.3,9.7-35
							c-0.1-4.5-0.4-9.6-0.6-14.1c-0.3-6.5-0.6-13.2-0.3-14.5c0.6-2.2,15.8-15.7,21.5-20.7c4.6-4.1,16.8-19.1,19.4-25.1
							c2.6-5.7,15.4-19.6,16.4-20.6l-1.4-1.4c-1.1,1.1-14.1,15.2-16.8,21.2c-2.5,5.7-14.6,20.5-19,24.4
							c-13.2,11.8-21.6,19.5-22.1,21.7c-0.4,1.5-0.2,6.4,0.3,15.1c0.2,4.5,0.5,9.5,0.6,14c0.2,8.4-5.7,24-9.6,34.3
							c-1.5,3.8-2.6,6.9-3.2,8.8c-1.4,4.9-1.2,13.4-1,20.9c0.1,3.5,0.2,6.8,0.1,9.4c0,1.3,1.4,3.1,5.1,7.5
							c4.7,5.6,11.7,14.1,15.6,23.1c3.9,9,4.8,15.6,3.5,16.8c-0.4,0.4-1.5,0-2.1-0.3c-3.9-1.9-6.2-7.2-8-11.4c-1.8-4-3-7-5.3-6.6
							c-1.5,0.2-1.6,2.4-1.8,8.8c-0.1,3.8-0.2,8.5-0.7,13.3c-1.2,11.8-3.7,24.3-4.2,26.4c-1.2,4.8-2.7,6.1-3.4,6.1c0,0,0,0,0,0
							c-0.6,0-1.5-1.1-1.9-3c-0.3-1.5,0.3-10,0.8-16.2c0.8-11.1,0.7-11.2,0.3-11.7l-0.3-0.3h-0.4c-1,0-1,0-2.4,6.7
							c-1.3,6.1-4.6,22.2-6.7,23.2c-1,0.4-1.7,0.5-2.2,0.1c-0.6-0.4-1.8-2.1-1.1-8.8c0-0.2,2.3-23.6,0.5-25.3
							c-0.3-0.2-0.6-0.3-1-0.3c-1,0.2-1,0.7-1.6,6.7c-0.7,6.7-2.2,22.4-5.5,23.6c-1.3,0.5-2.3,0.5-2.8,0c-1.2-1-1.3-4.1-0.5-8.5
							c1.2-6.2,2.7-21.1,2.7-21.9l0-0.9l-0.9-0.1c-0.9-0.1-1,0.2-1.6,2.5c-4.7,18.4-6.9,20.2-7.4,20.3c-1.6-0.4-2.6-6.5-0.5-16.3
							c0.9-4.4,1.6-10.5,2.3-16.4c0.7-6.1,1.3-11.8,2.1-13.9l3.3-8.7l0-0.1c1.3-5.1,1-32.8,0.8-62.1c-0.2-24-0.4-48.8,0.4-55.6
							c1.4-11.5,8.1-24.8,13.5-35.5c1.4-2.8,2.7-5.4,3.9-7.8c2.1-4.4,6.5-10.7,11.7-18c8.7-12.3,19.5-27.7,22.7-39.8l-1.9-0.5
							c-3.1,11.8-13.8,27-22.4,39.2c-5.2,7.3-9.7,13.7-11.8,18.3c-1.1,2.4-2.5,5-3.8,7.8c-5.5,10.9-12.3,24.4-13.7,36.2
							c-0.8,6.9-0.6,30.7-0.4,55.9c0.2,27.8,0.5,56.5-0.7,61.5l-3.3,8.7c-0.8,2.3-1.5,7.9-2.2,14.4c-0.7,5.9-1.4,12-2.3,16.2
							c-1.9,8.6-2,17.7,1.9,18.7c0.4,0.1,0.9,0.1,1.6-0.2c1.6-1,3.3-4.4,5.4-11.2c-0.4,3.5-0.9,6.9-1.4,9.3c-1,5.5-0.6,8.9,1.2,10.4
							c1.2,1,2.8,1.1,4.8,0.4c2.8-1,4.4-6.7,5.5-14.2c-0.2,2.7-0.4,5.3-0.6,7.3c-0.6,5.8,0,9.3,1.9,10.7c1.1,0.8,2.5,0.8,4.2,0.1
							c2.2-1,4.2-7.5,6.7-19.2c-0.6,8.4-1,14.5-0.7,16.1c0.5,2.8,2,4.6,3.8,4.6c0,0,0,0,0.1,0C58.5,452.3,61,451.3,62.6,444.7z"/>
					</g>
					<g>
						<path d="M187.7,204c0,0.1,0.1,0.2,0.2,0.4c5.6,11.1,14.8,25.6,19.6,29.4c0.8,0.6,2.5,1.9,5,3.6c3.8,2.7,9.1,6.5,14.7,10.7
							c5.4,4,12.3,11.1,19.1,18c6.3,6.4,12.8,13,17.9,17c6.1,4.8,16,12.2,22.4,16.7c1.1,0.8,3.4,0.4,8.5-0.4c6-1,14.2-2.4,22.1-1.5
							c7.2,0.8,13.2,3.4,13.9,6c0.1,0.3,0.4,1.4-1.4,2.9c-0.7,0.5-4.2-0.1-6.6-0.5c-4.4-0.8-8.9-1.5-11,0.2
							c-0.7,0.6-1.2,1.5-1.2,2.6c0,1.9,5.8,6.3,27,20.7c4.9,3.3,9.1,6.1,10.1,7c3.4,2.9,4,4.8,3.4,5.7c-0.5,0.9-2.5,1.2-4.6,0.4
							c-1.3-0.5-7.1-4.1-12.2-7.3c-11.6-7.2-11.6-7.2-12.3-6.1c-0.6,0.9-0.6,0.9,5.5,5.6c5.9,4.5,21.6,16.6,21.5,19.2
							c-0.5,1.4-1.1,2.3-1.8,2.4c-1.5,0.4-4.1-1.6-7.3-4.2c-0.2-0.1-18.6-14.8-21-14.1c-0.4,0.1-0.6,0.3-0.8,0.7
							c-0.3,0.9,0,1.2,4.8,5c5.3,4.2,17.7,14,16.9,17.4c-0.3,1.3-0.8,2.1-1.6,2.4c-1.5,0.4-4.2-1.1-7.5-4.2
							c-4.6-4.3-16.2-13.7-17-14.1l-0.7-0.5l-0.6,0.7c-0.6,0.7-0.6,0.7,1.8,3.5c10.4,11.9,12.8,15.8,12.9,16.9
							c-0.1,0-0.2,0.1-0.3,0.1c-2.2,0.2-8.6-3.4-14.2-9c-3.6-3.6-10.4-8.6-16.3-13.1c-4.5-3.3-8.7-6.5-10-7.9
							c-4.2-4.5-11.1-15.8-11.1-15.9l-0.1-0.2c-2.6-2.7-13.4-8-27.1-14.8c-22.5-11-53.3-26.2-62.7-37.6c0,0-0.6,2.4,0,3
							c11.1,11.5,40.3,25.8,61.8,36.4c12.9,6.3,24,11.8,26.4,14.3c0.7,1.2,7.2,11.7,11.3,16.2c1.4,1.6,5.5,4.6,10.3,8.1
							c5.9,4.4,12.6,9.3,16.1,12.9c4.8,4.8,11.8,9.6,15.4,9.6c0.1,0,0.3,0,0.4,0c1-0.1,1.5-0.6,1.8-1c0.8-1.3-0.3-4-8-13.2
							c3.1,2.6,6.4,5.4,8.4,7.2c4,3.8,7.1,5.3,9.4,4.6c1.5-0.4,2.4-1.7,2.9-3.8c0.7-2.9-3.2-7.3-8.9-12.3c2.2,1.6,4.3,3.2,5.8,4.5
							c4,3.2,6.7,5.3,9.1,4.6c1.4-0.4,2.4-1.6,3.1-3.7c0.8-2.3-3.2-6.5-15.7-16.4c4.9,3,9.2,5.7,10.5,6.2c2.9,1.2,6,0.6,7.1-1.2
							c0.7-1.2,1.2-3.9-3.9-8.3c-1.1-0.9-5.1-3.6-10.2-7.1c-8.7-5.9-24.9-16.8-26.1-19.1c0-0.5,0.3-0.8,0.4-1
							c1.4-1.2,5.9-0.4,9.4,0.2c4.2,0.7,6.9,1.1,8.2,0c2.3-1.9,2.4-3.8,2-5c-1.2-4.1-8.7-6.7-15.6-7.5c-8.2-0.9-16.6,0.5-22.7,1.5
							c-3,0.5-6.4,1.1-7,0.7c-6.3-4.4-16.2-11.8-22.3-16.6c-5-3.9-11.4-10.5-17.7-16.8c-6.8-6.9-13.8-14.1-19.3-18.2
							c-5.6-4.2-10.9-8-14.8-10.8c-2.4-1.7-4.2-3-4.9-3.6c-4.1-3.3-13.1-16.7-19.1-28.8c-0.3-0.6-0.8-1.3-1.6-1.5L187.7,204z"/>
					</g>
					<path d="M125.6,143.1c-1.1-0.4-1.9-1.7-2.5-2.2c-4.9-3.9-10.4-7-13.3-11.9c-2-3.4-2.4-5.8-2.5-9.2c1-0.2,0.8-0.2,1.7-0.3
						c0.6,5,0.9,8.4,5.9,12.8c3.7,3.2,9.3,6.1,12.8,9.8C128.2,142.7,126.7,143.7,125.6,143.1z"/>
					<path d="M161.3,145.2c-4.8,0.4-22.5,0.8-27.6,0.7c-2.1-0.4-1.5-2.4-0.7-2.5c6.9,1.3,18.5,0.8,25.4,0.1
						C159.2,143.3,160.1,143.9,161.3,145.2z"/>
					<path d="M101.4,324.3c-1.7,1.5-10.5,9.3-7.4,11.4c7.8-8.9,14.2-14.8,20.6-15.4c19.5-1.8,37.6,13,37.9,12.9c0.6-0.3,0-2.7-0.4-3
						c-15.9-11.8-29.5-11.8-33-12C115.6,318,106.6,319.5,101.4,324.3z"/>
				</g>
				<g>
					<path d="M115.3,747.5c5.6-4,7.9-5.6,12.8-5.6c5.3,0,19,2.3,26.4,5.4c7.6,3.2,35.8,2.8,40.5,1.5c3.4-0.9,8-5.8,8.3-9.9
						c0.2-2.5-1.3-4.6-4.1-5.7c-2.9-1.2-6.5-1.6-10.4-2.1c-6.2-0.7-12.6-1.5-16.7-5.4c-6.9-6.5-8.9-6.5-14.8-6.5l-1,0
						c-2.7,0-3.9-1.4-5.8-3.5c-2.2-2.5-5-5.6-11.4-7.7c-7.1-2.4-9.4-14.2-9.4-19.6c0-3.1,3.8-26.9,7.6-49.9
						c3.1-19.4,6.1-37.7,6.8-43.9c1-8.5,1.7-23.3,2.1-33.1c0.2-4.9,0.4-9.6,0.6-10.5c0.1-0.2,0.5-0.5,0.7-0.7
						c3-2.8,12.1-11.4,10.2-29.5c0.3-1.6,3.2-16.7,5.6-23.6c0.2-0.6,20.3-60.7,21.6-80.9c0.9-13.9-0.4-33.1-1.1-43.4
						c-0.2-3.6-0.4-6.2-0.4-7.3c0-1.5,0.7-3.4,1.5-5.8c1.3-3.7,3.1-8.7,3.7-16c1-11.9-0.7-72-0.8-74.5c0.1-3.1,2.1-76.5-0.2-83.9
						c-2.1-6.5-14.3-33.6-28.2-42.3c-2.1-1.5-4.4-24.3-4-28.2c0.1-1.3,5.8-1.4,8.9-1.4c1.8,0,3.5-0.1,4.9-0.2
						c4.9-0.5,12.3-1.2,11.4-10.6c-0.1-0.7-0.3-1.5-0.5-2.4c-0.2-0.8-0.6-2.3-0.5-2.8c1.3-0.6,2.1-1.3,2.4-2.2
						c0.4-1.1-0.2-2.1-0.5-2.8c0-0.1-0.1-0.2-0.1-0.2c1.7-1.3,4-4.2,2.2-7.2c-0.2-0.3-0.4-0.6-0.5-0.9c-0.6-1.1-1.2-2.1-1.1-2.5
						c0.3-0.7,3.3-1.8,4.5-2.2c1.8-0.6,2.4-1.8,2.7-2.6c1.1-3.9-3.2-10.1-8.1-16.2c-0.5-0.7-0.9-1.2-1.2-1.5
						c-1.9-2.6-1.4-4.3-0.7-6.5c0.3-1.2,0.7-2.5,0.8-4c0.1-2.2-4.9-22.3-17.7-31.6c-11.9-8.7-27.7-7.2-36.1-6.4
						c-1.2,0.1-2.2,0.2-3,0.3c-9.6,0.6-23.5,7.4-31.4,19.3c-4.9,7.3-9.5,19.5-3.8,36.2c1,2.9,2.5,6.2,4.1,9.6
						c5.8,12.7,13.1,28.6,4.7,46.6c-0.1,0.1-0.3,0.4-0.6,0.7c-9.8,11.7-26.4,32.6-27.3,41c-1.1,10.2-0.5,25,0,26.5l1.9-0.6
						c-0.3-1.1-1.1-15.3,0.1-25.7c0.6-5.8,10.4-20.3,26.9-39.9c0.8-0.9,0.8-0.9,0.8-1.1c8.9-18.9,1.4-35.2-4.6-48.4
						c-1.6-3.4-3-6.6-4-9.4c-4.3-12.7-3.1-24.6,3.6-34.5c7.6-11.3,20.8-17.8,29.9-18.4c0.8-0.1,1.9-0.2,3.1-0.3
						c8.2-0.8,23.5-2.3,34.8,6c12.7,9.2,16.9,28.7,16.8,29.9c-0.1,1.3-0.4,2.4-0.7,3.5c-0.7,2.4-1.5,4.9,1,8.3
						c0.3,0.4,0.7,0.9,1.2,1.6c2.4,3,8.7,11,7.7,14.4c-0.1,0.4-0.4,1-1.4,1.3c-3.5,1.2-5.2,2-5.7,3.4c-0.5,1.3,0.2,2.5,1.2,4.2
						c0.2,0.3,0.3,0.6,0.5,0.9c1.4,2.4-1.9,4.7-1.9,4.8c-1.2,0.8-0.5,2.1-0.2,2.6c0.2,0.4,0.5,0.9,0.4,1.2c-0.1,0.2-0.3,0.6-1.4,1.1
						c-1.6,0.7-1.1,2.9-0.6,5.1c0.2,0.8,0.4,1.5,0.4,2.1c0.6,7-3.6,7.9-9.6,8.5c-1.4,0.1-3,0.2-4.8,0.2c-5.4,0.1-10.5,0.2-10.8,3.2
						c-0.2,2,1.2,27.8,4.9,30.1c13.4,8.4,25.4,34.9,27.4,41.2c1.8,5.7,0.9,57,0.1,83.3c0,0.6,1.7,62.5,0.8,74.4
						c-0.6,7-2.3,11.9-3.6,15.5c-0.9,2.6-1.6,4.6-1.6,6.5c0,1.1,0.2,3.8,0.4,7.4c0.7,10.3,2,29.3,1.1,43.1
						c-1.1,17.8-18.2,70.7-21.5,80.4c-2.5,7.4-5.5,23.3-5.7,24l0,0.1l0,0.1c1.9,17.2-6.7,25.3-9.6,28c-0.8,0.7-1.1,1-1.3,1.5
						c-0.2,0.5-0.3,2.7-0.7,11.1c-0.4,9.8-1.1,24.5-2.1,33c-0.7,6.1-3.6,24.4-6.8,43.8c-3.9,24.2-7.6,47-7.6,50.2
						c0,4.6,2,18.6,10.8,21.5c5.9,2,8.4,4.8,10.5,7.2c2,2.2,3.7,4.1,7.3,4.1l1,0c5.6,0,7.1,0,13.4,5.9c4.6,4.3,11.7,5.2,17.9,5.9
						c3.7,0.4,7.2,0.9,9.9,1.9c2,0.8,2.9,2,2.8,3.7c-0.2,3.4-4.4,7.4-6.8,8.1c-4.5,1.2-32.1,1.6-39.2-1.4
						c-7.6-3.2-21.7-5.6-27.2-5.6c-5.6,0-8.2,1.9-14,6c-5.7,4.1-25.4,1.9-30.9-1.5c-5.1-3.2-5.5-15.1-4.2-25.2
						c0.8-5.9,2.3-7.7,4-9.5c0.7-0.8,1.4-1.6,2-2.6c1.6-2.8,2.6-12.2,3.7-22.2c0.4-3.4,0.7-6.9,1.1-9.9l0.5-3.7
						c1.5-12,3.8-30.2,3-35.8c-0.9-6.6-5.1-18.8-6.2-21.7c-6.4-17.5,1.3-48,6.7-59.8c3.3-7.3,12.3-33.4,14-40.3
						c1.8-7.4,4.1-26.7-1.3-36.2c-4.7-8.4-6.6-17-6-27.1c0.5-8.1,0.4-39.7,0.3-50.1c0-1.6,0-2.7,0-3.2c0-1.3-0.6-2.3-1.4-3.7
						c-1.6-2.6-4.5-7.6-7.6-21.2c-3.9-17.4,1.9-32.9,4.7-40.3c0.5-1.3,0.9-2.3,1.1-3.1c1.6-5.1,1.5-25.8,1.5-34.6l0-2.4
						c0-5.4-2.3-7.1-5.3-9.4c-0.7-0.6-1.5-1.1-2.3-1.8c-3.4-2.9-3.3-18.6-3.3-27.9c0-1,0-2,0-3h-2c0,0.9,0,1.9,0,3
						c-0.1,14.2,0.2,26.3,4,29.5c0.9,0.7,1.7,1.4,2.4,1.9c2.8,2.1,4.5,3.4,4.5,7.8l0,2.4c0,8,0.1,29.1-1.4,34
						c-0.2,0.8-0.6,1.8-1.1,3c-2.9,7.6-8.8,23.4-4.8,41.5c3.1,13.9,6.2,19,7.8,21.8c0.8,1.4,1.2,2,1.2,2.7c0,0.4,0,1.5,0,3.2
						c0.1,10.4,0.2,42-0.3,50c-0.7,10.5,1.3,19.5,6.2,28.2c4.8,8.5,3,26.8,1.1,34.8c-1.7,6.9-10.6,32.7-13.9,40
						c-5.5,12-13.3,43.3-6.7,61.3c1.6,4.3,5.2,15.5,6.1,21.3c0.8,5.4-1.5,23.4-3,35.3l-0.5,3.7c-0.4,3.1-0.8,6.6-1.1,10
						c-0.9,8.9-2,19-3.4,21.4c-0.5,0.9-1.1,1.6-1.8,2.3c-1.7,1.9-3.6,4-4.4,10.6c-0.7,5.2-2.4,22.5,5.1,27.2c3.7,2.3,12.6,4,20.5,4
						C107.9,750.1,112.8,749.3,115.3,747.5z"/>
				</g>
			</g>
		</g>
	</g>
</g>
</svg>
