<?xml version="1.0" encoding="utf-8"?>
<!-- Generator: Adobe Illustrator 16.0.0, SVG Export Plug-In . SVG Version: 6.00 Build 0)  -->
<!DOCTYPE svg PUBLIC "-//W3C//DTD SVG 1.1//EN" "http://www.w3.org/Graphics/SVG/1.1/DTD/svg11.dtd">
<svg version="1.1" id="svg12" xmlns="http://www.w3.org/2000/svg" xmlns:xlink="http://www.w3.org/1999/xlink" x="0px" y="0px" class='disabled' width="100%" height="100%" viewBox="0 10 300 750" enable-background="new 0 0 370 760" xml:space="preserve">
<g id="bigCrayfish">
	
<g>	
<g>
	<path class="human" id="Left_Scapular_Region" fill="#B5B5B5" stroke="#FFFFFF" stroke-width="0.5" stroke-miterlimit="10" d="M172.61,201.859
		l-48.886-9.61c0,0-1.441-46.442,19.485-57.588c17.458-7.661,24.905,0.541,29.116,6.71
		C172.167,149.333,172.61,201.859,172.61,201.859z"/>
</g>
<g>
	<g>
		<path class="human" id="Right_Scapular_Region" fill="#B5B5B5" d="M184.533,201.906l47.39-9.354c0,0,1.44-46.707-18.387-58.498
			c-5.072-3.017-23.536-6.804-28.786,7.571C184.875,148,184.533,201.906,184.533,201.906z"/>
	</g>
</g>
<g>
	<g>
		<polygon class="human" id="Thoracic_Spine_01" fill="#B5B5B5" points="184.533,201.906 172.61,201.859 172.176,141.295 184.687,141.295 		"/>
		<path fill="#FFFFFF" d="M184.783,202.157l-12.42-0.049l-0.002-0.247l-0.437-60.815h13.013v0.25L184.783,202.157z M172.858,201.61
			l11.425,0.045l0.152-60.11h-12.008L172.858,201.61z"/>
	</g>
</g>
<g>
	<g>
		<path class="human" id="Left_Thoracic" fill="#B5B5B5" d="M172.896,264.318c0,0-37.039-2.616-41.892-6.558
			c0.037-5.763-7.811-50.877-6.824-64.904c2.274,0,48.431,9.003,48.431,9.003L172.896,264.318z"/>
		<path fill="#FFFFFF" d="M173.147,264.586l-0.269-0.019c-1.516-0.107-37.174-2.667-42.032-6.614l-0.093-0.076l0.001-0.12
			c0.013-1.989-0.929-8.759-2.122-17.329c-2.256-16.216-5.347-38.423-4.702-47.591l0.017-0.232h0.233
			c2.272,0,46.593,8.64,48.479,9.008l0.201,0.04L173.147,264.586z M131.253,257.637c4.866,3.635,38.045,6.165,41.391,6.412
			l-0.283-61.984c-3.24-0.631-43.941-8.552-47.949-8.944c-0.57,9.264,2.481,31.19,4.715,47.24
			C130.299,248.783,131.23,255.47,131.253,257.637z"/>
	</g>
</g>
<g>
	<g>
		<path class="human" id="Right_Thoracic" fill="#B5B5B5" d="M183.87,264.545l41.457-7.241c0,0,4.253-32.928,6.587-64.678
			c-4.458,0.875-47.381,9.28-47.381,9.28L183.87,264.545z"/>
		<path fill="#FFFFFF" d="M183.617,264.843l0.003-0.3l0.665-62.843l0.2-0.039c0,0,42.923-8.405,47.381-9.28l0.321-0.063
			l-0.024,0.327c-2.308,31.394-6.546,64.362-6.588,64.692l-0.023,0.183l-0.182,0.031L183.617,264.843z M184.781,202.112
			l-0.658,62.135l40.979-7.157c0.344-2.682,4.315-34.087,6.539-64.155C226.002,194.041,187.879,201.506,184.781,202.112z"/>
	</g>
</g>
<g>
	<g>
		<polygon class="human" id="Thoracic_Spine-02" fill="#B5B5B5" points="183.928,264.415 172.25,264.188 172.042,201.729 183.965,201.776 		"/>
		<path fill="#FFFFFF" d="M184.178,264.67l-12.177-0.237L172,264.188l-0.209-62.711l12.424,0.049v0.249L184.178,264.67z
			 M172.499,263.942l11.179,0.218l0.037-62.135l-11.422-0.045L172.499,263.942z"/>
	</g>
</g>
<g>
	<g>
		<polygon class="human" id="Lumbar_Spine" fill="#B5B5B5" points="184.382,314.702 171.53,313.906 172.313,264.188 184.78,264.432 		"/>
		<path fill="#FFFFFF" d="M184.63,314.968l-13.354-0.827l0.79-50.208l12.966,0.254L184.63,314.968z M171.784,313.671l12.35,0.765
			l0.395-49.76l-11.97-0.234L171.784,313.671z"/>
	</g>
</g>
<g>
	<g>
		<path class="human" id="Left_Lumbar" fill="#B5B5B5" d="M131.078,257.267c0,0-0.605,22.406-1.175,23.657c-0.568,1.251,9.641,9.549,12.283,11.601
			c7.39,5.739,20.245,2.844,29.23,24.681c0.227-6.483,0.796-53,0.796-53L131.078,257.267z"/>
		<path fill="#FFFFFF" d="M171.626,318.371l-0.44-1.071c-6.348-15.428-14.771-18.476-21.539-20.925
			c-2.802-1.014-5.448-1.972-7.614-3.654c-0.131-0.102-13.124-10.214-12.357-11.901c0.402-0.884,0.91-14.574,1.152-23.56
			l0.008-0.288l41.629,7.021l-0.002,0.214c-0.006,0.465-0.572,46.595-0.796,53.006L171.626,318.371z M131.32,257.561
			c-0.092,3.333-0.635,22.247-1.189,23.466c-0.26,0.91,7.057,7.3,12.209,11.3c2.103,1.633,4.713,2.578,7.478,3.578
			c6.703,2.425,15.006,5.43,21.383,20.145c0.233-9.113,0.719-48.361,0.76-51.634L131.32,257.561z"/>
	</g>
</g>
<g>
	<g>
		<path class="human" id="Right_Lumbar" fill="#B5B5B5" d="M225.223,257.267c0,0,0.606,22.406,1.18,23.657c0.57,1.251-9.688,9.549-12.35,11.601
			c-7.429,5.739-20.354,2.844-29.386,24.681c-0.231-6.483-0.667-53.048-0.667-53.048L225.223,257.267z"/>
		<path fill="#FFFFFF" d="M184.458,318.364l-0.041-1.15c-0.229-6.412-0.663-52.589-0.667-53.055l-0.002-0.214l41.716-6.972
			l0.009,0.287c0.242,8.986,0.752,22.676,1.156,23.56c0.771,1.69-12.291,11.801-12.424,11.902c-2.176,1.682-4.837,2.64-7.653,3.653
			c-6.805,2.449-15.272,5.498-21.654,20.925L184.458,318.364z M184.252,264.368c0.031,3.273,0.405,42.579,0.632,51.687
			c6.41-14.72,14.759-17.724,21.498-20.149c2.779-1,5.403-1.945,7.519-3.579c5.182-3.997,12.533-10.386,12.272-11.301
			c-0.557-1.217-1.103-20.131-1.192-23.464L184.252,264.368z"/>
	</g>
</g>
<g>
	<path class="human" id="Right_Gluteal_1_" fill="#B5B5B5" stroke="#FFFFFF" stroke-width="0.5" stroke-miterlimit="10" d="M230.875,324.774
		c-0.001,0-0.001,0-0.002,0c-11.939-0.001-16.748-10.031-18.26-14.343c-2.318-6.608-2.124-13.852,0.232-17.532
		c-1.812,1.063-3.884,1.792-6.049,2.552c-6.75,2.366-15.15,5.311-21.275,20.644c-3.556,11.841-8.102,34.736-6.396,41.155
		c6.127,10.967,17.917,14.75,29.625,14.75c14.482,0,27.084-12.167,30.354-22.054c-1.188-6.992-1.158-16.096-2.937-25.446
		l-1.851,0.005C233.143,324.683,231.984,324.774,230.875,324.774z"/>
</g>
<g>
	<path class="human" id="Right_Flank" fill="#B5B5B5" stroke="#FFFFFF" stroke-width="0.5" stroke-miterlimit="10" d="M226.119,281.384
		l-0.021,0.056l-0.046-0.337c-2.127,3.04-11.504,10.626-11.606,10.708c-3.368,2.699-3.979,10.978-1.355,18.455
		c1.479,4.212,6.168,14.008,17.788,14.009c0.001,0,0.001,0,0.002,0c1.006,0,4.063-0.124,5.122-0.275
		c-2.229-13.114-6.666-25.703-8.273-34.083C226.957,285.923,226.395,282.992,226.119,281.384z"/>
</g>
<g>
	<path class="human" id="Left_Gluteal" fill="#B5B5B5" stroke="#FFFFFF" stroke-width="0.5" stroke-miterlimit="10" d="M125.297,321.774
		c0.001,0,0.001,0,0.002,0c11.939-0.001,16.748-10.031,18.26-14.343c2.318-6.608,2.124-13.852-0.233-17.532
		c1.811,1.063,3.883,1.792,6.048,2.552c6.75,2.366,15.152,5.311,21.277,20.644c3.554,11.841,9.428,38.236,7.725,44.655
		c-6.127,10.967-18.452,14.28-30.16,14.28c-14.482,0-26.703-9.844-31.146-25.084c1.189-6.992,4.787-25.441,4.787-25.441
		C123.029,321.683,124.188,321.774,125.297,321.774z"/>
</g>
<g>
	<path class="human" id="Left_Flank" fill="#B5B5B5" stroke="#FFFFFF" stroke-width="0.5" stroke-miterlimit="10" d="M130.053,278.384l0.021,0.056
		l0.046-0.337c2.127,3.04,11.504,10.626,11.606,10.708c3.37,2.699,3.98,10.978,1.357,18.455
		c-1.479,4.212-6.168,14.008-17.788,14.009c-0.001,0-0.001,0-0.002,0c-1.006,0-2.112,0.126-3.169-0.025
		c2.229-13.114,4.713-25.953,6.322-34.333C129.215,282.923,129.777,279.992,130.053,278.384z"/>
</g>
<g>
	<g>
		<path class="human" id="Right_posterior_ankle" fill="#B5B5B5" d="M250.954,660.531c0.606-1.67-3.222-17.592-4.396-21.533
			c-6.678-1.064-16.455-1.291-19.867,0.756c0.564,6.256,1.631,15.582,1.972,21.383c1.173,0.521,4.164-8.631,9.707-9.555
			C246.559,650.217,250.652,660.682,250.954,660.531z"/>
		<path fill="#FFFFFF" d="M228.764,661.407L228.764,661.407c-0.07,0-0.139-0.019-0.201-0.042l-0.141-0.063l-0.01-0.147
			c-0.227-3.854-0.762-9.167-1.278-14.311c-0.256-2.536-0.501-4.975-0.69-7.064l-0.014-0.156l0.133-0.081
			c2.189-1.313,6.545-1.589,9.813-1.589c3.308,0,7.033,0.292,10.222,0.801l0.155,0.025l0.045,0.146
			c0.952,3.194,5.074,19.815,4.394,21.69l-0.03,0.094l-0.208,0.072c-0.204,0-0.28-0.135-0.705-0.879
			c-1.271-2.241-4.665-8.195-10.414-8.195c-0.466,0-0.938,0.04-1.418,0.12c-3.473,0.577-5.938,4.529-7.572,7.145
			C229.813,660.617,229.294,661.407,228.764,661.407z M226.955,639.891c0.188,2.062,0.428,4.438,0.676,6.904
			c0.506,5.023,1.028,10.214,1.266,14.054c0.346-0.256,0.985-1.288,1.521-2.14c1.686-2.691,4.227-6.759,7.914-7.374
			c0.503-0.083,1.007-0.126,1.5-0.126c6.04,0,9.659,6.358,10.852,8.447c0.03,0.058,0.063,0.115,0.099,0.171
			c-0.07-3.29-3.241-16.615-4.412-20.606c-3.129-0.485-6.759-0.771-9.986-0.771C231.966,638.45,228.634,638.961,226.955,639.891z"/>
	</g>
</g>
<g>
	<g>
		<path class="human" id="Right_Calf" fill="#B5B5B5" d="M239.732,514.65c13.117,19.78,3.793,107.666,6.824,124.348
			c-6.677-1.064-16.453-1.291-19.865,0.756c-0.271-5.25-6.217-32.904-15.315-64.143c-6.278-21.563-3.64-39.435-8.644-56.564
			c1.895,0.832,10.3,3.117,21.687,2.273C232.607,520.713,237.688,518.518,239.732,514.65z"/>
		<path fill="#FFFFFF" d="M226.463,640.183l-0.021-0.416c-0.277-5.563-6.526-33.963-15.305-64.085
			c-3.324-11.414-4.144-21.651-4.936-31.562c-0.696-8.713-1.354-16.943-3.709-25.003l-0.15-0.52l0.491,0.221
			c1.438,0.632,7.582,2.436,16.623,2.436c0,0,0.001,0,0.002,0c1.64,0,3.301-0.063,4.942-0.183c8.16-0.605,13.104-2.744,15.107-6.538
			l0.196-0.372l0.229,0.352c8.758,13.208,7.558,56.946,6.674,88.884c-0.438,16.088-0.821,29.981,0.188,35.562l0.063,0.348
			l-0.349-0.056c-3.165-0.505-6.86-0.795-10.146-0.795c-4.53,0-7.926,0.539-9.557,1.519L226.463,640.183z M203.113,519.466
			c2.254,7.952,2.9,16.051,3.587,24.615c0.789,9.88,1.606,20.096,4.916,31.46c8.594,29.503,14.769,57.379,15.298,63.806
			c2.279-1.146,6.359-1.396,9.461-1.396c3.188,0,6.768,0.271,9.877,0.747c-0.947-5.836-0.57-19.521-0.136-35.315
			c0.868-31.594,2.058-74.762-6.368-88.247c-2.211,3.729-7.227,5.835-15.311,6.438c-1.653,0.123-3.33,0.185-4.979,0.185
			c-0.001,0-0.002,0-0.002,0C211.111,521.754,205.188,520.221,203.113,519.466z"/>
	</g>
</g>
<g>
	<g>
		<path class="human" id="Right_Popliteal_Fossa" fill="#B5B5B5" d="M239.732,514.65c-1.211-6.824-2.729-14.104-2.273-26.396
			c-15.089-5.686-30.632-0.604-40.641,8.189c2.805,13.646,5.914,22.598,5.914,22.598s10.3,3.117,21.687,2.273
			C232.607,520.713,237.688,518.518,239.732,514.65z"/>
		<path fill="#FFFFFF" d="M220.411,521.715c-0.001,0-0.002,0-0.002,0c-9.611,0-17.669-2.404-17.749-2.429l-0.122-0.037l-0.042-0.12
			c-0.031-0.09-3.146-9.121-5.923-22.629l-0.029-0.143l0.108-0.101c7.707-6.771,17.771-10.649,27.623-10.649
			c4.549,0,9.014,0.813,13.271,2.418l0.169,0.063l-0.007,0.18c-0.421,11.373,0.867,18.533,2.004,24.854l0.281,1.573l-0.04,0.071
			c-2.096,3.958-7.17,6.188-15.518,6.807C223.134,521.666,221.779,521.715,220.411,521.715z M202.927,518.843
			c1.044,0.3,8.593,2.372,17.482,2.372c0,0,0.001,0,0.002,0c1.356,0,2.698-0.048,3.989-0.144c8.104-0.604,13.037-2.716,15.07-6.462
			l-0.25-1.402c-1.14-6.309-2.426-13.454-2.021-24.776c-4.15-1.541-8.498-2.318-12.928-2.318c-9.685,0-19.582,3.802-27.187,10.434
			C199.68,509.093,202.55,517.729,202.927,518.843z"/>
	</g>
</g>
<g>
	<g>
		<path fill="#FFFFFF" d="M257.012,722.229L257.012,722.229h-0.107l-0.131-0.101c-0.045-0.048-0.096-0.134-0.086-0.271
			c0.15-2.285-0.885-7.822-0.896-7.882l-0.022-0.118l0.084-0.097c0.021-0.02,1.746-1.932,3.539-4.688l0.258-0.397l0.187,0.438
			c0.729,1.76,1.179,5.979,1.415,8.247l0.034,0.313c0.013,0.128,0.049,0.465-1.405,2.079
			C259.785,719.858,257.646,722.229,257.012,722.229z M256.307,714.009c0.15,0.817,0.959,5.336,0.896,7.621
			c0.888-0.573,3.521-3.406,3.586-3.914l-0.033-0.302c-0.217-2.063-0.604-5.753-1.213-7.65
			C258.046,711.999,256.654,713.613,256.307,714.009z"/>
	</g>
</g>
<g>
	<g>
		<path class="human" id="Right_Posterior_Thigh" fill="#B5B5B5" stroke="#FFFFFF" stroke-width="0.5" stroke-miterlimit="10" d="M239.455,349.251
			c4,21.5,5.605,103.965-2.583,139.75c-15.089-5.686-30.241-0.793-40.25,8c-5.157-21.381-5.878-56.361-7.508-73.313
			c-1.517-15.77-7.159-61.813-7.159-61.813s16.229,11.368,27.545,9.875C230.2,369.022,237.408,353.118,239.455,349.251z"/>
	</g>
</g>
<g>
	<g>
		<path class="human" id="Right_posterior_Toe" fill="#B5B5B5" d="M230.764,728.41c0,0,0.161,10.268,2.008,13.367
			c2.396,4.02,9.063,3.842,9.683-0.404c0.614-4.248-1.071-9.938-1.183-10.49C238.77,732.768,230.764,728.41,230.764,728.41z"/>
		<path fill="#FFFFFF" d="M238.061,744.929c-2.283,0-4.393-1.153-5.504-3.021c-1.854-3.121-2.037-13.069-2.043-13.491l-0.008-0.428
			l0.376,0.204c0.054,0.024,5.396,2.914,8.608,2.914c0.709,0,1.258-0.146,1.63-0.426l0.319-0.236l0.076,0.393
			c0.012,0.066,0.049,0.207,0.102,0.411c0.402,1.58,1.629,6.389,1.078,10.163C242.385,743.547,240.564,744.929,238.061,744.929z
			 M231.023,728.83c0.056,1.962,0.381,10.166,1.961,12.819c1.021,1.714,2.968,2.774,5.074,2.774c1.699,0,3.81-0.81,4.144-3.092
			c0.534-3.676-0.673-8.411-1.069-9.967c-0.009-0.033-0.017-0.063-0.023-0.093c-0.426,0.218-0.969,0.325-1.614,0.325
			C236.623,731.605,232.325,729.503,231.023,728.83z"/>
	</g>
</g>
<g>
	<g>
		<path class="human" id="Right_Posterior_2nd_Phalange" fill="#B5B5B5" d="M241.339,731.406c0,0,1.21,6.838,2.21,8.516
			c1.299,2.18,5.577,1.088,5.913-1.215s-0.639-9.205-0.696-9.504C246.506,731.059,241.339,731.406,241.339,731.406z"/>
		<path fill="#FFFFFF" d="M245.927,741.354C245.926,741.354,245.926,741.354,245.927,741.354c-1.155,0-2.1-0.476-2.593-1.304
			c-1.012-1.696-2.191-8.314-2.241-8.6l-0.049-0.274l0.278-0.019c0.051-0.004,5.113-0.364,7.283-2.147l0.324-0.266l0.075,0.411
			c0.072,0.369,1.041,7.245,0.699,9.588C249.475,740.354,247.563,741.354,245.927,741.354z M241.634,731.633
			c0.236,1.281,1.275,6.729,2.13,8.161c0.549,0.921,1.59,1.06,2.162,1.06h0.002c1.434,0,3.098-0.877,3.287-2.183
			c0.286-1.965-0.412-7.463-0.635-9.018C246.471,731.104,242.697,731.537,241.634,731.633z"/>
	</g>
</g>
<g>
	<g>
		<path class="human" id="Right_Posterior_3rd_Phalange" fill="#B5B5B5" d="M248.766,729.291c0,0,0.504,4.76,0.619,6.807
			c0.106,1.89,4.596,1.24,4.559-2.735c-0.016-1.734-0.672-6.279-0.715-6.5C251.402,728.596,248.766,729.291,248.766,729.291z"/>
		<path fill="#FFFFFF" d="M250.742,737.362L250.742,737.362c-0.934,0-1.564-0.491-1.607-1.251c-0.113-2.021-0.613-6.746-0.619-6.794
			l-0.021-0.214l0.208-0.06c0.023-0.007,2.599-0.701,4.354-2.372l0.328-0.313l0.09,0.44c0.053,0.27,0.703,4.826,0.721,6.548
			c0.018,1.521-0.598,2.457-1.108,2.979C252.441,736.979,251.568,737.362,250.742,737.362z M249.035,729.473
			c0.099,0.942,0.499,4.826,0.6,6.611c0.032,0.574,0.594,0.778,1.107,0.778c0.695,0,1.438-0.329,1.982-0.881
			c0.444-0.452,0.979-1.274,0.969-2.622c-0.014-1.413-0.465-4.781-0.646-6.008C251.527,728.64,249.654,729.284,249.035,729.473z"/>
	</g>
</g>
<g>
	<g>
		<path class="human" id="Right_Posterior_4th_Phalange" fill="#B5B5B5" d="M253.216,727.282c0,0,0.771,2.588,1.152,4.604
			c0.353,1.854,4.092-0.578,3.534-4.521c-0.24-1.715-1.471-4.998-1.543-5.215C255.561,724.805,253.216,727.282,253.216,727.282z"/>
		<path fill="#FFFFFF" d="M255.245,732.76C255.244,732.76,255.244,732.76,255.245,732.76c-0.581,0.077-1.011-0.237-1.122-0.824
			c-0.375-1.981-1.139-4.556-1.146-4.58l-0.041-0.14l0.101-0.104c0.021-0.024,2.313-2.472,3.088-5.028l0.228-0.752l0.309,0.906
			c0.848,2.349,1.352,4.061,1.494,5.095c0.289,2.028-0.519,3.449-1.021,4.109C256.564,732.188,255.859,732.679,255.245,732.76z
			 M253.496,727.349c0.165,0.563,0.789,2.75,1.117,4.493c0.063,0.331,0.242,0.465,0.563,0.423h0.003
			c0.473-0.063,1.078-0.5,1.551-1.124c0.459-0.602,1.188-1.888,0.926-3.735c-0.092-0.646-0.393-1.944-1.295-4.498
			C255.523,725.03,253.914,726.887,253.496,727.349z"/>
	</g>
</g>
<g>
	<g>
		<path class="human" id="Right_Posterior_5th_Phalange" fill="#B5B5B5" d="M256.996,722.189c0,0,0.695,2.666,0.811,4.713
			c0.108,1.885,3.707,0.854,3.67-3.127c-0.017-1.734-0.381-6.152-0.422-6.373C259.914,719.922,256.996,722.189,256.996,722.189z"/>
		<path fill="#FFFFFF" d="M258.762,728.064L258.762,728.064c-0.691,0-1.164-0.45-1.205-1.147c-0.111-1.998-0.795-4.638-0.803-4.664
			l-0.041-0.16l0.13-0.101c0.028-0.022,2.884-2.261,3.983-4.692l0.324-0.721l0.146,0.776c0.052,0.254,0.411,4.718,0.431,6.418
			c0.015,1.415-0.428,2.644-1.232,3.461C259.969,727.762,259.338,728.064,258.762,728.064z M257.277,722.284
			c0.152,0.604,0.679,2.813,0.779,4.604c0.028,0.588,0.451,0.681,0.701,0.681c0.438,0,0.95-0.26,1.375-0.688
			c0.413-0.417,1.105-1.376,1.094-3.104c-0.018-1.289-0.226-4.11-0.346-5.519C259.736,720.216,257.8,721.861,257.277,722.284z"/>
	</g>
</g>
<g>
	<g>
		<path class="human" id="Left_posterior_ankle" fill="#B5B5B5" d="M105.584,663.262c-0.607-1.67,3.222-17.594,4.396-21.535
			c6.673-1.063,16.454-1.284,19.866,0.763c-0.568,6.254-1.63,15.58-1.971,21.381c-1.173,0.516-4.164-8.629-9.707-9.553
			C109.98,652.947,105.886,663.41,105.584,663.262z"/>
		<path fill="#FFFFFF" d="M127.775,664.136c-0.531,0-1.048-0.789-2.075-2.433c-1.634-2.614-4.104-6.566-7.572-7.146
			c-0.476-0.08-0.953-0.115-1.418-0.115c-5.751,0-9.14,5.949-10.416,8.191c-0.423,0.743-0.5,0.877-0.703,0.878l-0.118-0.022
			l-0.09-0.045l-0.034-0.099c-0.682-1.875,3.439-18.498,4.392-21.688l0.045-0.15l0.155-0.021c3.188-0.513,6.913-0.804,10.218-0.804
			c3.27,0,7.627,0.275,9.816,1.591l0.135,0.08l-0.014,0.155c-0.19,2.093-0.436,4.528-0.69,7.063
			c-0.518,5.141-1.053,10.456-1.28,14.312l-0.009,0.152l-0.14,0.062C127.913,664.122,127.845,664.136,127.775,664.136z
			 M116.71,653.939c0.493,0,0.998,0.043,1.5,0.126c3.69,0.61,6.232,4.682,7.914,7.372c0.532,0.852,1.177,1.884,1.519,2.14
			c0.235-3.842,0.758-9.034,1.265-14.063c0.249-2.468,0.488-4.843,0.675-6.896c-1.679-0.93-5.013-1.44-9.424-1.44
			c-3.226,0-6.854,0.279-9.983,0.771c-1.169,3.991-4.34,17.313-4.412,20.604c0.032-0.055,0.064-0.107,0.096-0.169
			C107.049,660.299,110.668,653.939,116.71,653.939z"/>
	</g>
</g>
<g>
	<g>
		<path class="human" id="Left_Calf" fill="#B5B5B5" d="M116.805,517.379c-13.117,19.787-3.792,107.668-6.824,124.348
			c6.673-1.063,16.454-1.284,19.866,0.763c0.267-5.25,6.217-32.906,15.315-64.146c6.28-21.563,3.64-39.432,8.644-56.563
			c-1.895,0.832-10.3,3.112-21.686,2.271C123.931,523.443,118.852,521.246,116.805,517.379z"/>
		<path fill="#FFFFFF" d="M130.075,642.913l-0.357-0.214c-1.632-0.979-5.027-1.521-9.56-1.521c-3.28,0-6.976,0.289-10.139,0.793
			l-0.349,0.061l0.063-0.353c1.014-5.57,0.631-19.471,0.188-35.561c-0.879-31.938-2.083-75.671,6.673-88.88l0.232-0.354l0.197,0.372
			c2.009,3.795,6.953,5.938,15.113,6.54c1.638,0.121,3.299,0.188,4.935,0.188c9.045,0,15.191-1.811,16.631-2.438l0.491-0.216
			l-0.15,0.515c-2.353,8.063-3.011,16.288-3.708,25c-0.792,9.906-1.611,20.15-4.936,31.566
			c-8.775,30.123-15.023,58.521-15.306,64.085L130.075,642.913z M120.159,640.681c3.103,0,7.186,0.249,9.465,1.396
			c0.529-6.426,6.705-34.301,15.298-63.806c3.311-11.366,4.127-21.584,4.917-31.47c0.685-8.563,1.332-16.661,3.585-24.607
			c-2.075,0.755-8.003,2.29-16.351,2.29c-1.649,0-3.322-0.063-4.972-0.188c-8.084-0.6-13.1-2.706-15.312-6.437
			c-8.425,13.481-7.237,56.647-6.368,88.239c0.435,15.802,0.812,29.483-0.137,35.318
			C113.396,640.951,116.972,640.681,120.159,640.681z"/>
	</g>
</g>
<g>
	<g>
		<path class="human" id="Left_Popliteal_Fossa" fill="#B5B5B5" d="M116.805,517.379c1.212-6.824,2.729-14.102,2.274-26.389
			c15.09-5.688,30.632-0.605,40.641,8.188c-2.805,13.648-5.914,22.603-5.914,22.603s-10.3,3.112-21.686,2.271
			C123.931,523.443,118.852,521.246,116.805,517.379z"/>
		<path fill="#FFFFFF" d="M136.122,524.445c-1.367,0-2.72-0.049-4.021-0.146c-8.346-0.619-13.422-2.845-15.518-6.804l-0.04-0.076
			l0.282-1.575c1.137-6.313,2.425-13.474,2.003-24.846l-0.006-0.18l0.168-0.063c4.259-1.604,8.725-2.419,13.273-2.419
			c9.847,0,19.915,3.883,27.621,10.653l0.109,0.096l-0.029,0.146c-2.776,13.508-5.892,22.534-5.923,22.629l-0.042,0.116
			l-0.122,0.036C153.798,522.039,145.736,524.445,136.122,524.445z M117.066,517.338c2.034,3.747,6.966,5.862,15.073,6.464
			c1.289,0.095,2.628,0.146,3.983,0.146c8.893,0,16.446-2.074,17.489-2.374c0.378-1.114,3.248-9.753,5.834-22.307
			c-7.602-6.632-17.5-10.433-27.181-10.433c-4.428,0-8.777,0.782-12.929,2.324c0.403,11.321-0.883,18.465-2.018,24.771
			L117.066,517.338z"/>
	</g>
</g>
<g>
	<g>
		<path class="human" id="Left_Posterior_Thigh" fill="#B5B5B5" stroke="#FFFFFF" stroke-width="0.5" stroke-miterlimit="10" d="M117.5,348.167
			c-9.667,33.333-6.61,107.037,1.579,142.824c15.09-5.688,30.632-0.605,40.641,8.188c5.157-21.379,4.741-56.143,6.371-73.092
			c1.516-15.77,8.567-62.478,8.567-62.478S159.5,373.5,145.5,371.5C124.801,368.77,119.548,352.034,117.5,348.167z"/>
	</g>
</g>
<g>
	<g>
		<path class="human" id="Left_posterior_Toe" fill="#B5B5B5" d="M125.775,731.141c0,0-0.162,10.271-2.008,13.367
			c-2.396,4.021-9.059,3.842-9.679-0.406c-0.618-4.241,1.072-9.938,1.179-10.483C117.77,735.498,125.775,731.141,125.775,731.141z"
			/>
		<path fill="#FFFFFF" d="M118.479,747.659c-2.505,0-4.326-1.382-4.638-3.521c-0.549-3.771,0.676-8.578,1.079-10.153
			c0.053-0.206,0.089-0.353,0.102-0.414l0.076-0.396l0.32,0.241c0.372,0.28,0.921,0.422,1.63,0.422c3.214,0,8.554-2.886,8.607-2.915
			l0.376-0.205l-0.007,0.433c-0.007,0.423-0.185,10.366-2.043,13.487C122.871,746.5,120.763,747.658,118.479,747.659z
			 M115.429,734.008c-0.008,0.03-0.016,0.063-0.024,0.096c-0.396,1.561-1.603,6.291-1.068,9.967c0.333,2.278,2.44,3.094,4.143,3.094
			c2.108,0,4.052-1.065,5.073-2.779c1.58-2.65,1.906-10.854,1.962-12.814c-1.302,0.673-5.6,2.771-8.467,2.771l0,0
			C116.398,734.336,115.856,734.226,115.429,734.008z"/>
	</g>
</g>
<g>
	<g>
		<path class="human" id="Left_Posterior_2nd_Phalange" fill="#B5B5B5" d="M115.2,734.137c0,0-1.211,6.838-2.211,8.521
			c-1.297,2.178-5.576,1.088-5.912-1.222c-0.336-2.303,0.638-9.2,0.696-9.504C110.032,733.787,115.2,734.137,115.2,734.137z"/>
		<path fill="#FFFFFF" d="M110.613,744.082c-1.637,0-3.548-0.998-3.784-2.61c-0.342-2.345,0.626-9.219,0.699-9.588l0.081-0.411
			l0.323,0.271c2.172,1.784,7.234,2.146,7.285,2.146l0.278,0.021l-0.049,0.271c-0.05,0.28-1.23,6.902-2.242,8.604
			C112.711,743.607,111.767,744.082,110.613,744.082z M107.958,732.382c-0.221,1.56-0.92,7.051-0.633,9.021
			c0.19,1.306,1.854,2.183,3.289,2.183c0.572,0,1.613-0.138,2.161-1.058c0.854-1.438,1.894-6.884,2.13-8.161
			C113.842,734.267,110.068,733.831,107.958,732.382z"/>
	</g>
</g>
<g>
	<g>
		<path class="human" id="Left_Posterior_3rd_Phalange" fill="#B5B5B5" d="M107.773,732.021c0,0-0.505,4.758-0.62,6.807
			c-0.106,1.883-4.596,1.24-4.559-2.74c0.016-1.734,0.672-6.281,0.717-6.502C105.136,731.324,107.773,732.021,107.773,732.021z"/>
		<path fill="#FFFFFF" d="M105.795,740.092c-0.826,0-1.7-0.385-2.339-1.023c-0.515-0.521-1.126-1.459-1.112-2.979
			c0.016-1.758,0.669-6.29,0.722-6.55l0.09-0.443l0.327,0.313c1.754,1.672,4.328,2.367,4.354,2.375l0.207,0.055l-0.022,0.213
			c-0.005,0.048-0.505,4.775-0.619,6.794C107.36,739.602,106.729,740.092,105.795,740.092z M103.488,730.08
			c-0.179,1.227-0.63,4.604-0.643,6.01c-0.013,1.352,0.519,2.169,0.967,2.621c0.546,0.552,1.288,0.881,1.983,0.881
			c0.515,0,1.076-0.204,1.108-0.772c0.101-1.787,0.501-5.675,0.599-6.611C106.883,732.014,105.011,731.369,103.488,730.08z"/>
	</g>
</g>
<g>
	<g>
		<path class="human" id="Left_Posterior_4th_Phalange" fill="#B5B5B5" d="M103.329,729.711c0,0-0.427,2.666-0.542,4.717
			c-0.106,1.883-4.132-0.039-4.095-4.02c0.016-1.734,0.807-5.15,0.85-5.371C100.681,727.561,103.329,729.711,103.329,729.711z"/>
		<path fill="#FFFFFF" d="M102.033,735.405c-0.621,0-1.384-0.396-2.042-1.063c-0.586-0.593-1.567-1.892-1.548-3.938
			c0.009-1.044,0.284-2.813,0.817-5.246l0.187-0.942l0.323,0.72c1.102,2.438,3.69,4.563,3.717,4.579l0.112,0.096l-0.022,0.143
			c-0.004,0.027-0.426,2.678-0.54,4.691C103.003,735.036,102.619,735.405,102.033,735.405z M99.637,725.781
			c-0.561,2.646-0.689,3.977-0.695,4.629c-0.018,1.867,0.872,3.047,1.404,3.583c0.549,0.555,1.211,0.912,1.687,0.912
			c0.325,0,0.485-0.156,0.504-0.491c0.1-1.771,0.434-4.022,0.522-4.602C102.585,729.409,100.746,727.779,99.637,725.781z"/>
	</g>
</g>
<g>
	<g>
		<path class="human" id="Left_Posterior_5th_Phalange" fill="#B5B5B5" d="M99.542,724.92c0,0-0.695,2.666-0.811,4.713
			c-0.108,1.883-3.707,0.854-3.67-3.127c0.017-1.734,0.381-6.152,0.423-6.373C96.624,722.652,99.542,724.92,99.542,724.92z"/>
		<path fill="#FFFFFF" d="M97.776,730.795c-0.577,0-1.208-0.304-1.731-0.831c-0.809-0.813-1.247-2.046-1.234-3.46
			c0.016-1.7,0.379-6.164,0.427-6.418l0.147-0.776l0.326,0.725c1.102,2.436,3.955,4.671,3.983,4.688l0.13,0.104l-0.042,0.16
			c-0.007,0.021-0.69,2.666-0.803,4.658C98.941,730.344,98.468,730.795,97.776,730.795z M95.652,720.994
			c-0.12,1.402-0.328,4.225-0.34,5.514c-0.016,1.729,0.676,2.688,1.089,3.104c0.423,0.428,0.938,0.684,1.375,0.684
			c0.249,0,0.671-0.088,0.706-0.677c0.101-1.786,0.626-3.995,0.778-4.604C98.739,724.592,96.8,722.946,95.652,720.994z"/>
	</g>
</g>
<g>
	<g>
		<path class="human" id="Sacral_Spine" fill="#B5B5B5" d="M171.388,313.944c-0.513,0.663-0.454,2.436,0.635,5.535
			c0.995,2.833,6.067,24.72,6.597,31.467c0.872-5.761,6.295-31.656,6.522-32.225c0.227-0.569,0.458-4.513-0.683-4.777
			C183.475,313.717,172.016,313.136,171.388,313.944z"/>
		<path fill="#FFFFFF" d="M178.54,353.138l-0.17-2.172c-0.514-6.549-5.529-28.4-6.583-31.404c-1.034-2.943-1.24-4.938-0.597-5.771
			c0.129-0.167,0.398-0.513,4.486-0.513c3.479,0,8.185,0.271,8.839,0.422c0.264,0.061,0.481,0.252,0.647,0.569
			c0.605,1.157,0.428,4.001,0.212,4.543c-0.192,0.537-5.604,26.204-6.508,32.17L178.54,353.138z M175.676,313.779
			c-3.556,0-4.036,0.271-4.097,0.325c-0.186,0.241-0.704,1.356,0.679,5.292c0.977,2.781,5.334,21.655,6.412,29.732
			c1.411-7.968,5.98-29.853,6.24-30.5c0.156-0.393,0.357-3.079-0.19-4.126c-0.095-0.182-0.202-0.288-0.317-0.314
			C183.835,314.057,179.342,313.779,175.676,313.779z"/>
	</g>
</g>
<!-- <g>
	<g>
		<path class="human" id="Posterior_cervical" fill="#B5B5B5" stroke="#FFFFFF" stroke-width="0.5" stroke-miterlimit="10" d="M196.211,123.401
			c-0.086,0.013,12.518,7.453,14.227,9.037c-1.938-0.5-20.521-5.854-25.938,9.313c-3.209,0.026-9.147-0.424-12.333-0.417
			c-9.333-15.667-26.333-7.667-26.5-7.667c7.333-4.333,15.71-10.142,15.741-10.266c0.909-4.038,0.853-12.17,0-21.61
			c0.683,0.455,34.232-0.341,34.803,0C195.303,110.057,195.756,120.842,196.211,123.401z"/>
	</g>
</g> -->
<g>
	<path class="human" id="Left_Posterior_cervical" fill="#B5B5B5" stroke="#000000" stroke-width="0.5" stroke-miterlimit="10" d="M172.2,141.3c-9.3-15.7-26.3-7.7-26.5-7.7c7.3-4.3,15.7-10.1,15.7-10.3
		c0.9-4,0.9-12.2,0-21.6c0.2,0.2,4.3,0.2,9.5,0.1L172.2,141.3z"/>
</g>
<g>
	<path class="human" id="Right_Posterior_cervical" fill="#B5B5B5" stroke="#000000" stroke-width="0.5" stroke-miterlimit="10" d="M183.3,101.8c6.8-0.1,12.6-0.1,12.9,0c-0.9,8.3-0.5,19.1,0,21.6
		c-0.1,0,12.5,7.5,14.2,9c-1.9-0.5-20.5-5.9-25.9,9.3L183.3,101.8z"/>
</g>
<g>
	<g>
		<path class="human" id="Cervical_Spine" fill="#B5B5B5" stroke="#FFFFFF" stroke-width="0.5" stroke-miterlimit="10" d="M170.917,102.417
			l1.25,39.034c0,0,12.5,0.091,12.542-0.183c-0.042-2.924-0.608-37.188-1.292-39.184C183.581,102.182,172,102.167,170.917,102.417z"
			/>
	</g>
</g>
<g>
	<g>
		<path class="human" id="Right_Posterior_Wrist" fill="#B5B5B5" stroke="#FFFFFF" stroke-width="0.5" stroke-miterlimit="10" d="M297.32,337.108
			c-1.985,0.46-9.014,2.701-20.021,6.369c1.256,3.83,2.753,10.037,3.282,12.023c1.347-0.264,13.817-1.865,25.417-8.333
			C304.896,346.251,298.621,340.433,297.32,337.108z"/>
	</g>
</g>
<g>
	<g>
		<path class="human" id="Right_Posterior_Acromial" fill="#B5B5B5" d="M223.671,134.429c0,0,28.571,7.239,33.539,23.608
			c4.661,15.358,3.942,33.856,3.942,33.856s-30.961-31.12-32.188-31.732c-0.762-2.75-4.894-24.075-18.085-28.472
			C213.764,132.144,223.671,134.429,223.671,134.429z"/>
		<path fill="#FFFFFF" d="M261.381,192.476l-0.404-0.407c-8.582-8.626-31.082-31.135-32.121-31.685l-0.094-0.05l-0.035-0.106
			c-0.062-0.223-0.145-0.566-0.252-1.011c-3.762-15.454-9.707-24.636-17.67-27.291l0.117-0.484
			c2.855,0.451,12.706,2.72,12.807,2.743c0.291,0.074,28.771,7.463,33.726,23.779c4.62,15.222,3.961,33.753,3.954,33.938
			L261.381,192.476z M229.186,160.007c2.15,1.599,27.19,26.731,31.733,31.296c0.07-3.256,0.188-19.564-3.948-33.193
			c-4.869-16.046-33.076-23.367-33.361-23.439c-0.07-0.017-6.477-1.492-10.439-2.298c7.035,3.566,12.344,12.539,15.794,26.726
			C229.053,159.482,229.127,159.79,229.186,160.007z"/>
	</g>
</g>
<g>
	<g>
		<path class="human" id="Right_Posterior_UpperArm" fill="#B5B5B5" d="M274.766,248.725c-19.563-4.095-29.57,8.794-29.57,8.794
			s-9.131-30.757-15.314-42.676c3.704-30.217-1.021-53.278-1.021-53.278l32.375,31.846
			C261.229,193.412,276.283,249.332,274.766,248.725z"/>
		<path fill="#FFFFFF" d="M245.093,258.057l-0.138-0.466c-0.092-0.308-9.195-30.871-15.301-42.632l-0.036-0.069l0.01-0.077
			c3.657-29.832-0.971-52.967-1.019-53.197l-0.164-0.804l33.008,32.469l0.018,0.065c2.438,9.046,14.533,54.239,13.557,55.514
			l-0.071,0.098l-0.162,0.021c-0.039,0-0.078-0.008-0.114-0.023c-2.486-0.517-4.994-0.785-7.41-0.785
			c-14.314,0-21.797,9.406-21.869,9.501L245.093,258.057z M230.134,214.797c5.724,11.071,14.022,38.398,15.168,42.209
			c1.554-1.756,9.013-9.335,21.959-9.335c2.392,0,4.869,0.259,7.37,0.77c0.092-2.794-8.013-34.048-13.625-54.9l-31.76-31.24
			C230.016,166.601,233.406,188.005,230.134,214.797z"/>
	</g>
</g>
<g>
	<g>
		<path class="human" id="Right_Elbow_Joint" fill="#B5B5B5" d="M274.917,248.206c-6.067-3.336-30.198,0.217-29.571,8.795
			c0.229,3.109,1.508,10.3,2.272,11.98c19.411,12.056,32.454-9.288,32.454-9.288S275.445,250.026,274.917,248.206z"/>
		<path fill="#FFFFFF" d="M259.445,272.921L259.445,272.921c-3.953,0-7.979-1.254-11.959-3.728l-0.064-0.04l-0.031-0.069
			c-0.764-1.675-2.058-8.834-2.293-12.065c-0.104-1.421,0.43-2.773,1.588-4.02c3.795-4.081,13.621-6.283,20.939-6.283
			c3.29,0,5.923,0.451,7.412,1.271l0.091,0.05l0.029,0.1c0.518,1.78,5.095,11.354,5.141,11.449l0.06,0.123l-0.067,0.116
			C280.206,259.954,272.135,272.921,259.445,272.921z M247.814,268.809c3.881,2.397,7.793,3.612,11.631,3.612
			c11.777,0,19.521-11.473,20.342-12.746c-0.557-1.165-4.461-9.363-5.079-11.298c-1.435-0.75-3.94-1.162-7.083-1.162
			c-7.214,0-16.876,2.146-20.573,6.124c-1.06,1.14-1.55,2.366-1.456,3.643C245.822,260.088,247.085,267.091,247.814,268.809z"/>
	</g>
</g>
<g>
	<g>
		<path class="human" id="Right_Posterior_ForeArm" fill="#B5B5B5" d="M297.32,337.108c-1.567,0.88-9.168,2.321-20.021,6.369
			c-3.604-10.501-25.561-55.624-29.686-74.496c19.563,10.691,28.205-4.322,32.523-9.326
			C285.497,270.504,288.766,317.396,297.32,337.108z"/>
		<path fill="#FFFFFF" d="M277.15,343.801l-0.084-0.243c-1.188-3.465-4.32-10.572-8.287-19.571
			c-7.865-17.852-18.641-42.3-21.405-54.953l-0.117-0.536l0.481,0.263c4.521,2.473,8.797,3.727,12.699,3.727
			c9.217,0,14.731-6.988,18.029-11.163c0.533-0.676,1.037-1.314,1.485-1.834l0.247-0.285l0.167,0.338
			c2.425,4.918,4.386,16.945,6.651,30.872c2.732,16.773,5.832,35.784,10.522,46.592l0.091,0.207l-0.197,0.11
			c-0.646,0.364-2.217,0.8-4.59,1.461c-3.555,0.989-8.925,2.484-15.463,4.924L277.15,343.801z M247.982,269.46
			c2.934,12.749,13.506,36.741,21.256,54.325c3.881,8.806,6.964,15.803,8.218,19.369c6.448-2.395,11.744-3.869,15.262-4.848
			c2.038-0.567,3.565-0.993,4.279-1.316c-4.663-10.901-7.744-29.803-10.464-46.494c-2.213-13.567-4.129-25.327-6.446-30.385
			c-0.372,0.445-0.772,0.953-1.224,1.523c-3.354,4.247-8.967,11.354-18.426,11.354C256.591,272.988,252.402,271.802,247.982,269.46z
			"/>
	</g>
</g>
<g>
	<g>
		<path class="human" id="Right_Posterior_Thumb_Proximal_phalanx" fill="#B5B5B5" d="M319.099,365.442c0,0,3.018-7.798,2.563-8.938
			c-0.53-1.349-4.47-3.858-7.563-5.387c-2.051,1.674-1.946,6.533,0.307,10.62C316.271,362.311,319.099,365.442,319.099,365.442z"/>
		<path fill="#FFFFFF" d="M319.186,365.911l-0.271-0.302c-0.027-0.031-2.803-3.086-4.588-3.633l-0.102-0.03l-0.049-0.089
			c-2.294-4.161-2.399-9.168-0.236-10.935l0.125-0.102l0.144,0.071c2.646,1.308,7.072,3.963,7.684,5.52
			c0.471,1.171-2.05,7.802-2.559,9.12L319.186,365.911z M314.57,361.53c1.58,0.544,3.688,2.658,4.438,3.448
			c1.146-3.007,2.708-7.649,2.417-8.382c-0.468-1.191-4.117-3.594-7.291-5.181C312.322,353.094,312.513,357.732,314.57,361.53z"/>
	</g>
</g>
<g>
	<g>
		<path class="human" id="Right_Posterior_Thumb_Distal_phalanx" fill="#B5B5B5" d="M319.183,365.442l2.563-8.938c0,0,13.658,13.984,9.188,16.218
			C327.492,374.441,319.183,365.442,319.183,365.442z"/>
		<path fill="#FFFFFF" d="M329.929,373.19c-3.888,0-10.645-7.269-10.93-7.579l-0.096-0.103l2.717-9.487l0.301,0.308
			c0.442,0.453,10.819,11.133,10.124,15.26c-0.104,0.62-0.441,1.076-1.002,1.356C330.719,373.107,330.344,373.19,329.929,373.19z
			 M319.462,365.375c0.844,0.893,7.034,7.315,10.467,7.315c0.337,0,0.641-0.065,0.896-0.192c0.416-0.208,0.65-0.532,0.729-0.992
			c0.591-3.507-7.963-12.702-9.688-14.515L319.462,365.375z"/>
	</g>
</g>
<g>
	<g>
		<path class="human" id="Right_Posterior_Little_Distal_phalanx" fill="#B5B5B5" stroke="#FFFFFF" stroke-width="0.5" stroke-miterlimit="10" d="
			M292.751,398.125c-2.75-0.172-4.47-0.631-6.017-1.146c0.14,2.813,2.589,8.943,4.396,8.77
			C292.592,405.607,292.923,401.563,292.751,398.125z"/>
	</g>
</g>
<g>
	<g>
		<path class="human" id="Right_Posterior_Ring_Distal_phalanx" fill="#B5B5B5" stroke="#FFFFFF" stroke-width="0.5" stroke-miterlimit="10" d="
			M302.779,401.559c-3.383-0.188-4.369,0.291-6.315,0.104c0.683,2.979,1.326,11.541,4.384,11.313
			C304.051,412.73,303.195,405.633,302.779,401.559z"/>
	</g>
</g>
<g>
	<g>
		<path class="human" id="Right_Posterior_Middle_Distal_phalanx" fill="#B5B5B5" stroke="#FFFFFF" stroke-width="0.5" stroke-miterlimit="10" d="
			M312.76,400.23c-3.174,0.766-5.107,1.02-7.098,1.555c0.229,2.957,1.978,11.68,5.643,11.68
			C314.518,413.465,313.447,404.127,312.76,400.23z"/>
	</g>
</g>
<g>
	<g>
		<path class="human" id="Right_Posterior_Index_Distal_phalanx" fill="#B5B5B5" d="M321.62,395.012c-2.535,1.531-4.44,2.951-6.159,3.91
			c0.683,2.982,1.688,9.957,5.358,9.957C324.032,408.879,322.307,398.908,321.62,395.012z"/>
	</g>
</g>
<g>
	<g>
		<path class="human" id="Left_Posterior_Wrist" fill="#B5B5B5" d="M58.225,337.397c1.986,0.458,9.017,2.691,20.024,6.345
			c-1.252,3.815-2.01,8.145-2.543,10.123c-1.326,0.98-19.302,3.813-24.096-8.075C52.716,344.875,56.924,340.708,58.225,337.397z"/>
		<path fill="#FFFFFF" d="M68.635,355.125c-5.053,0-14.014-1.201-17.256-9.243l-0.068-0.169l0.141-0.117
			c1.072-0.886,5.265-5.042,6.541-8.291l0.079-0.201l0.21,0.048c1.952,0.45,8.884,2.646,20.047,6.351l0.237,0.079l-0.078,0.237
			c-0.839,2.557-1.445,5.302-1.933,7.507c-0.231,1.047-0.431,1.951-0.606,2.602l-0.022,0.084l-0.07,0.052
			C75.256,354.508,72.22,355.125,68.635,355.125z M51.911,345.862c3.19,7.62,11.833,8.763,16.724,8.763
			c3.485,0,6.242-0.583,6.855-0.92c0.167-0.633,0.357-1.495,0.576-2.486c0.475-2.148,1.062-4.806,1.869-7.318
			c-10.646-3.532-17.387-5.672-19.56-6.211C57.04,340.85,53.292,344.673,51.911,345.862z"/>
	</g>
</g>
<g>
	<g>
		<path class="human" id="Left_Posterior_Acromial" fill="#B5B5B5" d="M131.899,136.479c0,0-28.583,7.212-33.55,23.519
			c-4.663,15.3-3.945,33.728-3.945,33.728s30.97-31.001,32.195-31.612c0.763-2.739,5.461-23.869,18.658-28.25
			C142.375,134.318,131.899,136.479,131.899,136.479z"/>
		<path fill="#FFFFFF" d="M94.177,194.308l-0.022-0.572c-0.007-0.185-0.666-18.645,3.956-33.81
			c4.951-16.254,33.441-23.616,33.728-23.688c0.115-0.024,10.525-2.171,13.38-2.62l0.118,0.484
			c-5.592,1.856-13.309,8.112-18.309,27.372c-0.078,0.3-0.14,0.539-0.187,0.708l-0.03,0.107l-0.1,0.049
			c-1.037,0.547-23.544,22.971-32.13,31.565L94.177,194.308z M143.052,134.511c-4.098,0.771-11.017,2.196-11.102,2.213
			c-0.273,0.069-28.493,7.363-33.361,23.347c-4.138,13.576-4.021,29.822-3.95,33.067c4.542-4.546,29.595-29.588,31.744-31.179
			c0.043-0.158,0.096-0.364,0.161-0.611C130.998,144.193,137.631,137.224,143.052,134.511z"/>
	</g>
</g>
<g>
	<g>
		<path class="human" id="Left_Posterior_Upper_Arm" fill="#B5B5B5" d="M80.636,248.831c19.569-4.079,29.581,8.762,29.581,8.762
			s9.175-31.217,15.365-43.09c-3.867-19.221,0.98-52.501,0.98-52.501l-32.386,31.725C94.177,193.726,79.118,249.435,80.636,248.831z
			"/>
		<path fill="#FFFFFF" d="M110.319,258.13l-0.3-0.384c-0.074-0.095-7.557-9.466-21.877-9.466c-2.417,0-4.925,0.268-7.456,0.795
			l-0.075,0.01c-0.093,0-0.18-0.044-0.237-0.12c-0.976-1.279,11.125-46.293,13.561-55.305l0.018-0.065l32.963-32.291l-0.106,0.733
			c-0.049,0.333-4.797,33.458-0.983,52.416l0.018,0.086l-0.041,0.079c-6.108,11.716-15.255,42.733-15.347,43.045L110.319,258.13z
			 M88.143,247.78c12.948,0,20.41,7.548,21.965,9.3c1.144-3.843,9.483-31.572,15.212-42.615
			c-3.486-17.484,0.221-46.794,0.895-51.773L94.4,193.857c-5.617,20.78-13.729,51.935-13.629,54.694
			C83.297,248.036,85.763,247.78,88.143,247.78z"/>
	</g>
</g>
<g>
	<g>
		<path class="human" id="Left_Elbow_Joint" fill="#B5B5B5" d="M80.636,248.831c6.068-3.324,30.208,0.216,29.581,8.762
			c-0.228,3.096-1.509,10.261-2.274,11.935c-19.417,12.01-32.464-9.253-32.464-9.253S80.105,250.643,80.636,248.831z"/>
		<path fill="#FFFFFF" d="M96.112,273.453c-12.694,0-20.767-12.917-20.847-13.048l-0.071-0.116l0.059-0.123
			c0.046-0.096,4.625-9.633,5.143-11.406l0.029-0.099l0.091-0.05c1.49-0.816,4.124-1.266,7.415-1.266
			c7.334,0,17.172,2.199,20.958,6.273c1.15,1.238,1.682,2.582,1.578,3.993c-0.237,3.218-1.532,10.35-2.296,12.021l-0.032,0.069
			l-0.064,0.04C104.09,272.204,100.066,273.453,96.112,273.453z M75.764,260.257c0.824,1.271,8.568,12.696,20.348,12.696
			c3.837,0,7.751-1.21,11.633-3.598c0.731-1.714,1.995-8.689,2.222-11.781c0.093-1.267-0.393-2.483-1.445-3.616
			c-3.69-3.971-13.364-6.113-20.592-6.113c-3.143,0-5.652,0.411-7.086,1.157C80.225,250.93,76.322,259.093,75.764,260.257z"/>
	</g>
</g>
<g>
	<g>
		<path class="human" id="Left_Posterior_Fore-arm" fill="#B5B5B5" d="M58.225,337.397c1.569,0.877,9.171,2.313,20.024,6.345
			c3.604-10.461,25.566-55.414,29.693-74.214c-19.568,10.65-28.215-4.306-32.539-9.292C70.051,271.044,66.783,317.76,58.225,337.397
			z"/>
		<path fill="#FFFFFF" d="M78.402,344.065l-0.24-0.089c-6.539-2.429-11.91-3.918-15.464-4.904c-2.376-0.659-3.946-1.094-4.595-1.457
			l-0.198-0.11l0.091-0.208c4.693-10.768,7.792-29.708,10.527-46.418c2.27-13.873,4.23-25.854,6.657-30.754l0.167-0.337l0.246,0.284
			c0.449,0.518,0.954,1.154,1.489,1.828c3.298,4.159,8.82,11.12,18.036,11.12c0.001,0,0.001,0,0.002,0
			c3.905,0,8.179-1.25,12.704-3.712l0.481-0.262l-0.118,0.535c-2.767,12.604-13.543,36.959-21.412,54.743
			c-3.967,8.966-7.101,16.047-8.29,19.5L78.402,344.065z M58.548,337.279c0.716,0.322,2.244,0.746,4.283,1.312
			c3.519,0.976,8.815,2.444,15.265,4.829c1.254-3.553,4.339-10.524,8.221-19.297c7.75-17.516,18.325-41.416,21.261-54.115
			c-4.421,2.332-8.61,3.513-12.459,3.514c0,0-0.001,0-0.002,0c-9.458,0-15.073-7.079-18.428-11.309
			c-0.452-0.57-0.854-1.076-1.226-1.52c-2.318,5.038-4.236,16.753-6.447,30.268C66.295,307.587,63.213,326.418,58.548,337.279z"/>
	</g>
</g>
<g>
	<path class="human" id="Right_Transverse_arch" fill="#B5B5B5" stroke="#FFFDFD" stroke-width="0.5" stroke-miterlimit="10" d="M229.5,720.833
		c0,0,4.632,1.772,8.667,1.334c3.833-0.417,15.751-4.704,17.833-5.833c2-1.084,4.833-2.833,4.833-2.833s1.021,3.332,0.354,4.749
		c-0.769,1.632-4.75,6.688-10,9.625c-5.399,3.021-8.521,3.943-13.313,3.375c-4.916-0.583-7.028-3.298-7.125-3.375
		S229.5,720.833,229.5,720.833z"/>
</g>
<g>
	<path class="human" id="Right_Inner_longitudinal_arch" fill="#B5B5B5" stroke="#FFFDFD" stroke-width="0.5" stroke-miterlimit="10" d="
		M229.75,671.75c0,0,1.5,12.25,1.5,18.833c0,4.031-2.625,26.042-2.5,30.5c0.188-0.021,5.227,1.802,5.5,0.667
		c0.616-2.554,1.079-18.258,1.875-30.5c0.71-10.929,1.792-18.667,1.792-18.667L229.75,671.75z"/>
</g>
<g>
	<path class="human" id="Right_Outer_longitudinal_arch" fill="#B5B5B5" stroke="#FFFDFD" stroke-width="0.5" stroke-miterlimit="10" d="
		M252.125,669.875c0,0,2.518,13.809,3.875,20.25c0.832,3.944,3.827,20.737,4.625,25.125c-0.188,0.019-3.125,1.188-3.25,1.125
		c-1.13-2.371-5.818-14.686-9.125-26.5c-2.95-10.547-3.932-18.321-3.932-18.321L252.125,669.875z"/>
</g>
<g>
	<path class="human" id="Right_Foot_middle" fill="#B5B5B5" stroke="#FFFDFD" stroke-width="0.5" stroke-miterlimit="10" d="M244.749,671.499
		c0.778,4.527,1.835,9.632,3.251,14.751c3.084,11.148,7.848,22.203,9.417,29.834c1.481,7.207-24.46,14.779-24.167,6.667
		c0.337-9.328,2.563-23.357,3.5-36.251c0.37-5.098,0.423-9.979,0.325-14.252C237,672.125,244.5,671.375,244.749,671.499z"/>
</g>
<g>
	
		<circle id="Right_Inner_ball" fill="#B5B5B5" stroke="#FFFDFD" stroke-width="0.5" stroke-miterlimit="10" cx="236.835" cy="722.417" r="3.459"/>
</g>
<g>
	<path class="human" id="Right_Heel" fill="#B5B5B5" stroke="#FFFDFD" stroke-width="0.5" stroke-miterlimit="10" d="M251.75,669.875
		c-0.009,0.833-3.583,1.416-10,2.25c-6.366,0.827-11.125,0.125-11.125,0.125c-4-11.375,4.249-20.273,9-20.5
		C244.875,651.5,251.875,657.5,251.75,669.875z"/>
</g>
<g>
	
		<circle id="Right_Outer_ball" fill="#B5B5B5" stroke="#FFFDFD" stroke-width="0.5" stroke-miterlimit="10" cx="253.751" cy="717" r="3.459"/>
</g>
<g>
	<path class="human" id="Left_Transverse_arch" fill="#B5B5B5" stroke="#FFFDFD" stroke-width="0.5" stroke-miterlimit="10" d="M126.66,723.667
		c0,0-2.285,0.458-3.722,0.896c0.063,6.375-7.864,4.592-13.313,3.188c-5.109-1.315-11.313-5.313-10.813-8.438
		c-2.375-0.938-2.75-1.125-2.75-1.125s-0.895,1.271-0.229,2.688c0.767,1.632,4.354,6.75,9.604,9.688
		c5.399,3.021,8.054,4.09,12.847,3.521c4.916-0.583,7.035-3.29,7.125-3.375C126.813,729.375,126.66,723.667,126.66,723.667z"/>
</g>
<g>
	<path class="human" id="Left_Inner_longitudinal_arch" fill="#B5B5B5" stroke="#FFFDFD" stroke-width="0.5" stroke-miterlimit="10" d="
		M125.66,674.334c0,0-1.5,12.25-1.5,18.833c0,4.031,2.625,26.042,2.5,30.5c-0.188-0.021-5.227,1.802-5.5,0.667
		c-0.616-2.554-1.079-18.258-1.875-30.5c-0.71-10.929-1.792-18.667-1.792-18.667L125.66,674.334z"/>
</g>
<g>
	<path class="human" id="Left_Outer_longitudinal_arch" fill="#B5B5B5" stroke="#FFFDFD" stroke-width="0.5" stroke-miterlimit="10" d="
		M104.035,672.709c0,0-2.517,13.809-3.875,20.25c-0.832,3.944-3.827,20.737-4.625,25.125c0.188,0.019,3.125,1.188,3.25,1.125
		c1.13-2.371,5.819-14.686,9.125-26.5c2.95-10.547,3.931-18.321,3.931-18.321L104.035,672.709z"/>
</g>
<g>
	<path class="human" id="Left_Foot_middle" fill="#B5B5B5" stroke="#FFFDFD" stroke-width="0.5" stroke-miterlimit="10" d="M111.411,674.333
		c-0.778,4.527-1.835,9.632-3.251,14.751c-3.084,11.148-7.848,22.203-9.417,29.834c-1.481,7.207,24.46,14.779,24.167,6.667
		c-0.337-9.328-2.563-23.357-3.5-36.251c-0.37-5.098-0.423-9.979-0.325-14.252C119.16,674.959,111.66,674.209,111.411,674.333z"/>
</g>
<g>
	
		<circle id="Left_Inner_ball" fill="#B5B5B5" stroke="#FFFDFD" stroke-width="0.5" stroke-miterlimit="10" cx="119.325" cy="725.251" r="3.459"/>
</g>
<g>
	<path class="human" id="Left_Heel" fill="#B5B5B5" stroke="#FFFDFD" stroke-width="0.5" stroke-miterlimit="10" d="M104.41,672.709
		c0.009,0.833,3.583,1.416,10,2.25c6.366,0.827,11.125,0.125,11.125,0.125c4-11.375-4.249-20.273-9-20.5
		C111.285,654.334,104.285,660.334,104.41,672.709z"/>
</g>
<g>
	
		<circle id="Left_Outer_ball" fill="#B5B5B5" stroke="#FFFDFD" stroke-width="0.5" stroke-miterlimit="10" cx="102.409" cy="719.834" r="3.459"/>
</g>
<g>
	<path class="human" id="Right_Posterior_Palm" fill="#B5B5B5" stroke="#FFFFFF" stroke-width="0.5" stroke-miterlimit="10" d="M280.125,355.125
		c0.242-0.38,23.438-7.313,25.75-8.5c1,0.25,8.563,3.75,8.938,6s-0.438,12,0.438,14.625s3.625,12,3.222,13.281
		c-12.222,7.531-32.224,6.506-32.621,6.257C284.688,386.063,278.875,363.75,280.125,355.125z"/>
</g>
<g>
	<g>
		<path class="human" id="Left_Posterior_Thumb_Proximal_phalanx" fill="#B5B5B5" d="M40.98,362.112c2.253-4.087,2.355-8.946,0.305-10.62
			c-3.094,1.529-7.033,4.038-7.563,5.387c-0.453,1.141,2.563,8.938,2.563,8.938S39.111,362.686,40.98,362.112z"/>
		<path fill="#FFFFFF" d="M36.049,365.906c-0.509-1.318-3.027-7.949-2.559-9.119c0.611-1.558,5.037-4.213,7.684-5.521l0.144-0.071
			l0.125,0.102c2.163,1.768,2.056,6.774-0.238,10.936l-0.049,0.089l-0.1,0.03c-1.785,0.547-4.561,3.602-4.588,3.633l-0.271,0.303
			L36.049,365.906z M41.249,351.791c-3.174,1.586-6.823,3.989-7.291,5.181c-0.291,0.733,1.271,5.375,2.417,8.382
			c0.75-0.79,2.857-2.904,4.438-3.448C42.87,358.107,43.061,353.468,41.249,351.791z"/>
	</g>
</g>
<g>
	<g>
		<path class="human" id="Left_Posterior_Thumb_Distal_phalanx" fill="#B5B5B5" d="M24.45,373.097c-4.471-2.234,9.188-16.219,9.188-16.219
			l2.563,8.938C36.2,365.817,27.891,374.816,24.45,373.097z"/>
		<path fill="#FFFFFF" d="M24.34,373.32c-0.561-0.279-0.898-0.736-1.002-1.355c-0.695-4.127,9.682-14.807,10.124-15.26l0.301-0.309
			l2.717,9.486l-0.096,0.104c-0.285,0.311-7.042,7.579-10.93,7.579C25.039,373.565,24.664,373.482,24.34,373.32z M33.519,357.367
			c-1.725,1.813-10.278,11.008-9.688,14.514c0.077,0.461,0.313,0.785,0.729,0.992c0.255,0.127,0.557,0.192,0.894,0.192
			c3.433,0,9.623-6.422,10.467-7.315L33.519,357.367z"/>
	</g>
</g>
<g>
	<path class="human" id="Left_Posterior_Palm" fill="#B5B5B5" stroke="#FFFFFF" stroke-width="0.5" stroke-miterlimit="10" d="M75.258,355.5
		c-0.242-0.379-23.438-7.313-25.75-8.5c-1,0.25-8.563,3.75-8.938,6s0.438,12-0.438,14.625s-3.625,12-3.222,13.282
		c12.222,7.53,32.224,6.506,32.622,6.258C70.695,386.438,76.508,364.125,75.258,355.5z"/>
</g>
<g>
	
		<path class="human" id="Right_Posterior_Little_Proximal_phalanx" fill="#B5B5B5" stroke="#FFFFFF" stroke-width="0.5" stroke-miterlimit="10" d="
		M292.143,387.064c-3.441-0.106-6.586-0.569-6.586-0.569s0.327,2.917,0.646,5.819l6.345,0.528
		C292.458,390.625,292.338,388.423,292.143,387.064z"/>
</g>
<g>
	<path class="human" id="Right_Posterior_Little_Middle_phalanx" fill="#B5B5B5" stroke="#FFFFFF" stroke-width="0.5" stroke-miterlimit="10" d="
		M286.201,392.314c0.22,2.013,0.436,4.019,0.533,5.038c1.547,0.517,3.267,0.976,6.017,1.146c-0.065-1.432-0.121-3.552-0.205-5.653
		L286.201,392.314z"/>
</g>
<g>
	<path class="human" id="Right_Posterior_Ring_Proximal_phalanx" fill="#B5B5B5" stroke="#FFFFFF" stroke-width="0.5" stroke-miterlimit="10" d="
		M300.771,386.279c-4.145,0.515-7.441,0.91-7.441,0.91s0.826,3.789,1.643,7.545l6.797-0.547
		C301.502,392.264,301.174,389.732,300.771,386.279z"/>
</g>
<g>
	<path class="human" id="Right_Posterior_Ring_Middle_phalanx" fill="#B5B5B5" stroke="#FFFFFF" stroke-width="0.5" stroke-miterlimit="10" d="
		M301.77,394.188l-6.797,0.547c0.639,2.945,1.271,5.872,1.491,6.928c1.905,0.563,2.933-0.29,6.315-0.104
		C302.648,399.745,302.357,398.434,301.77,394.188z"/>
</g>
<g>
	
		<path class="human" id="Right_Posterior_Middle_proximal_phalanx" fill="#B5B5B5" stroke="#FFFFFF" stroke-width="0.5" stroke-miterlimit="10" d="
		M309.604,384.311c-4.129,1.317-6.521,1.439-6.521,1.439c0.644,3.809,1.089,6.462,1.418,8.45l7.021-0.785
		C310.797,389.751,309.962,385.855,309.604,384.311z"/>
</g>
<g>
	<path class="human" id="Right_Posterior_Middle_Middle_phalanx" fill="#B5B5B5" stroke="#FFFFFF" stroke-width="0.5" stroke-miterlimit="10" d="
		M304.502,394.2c0.641,3.87,0.838,5.217,1.178,7.622c2.063-0.533,3.729-0.711,7.054-1.535c-0.16-1.372-0.653-4.054-1.21-6.872
		L304.502,394.2z"/>
</g>
<g>
	<path class="human" id="Right_Posterior_Index_proximal_phalanx" fill="#B5B5B5" stroke="#FFFFFF" stroke-width="0.5" stroke-miterlimit="10" d="
		M318.641,380.151c-3.815,2.14-6.948,3.611-6.948,3.611c0.813,3.188,1.428,5.592,1.896,7.438l6.664-3.397
		C319.627,384.691,318.973,381.58,318.641,380.151z"/>
</g>
<g>
	<path class="human" id="Right_Posterior_Index_Middle_phalanx" fill="#B5B5B5" stroke="#FFFFFF" stroke-width="0.5" stroke-miterlimit="10" d="
		M313.589,391.2c1.436,5.631,1.531,6.08,1.872,7.722c1.674-0.803,3.64-2.438,6.161-3.885c-0.253-1.563-0.799-4.398-1.369-7.234
		L313.589,391.2z"/>
</g>
<g>
	<g>
		<path class="human" id="Left_Posterior_Little_Distal_phalanx" fill="#B5B5B5" stroke="#FFFFFF" stroke-width="0.5" stroke-miterlimit="10" d="
			M62.818,398.043c2.75-0.172,4.47-0.631,6.017-1.146c-0.14,2.813-2.589,8.941-4.398,8.768
			C62.978,405.525,62.646,401.48,62.818,398.043z"/>
	</g>
</g>
<g>
	<g>
		<path class="human" id="Left_Posterior_Index_Distal_phalanx_1_" fill="#B5B5B5" d="M33.949,394.93c2.535,1.531,4.44,2.951,6.159,3.91
			c-0.683,2.982-1.688,9.957-5.358,9.957C31.537,408.797,33.263,398.826,33.949,394.93z"/>
	</g>
</g>
<g>
	<g>
		<path class="human" id="Left_Posterior_Index_Distal_phalanx" fill="#B5B5B5" stroke="#FFFFFF" stroke-width="0.5" stroke-miterlimit="10" d="
			M42.81,400.148c3.174,0.766,5.109,1.02,7.098,1.555c-0.229,2.957-1.978,11.68-5.643,11.68
			C41.052,413.383,42.122,404.045,42.81,400.148z"/>
	</g>
</g>
<g>
	<g>
		<path class="human" id="Left_Posterior_Ring_Distal_phalanx" fill="#B5B5B5" stroke="#FFFFFF" stroke-width="0.5" stroke-miterlimit="10" d="
			M52.79,401.477c3.383-0.188,4.369,0.291,6.315,0.104c-0.683,2.979-1.326,11.541-4.384,11.313
			C51.519,412.648,52.374,405.551,52.79,401.477z"/>
	</g>
</g>
<g>
	<path class="human" id="Left_Posterior_Little_Proximal_phalanx" fill="#B5B5B5" stroke="#FFFFFF" stroke-width="0.5" stroke-miterlimit="10" d="
		M63.427,386.982c3.443-0.106,6.586-0.569,6.586-0.569s-0.327,2.917-0.645,5.819l-6.345,0.528
		C63.111,390.543,63.231,388.341,63.427,386.982z"/>
</g>
<g>
	<path class="human" id="Left_Posterior_Little_Middle_phalanx" fill="#B5B5B5" stroke="#FFFFFF" stroke-width="0.5" stroke-miterlimit="10" d="
		M69.368,392.232c-0.22,2.013-0.436,4.019-0.533,5.04c-1.547,0.515-3.267,0.974-6.017,1.146c0.065-1.432,0.121-3.552,0.205-5.654
		L69.368,392.232z"/>
</g>
<g>
	<path class="human" id="Left_Posterior_Ring_Proximal_phalanx" fill="#B5B5B5" stroke="#FFFFFF" stroke-width="0.5" stroke-miterlimit="10" d="
		M54.798,386.197c4.143,0.515,7.441,0.91,7.441,0.91s-0.826,3.789-1.642,7.545l-6.798-0.547
		C54.067,392.182,54.396,389.65,54.798,386.197z"/>
</g>
<g>
	<path class="human" id="Left_Posterior_Ring_Middle_phalanx" fill="#B5B5B5" stroke="#FFFFFF" stroke-width="0.5" stroke-miterlimit="10" d="
		M53.8,394.105l6.798,0.547c-0.64,2.944-1.271,5.871-1.492,6.927c-1.905,0.563-2.933-0.29-6.315-0.104
		C52.92,399.663,53.211,398.352,53.8,394.105z"/>
</g>
<g>
	<path class="human" id="Left_Posterior_Middle_proximal_phalanx" fill="#B5B5B5" stroke="#FFFFFF" stroke-width="0.5" stroke-miterlimit="10" d="
		M45.965,384.229c4.129,1.317,6.521,1.439,6.521,1.439c-0.643,3.809-1.089,6.462-1.418,8.45l-7.02-0.785
		C44.772,389.669,45.607,385.773,45.965,384.229z"/>
</g>
<g>
	<path class="human" id="Left_Posterior_Middle_Middle_phalanx" fill="#B5B5B5" stroke="#FFFFFF" stroke-width="0.5" stroke-miterlimit="10" d="
		M51.067,394.118c-0.641,3.87-0.838,5.217-1.178,7.622c-2.063-0.533-3.727-0.711-7.052-1.535c0.16-1.372,0.653-4.054,1.21-6.872
		L51.067,394.118z"/>
</g>
<g>
	<path class="human" id="Left_Posterior_Index_proximal_phalanx" fill="#B5B5B5" stroke="#FFFFFF" stroke-width="0.5" stroke-miterlimit="10" d="
		M36.929,380.069c3.817,2.14,6.95,3.611,6.95,3.611c-0.814,3.188-1.428,5.59-1.898,7.438l-6.664-3.397
		C35.942,384.609,36.597,381.498,36.929,380.069z"/>
</g>
<g>
	<path class="human" id="Left_Posterior_Index_Middle_phalanx" fill="#B5B5B5" stroke="#FFFFFF" stroke-width="0.5" stroke-miterlimit="10" d="
		M41.98,391.118c-1.434,5.631-1.531,6.08-1.872,7.722c-1.674-0.803-3.64-2.438-6.161-3.885c0.253-1.563,0.799-4.398,1.369-7.234
		L41.98,391.118z"/>
</g>
<g>
	<g>
		<path d="M118.48,748.409c-2.855,0-5.017-1.673-5.381-4.163c-0.009-0.065-0.019-0.132-0.027-0.199
			c-0.646,0.508-1.496,0.785-2.458,0.785c-1.992,0-4.229-1.216-4.526-3.252c-0.017-0.112-0.13-0.379-0.275-0.658
			c-1.723-0.312-4.247-1.59-4.217-4.843c0.001-0.11,0.009-0.279,0.02-0.464c-0.951-0.146-2.291-0.521-3.266-1.503
			c-0.768-0.775-1.164-1.771-1.177-2.958c-0.566-0.141-1.267-0.429-1.866-1.029c-0.84-0.848-1.259-2.069-1.245-3.629
			c0.016-1.648,0.371-6.188,0.44-6.55l0.333-1.749c0.927-5.541,3.843-21.893,7.024-39.688c1.354-7.575,2.534-14.177,2.711-15.235
			c-0.451-3.354,3.642-19.09,4.435-21.773c0.988-5.534,0.607-19.355,0.167-35.354c-0.927-33.673-2.079-75.545,6.683-89.141
			l0.231-1.29c1.127-6.261,2.403-13.354,1.996-24.591c-8.271-36.273-9.943-118.585-2.834-139.914l0.152-0.591
			c2.354-13.488,6.678-35.07,9.836-50.828c1.929-9.628,3.465-17.292,3.666-18.717c-0.014-0.094-0.023-0.324,0.096-0.575
			c0.261-0.891,0.702-10.028,1.051-22.233L130,258.222l0.003-0.469c0.012-1.935-0.973-9.015-2.113-17.213
			c-0.926-6.656-2.048-14.727-2.963-22.36c-5.778,12.875-13.191,37.803-13.721,39.595c-0.241,3.045-1.457,10.048-2.308,12.063
			c-2.816,12.704-13.576,37.021-21.438,54.79c-3.803,8.595-7.087,16.018-8.266,19.439c-0.822,2.508-1.424,5.232-1.908,7.421
			c-0.226,1.02-0.42,1.899-0.592,2.548c-1.005,11.763-4.652,28.817-4.93,29.894c-0.438,1.711-0.709,2.607-0.795,2.883
			c-0.094,0.715-0.736,5.621-0.955,7.893c-0.087,1.786-2.443,12.076-5.55,12.077l-0.15-0.013c-2.357-0.225-2.558-6.146-2.311-11.068
			c0.094-2.094,0.531-5.516,0.771-7.291c-0.134-0.018-0.282-0.025-0.435-0.034c-0.333,1.55-0.941,5.379-1.367,8.06
			c-0.391,2.467-0.729,4.595-0.914,5.479c-0.133,0.579-0.263,1.364-0.414,2.271c-0.737,4.451-1.698,10.015-5.022,9.786
			c-0.797-0.06-1.495-0.42-2.016-1.044c-1.662-1.982-1.367-6.32-0.885-10.973l0.047-0.451c0.08-1.121,0.224-2.063,0.462-3.62
			c0.3-1.962,0.745-4.874,1.408-10.418c-0.146-0.02-0.303-0.036-0.465-0.058c-1.759,10.377-1.938,11.564-2.434,15.083
			c-0.002,0.058-1.076,11.976-6.503,11.976c-0.781,0-1.471-0.33-1.994-0.954c-2.276-2.715-0.915-11.189-0.619-12.864
			c0.344-2.918,2.29-11.873,3.052-15.238c-0.054-0.028-0.108-0.059-0.162-0.082c-2.811,10.958-2.944,11.594-3.313,13.363
			l-0.073,0.349c-0.075,0.326-0.149,0.68-0.231,1.063c-0.779,3.665-2.083,9.804-6.178,9.804c-0.713,0-1.338-0.297-1.808-0.854
			c-1.801-2.146-1-8.352,0.021-14.138l0.035-0.192c0.068-0.408,0.153-0.888,0.25-1.42l0.049-0.277l0.002,0.002
			c0.736-3.981,2.099-10.578,2.653-12.964l0.299-1.285l0.042,0.023c0.299-1.335,0.558-2.389,0.775-3.276
			c0.316-1.29,0.525-2.142,0.627-2.905l0.023-0.117c0.136-0.528,0.329-1.178,0.549-1.919c0.559-1.881,1.283-4.315,1.676-6.799
			c-0.999,0.754-2.079,1.801-2.734,2.523c-0.747,0.805-7.349,7.797-11.49,7.798c-0.531,0-1.019-0.108-1.449-0.323
			c-0.777-0.387-1.264-1.044-1.408-1.902c-0.711-4.234,8.121-13.583,10.215-15.73c1.246-2.362,7.885-5.649,7.954-5.683
			c1.229-0.675,2.372-1.214,3.478-1.734c2.22-1.046,4.138-1.949,6.526-3.837l0.844-0.667c1.63-1.573,4.464-4.691,5.444-7.186
			c4.9-11.246,8.227-31.082,11.163-48.582c2.141-12.767,3.99-23.792,6.026-28.603c0.093-0.219,0.57-1.237,1.206-2.59
			c1.34-2.853,3.583-7.628,4.011-8.774c0.507-1.441,9.921-40.184,13.506-54.991l0.067-0.279l0.114-0.112
			c-0.073-3.343-0.186-19.635,4.006-33.393c5.073-16.656,33.072-23.896,34.262-24.197c3.981-0.889,10.352-2.326,11.235-2.563
			l0.668-0.305c2.986-1.357,10.824-4.919,16.661-9.498c0.173-2.21,0.909-12.55,0.238-20.742c-4.529-2.767-6.498-9.871-7.356-12.966
			c-0.081-0.291-0.168-0.607-0.236-0.834c-2.62-1.146-6.371-6.627-7.166-10.693l-0.168-0.849c-0.607-3.029-1.235-6.161,0.347-8.092
			c0.892-1.088,2.305-1.617,4.32-1.617h0.055c-0.645-7.475-1.134-14.169-1.139-14.241l-0.002-0.679
			c0-14.919,12.01-25.339,29.206-25.339c17.162,0,29.148,10.482,29.148,25.49c-0.009,0.154-0.604,7.729-1.354,15.847
			c1.562-0.421,2.871-0.055,3.746,1.007c1.93,2.341,1.17,7.554,0.754,9.687c-0.771,3.929-4.277,9.171-6.864,10.422
			c-0.177,0.5-0.493,1.495-0.737,2.266c-0.479,1.508-0.807,2.528-0.988,2.952c-1.721,4.025-4.063,6.664-4.854,7.485
			c-0.813,7.767-0.448,17.515-0.037,20.56c2.025,1.284,12.314,7.689,15.434,9.171c3.836,0.749,11.256,2.459,11.332,2.476
			c1.209,0.307,29.197,7.575,34.271,24.292c4.482,14.775,4.034,32.625,3.986,34.09l0.058,0.377
			c0.444,1.749,11.683,45.822,13.604,54.652c0.34,0.756,2.813,6.215,4.535,10.019l0.021-0.028l0.668,1.355
			c2.478,5.019,4.442,17.097,6.726,31.083c2.729,16.73,5.815,35.692,10.471,46.415c0.957,2.445,3.58,5.323,4.664,6.448
			c0.599,0.618,2.826,2.188,4.813,3.285l2.012,1.113c1.684,0.929,3.457,1.914,4.856,2.684c3.088,1.525,6.708,4.34,7.826,5.599
			c0.36,0.41,0.832,0.917,1.361,1.496c4.945,5.36,9.727,10.874,9.109,14.22c-0.167,0.913-0.716,1.625-1.586,2.061
			c-0.43,0.215-0.918,0.324-1.45,0.324c-4.142,0-10.742-7.019-11.479-7.82c-0.66-0.729-1.74-1.782-2.739-2.539
			c0.394,2.492,1.116,4.935,1.675,6.822c0.222,0.748,0.415,1.403,0.552,1.934l0.022,0.116c0.103,0.765,0.311,1.618,0.625,2.909
			c0.229,0.959,0.515,2.111,0.843,3.6l0.274,0.963c0.513,2.212,1.711,8.017,2.472,12.041l0.007-0.017l0.169,0.957
			c0.13,0.702,0.24,1.327,0.324,1.834l0.017,0.099c1.023,5.811,1.826,12.033,0.021,14.188c-0.469,0.559-1.093,0.854-1.805,0.854
			c-4.075,0-5.345-6.024-6.1-9.628c-0.086-0.406-0.164-0.78-0.234-1.104c-0.438-2.105-0.444-2.145-3.464-13.937
			c-0.054,0.026-0.104,0.06-0.158,0.082c0.707,3.188,2.313,10.925,2.783,14.315l0.098,0.444c0.438,2.493,1.705,10.844-0.519,13.483
			c-0.506,0.604-1.172,0.923-1.926,0.923c-5.426,0-6.63-12.477-6.641-12.603l-0.104-0.816c-0.402-2.883-0.611-4.375-2.191-13.739
			c-0.161,0.021-0.317,0.037-0.465,0.059c0.664,5.576,1.106,8.505,1.41,10.475c0.233,1.562,0.381,2.499,0.463,3.652l0.045,0.434
			c0.479,4.664,0.771,9.02-0.893,11.004c-0.521,0.623-1.217,0.983-2.013,1.044c-0.063,0.006-0.13,0.01-0.19,0.01
			c-3.207,0-4.105-5.447-4.828-9.826c-0.149-0.913-0.281-1.703-0.41-2.271c-0.246-1.184-0.938-4.994-1.549-8.357
			c-0.365-2.019-0.771-4.234-0.979-5.324l-0.061-0.006l-0.039-0.295c-0.047,0-0.097,0.002-0.146,0.004
			c0.332,2.326,0.696,5.08,0.817,7.735c0.246,4.938,0.047,10.882-2.313,11.104l-0.148,0.008c-3.104,0.001-5.461-10.326-5.551-12.165
			c-0.221-2.23-0.859-7.156-0.953-7.871c-0.084-0.271-0.354-1.177-0.793-2.896c-0.158-0.614-0.309-1.32-0.471-2.111
			c-0.191-0.938-0.413-1.998-0.709-3.162l-0.132-0.354c-2.505-9.818-2.685-12.168-3.209-19.144c-0.109-1.49-0.239-3.194-0.411-5.232
			c-0.171-0.648-0.359-1.524-0.588-2.541c-0.479-2.202-1.087-4.943-1.915-7.481c-1.2-3.506-4.284-10.582-8.188-19.54
			c-7.486-17.18-17.742-40.709-21.513-55.012c-0.245-0.937-0.72-3.253-1.218-5.706c-0.439-2.184-0.898-4.442-1.215-5.784
			c-2.463-10.565-8.271-27.999-13.855-39.682c-0.88,7.118-2.771,26.08-4.039,39.335l-0.074,0.762
			c0.289,10.166,0.742,21.27,1.084,22.399c0.094,0.19,0.119,0.439,0.07,0.718c0.133,0.628,0.48,1.97,0.946,3.753
			c2.771,10.599,10.125,38.753,12.935,71.551c4.186,48.888,1.916,110.922-2.828,131.809c-0.408,11.236,0.869,18.334,1.996,24.597
			l0.229,1.288c8.766,13.596,7.608,55.47,6.687,89.145c-0.438,15.997-0.818,29.819,0.166,35.354
			c0.485,1.703,1.67,8.715,3.299,18.377c2.412,14.313,5.72,33.924,8.021,43.13c0.653,2.604,1.121,5.275,1.496,7.423l0.235,1.337
			c0.082,0.458,0.188,1.01,0.302,1.612c0.313,1.673,0.688,3.655,0.934,5.301l0.22,1.271c0.067,0.362,0.426,4.899,0.438,6.55
			c0.016,1.359-0.354,2.426-1.085,3.164c-0.634,0.641-1.513,0.998-2.552,1.044c-0.116,2.849-2.266,4.252-3.928,4.773
			c0.018,0.232,0.024,0.462,0.026,0.6c0.013,1.166-0.349,2.123-1.063,2.85c-0.979,0.983-2.383,1.264-3.362,1.324
			c-0.005,0.492-0.021,1.032-0.063,1.333c-0.297,2.032-2.533,3.25-4.523,3.25c-0.963,0-1.813-0.276-2.459-0.784
			c-0.01,0.065-0.021,0.134-0.026,0.199c-0.36,2.487-2.522,4.16-5.379,4.16c-2.547,0-4.899-1.3-6.146-3.393
			c-1.804-3.022-2.101-11.572-2.146-13.551c-1.033-1.688-1.778-6.365-1.565-8.173c-0.177-1.03-0.021-3.735,1.021-11.938
			c0.582-4.581,1.178-9.246,1.935-18.463c0.582-7.095-3.438-28.632-3.478-28.849l-0.019-0.126c-0.228-3.839-0.76-9.146-1.273-14.275
			c-0.256-2.537-0.502-4.979-0.689-7.073c-0.242-4.757-5.854-31.589-15.277-63.953c-3.348-11.484-4.168-21.771-4.963-31.711
			c-0.693-8.677-1.351-16.866-3.683-24.854c-0.019-0.042-3.146-9.12-5.937-22.678c-3.734-15.484-5.129-37.679-6.246-55.508
			c-0.436-6.896-0.811-12.851-1.26-17.547c-1.446-15.067-7.008-58.364-7.421-61.57c-0.746-1.347-1.848-2.624-2.281-2.624
			c-1.001,0.406-2.037,1.957-3.02,4.593c-1.225,8.15-7.144,47.819-8.524,62.188c-0.51,5.306-0.813,12.229-1.164,20.253
			c-0.745,17.028-1.672,38.229-5.23,52.979c-2.778,13.521-5.91,22.604-5.941,22.689c-2.317,7.938-2.972,16.13-3.665,24.805
			c-0.795,9.94-1.617,20.227-4.963,31.715c-9.428,32.368-15.037,59.2-15.277,63.914c-0.193,2.135-0.438,4.573-0.694,7.107
			c-0.517,5.134-1.052,10.438-1.277,14.276l-0.015,0.126c-0.041,0.22-4.056,21.756-3.475,28.854
			c0.319,3.889,0.948,9.628,1.556,15.178c1.191,10.87,1.498,14.085,1.391,15.171c0.231,1.771-0.518,6.52-1.563,8.221
			c-0.044,1.979-0.34,10.524-2.142,13.554C123.381,747.11,121.025,748.408,118.48,748.409z M113.187,738.858l1.963,0.361
			c-0.236,1.852-0.26,3.438-0.071,4.732c0.264,1.808,1.93,2.452,3.401,2.452c1.446,0,3.369-0.639,4.429-2.413
			c1.402-2.354,1.823-10.09,1.867-12.871l0.006-0.387l0.264-0.282c0.571-0.662,1.571-5.592,1.294-7.004l-0.052-0.27l0.065-0.188
			c0.095-1.06-0.7-8.303-1.401-14.704c-0.609-5.563-1.24-11.315-1.561-15.229c-0.594-7.234,3.203-27.778,3.49-29.317
			c0.23-3.876,0.764-9.175,1.28-14.3c0.255-2.528,0.5-4.963,0.689-7.055c0.283-5.581,6.552-34.122,15.352-64.33
			c3.289-11.295,4.103-21.474,4.89-31.313c0.702-8.777,1.365-17.069,3.754-25.251c0.046-0.14,3.137-9.104,5.895-22.521
			c3.52-14.596,4.442-35.685,5.184-52.63c0.352-8.05,0.656-15.001,1.171-20.354c1.391-14.479,7.361-54.47,8.544-62.34l0.059-0.251
			c0.775-2.1,2.058-4.994,4.247-5.872c0.251-0.088,0.466-0.124,0.685-0.124c1.949,0,3.656,2.942,4.133,3.844l0.085,0.16l0.023,0.18
			c0.06,0.46,5.954,46.213,7.454,61.82c0.455,4.729,0.83,10.698,1.264,17.607c1.113,17.755,2.499,39.852,6.201,55.196
			c2.766,13.45,5.855,22.415,5.887,22.504c2.405,8.23,3.068,16.523,3.771,25.303c0.787,9.847,1.601,20.021,4.889,31.313
			c8.799,30.206,15.068,58.748,15.354,64.371c0.188,2.052,0.437,4.483,0.688,7.017c0.519,5.124,1.052,10.42,1.279,14.295
			c0.286,1.539,4.084,22.084,3.489,29.319c-0.76,9.259-1.354,13.946-1.935,18.479c-1.077,8.527-1.161,10.909-1.046,11.419
			l0.089,0.259l-0.062,0.232c-0.276,1.411,0.723,6.341,1.296,7.006l0.233,0.272l0.033,0.394c0.043,2.781,0.465,10.521,1.865,12.871
			c1.063,1.778,2.982,2.412,4.432,2.412c1.471,0,3.137-0.644,3.398-2.449c0.188-1.289,0.163-2.885-0.07-4.731l1.963-0.364
			c0.549,2.233,0.896,3.017,1.059,3.28c0.357,0.604,1.104,0.69,1.52,0.69c1.219,0,2.432-0.731,2.551-1.54
			c0.045-0.313,0.049-1.374,0.037-2.027l-0.021-1.139l1.129,0.122c0.02,0.003,0.172,0.02,0.402,0.02
			c0.511,0,1.768-0.073,2.438-0.749c0.332-0.335,0.491-0.802,0.484-1.419c-0.004-0.343-0.082-1.317-0.082-1.317l-0.074-0.938
			l0.934-0.134c0.317-0.049,3.152-0.556,3.127-3.293l0,0c-0.007-0.146-0.037-0.729-0.037-0.729l-0.068-1.327l1.295,0.298l0,0
			c0,0,1.27,0.274,1.938-0.403c0.342-0.349,0.517-0.934,0.506-1.735c-0.006-0.565-0.051-1.431-0.104-2.335v0.002l-0.354-3.862
			c-0.183-1.712-0.709-4.521-1.098-6.571c-0.111-0.606-0.219-1.166-0.303-1.629l-0.238-1.348c-0.367-2.113-0.83-4.744-1.466-7.28
			c-2.324-9.28-5.64-28.935-8.058-43.284c-1.512-8.968-2.814-16.712-3.258-18.188l-0.023-0.106
			c-1.037-5.703-0.672-18.988-0.208-35.813c0.874-31.771,2.069-75.28-6.468-88.158l-0.113-0.173l-0.305-1.69
			c-1.146-6.379-2.447-13.604-2.021-25.117l0.021-0.186c4.729-20.654,6.979-82.501,2.811-131.284
			c-2.793-32.628-10.113-60.662-12.874-71.216c-0.571-2.2-0.922-3.528-1.021-4.114l-0.045-0.257l0.054-0.149
			c-0.493-2.342-0.908-13.986-1.179-23.667l-0.022-0.868l0.204-0.035c1.229-12.842,3.968-40.83,4.576-42.05l0.878-1.757l0.903,1.743
			c6.059,11.667,12.713,31.357,15.401,42.91c0.319,1.37,0.781,3.642,1.229,5.84c0.473,2.317,0.957,4.713,1.188,5.594
			c3.729,14.154,13.949,37.602,21.411,54.723c3.922,8.999,7.021,16.107,8.254,19.703c0.864,2.646,1.479,5.441,1.976,7.687
			c0.228,1.027,0.418,1.907,0.588,2.541l0.031,0.174c0.176,2.083,0.307,3.82,0.42,5.336c0.517,6.832,0.688,9.143,3.14,18.741
			l0.13,0.354c0.313,1.231,0.543,2.335,0.742,3.31c0.158,0.757,0.299,1.435,0.449,2.022c0.508,1.994,0.783,2.855,0.787,2.864
			l0.039,0.179c0.027,0.229,0.732,5.595,0.976,8.076c0.139,2.772,2.262,8.887,3.434,10.138c0.464-1.101,0.8-4.657,0.589-8.847
			c-0.134-2.938-0.582-6.046-0.939-8.541l-0.012-0.146c0-0.691,0.396-1.152,2.313-1.152c1.55,0,1.832,0.866,1.881,1.239
			l-0.071,0.011c0.258,0.851,0.564,2.556,1.192,6.021c0.606,3.354,1.298,7.15,1.534,8.292c0.141,0.604,0.271,1.422,0.431,2.369
			c0.368,2.229,1.347,8.147,2.854,8.147c0.309-0.021,0.494-0.121,0.673-0.334c1.26-1.505,0.724-6.716,0.435-9.516l-0.048-0.467
			c-0.079-1.104-0.219-2.019-0.448-3.522c-0.313-2.094-0.801-5.257-1.528-11.497l-0.081-0.707l0.645-0.313
			c0.159-0.076,0.313-0.148,2.725-0.412l0.938-0.104l0.157,0.93c1.729,10.232,1.938,11.735,2.354,14.73l0.226,1.578l-0.041,0.021
			c0.437,3.779,2.253,10.098,4.581,10.098c0.133,0,0.249-0.035,0.396-0.208c1.085-1.295,0.957-6.188,0.262-10.731l-0.052,0.02
			l-0.178-1.186c-0.361-3.023-2.301-12.39-2.988-15.37l-0.173-0.75l0.681-0.355c0.386-0.203,1.674-0.879,2.123-1.032l1.022-0.349
			l0.414,1.615c3.179,12.438,3.179,12.438,3.629,14.604c0.072,0.315,0.152,0.702,0.241,1.122c0.591,2.81,1.688,8.039,4.139,8.039
			c0.104,0,0.174-0.021,0.271-0.142c0.582-0.693,1.009-2.967,0.021-9.606v0.001l-0.481-2.957c-0.448-2.771-1.89-9.894-2.677-13.499
			l-0.013,0.007l-0.34-1.292c-0.417-1.966-0.771-3.401-1.05-4.554c-0.313-1.274-0.536-2.203-0.654-3.057
			c-0.131-0.502-0.313-1.114-0.521-1.809c-0.729-2.458-1.726-5.823-1.979-9.157l-0.112-1.463l1.402,0.43
			c2.077,0.637,4.841,3.649,5.146,3.991c2.56,2.766,7.541,7.168,10.007,7.168c0.22,0,0.402-0.038,0.557-0.113
			c0.386-0.192,0.477-0.427,0.513-0.631c0.484-2.645-5.89-9.554-8.607-12.504c-0.545-0.589-1.021-1.105-1.395-1.523
			c-0.876-0.986-4.297-3.691-7.258-5.155c-1.438-0.792-3.219-1.777-4.897-2.707l-2.014-1.113c-1.79-0.99-4.396-2.732-5.28-3.647
			c-1.445-1.505-4.035-4.426-5.068-7.074c-4.738-10.917-7.854-30.01-10.6-46.855c-2.157-13.252-4.198-25.77-6.543-30.52l0.513-0.252
			l-0.011-0.007l-0.592,0.267c-5.252-11.595-5.252-11.595-5.275-11.72c-1.881-8.679-13.506-54.267-13.622-54.727l-0.021-0.102
			l-0.092-0.61l0.005-0.092c0.009-0.184,0.654-18.514-3.899-33.527c-4.743-15.637-32.549-22.858-32.827-22.93
			c-0.056-0.012-7.603-1.751-11.362-2.479l-0.229-0.075c-1.809-0.837-6.104-3.396-9.387-5.394c-6.719-4.089-7.283-4.434-7.244-5.026
			c-0.445-2.822-0.891-13.499,0.019-21.741l0.041-0.362l0.265-0.253c0.025-0.026,2.775-2.685,4.662-7.091
			c0.157-0.367,0.563-1.644,0.922-2.771c1.021-3.218,1.021-3.218,1.604-3.392c1.588-0.478,5.192-5.235,5.942-9.074
			c0.729-3.746,0.601-6.898-0.336-8.032c-0.44-0.539-1.095-0.581-2.058-0.229c-0.089,0.067-0.187,0.171-0.272,0.259
			c-0.297,0.293-0.574,0.57-1.039,0.57h-0.506l-0.313-0.415c-0.188-0.257-0.246-0.561-0.168-0.904
			c0.825-8.728,1.506-17.397,1.515-17.484C205.491,38.54,194.581,29.1,178.344,29.1c-13.542,0-27.206,7.217-27.206,23.339v0.606
			c0.003,0.004,0.552,7.519,1.253,15.512l0.209,0.216l-0.462,1.251l-1.104,0.022l-0.342-0.368c-0.122-0.125-0.272-0.253-0.366-0.319
			l-0.102-0.001c-1.359,0-2.292,0.298-2.773,0.885c-0.982,1.199-0.449,3.859,0.067,6.432l0.17,0.859
			c0.801,4.098,4.767,9.021,6.145,9.293l0.279,0.1c0.462,0.248,0.554,0.581,0.943,1.983c0.818,2.953,2.735,9.867,6.841,12.002
			l0.485,0.252l0.049,0.545c0.851,9.419-0.216,21.917-0.228,22.042l-0.037,0.426l-0.333,0.268
			c-6.064,4.863-14.315,8.613-17.421,10.025l-0.677,0.311l-0.029-0.063c-0.11,0.045-0.239,0.091-0.389,0.14l-0.047,0.015
			c-0.896,0.285-2.517,0.652-5.421,1.309c-2.852,0.646-5.705,1.282-5.705,1.282c-0.253,0.064-28.067,7.259-32.811,22.834
			c-4.336,14.231-3.966,31.292-3.909,33.19l0.013,0.438l-0.329,0.321c-1.613,6.664-12.942,53.421-13.508,54.939
			c-0.456,1.224-2.634,5.859-4.074,8.927c-0.619,1.316-1.084,2.306-1.174,2.52c-1.944,4.594-3.775,15.512-5.896,28.154
			c-2.954,17.615-6.303,37.58-11.288,49.017c-1.325,3.375-5.477,7.57-6.837,8.712l-1.052,0.882l-0.059-0.144
			c-2.109,1.516-3.94,2.378-5.862,3.284c-1.078,0.507-2.192,1.033-3.407,1.699c-3.71,1.826-6.802,4.062-7.114,4.855l-0.074,0.188
			l-0.142,0.145c-4.311,4.396-10.198,11.684-9.789,14.119c0.038,0.223,0.126,0.342,0.328,0.443c0.152,0.076,0.334,0.113,0.557,0.113
			c2.468-0.001,7.454-4.386,10.016-7.149c0.301-0.333,3.067-3.333,5.144-3.968l1.402-0.428l-0.113,1.462
			c-0.257,3.326-1.255,6.682-1.983,9.132c-0.205,0.689-0.385,1.296-0.515,1.794c-0.119,0.853-0.347,1.781-0.659,3.054
			c-0.281,1.147-0.631,2.574-1.048,4.529l-0.271,1.271l-0.072-0.037c-0.783,3.576-2.229,10.718-2.684,13.494l-0.314,1.926
			l-0.011-0.012c-0.961,5.999-1.008,9.563-0.138,10.602c0.1,0.118,0.174,0.142,0.276,0.142c2.475,0,3.655-5.55,4.222-8.217
			c0.084-0.396,0.162-0.761,0.234-1.077l0.068-0.328c0.389-1.86,0.521-2.491,3.634-14.62l0.269-1.047l1.024,0.354
			c0.449,0.15,1.736,0.822,2.12,1.025l0.682,0.357l-0.174,0.75c-0.571,2.465-2.823,12.688-3.196,15.84
			c-0.809,4.576-1.003,9.889,0.173,11.29c0.167,0.197,0.305,0.238,0.461,0.238c2.482,0,4.233-6.533,4.516-10.191
			c0.521-3.7,0.696-4.861,2.608-16.134l0.157-0.928l0.936,0.104c2.413,0.26,2.565,0.334,2.726,0.408l0.643,0.313l-0.083,0.709
			c-0.729,6.204-1.211,9.354-1.531,11.439c-0.23,1.51-0.37,2.419-0.446,3.489l-0.05,0.485c-0.289,2.789-0.827,7.979,0.43,9.479
			c0.178,0.214,0.367,0.313,0.631,0.333l0,0c1.556,0,2.533-5.896,2.9-8.118c0.156-0.939,0.291-1.757,0.433-2.378
			c0.171-0.815,0.521-3.021,0.893-5.357c0.822-5.181,1.344-8.38,1.65-9.124c0.259-0.639,0.898-0.639,1.206-0.639
			c2.178,0,2.591,0.477,2.747,0.65l0.299,0.344l-0.035,0.533c-0.175,1.25-0.756,5.518-0.864,7.904
			c-0.209,4.176,0.125,7.725,0.587,8.813c1.173-1.238,3.298-7.326,3.432-10.052c0.242-2.519,0.947-7.863,0.978-8.092l0.041-0.181
			c0.003-0.011,0.281-0.865,0.789-2.854c0.275-1.066,3.898-18.011,4.881-29.653l0.031-0.176c0.171-0.635,0.366-1.517,0.593-2.547
			c0.493-2.232,1.107-5.011,1.965-7.627c1.211-3.516,4.354-10.619,8.333-19.612c7.847-17.735,18.595-42.023,21.334-54.505
			l0.067-0.202c0.686-1.5,1.965-8.581,2.187-11.592l0.038-0.209c0.374-1.27,9.211-31.233,15.374-43.143l1.512-2.922l0.37,3.27
			c0.968,8.566,2.293,18.094,3.359,25.75c1.114,8.009,2.01,14.454,2.121,16.993l0.084,0.066l-0.014,0.505
			c-0.382,13.565-0.771,21.349-1.154,23.178c0.001,0.011,0.001,0.021,0.001,0.032l0.003,0.076l-0.008,0.076
			c-0.134,1.164-1.632,8.642-3.707,18.992c-3.155,15.748-7.478,37.315-9.844,50.86l-0.188,0.735
			c-7.061,21.191-5.349,102.99,2.888,138.991l0.025,0.188c0.426,11.506-0.875,18.73-2.023,25.107l-0.303,1.692l-0.115,0.174
			c-8.538,12.879-7.34,56.389-6.466,88.155c0.463,16.826,0.829,30.112-0.208,35.814l-0.025,0.105c-1.44,4.831-4.861,19.163-4.387,21
			l-0.043,0.011c0.038,0.601-0.186,1.857-0.718,4.846l-1.963,10.992c-2.849,15.939-7.155,40.027-7.305,41.459l-0.262,2.495
			c-0.097,1.325-0.192,2.854-0.201,3.701c-0.009,1.006,0.214,1.747,0.666,2.202c0.524,0.526,1.257,0.556,1.399,0.556h1.135
			l-0.058,1.124c-0.001,0.014-0.049,0.354-0.041,0.521l0.022,0.104l-0.012,0.032c-0.007,0.695,0.189,1.233,0.599,1.646
			c0.78,0.786,2.234,0.995,2.895,0.995h1.083l-0.071,1.077c0,0.005-0.079,0.979-0.083,1.318c-0.024,2.668,2.79,2.89,2.91,2.896
			l0.513,0.034l0.27,0.438c0.157,0.256,0.678,1.141,0.779,1.817c0.118,0.812,1.332,1.542,2.547,1.542
			c0.413,0,1.159-0.091,1.517-0.688C112.289,741.874,112.638,741.092,113.187,738.858z"/>
		<path fill="none" stroke="#000000" stroke-miterlimit="10" d="M230.438,727.75c0,0,5.541,4.117,10.125,3.688
			c1.899-0.178,9.521-2.021,13.625-5.438c2.41-2.005,6.709-6.875,6.875-7.625"/>
		<path fill="none" stroke="#000000" stroke-miterlimit="10" d="M125.575,730.941c0,0-5.732,3.846-10.291,3.194
			c-1.889-0.27-9.413-2.478-13.348-6.087c-2.31-2.118-6.371-7.188-6.5-7.947"/>
	</g>
</g>
</svg>
