<svg xmlns="http://www.w3.org/2000/svg" viewBox="0 0 120 120"><title>female</title><path d="M0,0V120H120V0Z" style="fill:#fff;fill-opacity:0"/><path d="M100.33,96.8a16.63,16.63,0,0,0-6.45-31.17V48.27c0-17.87-13-32.79-30.18-34.68A34,34,0,0,0,26,43.44v.12a35.53,35.53,0,0,0-.22,3.86V65.69a16.62,16.62,0,0,0-6.34,31c-3,2.44-5,7.31-5.75,11.7-.23,1.29-.34,10.47-.34,11.61h3.46c0-1.08.14-10.11.38-11.21C18.61,102.5,23.79,96.42,30,96.4h7.77A8.69,8.69,0,0,0,42.44,95l17.11,13.92,17.31-14.1a8.82,8.82,0,0,0,5,1.55h7.75c6.11,0,11.24,6,12.72,12.18.28,1.17.43,10.27.44,11.42h3.46c0-1-.09-10.09-.28-11.26C105.28,104.3,103.3,99.3,100.33,96.8Zm-40.77,7.74L45.05,92.8a8.79,8.79,0,0,0,1.65-5.14V85.54a26.38,26.38,0,0,0,26.27,0v2.07a8.8,8.8,0,0,0,1.45,4.83Zm37.18-9.86a16.35,16.35,0,0,0-7.24-1.63l-7.66,0a5.42,5.42,0,0,1-5.42-5.42V83.2a26.45,26.45,0,0,0,9.91-20.65V50.17H82.9V62.55a23,23,0,1,1-46.09,0V50.17H33.36V62.55a26.49,26.49,0,0,0,9.91,20.64v4.42a5.41,5.41,0,0,1-5.38,5.44H30.11A16.48,16.48,0,0,0,23,94.64a13.11,13.11,0,0,1,4.61-25.38h1.71V47.69a30.47,30.47,0,0,1,34-30.28c15.39,1.7,27,15.08,27,31.13v20.7h1.91a13.11,13.11,0,0,1,4.55,25.44Z" style="fill:#b7acae"/></svg>