<svg xmlns="http://www.w3.org/2000/svg" viewBox="0 0 150 150"><title>profile</title><path d="M127.75,114.82V150h-5.28V114.82a29.06,29.06,0,0,0-29-29H56.55a29.07,29.07,0,0,0-29,29V150H22.25V114.82a34.33,34.33,0,0,1,34.3-34.29h36.9A34.33,34.33,0,0,1,127.75,114.82Z" style="fill:#777"/><path d="M75,22.52a26.37,26.37,0,1,0,26.37,26.37A26.38,26.38,0,0,0,75,22.52Zm0,47.23A20.85,20.85,0,1,1,95.88,48.89,20.86,20.86,0,0,1,75,69.75Z" style="fill:#777"/><rect width="0.1" height="0.1" style="fill:none;opacity:0"/><rect x="149.9" y="149.9" width="0.1" height="0.1" style="fill:none;opacity:0"/></svg>