<svg id="Layer_1" data-name="Layer 1" xmlns="http://www.w3.org/2000/svg" viewBox="0 0 21 21"><defs><style>.cls-1,.cls-2{fill:#fff;}.cls-1{opacity:0;}.cls-3{fill:#7d8bd8;}</style></defs><title>accordion-bg</title><rect class="cls-1" width="21" height="21"/><circle class="cls-2" cx="10.5" cy="10.5" r="9"/><path id="Path_138" data-name="Path 138" class="cls-3" d="M10.5.5a10,10,0,1,0,10,10A10,10,0,0,0,10.5.5Zm0,18.64a8.64,8.64,0,1,1,8.64-8.64h0A8.64,8.64,0,0,1,10.5,19.14Z"/><path id="Path_137" data-name="Path 137" class="cls-3" d="M14.5,11.91,10.82,8.23h0a.45.45,0,0,0-.63,0L6.5,11.91a.45.45,0,0,0,0,.63h0l.23.22a.42.42,0,0,0,.59,0h0L10.5,9.62l3.15,3.15a.44.44,0,0,0,.62,0l.23-.23a.44.44,0,0,0,0-.62Z"/></svg>