<svg id="Layer_1" data-name="Layer 1" xmlns="http://www.w3.org/2000/svg" viewBox="0 0 34 34"><defs><style>.cls-1,.cls-3{fill:#e5e5e5;}.cls-1{opacity:0;}.cls-2{fill:#f96aad;}.cls-4{fill:#2cd9c5;}.cls-5{fill:#826af9;}</style></defs><title>revenue</title><path class="cls-1" d="M27.53,5.41a11.58,11.58,0,0,0-1.16-1h0a14.1,14.1,0,0,0-1.24-.83l-.66-.38-.67-.34c-.25-.13-.5-.24-.76-.35s-.42-.17-.64-.24h0q-.36-.13-.72-.24t-.6-.18A15,15,0,0,0,19,1.46l-.5-.05c-.24,0-.48,0-.72,0a11.85,11.85,0,0,0-1.46,0c-.24,0-.48,0-.72,0l-.5.05a15.6,15.6,0,0,0-2.83.63c-.19.05-.39.12-.58.19l0,0c-.21.07-.43.15-.64.24l-.44.2q-.28.12-.57.27l-.47.25c-.21.11-.41.23-.61.35s-.43.26-.63.4l-.61.43h0L7,4.92c-.22.18-.43.36-.64.56l-.17.15h0L12,11.42l.12-.1a1.71,1.71,0,0,1,.26-.21,2.43,2.43,0,0,1,.32-.24,3.28,3.28,0,0,1,.31-.2,1.64,1.64,0,0,1,.22-.14,3.9,3.9,0,0,1,.35-.19,1.87,1.87,0,0,1,.32-.15,2.33,2.33,0,0,1,.33-.14,1.21,1.21,0,0,1,.3-.11A4.26,4.26,0,0,1,15,9.79a7.64,7.64,0,0,1,1.32-.24,7.5,7.5,0,0,1,1.34,0A7.64,7.64,0,0,1,19,9.79a4.26,4.26,0,0,1,.47.15,1.21,1.21,0,0,1,.3.11,2.33,2.33,0,0,1,.33.14,1.87,1.87,0,0,1,.32.15,3.9,3.9,0,0,1,.35.19,1.64,1.64,0,0,1,.22.14,3.28,3.28,0,0,1,.31.2,2.43,2.43,0,0,1,.32.24,1.71,1.71,0,0,1,.26.21l.05,0,.07.05,5.78-5.78Zm-4,10.29a4.15,4.15,0,0,0-.16-.63,4.93,4.93,0,0,0-.19-.54,1.2,1.2,0,0,0-.11-.23,2.23,2.23,0,0,0-.22-.47A6.29,6.29,0,0,0,21.7,12.3a6.42,6.42,0,0,0-1.53-1.14,3.71,3.71,0,0,0-.53-.26c-.22-.1-.45-.18-.68-.26a6.23,6.23,0,0,0-.62-.15,5,5,0,0,0-.66-.1,5.17,5.17,0,0,0-.68,0l-.64,0-.28,0a3.07,3.07,0,0,0-.42.07,6.23,6.23,0,0,0-.62.15,6.85,6.85,0,0,0-.68.26,3.71,3.71,0,0,0-.53.26A6.42,6.42,0,0,0,12.3,12.3,6.65,6.65,0,1,0,23.65,17,6.23,6.23,0,0,0,23.52,15.7Zm4-10.29a11.58,11.58,0,0,0-1.16-1h0a14.1,14.1,0,0,0-1.24-.83l-.66-.38-.67-.34c-.25-.13-.5-.24-.76-.35s-.42-.17-.64-.24h0q-.36-.13-.72-.24t-.6-.18A15,15,0,0,0,19,1.46l-.5-.05c-.24,0-.48,0-.72,0a11.85,11.85,0,0,0-1.46,0c-.24,0-.48,0-.72,0l-.5.05a15.6,15.6,0,0,0-2.83.63c-.19.05-.39.12-.58.19l0,0c-.21.07-.43.15-.64.24l-.44.2q-.28.12-.57.27l-.47.25c-.21.11-.41.23-.61.35s-.43.26-.63.4l-.61.43h0L7,4.92c-.22.18-.43.36-.64.56l-.17.15h0L12,11.42l.12-.1a1.71,1.71,0,0,1,.26-.21,2.43,2.43,0,0,1,.32-.24,3.28,3.28,0,0,1,.31-.2,1.64,1.64,0,0,1,.22-.14,3.9,3.9,0,0,1,.35-.19,1.87,1.87,0,0,1,.32-.15,2.33,2.33,0,0,1,.33-.14,1.21,1.21,0,0,1,.3-.11A4.26,4.26,0,0,1,15,9.79a7.64,7.64,0,0,1,1.32-.24,7.5,7.5,0,0,1,1.34,0A7.64,7.64,0,0,1,19,9.79a4.26,4.26,0,0,1,.47.15,1.21,1.21,0,0,1,.3.11,2.33,2.33,0,0,1,.33.14,1.87,1.87,0,0,1,.32.15,3.9,3.9,0,0,1,.35.19,1.64,1.64,0,0,1,.22.14,3.28,3.28,0,0,1,.31.2,2.43,2.43,0,0,1,.32.24,1.71,1.71,0,0,1,.26.21l.05,0,.07.05,5.78-5.78Zm-4,10.29a4.15,4.15,0,0,0-.16-.63,4.93,4.93,0,0,0-.19-.54,1.2,1.2,0,0,0-.11-.23,2.23,2.23,0,0,0-.22-.47A6.29,6.29,0,0,0,21.7,12.3a6.42,6.42,0,0,0-1.53-1.14,3.71,3.71,0,0,0-.53-.26c-.22-.1-.45-.18-.68-.26a6.23,6.23,0,0,0-.62-.15,5,5,0,0,0-.66-.1,5.17,5.17,0,0,0-.68,0l-.64,0-.28,0a3.07,3.07,0,0,0-.42.07,6.23,6.23,0,0,0-.62.15,6.85,6.85,0,0,0-.68.26,3.71,3.71,0,0,0-.53.26A6.42,6.42,0,0,0,12.3,12.3,6.65,6.65,0,1,0,23.65,17,6.23,6.23,0,0,0,23.52,15.7Zm0,0a4.15,4.15,0,0,0-.16-.63,4.93,4.93,0,0,0-.19-.54,1.2,1.2,0,0,0-.11-.23,2.23,2.23,0,0,0-.22-.47A6.29,6.29,0,0,0,21.7,12.3a6.42,6.42,0,0,0-1.53-1.14,3.71,3.71,0,0,0-.53-.26c-.22-.1-.45-.18-.68-.26a6.23,6.23,0,0,0-.62-.15,5,5,0,0,0-.66-.1,5.17,5.17,0,0,0-.68,0l-.64,0-.28,0a3.07,3.07,0,0,0-.42.07,6.23,6.23,0,0,0-.62.15,6.85,6.85,0,0,0-.68.26,3.71,3.71,0,0,0-.53.26A6.42,6.42,0,0,0,12.3,12.3,6.65,6.65,0,1,0,23.65,17,6.23,6.23,0,0,0,23.52,15.7Zm4-10.29a11.58,11.58,0,0,0-1.16-1h0a14.1,14.1,0,0,0-1.24-.83l-.66-.38-.67-.34c-.25-.13-.5-.24-.76-.35s-.42-.17-.64-.24h0q-.36-.13-.72-.24t-.6-.18A15,15,0,0,0,19,1.46l-.5-.05c-.24,0-.48,0-.72,0a11.85,11.85,0,0,0-1.46,0c-.24,0-.48,0-.72,0l-.5.05a15.6,15.6,0,0,0-2.83.63c-.19.05-.39.12-.58.19l0,0c-.21.07-.43.15-.64.24l-.44.2q-.28.12-.57.27l-.47.25c-.21.11-.41.23-.61.35s-.43.26-.63.4l-.61.43h0L7,4.92c-.22.18-.43.36-.64.56l-.17.15h0L12,11.42l.12-.1a1.71,1.71,0,0,1,.26-.21,2.43,2.43,0,0,1,.32-.24,3.28,3.28,0,0,1,.31-.2,1.64,1.64,0,0,1,.22-.14,3.9,3.9,0,0,1,.35-.19,1.87,1.87,0,0,1,.32-.15,2.33,2.33,0,0,1,.33-.14,1.21,1.21,0,0,1,.3-.11A4.26,4.26,0,0,1,15,9.79a7.64,7.64,0,0,1,1.32-.24,7.5,7.5,0,0,1,1.34,0A7.64,7.64,0,0,1,19,9.79a4.26,4.26,0,0,1,.47.15,1.21,1.21,0,0,1,.3.11,2.33,2.33,0,0,1,.33.14,1.87,1.87,0,0,1,.32.15,3.9,3.9,0,0,1,.35.19,1.64,1.64,0,0,1,.22.14,3.28,3.28,0,0,1,.31.2,2.43,2.43,0,0,1,.32.24,1.71,1.71,0,0,1,.26.21l.05,0,.06.06h0l5.78-5.78h0Zm0,0a11.58,11.58,0,0,0-1.16-1h0a14.1,14.1,0,0,0-1.24-.83l-.66-.38-.67-.34c-.25-.13-.5-.24-.76-.35s-.42-.17-.64-.24h0q-.36-.13-.72-.24t-.6-.18A15,15,0,0,0,19,1.46l-.5-.05c-.24,0-.48,0-.72,0a11.85,11.85,0,0,0-1.46,0c-.24,0-.48,0-.72,0l-.5.05a15.6,15.6,0,0,0-2.83.63c-.19.05-.39.12-.58.19l0,0c-.21.07-.43.15-.64.24l-.44.2q-.28.12-.57.27l-.47.25c-.21.11-.41.23-.61.35s-.43.26-.63.4l-.61.43h0L7,4.92c-.22.18-.43.36-.64.56l-.17.15h0L12,11.42l.12-.1a1.71,1.71,0,0,1,.26-.21,2.43,2.43,0,0,1,.32-.24,3.28,3.28,0,0,1,.31-.2,1.64,1.64,0,0,1,.22-.14,3.9,3.9,0,0,1,.35-.19,1.87,1.87,0,0,1,.32-.15,2.33,2.33,0,0,1,.33-.14,1.21,1.21,0,0,1,.3-.11A4.26,4.26,0,0,1,15,9.79a7.64,7.64,0,0,1,1.32-.24,7.5,7.5,0,0,1,1.34,0A7.64,7.64,0,0,1,19,9.79a4.26,4.26,0,0,1,.47.15,1.21,1.21,0,0,1,.3.11,2.33,2.33,0,0,1,.33.14,1.87,1.87,0,0,1,.32.15,3.9,3.9,0,0,1,.35.19,1.64,1.64,0,0,1,.22.14,3.28,3.28,0,0,1,.31.2,2.43,2.43,0,0,1,.32.24,1.71,1.71,0,0,1,.26.21l.05,0,.06.06h0l5.78-5.78h0Zm-4,10.29a4.15,4.15,0,0,0-.16-.63,4.93,4.93,0,0,0-.19-.54,1.2,1.2,0,0,0-.11-.23,2.23,2.23,0,0,0-.22-.47A6.29,6.29,0,0,0,21.7,12.3a6.42,6.42,0,0,0-1.53-1.14,3.71,3.71,0,0,0-.53-.26c-.22-.1-.45-.18-.68-.26a6.23,6.23,0,0,0-.62-.15,5,5,0,0,0-.66-.1,5.17,5.17,0,0,0-.68,0l-.64,0-.28,0a3.07,3.07,0,0,0-.42.07,6.23,6.23,0,0,0-.62.15,6.85,6.85,0,0,0-.68.26,3.71,3.71,0,0,0-.53.26A6.42,6.42,0,0,0,12.3,12.3,6.65,6.65,0,1,0,23.65,17,6.23,6.23,0,0,0,23.52,15.7Zm0,0a4.15,4.15,0,0,0-.16-.63,4.93,4.93,0,0,0-.19-.54,1.2,1.2,0,0,0-.11-.23,2.23,2.23,0,0,0-.22-.47A6.29,6.29,0,0,0,21.7,12.3a6.42,6.42,0,0,0-1.53-1.14,3.71,3.71,0,0,0-.53-.26c-.22-.1-.45-.18-.68-.26a6.23,6.23,0,0,0-.62-.15,5,5,0,0,0-.66-.1,5.17,5.17,0,0,0-.68,0l-.64,0-.28,0a3.07,3.07,0,0,0-.42.07,6.23,6.23,0,0,0-.62.15,6.85,6.85,0,0,0-.68.26,3.71,3.71,0,0,0-.53.26A6.42,6.42,0,0,0,12.3,12.3,6.65,6.65,0,1,0,23.65,17,6.23,6.23,0,0,0,23.52,15.7Zm4-10.29a11.58,11.58,0,0,0-1.16-1h0a14.1,14.1,0,0,0-1.24-.83l-.66-.38-.67-.34c-.25-.13-.5-.24-.76-.35s-.42-.17-.64-.24h0q-.36-.13-.72-.24t-.6-.18A15,15,0,0,0,19,1.46l-.5-.05c-.24,0-.48,0-.72,0a11.85,11.85,0,0,0-1.46,0c-.24,0-.48,0-.72,0l-.5.05a15.6,15.6,0,0,0-2.83.63c-.19.05-.39.12-.58.19l0,0c-.21.07-.43.15-.64.24l-.44.2q-.28.12-.57.27l-.47.25c-.21.11-.41.23-.61.35s-.43.26-.63.4l-.61.43h0L7,4.92c-.22.18-.43.36-.64.56l-.17.15h0L12,11.42l.12-.1a1.71,1.71,0,0,1,.26-.21,2.43,2.43,0,0,1,.32-.24,3.28,3.28,0,0,1,.31-.2,1.64,1.64,0,0,1,.22-.14,3.9,3.9,0,0,1,.35-.19,1.87,1.87,0,0,1,.32-.15,2.33,2.33,0,0,1,.33-.14,1.21,1.21,0,0,1,.3-.11A4.26,4.26,0,0,1,15,9.79a7.64,7.64,0,0,1,1.32-.24,7.5,7.5,0,0,1,1.34,0A7.64,7.64,0,0,1,19,9.79a4.26,4.26,0,0,1,.47.15,1.21,1.21,0,0,1,.3.11,2.33,2.33,0,0,1,.33.14,1.87,1.87,0,0,1,.32.15,3.9,3.9,0,0,1,.35.19,1.64,1.64,0,0,1,.22.14,3.28,3.28,0,0,1,.31.2,2.43,2.43,0,0,1,.32.24,1.71,1.71,0,0,1,.26.21l.05,0,.06.06h0l5.78-5.78h0Zm5.11,10.78c0-.26,0-.53-.06-.79q-.06-.63-.18-1.26c-.06-.35-.14-.7-.23-1.05s-.17-.62-.27-.93-.18-.53-.28-.79a15,15,0,0,0-3-4.9,2.62,2.62,0,0,0-.22-.25h0L22.59,12h0l.19.2a.07.07,0,0,1,0,0c.14.17.28.36.41.55s.26.4.37.61.22.43.32.66c0,0,0,0,0,0,.08.21.16.43.23.65s.12.39.16.58a4.54,4.54,0,0,1,.09.51.57.57,0,0,1,0,.13,4.78,4.78,0,0,1,.06.53v0h8.19C32.66,16.45,32.65,16.32,32.64,16.19Zm-10.35,6.1A7.48,7.48,0,0,1,9.51,17a7.38,7.38,0,0,1,1.92-5L5.64,6.24a15.65,15.65,0,1,0,27,11.18H24.47A7.48,7.48,0,0,1,22.29,22.29Zm10.35-6.1c0-.26,0-.53-.06-.79q-.06-.63-.18-1.26c-.06-.35-.14-.7-.23-1.05s-.17-.62-.27-.93-.18-.53-.28-.79a15,15,0,0,0-3-4.9,2.62,2.62,0,0,0-.22-.25h0L22.59,12h0l.19.2a.07.07,0,0,1,0,0c.14.17.28.36.41.55s.26.4.37.61.22.43.32.66c0,0,0,0,0,0,.08.21.16.43.23.65s.12.39.16.58a4.54,4.54,0,0,1,.09.51.57.57,0,0,1,0,.13,4.78,4.78,0,0,1,.06.53v0h8.19C32.66,16.45,32.65,16.32,32.64,16.19Zm-10.35,6.1A7.48,7.48,0,0,1,9.51,17a7.38,7.38,0,0,1,1.92-5L5.64,6.24a15.65,15.65,0,1,0,27,11.18H24.47A7.48,7.48,0,0,1,22.29,22.29ZM12,11.42l.12-.1a1.71,1.71,0,0,1,.26-.21,2.43,2.43,0,0,1,.32-.24,3.28,3.28,0,0,1,.31-.2,1.64,1.64,0,0,1,.22-.14,3.9,3.9,0,0,1,.35-.19,1.87,1.87,0,0,1,.32-.15,2.33,2.33,0,0,1,.33-.14,1.21,1.21,0,0,1,.3-.11A4.26,4.26,0,0,1,15,9.79a7.64,7.64,0,0,1,1.32-.24,7.5,7.5,0,0,1,1.34,0A7.64,7.64,0,0,1,19,9.79a4.26,4.26,0,0,1,.47.15,1.21,1.21,0,0,1,.3.11,2.33,2.33,0,0,1,.33.14,1.87,1.87,0,0,1,.32.15,3.9,3.9,0,0,1,.35.19,1.64,1.64,0,0,1,.22.14,3.28,3.28,0,0,1,.31.2,2.43,2.43,0,0,1,.32.24,1.71,1.71,0,0,1,.26.21l.05,0,.06.06h0l5.78-5.78h0l-.25-.22a11.58,11.58,0,0,0-1.16-1h0a14.1,14.1,0,0,0-1.24-.83l-.66-.38-.67-.34c-.25-.13-.5-.24-.76-.35s-.42-.17-.64-.24h0q-.36-.13-.72-.24t-.6-.18A15,15,0,0,0,19,1.46l-.5-.05c-.24,0-.48,0-.72,0a11.85,11.85,0,0,0-1.46,0c-.24,0-.48,0-.72,0l-.5.05a15.6,15.6,0,0,0-2.83.63c-.19.05-.39.12-.58.19l0,0c-.21.07-.43.15-.64.24l-.44.2q-.28.12-.57.27l-.47.25c-.21.11-.41.23-.61.35s-.43.26-.63.4l-.61.43h0L7,4.92c-.22.18-.43.36-.64.56l-.17.15h0Zm8.16-.26a3.71,3.71,0,0,0-.53-.26c-.22-.1-.45-.18-.68-.26a6.23,6.23,0,0,0-.62-.15,5,5,0,0,0-.66-.1,5.17,5.17,0,0,0-.68,0l-.64,0-.28,0a3.07,3.07,0,0,0-.42.07,6.23,6.23,0,0,0-.62.15,6.85,6.85,0,0,0-.68.26,3.71,3.71,0,0,0-.53.26A6.42,6.42,0,0,0,12.3,12.3,6.65,6.65,0,1,0,23.65,17a6.23,6.23,0,0,0-.13-1.3,4.15,4.15,0,0,0-.16-.63,4.93,4.93,0,0,0-.19-.54,1.2,1.2,0,0,0-.11-.23,2.23,2.23,0,0,0-.22-.47A6.29,6.29,0,0,0,21.7,12.3,6.42,6.42,0,0,0,20.17,11.16ZM0,0V34H34V0ZM33.5,17A16.5,16.5,0,1,1,5.33,5.33C5.71,5,6.1,4.6,6.5,4.27c.21-.17.42-.34.63-.49s.34-.25.51-.36a10.42,10.42,0,0,1,1.17-.74,5.29,5.29,0,0,1,.52-.29l.52-.26a7.22,7.22,0,0,1,.69-.31c.27-.12.54-.23.82-.33l.49-.17A14.79,14.79,0,0,1,13.67.84c.21,0,.41-.08.62-.11a16.49,16.49,0,0,1,5.43,0,6,6,0,0,1,.61.11,14.79,14.79,0,0,1,1.82.48l.49.17c.28.1.55.21.82.33a7.22,7.22,0,0,1,.69.31l.52.26a5.29,5.29,0,0,1,.52.29,10.42,10.42,0,0,1,1.17.74q.26.17.51.36c.21.15.42.32.63.49.4.33.79.68,1.17,1.06l1.55,1.8c.16.21.31.42.46.64s.29.45.43.67.27.46.4.69c.25.47.48.95.69,1.45.1.22.19.45.27.68l.69,2.41c.06.27.11.54.15.82v0c.08.53.13,1.07.16,1.61l0,.82Zm-.92-1.6q-.06-.63-.18-1.26c-.06-.35-.14-.7-.23-1.05s-.17-.62-.27-.93-.18-.53-.28-.79a15,15,0,0,0-3-4.9,2.62,2.62,0,0,0-.22-.25h0L22.59,12h0l.19.2a.07.07,0,0,1,0,0c.14.17.28.36.41.55s.26.4.37.61.22.43.32.66c0,0,0,0,0,0,.08.21.16.43.23.65s.12.39.16.58a4.54,4.54,0,0,1,.09.51.57.57,0,0,1,0,.13,4.78,4.78,0,0,1,.06.53v0h8.19c0-.13,0-.26,0-.39S32.61,15.66,32.58,15.4ZM22.29,22.29A7.48,7.48,0,0,1,9.51,17a7.38,7.38,0,0,1,1.92-5L5.64,6.24a15.65,15.65,0,1,0,27,11.18H24.47A7.48,7.48,0,0,1,22.29,22.29ZM12,11.42l.12-.1a1.71,1.71,0,0,1,.26-.21,2.43,2.43,0,0,1,.32-.24,3.28,3.28,0,0,1,.31-.2,1.64,1.64,0,0,1,.22-.14,3.9,3.9,0,0,1,.35-.19,1.87,1.87,0,0,1,.32-.15,2.33,2.33,0,0,1,.33-.14,1.21,1.21,0,0,1,.3-.11A4.26,4.26,0,0,1,15,9.79a7.64,7.64,0,0,1,1.32-.24,7.5,7.5,0,0,1,1.34,0A7.64,7.64,0,0,1,19,9.79a4.26,4.26,0,0,1,.47.15,1.21,1.21,0,0,1,.3.11,2.33,2.33,0,0,1,.33.14,1.87,1.87,0,0,1,.32.15,3.9,3.9,0,0,1,.35.19,1.64,1.64,0,0,1,.22.14,3.28,3.28,0,0,1,.31.2,2.43,2.43,0,0,1,.32.24,1.71,1.71,0,0,1,.26.21l.05,0,.06.06h0l5.78-5.78h0l-.25-.22a11.58,11.58,0,0,0-1.16-1h0a14.1,14.1,0,0,0-1.24-.83l-.66-.38-.67-.34c-.25-.13-.5-.24-.76-.35s-.42-.17-.64-.24h0q-.36-.13-.72-.24t-.6-.18A15,15,0,0,0,19,1.46l-.5-.05c-.24,0-.48,0-.72,0a11.85,11.85,0,0,0-1.46,0c-.24,0-.48,0-.72,0l-.5.05a15.6,15.6,0,0,0-2.83.63c-.19.05-.39.12-.58.19l0,0c-.21.07-.43.15-.64.24l-.44.2q-.28.12-.57.27l-.47.25c-.21.11-.41.23-.61.35s-.43.26-.63.4l-.61.43h0L7,4.92c-.22.18-.43.36-.64.56l-.17.15h0Zm8.16-.26a3.71,3.71,0,0,0-.53-.26c-.22-.1-.45-.18-.68-.26a6.23,6.23,0,0,0-.62-.15,5,5,0,0,0-.66-.1,5.17,5.17,0,0,0-.68,0l-.64,0-.28,0a3.07,3.07,0,0,0-.42.07,6.23,6.23,0,0,0-.62.15,6.85,6.85,0,0,0-.68.26,3.71,3.71,0,0,0-.53.26A6.42,6.42,0,0,0,12.3,12.3,6.65,6.65,0,1,0,23.65,17a6.23,6.23,0,0,0-.13-1.3,4.15,4.15,0,0,0-.16-.63,4.93,4.93,0,0,0-.19-.54,1.2,1.2,0,0,0-.11-.23,2.23,2.23,0,0,0-.22-.47A6.29,6.29,0,0,0,21.7,12.3,6.42,6.42,0,0,0,20.17,11.16Zm3.35,4.54a4.15,4.15,0,0,0-.16-.63,4.93,4.93,0,0,0-.19-.54,1.2,1.2,0,0,0-.11-.23,2.23,2.23,0,0,0-.22-.47A6.29,6.29,0,0,0,21.7,12.3a6.42,6.42,0,0,0-1.53-1.14,3.71,3.71,0,0,0-.53-.26c-.22-.1-.45-.18-.68-.26a6.23,6.23,0,0,0-.62-.15,5,5,0,0,0-.66-.1,5.17,5.17,0,0,0-.68,0l-.64,0-.28,0a3.07,3.07,0,0,0-.42.07,6.23,6.23,0,0,0-.62.15,6.85,6.85,0,0,0-.68.26,3.71,3.71,0,0,0-.53.26A6.42,6.42,0,0,0,12.3,12.3,6.65,6.65,0,1,0,23.65,17,6.23,6.23,0,0,0,23.52,15.7Zm4-10.29a11.58,11.58,0,0,0-1.16-1h0a14.1,14.1,0,0,0-1.24-.83l-.66-.38-.67-.34c-.25-.13-.5-.24-.76-.35s-.42-.17-.64-.24h0q-.36-.13-.72-.24t-.6-.18A15,15,0,0,0,19,1.46l-.5-.05c-.24,0-.48,0-.72,0a11.85,11.85,0,0,0-1.46,0c-.24,0-.48,0-.72,0l-.5.05a15.6,15.6,0,0,0-2.83.63c-.19.05-.39.12-.58.19l0,0c-.21.07-.43.15-.64.24l-.44.2q-.28.12-.57.27l-.47.25c-.21.11-.41.23-.61.35s-.43.26-.63.4l-.61.43h0L7,4.92c-.22.18-.43.36-.64.56l-.17.15h0L12,11.42l.12-.1a1.71,1.71,0,0,1,.26-.21,2.43,2.43,0,0,1,.32-.24,3.28,3.28,0,0,1,.31-.2,1.64,1.64,0,0,1,.22-.14,3.9,3.9,0,0,1,.35-.19,1.87,1.87,0,0,1,.32-.15,2.33,2.33,0,0,1,.33-.14,1.21,1.21,0,0,1,.3-.11A4.26,4.26,0,0,1,15,9.79a7.64,7.64,0,0,1,1.32-.24,7.5,7.5,0,0,1,1.34,0A7.64,7.64,0,0,1,19,9.79a4.26,4.26,0,0,1,.47.15,1.21,1.21,0,0,1,.3.11,2.33,2.33,0,0,1,.33.14,1.87,1.87,0,0,1,.32.15,3.9,3.9,0,0,1,.35.19,1.64,1.64,0,0,1,.22.14,3.28,3.28,0,0,1,.31.2,2.43,2.43,0,0,1,.32.24,1.71,1.71,0,0,1,.26.21l.05,0,.06.06h0l5.78-5.78h0Zm0,0a11.58,11.58,0,0,0-1.16-1h0a14.1,14.1,0,0,0-1.24-.83l-.66-.38-.67-.34c-.25-.13-.5-.24-.76-.35s-.42-.17-.64-.24h0q-.36-.13-.72-.24t-.6-.18A15,15,0,0,0,19,1.46l-.5-.05c-.24,0-.48,0-.72,0a11.85,11.85,0,0,0-1.46,0c-.24,0-.48,0-.72,0l-.5.05a15.6,15.6,0,0,0-2.83.63c-.19.05-.39.12-.58.19l0,0c-.21.07-.43.15-.64.24l-.44.2q-.28.12-.57.27l-.47.25c-.21.11-.41.23-.61.35s-.43.26-.63.4l-.61.43h0L7,4.92c-.22.18-.43.36-.64.56l-.17.15h0L12,11.42l.12-.1a1.71,1.71,0,0,1,.26-.21,2.43,2.43,0,0,1,.32-.24,3.28,3.28,0,0,1,.31-.2,1.64,1.64,0,0,1,.22-.14,3.9,3.9,0,0,1,.35-.19,1.87,1.87,0,0,1,.32-.15,2.33,2.33,0,0,1,.33-.14,1.21,1.21,0,0,1,.3-.11A4.26,4.26,0,0,1,15,9.79a7.64,7.64,0,0,1,1.32-.24,7.5,7.5,0,0,1,1.34,0A7.64,7.64,0,0,1,19,9.79a4.26,4.26,0,0,1,.47.15,1.21,1.21,0,0,1,.3.11,2.33,2.33,0,0,1,.33.14,1.87,1.87,0,0,1,.32.15,3.9,3.9,0,0,1,.35.19,1.64,1.64,0,0,1,.22.14,3.28,3.28,0,0,1,.31.2,2.43,2.43,0,0,1,.32.24,1.71,1.71,0,0,1,.26.21l.05,0,.06.06h0l5.78-5.78h0Zm-4,10.29a4.15,4.15,0,0,0-.16-.63,4.93,4.93,0,0,0-.19-.54,1.2,1.2,0,0,0-.11-.23,2.23,2.23,0,0,0-.22-.47A6.29,6.29,0,0,0,21.7,12.3a6.42,6.42,0,0,0-1.53-1.14,3.71,3.71,0,0,0-.53-.26c-.22-.1-.45-.18-.68-.26a6.23,6.23,0,0,0-.62-.15,5,5,0,0,0-.66-.1,5.17,5.17,0,0,0-.68,0l-.64,0-.28,0a3.07,3.07,0,0,0-.42.07,6.23,6.23,0,0,0-.62.15,6.85,6.85,0,0,0-.68.26,3.71,3.71,0,0,0-.53.26A6.42,6.42,0,0,0,12.3,12.3,6.65,6.65,0,1,0,23.65,17,6.23,6.23,0,0,0,23.52,15.7Zm0,0a4.15,4.15,0,0,0-.16-.63,4.93,4.93,0,0,0-.19-.54,1.2,1.2,0,0,0-.11-.23,2.23,2.23,0,0,0-.22-.47A6.29,6.29,0,0,0,21.7,12.3a6.42,6.42,0,0,0-1.53-1.14,3.71,3.71,0,0,0-.53-.26c-.22-.1-.45-.18-.68-.26a6.23,6.23,0,0,0-.62-.15,5,5,0,0,0-.66-.1,5.17,5.17,0,0,0-.68,0l-.64,0-.28,0a3.07,3.07,0,0,0-.42.07,6.23,6.23,0,0,0-.62.15,6.85,6.85,0,0,0-.68.26,3.71,3.71,0,0,0-.53.26A6.42,6.42,0,0,0,12.3,12.3,6.65,6.65,0,1,0,23.65,17,6.23,6.23,0,0,0,23.52,15.7Zm4-10.29a11.58,11.58,0,0,0-1.16-1h0a14.1,14.1,0,0,0-1.24-.83l-.66-.38-.67-.34c-.25-.13-.5-.24-.76-.35s-.42-.17-.64-.24h0q-.36-.13-.72-.24t-.6-.18A15,15,0,0,0,19,1.46l-.5-.05c-.24,0-.48,0-.72,0a11.85,11.85,0,0,0-1.46,0c-.24,0-.48,0-.72,0l-.5.05a15.6,15.6,0,0,0-2.83.63c-.19.05-.39.12-.58.19l0,0c-.21.07-.43.15-.64.24l-.44.2q-.28.12-.57.27l-.47.25c-.21.11-.41.23-.61.35s-.43.26-.63.4l-.61.43h0L7,4.92c-.22.18-.43.36-.64.56l-.17.15h0L12,11.42l.12-.1a1.71,1.71,0,0,1,.26-.21,2.43,2.43,0,0,1,.32-.24,3.28,3.28,0,0,1,.31-.2,1.64,1.64,0,0,1,.22-.14,3.9,3.9,0,0,1,.35-.19,1.87,1.87,0,0,1,.32-.15,2.33,2.33,0,0,1,.33-.14,1.21,1.21,0,0,1,.3-.11A4.26,4.26,0,0,1,15,9.79a7.64,7.64,0,0,1,1.32-.24,7.5,7.5,0,0,1,1.34,0A7.64,7.64,0,0,1,19,9.79a4.26,4.26,0,0,1,.47.15,1.21,1.21,0,0,1,.3.11,2.33,2.33,0,0,1,.33.14,1.87,1.87,0,0,1,.32.15,3.9,3.9,0,0,1,.35.19,1.64,1.64,0,0,1,.22.14,3.28,3.28,0,0,1,.31.2,2.43,2.43,0,0,1,.32.24,1.71,1.71,0,0,1,.26.21l.05,0,.06.06h0l5.78-5.78Zm-4,10.29a4.15,4.15,0,0,0-.16-.63,4.93,4.93,0,0,0-.19-.54,1.2,1.2,0,0,0-.11-.23,2.23,2.23,0,0,0-.22-.47A6.29,6.29,0,0,0,21.7,12.3a6.42,6.42,0,0,0-1.53-1.14,3.71,3.71,0,0,0-.53-.26c-.22-.1-.45-.18-.68-.26a6.23,6.23,0,0,0-.62-.15,5,5,0,0,0-.66-.1,5.17,5.17,0,0,0-.68,0l-.64,0-.28,0a3.07,3.07,0,0,0-.42.07,6.23,6.23,0,0,0-.62.15,6.85,6.85,0,0,0-.68.26,3.71,3.71,0,0,0-.53.26A6.42,6.42,0,0,0,12.3,12.3,6.65,6.65,0,1,0,23.65,17,6.23,6.23,0,0,0,23.52,15.7Zm0,0a4.15,4.15,0,0,0-.16-.63,4.93,4.93,0,0,0-.19-.54,1.2,1.2,0,0,0-.11-.23,2.23,2.23,0,0,0-.22-.47A6.29,6.29,0,0,0,21.7,12.3a6.42,6.42,0,0,0-1.53-1.14,3.71,3.71,0,0,0-.53-.26c-.22-.1-.45-.18-.68-.26a6.23,6.23,0,0,0-.62-.15,5,5,0,0,0-.66-.1,5.17,5.17,0,0,0-.68,0l-.64,0-.28,0a3.07,3.07,0,0,0-.42.07,6.23,6.23,0,0,0-.62.15,6.85,6.85,0,0,0-.68.26,3.71,3.71,0,0,0-.53.26A6.42,6.42,0,0,0,12.3,12.3,6.65,6.65,0,1,0,23.65,17,6.23,6.23,0,0,0,23.52,15.7Zm4-10.29a11.58,11.58,0,0,0-1.16-1h0a14.1,14.1,0,0,0-1.24-.83l-.66-.38-.67-.34c-.25-.13-.5-.24-.76-.35s-.42-.17-.64-.24h0q-.36-.13-.72-.24t-.6-.18A15,15,0,0,0,19,1.46l-.5-.05c-.24,0-.48,0-.72,0a11.85,11.85,0,0,0-1.46,0c-.24,0-.48,0-.72,0l-.5.05a15.6,15.6,0,0,0-2.83.63c-.19.05-.39.12-.58.19l0,0c-.21.07-.43.15-.64.24l-.44.2q-.28.12-.57.27l-.47.25c-.21.11-.41.23-.61.35s-.43.26-.63.4l-.61.43h0L7,4.92c-.22.18-.43.36-.64.56l-.17.15h0L12,11.42l.12-.1a1.71,1.71,0,0,1,.26-.21,2.43,2.43,0,0,1,.32-.24,3.28,3.28,0,0,1,.31-.2,1.64,1.64,0,0,1,.22-.14,3.9,3.9,0,0,1,.35-.19,1.87,1.87,0,0,1,.32-.15,2.33,2.33,0,0,1,.33-.14,1.21,1.21,0,0,1,.3-.11A4.26,4.26,0,0,1,15,9.79a7.64,7.64,0,0,1,1.32-.24,7.5,7.5,0,0,1,1.34,0A7.64,7.64,0,0,1,19,9.79a4.26,4.26,0,0,1,.47.15,1.21,1.21,0,0,1,.3.11,2.33,2.33,0,0,1,.33.14,1.87,1.87,0,0,1,.32.15,3.9,3.9,0,0,1,.35.19,1.64,1.64,0,0,1,.22.14,3.28,3.28,0,0,1,.31.2,2.43,2.43,0,0,1,.32.24,1.71,1.71,0,0,1,.26.21l.05,0,.07.05,5.78-5.78Zm0,0a11.58,11.58,0,0,0-1.16-1h0a14.1,14.1,0,0,0-1.24-.83l-.66-.38-.67-.34c-.25-.13-.5-.24-.76-.35s-.42-.17-.64-.24h0q-.36-.13-.72-.24t-.6-.18A15,15,0,0,0,19,1.46l-.5-.05c-.24,0-.48,0-.72,0a11.85,11.85,0,0,0-1.46,0c-.24,0-.48,0-.72,0l-.5.05a15.6,15.6,0,0,0-2.83.63c-.19.05-.39.12-.58.19l0,0c-.21.07-.43.15-.64.24l-.44.2q-.28.12-.57.27l-.47.25c-.21.11-.41.23-.61.35s-.43.26-.63.4l-.61.43h0L7,4.92c-.22.18-.43.36-.64.56l-.17.15h0L12,11.42l.12-.1a1.71,1.71,0,0,1,.26-.21,2.43,2.43,0,0,1,.32-.24,3.28,3.28,0,0,1,.31-.2,1.64,1.64,0,0,1,.22-.14,3.9,3.9,0,0,1,.35-.19,1.87,1.87,0,0,1,.32-.15,2.33,2.33,0,0,1,.33-.14,1.21,1.21,0,0,1,.3-.11A4.26,4.26,0,0,1,15,9.79a7.64,7.64,0,0,1,1.32-.24,7.5,7.5,0,0,1,1.34,0A7.64,7.64,0,0,1,19,9.79a4.26,4.26,0,0,1,.47.15,1.21,1.21,0,0,1,.3.11,2.33,2.33,0,0,1,.33.14,1.87,1.87,0,0,1,.32.15,3.9,3.9,0,0,1,.35.19,1.64,1.64,0,0,1,.22.14,3.28,3.28,0,0,1,.31.2,2.43,2.43,0,0,1,.32.24,1.71,1.71,0,0,1,.26.21l.05,0,.07.05,5.78-5.78Z"/><path id="Path_141" data-name="Path 141" class="cls-2" d="M17,.92A16.08,16.08,0,1,0,33.08,17,16.08,16.08,0,0,0,17,.92Zm0,23.15A7.07,7.07,0,1,1,24.07,17h0A7.08,7.08,0,0,1,17,24.07Z"/><path id="Path_142" data-name="Path 142" class="cls-3" d="M17.67,9.55A7.64,7.64,0,0,1,19,9.79,5.7,5.7,0,0,0,17.67,9.55Zm-.67,0a4.92,4.92,0,0,0-.67,0,7.5,7.5,0,0,1,1.34,0A4.92,4.92,0,0,0,17,9.51Zm-2,.28a7.64,7.64,0,0,1,1.32-.24A5.7,5.7,0,0,0,15,9.79Zm2.66-.24A7.64,7.64,0,0,1,19,9.79,5.7,5.7,0,0,0,17.67,9.55Zm-.67,0a4.92,4.92,0,0,0-.67,0,7.5,7.5,0,0,1,1.34,0A4.92,4.92,0,0,0,17,9.51Zm-2,.28a7.64,7.64,0,0,1,1.32-.24A5.7,5.7,0,0,0,15,9.79ZM27.53,5.41l.24.23h0Zm.84.81h0l.23.23A2.62,2.62,0,0,0,28.37,6.22Zm.22.25a16,16,0,0,1,3,4.9A15,15,0,0,0,28.59,6.47Zm4.05,9.72c0,.13,0,.26,0,.39h0C32.66,16.45,32.65,16.32,32.64,16.19Zm-15-6.64A7.64,7.64,0,0,1,19,9.79,5.7,5.7,0,0,0,17.67,9.55Zm-.67,0a4.92,4.92,0,0,0-.67,0,7.5,7.5,0,0,1,1.34,0A4.92,4.92,0,0,0,17,9.51Zm-2,.28a7.64,7.64,0,0,1,1.32-.24A5.7,5.7,0,0,0,15,9.79ZM6.23,5.63h0l.16-.16Z"/><path id="Path_143" data-name="Path 143" class="cls-4" d="M22,12a7.07,7.07,0,0,1,2.07,5h9A16,16,0,0,0,28.37,5.63Z"/><path id="Path_144" data-name="Path 144" class="cls-3" d="M22.59,12h0l.19.2Zm0,0h0l.19.2Zm0,0h0l.19.2Zm0,0h0l.19.2Zm0,0h0l.19.2Zm0,0h0l.19.2Zm0,0h0l.19.2Z"/><path id="Path_145" data-name="Path 145" class="cls-5" d="M17,.92A16,16,0,0,0,5.63,5.63L12,12a7.07,7.07,0,0,1,10,0h0l6.38-6.37A16,16,0,0,0,17,.92Z"/><path id="Path_146" data-name="Path 146" class="cls-3" d="M21.92,11.37l.06.06h0Z"/><path class="cls-3" d="M33.48,16.14c0-.54-.08-1.08-.16-1.61v0c0-.28-.09-.55-.15-.82l-.69-2.41c-.08-.23-.17-.46-.27-.68-.21-.5-.44-1-.69-1.45-.13-.23-.26-.46-.4-.69s-.28-.45-.43-.67-.3-.43-.46-.64l-1.55-1.8C28.29,5,27.9,4.6,27.5,4.27c-.21-.17-.42-.34-.63-.49s-.34-.25-.51-.36a10.42,10.42,0,0,0-1.17-.74,5.29,5.29,0,0,0-.52-.29l-.52-.26a7.22,7.22,0,0,0-.69-.31c-.27-.12-.54-.23-.82-.33l-.49-.17A14.79,14.79,0,0,0,20.33.84a6,6,0,0,0-.61-.11,16.49,16.49,0,0,0-5.43,0c-.21,0-.41.06-.62.11a14.79,14.79,0,0,0-1.82.48l-.49.17c-.28.1-.55.21-.82.33a7.22,7.22,0,0,0-.69.31l-.52.26a5.29,5.29,0,0,0-.52.29,10.42,10.42,0,0,0-1.17.74q-.25.17-.51.36c-.21.15-.42.32-.63.49-.4.33-.79.68-1.17,1.06A16.5,16.5,0,1,0,33.5,17v0ZM6.4,5.48c.21-.2.42-.38.64-.56l.58-.47h0L8.25,4c.21-.14.42-.28.63-.4a6.34,6.34,0,0,1,.61-.35L10,3q.29-.15.57-.27l.44-.2c.21-.09.43-.17.64-.24l0,0c.19-.07.39-.14.58-.19a15.6,15.6,0,0,1,2.83-.63l.5-.05c.24,0,.48,0,.72,0a11.85,11.85,0,0,1,1.46,0c.24,0,.48,0,.72,0l.5.05a15,15,0,0,1,2.1.41q.3.07.6.18t.72.24h0c.22.07.43.15.64.24s.51.22.76.35a6,6,0,0,1,.67.34,7.44,7.44,0,0,1,.66.38,14.1,14.1,0,0,1,1.24.83h0a11.58,11.58,0,0,1,1.16,1l.25.22h0L22,11.42h0l-.06-.06-.05,0a1.71,1.71,0,0,0-.26-.21,2.43,2.43,0,0,0-.32-.24,3.28,3.28,0,0,0-.31-.2,1.64,1.64,0,0,0-.22-.14,3.9,3.9,0,0,0-.35-.19,1.87,1.87,0,0,0-.32-.15,2.33,2.33,0,0,0-.33-.14,1.21,1.21,0,0,0-.3-.11A4.26,4.26,0,0,0,19,9.79a7.64,7.64,0,0,0-1.32-.24,7.5,7.5,0,0,0-1.34,0A7.64,7.64,0,0,0,15,9.79a4.26,4.26,0,0,0-.47.15,1.21,1.21,0,0,0-.3.11,2.33,2.33,0,0,0-.33.14,1.87,1.87,0,0,0-.32.15,3.9,3.9,0,0,0-.35.19,1.64,1.64,0,0,0-.22.14,3.28,3.28,0,0,0-.31.2,2.43,2.43,0,0,0-.32.24,1.71,1.71,0,0,0-.26.21l-.12.1L6.24,5.64h0Zm16.44,8.35a2.23,2.23,0,0,1,.22.47,1.2,1.2,0,0,1,.11.23,4.93,4.93,0,0,1,.19.54,4.15,4.15,0,0,1,.16.63,6.23,6.23,0,0,1,.13,1.3A6.65,6.65,0,1,1,12.3,12.3a6.42,6.42,0,0,1,1.53-1.14,3.71,3.71,0,0,1,.53-.26,6.85,6.85,0,0,1,.68-.26,6.23,6.23,0,0,1,.62-.15,3.07,3.07,0,0,1,.42-.07l.28,0,.64,0a5.17,5.17,0,0,1,.68,0,5,5,0,0,1,.66.1,6.23,6.23,0,0,1,.62.15c.23.08.46.16.68.26a3.71,3.71,0,0,1,.53.26A6.42,6.42,0,0,1,21.7,12.3,6.29,6.29,0,0,1,22.84,13.83ZM17,32.66A15.65,15.65,0,0,1,5.64,6.24L11.43,12a7.38,7.38,0,0,0-1.92,5,7.49,7.49,0,0,0,15,.42h8.18A15.65,15.65,0,0,1,17,32.66Zm7.47-16.08v0a4.78,4.78,0,0,0-.06-.53.57.57,0,0,0,0-.13,4.54,4.54,0,0,0-.09-.51c0-.19-.1-.39-.16-.58s-.15-.44-.23-.65c0,0,0,0,0,0-.1-.23-.2-.44-.32-.66s-.24-.41-.37-.61-.27-.38-.41-.55a.07.07,0,0,0,0,0l-.19-.2h0l5.77-5.77h0a2.62,2.62,0,0,1,.22.25,15,15,0,0,1,3,4.9c.1.26.2.52.28.79s.19.62.27.93.17.7.23,1.05.14.84.18,1.26a6.83,6.83,0,0,1,.06.79c0,.13,0,.26,0,.39Z"/></svg>